<?xml version="1.0" encoding="utf-8" standalone="no"?>
<!DOCTYPE svg PUBLIC "-//W3C//DTD SVG 1.1//EN"
  "http://www.w3.org/Graphics/SVG/1.1/DTD/svg11.dtd">
<!-- Created with matplotlib (https://matplotlib.org/) -->
<svg height="345.6pt" version="1.1" viewBox="0 0 460.8 345.6" width="460.8pt" xmlns="http://www.w3.org/2000/svg" xmlns:xlink="http://www.w3.org/1999/xlink">
 <metadata>
  <rdf:RDF xmlns:cc="http://creativecommons.org/ns#" xmlns:dc="http://purl.org/dc/elements/1.1/" xmlns:rdf="http://www.w3.org/1999/02/22-rdf-syntax-ns#">
   <cc:Work>
    <dc:type rdf:resource="http://purl.org/dc/dcmitype/StillImage"/>
    <dc:date>2024-09-30T13:42:29.869798</dc:date>
    <dc:format>image/svg+xml</dc:format>
    <dc:creator>
     <cc:Agent>
      <dc:title>Matplotlib v3.3.1, https://matplotlib.org/</dc:title>
     </cc:Agent>
    </dc:creator>
   </cc:Work>
  </rdf:RDF>
 </metadata>
 <defs>
  <style type="text/css">*{stroke-linecap:butt;stroke-linejoin:round;}</style>
 </defs>
 <g id="figure_1">
  <g id="patch_1">
   <path d="M 0 345.6 
L 460.8 345.6 
L 460.8 0 
L 0 0 
z
" style="fill:#ffffff;"/>
  </g>
  <g id="axes_1">
   <g id="patch_2">
    <path d="M 57.6 307.584 
L 414.72 307.584 
L 414.72 41.472 
L 57.6 41.472 
z
" style="fill:#ffffff;"/>
   </g>
   <g id="matplotlib.axis_1">
    <g id="xtick_1">
     <g id="line2d_1">
      <defs>
       <path d="M 0 0 
L 0 3.5 
" id="m01a2632278" style="stroke:#000000;stroke-width:0.8;"/>
      </defs>
      <g>
       <use style="stroke:#000000;stroke-width:0.8;" x="73.832727" xlink:href="#m01a2632278" y="307.584"/>
      </g>
     </g>
     <g id="text_1">
      <!-- 0.0 -->
      <g transform="translate(65.881165 322.182437)scale(0.1 -0.1)">
       <defs>
        <path d="M 31.78125 66.40625 
Q 24.171875 66.40625 20.328125 58.90625 
Q 16.5 51.421875 16.5 36.375 
Q 16.5 21.390625 20.328125 13.890625 
Q 24.171875 6.390625 31.78125 6.390625 
Q 39.453125 6.390625 43.28125 13.890625 
Q 47.125 21.390625 47.125 36.375 
Q 47.125 51.421875 43.28125 58.90625 
Q 39.453125 66.40625 31.78125 66.40625 
z
M 31.78125 74.21875 
Q 44.046875 74.21875 50.515625 64.515625 
Q 56.984375 54.828125 56.984375 36.375 
Q 56.984375 17.96875 50.515625 8.265625 
Q 44.046875 -1.421875 31.78125 -1.421875 
Q 19.53125 -1.421875 13.0625 8.265625 
Q 6.59375 17.96875 6.59375 36.375 
Q 6.59375 54.828125 13.0625 64.515625 
Q 19.53125 74.21875 31.78125 74.21875 
z
" id="DejaVuSans-48"/>
        <path d="M 10.6875 12.40625 
L 21 12.40625 
L 21 0 
L 10.6875 0 
z
" id="DejaVuSans-46"/>
       </defs>
       <use xlink:href="#DejaVuSans-48"/>
       <use x="63.623047" xlink:href="#DejaVuSans-46"/>
       <use x="95.410156" xlink:href="#DejaVuSans-48"/>
      </g>
     </g>
    </g>
    <g id="xtick_2">
     <g id="line2d_2">
      <g>
       <use style="stroke:#000000;stroke-width:0.8;" x="138.763636" xlink:href="#m01a2632278" y="307.584"/>
      </g>
     </g>
     <g id="text_2">
      <!-- 0.2 -->
      <g transform="translate(130.812074 322.182437)scale(0.1 -0.1)">
       <defs>
        <path d="M 19.1875 8.296875 
L 53.609375 8.296875 
L 53.609375 0 
L 7.328125 0 
L 7.328125 8.296875 
Q 12.9375 14.109375 22.625 23.890625 
Q 32.328125 33.6875 34.8125 36.53125 
Q 39.546875 41.84375 41.421875 45.53125 
Q 43.3125 49.21875 43.3125 52.78125 
Q 43.3125 58.59375 39.234375 62.25 
Q 35.15625 65.921875 28.609375 65.921875 
Q 23.96875 65.921875 18.8125 64.3125 
Q 13.671875 62.703125 7.8125 59.421875 
L 7.8125 69.390625 
Q 13.765625 71.78125 18.9375 73 
Q 24.125 74.21875 28.421875 74.21875 
Q 39.75 74.21875 46.484375 68.546875 
Q 53.21875 62.890625 53.21875 53.421875 
Q 53.21875 48.921875 51.53125 44.890625 
Q 49.859375 40.875 45.40625 35.40625 
Q 44.1875 33.984375 37.640625 27.21875 
Q 31.109375 20.453125 19.1875 8.296875 
z
" id="DejaVuSans-50"/>
       </defs>
       <use xlink:href="#DejaVuSans-48"/>
       <use x="63.623047" xlink:href="#DejaVuSans-46"/>
       <use x="95.410156" xlink:href="#DejaVuSans-50"/>
      </g>
     </g>
    </g>
    <g id="xtick_3">
     <g id="line2d_3">
      <g>
       <use style="stroke:#000000;stroke-width:0.8;" x="203.694545" xlink:href="#m01a2632278" y="307.584"/>
      </g>
     </g>
     <g id="text_3">
      <!-- 0.4 -->
      <g transform="translate(195.742983 322.182437)scale(0.1 -0.1)">
       <defs>
        <path d="M 37.796875 64.3125 
L 12.890625 25.390625 
L 37.796875 25.390625 
z
M 35.203125 72.90625 
L 47.609375 72.90625 
L 47.609375 25.390625 
L 58.015625 25.390625 
L 58.015625 17.1875 
L 47.609375 17.1875 
L 47.609375 0 
L 37.796875 0 
L 37.796875 17.1875 
L 4.890625 17.1875 
L 4.890625 26.703125 
z
" id="DejaVuSans-52"/>
       </defs>
       <use xlink:href="#DejaVuSans-48"/>
       <use x="63.623047" xlink:href="#DejaVuSans-46"/>
       <use x="95.410156" xlink:href="#DejaVuSans-52"/>
      </g>
     </g>
    </g>
    <g id="xtick_4">
     <g id="line2d_4">
      <g>
       <use style="stroke:#000000;stroke-width:0.8;" x="268.625455" xlink:href="#m01a2632278" y="307.584"/>
      </g>
     </g>
     <g id="text_4">
      <!-- 0.6 -->
      <g transform="translate(260.673892 322.182437)scale(0.1 -0.1)">
       <defs>
        <path d="M 33.015625 40.375 
Q 26.375 40.375 22.484375 35.828125 
Q 18.609375 31.296875 18.609375 23.390625 
Q 18.609375 15.53125 22.484375 10.953125 
Q 26.375 6.390625 33.015625 6.390625 
Q 39.65625 6.390625 43.53125 10.953125 
Q 47.40625 15.53125 47.40625 23.390625 
Q 47.40625 31.296875 43.53125 35.828125 
Q 39.65625 40.375 33.015625 40.375 
z
M 52.59375 71.296875 
L 52.59375 62.3125 
Q 48.875 64.0625 45.09375 64.984375 
Q 41.3125 65.921875 37.59375 65.921875 
Q 27.828125 65.921875 22.671875 59.328125 
Q 17.53125 52.734375 16.796875 39.40625 
Q 19.671875 43.65625 24.015625 45.921875 
Q 28.375 48.1875 33.59375 48.1875 
Q 44.578125 48.1875 50.953125 41.515625 
Q 57.328125 34.859375 57.328125 23.390625 
Q 57.328125 12.15625 50.6875 5.359375 
Q 44.046875 -1.421875 33.015625 -1.421875 
Q 20.359375 -1.421875 13.671875 8.265625 
Q 6.984375 17.96875 6.984375 36.375 
Q 6.984375 53.65625 15.1875 63.9375 
Q 23.390625 74.21875 37.203125 74.21875 
Q 40.921875 74.21875 44.703125 73.484375 
Q 48.484375 72.75 52.59375 71.296875 
z
" id="DejaVuSans-54"/>
       </defs>
       <use xlink:href="#DejaVuSans-48"/>
       <use x="63.623047" xlink:href="#DejaVuSans-46"/>
       <use x="95.410156" xlink:href="#DejaVuSans-54"/>
      </g>
     </g>
    </g>
    <g id="xtick_5">
     <g id="line2d_5">
      <g>
       <use style="stroke:#000000;stroke-width:0.8;" x="333.556364" xlink:href="#m01a2632278" y="307.584"/>
      </g>
     </g>
     <g id="text_5">
      <!-- 0.8 -->
      <g transform="translate(325.604801 322.182437)scale(0.1 -0.1)">
       <defs>
        <path d="M 31.78125 34.625 
Q 24.75 34.625 20.71875 30.859375 
Q 16.703125 27.09375 16.703125 20.515625 
Q 16.703125 13.921875 20.71875 10.15625 
Q 24.75 6.390625 31.78125 6.390625 
Q 38.8125 6.390625 42.859375 10.171875 
Q 46.921875 13.96875 46.921875 20.515625 
Q 46.921875 27.09375 42.890625 30.859375 
Q 38.875 34.625 31.78125 34.625 
z
M 21.921875 38.8125 
Q 15.578125 40.375 12.03125 44.71875 
Q 8.5 49.078125 8.5 55.328125 
Q 8.5 64.0625 14.71875 69.140625 
Q 20.953125 74.21875 31.78125 74.21875 
Q 42.671875 74.21875 48.875 69.140625 
Q 55.078125 64.0625 55.078125 55.328125 
Q 55.078125 49.078125 51.53125 44.71875 
Q 48 40.375 41.703125 38.8125 
Q 48.828125 37.15625 52.796875 32.3125 
Q 56.78125 27.484375 56.78125 20.515625 
Q 56.78125 9.90625 50.3125 4.234375 
Q 43.84375 -1.421875 31.78125 -1.421875 
Q 19.734375 -1.421875 13.25 4.234375 
Q 6.78125 9.90625 6.78125 20.515625 
Q 6.78125 27.484375 10.78125 32.3125 
Q 14.796875 37.15625 21.921875 38.8125 
z
M 18.3125 54.390625 
Q 18.3125 48.734375 21.84375 45.5625 
Q 25.390625 42.390625 31.78125 42.390625 
Q 38.140625 42.390625 41.71875 45.5625 
Q 45.3125 48.734375 45.3125 54.390625 
Q 45.3125 60.0625 41.71875 63.234375 
Q 38.140625 66.40625 31.78125 66.40625 
Q 25.390625 66.40625 21.84375 63.234375 
Q 18.3125 60.0625 18.3125 54.390625 
z
" id="DejaVuSans-56"/>
       </defs>
       <use xlink:href="#DejaVuSans-48"/>
       <use x="63.623047" xlink:href="#DejaVuSans-46"/>
       <use x="95.410156" xlink:href="#DejaVuSans-56"/>
      </g>
     </g>
    </g>
    <g id="xtick_6">
     <g id="line2d_6">
      <g>
       <use style="stroke:#000000;stroke-width:0.8;" x="398.487273" xlink:href="#m01a2632278" y="307.584"/>
      </g>
     </g>
     <g id="text_6">
      <!-- 1.0 -->
      <g transform="translate(390.53571 322.182437)scale(0.1 -0.1)">
       <defs>
        <path d="M 12.40625 8.296875 
L 28.515625 8.296875 
L 28.515625 63.921875 
L 10.984375 60.40625 
L 10.984375 69.390625 
L 28.421875 72.90625 
L 38.28125 72.90625 
L 38.28125 8.296875 
L 54.390625 8.296875 
L 54.390625 0 
L 12.40625 0 
z
" id="DejaVuSans-49"/>
       </defs>
       <use xlink:href="#DejaVuSans-49"/>
       <use x="63.623047" xlink:href="#DejaVuSans-46"/>
       <use x="95.410156" xlink:href="#DejaVuSans-48"/>
      </g>
     </g>
    </g>
   </g>
   <g id="matplotlib.axis_2">
    <g id="ytick_1">
     <g id="line2d_7">
      <defs>
       <path d="M 0 0 
L -3.5 0 
" id="mf5a74a65ff" style="stroke:#000000;stroke-width:0.8;"/>
      </defs>
      <g>
       <use style="stroke:#000000;stroke-width:0.8;" x="57.6" xlink:href="#mf5a74a65ff" y="305.486891"/>
      </g>
     </g>
     <g id="text_7">
      <!-- −2 -->
      <g transform="translate(35.857813 309.28611)scale(0.1 -0.1)">
       <defs>
        <path d="M 10.59375 35.5 
L 73.1875 35.5 
L 73.1875 27.203125 
L 10.59375 27.203125 
z
" id="DejaVuSans-8722"/>
       </defs>
       <use xlink:href="#DejaVuSans-8722"/>
       <use x="83.789062" xlink:href="#DejaVuSans-50"/>
      </g>
     </g>
    </g>
    <g id="ytick_2">
     <g id="line2d_8">
      <g>
       <use style="stroke:#000000;stroke-width:0.8;" x="57.6" xlink:href="#mf5a74a65ff" y="263.405176"/>
      </g>
     </g>
     <g id="text_8">
      <!-- 0 -->
      <g transform="translate(44.2375 267.204395)scale(0.1 -0.1)">
       <use xlink:href="#DejaVuSans-48"/>
      </g>
     </g>
    </g>
    <g id="ytick_3">
     <g id="line2d_9">
      <g>
       <use style="stroke:#000000;stroke-width:0.8;" x="57.6" xlink:href="#mf5a74a65ff" y="221.323461"/>
      </g>
     </g>
     <g id="text_9">
      <!-- 2 -->
      <g transform="translate(44.2375 225.12268)scale(0.1 -0.1)">
       <use xlink:href="#DejaVuSans-50"/>
      </g>
     </g>
    </g>
    <g id="ytick_4">
     <g id="line2d_10">
      <g>
       <use style="stroke:#000000;stroke-width:0.8;" x="57.6" xlink:href="#mf5a74a65ff" y="179.241746"/>
      </g>
     </g>
     <g id="text_10">
      <!-- 4 -->
      <g transform="translate(44.2375 183.040965)scale(0.1 -0.1)">
       <use xlink:href="#DejaVuSans-52"/>
      </g>
     </g>
    </g>
    <g id="ytick_5">
     <g id="line2d_11">
      <g>
       <use style="stroke:#000000;stroke-width:0.8;" x="57.6" xlink:href="#mf5a74a65ff" y="137.160031"/>
      </g>
     </g>
     <g id="text_11">
      <!-- 6 -->
      <g transform="translate(44.2375 140.95925)scale(0.1 -0.1)">
       <use xlink:href="#DejaVuSans-54"/>
      </g>
     </g>
    </g>
    <g id="ytick_6">
     <g id="line2d_12">
      <g>
       <use style="stroke:#000000;stroke-width:0.8;" x="57.6" xlink:href="#mf5a74a65ff" y="95.078316"/>
      </g>
     </g>
     <g id="text_12">
      <!-- 8 -->
      <g transform="translate(44.2375 98.877535)scale(0.1 -0.1)">
       <use xlink:href="#DejaVuSans-56"/>
      </g>
     </g>
    </g>
    <g id="ytick_7">
     <g id="line2d_13">
      <g>
       <use style="stroke:#000000;stroke-width:0.8;" x="57.6" xlink:href="#mf5a74a65ff" y="52.996601"/>
      </g>
     </g>
     <g id="text_13">
      <!-- 10 -->
      <g transform="translate(37.875 56.79582)scale(0.1 -0.1)">
       <use xlink:href="#DejaVuSans-49"/>
       <use x="63.623047" xlink:href="#DejaVuSans-48"/>
      </g>
     </g>
    </g>
   </g>
   <g id="line2d_14">
    <path clip-path="url(#p813fe70f56)" d="M 73.832727 263.405176 
L 104.507553 263.402338 
L 104.852211 263.702341 
L 105.196883 260.228309 
L 106.230781 245.796141 
L 106.575543 245.269953 
L 106.920162 250.159591 
L 107.264815 246.223538 
L 107.609546 228.579896 
L 107.953765 226.528317 
L 108.298834 235.03501 
L 108.642828 234.491036 
L 109.332597 260.630244 
L 109.677223 257.749663 
L 110.021924 259.479484 
L 110.366556 259.219327 
L 110.711254 259.128868 
L 111.055899 259.760853 
L 111.400573 260.011703 
L 111.745226 261.968785 
L 112.089906 267.073158 
L 112.434497 269.300664 
L 112.779197 264.705827 
L 113.123866 264.832912 
L 113.46852 264.750268 
L 113.813161 262.319587 
L 114.157826 264.998402 
L 114.5025 266.767879 
L 115.191779 259.054067 
L 115.536477 259.204326 
L 116.225754 266.237531 
L 116.570444 267.094943 
L 116.915072 264.144755 
L 117.259713 258.970091 
L 117.604423 257.298641 
L 117.949036 261.004999 
L 118.293735 268.844564 
L 118.638365 270.881518 
L 118.983041 265.63122 
L 119.327696 262.959963 
L 120.016976 266.339354 
L 120.361668 262.779851 
L 120.706338 262.925865 
L 121.050983 263.482582 
L 121.395624 260.532028 
L 121.740313 262.600728 
L 122.08497 263.187931 
L 122.42961 262.544807 
L 122.774258 263.230708 
L 123.118918 260.989917 
L 123.463602 262.23473 
L 123.808263 260.979227 
L 124.152852 257.40933 
L 124.497564 260.127475 
L 125.186802 254.452323 
L 125.876152 263.175593 
L 126.220854 269.40343 
L 126.565486 268.515487 
L 126.910119 263.201345 
L 127.254817 266.358758 
L 127.599477 263.323198 
L 127.944057 254.82793 
L 128.288801 257.602496 
L 128.633431 263.00365 
L 128.978099 262.018339 
L 129.322766 259.749679 
L 130.012007 267.325131 
L 130.701365 262.451835 
L 131.046009 263.698714 
L 131.39067 267.539878 
L 131.735359 265.159365 
L 132.079971 261.462857 
L 132.42464 263.277934 
L 132.769294 264.030926 
L 133.458523 256.475223 
L 134.147912 265.063944 
L 134.492584 262.931406 
L 134.837233 262.078655 
L 135.181928 266.852706 
L 135.526487 268.501199 
L 135.871176 263.822417 
L 136.215847 260.793126 
L 136.560462 261.569421 
L 136.905161 266.21438 
L 137.24982 265.654506 
L 137.594441 261.597655 
L 137.939119 261.35382 
L 138.283744 263.342349 
L 138.628379 266.217379 
L 139.317736 261.374163 
L 139.662398 262.316037 
L 140.007066 265.206975 
L 140.351663 266.179536 
L 140.696334 263.336396 
L 141.041 262.525964 
L 141.385647 262.784056 
L 141.730316 261.24458 
L 142.074922 261.618366 
L 142.419616 266.019773 
L 142.764289 265.099778 
L 143.108909 261.479648 
L 143.453582 261.772462 
L 144.142834 266.418462 
L 144.832197 261.811456 
L 145.176857 263.043687 
L 145.521527 264.996059 
L 145.866165 264.284451 
L 146.210797 262.420801 
L 146.555456 263.13914 
L 146.900111 264.302496 
L 147.244742 263.73762 
L 147.58942 260.361333 
L 147.934097 261.574232 
L 148.278721 264.935547 
L 148.623391 264.943804 
L 149.312635 260.557557 
L 150.002 265.802043 
L 150.346661 263.909078 
L 150.691319 263.730959 
L 151.035981 264.846522 
L 151.380652 262.811893 
L 151.72527 261.91194 
L 152.414576 265.528916 
L 152.759182 266.591927 
L 153.103892 264.131628 
L 153.448558 264.229788 
L 153.793177 267.05554 
L 154.482451 276.477848 
L 155.171514 251.874256 
L 155.860993 270.974246 
L 156.550329 269.945559 
L 156.895054 267.488385 
L 157.239701 262.099987 
L 157.584277 261.235899 
L 157.928994 267.640717 
L 158.273645 269.146256 
L 158.963019 253.939453 
L 159.307538 251.122598 
L 159.996973 273.404961 
L 160.341525 271.085481 
L 160.686158 262.221464 
L 161.030883 258.240506 
L 161.375404 259.914669 
L 161.720179 268.007821 
L 162.064771 270.863452 
L 162.754135 260.376165 
L 163.098707 261.184423 
L 163.443482 270.454548 
L 163.787992 274.408381 
L 164.477362 260.977904 
L 164.822098 253.867669 
L 165.16662 255.053876 
L 165.511321 260.743062 
L 165.85594 262.745812 
L 166.200664 267.212513 
L 166.545261 268.352536 
L 167.234618 259.471983 
L 167.579182 260.090037 
L 167.923969 268.886717 
L 168.268464 273.324485 
L 168.95784 261.70254 
L 169.302552 255.713608 
L 169.647128 258.70798 
L 169.991832 267.906833 
L 170.336481 266.976445 
L 170.681082 261.400472 
L 171.025791 259.328459 
L 171.370344 260.697301 
L 171.715089 267.766008 
L 172.059699 270.148025 
L 172.404396 262.859987 
L 173.093786 244.751075 
L 173.438227 248.794642 
L 173.78302 259.464029 
L 174.127693 260.449481 
L 174.472241 259.26509 
L 174.816924 262.263554 
L 175.161545 262.537747 
L 175.850736 254.778281 
L 176.195527 257.710828 
L 176.540172 258.760555 
L 177.229339 264.448833 
L 177.575045 229.112771 
L 177.917435 178.092569 
L 178.260628 182.481489 
L 178.606749 222.123514 
L 178.95026 232.717539 
L 179.297445 212.467366 
L 179.636042 221.367189 
L 179.984102 259.929482 
L 180.327943 268.892188 
L 180.672942 254.907777 
L 181.017326 253.080518 
L 181.706817 271.086353 
L 182.051337 264.319513 
L 182.395976 253.218738 
L 182.740666 254.645932 
L 183.085357 263.45926 
L 183.429949 265.33284 
L 183.774614 261.273734 
L 184.119309 258.780719 
L 184.463901 262.010243 
L 184.808631 266.804374 
L 185.153251 264.422334 
L 185.497788 260.778219 
L 185.842474 262.01597 
L 186.187091 264.935517 
L 186.531637 264.511859 
L 186.87637 259.869261 
L 187.221006 260.173088 
L 187.565662 264.321024 
L 187.910312 263.722579 
L 188.255053 257.873822 
L 188.59938 255.835676 
L 188.944204 260.792278 
L 189.288814 263.420459 
L 189.978105 262.178669 
L 190.667342 253.077491 
L 191.356676 261.868084 
L 191.701297 261.005994 
L 192.045988 260.575261 
L 192.390605 262.294981 
L 193.080001 270.919062 
L 193.769159 260.933725 
L 194.458518 265.178031 
L 195.147755 258.240579 
L 195.492472 260.874886 
L 195.837124 264.451007 
L 196.181762 264.485417 
L 196.526421 263.242885 
L 196.87108 264.145603 
L 197.215746 264.444861 
L 197.904921 254.955525 
L 198.249706 257.206013 
L 198.594307 261.883626 
L 198.938946 263.229499 
L 199.28357 263.615393 
L 199.62816 266.05524 
L 199.97291 270.684444 
L 200.31732 271.525539 
L 201.00675 258.704439 
L 201.696072 263.231075 
L 202.040732 263.689444 
L 202.385383 263.283292 
L 202.730021 263.112035 
L 203.074666 262.171917 
L 203.419275 262.268108 
L 204.108707 274.159251 
L 204.453116 273.318932 
L 205.142525 258.651671 
L 205.487243 254.463089 
L 205.831835 252.932639 
L 206.865845 264.344923 
L 207.210502 263.949546 
L 207.555157 264.1488 
L 207.899857 269.007271 
L 208.244426 270.612444 
L 208.58917 264.392082 
L 208.933728 263.123095 
L 209.278426 267.23884 
L 209.623074 265.452656 
L 209.967721 260.92102 
L 210.312404 260.35113 
L 210.657044 262.094973 
L 211.001698 263.096843 
L 211.346338 263.39506 
L 212.035606 263.606741 
L 212.380209 264.659481 
L 212.724888 269.764758 
L 213.069348 271.270074 
L 213.414249 261.633028 
L 213.758598 257.610573 
L 214.103393 263.231354 
L 214.448022 266.208866 
L 214.792707 265.520819 
L 215.137367 262.613405 
L 215.481918 261.162132 
L 215.826598 261.791432 
L 216.515854 270.258538 
L 217.205032 257.444395 
L 217.549806 262.180067 
L 217.894404 264.705597 
L 218.239086 261.846613 
L 218.583727 262.900247 
L 218.928492 269.302767 
L 219.272868 267.653562 
L 219.617768 258.981068 
L 219.962248 259.468525 
L 220.30688 263.791956 
L 220.651513 263.084012 
L 220.99618 261.578999 
L 221.685367 268.227438 
L 222.374689 260.297728 
L 222.719378 262.278835 
L 223.06403 263.350394 
L 223.408702 261.295921 
L 223.753327 262.012073 
L 224.098046 265.24935 
L 224.442652 264.596794 
L 224.787248 266.94717 
L 225.131862 270.555422 
L 225.821168 262.568023 
L 226.165829 264.194996 
L 226.510476 263.439066 
L 226.855191 258.890267 
L 227.19958 258.510759 
L 227.544326 263.099464 
L 227.888973 264.58331 
L 228.233624 261.38905 
L 228.578254 260.854522 
L 228.922995 265.116089 
L 229.267527 265.698197 
L 229.612169 262.829309 
L 229.956812 262.806147 
L 230.30145 267.144387 
L 230.645904 268.816756 
L 230.990686 264.088473 
L 231.33531 262.121043 
L 231.679993 264.051062 
L 232.024607 261.273841 
L 232.369417 256.519944 
L 232.713845 259.246318 
L 233.058488 263.945089 
L 233.403122 262.932767 
L 233.747813 260.085996 
L 234.436976 263.509143 
L 234.781722 259.927121 
L 235.126282 259.160225 
L 235.47091 256.814658 
L 236.15995 246.227806 
L 236.505723 230.510556 
L 236.8486 223.266213 
L 237.193526 232.145698 
L 237.539102 235.296055 
L 237.88191 240.243709 
L 238.227661 251.069251 
L 238.570986 247.205275 
L 238.917934 226.280084 
L 239.257422 227.808036 
L 239.604794 252.888472 
L 239.948655 259.573872 
L 240.293638 255.918055 
L 240.637754 248.88461 
L 240.984196 231.606463 
L 241.325364 234.044622 
L 241.671627 252.798417 
L 242.015759 256.443339 
L 242.360663 252.204835 
L 242.705105 253.993637 
L 243.049857 261.456132 
L 243.394562 266.183147 
L 244.083642 255.532397 
L 244.428411 258.638565 
L 245.117512 253.676812 
L 245.462263 254.472552 
L 245.807123 251.425169 
L 246.151385 254.072125 
L 246.496194 261.283095 
L 246.840801 263.425944 
L 247.185468 262.476298 
L 247.530063 260.665648 
L 247.874759 253.683627 
L 248.219282 250.382789 
L 248.564018 257.964579 
L 248.908587 260.390978 
L 249.253248 257.08684 
L 249.597927 259.540733 
L 249.942529 258.664302 
L 250.287371 252.404399 
L 250.63174 255.355456 
L 250.976499 260.212224 
L 251.321285 257.593664 
L 251.665692 259.804852 
L 252.010352 264.143614 
L 252.355025 263.281988 
L 252.699686 262.823715 
L 253.044347 263.602275 
L 253.389009 262.866803 
L 253.733668 263.705592 
L 254.078385 265.335402 
L 254.422936 259.475974 
L 254.7674 256.823568 
L 255.112215 260.66529 
L 255.801221 253.696894 
L 256.146072 258.649589 
L 256.490647 259.674676 
L 256.835409 257.010574 
L 257.179915 257.297192 
L 257.524659 258.898497 
L 257.869227 259.294595 
L 258.213942 258.052359 
L 258.558535 258.476125 
L 258.903224 260.1077 
L 259.247923 260.624969 
L 259.592516 266.027951 
L 259.93711 268.961238 
L 260.281846 264.993749 
L 260.626462 263.384392 
L 260.971079 261.079191 
L 261.315641 260.275227 
L 261.660324 260.367452 
L 262.005135 255.609423 
L 262.349488 255.425436 
L 262.694273 260.811226 
L 263.038887 263.543848 
L 263.383529 263.538072 
L 263.728167 263.71467 
L 264.072781 264.605676 
L 264.417467 265.851124 
L 264.761997 261.151894 
L 265.106784 252.413401 
L 265.451299 253.10868 
L 266.140683 270.518676 
L 266.485345 270.725369 
L 266.830032 263.733783 
L 267.174582 260.178132 
L 267.519277 262.132247 
L 268.208485 266.992796 
L 268.553234 268.874391 
L 269.242406 266.229821 
L 269.587073 266.348121 
L 269.931685 268.067738 
L 270.276566 274.006363 
L 270.62077 273.929064 
L 270.965624 268.185002 
L 271.310222 267.106334 
L 271.654896 270.384393 
L 272.344152 279.432798 
L 272.689022 279.260522 
L 273.033422 269.894854 
L 273.378125 263.640972 
L 273.722785 262.716421 
L 274.06753 259.075257 
L 274.411996 263.089694 
L 274.75673 274.989619 
L 275.10141 278.910222 
L 275.445999 275.179296 
L 275.790641 279.301557 
L 276.135532 287.793418 
L 276.479762 284.334151 
L 276.82464 276.517887 
L 277.16927 276.023997 
L 277.513833 280.869106 
L 277.858764 282.480749 
L 278.203052 272.945874 
L 278.547811 266.673667 
L 278.892576 271.609611 
L 279.237021 274.587365 
L 279.581863 272.458838 
L 279.926343 271.220406 
L 280.615607 282.323415 
L 280.960332 276.051544 
L 281.304902 273.203837 
L 281.649925 283.235545 
L 281.993936 285.176483 
L 282.338911 271.732698 
L 282.683499 265.476957 
L 283.028312 274.708996 
L 283.3726 278.037371 
L 283.717427 267.989013 
L 284.062041 263.112097 
L 284.406764 267.686851 
L 284.7513 268.616303 
L 285.096025 264.756803 
L 285.440623 267.038446 
L 285.785468 272.217528 
L 286.12985 269.81249 
L 286.474587 264.969014 
L 286.8192 263.887058 
L 287.163861 263.843937 
L 287.508497 263.421259 
L 287.853136 263.436356 
L 288.19777 264.115295 
L 288.54242 263.294469 
L 288.887086 258.651431 
L 289.231567 258.804374 
L 289.57632 264.836687 
L 289.920946 266.15618 
L 290.265618 264.808271 
L 290.954941 263.508913 
L 291.644255 263.263747 
L 291.988902 263.482065 
L 292.333543 263.264605 
L 293.022829 262.5002 
L 293.367447 261.652191 
L 293.712118 263.220102 
L 294.056797 269.130978 
L 294.401254 270.47144 
L 294.746011 266.079962 
L 295.090644 264.673152 
L 295.435317 264.46232 
L 295.779968 263.863018 
L 296.124654 267.421278 
L 296.469189 277.692618 
L 296.814216 284.230146 
L 297.503309 274.564613 
L 297.84771 273.492363 
L 298.537079 267.181469 
L 298.88181 268.791722 
L 299.226307 276.972173 
L 299.571298 289.413789 
L 299.91558 292.008172 
L 300.949619 268.491133 
L 301.294253 269.530491 
L 301.638942 274.331312 
L 301.983523 274.174597 
L 302.328323 272.586369 
L 302.672805 271.815592 
L 303.017597 277.413005 
L 303.362073 280.8724 
L 303.706762 275.857 
L 304.05145 274.079777 
L 304.396089 275.470235 
L 305.085399 269.792383 
L 305.77471 276.293427 
L 306.119387 275.354061 
L 306.464041 272.698963 
L 306.808709 268.575617 
L 307.153364 266.235157 
L 307.498061 265.464653 
L 307.842696 262.469345 
L 308.187289 262.369488 
L 308.531942 264.486802 
L 309.221261 263.618443 
L 309.565924 265.342838 
L 310.255263 259.894523 
L 310.599887 262.133252 
L 310.944532 263.479142 
L 311.289153 260.73612 
L 311.633883 254.339676 
L 311.978351 253.962311 
L 312.323091 256.387246 
L 312.667794 250.664423 
L 313.01236 253.084786 
L 313.357143 267.808678 
L 313.701632 271.167539 
L 314.046342 259.608221 
L 314.391048 257.303452 
L 314.735748 269.601733 
L 315.080181 269.7443 
L 315.425022 255.499582 
L 315.769525 248.627832 
L 316.114225 246.514229 
L 316.458997 249.161748 
L 316.803538 262.113083 
L 317.148143 267.589719 
L 317.837501 247.564534 
L 318.182178 247.745585 
L 318.526778 259.756532 
L 318.871459 265.346079 
L 319.21616 262.158834 
L 319.560762 261.395752 
L 320.250009 257.211781 
L 320.939403 265.720623 
L 321.284019 263.615653 
L 321.628634 260.540496 
L 321.973308 254.639615 
L 322.317899 253.605546 
L 322.662598 260.092824 
L 323.00724 262.492728 
L 323.351885 262.747964 
L 324.385864 264.258667 
L 325.0752 266.003481 
L 325.764566 257.12823 
L 326.109161 261.26987 
L 326.4538 263.881799 
L 327.143096 263.29751 
L 327.83239 263.624624 
L 328.177049 263.104242 
L 328.521693 265.328006 
L 328.866421 268.298559 
L 329.555627 260.804923 
L 329.9003 261.425882 
L 330.244951 262.449321 
L 330.934274 263.365152 
L 331.278931 263.204626 
L 331.623577 262.548047 
L 331.968246 262.990813 
L 332.312888 268.023017 
L 332.657473 267.982852 
L 333.002191 261.917987 
L 333.346814 261.176234 
L 333.691484 262.423463 
L 334.036139 263.074504 
L 334.725464 263.674024 
L 335.070129 263.736663 
L 335.414788 261.388561 
L 335.759422 263.482483 
L 336.104143 266.655081 
L 336.44877 263.960969 
L 336.793403 262.393595 
L 337.82736 263.765616 
L 338.172018 264.511244 
L 338.516669 265.847128 
L 338.861326 262.333586 
L 339.206065 257.478796 
L 339.550606 259.965211 
L 339.895284 263.818964 
L 340.239939 263.517837 
L 340.584602 263.382512 
L 340.929264 263.868553 
L 341.273914 263.72386 
L 341.618571 263.807469 
L 341.963218 263.484207 
L 342.652521 263.520212 
L 342.997177 263.961737 
L 343.34183 264.618518 
L 343.686493 262.776136 
L 344.031165 263.03091 
L 344.375848 266.22452 
L 344.720447 265.434539 
L 345.065111 262.804246 
L 345.409773 262.782818 
L 345.75443 263.373181 
L 346.099085 263.63084 
L 346.443747 264.406661 
L 346.788384 265.65333 
L 347.133069 264.319679 
L 347.477727 258.644948 
L 347.822306 259.029978 
L 348.167006 264.271411 
L 348.511653 264.33928 
L 348.856317 263.563578 
L 349.200978 263.524444 
L 349.545639 263.865257 
L 350.234955 265.530474 
L 350.579643 265.60078 
L 350.92426 259.373219 
L 351.26894 257.104013 
L 351.613605 262.207906 
L 351.958249 263.515615 
L 352.302902 263.24071 
L 352.992213 263.185559 
L 353.336873 262.510881 
L 353.681529 260.648524 
L 354.370877 264.692805 
L 355.060151 258.933267 
L 355.749493 254.248102 
L 356.094136 257.290523 
L 356.438801 258.896687 
L 356.783486 255.478301 
L 357.128119 255.171795 
L 357.472768 253.087719 
L 357.817546 243.592595 
L 358.161878 228.303231 
L 358.5071 219.184634 
L 359.196072 254.757233 
L 359.885338 249.697792 
L 360.574676 260.363275 
L 360.919327 268.489998 
L 361.263943 267.828725 
L 361.953211 246.783268 
L 362.298026 245.398703 
L 362.987241 264.235548 
L 363.331893 263.633242 
L 363.676556 263.313638 
L 364.021217 263.420281 
L 366.089183 263.405173 
L 370.569775 263.438553 
L 370.914436 263.275481 
L 371.259097 263.998996 
L 371.603758 261.975738 
L 372.293083 251.671957 
L 372.637671 236.508401 
L 372.98259 230.793807 
L 373.327002 247.694709 
L 373.671718 256.491939 
L 374.01637 255.285978 
L 374.360982 250.951325 
L 374.705786 244.466135 
L 375.05028 240.276042 
L 375.395043 226.628458 
L 375.739747 222.87573 
L 376.428996 259.495961 
L 376.773645 263.291604 
L 377.118309 262.906685 
L 377.462971 261.839505 
L 377.807631 261.41548 
L 378.152285 257.816063 
L 378.496962 257.607764 
L 378.84162 261.742263 
L 379.186276 259.320695 
L 379.530926 260.217191 
L 379.875601 265.121078 
L 380.220254 264.749595 
L 380.909596 258.468003 
L 381.25423 262.337511 
L 381.598893 264.596353 
L 381.943547 258.707092 
L 382.288224 254.780541 
L 382.63287 257.6545 
L 383.322199 268.739747 
L 383.666854 270.05759 
L 384.35619 257.33807 
L 384.700833 262.488528 
L 385.045499 263.759932 
L 385.390166 256.353911 
L 385.734816 256.757508 
L 386.07948 259.946045 
L 386.424149 258.957278 
L 387.113461 264.099173 
L 387.458122 263.408029 
L 392.972697 263.405176 
L 398.487273 263.405176 
L 398.487273 263.405176 
" style="fill:none;stroke:#1f77b4;stroke-linecap:square;stroke-width:1.5;"/>
   </g>
   <g id="line2d_15">
    <path clip-path="url(#p813fe70f56)" d="M 73.832727 263.405176 
L 106.376652 263.413367 
L 107.099851 258.744645 
L 107.823031 234.494576 
L 108.5456 250.088612 
L 109.268593 186.117913 
L 109.988441 262.196144 
L 110.350041 263.556017 
L 110.71164 263.604608 
L 111.796437 263.146679 
L 112.158036 262.927619 
L 113.242834 263.198047 
L 113.604433 263.35688 
L 115.412429 263.205036 
L 115.774028 263.053038 
L 116.858825 263.318632 
L 117.220424 263.330112 
L 118.305222 263.022343 
L 119.751618 263.014668 
L 120.836416 263.415292 
L 122.282812 263.046624 
L 123.006011 263.457894 
L 124.814006 263.127726 
L 125.175606 262.97461 
L 125.898804 263.393579 
L 126.622002 261.730883 
L 127.345198 262.31733 
L 128.068396 263.538693 
L 128.791594 263.413709 
L 129.514792 262.118528 
L 130.237989 263.71701 
L 130.961187 262.278984 
L 131.684385 263.862806 
L 132.407583 262.952507 
L 133.130781 263.617232 
L 133.853979 263.252765 
L 134.577178 263.76725 
L 135.300376 262.426399 
L 136.023573 263.591383 
L 136.746771 262.932371 
L 137.46997 263.715922 
L 138.193168 263.139846 
L 138.916366 263.499624 
L 140.001163 263.346073 
L 141.44756 263.384225 
L 142.170758 263.389517 
L 142.893957 263.422426 
L 145.063552 263.409494 
L 147.956345 263.417817 
L 149.402742 263.403476 
L 149.764341 263.376454 
L 150.487539 263.564851 
L 151.210738 263.228027 
L 151.933936 263.735907 
L 152.657134 263.321518 
L 154.103531 263.486466 
L 154.826729 263.614275 
L 155.549927 263.351298 
L 156.273126 263.568798 
L 156.996324 265.247396 
L 157.719518 264.528024 
L 158.442714 263.71469 
L 159.527511 263.841839 
L 160.250709 263.551705 
L 160.612308 263.369205 
L 161.335507 264.528802 
L 162.058703 263.54975 
L 163.1435 263.848979 
L 163.505099 263.846663 
L 164.228297 263.276738 
L 164.951496 263.732415 
L 166.036293 263.446165 
L 166.397892 263.451693 
L 167.12109 263.770513 
L 167.844289 263.215209 
L 169.290685 263.451538 
L 170.013883 263.144808 
L 170.737082 263.727079 
L 171.46028 263.189246 
L 172.183478 262.058485 
L 172.906673 264.3032 
L 173.26827 263.493555 
L 173.629869 262.406121 
L 173.991466 262.761205 
L 175.076264 264.30004 
L 175.79946 258.830603 
L 176.161014 259.585659 
L 176.522614 260.900912 
L 176.884203 260.985655 
L 177.245803 260.857783 
L 177.968988 255.852127 
L 178.692077 262.179197 
L 179.053675 262.842284 
L 179.415274 263.107612 
L 179.776874 264.257128 
L 180.138473 261.347013 
L 180.820001 53.568 
L 181.181471 191.684161 
L 181.54307 272.686215 
L 181.904669 261.07079 
L 182.266261 261.293514 
L 182.989458 262.013608 
L 183.351058 262.20693 
L 184.074254 257.909073 
L 184.797431 263.000683 
L 185.520629 258.63809 
L 186.243806 262.845107 
L 186.605405 262.853733 
L 186.967004 262.717077 
L 188.4134 262.931115 
L 189.136598 263.418641 
L 189.859797 262.905993 
L 190.582995 261.178949 
L 191.306188 257.788918 
L 192.029356 262.423656 
L 192.390954 262.269413 
L 192.752553 261.962339 
L 194.198946 262.265481 
L 194.922144 263.460554 
L 195.645342 263.237566 
L 196.36854 263.533601 
L 197.091739 262.953686 
L 197.814937 263.324295 
L 198.538135 263.325578 
L 199.261333 263.903735 
L 199.984531 262.486547 
L 200.707729 262.966244 
L 201.430927 262.872225 
L 202.877323 263.539944 
L 203.600521 263.199743 
L 204.685319 263.438509 
L 205.046918 263.450549 
L 205.770116 263.094911 
L 206.854914 263.194941 
L 207.578112 263.200907 
L 207.939711 263.256989 
L 208.662909 263.039109 
L 209.386108 263.396858 
L 210.470905 263.369919 
L 211.194103 263.411867 
L 212.6405 263.397908 
L 222.042078 263.290279 
L 222.403678 263.133731 
L 223.488475 263.420167 
L 225.296471 263.241543 
L 226.381268 263.414761 
L 228.550863 263.264484 
L 228.912462 263.067616 
L 229.99726 263.196195 
L 230.358859 263.154975 
L 231.082057 263.492405 
L 232.166855 263.345706 
L 233.613251 263.433193 
L 233.97485 263.443294 
L 235.059647 262.800552 
L 235.421247 262.738948 
L 236.144444 263.286232 
L 237.590841 263.397796 
L 238.314039 263.149673 
L 239.037237 264.048124 
L 239.760434 213.009284 
L 240.115993 218.075644 
L 240.477592 231.648002 
L 240.838968 238.389188 
L 241.200568 240.518885 
L 241.922352 220.558087 
L 242.644957 229.486759 
L 243.006556 231.681008 
L 243.367379 234.979833 
L 244.090568 259.437434 
L 244.81376 260.572749 
L 245.536811 246.665034 
L 246.260009 262.541785 
L 246.983201 260.357891 
L 247.706367 257.108876 
L 248.429565 262.316006 
L 249.152711 254.788943 
L 249.875905 260.834297 
L 250.599092 258.95834 
L 251.322272 258.181606 
L 252.04541 254.936158 
L 252.768604 260.283394 
L 253.491717 252.909171 
L 254.214915 262.448808 
L 254.576514 262.526753 
L 254.938113 262.413691 
L 255.661255 254.521846 
L 256.384446 259.922027 
L 257.107631 258.371988 
L 257.830823 260.286921 
L 258.554021 263.148946 
L 259.277219 263.409614 
L 260.362017 262.738253 
L 260.723616 262.478345 
L 261.446814 262.910984 
L 262.170012 263.859481 
L 262.89321 263.412841 
L 263.616409 263.784076 
L 264.339606 261.754399 
L 265.062804 263.377868 
L 265.786002 263.337933 
L 266.509201 263.575629 
L 267.232399 262.6294 
L 267.955596 264.680983 
L 268.678794 262.497941 
L 269.763592 264.309401 
L 270.12519 264.803919 
L 270.848389 263.529659 
L 271.571587 263.691361 
L 272.294785 266.028504 
L 273.017984 262.657086 
L 273.741182 263.332203 
L 274.464366 271.06669 
L 275.187523 275.319255 
L 275.91072 265.464097 
L 276.633856 284.404932 
L 277.357024 275.906312 
L 278.0801 277.233179 
L 278.803067 295.488 
L 279.526182 273.504097 
L 280.249223 280.935213 
L 280.972342 273.906413 
L 281.69541 275.409173 
L 282.418497 282.797939 
L 283.864592 274.121684 
L 284.587625 277.105941 
L 285.310821 264.816106 
L 286.034019 264.457061 
L 286.757217 263.52081 
L 288.203614 263.405824 
L 288.926812 263.481549 
L 289.65001 263.771534 
L 290.373209 263.713791 
L 291.096407 263.374951 
L 294.350799 263.577059 
L 295.073998 263.857213 
L 295.435597 263.934189 
L 296.158795 263.559311 
L 296.881978 269.488781 
L 297.604813 287.775071 
L 298.327855 280.184868 
L 299.050963 274.960727 
L 300.13563 280.33942 
L 300.496935 281.398512 
L 301.220058 275.010458 
L 301.943011 282.374647 
L 302.30461 282.226658 
L 302.665985 282.282216 
L 303.027584 282.108227 
L 303.388869 281.259101 
L 304.112064 265.544772 
L 304.835262 262.837656 
L 305.558457 265.464347 
L 306.281649 266.324734 
L 307.004846 264.417768 
L 307.728045 263.143864 
L 308.451243 263.553424 
L 309.53604 263.272015 
L 309.897639 263.119043 
L 310.620838 263.302356 
L 311.344033 260.843551 
L 312.42883 263.10839 
L 312.790429 263.637235 
L 313.513626 261.968724 
L 314.236825 263.08979 
L 315.321614 257.929616 
L 316.044789 255.34379 
L 316.406303 254.772367 
L 317.1295 260.568082 
L 317.852694 260.542119 
L 318.575892 263.00722 
L 319.299089 261.423308 
L 320.022184 251.108545 
L 320.745382 262.353792 
L 321.468572 257.709665 
L 322.191771 263.305166 
L 324.722965 263.258111 
L 325.807762 262.912567 
L 326.53096 263.425506 
L 329.785353 263.327827 
L 331.23175 263.404096 
L 331.593349 263.413213 
L 332.316547 263.044462 
L 333.039745 263.098226 
L 333.762944 263.414679 
L 335.57094 263.310922 
L 335.932539 263.225305 
L 338.102134 263.410153 
L 338.825332 263.319001 
L 339.54853 262.97611 
L 340.633328 263.332846 
L 341.356526 263.401369 
L 344.610919 263.350389 
L 345.695716 263.336969 
L 346.780514 263.423013 
L 347.503712 263.413632 
L 348.22691 262.81895 
L 348.950109 263.318854 
L 351.119704 263.454497 
L 351.842902 262.60905 
L 352.5661 263.244263 
L 353.650897 263.407733 
L 355.458893 263.373555 
L 356.182092 255.893484 
L 356.905269 261.989426 
L 358.351577 239.871859 
L 359.074572 217.68038 
L 359.797379 242.537066 
L 360.520508 256.173293 
L 361.243706 262.764428 
L 361.966905 254.936479 
L 362.690044 252.509626 
L 363.413243 263.459062 
L 365.582838 263.405196 
L 371.730024 263.312745 
L 372.091623 263.20786 
L 372.814821 258.701837 
L 373.537407 227.241538 
L 374.260434 230.121459 
L 374.983503 216.599195 
L 375.70659 250.619961 
L 376.429788 263.214346 
L 377.152945 254.266276 
L 377.876143 263.304633 
L 378.599341 263.036037 
L 379.32254 263.349127 
L 380.045738 263.158817 
L 380.768936 262.719486 
L 381.492133 260.841527 
L 382.21533 262.080388 
L 382.938521 259.104717 
L 383.661707 253.124746 
L 384.384905 263.071149 
L 385.108103 262.832835 
L 385.831302 263.330851 
L 390.89369 263.405176 
L 398.487273 263.405176 
L 398.487273 263.405176 
" style="fill:none;stroke:#ff7f0e;stroke-linecap:square;stroke-width:1.5;"/>
   </g>
   <g id="line2d_16">
    <path clip-path="url(#p813fe70f56)" d="M 73.832727 263.405176 
L 88.637882 263.404031 
L 92.162919 263.347822 
L 93.572934 263.094976 
L 97.09797 261.59543 
L 101.680514 260.241655 
L 105.205543 258.965193 
L 106.263052 258.458051 
L 106.968056 257.934615 
L 107.67306 258.05229 
L 108.378064 256.871768 
L 109.083067 258.171118 
L 109.788071 258.134193 
L 110.845576 258.69619 
L 112.255587 259.284643 
L 113.665598 259.813316 
L 116.13312 260.575678 
L 117.19063 261.033459 
L 119.658154 261.725596 
L 122.125678 261.881767 
L 126.355721 262.191307 
L 127.765735 262.447555 
L 129.17575 262.444626 
L 131.643275 262.747519 
L 134.110801 262.896209 
L 134.815808 262.955639 
L 136.578327 263.215201 
L 138.340845 263.317439 
L 146.800933 264.067471 
L 152.088487 264.544822 
L 154.908515 264.816522 
L 155.613522 264.979396 
L 157.376039 264.805205 
L 157.728543 264.87247 
L 159.491059 264.639452 
L 160.196066 264.546076 
L 160.901073 264.47645 
L 161.958584 264.526335 
L 163.016095 264.3739 
L 163.721102 264.347168 
L 165.131116 264.243353 
L 165.48362 264.249006 
L 166.541131 263.391448 
L 167.246138 262.765981 
L 168.303649 261.881906 
L 169.361157 260.934333 
L 170.418666 260.130981 
L 171.828672 258.348339 
L 175.353621 253.054197 
L 176.058596 252.645094 
L 176.763568 252.713461 
L 177.468543 251.461544 
L 178.173512 248.551665 
L 178.878464 246.691401 
L 180.288367 248.723748 
L 180.993338 254.97969 
L 181.698334 252.610701 
L 182.403323 252.534424 
L 183.813307 253.86287 
L 185.575798 256.529985 
L 187.338309 259.35455 
L 188.395817 259.814356 
L 189.100823 260.038045 
L 192.625856 261.593563 
L 193.683366 262.082221 
L 196.503395 263.19567 
L 197.91341 263.261368 
L 199.323425 263.309992 
L 200.73344 263.466884 
L 202.143455 263.438111 
L 205.668491 263.607942 
L 206.726002 263.585617 
L 209.193528 263.845218 
L 212.013558 263.889657 
L 214.12858 264.033735 
L 216.243602 263.912558 
L 217.653616 263.897092 
L 219.063631 263.812689 
L 220.826149 263.727826 
L 223.646179 263.620257 
L 225.056193 263.610028 
L 226.113705 263.614426 
L 227.523719 263.381597 
L 228.58123 263.488404 
L 228.933734 263.453109 
L 229.638741 262.58208 
L 232.106256 258.176989 
L 233.516249 256.02325 
L 234.573743 254.748654 
L 236.688695 252.33922 
L 238.098644 249.920242 
L 239.508572 246.610776 
L 240.213529 246.359348 
L 241.623474 248.140895 
L 243.033461 250.594916 
L 244.443466 252.325574 
L 247.615995 255.364434 
L 252.903541 259.344595 
L 254.666059 260.241618 
L 257.838591 261.308441 
L 259.601109 261.9268 
L 261.363628 262.691112 
L 263.126146 263.933326 
L 264.536161 264.695806 
L 265.593672 265.166796 
L 267.35619 266.367928 
L 268.413701 267.083597 
L 271.938736 269.645501 
L 272.996246 270.539299 
L 274.758764 271.740854 
L 276.168777 273.265059 
L 277.226285 273.982612 
L 277.578785 274.135647 
L 278.636292 273.31752 
L 279.341294 272.757362 
L 281.103798 271.69181 
L 282.866307 270.654596 
L 287.096331 268.772691 
L 289.211346 268.082097 
L 289.916352 268.144633 
L 292.031367 268.66406 
L 294.146381 269.373275 
L 295.556388 269.862868 
L 296.261391 270.229511 
L 297.318891 270.886586 
L 298.728893 271.320427 
L 299.786395 272.264702 
L 300.491392 272.648846 
L 301.548879 273.03177 
L 302.606378 272.076541 
L 305.073872 269.376207 
L 312.123933 262.154482 
L 313.181443 261.310173 
L 313.88645 260.717863 
L 314.591456 260.293883 
L 314.943958 260.123901 
L 315.648964 260.186583 
L 316.353971 260.480824 
L 317.411481 260.528559 
L 319.879003 260.989495 
L 322.69903 261.344381 
L 326.576569 261.828473 
L 331.51162 262.453377 
L 332.921634 262.565991 
L 334.684153 262.817011 
L 336.446671 263.050936 
L 339.971708 263.27139 
L 343.144241 263.480511 
L 344.201753 263.143716 
L 355.834374 258.081884 
L 356.539381 257.332127 
L 357.949396 258.324184 
L 358.654403 257.779493 
L 359.35941 256.872215 
L 360.064417 256.680421 
L 360.769424 257.071012 
L 361.474431 256.926342 
L 363.589452 257.400869 
L 366.056976 257.435637 
L 368.171995 257.263087 
L 370.639517 256.848494 
L 372.049528 256.348966 
L 372.754533 255.674958 
L 374.164543 255.723344 
L 374.869547 255.435257 
L 375.574551 256.698115 
L 377.337065 257.457701 
L 379.099578 258.326184 
L 381.214597 259.175518 
L 381.919603 259.311375 
L 382.977113 259.852197 
L 383.68212 260.029503 
L 384.034623 260.087364 
L 385.092134 260.546906 
L 385.797141 260.795941 
L 388.264666 261.823401 
L 392.142206 263.267506 
L 392.847214 263.377487 
L 394.609732 263.41174 
L 398.487273 263.412824 
L 398.487273 263.412824 
" style="fill:none;stroke:#2ca02c;stroke-linecap:square;stroke-width:1.5;"/>
   </g>
   <g id="line2d_17">
    <path clip-path="url(#p813fe70f56)" d="M 73.832727 263.40518 
L 92.184816 263.343042 
L 93.94944 262.9671 
L 94.655289 262.641025 
L 96.066986 261.964192 
L 98.184525 261.311954 
L 102.77248 259.809753 
L 106.301604 258.498149 
L 107.007409 257.664616 
L 107.713217 257.949238 
L 108.419017 257.504149 
L 109.124818 257.677255 
L 109.830632 258.497478 
L 110.889374 258.835291 
L 111.595192 259.059689 
L 114.065571 259.944079 
L 119.712279 261.676053 
L 123.59443 262.047168 
L 158.180968 264.82615 
L 165.592338 264.406912 
L 166.298185 264.068238 
L 167.35696 263.068682 
L 169.474487 260.683073 
L 171.591872 258.019595 
L 173.35611 256.311757 
L 174.767366 254.582792 
L 176.5313 251.853457 
L 176.883746 251.009769 
L 177.58888 248.760489 
L 177.941805 248.767975 
L 178.29401 248.918586 
L 178.646935 249.386848 
L 178.999226 249.652746 
L 179.35215 249.474978 
L 179.704404 249.773714 
L 180.057328 251.129681 
L 180.409812 251.789679 
L 180.762737 250.926571 
L 181.115074 250.726565 
L 181.467999 251.945784 
L 181.820532 252.695778 
L 182.173456 252.447754 
L 182.52595 252.44229 
L 183.936992 254.30256 
L 184.995516 255.617834 
L 187.465455 258.854181 
L 188.524169 259.565604 
L 190.994497 260.841391 
L 195.935385 262.927678 
L 198.052933 263.27126 
L 204.405579 263.584556 
L 214.640388 263.9473 
L 228.05152 263.409828 
L 228.404445 263.167096 
L 229.463217 261.823214 
L 230.521949 260.589219 
L 232.286466 258.82435 
L 234.050702 256.610533 
L 236.520279 252.96858 
L 237.225675 251.404424 
L 238.635953 248.109602 
L 239.692629 246.254961 
L 240.045554 245.763787 
L 240.397215 245.678049 
L 240.75014 245.993863 
L 241.101888 246.61399 
L 242.511911 250.101742 
L 243.217153 251.26268 
L 244.627886 252.962811 
L 246.03885 254.227516 
L 247.449979 255.297413 
L 250.625498 257.234369 
L 259.44781 262.183872 
L 262.624128 264.001761 
L 264.388738 264.903182 
L 267.212064 266.12517 
L 269.329479 267.348071 
L 271.446769 268.810621 
L 272.858192 269.903015 
L 277.79709 274.205132 
L 278.150015 274.238455 
L 278.502505 274.053798 
L 280.619043 272.233558 
L 284.852882 269.924742 
L 288.734462 268.420012 
L 290.145989 268.321671 
L 291.557517 268.453238 
L 293.674784 268.897693 
L 296.144787 269.736125 
L 298.614761 271.055359 
L 300.731654 272.297477 
L 301.437239 272.993903 
L 301.789856 273.065989 
L 302.142781 273.016467 
L 302.84833 272.241315 
L 304.259591 270.415902 
L 306.023841 268.724404 
L 309.552876 265.30613 
L 312.729189 261.832825 
L 314.140861 260.250072 
L 314.846679 260.004846 
L 315.905387 260.204068 
L 318.375783 260.66326 
L 320.49327 260.917988 
L 324.728285 261.525303 
L 338.139359 263.170888 
L 343.786155 263.311333 
L 345.197854 262.606407 
L 346.962469 261.85436 
L 351.197493 260.193954 
L 355.785323 258.284333 
L 356.843995 257.722545 
L 358.608481 256.575277 
L 359.6671 256.934529 
L 360.372884 257.1558 
L 363.901846 257.626671 
L 366.725054 257.662977 
L 367.783782 257.439636 
L 372.371422 256.061511 
L 374.13591 255.139773 
L 374.841686 255.497248 
L 375.900346 256.663767 
L 376.25327 256.960109 
L 377.311968 257.39447 
L 378.370712 257.979856 
L 383.311542 259.974738 
L 384.370301 260.330201 
L 385.076146 260.589625 
L 386.134916 260.950977 
L 392.134627 263.166627 
L 393.193401 263.369016 
L 396.016799 263.406006 
L 398.487273 263.406584 
L 398.487273 263.406584 
" style="fill:none;stroke:#d62728;stroke-linecap:square;stroke-width:1.5;"/>
   </g>
   <g id="patch_3">
    <path d="M 57.6 307.584 
L 57.6 41.472 
" style="fill:none;stroke:#000000;stroke-linecap:square;stroke-linejoin:miter;stroke-width:0.8;"/>
   </g>
   <g id="patch_4">
    <path d="M 414.72 307.584 
L 414.72 41.472 
" style="fill:none;stroke:#000000;stroke-linecap:square;stroke-linejoin:miter;stroke-width:0.8;"/>
   </g>
   <g id="patch_5">
    <path d="M 57.6 307.584 
L 414.72 307.584 
" style="fill:none;stroke:#000000;stroke-linecap:square;stroke-linejoin:miter;stroke-width:0.8;"/>
   </g>
   <g id="patch_6">
    <path d="M 57.6 41.472 
L 414.72 41.472 
" style="fill:none;stroke:#000000;stroke-linecap:square;stroke-linejoin:miter;stroke-width:0.8;"/>
   </g>
   <g id="text_14">
    <!-- Curvature vs Distance aut -->
    <g transform="translate(157.830938 35.472)scale(0.12 -0.12)">
     <defs>
      <path d="M 64.40625 67.28125 
L 64.40625 56.890625 
Q 59.421875 61.53125 53.78125 63.8125 
Q 48.140625 66.109375 41.796875 66.109375 
Q 29.296875 66.109375 22.65625 58.46875 
Q 16.015625 50.828125 16.015625 36.375 
Q 16.015625 21.96875 22.65625 14.328125 
Q 29.296875 6.6875 41.796875 6.6875 
Q 48.140625 6.6875 53.78125 8.984375 
Q 59.421875 11.28125 64.40625 15.921875 
L 64.40625 5.609375 
Q 59.234375 2.09375 53.4375 0.328125 
Q 47.65625 -1.421875 41.21875 -1.421875 
Q 24.65625 -1.421875 15.125 8.703125 
Q 5.609375 18.84375 5.609375 36.375 
Q 5.609375 53.953125 15.125 64.078125 
Q 24.65625 74.21875 41.21875 74.21875 
Q 47.75 74.21875 53.53125 72.484375 
Q 59.328125 70.75 64.40625 67.28125 
z
" id="DejaVuSans-67"/>
      <path d="M 8.5 21.578125 
L 8.5 54.6875 
L 17.484375 54.6875 
L 17.484375 21.921875 
Q 17.484375 14.15625 20.5 10.265625 
Q 23.53125 6.390625 29.59375 6.390625 
Q 36.859375 6.390625 41.078125 11.03125 
Q 45.3125 15.671875 45.3125 23.6875 
L 45.3125 54.6875 
L 54.296875 54.6875 
L 54.296875 0 
L 45.3125 0 
L 45.3125 8.40625 
Q 42.046875 3.421875 37.71875 1 
Q 33.40625 -1.421875 27.6875 -1.421875 
Q 18.265625 -1.421875 13.375 4.4375 
Q 8.5 10.296875 8.5 21.578125 
z
M 31.109375 56 
z
" id="DejaVuSans-117"/>
      <path d="M 41.109375 46.296875 
Q 39.59375 47.171875 37.8125 47.578125 
Q 36.03125 48 33.890625 48 
Q 26.265625 48 22.1875 43.046875 
Q 18.109375 38.09375 18.109375 28.8125 
L 18.109375 0 
L 9.078125 0 
L 9.078125 54.6875 
L 18.109375 54.6875 
L 18.109375 46.1875 
Q 20.953125 51.171875 25.484375 53.578125 
Q 30.03125 56 36.53125 56 
Q 37.453125 56 38.578125 55.875 
Q 39.703125 55.765625 41.0625 55.515625 
z
" id="DejaVuSans-114"/>
      <path d="M 2.984375 54.6875 
L 12.5 54.6875 
L 29.59375 8.796875 
L 46.6875 54.6875 
L 56.203125 54.6875 
L 35.6875 0 
L 23.484375 0 
z
" id="DejaVuSans-118"/>
      <path d="M 34.28125 27.484375 
Q 23.390625 27.484375 19.1875 25 
Q 14.984375 22.515625 14.984375 16.5 
Q 14.984375 11.71875 18.140625 8.90625 
Q 21.296875 6.109375 26.703125 6.109375 
Q 34.1875 6.109375 38.703125 11.40625 
Q 43.21875 16.703125 43.21875 25.484375 
L 43.21875 27.484375 
z
M 52.203125 31.203125 
L 52.203125 0 
L 43.21875 0 
L 43.21875 8.296875 
Q 40.140625 3.328125 35.546875 0.953125 
Q 30.953125 -1.421875 24.3125 -1.421875 
Q 15.921875 -1.421875 10.953125 3.296875 
Q 6 8.015625 6 15.921875 
Q 6 25.140625 12.171875 29.828125 
Q 18.359375 34.515625 30.609375 34.515625 
L 43.21875 34.515625 
L 43.21875 35.40625 
Q 43.21875 41.609375 39.140625 45 
Q 35.0625 48.390625 27.6875 48.390625 
Q 23 48.390625 18.546875 47.265625 
Q 14.109375 46.140625 10.015625 43.890625 
L 10.015625 52.203125 
Q 14.9375 54.109375 19.578125 55.046875 
Q 24.21875 56 28.609375 56 
Q 40.484375 56 46.34375 49.84375 
Q 52.203125 43.703125 52.203125 31.203125 
z
" id="DejaVuSans-97"/>
      <path d="M 18.3125 70.21875 
L 18.3125 54.6875 
L 36.8125 54.6875 
L 36.8125 47.703125 
L 18.3125 47.703125 
L 18.3125 18.015625 
Q 18.3125 11.328125 20.140625 9.421875 
Q 21.96875 7.515625 27.59375 7.515625 
L 36.8125 7.515625 
L 36.8125 0 
L 27.59375 0 
Q 17.1875 0 13.234375 3.875 
Q 9.28125 7.765625 9.28125 18.015625 
L 9.28125 47.703125 
L 2.6875 47.703125 
L 2.6875 54.6875 
L 9.28125 54.6875 
L 9.28125 70.21875 
z
" id="DejaVuSans-116"/>
      <path d="M 56.203125 29.59375 
L 56.203125 25.203125 
L 14.890625 25.203125 
Q 15.484375 15.921875 20.484375 11.0625 
Q 25.484375 6.203125 34.421875 6.203125 
Q 39.59375 6.203125 44.453125 7.46875 
Q 49.3125 8.734375 54.109375 11.28125 
L 54.109375 2.78125 
Q 49.265625 0.734375 44.1875 -0.34375 
Q 39.109375 -1.421875 33.890625 -1.421875 
Q 20.796875 -1.421875 13.15625 6.1875 
Q 5.515625 13.8125 5.515625 26.8125 
Q 5.515625 40.234375 12.765625 48.109375 
Q 20.015625 56 32.328125 56 
Q 43.359375 56 49.78125 48.890625 
Q 56.203125 41.796875 56.203125 29.59375 
z
M 47.21875 32.234375 
Q 47.125 39.59375 43.09375 43.984375 
Q 39.0625 48.390625 32.421875 48.390625 
Q 24.90625 48.390625 20.390625 44.140625 
Q 15.875 39.890625 15.1875 32.171875 
z
" id="DejaVuSans-101"/>
      <path id="DejaVuSans-32"/>
      <path d="M 44.28125 53.078125 
L 44.28125 44.578125 
Q 40.484375 46.53125 36.375 47.5 
Q 32.28125 48.484375 27.875 48.484375 
Q 21.1875 48.484375 17.84375 46.4375 
Q 14.5 44.390625 14.5 40.28125 
Q 14.5 37.15625 16.890625 35.375 
Q 19.28125 33.59375 26.515625 31.984375 
L 29.59375 31.296875 
Q 39.15625 29.25 43.1875 25.515625 
Q 47.21875 21.78125 47.21875 15.09375 
Q 47.21875 7.46875 41.1875 3.015625 
Q 35.15625 -1.421875 24.609375 -1.421875 
Q 20.21875 -1.421875 15.453125 -0.5625 
Q 10.6875 0.296875 5.421875 2 
L 5.421875 11.28125 
Q 10.40625 8.6875 15.234375 7.390625 
Q 20.0625 6.109375 24.8125 6.109375 
Q 31.15625 6.109375 34.5625 8.28125 
Q 37.984375 10.453125 37.984375 14.40625 
Q 37.984375 18.0625 35.515625 20.015625 
Q 33.0625 21.96875 24.703125 23.78125 
L 21.578125 24.515625 
Q 13.234375 26.265625 9.515625 29.90625 
Q 5.8125 33.546875 5.8125 39.890625 
Q 5.8125 47.609375 11.28125 51.796875 
Q 16.75 56 26.8125 56 
Q 31.78125 56 36.171875 55.265625 
Q 40.578125 54.546875 44.28125 53.078125 
z
" id="DejaVuSans-115"/>
      <path d="M 19.671875 64.796875 
L 19.671875 8.109375 
L 31.59375 8.109375 
Q 46.6875 8.109375 53.6875 14.9375 
Q 60.6875 21.78125 60.6875 36.53125 
Q 60.6875 51.171875 53.6875 57.984375 
Q 46.6875 64.796875 31.59375 64.796875 
z
M 9.8125 72.90625 
L 30.078125 72.90625 
Q 51.265625 72.90625 61.171875 64.09375 
Q 71.09375 55.28125 71.09375 36.53125 
Q 71.09375 17.671875 61.125 8.828125 
Q 51.171875 0 30.078125 0 
L 9.8125 0 
z
" id="DejaVuSans-68"/>
      <path d="M 9.421875 54.6875 
L 18.40625 54.6875 
L 18.40625 0 
L 9.421875 0 
z
M 9.421875 75.984375 
L 18.40625 75.984375 
L 18.40625 64.59375 
L 9.421875 64.59375 
z
" id="DejaVuSans-105"/>
      <path d="M 54.890625 33.015625 
L 54.890625 0 
L 45.90625 0 
L 45.90625 32.71875 
Q 45.90625 40.484375 42.875 44.328125 
Q 39.84375 48.1875 33.796875 48.1875 
Q 26.515625 48.1875 22.3125 43.546875 
Q 18.109375 38.921875 18.109375 30.90625 
L 18.109375 0 
L 9.078125 0 
L 9.078125 54.6875 
L 18.109375 54.6875 
L 18.109375 46.1875 
Q 21.34375 51.125 25.703125 53.5625 
Q 30.078125 56 35.796875 56 
Q 45.21875 56 50.046875 50.171875 
Q 54.890625 44.34375 54.890625 33.015625 
z
" id="DejaVuSans-110"/>
      <path d="M 48.78125 52.59375 
L 48.78125 44.1875 
Q 44.96875 46.296875 41.140625 47.34375 
Q 37.3125 48.390625 33.40625 48.390625 
Q 24.65625 48.390625 19.8125 42.84375 
Q 14.984375 37.3125 14.984375 27.296875 
Q 14.984375 17.28125 19.8125 11.734375 
Q 24.65625 6.203125 33.40625 6.203125 
Q 37.3125 6.203125 41.140625 7.25 
Q 44.96875 8.296875 48.78125 10.40625 
L 48.78125 2.09375 
Q 45.015625 0.34375 40.984375 -0.53125 
Q 36.96875 -1.421875 32.421875 -1.421875 
Q 20.0625 -1.421875 12.78125 6.34375 
Q 5.515625 14.109375 5.515625 27.296875 
Q 5.515625 40.671875 12.859375 48.328125 
Q 20.21875 56 33.015625 56 
Q 37.15625 56 41.109375 55.140625 
Q 45.0625 54.296875 48.78125 52.59375 
z
" id="DejaVuSans-99"/>
     </defs>
     <use xlink:href="#DejaVuSans-67"/>
     <use x="69.824219" xlink:href="#DejaVuSans-117"/>
     <use x="133.203125" xlink:href="#DejaVuSans-114"/>
     <use x="174.316406" xlink:href="#DejaVuSans-118"/>
     <use x="233.496094" xlink:href="#DejaVuSans-97"/>
     <use x="294.775391" xlink:href="#DejaVuSans-116"/>
     <use x="333.984375" xlink:href="#DejaVuSans-117"/>
     <use x="397.363281" xlink:href="#DejaVuSans-114"/>
     <use x="436.226562" xlink:href="#DejaVuSans-101"/>
     <use x="497.75" xlink:href="#DejaVuSans-32"/>
     <use x="529.537109" xlink:href="#DejaVuSans-118"/>
     <use x="588.716797" xlink:href="#DejaVuSans-115"/>
     <use x="640.816406" xlink:href="#DejaVuSans-32"/>
     <use x="672.603516" xlink:href="#DejaVuSans-68"/>
     <use x="749.605469" xlink:href="#DejaVuSans-105"/>
     <use x="777.388672" xlink:href="#DejaVuSans-115"/>
     <use x="829.488281" xlink:href="#DejaVuSans-116"/>
     <use x="868.697266" xlink:href="#DejaVuSans-97"/>
     <use x="929.976562" xlink:href="#DejaVuSans-110"/>
     <use x="993.355469" xlink:href="#DejaVuSans-99"/>
     <use x="1048.335938" xlink:href="#DejaVuSans-101"/>
     <use x="1109.859375" xlink:href="#DejaVuSans-32"/>
     <use x="1141.646484" xlink:href="#DejaVuSans-97"/>
     <use x="1202.925781" xlink:href="#DejaVuSans-117"/>
     <use x="1266.304688" xlink:href="#DejaVuSans-116"/>
    </g>
   </g>
   <g id="legend_1">
    <g id="patch_7">
     <path d="M 258.462188 108.1845 
L 407.72 108.1845 
Q 409.72 108.1845 409.72 106.1845 
L 409.72 48.472 
Q 409.72 46.472 407.72 46.472 
L 258.462188 46.472 
Q 256.462188 46.472 256.462188 48.472 
L 256.462188 106.1845 
Q 256.462188 108.1845 258.462188 108.1845 
z
" style="fill:#ffffff;opacity:0.8;stroke:#cccccc;stroke-linejoin:miter;"/>
    </g>
    <g id="line2d_18">
     <path d="M 260.462188 54.570438 
L 280.462188 54.570438 
" style="fill:none;stroke:#1f77b4;stroke-linecap:square;stroke-width:1.5;"/>
    </g>
    <g id="line2d_19"/>
    <g id="text_15">
     <!-- Centreline -->
     <g transform="translate(288.462188 58.070438)scale(0.1 -0.1)">
      <defs>
       <path d="M 9.421875 75.984375 
L 18.40625 75.984375 
L 18.40625 0 
L 9.421875 0 
z
" id="DejaVuSans-108"/>
      </defs>
      <use xlink:href="#DejaVuSans-67"/>
      <use x="69.824219" xlink:href="#DejaVuSans-101"/>
      <use x="131.347656" xlink:href="#DejaVuSans-110"/>
      <use x="194.726562" xlink:href="#DejaVuSans-116"/>
      <use x="233.935547" xlink:href="#DejaVuSans-114"/>
      <use x="272.798828" xlink:href="#DejaVuSans-101"/>
      <use x="334.322266" xlink:href="#DejaVuSans-108"/>
      <use x="362.105469" xlink:href="#DejaVuSans-105"/>
      <use x="389.888672" xlink:href="#DejaVuSans-110"/>
      <use x="453.267578" xlink:href="#DejaVuSans-101"/>
     </g>
    </g>
    <g id="line2d_20">
     <path d="M 260.462188 69.248563 
L 280.462188 69.248563 
" style="fill:none;stroke:#ff7f0e;stroke-linecap:square;stroke-width:1.5;"/>
    </g>
    <g id="line2d_21"/>
    <g id="text_16">
     <!-- Shortest Path -->
     <g transform="translate(288.462188 72.748563)scale(0.1 -0.1)">
      <defs>
       <path d="M 53.515625 70.515625 
L 53.515625 60.890625 
Q 47.90625 63.578125 42.921875 64.890625 
Q 37.9375 66.21875 33.296875 66.21875 
Q 25.25 66.21875 20.875 63.09375 
Q 16.5 59.96875 16.5 54.203125 
Q 16.5 49.359375 19.40625 46.890625 
Q 22.3125 44.4375 30.421875 42.921875 
L 36.375 41.703125 
Q 47.40625 39.59375 52.65625 34.296875 
Q 57.90625 29 57.90625 20.125 
Q 57.90625 9.515625 50.796875 4.046875 
Q 43.703125 -1.421875 29.984375 -1.421875 
Q 24.8125 -1.421875 18.96875 -0.25 
Q 13.140625 0.921875 6.890625 3.21875 
L 6.890625 13.375 
Q 12.890625 10.015625 18.65625 8.296875 
Q 24.421875 6.59375 29.984375 6.59375 
Q 38.421875 6.59375 43.015625 9.90625 
Q 47.609375 13.234375 47.609375 19.390625 
Q 47.609375 24.75 44.3125 27.78125 
Q 41.015625 30.8125 33.5 32.328125 
L 27.484375 33.5 
Q 16.453125 35.6875 11.515625 40.375 
Q 6.59375 45.0625 6.59375 53.421875 
Q 6.59375 63.09375 13.40625 68.65625 
Q 20.21875 74.21875 32.171875 74.21875 
Q 37.3125 74.21875 42.625 73.28125 
Q 47.953125 72.359375 53.515625 70.515625 
z
" id="DejaVuSans-83"/>
       <path d="M 54.890625 33.015625 
L 54.890625 0 
L 45.90625 0 
L 45.90625 32.71875 
Q 45.90625 40.484375 42.875 44.328125 
Q 39.84375 48.1875 33.796875 48.1875 
Q 26.515625 48.1875 22.3125 43.546875 
Q 18.109375 38.921875 18.109375 30.90625 
L 18.109375 0 
L 9.078125 0 
L 9.078125 75.984375 
L 18.109375 75.984375 
L 18.109375 46.1875 
Q 21.34375 51.125 25.703125 53.5625 
Q 30.078125 56 35.796875 56 
Q 45.21875 56 50.046875 50.171875 
Q 54.890625 44.34375 54.890625 33.015625 
z
" id="DejaVuSans-104"/>
       <path d="M 30.609375 48.390625 
Q 23.390625 48.390625 19.1875 42.75 
Q 14.984375 37.109375 14.984375 27.296875 
Q 14.984375 17.484375 19.15625 11.84375 
Q 23.34375 6.203125 30.609375 6.203125 
Q 37.796875 6.203125 41.984375 11.859375 
Q 46.1875 17.53125 46.1875 27.296875 
Q 46.1875 37.015625 41.984375 42.703125 
Q 37.796875 48.390625 30.609375 48.390625 
z
M 30.609375 56 
Q 42.328125 56 49.015625 48.375 
Q 55.71875 40.765625 55.71875 27.296875 
Q 55.71875 13.875 49.015625 6.21875 
Q 42.328125 -1.421875 30.609375 -1.421875 
Q 18.84375 -1.421875 12.171875 6.21875 
Q 5.515625 13.875 5.515625 27.296875 
Q 5.515625 40.765625 12.171875 48.375 
Q 18.84375 56 30.609375 56 
z
" id="DejaVuSans-111"/>
       <path d="M 19.671875 64.796875 
L 19.671875 37.40625 
L 32.078125 37.40625 
Q 38.96875 37.40625 42.71875 40.96875 
Q 46.484375 44.53125 46.484375 51.125 
Q 46.484375 57.671875 42.71875 61.234375 
Q 38.96875 64.796875 32.078125 64.796875 
z
M 9.8125 72.90625 
L 32.078125 72.90625 
Q 44.34375 72.90625 50.609375 67.359375 
Q 56.890625 61.8125 56.890625 51.125 
Q 56.890625 40.328125 50.609375 34.8125 
Q 44.34375 29.296875 32.078125 29.296875 
L 19.671875 29.296875 
L 19.671875 0 
L 9.8125 0 
z
" id="DejaVuSans-80"/>
      </defs>
      <use xlink:href="#DejaVuSans-83"/>
      <use x="63.476562" xlink:href="#DejaVuSans-104"/>
      <use x="126.855469" xlink:href="#DejaVuSans-111"/>
      <use x="188.037109" xlink:href="#DejaVuSans-114"/>
      <use x="229.150391" xlink:href="#DejaVuSans-116"/>
      <use x="268.359375" xlink:href="#DejaVuSans-101"/>
      <use x="329.882812" xlink:href="#DejaVuSans-115"/>
      <use x="381.982422" xlink:href="#DejaVuSans-116"/>
      <use x="421.191406" xlink:href="#DejaVuSans-32"/>
      <use x="452.978516" xlink:href="#DejaVuSans-80"/>
      <use x="508.78125" xlink:href="#DejaVuSans-97"/>
      <use x="570.060547" xlink:href="#DejaVuSans-116"/>
      <use x="609.269531" xlink:href="#DejaVuSans-104"/>
     </g>
    </g>
    <g id="line2d_22">
     <path d="M 260.462188 83.926688 
L 280.462188 83.926688 
" style="fill:none;stroke:#2ca02c;stroke-linecap:square;stroke-width:1.5;"/>
    </g>
    <g id="line2d_23"/>
    <g id="text_17">
     <!-- Minimum Curvature (C) -->
     <g transform="translate(288.462188 87.426688)scale(0.1 -0.1)">
      <defs>
       <path d="M 9.8125 72.90625 
L 24.515625 72.90625 
L 43.109375 23.296875 
L 61.8125 72.90625 
L 76.515625 72.90625 
L 76.515625 0 
L 66.890625 0 
L 66.890625 64.015625 
L 48.09375 14.015625 
L 38.1875 14.015625 
L 19.390625 64.015625 
L 19.390625 0 
L 9.8125 0 
z
" id="DejaVuSans-77"/>
       <path d="M 52 44.1875 
Q 55.375 50.25 60.0625 53.125 
Q 64.75 56 71.09375 56 
Q 79.640625 56 84.28125 50.015625 
Q 88.921875 44.046875 88.921875 33.015625 
L 88.921875 0 
L 79.890625 0 
L 79.890625 32.71875 
Q 79.890625 40.578125 77.09375 44.375 
Q 74.3125 48.1875 68.609375 48.1875 
Q 61.625 48.1875 57.5625 43.546875 
Q 53.515625 38.921875 53.515625 30.90625 
L 53.515625 0 
L 44.484375 0 
L 44.484375 32.71875 
Q 44.484375 40.625 41.703125 44.40625 
Q 38.921875 48.1875 33.109375 48.1875 
Q 26.21875 48.1875 22.15625 43.53125 
Q 18.109375 38.875 18.109375 30.90625 
L 18.109375 0 
L 9.078125 0 
L 9.078125 54.6875 
L 18.109375 54.6875 
L 18.109375 46.1875 
Q 21.1875 51.21875 25.484375 53.609375 
Q 29.78125 56 35.6875 56 
Q 41.65625 56 45.828125 52.96875 
Q 50 49.953125 52 44.1875 
z
" id="DejaVuSans-109"/>
       <path d="M 31 75.875 
Q 24.46875 64.65625 21.28125 53.65625 
Q 18.109375 42.671875 18.109375 31.390625 
Q 18.109375 20.125 21.3125 9.0625 
Q 24.515625 -2 31 -13.1875 
L 23.1875 -13.1875 
Q 15.875 -1.703125 12.234375 9.375 
Q 8.59375 20.453125 8.59375 31.390625 
Q 8.59375 42.28125 12.203125 53.3125 
Q 15.828125 64.359375 23.1875 75.875 
z
" id="DejaVuSans-40"/>
       <path d="M 8.015625 75.875 
L 15.828125 75.875 
Q 23.140625 64.359375 26.78125 53.3125 
Q 30.421875 42.28125 30.421875 31.390625 
Q 30.421875 20.453125 26.78125 9.375 
Q 23.140625 -1.703125 15.828125 -13.1875 
L 8.015625 -13.1875 
Q 14.5 -2 17.703125 9.0625 
Q 20.90625 20.125 20.90625 31.390625 
Q 20.90625 42.671875 17.703125 53.65625 
Q 14.5 64.65625 8.015625 75.875 
z
" id="DejaVuSans-41"/>
      </defs>
      <use xlink:href="#DejaVuSans-77"/>
      <use x="86.279297" xlink:href="#DejaVuSans-105"/>
      <use x="114.0625" xlink:href="#DejaVuSans-110"/>
      <use x="177.441406" xlink:href="#DejaVuSans-105"/>
      <use x="205.224609" xlink:href="#DejaVuSans-109"/>
      <use x="302.636719" xlink:href="#DejaVuSans-117"/>
      <use x="366.015625" xlink:href="#DejaVuSans-109"/>
      <use x="463.427734" xlink:href="#DejaVuSans-32"/>
      <use x="495.214844" xlink:href="#DejaVuSans-67"/>
      <use x="565.039062" xlink:href="#DejaVuSans-117"/>
      <use x="628.417969" xlink:href="#DejaVuSans-114"/>
      <use x="669.53125" xlink:href="#DejaVuSans-118"/>
      <use x="728.710938" xlink:href="#DejaVuSans-97"/>
      <use x="789.990234" xlink:href="#DejaVuSans-116"/>
      <use x="829.199219" xlink:href="#DejaVuSans-117"/>
      <use x="892.578125" xlink:href="#DejaVuSans-114"/>
      <use x="931.441406" xlink:href="#DejaVuSans-101"/>
      <use x="992.964844" xlink:href="#DejaVuSans-32"/>
      <use x="1024.751953" xlink:href="#DejaVuSans-40"/>
      <use x="1063.765625" xlink:href="#DejaVuSans-67"/>
      <use x="1133.589844" xlink:href="#DejaVuSans-41"/>
     </g>
    </g>
    <g id="line2d_24">
     <path d="M 260.462188 98.604813 
L 280.462188 98.604813 
" style="fill:none;stroke:#d62728;stroke-linecap:square;stroke-width:1.5;"/>
    </g>
    <g id="line2d_25"/>
    <g id="text_18">
     <!-- Minimum Curvature (S) -->
     <g transform="translate(288.462188 102.104813)scale(0.1 -0.1)">
      <use xlink:href="#DejaVuSans-77"/>
      <use x="86.279297" xlink:href="#DejaVuSans-105"/>
      <use x="114.0625" xlink:href="#DejaVuSans-110"/>
      <use x="177.441406" xlink:href="#DejaVuSans-105"/>
      <use x="205.224609" xlink:href="#DejaVuSans-109"/>
      <use x="302.636719" xlink:href="#DejaVuSans-117"/>
      <use x="366.015625" xlink:href="#DejaVuSans-109"/>
      <use x="463.427734" xlink:href="#DejaVuSans-32"/>
      <use x="495.214844" xlink:href="#DejaVuSans-67"/>
      <use x="565.039062" xlink:href="#DejaVuSans-117"/>
      <use x="628.417969" xlink:href="#DejaVuSans-114"/>
      <use x="669.53125" xlink:href="#DejaVuSans-118"/>
      <use x="728.710938" xlink:href="#DejaVuSans-97"/>
      <use x="789.990234" xlink:href="#DejaVuSans-116"/>
      <use x="829.199219" xlink:href="#DejaVuSans-117"/>
      <use x="892.578125" xlink:href="#DejaVuSans-114"/>
      <use x="931.441406" xlink:href="#DejaVuSans-101"/>
      <use x="992.964844" xlink:href="#DejaVuSans-32"/>
      <use x="1024.751953" xlink:href="#DejaVuSans-40"/>
      <use x="1063.765625" xlink:href="#DejaVuSans-83"/>
      <use x="1127.242188" xlink:href="#DejaVuSans-41"/>
     </g>
    </g>
   </g>
  </g>
 </g>
 <defs>
  <clipPath id="p813fe70f56">
   <rect height="266.112" width="357.12" x="57.6" y="41.472"/>
  </clipPath>
 </defs>
</svg>
