<?xml version="1.0" encoding="utf-8" standalone="no"?>
<!DOCTYPE svg PUBLIC "-//W3C//DTD SVG 1.1//EN"
  "http://www.w3.org/Graphics/SVG/1.1/DTD/svg11.dtd">
<svg xmlns:xlink="http://www.w3.org/1999/xlink" width="460.8pt" height="345.6pt" viewBox="0 0 460.8 345.6" xmlns="http://www.w3.org/2000/svg" version="1.1">
 <metadata>
  <rdf:RDF xmlns:dc="http://purl.org/dc/elements/1.1/" xmlns:cc="http://creativecommons.org/ns#" xmlns:rdf="http://www.w3.org/1999/02/22-rdf-syntax-ns#">
   <cc:Work>
    <dc:type rdf:resource="http://purl.org/dc/dcmitype/StillImage"/>
    <dc:date>2024-10-02T14:29:50.242840</dc:date>
    <dc:format>image/svg+xml</dc:format>
    <dc:creator>
     <cc:Agent>
      <dc:title>Matplotlib v3.5.1, https://matplotlib.org/</dc:title>
     </cc:Agent>
    </dc:creator>
   </cc:Work>
  </rdf:RDF>
 </metadata>
 <defs>
  <style type="text/css">*{stroke-linejoin: round; stroke-linecap: butt}</style>
 </defs>
 <g id="figure_1">
  <g id="patch_1">
   <path d="M 0 345.6 
L 460.8 345.6 
L 460.8 0 
L 0 0 
z
" style="fill: #ffffff"/>
  </g>
  <g id="axes_1">
   <g id="patch_2">
    <path d="M 57.6 307.584 
L 414.72 307.584 
L 414.72 41.472 
L 57.6 41.472 
z
" style="fill: #ffffff"/>
   </g>
   <g id="matplotlib.axis_1">
    <g id="xtick_1">
     <g id="line2d_1">
      <defs>
       <path id="m31101f59cc" d="M 0 0 
L 0 3.5 
" style="stroke: #000000; stroke-width: 0.8"/>
      </defs>
      <g>
       <use xlink:href="#m31101f59cc" x="73.832727" y="307.584" style="stroke: #000000; stroke-width: 0.8"/>
      </g>
     </g>
     <g id="text_1">
      <!-- 0.0 -->
      <g transform="translate(65.881165 322.182437)scale(0.1 -0.1)">
       <defs>
        <path id="DejaVuSans-30" d="M 2034 4250 
Q 1547 4250 1301 3770 
Q 1056 3291 1056 2328 
Q 1056 1369 1301 889 
Q 1547 409 2034 409 
Q 2525 409 2770 889 
Q 3016 1369 3016 2328 
Q 3016 3291 2770 3770 
Q 2525 4250 2034 4250 
z
M 2034 4750 
Q 2819 4750 3233 4129 
Q 3647 3509 3647 2328 
Q 3647 1150 3233 529 
Q 2819 -91 2034 -91 
Q 1250 -91 836 529 
Q 422 1150 422 2328 
Q 422 3509 836 4129 
Q 1250 4750 2034 4750 
z
" transform="scale(0.015625)"/>
        <path id="DejaVuSans-2e" d="M 684 794 
L 1344 794 
L 1344 0 
L 684 0 
L 684 794 
z
" transform="scale(0.015625)"/>
       </defs>
       <use xlink:href="#DejaVuSans-30"/>
       <use xlink:href="#DejaVuSans-2e" x="63.623047"/>
       <use xlink:href="#DejaVuSans-30" x="95.410156"/>
      </g>
     </g>
    </g>
    <g id="xtick_2">
     <g id="line2d_2">
      <g>
       <use xlink:href="#m31101f59cc" x="138.763636" y="307.584" style="stroke: #000000; stroke-width: 0.8"/>
      </g>
     </g>
     <g id="text_2">
      <!-- 0.2 -->
      <g transform="translate(130.812074 322.182437)scale(0.1 -0.1)">
       <defs>
        <path id="DejaVuSans-32" d="M 1228 531 
L 3431 531 
L 3431 0 
L 469 0 
L 469 531 
Q 828 903 1448 1529 
Q 2069 2156 2228 2338 
Q 2531 2678 2651 2914 
Q 2772 3150 2772 3378 
Q 2772 3750 2511 3984 
Q 2250 4219 1831 4219 
Q 1534 4219 1204 4116 
Q 875 4013 500 3803 
L 500 4441 
Q 881 4594 1212 4672 
Q 1544 4750 1819 4750 
Q 2544 4750 2975 4387 
Q 3406 4025 3406 3419 
Q 3406 3131 3298 2873 
Q 3191 2616 2906 2266 
Q 2828 2175 2409 1742 
Q 1991 1309 1228 531 
z
" transform="scale(0.015625)"/>
       </defs>
       <use xlink:href="#DejaVuSans-30"/>
       <use xlink:href="#DejaVuSans-2e" x="63.623047"/>
       <use xlink:href="#DejaVuSans-32" x="95.410156"/>
      </g>
     </g>
    </g>
    <g id="xtick_3">
     <g id="line2d_3">
      <g>
       <use xlink:href="#m31101f59cc" x="203.694545" y="307.584" style="stroke: #000000; stroke-width: 0.8"/>
      </g>
     </g>
     <g id="text_3">
      <!-- 0.4 -->
      <g transform="translate(195.742983 322.182437)scale(0.1 -0.1)">
       <defs>
        <path id="DejaVuSans-34" d="M 2419 4116 
L 825 1625 
L 2419 1625 
L 2419 4116 
z
M 2253 4666 
L 3047 4666 
L 3047 1625 
L 3713 1625 
L 3713 1100 
L 3047 1100 
L 3047 0 
L 2419 0 
L 2419 1100 
L 313 1100 
L 313 1709 
L 2253 4666 
z
" transform="scale(0.015625)"/>
       </defs>
       <use xlink:href="#DejaVuSans-30"/>
       <use xlink:href="#DejaVuSans-2e" x="63.623047"/>
       <use xlink:href="#DejaVuSans-34" x="95.410156"/>
      </g>
     </g>
    </g>
    <g id="xtick_4">
     <g id="line2d_4">
      <g>
       <use xlink:href="#m31101f59cc" x="268.625455" y="307.584" style="stroke: #000000; stroke-width: 0.8"/>
      </g>
     </g>
     <g id="text_4">
      <!-- 0.6 -->
      <g transform="translate(260.673892 322.182437)scale(0.1 -0.1)">
       <defs>
        <path id="DejaVuSans-36" d="M 2113 2584 
Q 1688 2584 1439 2293 
Q 1191 2003 1191 1497 
Q 1191 994 1439 701 
Q 1688 409 2113 409 
Q 2538 409 2786 701 
Q 3034 994 3034 1497 
Q 3034 2003 2786 2293 
Q 2538 2584 2113 2584 
z
M 3366 4563 
L 3366 3988 
Q 3128 4100 2886 4159 
Q 2644 4219 2406 4219 
Q 1781 4219 1451 3797 
Q 1122 3375 1075 2522 
Q 1259 2794 1537 2939 
Q 1816 3084 2150 3084 
Q 2853 3084 3261 2657 
Q 3669 2231 3669 1497 
Q 3669 778 3244 343 
Q 2819 -91 2113 -91 
Q 1303 -91 875 529 
Q 447 1150 447 2328 
Q 447 3434 972 4092 
Q 1497 4750 2381 4750 
Q 2619 4750 2861 4703 
Q 3103 4656 3366 4563 
z
" transform="scale(0.015625)"/>
       </defs>
       <use xlink:href="#DejaVuSans-30"/>
       <use xlink:href="#DejaVuSans-2e" x="63.623047"/>
       <use xlink:href="#DejaVuSans-36" x="95.410156"/>
      </g>
     </g>
    </g>
    <g id="xtick_5">
     <g id="line2d_5">
      <g>
       <use xlink:href="#m31101f59cc" x="333.556364" y="307.584" style="stroke: #000000; stroke-width: 0.8"/>
      </g>
     </g>
     <g id="text_5">
      <!-- 0.8 -->
      <g transform="translate(325.604801 322.182437)scale(0.1 -0.1)">
       <defs>
        <path id="DejaVuSans-38" d="M 2034 2216 
Q 1584 2216 1326 1975 
Q 1069 1734 1069 1313 
Q 1069 891 1326 650 
Q 1584 409 2034 409 
Q 2484 409 2743 651 
Q 3003 894 3003 1313 
Q 3003 1734 2745 1975 
Q 2488 2216 2034 2216 
z
M 1403 2484 
Q 997 2584 770 2862 
Q 544 3141 544 3541 
Q 544 4100 942 4425 
Q 1341 4750 2034 4750 
Q 2731 4750 3128 4425 
Q 3525 4100 3525 3541 
Q 3525 3141 3298 2862 
Q 3072 2584 2669 2484 
Q 3125 2378 3379 2068 
Q 3634 1759 3634 1313 
Q 3634 634 3220 271 
Q 2806 -91 2034 -91 
Q 1263 -91 848 271 
Q 434 634 434 1313 
Q 434 1759 690 2068 
Q 947 2378 1403 2484 
z
M 1172 3481 
Q 1172 3119 1398 2916 
Q 1625 2713 2034 2713 
Q 2441 2713 2670 2916 
Q 2900 3119 2900 3481 
Q 2900 3844 2670 4047 
Q 2441 4250 2034 4250 
Q 1625 4250 1398 4047 
Q 1172 3844 1172 3481 
z
" transform="scale(0.015625)"/>
       </defs>
       <use xlink:href="#DejaVuSans-30"/>
       <use xlink:href="#DejaVuSans-2e" x="63.623047"/>
       <use xlink:href="#DejaVuSans-38" x="95.410156"/>
      </g>
     </g>
    </g>
    <g id="xtick_6">
     <g id="line2d_6">
      <g>
       <use xlink:href="#m31101f59cc" x="398.487273" y="307.584" style="stroke: #000000; stroke-width: 0.8"/>
      </g>
     </g>
     <g id="text_6">
      <!-- 1.0 -->
      <g transform="translate(390.53571 322.182437)scale(0.1 -0.1)">
       <defs>
        <path id="DejaVuSans-31" d="M 794 531 
L 1825 531 
L 1825 4091 
L 703 3866 
L 703 4441 
L 1819 4666 
L 2450 4666 
L 2450 531 
L 3481 531 
L 3481 0 
L 794 0 
L 794 531 
z
" transform="scale(0.015625)"/>
       </defs>
       <use xlink:href="#DejaVuSans-31"/>
       <use xlink:href="#DejaVuSans-2e" x="63.623047"/>
       <use xlink:href="#DejaVuSans-30" x="95.410156"/>
      </g>
     </g>
    </g>
   </g>
   <g id="matplotlib.axis_2">
    <g id="ytick_1">
     <g id="line2d_7">
      <defs>
       <path id="me5cba138c2" d="M 0 0 
L -3.5 0 
" style="stroke: #000000; stroke-width: 0.8"/>
      </defs>
      <g>
       <use xlink:href="#me5cba138c2" x="57.6" y="290.065447" style="stroke: #000000; stroke-width: 0.8"/>
      </g>
     </g>
     <g id="text_7">
      <!-- −3 -->
      <g transform="translate(35.857813 293.864666)scale(0.1 -0.1)">
       <defs>
        <path id="DejaVuSans-2212" d="M 678 2272 
L 4684 2272 
L 4684 1741 
L 678 1741 
L 678 2272 
z
" transform="scale(0.015625)"/>
        <path id="DejaVuSans-33" d="M 2597 2516 
Q 3050 2419 3304 2112 
Q 3559 1806 3559 1356 
Q 3559 666 3084 287 
Q 2609 -91 1734 -91 
Q 1441 -91 1130 -33 
Q 819 25 488 141 
L 488 750 
Q 750 597 1062 519 
Q 1375 441 1716 441 
Q 2309 441 2620 675 
Q 2931 909 2931 1356 
Q 2931 1769 2642 2001 
Q 2353 2234 1838 2234 
L 1294 2234 
L 1294 2753 
L 1863 2753 
Q 2328 2753 2575 2939 
Q 2822 3125 2822 3475 
Q 2822 3834 2567 4026 
Q 2313 4219 1838 4219 
Q 1578 4219 1281 4162 
Q 984 4106 628 3988 
L 628 4550 
Q 988 4650 1302 4700 
Q 1616 4750 1894 4750 
Q 2613 4750 3031 4423 
Q 3450 4097 3450 3541 
Q 3450 3153 3228 2886 
Q 3006 2619 2597 2516 
z
" transform="scale(0.015625)"/>
       </defs>
       <use xlink:href="#DejaVuSans-2212"/>
       <use xlink:href="#DejaVuSans-33" x="83.789062"/>
      </g>
     </g>
    </g>
    <g id="ytick_2">
     <g id="line2d_8">
      <g>
       <use xlink:href="#me5cba138c2" x="57.6" y="251.552977" style="stroke: #000000; stroke-width: 0.8"/>
      </g>
     </g>
     <g id="text_8">
      <!-- −2 -->
      <g transform="translate(35.857813 255.352196)scale(0.1 -0.1)">
       <use xlink:href="#DejaVuSans-2212"/>
       <use xlink:href="#DejaVuSans-32" x="83.789062"/>
      </g>
     </g>
    </g>
    <g id="ytick_3">
     <g id="line2d_9">
      <g>
       <use xlink:href="#me5cba138c2" x="57.6" y="213.040507" style="stroke: #000000; stroke-width: 0.8"/>
      </g>
     </g>
     <g id="text_9">
      <!-- −1 -->
      <g transform="translate(35.857813 216.839725)scale(0.1 -0.1)">
       <use xlink:href="#DejaVuSans-2212"/>
       <use xlink:href="#DejaVuSans-31" x="83.789062"/>
      </g>
     </g>
    </g>
    <g id="ytick_4">
     <g id="line2d_10">
      <g>
       <use xlink:href="#me5cba138c2" x="57.6" y="174.528036" style="stroke: #000000; stroke-width: 0.8"/>
      </g>
     </g>
     <g id="text_10">
      <!-- 0 -->
      <g transform="translate(44.2375 178.327255)scale(0.1 -0.1)">
       <use xlink:href="#DejaVuSans-30"/>
      </g>
     </g>
    </g>
    <g id="ytick_5">
     <g id="line2d_11">
      <g>
       <use xlink:href="#me5cba138c2" x="57.6" y="136.015566" style="stroke: #000000; stroke-width: 0.8"/>
      </g>
     </g>
     <g id="text_11">
      <!-- 1 -->
      <g transform="translate(44.2375 139.814785)scale(0.1 -0.1)">
       <use xlink:href="#DejaVuSans-31"/>
      </g>
     </g>
    </g>
    <g id="ytick_6">
     <g id="line2d_12">
      <g>
       <use xlink:href="#me5cba138c2" x="57.6" y="97.503096" style="stroke: #000000; stroke-width: 0.8"/>
      </g>
     </g>
     <g id="text_12">
      <!-- 2 -->
      <g transform="translate(44.2375 101.302315)scale(0.1 -0.1)">
       <use xlink:href="#DejaVuSans-32"/>
      </g>
     </g>
    </g>
    <g id="ytick_7">
     <g id="line2d_13">
      <g>
       <use xlink:href="#me5cba138c2" x="57.6" y="58.990626" style="stroke: #000000; stroke-width: 0.8"/>
      </g>
     </g>
     <g id="text_13">
      <!-- 3 -->
      <g transform="translate(44.2375 62.789844)scale(0.1 -0.1)">
       <use xlink:href="#DejaVuSans-33"/>
      </g>
     </g>
    </g>
   </g>
   <g id="line2d_14">
    <path d="M 73.832727 174.673596 
L 105.196883 174.569675 
L 105.541495 175.836301 
L 105.886219 177.630686 
L 106.230781 180.302121 
L 106.920162 186.940029 
L 107.264815 188.922894 
L 107.609546 193.22894 
L 107.953765 201.661784 
L 108.988135 217.306917 
L 109.332597 217.192533 
L 110.021924 219.26242 
L 110.366556 219.758971 
L 110.711254 220.794426 
L 111.055899 221.324113 
L 111.400573 222.128211 
L 111.745226 222.566104 
L 112.089906 222.653927 
L 112.434497 221.223752 
L 112.779197 220.496323 
L 113.123866 220.747691 
L 113.46852 219.973783 
L 113.813161 220.255418 
L 114.157826 220.37109 
L 114.84715 219.140365 
L 115.191779 219.718842 
L 115.536477 220.732848 
L 115.881116 221.256354 
L 116.225754 220.943029 
L 116.915072 219.592611 
L 117.259713 219.949066 
L 117.949036 222.184012 
L 118.293735 222.094318 
L 118.638365 220.19322 
L 118.983041 219.358103 
L 119.327696 219.378495 
L 119.672357 219.521047 
L 120.016976 218.834446 
L 120.361668 218.447179 
L 120.706338 219.063323 
L 121.050983 218.622601 
L 121.395624 219.034995 
L 121.740313 219.674163 
L 122.08497 219.329427 
L 122.42961 219.75367 
L 122.774258 219.644299 
L 123.118918 219.817522 
L 123.463602 220.528293 
L 123.808263 220.24591 
L 124.497564 222.440275 
L 124.84226 222.61584 
L 125.186802 224.619416 
L 125.531537 225.8923 
L 125.876152 226.312523 
L 126.220854 225.976325 
L 126.565486 224.117174 
L 127.254817 224.191776 
L 127.599477 223.025105 
L 127.944057 224.221775 
L 128.288801 226.164316 
L 128.633431 226.34567 
L 128.978099 226.311266 
L 129.322766 226.85325 
L 129.667419 227.649145 
L 130.356714 226.214528 
L 130.701365 226.291725 
L 131.046009 226.56343 
L 131.39067 226.184295 
L 131.735359 225.050099 
L 132.079971 225.542296 
L 132.42464 225.760929 
L 133.113957 225.531912 
L 133.803281 228.068227 
L 134.147912 227.68007 
L 134.492584 227.461149 
L 134.837233 227.853466 
L 135.181928 227.946661 
L 135.526487 226.591822 
L 135.871176 226.081758 
L 136.215847 226.439107 
L 136.560462 227.037697 
L 136.905161 227.110971 
L 137.24982 226.009498 
L 137.939119 226.671014 
L 138.283744 227.038545 
L 138.628379 226.694006 
L 138.973085 226.009272 
L 139.662398 226.752596 
L 140.007066 226.871853 
L 140.351663 226.093206 
L 140.696334 225.85654 
L 141.041 226.11838 
L 141.730316 226.345703 
L 142.074922 226.969028 
L 142.419616 226.999639 
L 142.764289 226.012044 
L 143.798217 226.977003 
L 144.487542 225.874159 
L 144.832197 226.272856 
L 145.176857 226.457443 
L 145.521527 226.40516 
L 145.866165 225.875205 
L 146.555456 226.235462 
L 146.900111 226.180742 
L 147.244742 225.907068 
L 147.58942 226.059073 
L 147.934097 227.021143 
L 148.968021 226.166056 
L 149.657343 227.208263 
L 150.002 226.601075 
L 150.346661 226.331035 
L 150.691319 226.416651 
L 151.380652 225.889122 
L 151.72527 226.428928 
L 152.069912 226.435585 
L 152.414576 226.260091 
L 153.103892 225.093776 
L 153.448558 225.392476 
L 154.137879 224.056473 
L 154.827246 219.271668 
L 155.51655 223.491779 
L 156.895054 218.328375 
L 157.239701 218.012791 
L 157.584277 218.805995 
L 157.928994 218.806695 
L 158.273645 217.255719 
L 158.618297 216.705563 
L 158.963019 217.620186 
L 159.652293 222.115202 
L 159.996973 220.928752 
L 160.341525 218.455839 
L 160.686158 218.118382 
L 161.030883 218.889091 
L 161.375404 220.008403 
L 161.720179 220.166541 
L 162.064771 218.323764 
L 162.409459 217.437037 
L 162.754135 217.581887 
L 163.098707 218.545511 
L 163.443482 218.394695 
L 163.787992 215.965638 
L 164.132755 214.367897 
L 164.477362 214.110983 
L 164.822098 215.256286 
L 165.16662 217.601313 
L 165.511321 218.312354 
L 165.85594 218.575623 
L 166.200664 218.553683 
L 166.545261 217.18217 
L 166.889931 216.743132 
L 167.234618 217.11714 
L 167.579182 218.182501 
L 167.923969 218.330506 
L 168.613231 214.700437 
L 168.95784 214.419159 
L 169.302552 215.323587 
L 169.647128 217.23407 
L 169.991832 217.042618 
L 170.336481 215.586426 
L 170.681082 215.735698 
L 171.025791 216.320119 
L 171.370344 217.227613 
L 171.715089 217.311145 
L 172.059699 215.631507 
L 172.404396 214.84337 
L 172.74903 215.831044 
L 173.78302 224.12339 
L 174.127693 224.099779 
L 174.472241 225.204992 
L 174.816924 225.614819 
L 175.161545 225.622805 
L 175.506232 225.932285 
L 176.195527 229.089537 
L 176.540172 229.523358 
L 176.884777 230.789251 
L 177.229339 230.202417 
L 177.575045 230.406757 
L 177.917435 242.730828 
L 178.260628 261.461099 
L 178.606749 272.347929 
L 178.95026 276.57666 
L 179.297445 283.601745 
L 179.636042 295.123734 
L 179.984102 56.94683 
L 180.327943 54.419583 
L 180.672942 54.940031 
L 181.017326 57.529836 
L 181.362109 58.717922 
L 182.051337 55.907057 
L 182.395976 57.09474 
L 182.740666 59.635249 
L 183.085357 60.300828 
L 183.429949 59.615455 
L 183.774614 59.595386 
L 184.463901 61.287814 
L 184.808631 60.906123 
L 185.153251 60.043685 
L 185.842474 61.004992 
L 186.187091 61.042366 
L 186.531637 60.445028 
L 186.87637 60.637354 
L 187.221006 61.739232 
L 187.565662 61.820221 
L 187.910312 61.404047 
L 188.255053 61.704042 
L 188.59938 63.427734 
L 188.944204 64.473729 
L 189.288814 64.384189 
L 189.978105 64.620911 
L 190.322766 64.917001 
L 191.012054 68.696662 
L 191.701297 69.259161 
L 192.390605 70.294866 
L 192.735254 70.215964 
L 193.42452 67.466167 
L 193.769159 67.741339 
L 194.113857 68.370717 
L 194.458518 67.937748 
L 194.803181 67.721864 
L 195.492472 69.61198 
L 195.837124 69.591463 
L 196.181762 69.229232 
L 196.526421 69.196118 
L 196.87108 69.288629 
L 197.215746 68.925126 
L 197.560423 68.908102 
L 198.249706 72.000435 
L 198.594307 72.581049 
L 198.938946 72.557243 
L 199.28357 72.64534 
L 199.62816 72.480317 
L 199.97291 71.675413 
L 200.31732 69.816791 
L 200.66214 68.70382 
L 201.351419 70.424143 
L 201.696072 70.56907 
L 202.385383 70.465032 
L 203.074666 70.572313 
L 203.419275 70.983787 
L 203.763915 70.988427 
L 204.108707 69.496346 
L 204.453116 67.053215 
L 204.79793 65.868513 
L 205.142525 66.401469 
L 205.487243 67.608235 
L 206.176523 71.440862 
L 206.521182 72.008528 
L 206.865845 71.931803 
L 207.210502 71.664589 
L 207.555157 71.732571 
L 207.899857 71.392416 
L 208.244426 69.682408 
L 208.58917 68.754646 
L 208.933728 69.321219 
L 209.278426 68.857876 
L 209.623074 67.918079 
L 209.967721 68.108543 
L 210.312404 68.827271 
L 210.657044 69.2263 
L 211.346338 69.339143 
L 212.380209 69.236715 
L 212.724888 68.846833 
L 213.069348 66.909777 
L 213.414249 65.968178 
L 213.758598 67.558301 
L 214.103393 68.088408 
L 215.137367 66.847593 
L 215.826598 67.66842 
L 216.171154 67.942572 
L 216.860521 65.434134 
L 217.549806 67.615615 
L 217.894404 67.154728 
L 218.239086 67.139701 
L 218.583727 67.72515 
L 218.928492 67.324524 
L 219.272868 65.567247 
L 219.617768 65.769753 
L 219.962248 67.186571 
L 220.30688 67.210097 
L 220.651513 67.045025 
L 221.34074 67.713298 
L 222.030087 65.948326 
L 222.719378 67.085577 
L 223.06403 67.004089 
L 223.408702 67.105627 
L 223.753327 67.776031 
L 224.098046 67.615507 
L 224.442652 67.101076 
L 224.787248 67.179461 
L 225.476581 64.562485 
L 225.821168 64.808774 
L 226.165829 64.868843 
L 226.510476 64.519713 
L 226.855191 64.856439 
L 227.19958 66.171611 
L 227.544326 66.647273 
L 227.888973 66.283511 
L 228.233624 66.2161 
L 228.578254 67.021353 
L 228.922995 67.149686 
L 229.267527 66.395217 
L 229.612169 66.31064 
L 229.956812 66.605968 
L 230.30145 66.529866 
L 230.645904 65.237904 
L 230.990686 64.549518 
L 231.33531 64.987793 
L 231.679993 65.01949 
L 232.024607 64.751412 
L 232.369417 65.799658 
L 232.713845 67.271043 
L 233.058488 67.321211 
L 233.403122 67.073453 
L 233.747813 67.494109 
L 234.092318 68.288025 
L 234.436976 68.04307 
L 234.781722 68.249969 
L 235.126282 69.315981 
L 235.47091 69.803284 
L 236.15995 74.126423 
L 236.505723 78.021526 
L 237.193526 92.679699 
L 238.227661 106.081684 
L 238.570986 107.466642 
L 238.917934 112.0189 
L 239.257422 120.997247 
L 239.604794 125.000629 
L 239.948655 124.856946 
L 240.637754 127.596284 
L 240.984196 131.725826 
L 241.325364 139.205461 
L 241.671627 142.442074 
L 242.015759 143.093491 
L 243.049857 148.432898 
L 243.739119 147.416271 
L 244.083642 149.160496 
L 244.428411 150.297518 
L 244.773106 150.905397 
L 245.117512 153.04857 
L 245.807123 156.319208 
L 246.151385 158.84836 
L 246.496194 159.733782 
L 246.840801 159.62513 
L 247.185468 159.726182 
L 247.530063 159.965062 
L 247.874759 160.728781 
L 248.564018 165.494433 
L 248.908587 165.513703 
L 249.597927 167.826224 
L 249.942529 168.01173 
L 250.287371 169.561654 
L 250.63174 172.037274 
L 250.976499 172.506954 
L 251.321285 173.206247 
L 251.665692 174.633523 
L 252.355025 174.363256 
L 252.699686 174.568536 
L 253.389009 174.496399 
L 253.733668 174.773106 
L 254.422936 174.066714 
L 254.7674 175.823857 
L 255.112215 176.475379 
L 255.456924 176.826926 
L 255.801221 178.990692 
L 256.146072 180.379184 
L 256.490647 180.731461 
L 258.558535 186.680084 
L 259.592516 188.305518 
L 259.93711 186.927322 
L 260.281846 186.27202 
L 260.626462 186.345892 
L 260.971079 186.279626 
L 261.315641 187.197007 
L 261.660324 187.425034 
L 262.005135 188.309067 
L 262.349488 190.277567 
L 262.694273 191.228809 
L 263.728167 191.178401 
L 264.072781 191.064801 
L 264.417467 190.739042 
L 264.761997 190.169742 
L 265.106784 191.563719 
L 265.451299 194.192528 
L 265.796031 195.331747 
L 266.140683 194.652749 
L 266.485345 192.728293 
L 266.830032 191.973512 
L 267.519277 193.154454 
L 267.863927 193.073938 
L 268.208485 192.596836 
L 268.553234 191.760927 
L 268.8977 190.595459 
L 269.242406 190.213067 
L 269.931685 189.136039 
L 270.276566 187.854702 
L 270.62077 185.257425 
L 270.965624 184.00452 
L 271.310222 183.507719 
L 271.654896 182.650024 
L 271.999591 180.953206 
L 272.344152 178.466849 
L 273.033422 172.664362 
L 273.378125 172.711884 
L 273.722785 172.578058 
L 274.06753 172.963993 
L 274.411996 174.162518 
L 274.75673 173.079437 
L 275.445999 167.40515 
L 275.790641 165.613472 
L 276.82464 153.92797 
L 277.513833 149.310446 
L 278.203052 142.329979 
L 278.547811 142.006052 
L 278.892576 141.133386 
L 279.581863 137.041007 
L 280.271138 134.18089 
L 280.960332 127.258247 
L 281.304902 126.05736 
L 281.649925 123.670611 
L 281.993936 118.802632 
L 282.338911 115.706366 
L 282.683499 115.753764 
L 283.028312 114.948025 
L 283.3726 111.61798 
L 283.717427 109.594367 
L 284.062041 109.940043 
L 284.406764 109.701634 
L 284.7513 108.373127 
L 285.096025 107.794571 
L 285.440623 107.878443 
L 286.12985 104.653637 
L 286.474587 104.120258 
L 288.19777 103.909274 
L 288.54242 103.678135 
L 288.887086 103.949792 
L 289.231567 105.417526 
L 289.57632 105.633431 
L 289.920946 104.893561 
L 290.610279 104.380032 
L 292.678175 104.44527 
L 293.367447 104.77646 
L 293.712118 105.199981 
L 294.056797 104.844198 
L 294.401254 103.104948 
L 294.746011 102.258409 
L 295.090644 102.125901 
L 295.435317 101.794351 
L 296.124654 101.626781 
L 296.469189 100.269348 
L 297.158346 92.649401 
L 298.19251 86.886649 
L 298.88181 85.5046 
L 299.226307 84.115228 
L 299.571298 80.537997 
L 300.26029 70.074528 
L 300.605107 67.034487 
L 300.949619 65.481705 
L 301.294253 65.173544 
L 302.672805 57.814918 
L 303.017597 56.220098 
L 303.362073 294.669557 
L 303.706762 291.809676 
L 304.396089 287.902831 
L 304.740749 285.696357 
L 305.430092 283.35862 
L 306.464041 276.695048 
L 306.808709 275.240356 
L 307.842696 274.048942 
L 308.187289 274.547021 
L 308.531942 274.427953 
L 308.876608 274.151156 
L 309.221261 274.178316 
L 309.565924 274.073103 
L 309.910537 273.469194 
L 310.599887 274.754117 
L 311.289153 274.727048 
L 311.633883 275.669106 
L 311.978351 278.044349 
L 312.323091 279.124546 
L 312.667794 280.613306 
L 313.01236 283.7872 
L 313.357143 284.390634 
L 313.701632 282.175672 
L 314.046342 281.550181 
L 314.391048 283.565518 
L 314.735748 283.783634 
L 315.080181 281.298252 
L 315.425022 281.463725 
L 316.803538 292.084092 
L 317.148143 290.847799 
L 317.492834 290.552642 
L 317.837501 292.688107 
L 318.182178 54.369391 
L 318.526778 56.438025 
L 318.871459 55.704686 
L 319.21616 55.727609 
L 319.905433 56.46299 
L 320.594707 58.729565 
L 321.284019 57.882143 
L 321.628634 58.174022 
L 321.973308 58.930543 
L 322.317899 61.381881 
L 322.662598 62.516961 
L 323.00724 62.594208 
L 323.351885 62.850892 
L 324.385864 62.735605 
L 324.730519 62.603104 
L 325.419813 61.652185 
L 325.764566 63.04829 
L 326.109161 63.949584 
L 326.798448 63.775153 
L 328.521693 63.834462 
L 329.210968 62.043645 
L 329.555627 62.423822 
L 329.9003 62.995331 
L 330.589618 63.345164 
L 331.278931 63.359813 
L 331.623577 63.397847 
L 331.968246 63.673512 
L 332.312888 63.549498 
L 332.657473 61.983651 
L 333.002191 61.874153 
L 333.346814 62.527965 
L 334.036139 62.887266 
L 334.380803 62.810917 
L 334.725464 62.870365 
L 335.070129 62.71252 
L 335.414788 62.749043 
L 335.759422 63.450555 
L 336.104143 62.720748 
L 336.44877 62.261072 
L 336.793403 62.51735 
L 337.482709 62.72264 
L 338.172018 62.590725 
L 338.861326 61.697008 
L 339.206065 62.615832 
L 339.550606 63.865885 
L 339.895284 63.874644 
L 340.239939 63.714439 
L 340.584602 63.833411 
L 341.618571 63.606101 
L 341.963218 63.516589 
L 342.307869 63.577177 
L 342.652521 63.498319 
L 342.997177 63.535076 
L 343.686493 63.091006 
L 344.031165 63.524854 
L 344.375848 63.227991 
L 344.720447 62.493055 
L 345.065111 62.485324 
L 345.409773 62.712992 
L 346.443747 62.63051 
L 346.788384 62.358178 
L 347.133069 61.807704 
L 347.477727 62.023468 
L 347.822306 63.549693 
L 348.167006 63.624656 
L 348.511653 63.232647 
L 348.856317 63.282788 
L 349.200978 63.174673 
L 349.545639 63.239136 
L 350.234955 62.788968 
L 350.579643 62.228429 
L 350.92426 61.985416 
L 351.26894 63.704038 
L 351.613605 64.291669 
L 351.958249 64.142222 
L 352.302902 64.251251 
L 352.647557 64.202414 
L 352.992213 64.301236 
L 353.336873 64.282791 
L 353.681529 64.628538 
L 354.026196 65.291706 
L 354.370877 64.954315 
L 354.715521 64.820442 
L 355.404821 66.457071 
L 356.094136 69.808456 
L 356.438801 70.357033 
L 356.783486 71.458593 
L 357.817546 77.034868 
L 358.161878 81.720782 
L 358.851126 97.903418 
L 359.196072 100.006531 
L 359.540668 101.069502 
L 359.885338 104.140277 
L 360.229982 106.08624 
L 360.574676 107.283948 
L 360.919327 107.199588 
L 361.263943 105.423092 
L 361.608646 105.58061 
L 361.953211 107.74699 
L 362.642543 114.33731 
L 363.331893 114.033388 
L 364.365878 114.06833 
L 371.259097 114.119839 
L 371.603758 113.83734 
L 371.948442 114.643019 
L 372.293083 116.16351 
L 372.637671 118.936702 
L 373.327002 130.872359 
L 373.671718 131.758439 
L 374.360982 134.729749 
L 375.05028 141.66104 
L 375.395043 146.425627 
L 376.084307 161.257823 
L 376.428996 162.588453 
L 376.773645 162.688597 
L 377.118309 162.630019 
L 377.807631 163.203042 
L 378.152285 163.599246 
L 378.496962 165.24864 
L 378.84162 165.721092 
L 379.186276 165.857245 
L 379.530926 167.215945 
L 379.875601 167.024026 
L 380.220254 166.587933 
L 380.564913 166.531987 
L 381.25423 168.338939 
L 381.598893 167.811141 
L 381.943547 167.902981 
L 382.63287 171.059533 
L 382.977538 171.635299 
L 383.322199 171.20919 
L 383.666854 169.682905 
L 384.011513 168.77449 
L 384.700833 170.994997 
L 385.045499 170.234877 
L 385.390166 170.865157 
L 385.734816 172.815564 
L 386.07948 173.298123 
L 386.768799 174.926011 
L 387.113461 174.674954 
L 398.487273 174.673596 
L 398.487273 174.673596 
" clip-path="url(#p7e607635e4)" style="fill: none; stroke: #1f77b4; stroke-width: 1.5; stroke-linecap: square"/>
   </g>
   <g id="line2d_15">
    <path d="M 73.832727 174.542566 
L 106.738252 174.539591 
L 107.461432 176.243805 
L 108.184001 186.806602 
L 108.906994 191.674806 
L 109.626842 219.80621 
L 109.988441 220.267185 
L 111.796437 220.190756 
L 113.604433 220.507951 
L 115.774028 220.629152 
L 116.858825 220.733067 
L 118.305222 220.889023 
L 120.836416 221.319747 
L 121.921213 221.400992 
L 123.006011 221.524658 
L 124.452407 221.566271 
L 126.260403 221.752681 
L 127.345198 222.5666 
L 127.706796 222.762734 
L 129.153193 222.71079 
L 129.87639 223.181289 
L 130.599588 223.067258 
L 131.322786 223.479082 
L 132.045984 223.311736 
L 133.130781 223.442375 
L 133.853979 223.425311 
L 134.577178 223.392465 
L 134.938777 223.323054 
L 135.661974 223.680972 
L 136.746771 223.694978 
L 137.10837 223.785775 
L 138.193168 223.71673 
L 138.916366 223.754398 
L 140.362763 223.768832 
L 147.233147 223.773782 
L 156.634725 223.548914 
L 157.719518 222.665719 
L 158.081115 222.464656 
L 161.335507 221.860183 
L 161.697104 221.643596 
L 163.505099 221.353524 
L 164.228297 221.290321 
L 164.951496 221.265025 
L 166.036293 221.180763 
L 167.12109 221.1004 
L 167.844289 221.058591 
L 168.929086 221.091912 
L 170.013883 221.119025 
L 170.737082 221.118102 
L 171.46028 221.08539 
L 171.821879 221.131418 
L 172.545074 221.623872 
L 173.26827 221.295485 
L 174.353065 221.689726 
L 174.714664 221.692428 
L 175.437861 221.365196 
L 176.522614 223.528983 
L 177.607389 224.885172 
L 178.330478 227.646745 
L 178.692077 227.950276 
L 179.415274 228.156113 
L 179.776874 228.203871 
L 180.138473 227.844573 
L 180.500064 228.95649 
L 180.820001 271.231859 
L 181.181471 59.2744 
L 181.54307 55.473036 
L 182.989458 56.946761 
L 183.712655 57.384934 
L 184.435832 59.394682 
L 185.15903 59.542597 
L 185.882207 61.285767 
L 188.051801 61.941221 
L 189.136598 62.115268 
L 189.859797 62.197537 
L 190.221395 62.292192 
L 190.944589 63.106271 
L 191.667756 65.15993 
L 193.837347 66.520817 
L 194.560544 66.937579 
L 197.091739 67.010412 
L 197.814937 67.113869 
L 199.261333 67.068806 
L 199.622932 66.973129 
L 200.707729 67.392596 
L 202.515724 67.706857 
L 203.600521 67.692416 
L 204.685319 67.72806 
L 205.770116 67.76542 
L 207.939711 68.010289 
L 211.917302 68.202722 
L 222.403678 68.331784 
L 223.126876 68.382922 
L 225.296471 68.412238 
L 226.742867 68.44047 
L 229.274061 68.553971 
L 231.805255 68.694223 
L 233.97485 68.705032 
L 234.698049 68.784487 
L 236.144444 69.158091 
L 239.037237 69.202898 
L 239.398835 69.072513 
L 240.477592 93.829641 
L 241.200568 102.974639 
L 241.562013 107.323895 
L 242.644957 129.110484 
L 243.367379 140.698889 
L 243.728978 145.741345 
L 244.81376 147.675485 
L 245.175359 148.227995 
L 245.89841 154.34827 
L 246.621608 154.663994 
L 247.3448 155.778312 
L 248.067967 158.080634 
L 248.791164 158.47892 
L 249.51431 161.629466 
L 250.237504 162.569577 
L 251.322272 165.130973 
L 251.683871 166.105765 
L 252.407009 169.20245 
L 253.130204 170.344013 
L 253.853316 174.181726 
L 255.299712 174.894014 
L 256.022854 178.142206 
L 256.746045 179.415907 
L 257.46923 181.256405 
L 258.192422 182.396675 
L 260.723616 182.803005 
L 261.446814 183.064751 
L 261.808413 183.152056 
L 262.89321 182.9854 
L 263.616409 182.907834 
L 263.978008 182.844568 
L 264.701205 183.44822 
L 267.232399 183.566592 
L 267.593998 183.70415 
L 268.317196 183.237614 
L 269.040394 183.569371 
L 269.763592 183.426843 
L 270.48679 182.915353 
L 271.933186 182.76518 
L 272.656385 181.805884 
L 273.741182 182.103524 
L 274.102781 182.10613 
L 274.825965 179.304531 
L 275.549122 174.948053 
L 276.272319 174.195151 
L 276.995455 166.516651 
L 278.441699 156.889686 
L 279.164667 145.161419 
L 279.887781 141.468887 
L 280.610822 135.059911 
L 281.69541 128.995248 
L 282.057009 126.831435 
L 283.141474 117.063126 
L 283.864592 112.546518 
L 284.587625 107.993742 
L 284.949224 105.553017 
L 286.034019 104.840688 
L 286.395618 104.652419 
L 293.266002 104.33966 
L 294.712399 104.278593 
L 296.520394 103.962501 
L 297.243577 101.737902 
L 297.966413 92.830821 
L 298.689454 86.696175 
L 299.774031 79.717688 
L 300.496935 73.527716 
L 300.858534 70.297779 
L 301.581657 66.054414 
L 302.665985 55.700192 
L 303.027584 294.20023 
L 303.750469 287.674255 
L 304.473663 286.891855 
L 305.196861 287.099385 
L 305.920056 286.346393 
L 306.643248 285.278782 
L 307.366445 284.908499 
L 308.451243 284.976488 
L 309.53604 284.938526 
L 310.982437 285.080758 
L 311.705632 286.017486 
L 312.42883 286.33994 
L 313.152028 286.255081 
L 313.875225 286.78036 
L 314.598424 286.89569 
L 315.321614 288.400039 
L 316.044789 290.955498 
L 316.767902 294.111965 
L 317.491099 295.149429 
L 317.852694 53.700017 
L 318.214293 54.215394 
L 318.937492 54.360919 
L 319.660689 55.085645 
L 320.383783 59.581619 
L 321.106981 59.966088 
L 321.830171 62.048792 
L 325.807762 62.338893 
L 326.53096 62.423736 
L 328.700555 62.494881 
L 330.508551 62.592535 
L 332.316547 62.661655 
L 333.762944 62.837394 
L 336.655737 62.924959 
L 343.164522 63.183318 
L 347.865311 63.249873 
L 348.950109 63.48144 
L 351.842902 63.623743 
L 352.5661 63.803787 
L 354.374096 63.829176 
L 355.820492 63.86509 
L 356.543669 66.611876 
L 357.266867 67.129586 
L 357.989978 71.629098 
L 358.712973 80.232316 
L 359.43578 96.943851 
L 360.158922 104.574283 
L 360.882107 107.218783 
L 361.605306 107.453091 
L 362.328498 110.549888 
L 363.051644 114.533871 
L 367.752433 114.511571 
L 372.453222 114.578827 
L 373.176417 116.298731 
L 374.983503 150.203706 
L 375.345102 158.793034 
L 376.068189 163.467598 
L 376.791388 163.53738 
L 377.514544 166.879089 
L 380.045738 167.114613 
L 380.768936 167.285724 
L 381.130535 167.412169 
L 381.853732 168.349639 
L 382.57693 168.834086 
L 383.30012 170.406656 
L 384.023306 174.165927 
L 386.916099 174.542538 
L 398.487273 174.542566 
L 398.487273 174.542566 
" clip-path="url(#p7e607635e4)" style="fill: none; stroke: #ff7f0e; stroke-width: 1.5; stroke-linecap: square"/>
   </g>
   <g id="line2d_16">
    <path d="M 73.832727 174.528846 
L 93.22043 174.610131 
L 94.277941 174.838404 
L 94.982949 175.141169 
L 95.687956 175.580901 
L 96.745467 176.424256 
L 98.507985 178.220276 
L 99.917998 179.976298 
L 101.328011 182.043203 
L 102.738024 184.445393 
L 104.148036 187.209035 
L 105.558047 190.359217 
L 106.615552 193.006601 
L 108.378064 198.161592 
L 109.083067 200.316146 
L 111.19808 205.809337 
L 112.60809 208.939527 
L 114.018102 211.653559 
L 115.428114 214.020786 
L 116.838127 216.055688 
L 118.24814 217.724908 
L 119.30565 218.759239 
L 122.478182 221.403359 
L 124.593203 222.944989 
L 127.060728 224.554668 
L 131.290772 226.516517 
L 133.758297 227.264632 
L 135.873319 227.741041 
L 137.635838 227.934349 
L 140.103364 227.984894 
L 142.218386 227.801175 
L 144.333408 227.42592 
L 146.095926 226.948432 
L 148.563452 226.038324 
L 150.678473 225.046656 
L 152.440991 224.052357 
L 154.908515 222.400552 
L 160.196066 218.598719 
L 164.778613 216.215799 
L 166.188627 215.692179 
L 166.541131 215.631529 
L 167.598642 215.931091 
L 168.303649 216.376272 
L 169.008655 217.060631 
L 169.713661 217.964741 
L 170.418666 219.061578 
L 171.12367 220.414491 
L 171.828672 222.093968 
L 172.533671 224.144527 
L 173.238666 226.599826 
L 174.296138 230.914597 
L 175.706092 238.117175 
L 177.821008 250.336357 
L 179.58341 264.763888 
L 180.640834 273.00771 
L 181.698334 278.063816 
L 183.813307 289.496856 
L 184.870797 294.369383 
L 185.223301 53.751849 
L 186.280801 57.419959 
L 187.338309 60.014857 
L 188.748321 62.740763 
L 190.158333 65.115257 
L 191.215842 66.67153 
L 192.625856 68.277715 
L 194.03587 69.354484 
L 195.445884 69.995268 
L 196.855899 70.226332 
L 201.085943 70.387259 
L 204.258477 70.259813 
L 208.841025 69.626586 
L 213.423572 68.489797 
L 215.891098 67.74105 
L 220.121142 66.733341 
L 223.646179 66.188851 
L 228.228727 65.845989 
L 229.286238 65.806875 
L 229.991245 66.108056 
L 230.696251 66.89023 
L 231.401255 68.145807 
L 232.45876 70.906955 
L 233.163758 73.233421 
L 234.221239 77.37315 
L 235.63121 83.995694 
L 237.041168 91.788538 
L 238.451107 101.182492 
L 239.861025 112.872557 
L 241.623474 127.818801 
L 242.680957 135.705321 
L 244.443466 146.767077 
L 245.853478 154.367014 
L 247.263491 160.959927 
L 248.673503 166.645825 
L 250.083515 171.503532 
L 251.141025 174.658914 
L 252.551038 178.167402 
L 253.961052 180.993111 
L 255.723569 183.820953 
L 257.133584 185.681531 
L 258.543598 187.21539 
L 259.601109 188.154787 
L 261.011124 189.043809 
L 262.068635 189.33723 
L 262.773642 189.312473 
L 263.47865 189.119216 
L 264.183657 188.7729 
L 265.241168 188.038287 
L 266.298679 186.973477 
L 267.35619 185.542316 
L 268.766205 183.038978 
L 270.176219 179.801863 
L 271.586233 175.796647 
L 272.996246 170.991457 
L 274.758764 163.927754 
L 275.816274 159.054735 
L 277.931289 147.706535 
L 279.693793 138.785651 
L 281.456301 130.910892 
L 283.57131 122.73912 
L 285.686322 115.686599 
L 287.801336 109.62516 
L 293.441376 94.943102 
L 295.556388 88.260538 
L 297.318891 81.897859 
L 299.433891 73.241102 
L 301.196388 64.898149 
L 302.958871 56.541967 
L 303.66387 53.668808 
L 304.016374 294.289634 
L 305.426376 289.66775 
L 306.836383 286.124416 
L 307.89389 284.221935 
L 308.598897 283.241735 
L 309.303904 282.514747 
L 310.008911 282.045227 
L 310.713918 281.827502 
L 311.066422 281.781514 
L 311.771429 281.978856 
L 312.82894 282.757037 
L 313.533946 283.523624 
L 314.238952 284.506943 
L 315.648964 286.834771 
L 317.411481 289.575486 
L 319.5265 292.489314 
L 321.994023 295.488 
L 322.346527 53.908812 
L 324.814051 56.395521 
L 326.576569 57.955632 
L 328.691591 59.517697 
L 330.806613 60.837665 
L 333.274138 62.000192 
L 334.684153 62.512884 
L 336.094168 62.854895 
L 338.914197 63.278972 
L 340.676716 63.423698 
L 344.90676 63.600392 
L 346.316775 64.285834 
L 347.726789 65.4336 
L 349.136804 67.01607 
L 350.546819 69.019361 
L 352.309337 72.170306 
L 353.719352 75.161172 
L 355.129366 78.602711 
L 356.539381 82.599544 
L 357.949396 86.703844 
L 359.006907 89.691994 
L 363.589452 104.850165 
L 370.287014 126.038742 
L 372.402032 133.511514 
L 375.927055 147.321007 
L 378.042071 154.027753 
L 379.804584 158.73116 
L 381.5671 162.811694 
L 382.977113 165.653699 
L 385.092134 169.201498 
L 386.502148 171.111005 
L 387.912162 172.564872 
L 389.322177 173.621649 
L 390.732191 174.273428 
L 392.142206 174.52885 
L 396.372251 174.539683 
L 398.487273 174.531445 
L 398.487273 174.531445 
" clip-path="url(#p7e607635e4)" style="fill: none; stroke: #2ca02c; stroke-width: 1.5; stroke-linecap: square"/>
   </g>
   <g id="line2d_17">
    <path d="M 73.832727 174.539215 
L 93.24359 174.595895 
L 94.655289 174.9182 
L 95.714061 175.507326 
L 96.772833 176.323165 
L 98.184525 177.701472 
L 99.94913 179.872639 
L 101.360809 181.973573 
L 102.77248 184.423826 
L 104.18414 187.244338 
L 105.595786 190.459822 
L 107.007409 194.167 
L 110.183557 203.26561 
L 112.301014 208.146559 
L 114.065571 211.582053 
L 115.477238 213.949738 
L 116.888911 216.003299 
L 118.300592 217.750465 
L 119.712279 219.143892 
L 121.829814 220.916261 
L 124.300276 222.717938 
L 127.123662 224.453593 
L 129.594128 225.676122 
L 131.711673 226.513104 
L 133.82922 227.149322 
L 135.946768 227.593602 
L 138.064316 227.838367 
L 140.181865 227.885615 
L 142.299413 227.73476 
L 144.416961 227.385183 
L 146.534507 226.836238 
L 148.652052 226.087795 
L 150.769594 225.138967 
L 153.240058 223.780267 
L 155.710513 222.143282 
L 162.416034 217.392261 
L 165.592338 215.514172 
L 166.65111 215.095091 
L 167.35696 215.083086 
L 168.062808 215.343623 
L 168.768652 215.887424 
L 169.474487 216.721177 
L 170.180307 217.890841 
L 171.238948 220.356409 
L 172.297621 223.390668 
L 173.709035 228.322351 
L 175.120291 234.445562 
L 176.5313 242.045885 
L 177.58888 249.256116 
L 180.057328 267.247128 
L 183.584367 287.710131 
L 184.995516 294.065562 
L 185.348243 295.430792 
L 185.701168 54.758721 
L 186.759683 58.091296 
L 187.81838 60.713999 
L 189.229969 63.524295 
L 190.641597 65.776293 
L 192.053252 67.539824 
L 193.464926 68.844169 
L 194.523689 69.515009 
L 195.582462 69.945268 
L 196.994159 70.241619 
L 199.111708 70.404688 
L 201.935106 70.408941 
L 205.111429 70.178588 
L 208.28775 69.708871 
L 211.46407 68.995147 
L 219.934253 66.838809 
L 223.463499 66.280659 
L 227.345671 65.900457 
L 228.404445 65.869833 
L 229.110292 66.104623 
L 229.816128 66.683682 
L 230.521949 67.578821 
L 231.58068 69.39411 
L 232.6393 71.802252 
L 233.697948 74.901241 
L 234.756326 78.767335 
L 235.814801 83.517613 
L 236.87275 89.104164 
L 237.93091 95.933705 
L 239.340834 107.106676 
L 242.159721 131.45822 
L 243.570078 140.763704 
L 244.980811 148.694329 
L 246.744397 157.226427 
L 248.508514 164.543794 
L 250.272573 170.848036 
L 252.036925 176.217232 
L 253.448421 179.847844 
L 254.859977 182.895465 
L 256.27158 185.373744 
L 257.330297 186.850406 
L 258.389054 187.99025 
L 259.44781 188.818601 
L 260.506581 189.330687 
L 261.565354 189.530578 
L 262.271203 189.469097 
L 263.329976 189.08392 
L 264.388738 188.396201 
L 265.800411 187.096432 
L 267.212064 185.356781 
L 268.270804 183.703587 
L 269.329479 181.721391 
L 270.741024 178.496082 
L 272.152493 174.540079 
L 273.56386 169.779273 
L 274.975101 164.14713 
L 276.386188 157.612928 
L 277.79709 150.135958 
L 279.913487 138.862034 
L 281.67755 130.873623 
L 283.441517 123.801564 
L 285.205807 117.594631 
L 286.970039 112.087609 
L 288.734462 107.236628 
L 293.674784 94.218559 
L 295.791993 87.833404 
L 297.203414 83.041913 
L 298.967488 76.263922 
L 300.731654 68.617415 
L 303.906666 53.842654 
L 304.259591 294.518094 
L 305.31809 290.95283 
L 306.729615 287.059407 
L 307.788333 284.790119 
L 308.847041 283.049873 
L 309.905801 281.921303 
L 310.611644 281.500993 
L 311.317492 281.36496 
L 312.023342 281.513523 
L 312.729189 281.946464 
L 313.43503 282.669999 
L 314.140861 283.68519 
L 317.669957 289.480387 
L 320.140345 292.944696 
L 321.904936 295.138865 
L 322.257846 53.568 
L 324.728285 56.176156 
L 326.845808 58.087886 
L 328.963338 59.694915 
L 330.72795 60.803157 
L 332.845492 61.853276 
L 334.963037 62.608908 
L 336.72766 62.965328 
L 339.903983 63.331555 
L 343.080306 63.445262 
L 344.492005 63.548465 
L 345.197854 63.768006 
L 346.256624 64.338677 
L 347.668313 65.47344 
L 349.079993 67.004774 
L 350.491663 68.945245 
L 351.903321 71.295733 
L 353.667889 74.813262 
L 355.079517 78.088559 
L 356.491125 81.835738 
L 357.549782 85.005015 
L 362.490252 101.350527 
L 370.254049 125.28683 
L 372.724347 134.305862 
L 374.488761 141.637188 
L 375.900346 147.111661 
L 378.017787 153.868449 
L 379.782362 158.613905 
L 381.194027 161.904334 
L 382.605701 164.776447 
L 384.370301 167.88072 
L 386.134916 170.393844 
L 387.193684 171.640718 
L 388.605381 172.940163 
L 390.017078 173.843287 
L 391.428777 174.352837 
L 392.840476 174.527845 
L 398.487273 174.539804 
L 398.487273 174.539804 
" clip-path="url(#p7e607635e4)" style="fill: none; stroke: #d62728; stroke-width: 1.5; stroke-linecap: square"/>
   </g>
   <g id="patch_3">
    <path d="M 57.6 307.584 
L 57.6 41.472 
" style="fill: none; stroke: #000000; stroke-width: 0.8; stroke-linejoin: miter; stroke-linecap: square"/>
   </g>
   <g id="patch_4">
    <path d="M 414.72 307.584 
L 414.72 41.472 
" style="fill: none; stroke: #000000; stroke-width: 0.8; stroke-linejoin: miter; stroke-linecap: square"/>
   </g>
   <g id="patch_5">
    <path d="M 57.6 307.584 
L 414.72 307.584 
" style="fill: none; stroke: #000000; stroke-width: 0.8; stroke-linejoin: miter; stroke-linecap: square"/>
   </g>
   <g id="patch_6">
    <path d="M 57.6 41.472 
L 414.72 41.472 
" style="fill: none; stroke: #000000; stroke-width: 0.8; stroke-linejoin: miter; stroke-linecap: square"/>
   </g>
   <g id="text_14">
    <!-- Heading vs Distance aut -->
    <g transform="translate(162.7275 35.472)scale(0.12 -0.12)">
     <defs>
      <path id="DejaVuSans-48" d="M 628 4666 
L 1259 4666 
L 1259 2753 
L 3553 2753 
L 3553 4666 
L 4184 4666 
L 4184 0 
L 3553 0 
L 3553 2222 
L 1259 2222 
L 1259 0 
L 628 0 
L 628 4666 
z
" transform="scale(0.015625)"/>
      <path id="DejaVuSans-65" d="M 3597 1894 
L 3597 1613 
L 953 1613 
Q 991 1019 1311 708 
Q 1631 397 2203 397 
Q 2534 397 2845 478 
Q 3156 559 3463 722 
L 3463 178 
Q 3153 47 2828 -22 
Q 2503 -91 2169 -91 
Q 1331 -91 842 396 
Q 353 884 353 1716 
Q 353 2575 817 3079 
Q 1281 3584 2069 3584 
Q 2775 3584 3186 3129 
Q 3597 2675 3597 1894 
z
M 3022 2063 
Q 3016 2534 2758 2815 
Q 2500 3097 2075 3097 
Q 1594 3097 1305 2825 
Q 1016 2553 972 2059 
L 3022 2063 
z
" transform="scale(0.015625)"/>
      <path id="DejaVuSans-61" d="M 2194 1759 
Q 1497 1759 1228 1600 
Q 959 1441 959 1056 
Q 959 750 1161 570 
Q 1363 391 1709 391 
Q 2188 391 2477 730 
Q 2766 1069 2766 1631 
L 2766 1759 
L 2194 1759 
z
M 3341 1997 
L 3341 0 
L 2766 0 
L 2766 531 
Q 2569 213 2275 61 
Q 1981 -91 1556 -91 
Q 1019 -91 701 211 
Q 384 513 384 1019 
Q 384 1609 779 1909 
Q 1175 2209 1959 2209 
L 2766 2209 
L 2766 2266 
Q 2766 2663 2505 2880 
Q 2244 3097 1772 3097 
Q 1472 3097 1187 3025 
Q 903 2953 641 2809 
L 641 3341 
Q 956 3463 1253 3523 
Q 1550 3584 1831 3584 
Q 2591 3584 2966 3190 
Q 3341 2797 3341 1997 
z
" transform="scale(0.015625)"/>
      <path id="DejaVuSans-64" d="M 2906 2969 
L 2906 4863 
L 3481 4863 
L 3481 0 
L 2906 0 
L 2906 525 
Q 2725 213 2448 61 
Q 2172 -91 1784 -91 
Q 1150 -91 751 415 
Q 353 922 353 1747 
Q 353 2572 751 3078 
Q 1150 3584 1784 3584 
Q 2172 3584 2448 3432 
Q 2725 3281 2906 2969 
z
M 947 1747 
Q 947 1113 1208 752 
Q 1469 391 1925 391 
Q 2381 391 2643 752 
Q 2906 1113 2906 1747 
Q 2906 2381 2643 2742 
Q 2381 3103 1925 3103 
Q 1469 3103 1208 2742 
Q 947 2381 947 1747 
z
" transform="scale(0.015625)"/>
      <path id="DejaVuSans-69" d="M 603 3500 
L 1178 3500 
L 1178 0 
L 603 0 
L 603 3500 
z
M 603 4863 
L 1178 4863 
L 1178 4134 
L 603 4134 
L 603 4863 
z
" transform="scale(0.015625)"/>
      <path id="DejaVuSans-6e" d="M 3513 2113 
L 3513 0 
L 2938 0 
L 2938 2094 
Q 2938 2591 2744 2837 
Q 2550 3084 2163 3084 
Q 1697 3084 1428 2787 
Q 1159 2491 1159 1978 
L 1159 0 
L 581 0 
L 581 3500 
L 1159 3500 
L 1159 2956 
Q 1366 3272 1645 3428 
Q 1925 3584 2291 3584 
Q 2894 3584 3203 3211 
Q 3513 2838 3513 2113 
z
" transform="scale(0.015625)"/>
      <path id="DejaVuSans-67" d="M 2906 1791 
Q 2906 2416 2648 2759 
Q 2391 3103 1925 3103 
Q 1463 3103 1205 2759 
Q 947 2416 947 1791 
Q 947 1169 1205 825 
Q 1463 481 1925 481 
Q 2391 481 2648 825 
Q 2906 1169 2906 1791 
z
M 3481 434 
Q 3481 -459 3084 -895 
Q 2688 -1331 1869 -1331 
Q 1566 -1331 1297 -1286 
Q 1028 -1241 775 -1147 
L 775 -588 
Q 1028 -725 1275 -790 
Q 1522 -856 1778 -856 
Q 2344 -856 2625 -561 
Q 2906 -266 2906 331 
L 2906 616 
Q 2728 306 2450 153 
Q 2172 0 1784 0 
Q 1141 0 747 490 
Q 353 981 353 1791 
Q 353 2603 747 3093 
Q 1141 3584 1784 3584 
Q 2172 3584 2450 3431 
Q 2728 3278 2906 2969 
L 2906 3500 
L 3481 3500 
L 3481 434 
z
" transform="scale(0.015625)"/>
      <path id="DejaVuSans-20" transform="scale(0.015625)"/>
      <path id="DejaVuSans-76" d="M 191 3500 
L 800 3500 
L 1894 563 
L 2988 3500 
L 3597 3500 
L 2284 0 
L 1503 0 
L 191 3500 
z
" transform="scale(0.015625)"/>
      <path id="DejaVuSans-73" d="M 2834 3397 
L 2834 2853 
Q 2591 2978 2328 3040 
Q 2066 3103 1784 3103 
Q 1356 3103 1142 2972 
Q 928 2841 928 2578 
Q 928 2378 1081 2264 
Q 1234 2150 1697 2047 
L 1894 2003 
Q 2506 1872 2764 1633 
Q 3022 1394 3022 966 
Q 3022 478 2636 193 
Q 2250 -91 1575 -91 
Q 1294 -91 989 -36 
Q 684 19 347 128 
L 347 722 
Q 666 556 975 473 
Q 1284 391 1588 391 
Q 1994 391 2212 530 
Q 2431 669 2431 922 
Q 2431 1156 2273 1281 
Q 2116 1406 1581 1522 
L 1381 1569 
Q 847 1681 609 1914 
Q 372 2147 372 2553 
Q 372 3047 722 3315 
Q 1072 3584 1716 3584 
Q 2034 3584 2315 3537 
Q 2597 3491 2834 3397 
z
" transform="scale(0.015625)"/>
      <path id="DejaVuSans-44" d="M 1259 4147 
L 1259 519 
L 2022 519 
Q 2988 519 3436 956 
Q 3884 1394 3884 2338 
Q 3884 3275 3436 3711 
Q 2988 4147 2022 4147 
L 1259 4147 
z
M 628 4666 
L 1925 4666 
Q 3281 4666 3915 4102 
Q 4550 3538 4550 2338 
Q 4550 1131 3912 565 
Q 3275 0 1925 0 
L 628 0 
L 628 4666 
z
" transform="scale(0.015625)"/>
      <path id="DejaVuSans-74" d="M 1172 4494 
L 1172 3500 
L 2356 3500 
L 2356 3053 
L 1172 3053 
L 1172 1153 
Q 1172 725 1289 603 
Q 1406 481 1766 481 
L 2356 481 
L 2356 0 
L 1766 0 
Q 1100 0 847 248 
Q 594 497 594 1153 
L 594 3053 
L 172 3053 
L 172 3500 
L 594 3500 
L 594 4494 
L 1172 4494 
z
" transform="scale(0.015625)"/>
      <path id="DejaVuSans-63" d="M 3122 3366 
L 3122 2828 
Q 2878 2963 2633 3030 
Q 2388 3097 2138 3097 
Q 1578 3097 1268 2742 
Q 959 2388 959 1747 
Q 959 1106 1268 751 
Q 1578 397 2138 397 
Q 2388 397 2633 464 
Q 2878 531 3122 666 
L 3122 134 
Q 2881 22 2623 -34 
Q 2366 -91 2075 -91 
Q 1284 -91 818 406 
Q 353 903 353 1747 
Q 353 2603 823 3093 
Q 1294 3584 2113 3584 
Q 2378 3584 2631 3529 
Q 2884 3475 3122 3366 
z
" transform="scale(0.015625)"/>
      <path id="DejaVuSans-75" d="M 544 1381 
L 544 3500 
L 1119 3500 
L 1119 1403 
Q 1119 906 1312 657 
Q 1506 409 1894 409 
Q 2359 409 2629 706 
Q 2900 1003 2900 1516 
L 2900 3500 
L 3475 3500 
L 3475 0 
L 2900 0 
L 2900 538 
Q 2691 219 2414 64 
Q 2138 -91 1772 -91 
Q 1169 -91 856 284 
Q 544 659 544 1381 
z
M 1991 3584 
L 1991 3584 
z
" transform="scale(0.015625)"/>
     </defs>
     <use xlink:href="#DejaVuSans-48"/>
     <use xlink:href="#DejaVuSans-65" x="75.195312"/>
     <use xlink:href="#DejaVuSans-61" x="136.71875"/>
     <use xlink:href="#DejaVuSans-64" x="197.998047"/>
     <use xlink:href="#DejaVuSans-69" x="261.474609"/>
     <use xlink:href="#DejaVuSans-6e" x="289.257812"/>
     <use xlink:href="#DejaVuSans-67" x="352.636719"/>
     <use xlink:href="#DejaVuSans-20" x="416.113281"/>
     <use xlink:href="#DejaVuSans-76" x="447.900391"/>
     <use xlink:href="#DejaVuSans-73" x="507.080078"/>
     <use xlink:href="#DejaVuSans-20" x="559.179688"/>
     <use xlink:href="#DejaVuSans-44" x="590.966797"/>
     <use xlink:href="#DejaVuSans-69" x="667.96875"/>
     <use xlink:href="#DejaVuSans-73" x="695.751953"/>
     <use xlink:href="#DejaVuSans-74" x="747.851562"/>
     <use xlink:href="#DejaVuSans-61" x="787.060547"/>
     <use xlink:href="#DejaVuSans-6e" x="848.339844"/>
     <use xlink:href="#DejaVuSans-63" x="911.71875"/>
     <use xlink:href="#DejaVuSans-65" x="966.699219"/>
     <use xlink:href="#DejaVuSans-20" x="1028.222656"/>
     <use xlink:href="#DejaVuSans-61" x="1060.009766"/>
     <use xlink:href="#DejaVuSans-75" x="1121.289062"/>
     <use xlink:href="#DejaVuSans-74" x="1184.667969"/>
    </g>
   </g>
   <g id="legend_1">
    <g id="patch_7">
     <path d="M 258.462188 108.1845 
L 407.72 108.1845 
Q 409.72 108.1845 409.72 106.1845 
L 409.72 48.472 
Q 409.72 46.472 407.72 46.472 
L 258.462188 46.472 
Q 256.462188 46.472 256.462188 48.472 
L 256.462188 106.1845 
Q 256.462188 108.1845 258.462188 108.1845 
z
" style="fill: #ffffff; opacity: 0.8; stroke: #cccccc; stroke-linejoin: miter"/>
    </g>
    <g id="line2d_18">
     <path d="M 260.462188 54.570438 
L 270.462188 54.570438 
L 280.462188 54.570438 
" style="fill: none; stroke: #1f77b4; stroke-width: 1.5; stroke-linecap: square"/>
    </g>
    <g id="text_15">
     <!-- Centreline -->
     <g transform="translate(288.462188 58.070438)scale(0.1 -0.1)">
      <defs>
       <path id="DejaVuSans-43" d="M 4122 4306 
L 4122 3641 
Q 3803 3938 3442 4084 
Q 3081 4231 2675 4231 
Q 1875 4231 1450 3742 
Q 1025 3253 1025 2328 
Q 1025 1406 1450 917 
Q 1875 428 2675 428 
Q 3081 428 3442 575 
Q 3803 722 4122 1019 
L 4122 359 
Q 3791 134 3420 21 
Q 3050 -91 2638 -91 
Q 1578 -91 968 557 
Q 359 1206 359 2328 
Q 359 3453 968 4101 
Q 1578 4750 2638 4750 
Q 3056 4750 3426 4639 
Q 3797 4528 4122 4306 
z
" transform="scale(0.015625)"/>
       <path id="DejaVuSans-72" d="M 2631 2963 
Q 2534 3019 2420 3045 
Q 2306 3072 2169 3072 
Q 1681 3072 1420 2755 
Q 1159 2438 1159 1844 
L 1159 0 
L 581 0 
L 581 3500 
L 1159 3500 
L 1159 2956 
Q 1341 3275 1631 3429 
Q 1922 3584 2338 3584 
Q 2397 3584 2469 3576 
Q 2541 3569 2628 3553 
L 2631 2963 
z
" transform="scale(0.015625)"/>
       <path id="DejaVuSans-6c" d="M 603 4863 
L 1178 4863 
L 1178 0 
L 603 0 
L 603 4863 
z
" transform="scale(0.015625)"/>
      </defs>
      <use xlink:href="#DejaVuSans-43"/>
      <use xlink:href="#DejaVuSans-65" x="69.824219"/>
      <use xlink:href="#DejaVuSans-6e" x="131.347656"/>
      <use xlink:href="#DejaVuSans-74" x="194.726562"/>
      <use xlink:href="#DejaVuSans-72" x="233.935547"/>
      <use xlink:href="#DejaVuSans-65" x="272.798828"/>
      <use xlink:href="#DejaVuSans-6c" x="334.322266"/>
      <use xlink:href="#DejaVuSans-69" x="362.105469"/>
      <use xlink:href="#DejaVuSans-6e" x="389.888672"/>
      <use xlink:href="#DejaVuSans-65" x="453.267578"/>
     </g>
    </g>
    <g id="line2d_19">
     <path d="M 260.462188 69.248563 
L 270.462188 69.248563 
L 280.462188 69.248563 
" style="fill: none; stroke: #ff7f0e; stroke-width: 1.5; stroke-linecap: square"/>
    </g>
    <g id="text_16">
     <!-- Shortest Path -->
     <g transform="translate(288.462188 72.748563)scale(0.1 -0.1)">
      <defs>
       <path id="DejaVuSans-53" d="M 3425 4513 
L 3425 3897 
Q 3066 4069 2747 4153 
Q 2428 4238 2131 4238 
Q 1616 4238 1336 4038 
Q 1056 3838 1056 3469 
Q 1056 3159 1242 3001 
Q 1428 2844 1947 2747 
L 2328 2669 
Q 3034 2534 3370 2195 
Q 3706 1856 3706 1288 
Q 3706 609 3251 259 
Q 2797 -91 1919 -91 
Q 1588 -91 1214 -16 
Q 841 59 441 206 
L 441 856 
Q 825 641 1194 531 
Q 1563 422 1919 422 
Q 2459 422 2753 634 
Q 3047 847 3047 1241 
Q 3047 1584 2836 1778 
Q 2625 1972 2144 2069 
L 1759 2144 
Q 1053 2284 737 2584 
Q 422 2884 422 3419 
Q 422 4038 858 4394 
Q 1294 4750 2059 4750 
Q 2388 4750 2728 4690 
Q 3069 4631 3425 4513 
z
" transform="scale(0.015625)"/>
       <path id="DejaVuSans-68" d="M 3513 2113 
L 3513 0 
L 2938 0 
L 2938 2094 
Q 2938 2591 2744 2837 
Q 2550 3084 2163 3084 
Q 1697 3084 1428 2787 
Q 1159 2491 1159 1978 
L 1159 0 
L 581 0 
L 581 4863 
L 1159 4863 
L 1159 2956 
Q 1366 3272 1645 3428 
Q 1925 3584 2291 3584 
Q 2894 3584 3203 3211 
Q 3513 2838 3513 2113 
z
" transform="scale(0.015625)"/>
       <path id="DejaVuSans-6f" d="M 1959 3097 
Q 1497 3097 1228 2736 
Q 959 2375 959 1747 
Q 959 1119 1226 758 
Q 1494 397 1959 397 
Q 2419 397 2687 759 
Q 2956 1122 2956 1747 
Q 2956 2369 2687 2733 
Q 2419 3097 1959 3097 
z
M 1959 3584 
Q 2709 3584 3137 3096 
Q 3566 2609 3566 1747 
Q 3566 888 3137 398 
Q 2709 -91 1959 -91 
Q 1206 -91 779 398 
Q 353 888 353 1747 
Q 353 2609 779 3096 
Q 1206 3584 1959 3584 
z
" transform="scale(0.015625)"/>
       <path id="DejaVuSans-50" d="M 1259 4147 
L 1259 2394 
L 2053 2394 
Q 2494 2394 2734 2622 
Q 2975 2850 2975 3272 
Q 2975 3691 2734 3919 
Q 2494 4147 2053 4147 
L 1259 4147 
z
M 628 4666 
L 2053 4666 
Q 2838 4666 3239 4311 
Q 3641 3956 3641 3272 
Q 3641 2581 3239 2228 
Q 2838 1875 2053 1875 
L 1259 1875 
L 1259 0 
L 628 0 
L 628 4666 
z
" transform="scale(0.015625)"/>
      </defs>
      <use xlink:href="#DejaVuSans-53"/>
      <use xlink:href="#DejaVuSans-68" x="63.476562"/>
      <use xlink:href="#DejaVuSans-6f" x="126.855469"/>
      <use xlink:href="#DejaVuSans-72" x="188.037109"/>
      <use xlink:href="#DejaVuSans-74" x="229.150391"/>
      <use xlink:href="#DejaVuSans-65" x="268.359375"/>
      <use xlink:href="#DejaVuSans-73" x="329.882812"/>
      <use xlink:href="#DejaVuSans-74" x="381.982422"/>
      <use xlink:href="#DejaVuSans-20" x="421.191406"/>
      <use xlink:href="#DejaVuSans-50" x="452.978516"/>
      <use xlink:href="#DejaVuSans-61" x="508.78125"/>
      <use xlink:href="#DejaVuSans-74" x="570.060547"/>
      <use xlink:href="#DejaVuSans-68" x="609.269531"/>
     </g>
    </g>
    <g id="line2d_20">
     <path d="M 260.462188 83.926688 
L 270.462188 83.926688 
L 280.462188 83.926688 
" style="fill: none; stroke: #2ca02c; stroke-width: 1.5; stroke-linecap: square"/>
    </g>
    <g id="text_17">
     <!-- Minimum Curvature (C) -->
     <g transform="translate(288.462188 87.426688)scale(0.1 -0.1)">
      <defs>
       <path id="DejaVuSans-4d" d="M 628 4666 
L 1569 4666 
L 2759 1491 
L 3956 4666 
L 4897 4666 
L 4897 0 
L 4281 0 
L 4281 4097 
L 3078 897 
L 2444 897 
L 1241 4097 
L 1241 0 
L 628 0 
L 628 4666 
z
" transform="scale(0.015625)"/>
       <path id="DejaVuSans-6d" d="M 3328 2828 
Q 3544 3216 3844 3400 
Q 4144 3584 4550 3584 
Q 5097 3584 5394 3201 
Q 5691 2819 5691 2113 
L 5691 0 
L 5113 0 
L 5113 2094 
Q 5113 2597 4934 2840 
Q 4756 3084 4391 3084 
Q 3944 3084 3684 2787 
Q 3425 2491 3425 1978 
L 3425 0 
L 2847 0 
L 2847 2094 
Q 2847 2600 2669 2842 
Q 2491 3084 2119 3084 
Q 1678 3084 1418 2786 
Q 1159 2488 1159 1978 
L 1159 0 
L 581 0 
L 581 3500 
L 1159 3500 
L 1159 2956 
Q 1356 3278 1631 3431 
Q 1906 3584 2284 3584 
Q 2666 3584 2933 3390 
Q 3200 3197 3328 2828 
z
" transform="scale(0.015625)"/>
       <path id="DejaVuSans-28" d="M 1984 4856 
Q 1566 4138 1362 3434 
Q 1159 2731 1159 2009 
Q 1159 1288 1364 580 
Q 1569 -128 1984 -844 
L 1484 -844 
Q 1016 -109 783 600 
Q 550 1309 550 2009 
Q 550 2706 781 3412 
Q 1013 4119 1484 4856 
L 1984 4856 
z
" transform="scale(0.015625)"/>
       <path id="DejaVuSans-29" d="M 513 4856 
L 1013 4856 
Q 1481 4119 1714 3412 
Q 1947 2706 1947 2009 
Q 1947 1309 1714 600 
Q 1481 -109 1013 -844 
L 513 -844 
Q 928 -128 1133 580 
Q 1338 1288 1338 2009 
Q 1338 2731 1133 3434 
Q 928 4138 513 4856 
z
" transform="scale(0.015625)"/>
      </defs>
      <use xlink:href="#DejaVuSans-4d"/>
      <use xlink:href="#DejaVuSans-69" x="86.279297"/>
      <use xlink:href="#DejaVuSans-6e" x="114.0625"/>
      <use xlink:href="#DejaVuSans-69" x="177.441406"/>
      <use xlink:href="#DejaVuSans-6d" x="205.224609"/>
      <use xlink:href="#DejaVuSans-75" x="302.636719"/>
      <use xlink:href="#DejaVuSans-6d" x="366.015625"/>
      <use xlink:href="#DejaVuSans-20" x="463.427734"/>
      <use xlink:href="#DejaVuSans-43" x="495.214844"/>
      <use xlink:href="#DejaVuSans-75" x="565.039062"/>
      <use xlink:href="#DejaVuSans-72" x="628.417969"/>
      <use xlink:href="#DejaVuSans-76" x="669.53125"/>
      <use xlink:href="#DejaVuSans-61" x="728.710938"/>
      <use xlink:href="#DejaVuSans-74" x="789.990234"/>
      <use xlink:href="#DejaVuSans-75" x="829.199219"/>
      <use xlink:href="#DejaVuSans-72" x="892.578125"/>
      <use xlink:href="#DejaVuSans-65" x="931.441406"/>
      <use xlink:href="#DejaVuSans-20" x="992.964844"/>
      <use xlink:href="#DejaVuSans-28" x="1024.751953"/>
      <use xlink:href="#DejaVuSans-43" x="1063.765625"/>
      <use xlink:href="#DejaVuSans-29" x="1133.589844"/>
     </g>
    </g>
    <g id="line2d_21">
     <path d="M 260.462188 98.604813 
L 270.462188 98.604813 
L 280.462188 98.604813 
" style="fill: none; stroke: #d62728; stroke-width: 1.5; stroke-linecap: square"/>
    </g>
    <g id="text_18">
     <!-- Minimum Curvature (S) -->
     <g transform="translate(288.462188 102.104813)scale(0.1 -0.1)">
      <use xlink:href="#DejaVuSans-4d"/>
      <use xlink:href="#DejaVuSans-69" x="86.279297"/>
      <use xlink:href="#DejaVuSans-6e" x="114.0625"/>
      <use xlink:href="#DejaVuSans-69" x="177.441406"/>
      <use xlink:href="#DejaVuSans-6d" x="205.224609"/>
      <use xlink:href="#DejaVuSans-75" x="302.636719"/>
      <use xlink:href="#DejaVuSans-6d" x="366.015625"/>
      <use xlink:href="#DejaVuSans-20" x="463.427734"/>
      <use xlink:href="#DejaVuSans-43" x="495.214844"/>
      <use xlink:href="#DejaVuSans-75" x="565.039062"/>
      <use xlink:href="#DejaVuSans-72" x="628.417969"/>
      <use xlink:href="#DejaVuSans-76" x="669.53125"/>
      <use xlink:href="#DejaVuSans-61" x="728.710938"/>
      <use xlink:href="#DejaVuSans-74" x="789.990234"/>
      <use xlink:href="#DejaVuSans-75" x="829.199219"/>
      <use xlink:href="#DejaVuSans-72" x="892.578125"/>
      <use xlink:href="#DejaVuSans-65" x="931.441406"/>
      <use xlink:href="#DejaVuSans-20" x="992.964844"/>
      <use xlink:href="#DejaVuSans-28" x="1024.751953"/>
      <use xlink:href="#DejaVuSans-53" x="1063.765625"/>
      <use xlink:href="#DejaVuSans-29" x="1127.242188"/>
     </g>
    </g>
   </g>
  </g>
 </g>
 <defs>
  <clipPath id="p7e607635e4">
   <rect x="57.6" y="41.472" width="357.12" height="266.112"/>
  </clipPath>
 </defs>
</svg>
