<?xml version="1.0" encoding="utf-8" standalone="no"?>
<!DOCTYPE svg PUBLIC "-//W3C//DTD SVG 1.1//EN"
  "http://www.w3.org/Graphics/SVG/1.1/DTD/svg11.dtd">
<!-- Created with matplotlib (https://matplotlib.org/) -->
<svg height="345.6pt" version="1.1" viewBox="0 0 460.8 345.6" width="460.8pt" xmlns="http://www.w3.org/2000/svg" xmlns:xlink="http://www.w3.org/1999/xlink">
 <metadata>
  <rdf:RDF xmlns:cc="http://creativecommons.org/ns#" xmlns:dc="http://purl.org/dc/elements/1.1/" xmlns:rdf="http://www.w3.org/1999/02/22-rdf-syntax-ns#">
   <cc:Work>
    <dc:type rdf:resource="http://purl.org/dc/dcmitype/StillImage"/>
    <dc:date>2024-09-30T13:42:30.422745</dc:date>
    <dc:format>image/svg+xml</dc:format>
    <dc:creator>
     <cc:Agent>
      <dc:title>Matplotlib v3.3.1, https://matplotlib.org/</dc:title>
     </cc:Agent>
    </dc:creator>
   </cc:Work>
  </rdf:RDF>
 </metadata>
 <defs>
  <style type="text/css">*{stroke-linecap:butt;stroke-linejoin:round;}</style>
 </defs>
 <g id="figure_1">
  <g id="patch_1">
   <path d="M 0 345.6 
L 460.8 345.6 
L 460.8 0 
L 0 0 
z
" style="fill:#ffffff;"/>
  </g>
  <g id="axes_1">
   <g id="patch_2">
    <path d="M 57.6 307.584 
L 414.72 307.584 
L 414.72 41.472 
L 57.6 41.472 
z
" style="fill:#ffffff;"/>
   </g>
   <g id="matplotlib.axis_1">
    <g id="xtick_1">
     <g id="line2d_1">
      <defs>
       <path d="M 0 0 
L 0 3.5 
" id="m810115cd6e" style="stroke:#000000;stroke-width:0.8;"/>
      </defs>
      <g>
       <use style="stroke:#000000;stroke-width:0.8;" x="73.832727" xlink:href="#m810115cd6e" y="307.584"/>
      </g>
     </g>
     <g id="text_1">
      <!-- 0.0 -->
      <g transform="translate(65.881165 322.182437)scale(0.1 -0.1)">
       <defs>
        <path d="M 31.78125 66.40625 
Q 24.171875 66.40625 20.328125 58.90625 
Q 16.5 51.421875 16.5 36.375 
Q 16.5 21.390625 20.328125 13.890625 
Q 24.171875 6.390625 31.78125 6.390625 
Q 39.453125 6.390625 43.28125 13.890625 
Q 47.125 21.390625 47.125 36.375 
Q 47.125 51.421875 43.28125 58.90625 
Q 39.453125 66.40625 31.78125 66.40625 
z
M 31.78125 74.21875 
Q 44.046875 74.21875 50.515625 64.515625 
Q 56.984375 54.828125 56.984375 36.375 
Q 56.984375 17.96875 50.515625 8.265625 
Q 44.046875 -1.421875 31.78125 -1.421875 
Q 19.53125 -1.421875 13.0625 8.265625 
Q 6.59375 17.96875 6.59375 36.375 
Q 6.59375 54.828125 13.0625 64.515625 
Q 19.53125 74.21875 31.78125 74.21875 
z
" id="DejaVuSans-48"/>
        <path d="M 10.6875 12.40625 
L 21 12.40625 
L 21 0 
L 10.6875 0 
z
" id="DejaVuSans-46"/>
       </defs>
       <use xlink:href="#DejaVuSans-48"/>
       <use x="63.623047" xlink:href="#DejaVuSans-46"/>
       <use x="95.410156" xlink:href="#DejaVuSans-48"/>
      </g>
     </g>
    </g>
    <g id="xtick_2">
     <g id="line2d_2">
      <g>
       <use style="stroke:#000000;stroke-width:0.8;" x="138.763636" xlink:href="#m810115cd6e" y="307.584"/>
      </g>
     </g>
     <g id="text_2">
      <!-- 0.2 -->
      <g transform="translate(130.812074 322.182437)scale(0.1 -0.1)">
       <defs>
        <path d="M 19.1875 8.296875 
L 53.609375 8.296875 
L 53.609375 0 
L 7.328125 0 
L 7.328125 8.296875 
Q 12.9375 14.109375 22.625 23.890625 
Q 32.328125 33.6875 34.8125 36.53125 
Q 39.546875 41.84375 41.421875 45.53125 
Q 43.3125 49.21875 43.3125 52.78125 
Q 43.3125 58.59375 39.234375 62.25 
Q 35.15625 65.921875 28.609375 65.921875 
Q 23.96875 65.921875 18.8125 64.3125 
Q 13.671875 62.703125 7.8125 59.421875 
L 7.8125 69.390625 
Q 13.765625 71.78125 18.9375 73 
Q 24.125 74.21875 28.421875 74.21875 
Q 39.75 74.21875 46.484375 68.546875 
Q 53.21875 62.890625 53.21875 53.421875 
Q 53.21875 48.921875 51.53125 44.890625 
Q 49.859375 40.875 45.40625 35.40625 
Q 44.1875 33.984375 37.640625 27.21875 
Q 31.109375 20.453125 19.1875 8.296875 
z
" id="DejaVuSans-50"/>
       </defs>
       <use xlink:href="#DejaVuSans-48"/>
       <use x="63.623047" xlink:href="#DejaVuSans-46"/>
       <use x="95.410156" xlink:href="#DejaVuSans-50"/>
      </g>
     </g>
    </g>
    <g id="xtick_3">
     <g id="line2d_3">
      <g>
       <use style="stroke:#000000;stroke-width:0.8;" x="203.694545" xlink:href="#m810115cd6e" y="307.584"/>
      </g>
     </g>
     <g id="text_3">
      <!-- 0.4 -->
      <g transform="translate(195.742983 322.182437)scale(0.1 -0.1)">
       <defs>
        <path d="M 37.796875 64.3125 
L 12.890625 25.390625 
L 37.796875 25.390625 
z
M 35.203125 72.90625 
L 47.609375 72.90625 
L 47.609375 25.390625 
L 58.015625 25.390625 
L 58.015625 17.1875 
L 47.609375 17.1875 
L 47.609375 0 
L 37.796875 0 
L 37.796875 17.1875 
L 4.890625 17.1875 
L 4.890625 26.703125 
z
" id="DejaVuSans-52"/>
       </defs>
       <use xlink:href="#DejaVuSans-48"/>
       <use x="63.623047" xlink:href="#DejaVuSans-46"/>
       <use x="95.410156" xlink:href="#DejaVuSans-52"/>
      </g>
     </g>
    </g>
    <g id="xtick_4">
     <g id="line2d_4">
      <g>
       <use style="stroke:#000000;stroke-width:0.8;" x="268.625455" xlink:href="#m810115cd6e" y="307.584"/>
      </g>
     </g>
     <g id="text_4">
      <!-- 0.6 -->
      <g transform="translate(260.673892 322.182437)scale(0.1 -0.1)">
       <defs>
        <path d="M 33.015625 40.375 
Q 26.375 40.375 22.484375 35.828125 
Q 18.609375 31.296875 18.609375 23.390625 
Q 18.609375 15.53125 22.484375 10.953125 
Q 26.375 6.390625 33.015625 6.390625 
Q 39.65625 6.390625 43.53125 10.953125 
Q 47.40625 15.53125 47.40625 23.390625 
Q 47.40625 31.296875 43.53125 35.828125 
Q 39.65625 40.375 33.015625 40.375 
z
M 52.59375 71.296875 
L 52.59375 62.3125 
Q 48.875 64.0625 45.09375 64.984375 
Q 41.3125 65.921875 37.59375 65.921875 
Q 27.828125 65.921875 22.671875 59.328125 
Q 17.53125 52.734375 16.796875 39.40625 
Q 19.671875 43.65625 24.015625 45.921875 
Q 28.375 48.1875 33.59375 48.1875 
Q 44.578125 48.1875 50.953125 41.515625 
Q 57.328125 34.859375 57.328125 23.390625 
Q 57.328125 12.15625 50.6875 5.359375 
Q 44.046875 -1.421875 33.015625 -1.421875 
Q 20.359375 -1.421875 13.671875 8.265625 
Q 6.984375 17.96875 6.984375 36.375 
Q 6.984375 53.65625 15.1875 63.9375 
Q 23.390625 74.21875 37.203125 74.21875 
Q 40.921875 74.21875 44.703125 73.484375 
Q 48.484375 72.75 52.59375 71.296875 
z
" id="DejaVuSans-54"/>
       </defs>
       <use xlink:href="#DejaVuSans-48"/>
       <use x="63.623047" xlink:href="#DejaVuSans-46"/>
       <use x="95.410156" xlink:href="#DejaVuSans-54"/>
      </g>
     </g>
    </g>
    <g id="xtick_5">
     <g id="line2d_5">
      <g>
       <use style="stroke:#000000;stroke-width:0.8;" x="333.556364" xlink:href="#m810115cd6e" y="307.584"/>
      </g>
     </g>
     <g id="text_5">
      <!-- 0.8 -->
      <g transform="translate(325.604801 322.182437)scale(0.1 -0.1)">
       <defs>
        <path d="M 31.78125 34.625 
Q 24.75 34.625 20.71875 30.859375 
Q 16.703125 27.09375 16.703125 20.515625 
Q 16.703125 13.921875 20.71875 10.15625 
Q 24.75 6.390625 31.78125 6.390625 
Q 38.8125 6.390625 42.859375 10.171875 
Q 46.921875 13.96875 46.921875 20.515625 
Q 46.921875 27.09375 42.890625 30.859375 
Q 38.875 34.625 31.78125 34.625 
z
M 21.921875 38.8125 
Q 15.578125 40.375 12.03125 44.71875 
Q 8.5 49.078125 8.5 55.328125 
Q 8.5 64.0625 14.71875 69.140625 
Q 20.953125 74.21875 31.78125 74.21875 
Q 42.671875 74.21875 48.875 69.140625 
Q 55.078125 64.0625 55.078125 55.328125 
Q 55.078125 49.078125 51.53125 44.71875 
Q 48 40.375 41.703125 38.8125 
Q 48.828125 37.15625 52.796875 32.3125 
Q 56.78125 27.484375 56.78125 20.515625 
Q 56.78125 9.90625 50.3125 4.234375 
Q 43.84375 -1.421875 31.78125 -1.421875 
Q 19.734375 -1.421875 13.25 4.234375 
Q 6.78125 9.90625 6.78125 20.515625 
Q 6.78125 27.484375 10.78125 32.3125 
Q 14.796875 37.15625 21.921875 38.8125 
z
M 18.3125 54.390625 
Q 18.3125 48.734375 21.84375 45.5625 
Q 25.390625 42.390625 31.78125 42.390625 
Q 38.140625 42.390625 41.71875 45.5625 
Q 45.3125 48.734375 45.3125 54.390625 
Q 45.3125 60.0625 41.71875 63.234375 
Q 38.140625 66.40625 31.78125 66.40625 
Q 25.390625 66.40625 21.84375 63.234375 
Q 18.3125 60.0625 18.3125 54.390625 
z
" id="DejaVuSans-56"/>
       </defs>
       <use xlink:href="#DejaVuSans-48"/>
       <use x="63.623047" xlink:href="#DejaVuSans-46"/>
       <use x="95.410156" xlink:href="#DejaVuSans-56"/>
      </g>
     </g>
    </g>
    <g id="xtick_6">
     <g id="line2d_6">
      <g>
       <use style="stroke:#000000;stroke-width:0.8;" x="398.487273" xlink:href="#m810115cd6e" y="307.584"/>
      </g>
     </g>
     <g id="text_6">
      <!-- 1.0 -->
      <g transform="translate(390.53571 322.182437)scale(0.1 -0.1)">
       <defs>
        <path d="M 12.40625 8.296875 
L 28.515625 8.296875 
L 28.515625 63.921875 
L 10.984375 60.40625 
L 10.984375 69.390625 
L 28.421875 72.90625 
L 38.28125 72.90625 
L 38.28125 8.296875 
L 54.390625 8.296875 
L 54.390625 0 
L 12.40625 0 
z
" id="DejaVuSans-49"/>
       </defs>
       <use xlink:href="#DejaVuSans-49"/>
       <use x="63.623047" xlink:href="#DejaVuSans-46"/>
       <use x="95.410156" xlink:href="#DejaVuSans-48"/>
      </g>
     </g>
    </g>
   </g>
   <g id="matplotlib.axis_2">
    <g id="ytick_1">
     <g id="line2d_7">
      <defs>
       <path d="M 0 0 
L -3.5 0 
" id="meae060013c" style="stroke:#000000;stroke-width:0.8;"/>
      </defs>
      <g>
       <use style="stroke:#000000;stroke-width:0.8;" x="57.6" xlink:href="#meae060013c" y="290.065447"/>
      </g>
     </g>
     <g id="text_7">
      <!-- −3 -->
      <g transform="translate(35.857813 293.864666)scale(0.1 -0.1)">
       <defs>
        <path d="M 10.59375 35.5 
L 73.1875 35.5 
L 73.1875 27.203125 
L 10.59375 27.203125 
z
" id="DejaVuSans-8722"/>
        <path d="M 40.578125 39.3125 
Q 47.65625 37.796875 51.625 33 
Q 55.609375 28.21875 55.609375 21.1875 
Q 55.609375 10.40625 48.1875 4.484375 
Q 40.765625 -1.421875 27.09375 -1.421875 
Q 22.515625 -1.421875 17.65625 -0.515625 
Q 12.796875 0.390625 7.625 2.203125 
L 7.625 11.71875 
Q 11.71875 9.328125 16.59375 8.109375 
Q 21.484375 6.890625 26.8125 6.890625 
Q 36.078125 6.890625 40.9375 10.546875 
Q 45.796875 14.203125 45.796875 21.1875 
Q 45.796875 27.640625 41.28125 31.265625 
Q 36.765625 34.90625 28.71875 34.90625 
L 20.21875 34.90625 
L 20.21875 43.015625 
L 29.109375 43.015625 
Q 36.375 43.015625 40.234375 45.921875 
Q 44.09375 48.828125 44.09375 54.296875 
Q 44.09375 59.90625 40.109375 62.90625 
Q 36.140625 65.921875 28.71875 65.921875 
Q 24.65625 65.921875 20.015625 65.03125 
Q 15.375 64.15625 9.8125 62.3125 
L 9.8125 71.09375 
Q 15.4375 72.65625 20.34375 73.4375 
Q 25.25 74.21875 29.59375 74.21875 
Q 40.828125 74.21875 47.359375 69.109375 
Q 53.90625 64.015625 53.90625 55.328125 
Q 53.90625 49.265625 50.4375 45.09375 
Q 46.96875 40.921875 40.578125 39.3125 
z
" id="DejaVuSans-51"/>
       </defs>
       <use xlink:href="#DejaVuSans-8722"/>
       <use x="83.789062" xlink:href="#DejaVuSans-51"/>
      </g>
     </g>
    </g>
    <g id="ytick_2">
     <g id="line2d_8">
      <g>
       <use style="stroke:#000000;stroke-width:0.8;" x="57.6" xlink:href="#meae060013c" y="251.552977"/>
      </g>
     </g>
     <g id="text_8">
      <!-- −2 -->
      <g transform="translate(35.857813 255.352196)scale(0.1 -0.1)">
       <use xlink:href="#DejaVuSans-8722"/>
       <use x="83.789062" xlink:href="#DejaVuSans-50"/>
      </g>
     </g>
    </g>
    <g id="ytick_3">
     <g id="line2d_9">
      <g>
       <use style="stroke:#000000;stroke-width:0.8;" x="57.6" xlink:href="#meae060013c" y="213.040507"/>
      </g>
     </g>
     <g id="text_9">
      <!-- −1 -->
      <g transform="translate(35.857813 216.839725)scale(0.1 -0.1)">
       <use xlink:href="#DejaVuSans-8722"/>
       <use x="83.789062" xlink:href="#DejaVuSans-49"/>
      </g>
     </g>
    </g>
    <g id="ytick_4">
     <g id="line2d_10">
      <g>
       <use style="stroke:#000000;stroke-width:0.8;" x="57.6" xlink:href="#meae060013c" y="174.528036"/>
      </g>
     </g>
     <g id="text_10">
      <!-- 0 -->
      <g transform="translate(44.2375 178.327255)scale(0.1 -0.1)">
       <use xlink:href="#DejaVuSans-48"/>
      </g>
     </g>
    </g>
    <g id="ytick_5">
     <g id="line2d_11">
      <g>
       <use style="stroke:#000000;stroke-width:0.8;" x="57.6" xlink:href="#meae060013c" y="136.015566"/>
      </g>
     </g>
     <g id="text_11">
      <!-- 1 -->
      <g transform="translate(44.2375 139.814785)scale(0.1 -0.1)">
       <use xlink:href="#DejaVuSans-49"/>
      </g>
     </g>
    </g>
    <g id="ytick_6">
     <g id="line2d_12">
      <g>
       <use style="stroke:#000000;stroke-width:0.8;" x="57.6" xlink:href="#meae060013c" y="97.503096"/>
      </g>
     </g>
     <g id="text_12">
      <!-- 2 -->
      <g transform="translate(44.2375 101.302315)scale(0.1 -0.1)">
       <use xlink:href="#DejaVuSans-50"/>
      </g>
     </g>
    </g>
    <g id="ytick_7">
     <g id="line2d_13">
      <g>
       <use style="stroke:#000000;stroke-width:0.8;" x="57.6" xlink:href="#meae060013c" y="58.990626"/>
      </g>
     </g>
     <g id="text_13">
      <!-- 3 -->
      <g transform="translate(44.2375 62.789844)scale(0.1 -0.1)">
       <use xlink:href="#DejaVuSans-51"/>
      </g>
     </g>
    </g>
   </g>
   <g id="line2d_14">
    <path clip-path="url(#p3878b9cbb8)" d="M 73.832727 174.673596 
L 105.196883 174.569675 
L 105.541495 175.836301 
L 105.886219 177.630686 
L 106.230781 180.302121 
L 106.920162 186.940029 
L 107.264815 188.922894 
L 107.609546 193.22894 
L 107.953765 201.661784 
L 108.988135 217.306917 
L 109.332597 217.192533 
L 110.021924 219.26242 
L 110.366556 219.758971 
L 110.711254 220.794426 
L 111.055899 221.324113 
L 111.400573 222.128211 
L 111.745226 222.566104 
L 112.089906 222.653927 
L 112.434497 221.223752 
L 112.779197 220.496323 
L 113.123866 220.747691 
L 113.46852 219.973783 
L 113.813161 220.255418 
L 114.157826 220.37109 
L 114.84715 219.140365 
L 115.191779 219.718842 
L 115.536477 220.732848 
L 115.881116 221.256354 
L 116.225754 220.943029 
L 116.915072 219.592611 
L 117.259713 219.949066 
L 117.949036 222.184012 
L 118.293735 222.094318 
L 118.638365 220.19322 
L 118.983041 219.358103 
L 119.327696 219.378495 
L 119.672357 219.521047 
L 120.016976 218.834446 
L 120.361668 218.447179 
L 120.706338 219.063323 
L 121.050983 218.622601 
L 121.395624 219.034995 
L 121.740313 219.674163 
L 122.08497 219.329427 
L 122.42961 219.75367 
L 122.774258 219.644299 
L 123.118918 219.817522 
L 123.463602 220.528293 
L 123.808263 220.24591 
L 124.497564 222.440275 
L 124.84226 222.61584 
L 125.186802 224.619416 
L 125.531537 225.8923 
L 125.876152 226.312523 
L 126.220854 225.976325 
L 126.565486 224.117174 
L 127.254817 224.191776 
L 127.599477 223.025105 
L 127.944057 224.221775 
L 128.288801 226.164316 
L 128.633431 226.34567 
L 128.978099 226.311266 
L 129.322766 226.85325 
L 129.667419 227.649145 
L 130.356714 226.214528 
L 130.701365 226.291725 
L 131.046009 226.56343 
L 131.39067 226.184295 
L 131.735359 225.050099 
L 132.079971 225.542296 
L 132.42464 225.760929 
L 133.113957 225.531912 
L 133.803281 228.068227 
L 134.147912 227.68007 
L 134.492584 227.461149 
L 134.837233 227.853466 
L 135.181928 227.946661 
L 135.526487 226.591822 
L 135.871176 226.081758 
L 136.215847 226.439107 
L 136.560462 227.037697 
L 136.905161 227.110971 
L 137.24982 226.009498 
L 137.939119 226.671014 
L 138.283744 227.038545 
L 138.628379 226.694006 
L 138.973085 226.009272 
L 139.662398 226.752596 
L 140.007066 226.871853 
L 140.351663 226.093206 
L 140.696334 225.85654 
L 141.041 226.11838 
L 141.730316 226.345703 
L 142.074922 226.969028 
L 142.419616 226.999639 
L 142.764289 226.012044 
L 143.798217 226.977003 
L 144.487542 225.874159 
L 144.832197 226.272856 
L 145.176857 226.457443 
L 145.521527 226.40516 
L 145.866165 225.875205 
L 146.555456 226.235462 
L 146.900111 226.180742 
L 147.244742 225.907068 
L 147.58942 226.059073 
L 147.934097 227.021143 
L 148.968021 226.166056 
L 149.657343 227.208263 
L 150.002 226.601075 
L 150.346661 226.331035 
L 150.691319 226.416651 
L 151.380652 225.889122 
L 151.72527 226.428928 
L 152.069912 226.435585 
L 152.414576 226.260091 
L 153.103892 225.093776 
L 153.448558 225.392476 
L 154.137879 224.056473 
L 154.827246 219.271668 
L 155.51655 223.491779 
L 156.895054 218.328375 
L 157.239701 218.012791 
L 157.584277 218.805995 
L 157.928994 218.806695 
L 158.273645 217.255719 
L 158.618297 216.705563 
L 158.963019 217.620186 
L 159.652293 222.115202 
L 159.996973 220.928752 
L 160.341525 218.455839 
L 160.686158 218.118382 
L 161.030883 218.889091 
L 161.375404 220.008403 
L 161.720179 220.166541 
L 162.064771 218.323764 
L 162.409459 217.437037 
L 162.754135 217.581887 
L 163.098707 218.545511 
L 163.443482 218.394695 
L 163.787992 215.965638 
L 164.132755 214.367897 
L 164.477362 214.110983 
L 164.822098 215.256286 
L 165.16662 217.601313 
L 165.511321 218.312354 
L 165.85594 218.575623 
L 166.200664 218.553683 
L 166.545261 217.18217 
L 166.889931 216.743132 
L 167.234618 217.11714 
L 167.579182 218.182501 
L 167.923969 218.330506 
L 168.613231 214.700437 
L 168.95784 214.419159 
L 169.302552 215.323587 
L 169.647128 217.23407 
L 169.991832 217.042618 
L 170.336481 215.586426 
L 170.681082 215.735698 
L 171.025791 216.320119 
L 171.370344 217.227613 
L 171.715089 217.311145 
L 172.059699 215.631507 
L 172.404396 214.84337 
L 172.74903 215.831044 
L 173.78302 224.12339 
L 174.127693 224.099779 
L 174.472241 225.204992 
L 174.816924 225.614819 
L 175.161545 225.622805 
L 175.506232 225.932285 
L 176.195527 229.089537 
L 176.540172 229.523358 
L 176.884777 230.789251 
L 177.229339 230.202417 
L 177.575045 230.406757 
L 177.917435 242.730828 
L 178.260628 261.461099 
L 178.606749 272.347929 
L 178.95026 276.57666 
L 179.297445 283.601745 
L 179.636042 295.123734 
L 179.984102 56.94683 
L 180.327943 54.419583 
L 180.672942 54.940031 
L 181.017326 57.529836 
L 181.362109 58.717922 
L 182.051337 55.907057 
L 182.395976 57.09474 
L 182.740666 59.635249 
L 183.085357 60.300828 
L 183.429949 59.615455 
L 183.774614 59.595386 
L 184.463901 61.287814 
L 184.808631 60.906123 
L 185.153251 60.043685 
L 185.842474 61.004992 
L 186.187091 61.042366 
L 186.531637 60.445028 
L 186.87637 60.637354 
L 187.221006 61.739232 
L 187.565662 61.820221 
L 187.910312 61.404047 
L 188.255053 61.704042 
L 188.59938 63.427734 
L 188.944204 64.473729 
L 189.288814 64.384189 
L 189.978105 64.620911 
L 190.322766 64.917001 
L 191.012054 68.696662 
L 191.701297 69.259161 
L 192.390605 70.294866 
L 192.735254 70.215964 
L 193.42452 67.466167 
L 193.769159 67.741339 
L 194.113857 68.370717 
L 194.458518 67.937748 
L 194.803181 67.721864 
L 195.492472 69.61198 
L 195.837124 69.591463 
L 196.181762 69.229232 
L 196.526421 69.196118 
L 196.87108 69.288629 
L 197.215746 68.925126 
L 197.560423 68.908102 
L 198.249706 72.000435 
L 198.594307 72.581049 
L 198.938946 72.557243 
L 199.28357 72.64534 
L 199.62816 72.480317 
L 199.97291 71.675413 
L 200.31732 69.816791 
L 200.66214 68.70382 
L 201.351419 70.424143 
L 201.696072 70.56907 
L 202.385383 70.465032 
L 203.074666 70.572313 
L 203.419275 70.983787 
L 203.763915 70.988427 
L 204.108707 69.496346 
L 204.453116 67.053215 
L 204.79793 65.868513 
L 205.142525 66.401469 
L 205.487243 67.608235 
L 206.176523 71.440862 
L 206.521182 72.008528 
L 206.865845 71.931803 
L 207.210502 71.664589 
L 207.555157 71.732571 
L 207.899857 71.392416 
L 208.244426 69.682408 
L 208.58917 68.754646 
L 208.933728 69.321219 
L 209.278426 68.857876 
L 209.623074 67.918079 
L 209.967721 68.108543 
L 210.312404 68.827271 
L 210.657044 69.2263 
L 211.346338 69.339143 
L 212.380209 69.236715 
L 212.724888 68.846833 
L 213.069348 66.909777 
L 213.414249 65.968178 
L 213.758598 67.558301 
L 214.103393 68.088408 
L 215.137367 66.847593 
L 215.826598 67.66842 
L 216.171154 67.942572 
L 216.860521 65.434134 
L 217.549806 67.615615 
L 217.894404 67.154728 
L 218.239086 67.139701 
L 218.583727 67.72515 
L 218.928492 67.324524 
L 219.272868 65.567247 
L 219.617768 65.769753 
L 219.962248 67.186571 
L 220.30688 67.210097 
L 220.651513 67.045025 
L 221.34074 67.713298 
L 222.030087 65.948326 
L 222.719378 67.085577 
L 223.06403 67.004089 
L 223.408702 67.105627 
L 223.753327 67.776031 
L 224.098046 67.615507 
L 224.442652 67.101076 
L 224.787248 67.179461 
L 225.476581 64.562485 
L 225.821168 64.808774 
L 226.165829 64.868843 
L 226.510476 64.519713 
L 226.855191 64.856439 
L 227.19958 66.171611 
L 227.544326 66.647273 
L 227.888973 66.283511 
L 228.233624 66.2161 
L 228.578254 67.021353 
L 228.922995 67.149686 
L 229.267527 66.395217 
L 229.612169 66.31064 
L 229.956812 66.605968 
L 230.30145 66.529866 
L 230.645904 65.237904 
L 230.990686 64.549518 
L 231.33531 64.987793 
L 231.679993 65.01949 
L 232.024607 64.751412 
L 232.369417 65.799658 
L 232.713845 67.271043 
L 233.058488 67.321211 
L 233.403122 67.073453 
L 233.747813 67.494109 
L 234.092318 68.288025 
L 234.436976 68.04307 
L 234.781722 68.249969 
L 235.126282 69.315981 
L 235.47091 69.803284 
L 236.15995 74.126423 
L 236.505723 78.021526 
L 237.193526 92.679699 
L 238.227661 106.081684 
L 238.570986 107.466642 
L 238.917934 112.0189 
L 239.257422 120.997247 
L 239.604794 125.000629 
L 239.948655 124.856946 
L 240.637754 127.596284 
L 240.984196 131.725826 
L 241.325364 139.205461 
L 241.671627 142.442074 
L 242.015759 143.093491 
L 243.049857 148.432898 
L 243.739119 147.416271 
L 244.083642 149.160496 
L 244.428411 150.297518 
L 244.773106 150.905397 
L 245.117512 153.04857 
L 245.807123 156.319208 
L 246.151385 158.84836 
L 246.496194 159.733782 
L 246.840801 159.62513 
L 247.185468 159.726182 
L 247.530063 159.965062 
L 247.874759 160.728781 
L 248.564018 165.494433 
L 248.908587 165.513703 
L 249.597927 167.826224 
L 249.942529 168.01173 
L 250.287371 169.561654 
L 250.63174 172.037274 
L 250.976499 172.506954 
L 251.321285 173.206247 
L 251.665692 174.633523 
L 252.355025 174.363256 
L 252.699686 174.568536 
L 253.389009 174.496399 
L 253.733668 174.773106 
L 254.422936 174.066714 
L 254.7674 175.823857 
L 255.112215 176.475379 
L 255.456924 176.826926 
L 255.801221 178.990692 
L 256.146072 180.379184 
L 256.490647 180.731461 
L 258.558535 186.680084 
L 259.592516 188.305518 
L 259.93711 186.927322 
L 260.281846 186.27202 
L 260.626462 186.345892 
L 260.971079 186.279626 
L 261.315641 187.197007 
L 261.660324 187.425034 
L 262.005135 188.309067 
L 262.349488 190.277567 
L 262.694273 191.228809 
L 263.728167 191.178401 
L 264.072781 191.064801 
L 264.417467 190.739042 
L 264.761997 190.169742 
L 265.106784 191.563719 
L 265.451299 194.192528 
L 265.796031 195.331747 
L 266.140683 194.652749 
L 266.485345 192.728293 
L 266.830032 191.973512 
L 267.519277 193.154454 
L 267.863927 193.073938 
L 268.208485 192.596836 
L 268.553234 191.760927 
L 268.8977 190.595459 
L 269.242406 190.213067 
L 269.931685 189.136039 
L 270.276566 187.854702 
L 270.62077 185.257425 
L 270.965624 184.00452 
L 271.310222 183.507719 
L 271.654896 182.650024 
L 271.999591 180.953206 
L 272.344152 178.466849 
L 273.033422 172.664362 
L 273.378125 172.711884 
L 273.722785 172.578058 
L 274.06753 172.963993 
L 274.411996 174.162518 
L 274.75673 173.079437 
L 275.445999 167.40515 
L 275.790641 165.613472 
L 276.82464 153.92797 
L 277.513833 149.310446 
L 278.203052 142.329979 
L 278.547811 142.006052 
L 278.892576 141.133386 
L 279.581863 137.041007 
L 280.271138 134.18089 
L 280.960332 127.258247 
L 281.304902 126.05736 
L 281.649925 123.670611 
L 281.993936 118.802632 
L 282.338911 115.706366 
L 282.683499 115.753764 
L 283.028312 114.948025 
L 283.3726 111.61798 
L 283.717427 109.594367 
L 284.062041 109.940043 
L 284.406764 109.701634 
L 284.7513 108.373127 
L 285.096025 107.794571 
L 285.440623 107.878443 
L 286.12985 104.653637 
L 286.474587 104.120258 
L 288.19777 103.909274 
L 288.54242 103.678135 
L 288.887086 103.949792 
L 289.231567 105.417526 
L 289.57632 105.633431 
L 289.920946 104.893561 
L 290.610279 104.380032 
L 292.678175 104.44527 
L 293.367447 104.77646 
L 293.712118 105.199981 
L 294.056797 104.844198 
L 294.401254 103.104948 
L 294.746011 102.258409 
L 295.090644 102.125901 
L 295.435317 101.794351 
L 296.124654 101.626781 
L 296.469189 100.269348 
L 297.158346 92.649401 
L 298.19251 86.886649 
L 298.88181 85.5046 
L 299.226307 84.115228 
L 299.571298 80.537997 
L 300.26029 70.074528 
L 300.605107 67.034487 
L 300.949619 65.481705 
L 301.294253 65.173544 
L 302.672805 57.814918 
L 303.017597 56.220098 
L 303.362073 294.669557 
L 303.706762 291.809676 
L 304.396089 287.902831 
L 304.740749 285.696357 
L 305.430092 283.35862 
L 306.464041 276.695048 
L 306.808709 275.240356 
L 307.842696 274.048942 
L 308.187289 274.547021 
L 308.531942 274.427953 
L 308.876608 274.151156 
L 309.221261 274.178316 
L 309.565924 274.073103 
L 309.910537 273.469194 
L 310.599887 274.754117 
L 311.289153 274.727048 
L 311.633883 275.669106 
L 311.978351 278.044349 
L 312.323091 279.124546 
L 312.667794 280.613306 
L 313.01236 283.7872 
L 313.357143 284.390634 
L 313.701632 282.175672 
L 314.046342 281.550181 
L 314.391048 283.565518 
L 314.735748 283.783634 
L 315.080181 281.298252 
L 315.425022 281.463725 
L 316.803538 292.084092 
L 317.148143 290.847799 
L 317.492834 290.552642 
L 317.837501 292.688107 
L 318.182178 54.369391 
L 318.526778 56.438025 
L 318.871459 55.704686 
L 319.21616 55.727609 
L 319.905433 56.46299 
L 320.594707 58.729565 
L 321.284019 57.882143 
L 321.628634 58.174022 
L 321.973308 58.930543 
L 322.317899 61.381881 
L 322.662598 62.516961 
L 323.00724 62.594208 
L 323.351885 62.850892 
L 324.385864 62.735605 
L 324.730519 62.603104 
L 325.419813 61.652185 
L 325.764566 63.04829 
L 326.109161 63.949584 
L 326.798448 63.775153 
L 328.521693 63.834462 
L 329.210968 62.043645 
L 329.555627 62.423822 
L 329.9003 62.995331 
L 330.589618 63.345164 
L 331.278931 63.359813 
L 331.623577 63.397847 
L 331.968246 63.673512 
L 332.312888 63.549498 
L 332.657473 61.983651 
L 333.002191 61.874153 
L 333.346814 62.527965 
L 334.036139 62.887266 
L 334.380803 62.810917 
L 334.725464 62.870365 
L 335.070129 62.71252 
L 335.414788 62.749043 
L 335.759422 63.450555 
L 336.104143 62.720748 
L 336.44877 62.261072 
L 336.793403 62.51735 
L 337.482709 62.72264 
L 338.172018 62.590725 
L 338.861326 61.697008 
L 339.206065 62.615832 
L 339.550606 63.865885 
L 339.895284 63.874644 
L 340.239939 63.714439 
L 340.584602 63.833411 
L 341.618571 63.606101 
L 341.963218 63.516589 
L 342.307869 63.577177 
L 342.652521 63.498319 
L 342.997177 63.535076 
L 343.686493 63.091006 
L 344.031165 63.524854 
L 344.375848 63.227991 
L 344.720447 62.493055 
L 345.065111 62.485324 
L 345.409773 62.712992 
L 346.443747 62.63051 
L 346.788384 62.358178 
L 347.133069 61.807704 
L 347.477727 62.023468 
L 347.822306 63.549693 
L 348.167006 63.624656 
L 348.511653 63.232647 
L 348.856317 63.282788 
L 349.200978 63.174673 
L 349.545639 63.239136 
L 350.234955 62.788968 
L 350.579643 62.228429 
L 350.92426 61.985416 
L 351.26894 63.704038 
L 351.613605 64.291669 
L 351.958249 64.142222 
L 352.302902 64.251251 
L 352.647557 64.202414 
L 352.992213 64.301236 
L 353.336873 64.282791 
L 353.681529 64.628538 
L 354.026196 65.291706 
L 354.370877 64.954315 
L 354.715521 64.820442 
L 355.404821 66.457071 
L 356.094136 69.808456 
L 356.438801 70.357033 
L 356.783486 71.458593 
L 357.817546 77.034868 
L 358.161878 81.720782 
L 358.851126 97.903418 
L 359.196072 100.006531 
L 359.540668 101.069502 
L 359.885338 104.140277 
L 360.229982 106.08624 
L 360.574676 107.283948 
L 360.919327 107.199588 
L 361.263943 105.423092 
L 361.608646 105.58061 
L 361.953211 107.74699 
L 362.642543 114.33731 
L 363.331893 114.033388 
L 364.365878 114.06833 
L 371.259097 114.119839 
L 371.603758 113.83734 
L 371.948442 114.643019 
L 372.293083 116.16351 
L 372.637671 118.936702 
L 373.327002 130.872359 
L 373.671718 131.758439 
L 374.360982 134.729749 
L 375.05028 141.66104 
L 375.395043 146.425627 
L 376.084307 161.257823 
L 376.428996 162.588453 
L 376.773645 162.688597 
L 377.118309 162.630019 
L 377.807631 163.203042 
L 378.152285 163.599246 
L 378.496962 165.24864 
L 378.84162 165.721092 
L 379.186276 165.857245 
L 379.530926 167.215945 
L 379.875601 167.024026 
L 380.220254 166.587933 
L 380.564913 166.531987 
L 381.25423 168.338939 
L 381.598893 167.811141 
L 381.943547 167.902981 
L 382.63287 171.059533 
L 382.977538 171.635299 
L 383.322199 171.20919 
L 383.666854 169.682905 
L 384.011513 168.77449 
L 384.700833 170.994997 
L 385.045499 170.234877 
L 385.390166 170.865157 
L 385.734816 172.815564 
L 386.07948 173.298123 
L 386.768799 174.926011 
L 387.113461 174.674954 
L 398.487273 174.673596 
L 398.487273 174.673596 
" style="fill:none;stroke:#1f77b4;stroke-linecap:square;stroke-width:1.5;"/>
   </g>
   <g id="line2d_15">
    <path clip-path="url(#p3878b9cbb8)" d="M 73.832727 174.542566 
L 106.738252 174.539591 
L 107.461432 176.243805 
L 108.184001 186.806602 
L 108.906994 191.674806 
L 109.626842 219.80621 
L 109.988441 220.267185 
L 111.796437 220.190756 
L 113.604433 220.507951 
L 115.774028 220.629152 
L 116.858825 220.733067 
L 118.305222 220.889023 
L 120.836416 221.319747 
L 121.921213 221.400992 
L 123.006011 221.524658 
L 124.452407 221.566271 
L 126.260403 221.752681 
L 127.345198 222.5666 
L 127.706796 222.762734 
L 129.153193 222.71079 
L 129.87639 223.181289 
L 130.599588 223.067258 
L 131.322786 223.479082 
L 132.045984 223.311736 
L 133.130781 223.442375 
L 133.853979 223.425311 
L 134.577178 223.392465 
L 134.938777 223.323054 
L 135.661974 223.680972 
L 136.746771 223.694978 
L 137.10837 223.785775 
L 138.193168 223.71673 
L 138.916366 223.754398 
L 140.362763 223.768832 
L 147.233147 223.773782 
L 156.634725 223.548914 
L 157.719518 222.665719 
L 158.081115 222.464656 
L 161.335507 221.860183 
L 161.697104 221.643596 
L 163.505099 221.353524 
L 164.228297 221.290321 
L 164.951496 221.265025 
L 166.036293 221.180763 
L 167.12109 221.1004 
L 167.844289 221.058591 
L 168.929086 221.091912 
L 170.013883 221.119025 
L 170.737082 221.118102 
L 171.46028 221.08539 
L 171.821879 221.131418 
L 172.545074 221.623872 
L 173.26827 221.295485 
L 174.353065 221.689726 
L 174.714664 221.692428 
L 175.437861 221.365196 
L 176.522614 223.528983 
L 177.607389 224.885172 
L 178.330478 227.646745 
L 178.692077 227.950276 
L 179.415274 228.156113 
L 179.776874 228.203871 
L 180.138473 227.844573 
L 180.500064 228.95649 
L 180.820001 271.231859 
L 181.181471 59.2744 
L 181.54307 55.473036 
L 182.989458 56.946761 
L 183.712655 57.384934 
L 184.435832 59.394682 
L 185.15903 59.542597 
L 185.882207 61.285767 
L 188.051801 61.941221 
L 189.136598 62.115268 
L 189.859797 62.197537 
L 190.221395 62.292192 
L 190.944589 63.106271 
L 191.667756 65.15993 
L 193.837347 66.520817 
L 194.560544 66.937579 
L 197.091739 67.010412 
L 197.814937 67.113869 
L 199.261333 67.068806 
L 199.622932 66.973129 
L 200.707729 67.392596 
L 202.515724 67.706857 
L 203.600521 67.692416 
L 204.685319 67.72806 
L 205.770116 67.76542 
L 207.939711 68.010289 
L 211.917302 68.202722 
L 222.403678 68.331784 
L 223.126876 68.382922 
L 225.296471 68.412238 
L 226.742867 68.44047 
L 229.274061 68.553971 
L 231.805255 68.694223 
L 233.97485 68.705032 
L 234.698049 68.784487 
L 236.144444 69.158091 
L 239.037237 69.202898 
L 239.398835 69.072513 
L 240.477592 93.829641 
L 241.200568 102.974639 
L 241.562013 107.323895 
L 242.644957 129.110484 
L 243.367379 140.698889 
L 243.728978 145.741345 
L 244.81376 147.675485 
L 245.175359 148.227995 
L 245.89841 154.34827 
L 246.621608 154.663994 
L 247.3448 155.778312 
L 248.067967 158.080634 
L 248.791164 158.47892 
L 249.51431 161.629466 
L 250.237504 162.569577 
L 251.322272 165.130973 
L 251.683871 166.105765 
L 252.407009 169.20245 
L 253.130204 170.344013 
L 253.853316 174.181726 
L 255.299712 174.894014 
L 256.022854 178.142206 
L 256.746045 179.415907 
L 257.46923 181.256405 
L 258.192422 182.396675 
L 260.723616 182.803005 
L 261.446814 183.064751 
L 261.808413 183.152056 
L 262.89321 182.9854 
L 263.616409 182.907834 
L 263.978008 182.844568 
L 264.701205 183.44822 
L 267.232399 183.566592 
L 267.593998 183.70415 
L 268.317196 183.237614 
L 269.040394 183.569371 
L 269.763592 183.426843 
L 270.48679 182.915353 
L 271.933186 182.76518 
L 272.656385 181.805884 
L 273.741182 182.103524 
L 274.102781 182.10613 
L 274.825965 179.304531 
L 275.549122 174.948053 
L 276.272319 174.195151 
L 276.995455 166.516651 
L 278.441699 156.889686 
L 279.164667 145.161419 
L 279.887781 141.468887 
L 280.610822 135.059911 
L 281.69541 128.995248 
L 282.057009 126.831435 
L 283.141474 117.063126 
L 283.864592 112.546518 
L 284.587625 107.993742 
L 284.949224 105.553017 
L 286.034019 104.840688 
L 286.395618 104.652419 
L 293.266002 104.33966 
L 294.712399 104.278593 
L 296.520394 103.962501 
L 297.243577 101.737902 
L 297.966413 92.830821 
L 298.689454 86.696175 
L 299.774031 79.717688 
L 300.496935 73.527716 
L 300.858534 70.297779 
L 301.581657 66.054414 
L 302.665985 55.700192 
L 303.027584 294.20023 
L 303.750469 287.674255 
L 304.473663 286.891855 
L 305.196861 287.099385 
L 305.920056 286.346393 
L 306.643248 285.278782 
L 307.366445 284.908499 
L 308.451243 284.976488 
L 309.53604 284.938526 
L 310.982437 285.080758 
L 311.705632 286.017486 
L 312.42883 286.33994 
L 313.152028 286.255081 
L 313.875225 286.78036 
L 314.598424 286.89569 
L 315.321614 288.400039 
L 316.044789 290.955498 
L 316.767902 294.111965 
L 317.491099 295.149429 
L 317.852694 53.700017 
L 318.214293 54.215394 
L 318.937492 54.360919 
L 319.660689 55.085645 
L 320.383783 59.581619 
L 321.106981 59.966088 
L 321.830171 62.048792 
L 325.807762 62.338893 
L 326.53096 62.423736 
L 328.700555 62.494881 
L 330.508551 62.592535 
L 332.316547 62.661655 
L 333.762944 62.837394 
L 336.655737 62.924959 
L 343.164522 63.183318 
L 347.865311 63.249873 
L 348.950109 63.48144 
L 351.842902 63.623743 
L 352.5661 63.803787 
L 354.374096 63.829176 
L 355.820492 63.86509 
L 356.543669 66.611876 
L 357.266867 67.129586 
L 357.989978 71.629098 
L 358.712973 80.232316 
L 359.43578 96.943851 
L 360.158922 104.574283 
L 360.882107 107.218783 
L 361.605306 107.453091 
L 362.328498 110.549888 
L 363.051644 114.533871 
L 367.752433 114.511571 
L 372.453222 114.578827 
L 373.176417 116.298731 
L 374.983503 150.203706 
L 375.345102 158.793034 
L 376.068189 163.467598 
L 376.791388 163.53738 
L 377.514544 166.879089 
L 380.045738 167.114613 
L 380.768936 167.285724 
L 381.130535 167.412169 
L 381.853732 168.349639 
L 382.57693 168.834086 
L 383.30012 170.406656 
L 384.023306 174.165927 
L 386.916099 174.542538 
L 398.487273 174.542566 
L 398.487273 174.542566 
" style="fill:none;stroke:#ff7f0e;stroke-linecap:square;stroke-width:1.5;"/>
   </g>
   <g id="line2d_16">
    <path clip-path="url(#p3878b9cbb8)" d="M 73.832727 174.528846 
L 93.22043 174.610131 
L 94.277941 174.838404 
L 94.982949 175.141169 
L 95.687956 175.580901 
L 96.745467 176.424256 
L 98.507985 178.220276 
L 99.917998 179.976298 
L 101.328011 182.043203 
L 102.738024 184.445393 
L 104.148036 187.209035 
L 105.558047 190.359217 
L 106.615552 193.006601 
L 108.378064 198.161592 
L 109.083067 200.316146 
L 111.19808 205.809337 
L 112.60809 208.939527 
L 114.018102 211.653559 
L 115.428114 214.020786 
L 116.838127 216.055688 
L 118.24814 217.724908 
L 119.30565 218.759239 
L 122.478182 221.403359 
L 124.593203 222.944989 
L 127.060728 224.554668 
L 131.290772 226.516517 
L 133.758297 227.264632 
L 135.873319 227.741041 
L 137.635838 227.934349 
L 140.103364 227.984894 
L 142.218386 227.801175 
L 144.333408 227.42592 
L 146.095926 226.948432 
L 148.563452 226.038324 
L 150.678473 225.046656 
L 152.440991 224.052357 
L 154.908515 222.400552 
L 160.196066 218.598719 
L 164.778613 216.215799 
L 166.188627 215.692179 
L 166.541131 215.631529 
L 167.598642 215.931091 
L 168.303649 216.376272 
L 169.008655 217.060631 
L 169.713661 217.964741 
L 170.418666 219.061578 
L 171.12367 220.414491 
L 171.828672 222.093968 
L 172.533671 224.144527 
L 173.238666 226.599826 
L 174.296138 230.914597 
L 175.706092 238.117175 
L 177.821008 250.336357 
L 179.58341 264.763888 
L 180.640834 273.00771 
L 181.698334 278.063816 
L 183.813307 289.496856 
L 184.870797 294.369383 
L 185.223301 53.751849 
L 186.280801 57.419959 
L 187.338309 60.014857 
L 188.748321 62.740763 
L 190.158333 65.115257 
L 191.215842 66.67153 
L 192.625856 68.277715 
L 194.03587 69.354484 
L 195.445884 69.995268 
L 196.855899 70.226332 
L 201.085943 70.387259 
L 204.258477 70.259813 
L 208.841025 69.626586 
L 213.423572 68.489797 
L 215.891098 67.74105 
L 220.121142 66.733341 
L 223.646179 66.188851 
L 228.228727 65.845989 
L 229.286238 65.806875 
L 229.991245 66.108056 
L 230.696251 66.89023 
L 231.401255 68.145807 
L 232.45876 70.906955 
L 233.163758 73.233421 
L 234.221239 77.37315 
L 235.63121 83.995694 
L 237.041168 91.788538 
L 238.451107 101.182492 
L 239.861025 112.872557 
L 241.623474 127.818801 
L 242.680957 135.705321 
L 244.443466 146.767077 
L 245.853478 154.367014 
L 247.263491 160.959927 
L 248.673503 166.645825 
L 250.083515 171.503532 
L 251.141025 174.658914 
L 252.551038 178.167402 
L 253.961052 180.993111 
L 255.723569 183.820953 
L 257.133584 185.681531 
L 258.543598 187.21539 
L 259.601109 188.154787 
L 261.011124 189.043809 
L 262.068635 189.33723 
L 262.773642 189.312473 
L 263.47865 189.119216 
L 264.183657 188.7729 
L 265.241168 188.038287 
L 266.298679 186.973477 
L 267.35619 185.542316 
L 268.766205 183.038978 
L 270.176219 179.801863 
L 271.586233 175.796647 
L 272.996246 170.991457 
L 274.758764 163.927754 
L 275.816274 159.054735 
L 277.931289 147.706535 
L 279.693793 138.785651 
L 281.456301 130.910892 
L 283.57131 122.73912 
L 285.686322 115.686599 
L 287.801336 109.62516 
L 293.441376 94.943102 
L 295.556388 88.260538 
L 297.318891 81.897859 
L 299.433891 73.241102 
L 301.196388 64.898149 
L 302.958871 56.541967 
L 303.66387 53.668808 
L 304.016374 294.289634 
L 305.426376 289.66775 
L 306.836383 286.124416 
L 307.89389 284.221935 
L 308.598897 283.241735 
L 309.303904 282.514747 
L 310.008911 282.045227 
L 310.713918 281.827502 
L 311.066422 281.781514 
L 311.771429 281.978856 
L 312.82894 282.757037 
L 313.533946 283.523624 
L 314.238952 284.506943 
L 315.648964 286.834771 
L 317.411481 289.575486 
L 319.5265 292.489314 
L 321.994023 295.488 
L 322.346527 53.908812 
L 324.814051 56.395521 
L 326.576569 57.955632 
L 328.691591 59.517697 
L 330.806613 60.837665 
L 333.274138 62.000192 
L 334.684153 62.512884 
L 336.094168 62.854895 
L 338.914197 63.278972 
L 340.676716 63.423698 
L 344.90676 63.600392 
L 346.316775 64.285834 
L 347.726789 65.4336 
L 349.136804 67.01607 
L 350.546819 69.019361 
L 352.309337 72.170306 
L 353.719352 75.161172 
L 355.129366 78.602711 
L 356.539381 82.599544 
L 357.949396 86.703844 
L 359.006907 89.691994 
L 363.589452 104.850165 
L 370.287014 126.038742 
L 372.402032 133.511514 
L 375.927055 147.321007 
L 378.042071 154.027753 
L 379.804584 158.73116 
L 381.5671 162.811694 
L 382.977113 165.653699 
L 385.092134 169.201498 
L 386.502148 171.111005 
L 387.912162 172.564872 
L 389.322177 173.621649 
L 390.732191 174.273428 
L 392.142206 174.52885 
L 396.372251 174.539683 
L 398.487273 174.531445 
L 398.487273 174.531445 
" style="fill:none;stroke:#2ca02c;stroke-linecap:square;stroke-width:1.5;"/>
   </g>
   <g id="line2d_17">
    <path clip-path="url(#p3878b9cbb8)" d="M 73.832727 174.539215 
L 93.24359 174.595895 
L 94.655289 174.9182 
L 95.714061 175.507326 
L 96.772833 176.323165 
L 98.184525 177.701472 
L 99.94913 179.872639 
L 101.360809 181.973573 
L 102.77248 184.423826 
L 104.18414 187.244338 
L 105.595786 190.459822 
L 107.007409 194.167 
L 110.183557 203.26561 
L 112.301014 208.146559 
L 114.065571 211.582053 
L 115.477238 213.949738 
L 116.888911 216.003299 
L 118.300592 217.750465 
L 119.712279 219.143892 
L 121.829814 220.916261 
L 124.300276 222.717938 
L 127.123662 224.453593 
L 129.594128 225.676122 
L 131.711673 226.513104 
L 133.82922 227.149322 
L 135.946768 227.593602 
L 138.064316 227.838367 
L 140.181865 227.885615 
L 142.299413 227.73476 
L 144.416961 227.385183 
L 146.534507 226.836238 
L 148.652052 226.087795 
L 150.769594 225.138967 
L 153.240058 223.780267 
L 155.710513 222.143282 
L 162.416034 217.392261 
L 165.592338 215.514172 
L 166.65111 215.095091 
L 167.35696 215.083086 
L 168.062808 215.343623 
L 168.768652 215.887424 
L 169.474487 216.721177 
L 170.180307 217.890841 
L 171.238948 220.356409 
L 172.297621 223.390668 
L 173.709035 228.322351 
L 175.120291 234.445562 
L 176.5313 242.045885 
L 177.58888 249.256116 
L 180.057328 267.247128 
L 183.584367 287.710131 
L 184.995516 294.065562 
L 185.348243 295.430792 
L 185.701168 54.758721 
L 186.759683 58.091296 
L 187.81838 60.713999 
L 189.229969 63.524295 
L 190.641597 65.776293 
L 192.053252 67.539824 
L 193.464926 68.844169 
L 194.523689 69.515009 
L 195.582462 69.945268 
L 196.994159 70.241619 
L 199.111708 70.404688 
L 201.935106 70.408941 
L 205.111429 70.178588 
L 208.28775 69.708871 
L 211.46407 68.995147 
L 219.934253 66.838809 
L 223.463499 66.280659 
L 227.345671 65.900457 
L 228.404445 65.869833 
L 229.110292 66.104623 
L 229.816128 66.683682 
L 230.521949 67.578821 
L 231.58068 69.39411 
L 232.6393 71.802252 
L 233.697948 74.901241 
L 234.756326 78.767335 
L 235.814801 83.517613 
L 236.87275 89.104164 
L 237.93091 95.933705 
L 239.340834 107.106676 
L 242.159721 131.45822 
L 243.570078 140.763704 
L 244.980811 148.694329 
L 246.744397 157.226427 
L 248.508514 164.543794 
L 250.272573 170.848036 
L 252.036925 176.217232 
L 253.448421 179.847844 
L 254.859977 182.895465 
L 256.27158 185.373744 
L 257.330297 186.850406 
L 258.389054 187.99025 
L 259.44781 188.818601 
L 260.506581 189.330687 
L 261.565354 189.530578 
L 262.271203 189.469097 
L 263.329976 189.08392 
L 264.388738 188.396201 
L 265.800411 187.096432 
L 267.212064 185.356781 
L 268.270804 183.703587 
L 269.329479 181.721391 
L 270.741024 178.496082 
L 272.152493 174.540079 
L 273.56386 169.779273 
L 274.975101 164.14713 
L 276.386188 157.612928 
L 277.79709 150.135958 
L 279.913487 138.862034 
L 281.67755 130.873623 
L 283.441517 123.801564 
L 285.205807 117.594631 
L 286.970039 112.087609 
L 288.734462 107.236628 
L 293.674784 94.218559 
L 295.791993 87.833404 
L 297.203414 83.041913 
L 298.967488 76.263922 
L 300.731654 68.617415 
L 303.906666 53.842654 
L 304.259591 294.518094 
L 305.31809 290.95283 
L 306.729615 287.059407 
L 307.788333 284.790119 
L 308.847041 283.049873 
L 309.905801 281.921303 
L 310.611644 281.500993 
L 311.317492 281.36496 
L 312.023342 281.513523 
L 312.729189 281.946464 
L 313.43503 282.669999 
L 314.140861 283.68519 
L 317.669957 289.480387 
L 320.140345 292.944696 
L 321.904936 295.138865 
L 322.257846 53.568 
L 324.728285 56.176156 
L 326.845808 58.087886 
L 328.963338 59.694915 
L 330.72795 60.803157 
L 332.845492 61.853276 
L 334.963037 62.608908 
L 336.72766 62.965328 
L 339.903983 63.331555 
L 343.080306 63.445262 
L 344.492005 63.548465 
L 345.197854 63.768006 
L 346.256624 64.338677 
L 347.668313 65.47344 
L 349.079993 67.004774 
L 350.491663 68.945245 
L 351.903321 71.295733 
L 353.667889 74.813262 
L 355.079517 78.088559 
L 356.491125 81.835738 
L 357.549782 85.005015 
L 362.490252 101.350527 
L 370.254049 125.28683 
L 372.724347 134.305862 
L 374.488761 141.637188 
L 375.900346 147.111661 
L 378.017787 153.868449 
L 379.782362 158.613905 
L 381.194027 161.904334 
L 382.605701 164.776447 
L 384.370301 167.88072 
L 386.134916 170.393844 
L 387.193684 171.640718 
L 388.605381 172.940163 
L 390.017078 173.843287 
L 391.428777 174.352837 
L 392.840476 174.527845 
L 398.487273 174.539804 
L 398.487273 174.539804 
" style="fill:none;stroke:#d62728;stroke-linecap:square;stroke-width:1.5;"/>
   </g>
   <g id="patch_3">
    <path d="M 57.6 307.584 
L 57.6 41.472 
" style="fill:none;stroke:#000000;stroke-linecap:square;stroke-linejoin:miter;stroke-width:0.8;"/>
   </g>
   <g id="patch_4">
    <path d="M 414.72 307.584 
L 414.72 41.472 
" style="fill:none;stroke:#000000;stroke-linecap:square;stroke-linejoin:miter;stroke-width:0.8;"/>
   </g>
   <g id="patch_5">
    <path d="M 57.6 307.584 
L 414.72 307.584 
" style="fill:none;stroke:#000000;stroke-linecap:square;stroke-linejoin:miter;stroke-width:0.8;"/>
   </g>
   <g id="patch_6">
    <path d="M 57.6 41.472 
L 414.72 41.472 
" style="fill:none;stroke:#000000;stroke-linecap:square;stroke-linejoin:miter;stroke-width:0.8;"/>
   </g>
   <g id="text_14">
    <!-- Heading vs Distance aut -->
    <g transform="translate(162.7275 35.472)scale(0.12 -0.12)">
     <defs>
      <path d="M 9.8125 72.90625 
L 19.671875 72.90625 
L 19.671875 43.015625 
L 55.515625 43.015625 
L 55.515625 72.90625 
L 65.375 72.90625 
L 65.375 0 
L 55.515625 0 
L 55.515625 34.71875 
L 19.671875 34.71875 
L 19.671875 0 
L 9.8125 0 
z
" id="DejaVuSans-72"/>
      <path d="M 56.203125 29.59375 
L 56.203125 25.203125 
L 14.890625 25.203125 
Q 15.484375 15.921875 20.484375 11.0625 
Q 25.484375 6.203125 34.421875 6.203125 
Q 39.59375 6.203125 44.453125 7.46875 
Q 49.3125 8.734375 54.109375 11.28125 
L 54.109375 2.78125 
Q 49.265625 0.734375 44.1875 -0.34375 
Q 39.109375 -1.421875 33.890625 -1.421875 
Q 20.796875 -1.421875 13.15625 6.1875 
Q 5.515625 13.8125 5.515625 26.8125 
Q 5.515625 40.234375 12.765625 48.109375 
Q 20.015625 56 32.328125 56 
Q 43.359375 56 49.78125 48.890625 
Q 56.203125 41.796875 56.203125 29.59375 
z
M 47.21875 32.234375 
Q 47.125 39.59375 43.09375 43.984375 
Q 39.0625 48.390625 32.421875 48.390625 
Q 24.90625 48.390625 20.390625 44.140625 
Q 15.875 39.890625 15.1875 32.171875 
z
" id="DejaVuSans-101"/>
      <path d="M 34.28125 27.484375 
Q 23.390625 27.484375 19.1875 25 
Q 14.984375 22.515625 14.984375 16.5 
Q 14.984375 11.71875 18.140625 8.90625 
Q 21.296875 6.109375 26.703125 6.109375 
Q 34.1875 6.109375 38.703125 11.40625 
Q 43.21875 16.703125 43.21875 25.484375 
L 43.21875 27.484375 
z
M 52.203125 31.203125 
L 52.203125 0 
L 43.21875 0 
L 43.21875 8.296875 
Q 40.140625 3.328125 35.546875 0.953125 
Q 30.953125 -1.421875 24.3125 -1.421875 
Q 15.921875 -1.421875 10.953125 3.296875 
Q 6 8.015625 6 15.921875 
Q 6 25.140625 12.171875 29.828125 
Q 18.359375 34.515625 30.609375 34.515625 
L 43.21875 34.515625 
L 43.21875 35.40625 
Q 43.21875 41.609375 39.140625 45 
Q 35.0625 48.390625 27.6875 48.390625 
Q 23 48.390625 18.546875 47.265625 
Q 14.109375 46.140625 10.015625 43.890625 
L 10.015625 52.203125 
Q 14.9375 54.109375 19.578125 55.046875 
Q 24.21875 56 28.609375 56 
Q 40.484375 56 46.34375 49.84375 
Q 52.203125 43.703125 52.203125 31.203125 
z
" id="DejaVuSans-97"/>
      <path d="M 45.40625 46.390625 
L 45.40625 75.984375 
L 54.390625 75.984375 
L 54.390625 0 
L 45.40625 0 
L 45.40625 8.203125 
Q 42.578125 3.328125 38.25 0.953125 
Q 33.9375 -1.421875 27.875 -1.421875 
Q 17.96875 -1.421875 11.734375 6.484375 
Q 5.515625 14.40625 5.515625 27.296875 
Q 5.515625 40.1875 11.734375 48.09375 
Q 17.96875 56 27.875 56 
Q 33.9375 56 38.25 53.625 
Q 42.578125 51.265625 45.40625 46.390625 
z
M 14.796875 27.296875 
Q 14.796875 17.390625 18.875 11.75 
Q 22.953125 6.109375 30.078125 6.109375 
Q 37.203125 6.109375 41.296875 11.75 
Q 45.40625 17.390625 45.40625 27.296875 
Q 45.40625 37.203125 41.296875 42.84375 
Q 37.203125 48.484375 30.078125 48.484375 
Q 22.953125 48.484375 18.875 42.84375 
Q 14.796875 37.203125 14.796875 27.296875 
z
" id="DejaVuSans-100"/>
      <path d="M 9.421875 54.6875 
L 18.40625 54.6875 
L 18.40625 0 
L 9.421875 0 
z
M 9.421875 75.984375 
L 18.40625 75.984375 
L 18.40625 64.59375 
L 9.421875 64.59375 
z
" id="DejaVuSans-105"/>
      <path d="M 54.890625 33.015625 
L 54.890625 0 
L 45.90625 0 
L 45.90625 32.71875 
Q 45.90625 40.484375 42.875 44.328125 
Q 39.84375 48.1875 33.796875 48.1875 
Q 26.515625 48.1875 22.3125 43.546875 
Q 18.109375 38.921875 18.109375 30.90625 
L 18.109375 0 
L 9.078125 0 
L 9.078125 54.6875 
L 18.109375 54.6875 
L 18.109375 46.1875 
Q 21.34375 51.125 25.703125 53.5625 
Q 30.078125 56 35.796875 56 
Q 45.21875 56 50.046875 50.171875 
Q 54.890625 44.34375 54.890625 33.015625 
z
" id="DejaVuSans-110"/>
      <path d="M 45.40625 27.984375 
Q 45.40625 37.75 41.375 43.109375 
Q 37.359375 48.484375 30.078125 48.484375 
Q 22.859375 48.484375 18.828125 43.109375 
Q 14.796875 37.75 14.796875 27.984375 
Q 14.796875 18.265625 18.828125 12.890625 
Q 22.859375 7.515625 30.078125 7.515625 
Q 37.359375 7.515625 41.375 12.890625 
Q 45.40625 18.265625 45.40625 27.984375 
z
M 54.390625 6.78125 
Q 54.390625 -7.171875 48.1875 -13.984375 
Q 42 -20.796875 29.203125 -20.796875 
Q 24.46875 -20.796875 20.265625 -20.09375 
Q 16.0625 -19.390625 12.109375 -17.921875 
L 12.109375 -9.1875 
Q 16.0625 -11.328125 19.921875 -12.34375 
Q 23.78125 -13.375 27.78125 -13.375 
Q 36.625 -13.375 41.015625 -8.765625 
Q 45.40625 -4.15625 45.40625 5.171875 
L 45.40625 9.625 
Q 42.625 4.78125 38.28125 2.390625 
Q 33.9375 0 27.875 0 
Q 17.828125 0 11.671875 7.65625 
Q 5.515625 15.328125 5.515625 27.984375 
Q 5.515625 40.671875 11.671875 48.328125 
Q 17.828125 56 27.875 56 
Q 33.9375 56 38.28125 53.609375 
Q 42.625 51.21875 45.40625 46.390625 
L 45.40625 54.6875 
L 54.390625 54.6875 
z
" id="DejaVuSans-103"/>
      <path id="DejaVuSans-32"/>
      <path d="M 2.984375 54.6875 
L 12.5 54.6875 
L 29.59375 8.796875 
L 46.6875 54.6875 
L 56.203125 54.6875 
L 35.6875 0 
L 23.484375 0 
z
" id="DejaVuSans-118"/>
      <path d="M 44.28125 53.078125 
L 44.28125 44.578125 
Q 40.484375 46.53125 36.375 47.5 
Q 32.28125 48.484375 27.875 48.484375 
Q 21.1875 48.484375 17.84375 46.4375 
Q 14.5 44.390625 14.5 40.28125 
Q 14.5 37.15625 16.890625 35.375 
Q 19.28125 33.59375 26.515625 31.984375 
L 29.59375 31.296875 
Q 39.15625 29.25 43.1875 25.515625 
Q 47.21875 21.78125 47.21875 15.09375 
Q 47.21875 7.46875 41.1875 3.015625 
Q 35.15625 -1.421875 24.609375 -1.421875 
Q 20.21875 -1.421875 15.453125 -0.5625 
Q 10.6875 0.296875 5.421875 2 
L 5.421875 11.28125 
Q 10.40625 8.6875 15.234375 7.390625 
Q 20.0625 6.109375 24.8125 6.109375 
Q 31.15625 6.109375 34.5625 8.28125 
Q 37.984375 10.453125 37.984375 14.40625 
Q 37.984375 18.0625 35.515625 20.015625 
Q 33.0625 21.96875 24.703125 23.78125 
L 21.578125 24.515625 
Q 13.234375 26.265625 9.515625 29.90625 
Q 5.8125 33.546875 5.8125 39.890625 
Q 5.8125 47.609375 11.28125 51.796875 
Q 16.75 56 26.8125 56 
Q 31.78125 56 36.171875 55.265625 
Q 40.578125 54.546875 44.28125 53.078125 
z
" id="DejaVuSans-115"/>
      <path d="M 19.671875 64.796875 
L 19.671875 8.109375 
L 31.59375 8.109375 
Q 46.6875 8.109375 53.6875 14.9375 
Q 60.6875 21.78125 60.6875 36.53125 
Q 60.6875 51.171875 53.6875 57.984375 
Q 46.6875 64.796875 31.59375 64.796875 
z
M 9.8125 72.90625 
L 30.078125 72.90625 
Q 51.265625 72.90625 61.171875 64.09375 
Q 71.09375 55.28125 71.09375 36.53125 
Q 71.09375 17.671875 61.125 8.828125 
Q 51.171875 0 30.078125 0 
L 9.8125 0 
z
" id="DejaVuSans-68"/>
      <path d="M 18.3125 70.21875 
L 18.3125 54.6875 
L 36.8125 54.6875 
L 36.8125 47.703125 
L 18.3125 47.703125 
L 18.3125 18.015625 
Q 18.3125 11.328125 20.140625 9.421875 
Q 21.96875 7.515625 27.59375 7.515625 
L 36.8125 7.515625 
L 36.8125 0 
L 27.59375 0 
Q 17.1875 0 13.234375 3.875 
Q 9.28125 7.765625 9.28125 18.015625 
L 9.28125 47.703125 
L 2.6875 47.703125 
L 2.6875 54.6875 
L 9.28125 54.6875 
L 9.28125 70.21875 
z
" id="DejaVuSans-116"/>
      <path d="M 48.78125 52.59375 
L 48.78125 44.1875 
Q 44.96875 46.296875 41.140625 47.34375 
Q 37.3125 48.390625 33.40625 48.390625 
Q 24.65625 48.390625 19.8125 42.84375 
Q 14.984375 37.3125 14.984375 27.296875 
Q 14.984375 17.28125 19.8125 11.734375 
Q 24.65625 6.203125 33.40625 6.203125 
Q 37.3125 6.203125 41.140625 7.25 
Q 44.96875 8.296875 48.78125 10.40625 
L 48.78125 2.09375 
Q 45.015625 0.34375 40.984375 -0.53125 
Q 36.96875 -1.421875 32.421875 -1.421875 
Q 20.0625 -1.421875 12.78125 6.34375 
Q 5.515625 14.109375 5.515625 27.296875 
Q 5.515625 40.671875 12.859375 48.328125 
Q 20.21875 56 33.015625 56 
Q 37.15625 56 41.109375 55.140625 
Q 45.0625 54.296875 48.78125 52.59375 
z
" id="DejaVuSans-99"/>
      <path d="M 8.5 21.578125 
L 8.5 54.6875 
L 17.484375 54.6875 
L 17.484375 21.921875 
Q 17.484375 14.15625 20.5 10.265625 
Q 23.53125 6.390625 29.59375 6.390625 
Q 36.859375 6.390625 41.078125 11.03125 
Q 45.3125 15.671875 45.3125 23.6875 
L 45.3125 54.6875 
L 54.296875 54.6875 
L 54.296875 0 
L 45.3125 0 
L 45.3125 8.40625 
Q 42.046875 3.421875 37.71875 1 
Q 33.40625 -1.421875 27.6875 -1.421875 
Q 18.265625 -1.421875 13.375 4.4375 
Q 8.5 10.296875 8.5 21.578125 
z
M 31.109375 56 
z
" id="DejaVuSans-117"/>
     </defs>
     <use xlink:href="#DejaVuSans-72"/>
     <use x="75.195312" xlink:href="#DejaVuSans-101"/>
     <use x="136.71875" xlink:href="#DejaVuSans-97"/>
     <use x="197.998047" xlink:href="#DejaVuSans-100"/>
     <use x="261.474609" xlink:href="#DejaVuSans-105"/>
     <use x="289.257812" xlink:href="#DejaVuSans-110"/>
     <use x="352.636719" xlink:href="#DejaVuSans-103"/>
     <use x="416.113281" xlink:href="#DejaVuSans-32"/>
     <use x="447.900391" xlink:href="#DejaVuSans-118"/>
     <use x="507.080078" xlink:href="#DejaVuSans-115"/>
     <use x="559.179688" xlink:href="#DejaVuSans-32"/>
     <use x="590.966797" xlink:href="#DejaVuSans-68"/>
     <use x="667.96875" xlink:href="#DejaVuSans-105"/>
     <use x="695.751953" xlink:href="#DejaVuSans-115"/>
     <use x="747.851562" xlink:href="#DejaVuSans-116"/>
     <use x="787.060547" xlink:href="#DejaVuSans-97"/>
     <use x="848.339844" xlink:href="#DejaVuSans-110"/>
     <use x="911.71875" xlink:href="#DejaVuSans-99"/>
     <use x="966.699219" xlink:href="#DejaVuSans-101"/>
     <use x="1028.222656" xlink:href="#DejaVuSans-32"/>
     <use x="1060.009766" xlink:href="#DejaVuSans-97"/>
     <use x="1121.289062" xlink:href="#DejaVuSans-117"/>
     <use x="1184.667969" xlink:href="#DejaVuSans-116"/>
    </g>
   </g>
   <g id="legend_1">
    <g id="patch_7">
     <path d="M 258.462188 108.1845 
L 407.72 108.1845 
Q 409.72 108.1845 409.72 106.1845 
L 409.72 48.472 
Q 409.72 46.472 407.72 46.472 
L 258.462188 46.472 
Q 256.462188 46.472 256.462188 48.472 
L 256.462188 106.1845 
Q 256.462188 108.1845 258.462188 108.1845 
z
" style="fill:#ffffff;opacity:0.8;stroke:#cccccc;stroke-linejoin:miter;"/>
    </g>
    <g id="line2d_18">
     <path d="M 260.462188 54.570438 
L 280.462188 54.570438 
" style="fill:none;stroke:#1f77b4;stroke-linecap:square;stroke-width:1.5;"/>
    </g>
    <g id="line2d_19"/>
    <g id="text_15">
     <!-- Centreline -->
     <g transform="translate(288.462188 58.070438)scale(0.1 -0.1)">
      <defs>
       <path d="M 64.40625 67.28125 
L 64.40625 56.890625 
Q 59.421875 61.53125 53.78125 63.8125 
Q 48.140625 66.109375 41.796875 66.109375 
Q 29.296875 66.109375 22.65625 58.46875 
Q 16.015625 50.828125 16.015625 36.375 
Q 16.015625 21.96875 22.65625 14.328125 
Q 29.296875 6.6875 41.796875 6.6875 
Q 48.140625 6.6875 53.78125 8.984375 
Q 59.421875 11.28125 64.40625 15.921875 
L 64.40625 5.609375 
Q 59.234375 2.09375 53.4375 0.328125 
Q 47.65625 -1.421875 41.21875 -1.421875 
Q 24.65625 -1.421875 15.125 8.703125 
Q 5.609375 18.84375 5.609375 36.375 
Q 5.609375 53.953125 15.125 64.078125 
Q 24.65625 74.21875 41.21875 74.21875 
Q 47.75 74.21875 53.53125 72.484375 
Q 59.328125 70.75 64.40625 67.28125 
z
" id="DejaVuSans-67"/>
       <path d="M 41.109375 46.296875 
Q 39.59375 47.171875 37.8125 47.578125 
Q 36.03125 48 33.890625 48 
Q 26.265625 48 22.1875 43.046875 
Q 18.109375 38.09375 18.109375 28.8125 
L 18.109375 0 
L 9.078125 0 
L 9.078125 54.6875 
L 18.109375 54.6875 
L 18.109375 46.1875 
Q 20.953125 51.171875 25.484375 53.578125 
Q 30.03125 56 36.53125 56 
Q 37.453125 56 38.578125 55.875 
Q 39.703125 55.765625 41.0625 55.515625 
z
" id="DejaVuSans-114"/>
       <path d="M 9.421875 75.984375 
L 18.40625 75.984375 
L 18.40625 0 
L 9.421875 0 
z
" id="DejaVuSans-108"/>
      </defs>
      <use xlink:href="#DejaVuSans-67"/>
      <use x="69.824219" xlink:href="#DejaVuSans-101"/>
      <use x="131.347656" xlink:href="#DejaVuSans-110"/>
      <use x="194.726562" xlink:href="#DejaVuSans-116"/>
      <use x="233.935547" xlink:href="#DejaVuSans-114"/>
      <use x="272.798828" xlink:href="#DejaVuSans-101"/>
      <use x="334.322266" xlink:href="#DejaVuSans-108"/>
      <use x="362.105469" xlink:href="#DejaVuSans-105"/>
      <use x="389.888672" xlink:href="#DejaVuSans-110"/>
      <use x="453.267578" xlink:href="#DejaVuSans-101"/>
     </g>
    </g>
    <g id="line2d_20">
     <path d="M 260.462188 69.248563 
L 280.462188 69.248563 
" style="fill:none;stroke:#ff7f0e;stroke-linecap:square;stroke-width:1.5;"/>
    </g>
    <g id="line2d_21"/>
    <g id="text_16">
     <!-- Shortest Path -->
     <g transform="translate(288.462188 72.748563)scale(0.1 -0.1)">
      <defs>
       <path d="M 53.515625 70.515625 
L 53.515625 60.890625 
Q 47.90625 63.578125 42.921875 64.890625 
Q 37.9375 66.21875 33.296875 66.21875 
Q 25.25 66.21875 20.875 63.09375 
Q 16.5 59.96875 16.5 54.203125 
Q 16.5 49.359375 19.40625 46.890625 
Q 22.3125 44.4375 30.421875 42.921875 
L 36.375 41.703125 
Q 47.40625 39.59375 52.65625 34.296875 
Q 57.90625 29 57.90625 20.125 
Q 57.90625 9.515625 50.796875 4.046875 
Q 43.703125 -1.421875 29.984375 -1.421875 
Q 24.8125 -1.421875 18.96875 -0.25 
Q 13.140625 0.921875 6.890625 3.21875 
L 6.890625 13.375 
Q 12.890625 10.015625 18.65625 8.296875 
Q 24.421875 6.59375 29.984375 6.59375 
Q 38.421875 6.59375 43.015625 9.90625 
Q 47.609375 13.234375 47.609375 19.390625 
Q 47.609375 24.75 44.3125 27.78125 
Q 41.015625 30.8125 33.5 32.328125 
L 27.484375 33.5 
Q 16.453125 35.6875 11.515625 40.375 
Q 6.59375 45.0625 6.59375 53.421875 
Q 6.59375 63.09375 13.40625 68.65625 
Q 20.21875 74.21875 32.171875 74.21875 
Q 37.3125 74.21875 42.625 73.28125 
Q 47.953125 72.359375 53.515625 70.515625 
z
" id="DejaVuSans-83"/>
       <path d="M 54.890625 33.015625 
L 54.890625 0 
L 45.90625 0 
L 45.90625 32.71875 
Q 45.90625 40.484375 42.875 44.328125 
Q 39.84375 48.1875 33.796875 48.1875 
Q 26.515625 48.1875 22.3125 43.546875 
Q 18.109375 38.921875 18.109375 30.90625 
L 18.109375 0 
L 9.078125 0 
L 9.078125 75.984375 
L 18.109375 75.984375 
L 18.109375 46.1875 
Q 21.34375 51.125 25.703125 53.5625 
Q 30.078125 56 35.796875 56 
Q 45.21875 56 50.046875 50.171875 
Q 54.890625 44.34375 54.890625 33.015625 
z
" id="DejaVuSans-104"/>
       <path d="M 30.609375 48.390625 
Q 23.390625 48.390625 19.1875 42.75 
Q 14.984375 37.109375 14.984375 27.296875 
Q 14.984375 17.484375 19.15625 11.84375 
Q 23.34375 6.203125 30.609375 6.203125 
Q 37.796875 6.203125 41.984375 11.859375 
Q 46.1875 17.53125 46.1875 27.296875 
Q 46.1875 37.015625 41.984375 42.703125 
Q 37.796875 48.390625 30.609375 48.390625 
z
M 30.609375 56 
Q 42.328125 56 49.015625 48.375 
Q 55.71875 40.765625 55.71875 27.296875 
Q 55.71875 13.875 49.015625 6.21875 
Q 42.328125 -1.421875 30.609375 -1.421875 
Q 18.84375 -1.421875 12.171875 6.21875 
Q 5.515625 13.875 5.515625 27.296875 
Q 5.515625 40.765625 12.171875 48.375 
Q 18.84375 56 30.609375 56 
z
" id="DejaVuSans-111"/>
       <path d="M 19.671875 64.796875 
L 19.671875 37.40625 
L 32.078125 37.40625 
Q 38.96875 37.40625 42.71875 40.96875 
Q 46.484375 44.53125 46.484375 51.125 
Q 46.484375 57.671875 42.71875 61.234375 
Q 38.96875 64.796875 32.078125 64.796875 
z
M 9.8125 72.90625 
L 32.078125 72.90625 
Q 44.34375 72.90625 50.609375 67.359375 
Q 56.890625 61.8125 56.890625 51.125 
Q 56.890625 40.328125 50.609375 34.8125 
Q 44.34375 29.296875 32.078125 29.296875 
L 19.671875 29.296875 
L 19.671875 0 
L 9.8125 0 
z
" id="DejaVuSans-80"/>
      </defs>
      <use xlink:href="#DejaVuSans-83"/>
      <use x="63.476562" xlink:href="#DejaVuSans-104"/>
      <use x="126.855469" xlink:href="#DejaVuSans-111"/>
      <use x="188.037109" xlink:href="#DejaVuSans-114"/>
      <use x="229.150391" xlink:href="#DejaVuSans-116"/>
      <use x="268.359375" xlink:href="#DejaVuSans-101"/>
      <use x="329.882812" xlink:href="#DejaVuSans-115"/>
      <use x="381.982422" xlink:href="#DejaVuSans-116"/>
      <use x="421.191406" xlink:href="#DejaVuSans-32"/>
      <use x="452.978516" xlink:href="#DejaVuSans-80"/>
      <use x="508.78125" xlink:href="#DejaVuSans-97"/>
      <use x="570.060547" xlink:href="#DejaVuSans-116"/>
      <use x="609.269531" xlink:href="#DejaVuSans-104"/>
     </g>
    </g>
    <g id="line2d_22">
     <path d="M 260.462188 83.926688 
L 280.462188 83.926688 
" style="fill:none;stroke:#2ca02c;stroke-linecap:square;stroke-width:1.5;"/>
    </g>
    <g id="line2d_23"/>
    <g id="text_17">
     <!-- Minimum Curvature (C) -->
     <g transform="translate(288.462188 87.426688)scale(0.1 -0.1)">
      <defs>
       <path d="M 9.8125 72.90625 
L 24.515625 72.90625 
L 43.109375 23.296875 
L 61.8125 72.90625 
L 76.515625 72.90625 
L 76.515625 0 
L 66.890625 0 
L 66.890625 64.015625 
L 48.09375 14.015625 
L 38.1875 14.015625 
L 19.390625 64.015625 
L 19.390625 0 
L 9.8125 0 
z
" id="DejaVuSans-77"/>
       <path d="M 52 44.1875 
Q 55.375 50.25 60.0625 53.125 
Q 64.75 56 71.09375 56 
Q 79.640625 56 84.28125 50.015625 
Q 88.921875 44.046875 88.921875 33.015625 
L 88.921875 0 
L 79.890625 0 
L 79.890625 32.71875 
Q 79.890625 40.578125 77.09375 44.375 
Q 74.3125 48.1875 68.609375 48.1875 
Q 61.625 48.1875 57.5625 43.546875 
Q 53.515625 38.921875 53.515625 30.90625 
L 53.515625 0 
L 44.484375 0 
L 44.484375 32.71875 
Q 44.484375 40.625 41.703125 44.40625 
Q 38.921875 48.1875 33.109375 48.1875 
Q 26.21875 48.1875 22.15625 43.53125 
Q 18.109375 38.875 18.109375 30.90625 
L 18.109375 0 
L 9.078125 0 
L 9.078125 54.6875 
L 18.109375 54.6875 
L 18.109375 46.1875 
Q 21.1875 51.21875 25.484375 53.609375 
Q 29.78125 56 35.6875 56 
Q 41.65625 56 45.828125 52.96875 
Q 50 49.953125 52 44.1875 
z
" id="DejaVuSans-109"/>
       <path d="M 31 75.875 
Q 24.46875 64.65625 21.28125 53.65625 
Q 18.109375 42.671875 18.109375 31.390625 
Q 18.109375 20.125 21.3125 9.0625 
Q 24.515625 -2 31 -13.1875 
L 23.1875 -13.1875 
Q 15.875 -1.703125 12.234375 9.375 
Q 8.59375 20.453125 8.59375 31.390625 
Q 8.59375 42.28125 12.203125 53.3125 
Q 15.828125 64.359375 23.1875 75.875 
z
" id="DejaVuSans-40"/>
       <path d="M 8.015625 75.875 
L 15.828125 75.875 
Q 23.140625 64.359375 26.78125 53.3125 
Q 30.421875 42.28125 30.421875 31.390625 
Q 30.421875 20.453125 26.78125 9.375 
Q 23.140625 -1.703125 15.828125 -13.1875 
L 8.015625 -13.1875 
Q 14.5 -2 17.703125 9.0625 
Q 20.90625 20.125 20.90625 31.390625 
Q 20.90625 42.671875 17.703125 53.65625 
Q 14.5 64.65625 8.015625 75.875 
z
" id="DejaVuSans-41"/>
      </defs>
      <use xlink:href="#DejaVuSans-77"/>
      <use x="86.279297" xlink:href="#DejaVuSans-105"/>
      <use x="114.0625" xlink:href="#DejaVuSans-110"/>
      <use x="177.441406" xlink:href="#DejaVuSans-105"/>
      <use x="205.224609" xlink:href="#DejaVuSans-109"/>
      <use x="302.636719" xlink:href="#DejaVuSans-117"/>
      <use x="366.015625" xlink:href="#DejaVuSans-109"/>
      <use x="463.427734" xlink:href="#DejaVuSans-32"/>
      <use x="495.214844" xlink:href="#DejaVuSans-67"/>
      <use x="565.039062" xlink:href="#DejaVuSans-117"/>
      <use x="628.417969" xlink:href="#DejaVuSans-114"/>
      <use x="669.53125" xlink:href="#DejaVuSans-118"/>
      <use x="728.710938" xlink:href="#DejaVuSans-97"/>
      <use x="789.990234" xlink:href="#DejaVuSans-116"/>
      <use x="829.199219" xlink:href="#DejaVuSans-117"/>
      <use x="892.578125" xlink:href="#DejaVuSans-114"/>
      <use x="931.441406" xlink:href="#DejaVuSans-101"/>
      <use x="992.964844" xlink:href="#DejaVuSans-32"/>
      <use x="1024.751953" xlink:href="#DejaVuSans-40"/>
      <use x="1063.765625" xlink:href="#DejaVuSans-67"/>
      <use x="1133.589844" xlink:href="#DejaVuSans-41"/>
     </g>
    </g>
    <g id="line2d_24">
     <path d="M 260.462188 98.604813 
L 280.462188 98.604813 
" style="fill:none;stroke:#d62728;stroke-linecap:square;stroke-width:1.5;"/>
    </g>
    <g id="line2d_25"/>
    <g id="text_18">
     <!-- Minimum Curvature (S) -->
     <g transform="translate(288.462188 102.104813)scale(0.1 -0.1)">
      <use xlink:href="#DejaVuSans-77"/>
      <use x="86.279297" xlink:href="#DejaVuSans-105"/>
      <use x="114.0625" xlink:href="#DejaVuSans-110"/>
      <use x="177.441406" xlink:href="#DejaVuSans-105"/>
      <use x="205.224609" xlink:href="#DejaVuSans-109"/>
      <use x="302.636719" xlink:href="#DejaVuSans-117"/>
      <use x="366.015625" xlink:href="#DejaVuSans-109"/>
      <use x="463.427734" xlink:href="#DejaVuSans-32"/>
      <use x="495.214844" xlink:href="#DejaVuSans-67"/>
      <use x="565.039062" xlink:href="#DejaVuSans-117"/>
      <use x="628.417969" xlink:href="#DejaVuSans-114"/>
      <use x="669.53125" xlink:href="#DejaVuSans-118"/>
      <use x="728.710938" xlink:href="#DejaVuSans-97"/>
      <use x="789.990234" xlink:href="#DejaVuSans-116"/>
      <use x="829.199219" xlink:href="#DejaVuSans-117"/>
      <use x="892.578125" xlink:href="#DejaVuSans-114"/>
      <use x="931.441406" xlink:href="#DejaVuSans-101"/>
      <use x="992.964844" xlink:href="#DejaVuSans-32"/>
      <use x="1024.751953" xlink:href="#DejaVuSans-40"/>
      <use x="1063.765625" xlink:href="#DejaVuSans-83"/>
      <use x="1127.242188" xlink:href="#DejaVuSans-41"/>
     </g>
    </g>
   </g>
  </g>
 </g>
 <defs>
  <clipPath id="p3878b9cbb8">
   <rect height="266.112" width="357.12" x="57.6" y="41.472"/>
  </clipPath>
 </defs>
</svg>
