<?xml version="1.0" encoding="utf-8" standalone="no"?>
<!DOCTYPE svg PUBLIC "-//W3C//DTD SVG 1.1//EN"
  "http://www.w3.org/Graphics/SVG/1.1/DTD/svg11.dtd">
<!-- Created with matplotlib (https://matplotlib.org/) -->
<svg height="345.6pt" version="1.1" viewBox="0 0 460.8 345.6" width="460.8pt" xmlns="http://www.w3.org/2000/svg" xmlns:xlink="http://www.w3.org/1999/xlink">
 <metadata>
  <rdf:RDF xmlns:cc="http://creativecommons.org/ns#" xmlns:dc="http://purl.org/dc/elements/1.1/" xmlns:rdf="http://www.w3.org/1999/02/22-rdf-syntax-ns#">
   <cc:Work>
    <dc:type rdf:resource="http://purl.org/dc/dcmitype/StillImage"/>
    <dc:date>2024-09-30T13:44:44.765815</dc:date>
    <dc:format>image/svg+xml</dc:format>
    <dc:creator>
     <cc:Agent>
      <dc:title>Matplotlib v3.3.1, https://matplotlib.org/</dc:title>
     </cc:Agent>
    </dc:creator>
   </cc:Work>
  </rdf:RDF>
 </metadata>
 <defs>
  <style type="text/css">*{stroke-linecap:butt;stroke-linejoin:round;}</style>
 </defs>
 <g id="figure_1">
  <g id="patch_1">
   <path d="M 0 345.6 
L 460.8 345.6 
L 460.8 0 
L 0 0 
z
" style="fill:#ffffff;"/>
  </g>
  <g id="axes_1">
   <g id="patch_2">
    <path d="M 57.6 307.584 
L 414.72 307.584 
L 414.72 41.472 
L 57.6 41.472 
z
" style="fill:#ffffff;"/>
   </g>
   <g id="matplotlib.axis_1">
    <g id="xtick_1">
     <g id="line2d_1">
      <defs>
       <path d="M 0 0 
L 0 3.5 
" id="m0fd3fff760" style="stroke:#000000;stroke-width:0.8;"/>
      </defs>
      <g>
       <use style="stroke:#000000;stroke-width:0.8;" x="73.832727" xlink:href="#m0fd3fff760" y="307.584"/>
      </g>
     </g>
     <g id="text_1">
      <!-- 0.0 -->
      <g transform="translate(65.881165 322.182437)scale(0.1 -0.1)">
       <defs>
        <path d="M 31.78125 66.40625 
Q 24.171875 66.40625 20.328125 58.90625 
Q 16.5 51.421875 16.5 36.375 
Q 16.5 21.390625 20.328125 13.890625 
Q 24.171875 6.390625 31.78125 6.390625 
Q 39.453125 6.390625 43.28125 13.890625 
Q 47.125 21.390625 47.125 36.375 
Q 47.125 51.421875 43.28125 58.90625 
Q 39.453125 66.40625 31.78125 66.40625 
z
M 31.78125 74.21875 
Q 44.046875 74.21875 50.515625 64.515625 
Q 56.984375 54.828125 56.984375 36.375 
Q 56.984375 17.96875 50.515625 8.265625 
Q 44.046875 -1.421875 31.78125 -1.421875 
Q 19.53125 -1.421875 13.0625 8.265625 
Q 6.59375 17.96875 6.59375 36.375 
Q 6.59375 54.828125 13.0625 64.515625 
Q 19.53125 74.21875 31.78125 74.21875 
z
" id="DejaVuSans-48"/>
        <path d="M 10.6875 12.40625 
L 21 12.40625 
L 21 0 
L 10.6875 0 
z
" id="DejaVuSans-46"/>
       </defs>
       <use xlink:href="#DejaVuSans-48"/>
       <use x="63.623047" xlink:href="#DejaVuSans-46"/>
       <use x="95.410156" xlink:href="#DejaVuSans-48"/>
      </g>
     </g>
    </g>
    <g id="xtick_2">
     <g id="line2d_2">
      <g>
       <use style="stroke:#000000;stroke-width:0.8;" x="138.763636" xlink:href="#m0fd3fff760" y="307.584"/>
      </g>
     </g>
     <g id="text_2">
      <!-- 0.2 -->
      <g transform="translate(130.812074 322.182437)scale(0.1 -0.1)">
       <defs>
        <path d="M 19.1875 8.296875 
L 53.609375 8.296875 
L 53.609375 0 
L 7.328125 0 
L 7.328125 8.296875 
Q 12.9375 14.109375 22.625 23.890625 
Q 32.328125 33.6875 34.8125 36.53125 
Q 39.546875 41.84375 41.421875 45.53125 
Q 43.3125 49.21875 43.3125 52.78125 
Q 43.3125 58.59375 39.234375 62.25 
Q 35.15625 65.921875 28.609375 65.921875 
Q 23.96875 65.921875 18.8125 64.3125 
Q 13.671875 62.703125 7.8125 59.421875 
L 7.8125 69.390625 
Q 13.765625 71.78125 18.9375 73 
Q 24.125 74.21875 28.421875 74.21875 
Q 39.75 74.21875 46.484375 68.546875 
Q 53.21875 62.890625 53.21875 53.421875 
Q 53.21875 48.921875 51.53125 44.890625 
Q 49.859375 40.875 45.40625 35.40625 
Q 44.1875 33.984375 37.640625 27.21875 
Q 31.109375 20.453125 19.1875 8.296875 
z
" id="DejaVuSans-50"/>
       </defs>
       <use xlink:href="#DejaVuSans-48"/>
       <use x="63.623047" xlink:href="#DejaVuSans-46"/>
       <use x="95.410156" xlink:href="#DejaVuSans-50"/>
      </g>
     </g>
    </g>
    <g id="xtick_3">
     <g id="line2d_3">
      <g>
       <use style="stroke:#000000;stroke-width:0.8;" x="203.694545" xlink:href="#m0fd3fff760" y="307.584"/>
      </g>
     </g>
     <g id="text_3">
      <!-- 0.4 -->
      <g transform="translate(195.742983 322.182437)scale(0.1 -0.1)">
       <defs>
        <path d="M 37.796875 64.3125 
L 12.890625 25.390625 
L 37.796875 25.390625 
z
M 35.203125 72.90625 
L 47.609375 72.90625 
L 47.609375 25.390625 
L 58.015625 25.390625 
L 58.015625 17.1875 
L 47.609375 17.1875 
L 47.609375 0 
L 37.796875 0 
L 37.796875 17.1875 
L 4.890625 17.1875 
L 4.890625 26.703125 
z
" id="DejaVuSans-52"/>
       </defs>
       <use xlink:href="#DejaVuSans-48"/>
       <use x="63.623047" xlink:href="#DejaVuSans-46"/>
       <use x="95.410156" xlink:href="#DejaVuSans-52"/>
      </g>
     </g>
    </g>
    <g id="xtick_4">
     <g id="line2d_4">
      <g>
       <use style="stroke:#000000;stroke-width:0.8;" x="268.625455" xlink:href="#m0fd3fff760" y="307.584"/>
      </g>
     </g>
     <g id="text_4">
      <!-- 0.6 -->
      <g transform="translate(260.673892 322.182437)scale(0.1 -0.1)">
       <defs>
        <path d="M 33.015625 40.375 
Q 26.375 40.375 22.484375 35.828125 
Q 18.609375 31.296875 18.609375 23.390625 
Q 18.609375 15.53125 22.484375 10.953125 
Q 26.375 6.390625 33.015625 6.390625 
Q 39.65625 6.390625 43.53125 10.953125 
Q 47.40625 15.53125 47.40625 23.390625 
Q 47.40625 31.296875 43.53125 35.828125 
Q 39.65625 40.375 33.015625 40.375 
z
M 52.59375 71.296875 
L 52.59375 62.3125 
Q 48.875 64.0625 45.09375 64.984375 
Q 41.3125 65.921875 37.59375 65.921875 
Q 27.828125 65.921875 22.671875 59.328125 
Q 17.53125 52.734375 16.796875 39.40625 
Q 19.671875 43.65625 24.015625 45.921875 
Q 28.375 48.1875 33.59375 48.1875 
Q 44.578125 48.1875 50.953125 41.515625 
Q 57.328125 34.859375 57.328125 23.390625 
Q 57.328125 12.15625 50.6875 5.359375 
Q 44.046875 -1.421875 33.015625 -1.421875 
Q 20.359375 -1.421875 13.671875 8.265625 
Q 6.984375 17.96875 6.984375 36.375 
Q 6.984375 53.65625 15.1875 63.9375 
Q 23.390625 74.21875 37.203125 74.21875 
Q 40.921875 74.21875 44.703125 73.484375 
Q 48.484375 72.75 52.59375 71.296875 
z
" id="DejaVuSans-54"/>
       </defs>
       <use xlink:href="#DejaVuSans-48"/>
       <use x="63.623047" xlink:href="#DejaVuSans-46"/>
       <use x="95.410156" xlink:href="#DejaVuSans-54"/>
      </g>
     </g>
    </g>
    <g id="xtick_5">
     <g id="line2d_5">
      <g>
       <use style="stroke:#000000;stroke-width:0.8;" x="333.556364" xlink:href="#m0fd3fff760" y="307.584"/>
      </g>
     </g>
     <g id="text_5">
      <!-- 0.8 -->
      <g transform="translate(325.604801 322.182437)scale(0.1 -0.1)">
       <defs>
        <path d="M 31.78125 34.625 
Q 24.75 34.625 20.71875 30.859375 
Q 16.703125 27.09375 16.703125 20.515625 
Q 16.703125 13.921875 20.71875 10.15625 
Q 24.75 6.390625 31.78125 6.390625 
Q 38.8125 6.390625 42.859375 10.171875 
Q 46.921875 13.96875 46.921875 20.515625 
Q 46.921875 27.09375 42.890625 30.859375 
Q 38.875 34.625 31.78125 34.625 
z
M 21.921875 38.8125 
Q 15.578125 40.375 12.03125 44.71875 
Q 8.5 49.078125 8.5 55.328125 
Q 8.5 64.0625 14.71875 69.140625 
Q 20.953125 74.21875 31.78125 74.21875 
Q 42.671875 74.21875 48.875 69.140625 
Q 55.078125 64.0625 55.078125 55.328125 
Q 55.078125 49.078125 51.53125 44.71875 
Q 48 40.375 41.703125 38.8125 
Q 48.828125 37.15625 52.796875 32.3125 
Q 56.78125 27.484375 56.78125 20.515625 
Q 56.78125 9.90625 50.3125 4.234375 
Q 43.84375 -1.421875 31.78125 -1.421875 
Q 19.734375 -1.421875 13.25 4.234375 
Q 6.78125 9.90625 6.78125 20.515625 
Q 6.78125 27.484375 10.78125 32.3125 
Q 14.796875 37.15625 21.921875 38.8125 
z
M 18.3125 54.390625 
Q 18.3125 48.734375 21.84375 45.5625 
Q 25.390625 42.390625 31.78125 42.390625 
Q 38.140625 42.390625 41.71875 45.5625 
Q 45.3125 48.734375 45.3125 54.390625 
Q 45.3125 60.0625 41.71875 63.234375 
Q 38.140625 66.40625 31.78125 66.40625 
Q 25.390625 66.40625 21.84375 63.234375 
Q 18.3125 60.0625 18.3125 54.390625 
z
" id="DejaVuSans-56"/>
       </defs>
       <use xlink:href="#DejaVuSans-48"/>
       <use x="63.623047" xlink:href="#DejaVuSans-46"/>
       <use x="95.410156" xlink:href="#DejaVuSans-56"/>
      </g>
     </g>
    </g>
    <g id="xtick_6">
     <g id="line2d_6">
      <g>
       <use style="stroke:#000000;stroke-width:0.8;" x="398.487273" xlink:href="#m0fd3fff760" y="307.584"/>
      </g>
     </g>
     <g id="text_6">
      <!-- 1.0 -->
      <g transform="translate(390.53571 322.182437)scale(0.1 -0.1)">
       <defs>
        <path d="M 12.40625 8.296875 
L 28.515625 8.296875 
L 28.515625 63.921875 
L 10.984375 60.40625 
L 10.984375 69.390625 
L 28.421875 72.90625 
L 38.28125 72.90625 
L 38.28125 8.296875 
L 54.390625 8.296875 
L 54.390625 0 
L 12.40625 0 
z
" id="DejaVuSans-49"/>
       </defs>
       <use xlink:href="#DejaVuSans-49"/>
       <use x="63.623047" xlink:href="#DejaVuSans-46"/>
       <use x="95.410156" xlink:href="#DejaVuSans-48"/>
      </g>
     </g>
    </g>
   </g>
   <g id="matplotlib.axis_2">
    <g id="ytick_1">
     <g id="line2d_7">
      <defs>
       <path d="M 0 0 
L -3.5 0 
" id="md2cde17c1a" style="stroke:#000000;stroke-width:0.8;"/>
      </defs>
      <g>
       <use style="stroke:#000000;stroke-width:0.8;" x="57.6" xlink:href="#md2cde17c1a" y="290.036688"/>
      </g>
     </g>
     <g id="text_7">
      <!-- −3 -->
      <g transform="translate(35.857813 293.835907)scale(0.1 -0.1)">
       <defs>
        <path d="M 10.59375 35.5 
L 73.1875 35.5 
L 73.1875 27.203125 
L 10.59375 27.203125 
z
" id="DejaVuSans-8722"/>
        <path d="M 40.578125 39.3125 
Q 47.65625 37.796875 51.625 33 
Q 55.609375 28.21875 55.609375 21.1875 
Q 55.609375 10.40625 48.1875 4.484375 
Q 40.765625 -1.421875 27.09375 -1.421875 
Q 22.515625 -1.421875 17.65625 -0.515625 
Q 12.796875 0.390625 7.625 2.203125 
L 7.625 11.71875 
Q 11.71875 9.328125 16.59375 8.109375 
Q 21.484375 6.890625 26.8125 6.890625 
Q 36.078125 6.890625 40.9375 10.546875 
Q 45.796875 14.203125 45.796875 21.1875 
Q 45.796875 27.640625 41.28125 31.265625 
Q 36.765625 34.90625 28.71875 34.90625 
L 20.21875 34.90625 
L 20.21875 43.015625 
L 29.109375 43.015625 
Q 36.375 43.015625 40.234375 45.921875 
Q 44.09375 48.828125 44.09375 54.296875 
Q 44.09375 59.90625 40.109375 62.90625 
Q 36.140625 65.921875 28.71875 65.921875 
Q 24.65625 65.921875 20.015625 65.03125 
Q 15.375 64.15625 9.8125 62.3125 
L 9.8125 71.09375 
Q 15.4375 72.65625 20.34375 73.4375 
Q 25.25 74.21875 29.59375 74.21875 
Q 40.828125 74.21875 47.359375 69.109375 
Q 53.90625 64.015625 53.90625 55.328125 
Q 53.90625 49.265625 50.4375 45.09375 
Q 46.96875 40.921875 40.578125 39.3125 
z
" id="DejaVuSans-51"/>
       </defs>
       <use xlink:href="#DejaVuSans-8722"/>
       <use x="83.789062" xlink:href="#DejaVuSans-51"/>
      </g>
     </g>
    </g>
    <g id="ytick_2">
     <g id="line2d_8">
      <g>
       <use style="stroke:#000000;stroke-width:0.8;" x="57.6" xlink:href="#md2cde17c1a" y="251.533844"/>
      </g>
     </g>
     <g id="text_8">
      <!-- −2 -->
      <g transform="translate(35.857813 255.333063)scale(0.1 -0.1)">
       <use xlink:href="#DejaVuSans-8722"/>
       <use x="83.789062" xlink:href="#DejaVuSans-50"/>
      </g>
     </g>
    </g>
    <g id="ytick_3">
     <g id="line2d_9">
      <g>
       <use style="stroke:#000000;stroke-width:0.8;" x="57.6" xlink:href="#md2cde17c1a" y="213.031001"/>
      </g>
     </g>
     <g id="text_9">
      <!-- −1 -->
      <g transform="translate(35.857813 216.83022)scale(0.1 -0.1)">
       <use xlink:href="#DejaVuSans-8722"/>
       <use x="83.789062" xlink:href="#DejaVuSans-49"/>
      </g>
     </g>
    </g>
    <g id="ytick_4">
     <g id="line2d_10">
      <g>
       <use style="stroke:#000000;stroke-width:0.8;" x="57.6" xlink:href="#md2cde17c1a" y="174.528158"/>
      </g>
     </g>
     <g id="text_10">
      <!-- 0 -->
      <g transform="translate(44.2375 178.327377)scale(0.1 -0.1)">
       <use xlink:href="#DejaVuSans-48"/>
      </g>
     </g>
    </g>
    <g id="ytick_5">
     <g id="line2d_11">
      <g>
       <use style="stroke:#000000;stroke-width:0.8;" x="57.6" xlink:href="#md2cde17c1a" y="136.025314"/>
      </g>
     </g>
     <g id="text_11">
      <!-- 1 -->
      <g transform="translate(44.2375 139.824533)scale(0.1 -0.1)">
       <use xlink:href="#DejaVuSans-49"/>
      </g>
     </g>
    </g>
    <g id="ytick_6">
     <g id="line2d_12">
      <g>
       <use style="stroke:#000000;stroke-width:0.8;" x="57.6" xlink:href="#md2cde17c1a" y="97.522471"/>
      </g>
     </g>
     <g id="text_12">
      <!-- 2 -->
      <g transform="translate(44.2375 101.32169)scale(0.1 -0.1)">
       <use xlink:href="#DejaVuSans-50"/>
      </g>
     </g>
    </g>
    <g id="ytick_7">
     <g id="line2d_13">
      <g>
       <use style="stroke:#000000;stroke-width:0.8;" x="57.6" xlink:href="#md2cde17c1a" y="59.019628"/>
      </g>
     </g>
     <g id="text_13">
      <!-- 3 -->
      <g transform="translate(44.2375 62.818846)scale(0.1 -0.1)">
       <use xlink:href="#DejaVuSans-51"/>
      </g>
     </g>
    </g>
   </g>
   <g id="line2d_14">
    <path clip-path="url(#pe6edf441d6)" d="M 73.832727 174.479547 
L 82.820422 174.473613 
L 82.958693 175.032942 
L 83.096962 173.953652 
L 83.23524 171.843932 
L 83.37351 172.303081 
L 83.650052 175.149488 
L 83.788325 174.596989 
L 84.06487 174.664722 
L 86.415497 174.67006 
L 103.422982 174.733958 
L 103.561249 173.922098 
L 103.699507 174.59609 
L 103.837803 175.861862 
L 103.97606 174.801797 
L 104.114345 174.908931 
L 104.390888 180.380944 
L 104.529154 180.714388 
L 104.8057 180.449635 
L 104.94397 179.824401 
L 105.220516 181.743089 
L 105.911873 192.264809 
L 106.050145 191.743841 
L 106.326698 187.794206 
L 106.603234 191.621229 
L 106.741498 191.378267 
L 106.879782 191.882346 
L 107.018015 193.579463 
L 107.156431 197.177311 
L 107.432928 211.622957 
L 107.57111 211.557601 
L 107.847668 212.397799 
L 108.124201 211.019787 
L 108.262482 211.676948 
L 108.539038 208.771408 
L 109.368591 232.429256 
L 109.921689 232.422755 
L 110.059962 232.628758 
L 110.336501 231.604289 
L 110.474782 231.614233 
L 110.751311 229.677179 
L 111.027853 228.526164 
L 111.166137 229.408052 
L 111.44266 232.020603 
L 111.580936 231.811234 
L 111.857483 228.591373 
L 111.995744 228.616248 
L 112.134019 229.11474 
L 112.272271 228.304228 
L 112.687112 221.106088 
L 112.825367 221.802349 
L 113.101907 220.967416 
L 113.240176 219.600131 
L 113.516733 214.470686 
L 113.793266 211.914547 
L 114.208076 211.601645 
L 114.346359 211.164562 
L 114.761166 206.418099 
L 115.175974 198.152407 
L 115.314243 198.071765 
L 115.590784 198.232216 
L 115.729046 198.568118 
L 116.143861 197.991962 
L 116.28214 196.519522 
L 116.420394 196.878776 
L 116.55867 196.856781 
L 116.835224 195.679706 
L 117.25003 188.468927 
L 117.526572 188.439546 
L 117.664848 188.776293 
L 117.941394 190.512305 
L 118.079658 190.056343 
L 118.217931 190.013208 
L 118.356205 190.292303 
L 118.632749 189.900944 
L 118.771013 190.335499 
L 118.909276 190.058257 
L 119.185827 189.32131 
L 119.324108 188.951213 
L 119.462364 189.772207 
L 119.600632 189.372244 
L 119.738919 188.078281 
L 120.153729 188.340165 
L 120.292002 188.719885 
L 120.706815 188.381993 
L 120.845095 188.030561 
L 120.983351 188.875147 
L 121.259902 189.111325 
L 121.398173 190.291733 
L 121.674719 190.077966 
L 121.812987 191.094915 
L 121.951252 191.025349 
L 122.089535 191.200029 
L 122.366071 192.831181 
L 122.504341 193.277093 
L 122.642618 194.350935 
L 122.780899 193.855768 
L 123.057433 191.622736 
L 123.195703 192.888471 
L 123.333973 192.944815 
L 123.472247 192.377518 
L 123.610527 192.611059 
L 123.887065 194.833596 
L 124.025326 195.29928 
L 124.163602 195.354224 
L 124.301853 195.675904 
L 124.440177 197.183078 
L 124.7167 205.383189 
L 124.854952 205.531928 
L 124.993198 203.37639 
L 125.131509 203.250707 
L 125.546283 211.414898 
L 125.684582 212.007531 
L 125.961121 208.539658 
L 126.099382 208.624202 
L 126.514199 210.5348 
L 126.929 214.30743 
L 127.343808 214.768822 
L 127.482086 215.280335 
L 127.620357 216.58345 
L 127.896905 221.000001 
L 128.035171 221.64638 
L 128.173445 221.659383 
L 128.449985 220.417079 
L 128.588276 220.889906 
L 128.8648 223.829029 
L 129.279612 224.19217 
L 129.556172 225.326166 
L 129.832696 228.268306 
L 129.970959 227.686778 
L 130.109249 227.818797 
L 130.385766 230.431117 
L 130.524042 231.089541 
L 130.800583 233.764786 
L 131.077117 235.497118 
L 131.353659 235.208776 
L 131.491937 235.022897 
L 132.321545 241.404044 
L 132.598089 239.504641 
L 132.736353 239.822878 
L 132.874629 239.718395 
L 133.012885 240.266331 
L 133.565963 246.50747 
L 133.704259 246.868081 
L 133.842496 245.724473 
L 133.980759 245.69953 
L 134.395587 247.437296 
L 134.948668 251.963223 
L 135.086936 252.320813 
L 135.363487 251.055088 
L 135.778267 253.068148 
L 136.05483 255.841334 
L 136.746177 261.661037 
L 136.88444 261.843211 
L 137.022728 262.651129 
L 137.299263 266.05975 
L 137.5758 265.83042 
L 137.990617 265.863105 
L 138.681982 265.766956 
L 138.820235 266.472682 
L 138.958504 266.474158 
L 139.096781 265.968615 
L 139.235056 265.913497 
L 139.788119 269.845416 
L 140.064645 270.649582 
L 140.755997 276.038882 
L 140.894271 275.557568 
L 141.03253 276.024369 
L 141.170785 275.15542 
L 141.447343 272.995365 
L 141.585627 274.208508 
L 141.862166 277.532267 
L 142.138704 276.979854 
L 142.415247 273.688139 
L 142.553501 274.160692 
L 143.244853 281.103166 
L 143.383128 281.00607 
L 143.659678 279.472863 
L 144.212762 280.815477 
L 144.627575 282.460712 
L 144.904122 283.499206 
L 145.04239 283.155093 
L 145.318915 284.580749 
L 145.595446 284.721262 
L 145.733718 284.643834 
L 146.148537 284.990779 
L 146.286809 284.940095 
L 146.563352 285.092993 
L 146.839884 286.001239 
L 147.392932 292.100978 
L 147.531223 292.900029 
L 147.669491 292.960624 
L 147.946022 291.46731 
L 148.360833 295.11999 
L 148.499105 294.905229 
L 148.637376 295.114512 
L 148.775653 294.811463 
L 148.913917 294.106988 
L 149.052172 294.416024 
L 149.190442 294.163364 
L 149.328731 293.415238 
L 149.605266 294.308993 
L 149.743538 294.204858 
L 150.158355 294.236349 
L 153.476889 294.227559 
L 153.753439 295.459254 
L 153.891686 294.797034 
L 154.029951 295.099094 
L 154.168239 53.884843 
L 154.306506 53.616527 
L 154.44478 295.446977 
L 154.859596 295.476957 
L 162.326296 295.468188 
L 162.464568 53.571649 
L 162.602841 295.452591 
L 162.74111 295.221526 
L 162.879367 53.929999 
L 163.017659 54.379462 
L 163.155922 53.869695 
L 163.432453 55.509268 
L 163.57072 55.222107 
L 164.262082 55.244029 
L 165.368262 55.157261 
L 165.506527 54.779394 
L 165.921322 59.308525 
L 166.059578 58.77726 
L 166.474345 63.27063 
L 166.750879 63.97216 
L 166.88922 65.538354 
L 167.165702 70.492507 
L 167.303977 71.446977 
L 167.718718 75.980835 
L 167.995284 77.735184 
L 168.271813 82.685789 
L 168.410098 83.211075 
L 168.548371 82.873474 
L 168.686641 83.466821 
L 168.824912 85.057325 
L 169.239725 94.666232 
L 169.377953 95.244898 
L 169.516267 94.887684 
L 169.654478 93.007286 
L 169.79288 93.628071 
L 170.069331 100.121324 
L 170.345844 100.679663 
L 170.484114 101.446622 
L 170.898919 110.530831 
L 171.037186 110.177589 
L 171.313707 108.813 
L 171.728505 114.931446 
L 171.866797 114.763978 
L 172.281571 119.793634 
L 172.558143 118.284196 
L 172.834673 122.260731 
L 172.97291 122.070795 
L 173.111188 122.10635 
L 173.24946 122.995578 
L 173.664254 129.755917 
L 173.940802 130.908395 
L 174.079061 130.394914 
L 174.217281 131.081668 
L 174.355622 132.533047 
L 174.770384 139.191356 
L 175.046918 141.458492 
L 175.185214 140.792145 
L 175.461706 138.85552 
L 175.738229 140.205149 
L 176.153053 145.39205 
L 176.291318 145.172416 
L 176.56787 146.177282 
L 176.70612 146.932667 
L 176.844386 146.864744 
L 176.982642 146.434989 
L 177.120984 147.015303 
L 177.397446 152.684304 
L 177.673944 153.361827 
L 177.950482 153.470425 
L 178.08877 154.298006 
L 178.3653 159.050531 
L 178.503557 157.788135 
L 178.780099 154.595711 
L 179.056632 157.764033 
L 179.194923 159.044991 
L 179.33317 158.016557 
L 179.471449 156.142921 
L 179.609784 156.248462 
L 180.024503 165.353784 
L 180.301046 163.752776 
L 180.439305 165.168078 
L 180.715852 170.120589 
L 181.130645 172.285528 
L 181.407215 172.533484 
L 181.683741 170.423957 
L 181.960269 173.934786 
L 182.236801 173.414592 
L 182.375072 173.5404 
L 182.789889 173.506186 
L 183.342981 173.489578 
L 183.481238 173.931856 
L 183.619544 173.554651 
L 183.896092 171.119134 
L 184.172605 174.259572 
L 184.449135 173.686707 
L 184.725679 173.732316 
L 185.831856 173.856459 
L 186.108389 171.532277 
L 186.246696 171.909167 
L 186.523196 174.593142 
L 186.661461 174.169349 
L 190.947901 174.184797 
L 194.266445 174.086499 
L 194.542949 172.969637 
L 194.681217 172.403111 
L 195.510811 154.201221 
L 195.787335 153.763627 
L 195.925612 153.750931 
L 196.202158 151.545379 
L 197.03167 133.867317 
L 197.308275 125.483952 
L 197.446535 125.148935 
L 197.861374 121.854454 
L 197.999527 120.074963 
L 198.552638 106.579191 
L 198.690898 107.165732 
L 198.96739 106.495567 
L 199.1058 103.939491 
L 199.382266 95.492965 
L 199.520416 93.902452 
L 199.658694 93.76584 
L 199.796982 93.011495 
L 200.350055 83.64569 
L 200.488331 82.1638 
L 200.764901 83.058905 
L 201.041405 80.219906 
L 201.179649 79.981716 
L 201.317909 80.109998 
L 201.73268 78.649784 
L 201.870945 78.538709 
L 202.147488 75.486269 
L 202.562278 75.728543 
L 202.700551 75.797201 
L 202.838824 75.738978 
L 202.977095 76.16264 
L 203.115384 76.133176 
L 203.391864 74.920405 
L 203.530132 75.14015 
L 203.668375 75.659821 
L 203.806674 75.526767 
L 203.944936 74.745912 
L 204.359696 75.549234 
L 204.774515 73.857415 
L 204.912753 73.179343 
L 205.327552 73.929484 
L 205.465813 73.608061 
L 205.604094 73.753789 
L 205.74237 74.07749 
L 205.880618 73.728548 
L 206.157136 73.7404 
L 206.433676 75.389761 
L 206.848481 74.177133 
L 206.986751 74.22219 
L 207.263296 75.417038 
L 207.678067 73.648477 
L 207.954608 71.691571 
L 208.09285 71.266298 
L 208.231181 72.07908 
L 208.507684 75.67962 
L 208.784217 74.787659 
L 208.922487 74.837327 
L 209.199027 75.841024 
L 209.337308 75.483494 
L 209.613849 72.149292 
L 209.890364 72.788141 
L 210.166878 73.410734 
L 210.305146 72.950159 
L 210.581674 69.886194 
L 210.719941 69.93182 
L 210.858207 70.178067 
L 210.996533 71.008069 
L 211.273019 74.179562 
L 211.411266 74.219702 
L 211.826067 70.878192 
L 211.964301 70.406035 
L 212.102575 70.786403 
L 212.240858 71.700337 
L 212.517398 71.602852 
L 212.793935 72.50452 
L 212.932224 71.292625 
L 213.208769 67.58669 
L 213.347004 68.004023 
L 213.485264 67.936692 
L 213.761783 67.118664 
L 214.038316 66.316006 
L 214.31483 70.74544 
L 214.453136 70.295039 
L 214.729652 64.772693 
L 215.006235 65.457818 
L 215.42094 62.516518 
L 215.697526 63.281027 
L 215.974028 60.673633 
L 216.112279 60.95165 
L 216.250592 60.194192 
L 216.388785 58.659705 
L 216.527082 58.642872 
L 216.665347 59.699995 
L 216.803663 59.296828 
L 216.941835 57.846194 
L 217.080122 57.67794 
L 217.218385 58.071944 
L 217.633165 55.427911 
L 217.771438 55.901305 
L 218.04799 55.313832 
L 218.324488 57.799575 
L 218.600995 54.694358 
L 218.739256 54.826283 
L 218.87754 55.190881 
L 219.01581 55.065997 
L 219.154084 55.148276 
L 219.292353 54.714225 
L 219.430654 54.838276 
L 219.707166 56.839846 
L 219.845408 54.776045 
L 219.98369 295.243326 
L 220.121942 295.447025 
L 220.260222 53.733355 
L 220.398493 53.634419 
L 220.81331 53.666986 
L 221.228128 53.640426 
L 221.366395 295.306182 
L 221.504674 53.814544 
L 221.642955 54.128694 
L 221.78116 294.927513 
L 221.919472 294.692576 
L 222.057728 53.58882 
L 222.196002 53.629057 
L 222.334275 295.449984 
L 222.472547 53.572772 
L 222.610819 295.476532 
L 223.993542 295.460736 
L 224.131813 53.608821 
L 224.270089 295.3656 
L 224.408355 295.151156 
L 224.546595 53.810597 
L 224.6849 295.333564 
L 224.82315 294.418303 
L 224.9614 294.504234 
L 225.099637 293.494262 
L 225.791052 283.341893 
L 226.067541 277.562804 
L 226.34407 276.256345 
L 226.89707 266.073131 
L 227.173607 266.26303 
L 227.311899 265.880356 
L 227.450114 263.67202 
L 227.864974 252.192178 
L 228.141486 253.945952 
L 228.832861 245.875118 
L 229.109369 241.022086 
L 229.247534 242.022425 
L 229.38585 241.979672 
L 229.80062 238.882591 
L 229.938902 239.324021 
L 230.077167 240.442127 
L 230.215494 239.624308 
L 230.491976 236.989793 
L 230.630237 237.576502 
L 230.906783 237.075253 
L 231.321585 240.092692 
L 231.598185 237.846157 
L 231.874638 242.780268 
L 232.012864 243.361895 
L 232.151128 243.137633 
L 232.289413 242.360336 
L 232.427684 242.249996 
L 232.704174 245.131997 
L 232.980703 245.439297 
L 233.118973 246.246961 
L 233.395494 250.575225 
L 234.08682 252.709289 
L 234.225091 252.341014 
L 234.363366 252.393596 
L 234.639906 253.390162 
L 234.778178 253.389054 
L 235.054715 254.259551 
L 235.331261 256.394352 
L 235.469508 256.247049 
L 235.607761 256.301285 
L 236.022581 253.521537 
L 236.160824 253.791031 
L 236.299158 254.690207 
L 236.575619 257.931969 
L 236.852144 257.944084 
L 237.128678 258.047317 
L 237.543441 258.625728 
L 237.819991 256.029267 
L 238.096509 256.073068 
L 238.373031 255.511999 
L 238.64956 257.109095 
L 238.926098 257.172384 
L 239.479161 257.338405 
L 239.617396 257.990909 
L 239.755697 257.77722 
L 239.893959 257.158462 
L 240.170476 257.444726 
L 240.861825 257.461853 
L 241.691431 257.551317 
L 241.96795 257.773141 
L 242.244494 259.771545 
L 242.521026 257.817888 
L 242.659279 258.13403 
L 243.350639 258.155991 
L 244.041968 258.484943 
L 244.18023 258.516021 
L 244.318473 258.029829 
L 244.456781 258.483285 
L 244.595023 259.465036 
L 244.871544 259.581292 
L 245.009819 259.997727 
L 245.148087 259.932901 
L 245.424596 257.926317 
L 245.562844 258.016336 
L 245.701172 258.751601 
L 245.977636 261.012072 
L 246.115894 260.933963 
L 246.392449 259.855377 
L 246.807198 261.394639 
L 247.083722 260.628549 
L 247.221977 260.838624 
L 247.498504 264.950102 
L 247.913289 266.704423 
L 248.051557 266.579281 
L 248.604651 266.665647 
L 248.742906 266.368734 
L 248.88126 267.251893 
L 249.572394 279.786732 
L 249.987186 276.658952 
L 250.125441 276.809453 
L 250.401991 278.430903 
L 250.816804 271.507997 
L 251.093358 279.084014 
L 251.369838 284.612678 
L 251.784597 289.818958 
L 251.922842 289.429534 
L 252.199351 291.577238 
L 252.337584 290.983136 
L 252.475871 291.173929 
L 252.61419 293.786099 
L 252.752385 53.958151 
L 252.890651 53.860802 
L 253.02893 53.587767 
L 253.305474 53.658702 
L 253.443748 53.711221 
L 253.582011 295.242337 
L 253.720339 53.951726 
L 253.996809 58.008147 
L 254.135107 57.46811 
L 254.273278 56.102298 
L 254.411636 57.319342 
L 254.688134 61.777687 
L 254.826404 61.573353 
L 254.964652 60.273949 
L 255.102957 60.030558 
L 256.070761 64.663624 
L 256.347303 64.818033 
L 256.485563 64.704207 
L 256.623872 65.600593 
L 256.900387 68.840617 
L 257.038655 68.798719 
L 257.176921 69.119448 
L 257.453439 74.058475 
L 257.591703 74.440193 
L 257.72997 74.248095 
L 257.8682 73.729123 
L 258.144745 73.734016 
L 258.283017 73.830481 
L 258.559544 72.927784 
L 258.836068 73.478217 
L 258.974334 73.438449 
L 259.112589 72.697687 
L 259.250899 72.828639 
L 259.80393 75.322707 
L 260.080452 74.623714 
L 260.218725 74.783689 
L 260.35694 75.50401 
L 260.495215 75.312304 
L 260.633494 75.350533 
L 260.771788 75.184279 
L 260.909987 74.137319 
L 261.186567 75.285854 
L 261.463064 74.84949 
L 261.601328 74.98722 
L 261.739556 75.51589 
L 262.016138 74.709733 
L 262.15435 75.57192 
L 262.430896 75.268424 
L 262.569166 75.438661 
L 262.707443 76.153484 
L 262.84573 76.226829 
L 262.98395 75.521179 
L 263.122207 75.757901 
L 263.398762 74.382176 
L 263.67528 74.652888 
L 263.813519 74.908865 
L 264.090065 73.291883 
L 264.3666 73.409383 
L 264.64315 72.674118 
L 264.919651 73.740284 
L 265.057919 73.605983 
L 265.196168 73.31523 
L 265.472725 75.036076 
L 265.610974 74.924197 
L 265.74921 75.769969 
L 265.887515 75.779199 
L 266.025784 75.577708 
L 266.164014 76.052148 
L 266.440554 74.924162 
L 266.578822 74.917504 
L 266.717094 75.253971 
L 266.855392 74.910379 
L 266.99359 73.859451 
L 267.270166 75.265456 
L 267.546667 74.962384 
L 267.684937 75.184695 
L 267.823152 76.033212 
L 268.099734 75.723875 
L 268.237972 76.193064 
L 268.376214 75.530922 
L 268.514503 75.561268 
L 268.652798 75.363795 
L 268.791009 74.459291 
L 268.929281 74.338149 
L 269.067551 74.507805 
L 269.205797 74.937895 
L 269.620607 73.11914 
L 269.758863 73.139486 
L 269.897136 72.890955 
L 270.035363 72.397163 
L 270.588406 75.137723 
L 270.726682 75.14893 
L 271.003216 74.495107 
L 271.279774 75.529326 
L 271.418012 75.152316 
L 271.556258 75.47295 
L 271.83283 74.156434 
L 271.971039 75.154 
L 272.109335 75.210379 
L 272.247605 74.870113 
L 272.385873 74.878836 
L 272.662416 75.584536 
L 272.800638 74.864962 
L 273.077218 75.425634 
L 273.215451 74.845415 
L 273.353699 75.032787 
L 273.630254 73.205671 
L 273.768517 73.108695 
L 273.906754 72.797115 
L 274.183301 74.53558 
L 274.459839 74.38725 
L 274.598107 74.598936 
L 274.874637 73.565024 
L 275.012894 73.747578 
L 275.151152 73.724932 
L 275.42771 75.306403 
L 275.565955 75.085041 
L 275.704195 75.672983 
L 275.980771 74.876976 
L 276.118988 75.617373 
L 276.533811 74.879383 
L 276.672087 75.286811 
L 276.810374 75.115845 
L 276.948577 74.171474 
L 277.225153 75.610899 
L 277.3634 75.40466 
L 277.501637 75.909758 
L 277.778201 74.820783 
L 277.916464 74.798924 
L 278.192982 73.396607 
L 278.331249 73.660879 
L 278.469515 73.661421 
L 278.746055 72.376581 
L 279.160867 74.079796 
L 279.299111 75.024742 
L 279.437363 74.921599 
L 279.575606 75.442937 
L 279.852175 74.436716 
L 279.990402 75.039594 
L 280.128673 74.431419 
L 280.266986 74.549176 
L 280.405197 75.517588 
L 280.543465 75.32297 
L 280.681743 75.668448 
L 280.820038 75.545463 
L 280.958258 74.747415 
L 281.096515 74.900848 
L 281.373068 73.058717 
L 281.649585 73.098288 
L 281.787833 73.356234 
L 281.926096 72.886282 
L 282.064384 72.828549 
L 282.202644 72.960038 
L 282.340943 73.488348 
L 282.479136 74.711918 
L 282.617424 74.747054 
L 282.893975 75.610769 
L 283.032207 75.060188 
L 283.170475 75.506902 
L 283.447019 74.637922 
L 283.723559 76.453289 
L 283.861828 76.440104 
L 284.000057 76.645036 
L 284.414871 71.957528 
L 284.55314 72.160461 
L 284.691414 72.13246 
L 284.829676 71.680503 
L 285.521022 75.303656 
L 285.659274 75.184441 
L 285.79751 75.593194 
L 286.212331 73.92464 
L 286.350601 73.924265 
L 286.627134 74.701306 
L 287.041934 72.033737 
L 287.180192 72.074463 
L 287.318451 72.34235 
L 287.456707 72.172316 
L 287.595032 73.290459 
L 287.871543 76.106771 
L 288.148067 76.110724 
L 288.286283 74.923075 
L 288.424621 75.276012 
L 288.56284 76.24614 
L 288.701102 76.071805 
L 288.839359 76.362455 
L 288.977675 75.351775 
L 289.254193 70.860938 
L 289.668973 70.720144 
L 289.807201 70.536452 
L 290.222032 74.810512 
L 290.360277 74.088979 
L 291.604692 59.607781 
L 291.742959 58.491969 
L 291.881227 56.066436 
L 292.019501 294.810375 
L 292.572438 281.545692 
L 292.987338 261.036509 
L 293.263753 256.050139 
L 293.955079 237.915802 
L 294.093299 237.932932 
L 294.231666 236.007287 
L 294.508164 229.897726 
L 294.784675 227.763313 
L 294.922953 228.176763 
L 295.061224 228.099363 
L 295.475936 222.8949 
L 295.752495 224.145116 
L 296.029036 222.577226 
L 296.167305 222.556136 
L 296.305582 222.345934 
L 296.44384 221.91861 
L 296.720377 223.941668 
L 296.996903 223.567689 
L 297.135169 223.731422 
L 297.273432 223.580167 
L 297.549964 221.396827 
L 297.688213 221.909654 
L 297.826491 221.849973 
L 297.964754 221.375891 
L 298.379542 223.701379 
L 298.517807 223.467316 
L 298.794331 223.726491 
L 299.070882 221.343037 
L 299.209131 221.689864 
L 299.347398 221.601391 
L 299.485678 220.961071 
L 299.623962 221.192077 
L 299.762164 222.24498 
L 299.900447 222.297401 
L 300.591785 219.952303 
L 300.730053 220.806155 
L 300.868348 220.947637 
L 301.006566 219.30708 
L 301.421421 210.730467 
L 301.559657 210.394926 
L 301.836118 212.506049 
L 302.250981 203.145259 
L 302.389343 201.526642 
L 302.665773 195.506786 
L 302.942287 193.504887 
L 303.08059 192.631734 
L 303.357091 189.960115 
L 303.633615 192.90848 
L 304.324976 189.866806 
L 304.739793 190.97403 
L 304.878061 190.887902 
L 305.016348 191.248427 
L 305.292887 194.197504 
L 305.569398 197.530258 
L 305.707656 197.207764 
L 305.984214 194.912202 
L 306.398973 196.683053 
L 307.228575 206.898039 
L 307.366825 206.008587 
L 307.505155 207.074679 
L 308.058119 219.201404 
L 308.33471 222.476036 
L 308.749497 223.72269 
L 308.887838 225.436597 
L 309.164329 230.334882 
L 309.302554 229.390988 
L 309.440836 229.817944 
L 309.855647 238.145426 
L 310.132174 235.691434 
L 310.823512 244.724193 
L 311.238332 246.08502 
L 311.514876 248.420449 
L 312.068064 255.293487 
L 312.344482 260.595593 
L 312.621007 261.714885 
L 312.897548 263.937948 
L 313.035808 263.52534 
L 313.174087 263.469266 
L 313.312346 263.194614 
L 313.450683 264.570797 
L 313.727164 269.508834 
L 314.141944 270.267385 
L 314.971575 283.291203 
L 315.109804 284.05837 
L 315.248081 283.772149 
L 315.386373 284.404649 
L 315.801174 289.047515 
L 315.939425 288.477702 
L 316.077681 289.873745 
L 316.216036 294.213859 
L 316.354191 57.186373 
L 316.492518 59.859438 
L 316.630799 59.658527 
L 316.769048 59.063726 
L 317.045597 61.056796 
L 317.183838 62.178874 
L 317.460385 60.504479 
L 317.73692 64.029217 
L 318.013482 62.859144 
L 318.151711 64.346448 
L 318.428281 63.634425 
L 318.704814 65.213121 
L 318.843078 65.319502 
L 319.257886 66.202545 
L 319.396153 66.148768 
L 319.672683 65.767372 
L 319.949217 65.299537 
L 320.225731 67.387339 
L 320.36401 67.261631 
L 320.502281 66.871884 
L 320.77881 67.564753 
L 321.055375 65.966094 
L 321.470155 66.98063 
L 321.608419 66.758742 
L 321.746676 67.31505 
L 322.16149 64.642084 
L 322.299758 64.885185 
L 322.576287 64.655522 
L 322.852843 67.175306 
L 322.991101 67.065063 
L 323.129356 67.707693 
L 323.544176 66.737156 
L 323.820729 67.753375 
L 324.235512 66.409118 
L 324.7886 67.928746 
L 324.926837 66.534105 
L 325.341673 66.091171 
L 325.618202 67.301106 
L 325.756452 67.523741 
L 326.033003 65.237965 
L 326.309555 67.102123 
L 326.44782 67.224778 
L 326.58606 68.698144 
L 326.724353 68.798184 
L 326.862631 69.072037 
L 327.000875 69.845127 
L 327.139142 69.588108 
L 327.277445 70.717833 
L 327.553973 75.225626 
L 328.245284 79.04133 
L 328.936653 95.001744 
L 329.213223 97.613091 
L 329.48974 104.448753 
L 329.766278 107.746385 
L 330.042815 113.136197 
L 330.1811 113.234698 
L 330.595917 113.170108 
L 330.734176 112.738516 
L 330.872505 114.247878 
L 331.01069 117.097329 
L 331.149002 117.518069 
L 331.287257 116.209757 
L 331.425541 116.030842 
L 331.563801 116.539856 
L 332.116891 116.416563 
L 332.255164 115.851813 
L 332.531711 116.139994 
L 332.669971 115.760465 
L 332.946508 116.221448 
L 333.223052 118.441504 
L 333.361335 118.871738 
L 333.499578 119.816077 
L 333.637843 119.865453 
L 333.914356 115.982571 
L 334.190925 118.308956 
L 334.467464 118.594588 
L 334.605735 117.948102 
L 334.744034 118.578916 
L 334.882265 119.887398 
L 335.020543 119.520568 
L 335.297099 117.550244 
L 335.435345 118.439389 
L 335.573627 118.576823 
L 335.711889 118.070543 
L 335.988439 115.575686 
L 336.264962 117.817743 
L 336.541492 113.049272 
L 336.818056 113.175042 
L 336.956337 113.567404 
L 337.09461 112.951635 
L 337.509496 101.136886 
L 338.20073 73.024307 
L 338.339018 71.081085 
L 338.477277 71.554324 
L 338.753837 75.412606 
L 339.03038 71.550117 
L 339.99823 77.404449 
L 340.413065 85.673905 
L 340.689584 87.542562 
L 340.82791 90.455569 
L 341.104421 99.344117 
L 341.242667 101.082857 
L 341.795746 114.78118 
L 341.934041 114.924491 
L 342.072306 114.659573 
L 342.487124 114.705594 
L 342.901941 114.746877 
L 343.040212 114.60307 
L 343.316752 115.856802 
L 343.455024 115.048258 
L 343.731574 115.342679 
L 343.869833 114.502076 
L 344.00811 114.424986 
L 344.284653 114.492042 
L 344.422925 114.463561 
L 344.561198 114.568159 
L 344.699472 114.108805 
L 344.837761 114.763226 
L 345.114281 117.800117 
L 345.667364 115.485802 
L 345.805667 116.477449 
L 346.082173 119.435666 
L 346.358719 118.073363 
L 346.496978 118.648527 
L 346.773529 117.620999 
L 346.911796 118.219299 
L 347.050075 118.122576 
L 347.188336 118.592684 
L 347.603164 125.649593 
L 347.741429 125.894225 
L 348.156248 127.518334 
L 348.432784 128.777629 
L 348.709327 131.166873 
L 348.985875 128.958543 
L 349.124128 130.815609 
L 349.40067 138.379981 
L 349.815493 142.388465 
L 350.092045 138.63208 
L 350.368574 137.752258 
L 350.506857 138.934687 
L 350.645144 138.648792 
L 350.783389 137.45386 
L 351.059937 137.738191 
L 351.198211 137.595379 
L 351.336478 138.071654 
L 351.889575 146.07958 
L 352.027832 146.782206 
L 352.304376 152.348239 
L 352.580926 153.041883 
L 352.719196 153.103535 
L 353.410541 159.502137 
L 353.687089 156.743267 
L 353.825374 157.167263 
L 353.96363 158.250051 
L 354.101919 157.494741 
L 354.240186 158.003885 
L 354.516722 163.409826 
L 354.931522 164.910496 
L 355.208064 170.852162 
L 355.484621 171.434382 
L 355.622904 170.83938 
L 355.761158 169.517995 
L 355.899443 170.081298 
L 356.037716 170.046277 
L 356.175979 169.35671 
L 356.314241 170.438179 
L 356.590791 174.944115 
L 356.729062 174.490292 
L 357.420423 174.47947 
L 398.487273 174.479547 
L 398.487273 174.479547 
" style="fill:none;stroke:#1f77b4;stroke-linecap:square;stroke-width:1.5;"/>
   </g>
   <g id="line2d_15">
    <path clip-path="url(#pe6edf441d6)" d="M 73.832727 174.298323 
L 83.471426 174.347551 
L 83.903009 174.917217 
L 84.190731 175.008139 
L 85.917065 175.017109 
L 104.619017 175.028561 
L 104.762878 175.177023 
L 105.482102 180.947567 
L 105.769824 181.399491 
L 105.913685 181.600158 
L 106.201391 183.544994 
L 106.488973 188.435593 
L 107.639842 192.084966 
L 107.783703 192.040644 
L 107.927564 192.470439 
L 108.6459 207.091438 
L 108.789762 207.266053 
L 109.077484 207.122909 
L 109.221344 207.204211 
L 109.365206 208.274324 
L 109.939765 219.902922 
L 110.227479 220.622271 
L 110.946784 220.641682 
L 111.66609 220.399366 
L 111.953809 220.761592 
L 112.09767 220.689483 
L 112.241532 220.386566 
L 112.529231 219.372514 
L 112.673085 219.779133 
L 112.816946 219.801685 
L 113.392343 217.305542 
L 113.536197 217.701787 
L 113.680058 217.61207 
L 114.111597 215.571315 
L 114.399238 213.452694 
L 114.686937 211.664257 
L 114.974657 210.905378 
L 115.118518 209.499818 
L 115.40575 203.71235 
L 115.693399 201.644876 
L 115.981119 201.338659 
L 116.12498 201.318906 
L 116.268842 201.001586 
L 116.98806 197.453813 
L 117.275781 197.67783 
L 117.419642 197.484796 
L 117.851192 195.695929 
L 118.138913 195.22335 
L 118.282774 195.20196 
L 118.570495 195.437979 
L 119.002079 195.396394 
L 119.721385 195.39676 
L 120.009107 195.322516 
L 120.296829 195.371023 
L 120.728412 195.293902 
L 121.73544 195.426947 
L 122.023162 195.519294 
L 122.310885 195.449588 
L 123.03019 195.723259 
L 123.461773 195.698658 
L 123.749495 195.909107 
L 124.181075 196.471261 
L 124.324937 197.143103 
L 124.612576 199.159074 
L 124.756435 198.971518 
L 124.900296 199.050394 
L 125.044148 199.491666 
L 125.331772 201.821514 
L 126.338603 209.900352 
L 126.626306 211.375499 
L 127.057815 213.968065 
L 127.345535 214.583171 
L 127.633258 214.631945 
L 127.777119 215.058152 
L 128.064792 217.360093 
L 128.352376 220.279961 
L 128.640085 221.109948 
L 128.783947 221.150394 
L 128.927808 221.462305 
L 129.215509 222.535221 
L 129.503231 222.700269 
L 129.934815 222.603781 
L 130.078676 223.624061 
L 130.366138 227.540632 
L 130.509976 228.234197 
L 131.084997 234.879726 
L 131.228858 235.004633 
L 131.804303 234.991591 
L 132.235886 234.996882 
L 132.379748 235.526354 
L 132.66741 238.192787 
L 132.954942 241.209244 
L 133.386525 241.32755 
L 133.530387 241.94049 
L 133.961855 245.183767 
L 134.249573 246.101485 
L 134.537295 246.25619 
L 134.681156 247.131437 
L 134.968716 250.29422 
L 135.25641 251.508385 
L 135.400271 251.65391 
L 135.975671 253.736481 
L 136.263392 253.982993 
L 136.407254 254.978959 
L 137.1261 263.024263 
L 137.701472 265.810477 
L 137.989194 265.892395 
L 138.996223 265.975998 
L 140.003249 266.496976 
L 140.14711 267.707488 
L 140.57838 272.870661 
L 140.722241 273.485252 
L 141.009962 273.785463 
L 141.153821 274.035028 
L 141.873064 277.270733 
L 142.160785 277.473085 
L 142.592368 277.517822 
L 142.73623 277.852866 
L 143.023932 278.890877 
L 143.167792 279.046443 
L 143.743213 280.558792 
L 144.030935 280.63105 
L 144.318651 281.193755 
L 145.613383 283.726365 
L 147.195854 283.826927 
L 147.339715 285.562651 
L 147.626952 290.504263 
L 147.914654 291.497159 
L 148.633957 291.989462 
L 148.92168 292.151744 
L 149.209402 292.157459 
L 149.497118 292.710329 
L 149.928646 294.986347 
L 150.36023 294.910468 
L 154.10062 294.964204 
L 154.532203 295.252672 
L 154.676063 295.423383 
L 154.819924 53.571752 
L 154.963786 53.568714 
L 155.107647 295.487816 
L 162.87615 295.487937 
L 163.020011 53.568 
L 163.307733 53.580826 
L 163.595452 54.044457 
L 164.027018 55.423164 
L 164.458601 55.488742 
L 166.184936 55.497815 
L 166.472608 57.19151 
L 167.047828 62.976806 
L 167.47937 65.196672 
L 167.623231 65.250295 
L 167.910934 66.373165 
L 168.486094 73.033384 
L 169.204587 85.62879 
L 169.348339 87.204749 
L 169.779227 95.712666 
L 169.923086 95.489653 
L 170.066947 95.714379 
L 170.2108 96.149236 
L 171.217563 106.5251 
L 171.504956 111.247929 
L 171.792584 113.534052 
L 172.080299 114.07757 
L 172.22416 114.024924 
L 172.511871 114.896328 
L 172.799478 117.859422 
L 173.374558 126.149143 
L 174.093796 130.475059 
L 174.23765 130.894559 
L 174.956783 137.087542 
L 175.100635 137.582925 
L 175.532124 140.942508 
L 175.675984 141.131105 
L 176.251346 144.571522 
L 176.826782 145.89192 
L 176.970644 145.856422 
L 177.114503 145.670925 
L 177.689671 152.064101 
L 177.833532 152.167477 
L 177.977393 152.07953 
L 178.552808 154.361883 
L 178.984298 157.772858 
L 179.559739 159.020863 
L 179.703571 159.896777 
L 180.422511 169.343012 
L 180.71023 169.724144 
L 181.285675 169.991926 
L 181.573397 170.159183 
L 181.717258 170.156134 
L 182.148839 170.642682 
L 182.724284 170.605362 
L 183.44359 170.637421 
L 184.450617 171.122809 
L 185.457645 171.102901 
L 186.464673 171.194799 
L 186.896256 171.272627 
L 194.377037 171.280661 
L 194.952482 171.141409 
L 195.671582 161.777053 
L 196.533937 143.305167 
L 196.965172 135.99158 
L 197.684173 121.477796 
L 197.971481 114.881572 
L 198.259111 109.860151 
L 198.977757 95.071832 
L 199.265479 94.841494 
L 199.696609 84.394552 
L 199.840432 82.97816 
L 200.128154 82.703037 
L 200.703598 82.280586 
L 200.991301 80.334771 
L 201.422823 75.963917 
L 201.566682 75.55344 
L 202.142127 75.51174 
L 202.429849 75.451819 
L 202.861432 75.132399 
L 203.86846 75.007385 
L 206.601822 74.611044 
L 207.321128 74.497365 
L 207.752711 74.02914 
L 208.184294 73.538727 
L 208.615878 73.499995 
L 208.759739 73.535048 
L 209.335183 72.913541 
L 210.19835 72.707179 
L 210.629933 72.226481 
L 211.061516 71.890832 
L 211.493099 71.416558 
L 211.780822 71.262614 
L 211.924683 71.125894 
L 212.212404 70.451945 
L 212.500126 70.450052 
L 213.938735 67.975868 
L 214.658036 65.940742 
L 214.801897 65.87618 
L 215.233472 63.167998 
L 215.521193 62.224152 
L 215.808912 61.260834 
L 215.952773 60.942858 
L 216.672074 57.537716 
L 216.815931 56.616149 
L 218.110682 55.995089 
L 218.398404 55.678618 
L 218.686126 55.575577 
L 219.261571 55.501131 
L 219.405432 55.42945 
L 219.980876 54.716962 
L 221.275627 54.721202 
L 222.8581 54.44682 
L 223.145822 53.583752 
L 223.289683 295.183211 
L 223.865128 294.064135 
L 224.728295 293.986007 
L 225.016017 293.983098 
L 225.159878 294.019735 
L 225.879156 282.077108 
L 226.023017 280.672645 
L 226.598349 264.560541 
L 226.886072 264.607315 
L 227.17377 260.211046 
L 227.461354 252.056358 
L 227.749076 252.216576 
L 228.180659 251.6709 
L 228.32452 251.614286 
L 228.612242 251.11228 
L 228.899957 249.588133 
L 229.187678 250.080766 
L 229.475399 249.337461 
L 229.763121 249.454833 
L 230.482427 249.143531 
L 230.91401 249.477292 
L 231.201731 248.959116 
L 231.489438 251.191981 
L 231.921018 250.193628 
L 232.06488 250.127918 
L 232.352596 251.449266 
L 232.640317 250.883134 
L 232.928035 251.976578 
L 233.935063 251.973423 
L 234.942092 251.956162 
L 235.229813 252.423445 
L 235.949097 255.881795 
L 236.380679 256.838731 
L 237.387707 256.982978 
L 237.81929 257.172148 
L 238.250874 257.24438 
L 238.538596 257.308513 
L 239.545624 257.34666 
L 239.977207 257.698036 
L 240.552652 257.740432 
L 241.991263 257.82459 
L 242.710569 258.154806 
L 243.861458 258.288417 
L 244.149181 258.495482 
L 244.436899 259.33298 
L 245.587788 259.626269 
L 246.594814 260.454304 
L 246.88253 261.302827 
L 247.026391 261.771605 
L 247.170252 261.835541 
L 247.314113 262.079666 
L 247.889486 266.91807 
L 248.752653 266.955596 
L 249.040374 267.299359 
L 249.184231 267.727054 
L 249.328092 268.758266 
L 249.61541 275.889258 
L 249.903092 278.23707 
L 250.334675 278.432286 
L 250.622397 278.572869 
L 250.766258 279.044026 
L 251.053794 284.696345 
L 251.773036 288.099746 
L 252.492167 295.167665 
L 252.92375 295.369488 
L 253.643056 295.446509 
L 253.786908 54.066791 
L 253.930769 54.488602 
L 254.07463 54.433147 
L 254.218491 54.857448 
L 254.506022 59.611608 
L 254.793737 60.559485 
L 255.081459 60.740613 
L 255.800742 63.316733 
L 256.232325 64.141084 
L 256.663725 69.513691 
L 256.951442 70.77117 
L 257.383021 71.923383 
L 257.670743 72.064625 
L 257.958461 72.69487 
L 263.569046 73.367378 
L 264.863797 73.470834 
L 266.446269 73.610693 
L 272.6323 73.837726 
L 281.839415 73.648183 
L 284.141193 73.52482 
L 284.572777 73.510164 
L 284.860498 73.278358 
L 285.14822 73.099444 
L 285.867526 73.014297 
L 286.730693 72.898081 
L 288.169305 72.697765 
L 288.600888 72.624777 
L 289.464054 72.291283 
L 289.751776 72.196036 
L 289.895637 71.993785 
L 290.183352 71.30107 
L 290.902658 71.249641 
L 291.046519 71.114535 
L 291.621955 69.916014 
L 292.053537 69.625263 
L 292.197398 68.303183 
L 292.627468 55.986822 
L 292.771329 292.650996 
L 293.200566 277.481676 
L 293.917342 252.234339 
L 294.346595 237.677501 
L 294.777641 228.753169 
L 295.784497 223.088219 
L 296.935386 222.823306 
L 297.654691 222.614023 
L 298.086275 222.493975 
L 298.949441 222.230298 
L 299.956469 221.910375 
L 300.388053 221.834776 
L 300.531914 221.626075 
L 300.819627 220.932336 
L 300.963488 220.875691 
L 301.107349 220.294065 
L 301.826434 214.051198 
L 301.970295 211.436006 
L 302.256927 203.793951 
L 303.263928 201.295321 
L 303.695495 200.219742 
L 303.983213 200.64788 
L 304.558657 200.402907 
L 305.134102 200.575528 
L 305.565681 201.240141 
L 305.709542 201.225893 
L 305.997261 200.939917 
L 306.428843 201.321961 
L 306.572705 202.755099 
L 306.860048 207.472211 
L 308.154502 216.755601 
L 308.873319 226.689361 
L 309.161017 227.766546 
L 309.304878 227.817429 
L 309.448739 229.604972 
L 309.735901 235.117312 
L 309.879724 235.999293 
L 311.892749 258.132827 
L 312.18047 258.990239 
L 313.330599 272.06801 
L 313.618314 273.481458 
L 313.906031 274.170637 
L 314.193434 278.307186 
L 314.48107 281.596768 
L 315.344088 287.550435 
L 315.775034 295.357238 
L 315.918894 53.598113 
L 316.206384 57.141398 
L 316.637756 62.409389 
L 316.781616 62.525152 
L 317.356974 65.624805 
L 317.644696 65.86933 
L 318.220141 65.902353 
L 319.37103 66.025251 
L 320.378058 66.294257 
L 321.097364 66.395456 
L 322.248251 66.944239 
L 325.125474 67.459606 
L 326.276362 68.095717 
L 326.564083 67.8649 
L 327.282107 82.27265 
L 327.425935 83.141672 
L 327.85727 88.451186 
L 328.001124 88.862855 
L 328.575837 99.648958 
L 329.006605 109.506219 
L 329.294302 110.546319 
L 329.438163 110.560007 
L 329.725883 110.217103 
L 330.30131 111.5347 
L 331.4522 111.583017 
L 332.315366 111.594235 
L 332.746949 111.764803 
L 333.610116 111.771149 
L 333.897839 111.766969 
L 334.329422 111.505237 
L 334.617144 111.616504 
L 334.904861 111.043109 
L 335.048722 111.159687 
L 335.192579 111.487764 
L 335.33644 111.079964 
L 335.624137 110.089466 
L 335.767999 110.113865 
L 336.055715 109.502849 
L 336.774795 100.418651 
L 337.205051 88.277085 
L 337.348912 87.480463 
L 337.636631 87.85507 
L 338.212076 87.967589 
L 338.643657 88.433421 
L 339.075173 91.270078 
L 339.362894 91.920702 
L 339.506746 92.397677 
L 339.937749 102.920736 
L 340.368641 111.43674 
L 340.512502 112.057413 
L 340.800224 112.202595 
L 341.231807 112.191794 
L 341.519528 112.537736 
L 342.238792 115.585034 
L 342.814236 115.621811 
L 343.24582 115.619491 
L 343.533538 116.180601 
L 343.965096 118.042238 
L 344.252818 118.181226 
L 344.972122 118.829148 
L 345.403706 119.013597 
L 345.547566 119.190157 
L 345.835281 120.052857 
L 346.410618 124.844674 
L 346.554479 125.067504 
L 346.69834 125.074502 
L 347.273678 129.503747 
L 347.992972 131.876109 
L 348.280676 133.916712 
L 348.568341 137.508511 
L 348.855847 140.773072 
L 348.999707 140.992782 
L 349.575042 145.944451 
L 349.862764 146.44582 
L 350.294272 149.152436 
L 350.438128 148.754677 
L 350.725794 151.002391 
L 351.157325 154.473269 
L 351.588891 155.910294 
L 352.020471 156.84937 
L 352.308193 157.174442 
L 352.452052 157.408437 
L 353.602811 165.37385 
L 354.178044 172.743406 
L 354.321905 173.006959 
L 354.465766 172.971278 
L 354.897338 174.233885 
L 355.18506 174.30461 
L 358.493867 174.298323 
L 398.487273 174.298323 
L 398.487273 174.298323 
" style="fill:none;stroke:#ff7f0e;stroke-linecap:square;stroke-width:1.5;"/>
   </g>
   <g id="line2d_16">
    <path clip-path="url(#pe6edf441d6)" d="M 73.832727 174.460392 
L 79.782187 174.351707 
L 88.42307 174.275976 
L 94.939145 174.400167 
L 99.897028 174.642294 
L 100.32199 174.918258 
L 100.888604 175.573107 
L 101.596871 176.820813 
L 102.305136 178.493973 
L 103.296702 181.531231 
L 104.288266 185.27009 
L 105.704774 191.594164 
L 107.121263 199.359886 
L 107.829504 203.131825 
L 107.971157 203.266987 
L 108.254464 203.933072 
L 109.954179 217.033554 
L 110.662435 219.550991 
L 111.087395 220.490291 
L 111.512355 220.919508 
L 111.795663 220.932527 
L 112.220624 220.661737 
L 112.645583 219.954647 
L 113.070542 218.921052 
L 113.637145 216.616901 
L 114.203734 213.339518 
L 115.195246 206.966857 
L 116.470089 200.560034 
L 117.319994 197.400002 
L 118.311557 194.603931 
L 119.019823 193.262907 
L 119.728091 192.513343 
L 120.153052 192.327759 
L 120.719667 192.380552 
L 121.286282 192.794651 
L 121.852896 193.537928 
L 122.561159 194.957942 
L 123.127767 196.48836 
L 123.977671 199.435249 
L 124.96922 203.726135 
L 129.926876 228.498062 
L 132.476535 240.633002 
L 135.451149 254.182975 
L 137.43424 261.945499 
L 139.134044 267.810181 
L 141.11716 273.687546 
L 143.808544 280.344735 
L 145.508374 283.860134 
L 146.78325 286.108057 
L 150.607886 291.258813 
L 151.882768 292.471195 
L 153.299305 293.495652 
L 154.857496 294.22353 
L 157.832225 295.171523 
L 158.965455 295.486974 
L 159.107109 53.612597 
L 160.240339 54.089787 
L 161.515222 54.847971 
L 162.22349 55.425143 
L 162.64845 56.010928 
L 163.356709 57.450544 
L 164.064966 59.420561 
L 164.91486 62.510936 
L 165.906372 67.09879 
L 166.756219 71.868007 
L 167.747689 78.617066 
L 168.739041 87.012992 
L 172.137923 118.561093 
L 173.554201 130.108554 
L 174.82894 138.727339 
L 176.245339 146.98088 
L 177.661772 154.114493 
L 179.503157 162.297225 
L 180.494701 165.900005 
L 181.769545 169.865657 
L 182.902755 172.712111 
L 183.894322 174.668066 
L 184.885891 176.132417 
L 185.735812 176.994765 
L 186.585734 177.461937 
L 187.294003 177.578983 
L 188.002272 177.428433 
L 188.71054 177.016438 
L 189.418807 176.336871 
L 190.268724 175.175191 
L 190.835332 174.08695 
L 191.543587 172.077536 
L 192.251817 169.382797 
L 193.101671 165.167942 
L 193.951479 159.714735 
L 194.942879 151.668782 
L 195.792513 142.715371 
L 196.641979 131.474637 
L 198.340671 106.94208 
L 199.473525 95.576165 
L 200.464884 87.917262 
L 201.314715 82.861718 
L 202.164585 79.034263 
L 202.872836 76.794684 
L 203.439442 75.604826 
L 204.006054 74.906314 
L 208.397314 71.744819 
L 210.663768 69.548067 
L 214.913362 64.488568 
L 216.754849 61.787284 
L 219.021288 57.884319 
L 221.146066 53.736222 
L 221.28772 295.357959 
L 221.995971 293.588308 
L 222.84586 290.75297 
L 223.695729 287.128607 
L 224.687225 281.864007 
L 225.820297 274.491646 
L 226.670042 267.700701 
L 227.51978 261.030366 
L 228.511212 254.942501 
L 229.361079 251.093172 
L 230.069327 248.746955 
L 230.777582 247.216203 
L 231.202542 246.660092 
L 231.769156 246.319824 
L 232.194118 246.462506 
L 234.318923 247.618798 
L 235.593804 248.664951 
L 237.718603 250.917522 
L 239.418439 253.145846 
L 240.976617 255.546396 
L 242.818099 258.804522 
L 244.092963 261.401698 
L 245.509473 264.844157 
L 247.067627 269.235089 
L 249.050707 275.799105 
L 250.183886 279.994538 
L 252.025258 288.035964 
L 253.441711 294.077016 
L 253.725005 295.155474 
L 253.866659 53.764206 
L 255.283139 58.685676 
L 256.699634 62.89801 
L 258.257792 66.691625 
L 259.53266 69.340935 
L 260.949185 71.681538 
L 262.082409 73.109333 
L 263.215637 74.128139 
L 264.065558 74.653406 
L 265.057134 75.041256 
L 268.031864 75.920446 
L 271.431554 76.627818 
L 275.681169 76.980353 
L 280.780706 76.585264 
L 285.171973 75.610197 
L 287.155126 74.94064 
L 287.863394 74.594455 
L 288.288354 74.176471 
L 288.713313 73.45084 
L 289.138264 72.383521 
L 289.704855 70.352526 
L 290.271426 67.598777 
L 290.837954 63.704511 
L 291.687639 55.74523 
L 291.829293 54.102569 
L 291.970821 294.312311 
L 292.820172 281.880468 
L 294.943127 245.184115 
L 295.792733 235.948843 
L 296.642485 229.144421 
L 297.492313 224.070122 
L 298.625475 218.937637 
L 300.891818 209.2971 
L 302.874878 201.375923 
L 303.441483 200.004143 
L 303.86644 199.378047 
L 304.291401 199.095426 
L 304.574709 199.156866 
L 304.858016 199.388149 
L 305.282974 200.030129 
L 305.849578 201.483801 
L 306.416169 203.675151 
L 307.26602 208.306657 
L 308.11581 214.624454 
L 309.107175 224.168385 
L 310.523247 239.966155 
L 312.647406 262.13233 
L 314.346916 277.112686 
L 315.480002 285.200028 
L 317.038085 293.77816 
L 317.321377 295.112161 
L 317.463016 53.857106 
L 318.596201 58.440446 
L 319.587756 61.613632 
L 320.579316 64.012524 
L 321.429234 65.424363 
L 322.137501 66.254896 
L 322.845767 67.171265 
L 323.554031 68.609207 
L 324.262284 70.597042 
L 325.11218 73.73853 
L 326.103715 78.361955 
L 327.09521 83.982457 
L 328.086698 90.799919 
L 329.078103 99.048635 
L 330.069561 106.839421 
L 330.777765 110.976598 
L 331.486012 113.945687 
L 332.052616 115.500006 
L 332.477574 116.178053 
L 332.902535 116.3789 
L 333.327496 116.262126 
L 333.752457 115.663732 
L 334.177412 114.688117 
L 334.885667 112.110769 
L 335.59389 108.414365 
L 336.443723 102.331508 
L 337.718447 91.971593 
L 338.143388 90.226258 
L 338.568347 89.469224 
L 338.71 89.371946 
L 338.993307 89.565051 
L 339.418266 90.653096 
L 339.701567 91.869887 
L 340.409775 96.285916 
L 342.392795 108.245549 
L 344.234212 117.806022 
L 347.067178 131.157067 
L 351.59995 151.570915 
L 352.874803 156.381208 
L 353.866366 159.519828 
L 354.857929 162.34086 
L 355.991149 165.20254 
L 357.407678 168.316007 
L 358.682557 170.565541 
L 359.815785 172.129654 
L 360.80736 173.160234 
L 361.798936 173.865845 
L 362.790512 174.288165 
L 363.782089 174.520874 
L 366.331858 174.550808 
L 383.755276 174.6015 
L 398.487273 174.464865 
L 398.487273 174.464865 
" style="fill:none;stroke:#2ca02c;stroke-linecap:square;stroke-width:1.5;"/>
   </g>
   <g id="line2d_17">
    <path clip-path="url(#pe6edf441d6)" d="M 73.832727 174.471964 
L 81.765339 174.361389 
L 91.114488 174.315062 
L 98.338831 174.525123 
L 98.905446 174.676495 
L 99.613715 175.119502 
L 100.321983 175.845497 
L 101.171904 177.1009 
L 102.163476 179.089101 
L 103.155047 181.63446 
L 104.288265 185.270534 
L 105.563125 190.266779 
L 106.837979 196.361379 
L 108.254462 204.565007 
L 110.520802 219.253713 
L 111.087409 221.023588 
L 111.512369 221.643503 
L 111.795677 221.750062 
L 112.078984 221.606153 
L 112.36229 221.19393 
L 112.787249 220.121521 
L 113.353851 217.798849 
L 114.062081 213.823081 
L 115.620202 204.550469 
L 116.611745 200.023259 
L 117.461652 196.985392 
L 118.311566 194.711876 
L 119.019833 193.394343 
L 119.7281 192.630719 
L 120.153061 192.418517 
L 120.719676 192.447028 
L 121.286291 192.81968 
L 121.852905 193.539178 
L 122.561168 194.929954 
L 123.26943 196.849297 
L 124.119335 199.844649 
L 125.11087 204.35118 
L 131.343355 235.514679 
L 134.601264 250.524161 
L 136.301047 257.714633 
L 138.14249 264.587423 
L 139.70065 269.657823 
L 142.108722 276.348815 
L 143.808547 280.386831 
L 145.508376 283.901432 
L 146.783252 286.19543 
L 150.324581 291.035304 
L 151.599462 292.292994 
L 152.874344 293.266445 
L 154.007574 293.889443 
L 155.565765 294.465869 
L 158.823801 295.464061 
L 158.965455 53.582797 
L 160.098685 54.017119 
L 161.231914 54.708629 
L 162.365142 55.691486 
L 162.931754 56.529707 
L 163.640011 58.105842 
L 164.348266 60.275309 
L 165.198153 63.662084 
L 166.189652 68.664635 
L 167.039483 73.926734 
L 168.03093 81.334398 
L 169.022252 90.303339 
L 171.429828 112.658383 
L 173.27094 128.048628 
L 174.545665 137.04457 
L 176.103683 146.36753 
L 177.520114 153.637377 
L 179.078223 160.639724 
L 180.4947 166.004825 
L 181.769544 169.990659 
L 182.902754 172.819528 
L 183.894321 174.748689 
L 184.88589 176.175875 
L 185.73581 176.998407 
L 186.444079 177.402049 
L 187.152348 177.545249 
L 187.860616 177.43321 
L 188.568885 177.059306 
L 189.277152 176.430016 
L 190.12707 175.331861 
L 190.835331 174.060168 
L 191.401933 172.596452 
L 192.110178 170.034777 
L 192.96004 165.884273 
L 193.80986 160.520392 
L 194.801205 152.559186 
L 195.792504 142.491522 
L 196.641984 131.406368 
L 198.340684 106.96595 
L 199.33187 96.678626 
L 200.323266 88.606507 
L 201.173078 83.305378 
L 202.022937 79.319831 
L 202.731178 77.050827 
L 203.297787 75.91763 
L 203.8644 75.25875 
L 204.997628 74.454614 
L 207.122431 72.794683 
L 209.247231 70.860363 
L 211.513683 68.467537 
L 213.921787 65.573278 
L 216.188234 62.539644 
L 217.888066 59.945903 
L 220.012851 56.323612 
L 221.42937 53.571526 
L 221.571024 295.144449 
L 222.279268 293.059434 
L 223.129147 289.826501 
L 223.979002 285.768752 
L 224.970478 279.888114 
L 226.245101 270.481616 
L 227.661375 259.895064 
L 228.65286 254.272439 
L 229.502728 250.672461 
L 230.21097 248.496085 
L 230.777577 247.293088 
L 231.344189 246.567244 
L 231.76915 246.340241 
L 232.194112 246.39431 
L 233.044033 246.831287 
L 234.460569 247.806827 
L 236.302064 249.393139 
L 237.718596 250.949294 
L 239.276778 252.965641 
L 240.97661 255.528098 
L 242.818092 258.74959 
L 244.092956 261.359241 
L 245.509465 264.774313 
L 247.067618 269.185761 
L 248.625748 274.306729 
L 250.608801 281.892106 
L 253.724994 295.212749 
L 253.866647 53.827589 
L 255.283128 58.698347 
L 256.699624 62.851314 
L 258.257781 66.725251 
L 259.532649 69.358715 
L 260.807519 71.483627 
L 261.940743 72.95138 
L 262.932317 73.90832 
L 263.923892 74.571817 
L 265.198775 75.152479 
L 267.606889 75.884932 
L 270.29831 76.479504 
L 272.989732 76.838301 
L 275.681154 76.961815 
L 278.230922 76.861834 
L 280.78069 76.550529 
L 283.330457 76.027763 
L 286.021878 75.252189 
L 287.721723 74.603214 
L 288.429991 74.010386 
L 288.854949 73.420469 
L 289.279905 72.348044 
L 289.704841 70.730525 
L 290.271401 67.6416 
L 290.979573 62.302722 
L 291.687588 55.275099 
L 291.829242 53.618159 
L 291.970769 293.824285 
L 292.82015 281.70004 
L 293.810776 262.840172 
L 294.660012 249.277943 
L 295.509535 238.878963 
L 296.359226 230.921485 
L 297.067367 225.899363 
L 297.775592 222.267715 
L 300.608526 210.461851 
L 302.874885 201.563035 
L 303.441487 200.063211 
L 303.866444 199.397031 
L 304.291405 199.141719 
L 304.574713 199.186151 
L 304.85802 199.412512 
L 305.282978 200.075211 
L 305.849581 201.586103 
L 306.41617 203.822921 
L 307.266022 208.438337 
L 308.115812 214.767444 
L 309.107179 224.271957 
L 310.523261 239.928625 
L 312.222583 258.173176 
L 313.638798 271.311735 
L 315.055113 282.284423 
L 316.046575 288.519303 
L 317.179729 294.431954 
L 317.321383 295.090098 
L 317.463022 53.817641 
L 318.596206 58.440672 
L 319.587761 61.627945 
L 320.43767 63.745963 
L 321.287585 65.302261 
L 321.995851 66.173578 
L 322.84577 67.332437 
L 323.554034 68.720613 
L 324.262288 70.647896 
L 325.112185 73.699558 
L 326.10372 78.288437 
L 327.095212 84.033139 
L 328.0867 90.85081 
L 329.078102 99.173981 
L 330.069561 106.924268 
L 330.777764 111.086091 
L 331.486011 114.046348 
L 332.052615 115.582468 
L 332.477573 116.257288 
L 332.902534 116.476554 
L 333.185842 116.397699 
L 333.469149 116.13261 
L 333.894107 115.399072 
L 334.460712 113.751121 
L 335.168959 110.633298 
L 335.877167 106.373195 
L 336.726981 99.633159 
L 337.43517 93.965671 
L 338.00175 91.077898 
L 338.426702 89.892056 
L 338.710009 89.630809 
L 338.993316 89.778343 
L 339.276622 90.311057 
L 339.701576 91.935636 
L 340.268159 95.17183 
L 342.392812 107.960451 
L 344.51752 119.143892 
L 347.067186 131.340686 
L 350.891704 148.737726 
L 352.449863 154.798722 
L 353.724722 159.065967 
L 355.141244 163.041941 
L 356.699423 166.814467 
L 357.9743 169.337571 
L 359.24918 171.353627 
L 360.240754 172.582368 
L 361.373983 173.616876 
L 362.365559 174.194636 
L 363.215481 174.44877 
L 364.065404 174.534114 
L 383.188664 174.583624 
L 398.487273 174.475273 
L 398.487273 174.475273 
" style="fill:none;stroke:#d62728;stroke-linecap:square;stroke-width:1.5;"/>
   </g>
   <g id="patch_3">
    <path d="M 57.6 307.584 
L 57.6 41.472 
" style="fill:none;stroke:#000000;stroke-linecap:square;stroke-linejoin:miter;stroke-width:0.8;"/>
   </g>
   <g id="patch_4">
    <path d="M 414.72 307.584 
L 414.72 41.472 
" style="fill:none;stroke:#000000;stroke-linecap:square;stroke-linejoin:miter;stroke-width:0.8;"/>
   </g>
   <g id="patch_5">
    <path d="M 57.6 307.584 
L 414.72 307.584 
" style="fill:none;stroke:#000000;stroke-linecap:square;stroke-linejoin:miter;stroke-width:0.8;"/>
   </g>
   <g id="patch_6">
    <path d="M 57.6 41.472 
L 414.72 41.472 
" style="fill:none;stroke:#000000;stroke-linecap:square;stroke-linejoin:miter;stroke-width:0.8;"/>
   </g>
   <g id="text_14">
    <!-- Heading vs Distance esp -->
    <g transform="translate(161.9325 35.472)scale(0.12 -0.12)">
     <defs>
      <path d="M 9.8125 72.90625 
L 19.671875 72.90625 
L 19.671875 43.015625 
L 55.515625 43.015625 
L 55.515625 72.90625 
L 65.375 72.90625 
L 65.375 0 
L 55.515625 0 
L 55.515625 34.71875 
L 19.671875 34.71875 
L 19.671875 0 
L 9.8125 0 
z
" id="DejaVuSans-72"/>
      <path d="M 56.203125 29.59375 
L 56.203125 25.203125 
L 14.890625 25.203125 
Q 15.484375 15.921875 20.484375 11.0625 
Q 25.484375 6.203125 34.421875 6.203125 
Q 39.59375 6.203125 44.453125 7.46875 
Q 49.3125 8.734375 54.109375 11.28125 
L 54.109375 2.78125 
Q 49.265625 0.734375 44.1875 -0.34375 
Q 39.109375 -1.421875 33.890625 -1.421875 
Q 20.796875 -1.421875 13.15625 6.1875 
Q 5.515625 13.8125 5.515625 26.8125 
Q 5.515625 40.234375 12.765625 48.109375 
Q 20.015625 56 32.328125 56 
Q 43.359375 56 49.78125 48.890625 
Q 56.203125 41.796875 56.203125 29.59375 
z
M 47.21875 32.234375 
Q 47.125 39.59375 43.09375 43.984375 
Q 39.0625 48.390625 32.421875 48.390625 
Q 24.90625 48.390625 20.390625 44.140625 
Q 15.875 39.890625 15.1875 32.171875 
z
" id="DejaVuSans-101"/>
      <path d="M 34.28125 27.484375 
Q 23.390625 27.484375 19.1875 25 
Q 14.984375 22.515625 14.984375 16.5 
Q 14.984375 11.71875 18.140625 8.90625 
Q 21.296875 6.109375 26.703125 6.109375 
Q 34.1875 6.109375 38.703125 11.40625 
Q 43.21875 16.703125 43.21875 25.484375 
L 43.21875 27.484375 
z
M 52.203125 31.203125 
L 52.203125 0 
L 43.21875 0 
L 43.21875 8.296875 
Q 40.140625 3.328125 35.546875 0.953125 
Q 30.953125 -1.421875 24.3125 -1.421875 
Q 15.921875 -1.421875 10.953125 3.296875 
Q 6 8.015625 6 15.921875 
Q 6 25.140625 12.171875 29.828125 
Q 18.359375 34.515625 30.609375 34.515625 
L 43.21875 34.515625 
L 43.21875 35.40625 
Q 43.21875 41.609375 39.140625 45 
Q 35.0625 48.390625 27.6875 48.390625 
Q 23 48.390625 18.546875 47.265625 
Q 14.109375 46.140625 10.015625 43.890625 
L 10.015625 52.203125 
Q 14.9375 54.109375 19.578125 55.046875 
Q 24.21875 56 28.609375 56 
Q 40.484375 56 46.34375 49.84375 
Q 52.203125 43.703125 52.203125 31.203125 
z
" id="DejaVuSans-97"/>
      <path d="M 45.40625 46.390625 
L 45.40625 75.984375 
L 54.390625 75.984375 
L 54.390625 0 
L 45.40625 0 
L 45.40625 8.203125 
Q 42.578125 3.328125 38.25 0.953125 
Q 33.9375 -1.421875 27.875 -1.421875 
Q 17.96875 -1.421875 11.734375 6.484375 
Q 5.515625 14.40625 5.515625 27.296875 
Q 5.515625 40.1875 11.734375 48.09375 
Q 17.96875 56 27.875 56 
Q 33.9375 56 38.25 53.625 
Q 42.578125 51.265625 45.40625 46.390625 
z
M 14.796875 27.296875 
Q 14.796875 17.390625 18.875 11.75 
Q 22.953125 6.109375 30.078125 6.109375 
Q 37.203125 6.109375 41.296875 11.75 
Q 45.40625 17.390625 45.40625 27.296875 
Q 45.40625 37.203125 41.296875 42.84375 
Q 37.203125 48.484375 30.078125 48.484375 
Q 22.953125 48.484375 18.875 42.84375 
Q 14.796875 37.203125 14.796875 27.296875 
z
" id="DejaVuSans-100"/>
      <path d="M 9.421875 54.6875 
L 18.40625 54.6875 
L 18.40625 0 
L 9.421875 0 
z
M 9.421875 75.984375 
L 18.40625 75.984375 
L 18.40625 64.59375 
L 9.421875 64.59375 
z
" id="DejaVuSans-105"/>
      <path d="M 54.890625 33.015625 
L 54.890625 0 
L 45.90625 0 
L 45.90625 32.71875 
Q 45.90625 40.484375 42.875 44.328125 
Q 39.84375 48.1875 33.796875 48.1875 
Q 26.515625 48.1875 22.3125 43.546875 
Q 18.109375 38.921875 18.109375 30.90625 
L 18.109375 0 
L 9.078125 0 
L 9.078125 54.6875 
L 18.109375 54.6875 
L 18.109375 46.1875 
Q 21.34375 51.125 25.703125 53.5625 
Q 30.078125 56 35.796875 56 
Q 45.21875 56 50.046875 50.171875 
Q 54.890625 44.34375 54.890625 33.015625 
z
" id="DejaVuSans-110"/>
      <path d="M 45.40625 27.984375 
Q 45.40625 37.75 41.375 43.109375 
Q 37.359375 48.484375 30.078125 48.484375 
Q 22.859375 48.484375 18.828125 43.109375 
Q 14.796875 37.75 14.796875 27.984375 
Q 14.796875 18.265625 18.828125 12.890625 
Q 22.859375 7.515625 30.078125 7.515625 
Q 37.359375 7.515625 41.375 12.890625 
Q 45.40625 18.265625 45.40625 27.984375 
z
M 54.390625 6.78125 
Q 54.390625 -7.171875 48.1875 -13.984375 
Q 42 -20.796875 29.203125 -20.796875 
Q 24.46875 -20.796875 20.265625 -20.09375 
Q 16.0625 -19.390625 12.109375 -17.921875 
L 12.109375 -9.1875 
Q 16.0625 -11.328125 19.921875 -12.34375 
Q 23.78125 -13.375 27.78125 -13.375 
Q 36.625 -13.375 41.015625 -8.765625 
Q 45.40625 -4.15625 45.40625 5.171875 
L 45.40625 9.625 
Q 42.625 4.78125 38.28125 2.390625 
Q 33.9375 0 27.875 0 
Q 17.828125 0 11.671875 7.65625 
Q 5.515625 15.328125 5.515625 27.984375 
Q 5.515625 40.671875 11.671875 48.328125 
Q 17.828125 56 27.875 56 
Q 33.9375 56 38.28125 53.609375 
Q 42.625 51.21875 45.40625 46.390625 
L 45.40625 54.6875 
L 54.390625 54.6875 
z
" id="DejaVuSans-103"/>
      <path id="DejaVuSans-32"/>
      <path d="M 2.984375 54.6875 
L 12.5 54.6875 
L 29.59375 8.796875 
L 46.6875 54.6875 
L 56.203125 54.6875 
L 35.6875 0 
L 23.484375 0 
z
" id="DejaVuSans-118"/>
      <path d="M 44.28125 53.078125 
L 44.28125 44.578125 
Q 40.484375 46.53125 36.375 47.5 
Q 32.28125 48.484375 27.875 48.484375 
Q 21.1875 48.484375 17.84375 46.4375 
Q 14.5 44.390625 14.5 40.28125 
Q 14.5 37.15625 16.890625 35.375 
Q 19.28125 33.59375 26.515625 31.984375 
L 29.59375 31.296875 
Q 39.15625 29.25 43.1875 25.515625 
Q 47.21875 21.78125 47.21875 15.09375 
Q 47.21875 7.46875 41.1875 3.015625 
Q 35.15625 -1.421875 24.609375 -1.421875 
Q 20.21875 -1.421875 15.453125 -0.5625 
Q 10.6875 0.296875 5.421875 2 
L 5.421875 11.28125 
Q 10.40625 8.6875 15.234375 7.390625 
Q 20.0625 6.109375 24.8125 6.109375 
Q 31.15625 6.109375 34.5625 8.28125 
Q 37.984375 10.453125 37.984375 14.40625 
Q 37.984375 18.0625 35.515625 20.015625 
Q 33.0625 21.96875 24.703125 23.78125 
L 21.578125 24.515625 
Q 13.234375 26.265625 9.515625 29.90625 
Q 5.8125 33.546875 5.8125 39.890625 
Q 5.8125 47.609375 11.28125 51.796875 
Q 16.75 56 26.8125 56 
Q 31.78125 56 36.171875 55.265625 
Q 40.578125 54.546875 44.28125 53.078125 
z
" id="DejaVuSans-115"/>
      <path d="M 19.671875 64.796875 
L 19.671875 8.109375 
L 31.59375 8.109375 
Q 46.6875 8.109375 53.6875 14.9375 
Q 60.6875 21.78125 60.6875 36.53125 
Q 60.6875 51.171875 53.6875 57.984375 
Q 46.6875 64.796875 31.59375 64.796875 
z
M 9.8125 72.90625 
L 30.078125 72.90625 
Q 51.265625 72.90625 61.171875 64.09375 
Q 71.09375 55.28125 71.09375 36.53125 
Q 71.09375 17.671875 61.125 8.828125 
Q 51.171875 0 30.078125 0 
L 9.8125 0 
z
" id="DejaVuSans-68"/>
      <path d="M 18.3125 70.21875 
L 18.3125 54.6875 
L 36.8125 54.6875 
L 36.8125 47.703125 
L 18.3125 47.703125 
L 18.3125 18.015625 
Q 18.3125 11.328125 20.140625 9.421875 
Q 21.96875 7.515625 27.59375 7.515625 
L 36.8125 7.515625 
L 36.8125 0 
L 27.59375 0 
Q 17.1875 0 13.234375 3.875 
Q 9.28125 7.765625 9.28125 18.015625 
L 9.28125 47.703125 
L 2.6875 47.703125 
L 2.6875 54.6875 
L 9.28125 54.6875 
L 9.28125 70.21875 
z
" id="DejaVuSans-116"/>
      <path d="M 48.78125 52.59375 
L 48.78125 44.1875 
Q 44.96875 46.296875 41.140625 47.34375 
Q 37.3125 48.390625 33.40625 48.390625 
Q 24.65625 48.390625 19.8125 42.84375 
Q 14.984375 37.3125 14.984375 27.296875 
Q 14.984375 17.28125 19.8125 11.734375 
Q 24.65625 6.203125 33.40625 6.203125 
Q 37.3125 6.203125 41.140625 7.25 
Q 44.96875 8.296875 48.78125 10.40625 
L 48.78125 2.09375 
Q 45.015625 0.34375 40.984375 -0.53125 
Q 36.96875 -1.421875 32.421875 -1.421875 
Q 20.0625 -1.421875 12.78125 6.34375 
Q 5.515625 14.109375 5.515625 27.296875 
Q 5.515625 40.671875 12.859375 48.328125 
Q 20.21875 56 33.015625 56 
Q 37.15625 56 41.109375 55.140625 
Q 45.0625 54.296875 48.78125 52.59375 
z
" id="DejaVuSans-99"/>
      <path d="M 18.109375 8.203125 
L 18.109375 -20.796875 
L 9.078125 -20.796875 
L 9.078125 54.6875 
L 18.109375 54.6875 
L 18.109375 46.390625 
Q 20.953125 51.265625 25.265625 53.625 
Q 29.59375 56 35.59375 56 
Q 45.5625 56 51.78125 48.09375 
Q 58.015625 40.1875 58.015625 27.296875 
Q 58.015625 14.40625 51.78125 6.484375 
Q 45.5625 -1.421875 35.59375 -1.421875 
Q 29.59375 -1.421875 25.265625 0.953125 
Q 20.953125 3.328125 18.109375 8.203125 
z
M 48.6875 27.296875 
Q 48.6875 37.203125 44.609375 42.84375 
Q 40.53125 48.484375 33.40625 48.484375 
Q 26.265625 48.484375 22.1875 42.84375 
Q 18.109375 37.203125 18.109375 27.296875 
Q 18.109375 17.390625 22.1875 11.75 
Q 26.265625 6.109375 33.40625 6.109375 
Q 40.53125 6.109375 44.609375 11.75 
Q 48.6875 17.390625 48.6875 27.296875 
z
" id="DejaVuSans-112"/>
     </defs>
     <use xlink:href="#DejaVuSans-72"/>
     <use x="75.195312" xlink:href="#DejaVuSans-101"/>
     <use x="136.71875" xlink:href="#DejaVuSans-97"/>
     <use x="197.998047" xlink:href="#DejaVuSans-100"/>
     <use x="261.474609" xlink:href="#DejaVuSans-105"/>
     <use x="289.257812" xlink:href="#DejaVuSans-110"/>
     <use x="352.636719" xlink:href="#DejaVuSans-103"/>
     <use x="416.113281" xlink:href="#DejaVuSans-32"/>
     <use x="447.900391" xlink:href="#DejaVuSans-118"/>
     <use x="507.080078" xlink:href="#DejaVuSans-115"/>
     <use x="559.179688" xlink:href="#DejaVuSans-32"/>
     <use x="590.966797" xlink:href="#DejaVuSans-68"/>
     <use x="667.96875" xlink:href="#DejaVuSans-105"/>
     <use x="695.751953" xlink:href="#DejaVuSans-115"/>
     <use x="747.851562" xlink:href="#DejaVuSans-116"/>
     <use x="787.060547" xlink:href="#DejaVuSans-97"/>
     <use x="848.339844" xlink:href="#DejaVuSans-110"/>
     <use x="911.71875" xlink:href="#DejaVuSans-99"/>
     <use x="966.699219" xlink:href="#DejaVuSans-101"/>
     <use x="1028.222656" xlink:href="#DejaVuSans-32"/>
     <use x="1060.009766" xlink:href="#DejaVuSans-101"/>
     <use x="1121.533203" xlink:href="#DejaVuSans-115"/>
     <use x="1173.632812" xlink:href="#DejaVuSans-112"/>
    </g>
   </g>
   <g id="legend_1">
    <g id="patch_7">
     <path d="M 258.462188 108.1845 
L 407.72 108.1845 
Q 409.72 108.1845 409.72 106.1845 
L 409.72 48.472 
Q 409.72 46.472 407.72 46.472 
L 258.462188 46.472 
Q 256.462188 46.472 256.462188 48.472 
L 256.462188 106.1845 
Q 256.462188 108.1845 258.462188 108.1845 
z
" style="fill:#ffffff;opacity:0.8;stroke:#cccccc;stroke-linejoin:miter;"/>
    </g>
    <g id="line2d_18">
     <path d="M 260.462188 54.570438 
L 280.462188 54.570438 
" style="fill:none;stroke:#1f77b4;stroke-linecap:square;stroke-width:1.5;"/>
    </g>
    <g id="line2d_19"/>
    <g id="text_15">
     <!-- Centreline -->
     <g transform="translate(288.462188 58.070438)scale(0.1 -0.1)">
      <defs>
       <path d="M 64.40625 67.28125 
L 64.40625 56.890625 
Q 59.421875 61.53125 53.78125 63.8125 
Q 48.140625 66.109375 41.796875 66.109375 
Q 29.296875 66.109375 22.65625 58.46875 
Q 16.015625 50.828125 16.015625 36.375 
Q 16.015625 21.96875 22.65625 14.328125 
Q 29.296875 6.6875 41.796875 6.6875 
Q 48.140625 6.6875 53.78125 8.984375 
Q 59.421875 11.28125 64.40625 15.921875 
L 64.40625 5.609375 
Q 59.234375 2.09375 53.4375 0.328125 
Q 47.65625 -1.421875 41.21875 -1.421875 
Q 24.65625 -1.421875 15.125 8.703125 
Q 5.609375 18.84375 5.609375 36.375 
Q 5.609375 53.953125 15.125 64.078125 
Q 24.65625 74.21875 41.21875 74.21875 
Q 47.75 74.21875 53.53125 72.484375 
Q 59.328125 70.75 64.40625 67.28125 
z
" id="DejaVuSans-67"/>
       <path d="M 41.109375 46.296875 
Q 39.59375 47.171875 37.8125 47.578125 
Q 36.03125 48 33.890625 48 
Q 26.265625 48 22.1875 43.046875 
Q 18.109375 38.09375 18.109375 28.8125 
L 18.109375 0 
L 9.078125 0 
L 9.078125 54.6875 
L 18.109375 54.6875 
L 18.109375 46.1875 
Q 20.953125 51.171875 25.484375 53.578125 
Q 30.03125 56 36.53125 56 
Q 37.453125 56 38.578125 55.875 
Q 39.703125 55.765625 41.0625 55.515625 
z
" id="DejaVuSans-114"/>
       <path d="M 9.421875 75.984375 
L 18.40625 75.984375 
L 18.40625 0 
L 9.421875 0 
z
" id="DejaVuSans-108"/>
      </defs>
      <use xlink:href="#DejaVuSans-67"/>
      <use x="69.824219" xlink:href="#DejaVuSans-101"/>
      <use x="131.347656" xlink:href="#DejaVuSans-110"/>
      <use x="194.726562" xlink:href="#DejaVuSans-116"/>
      <use x="233.935547" xlink:href="#DejaVuSans-114"/>
      <use x="272.798828" xlink:href="#DejaVuSans-101"/>
      <use x="334.322266" xlink:href="#DejaVuSans-108"/>
      <use x="362.105469" xlink:href="#DejaVuSans-105"/>
      <use x="389.888672" xlink:href="#DejaVuSans-110"/>
      <use x="453.267578" xlink:href="#DejaVuSans-101"/>
     </g>
    </g>
    <g id="line2d_20">
     <path d="M 260.462188 69.248563 
L 280.462188 69.248563 
" style="fill:none;stroke:#ff7f0e;stroke-linecap:square;stroke-width:1.5;"/>
    </g>
    <g id="line2d_21"/>
    <g id="text_16">
     <!-- Shortest Path -->
     <g transform="translate(288.462188 72.748563)scale(0.1 -0.1)">
      <defs>
       <path d="M 53.515625 70.515625 
L 53.515625 60.890625 
Q 47.90625 63.578125 42.921875 64.890625 
Q 37.9375 66.21875 33.296875 66.21875 
Q 25.25 66.21875 20.875 63.09375 
Q 16.5 59.96875 16.5 54.203125 
Q 16.5 49.359375 19.40625 46.890625 
Q 22.3125 44.4375 30.421875 42.921875 
L 36.375 41.703125 
Q 47.40625 39.59375 52.65625 34.296875 
Q 57.90625 29 57.90625 20.125 
Q 57.90625 9.515625 50.796875 4.046875 
Q 43.703125 -1.421875 29.984375 -1.421875 
Q 24.8125 -1.421875 18.96875 -0.25 
Q 13.140625 0.921875 6.890625 3.21875 
L 6.890625 13.375 
Q 12.890625 10.015625 18.65625 8.296875 
Q 24.421875 6.59375 29.984375 6.59375 
Q 38.421875 6.59375 43.015625 9.90625 
Q 47.609375 13.234375 47.609375 19.390625 
Q 47.609375 24.75 44.3125 27.78125 
Q 41.015625 30.8125 33.5 32.328125 
L 27.484375 33.5 
Q 16.453125 35.6875 11.515625 40.375 
Q 6.59375 45.0625 6.59375 53.421875 
Q 6.59375 63.09375 13.40625 68.65625 
Q 20.21875 74.21875 32.171875 74.21875 
Q 37.3125 74.21875 42.625 73.28125 
Q 47.953125 72.359375 53.515625 70.515625 
z
" id="DejaVuSans-83"/>
       <path d="M 54.890625 33.015625 
L 54.890625 0 
L 45.90625 0 
L 45.90625 32.71875 
Q 45.90625 40.484375 42.875 44.328125 
Q 39.84375 48.1875 33.796875 48.1875 
Q 26.515625 48.1875 22.3125 43.546875 
Q 18.109375 38.921875 18.109375 30.90625 
L 18.109375 0 
L 9.078125 0 
L 9.078125 75.984375 
L 18.109375 75.984375 
L 18.109375 46.1875 
Q 21.34375 51.125 25.703125 53.5625 
Q 30.078125 56 35.796875 56 
Q 45.21875 56 50.046875 50.171875 
Q 54.890625 44.34375 54.890625 33.015625 
z
" id="DejaVuSans-104"/>
       <path d="M 30.609375 48.390625 
Q 23.390625 48.390625 19.1875 42.75 
Q 14.984375 37.109375 14.984375 27.296875 
Q 14.984375 17.484375 19.15625 11.84375 
Q 23.34375 6.203125 30.609375 6.203125 
Q 37.796875 6.203125 41.984375 11.859375 
Q 46.1875 17.53125 46.1875 27.296875 
Q 46.1875 37.015625 41.984375 42.703125 
Q 37.796875 48.390625 30.609375 48.390625 
z
M 30.609375 56 
Q 42.328125 56 49.015625 48.375 
Q 55.71875 40.765625 55.71875 27.296875 
Q 55.71875 13.875 49.015625 6.21875 
Q 42.328125 -1.421875 30.609375 -1.421875 
Q 18.84375 -1.421875 12.171875 6.21875 
Q 5.515625 13.875 5.515625 27.296875 
Q 5.515625 40.765625 12.171875 48.375 
Q 18.84375 56 30.609375 56 
z
" id="DejaVuSans-111"/>
       <path d="M 19.671875 64.796875 
L 19.671875 37.40625 
L 32.078125 37.40625 
Q 38.96875 37.40625 42.71875 40.96875 
Q 46.484375 44.53125 46.484375 51.125 
Q 46.484375 57.671875 42.71875 61.234375 
Q 38.96875 64.796875 32.078125 64.796875 
z
M 9.8125 72.90625 
L 32.078125 72.90625 
Q 44.34375 72.90625 50.609375 67.359375 
Q 56.890625 61.8125 56.890625 51.125 
Q 56.890625 40.328125 50.609375 34.8125 
Q 44.34375 29.296875 32.078125 29.296875 
L 19.671875 29.296875 
L 19.671875 0 
L 9.8125 0 
z
" id="DejaVuSans-80"/>
      </defs>
      <use xlink:href="#DejaVuSans-83"/>
      <use x="63.476562" xlink:href="#DejaVuSans-104"/>
      <use x="126.855469" xlink:href="#DejaVuSans-111"/>
      <use x="188.037109" xlink:href="#DejaVuSans-114"/>
      <use x="229.150391" xlink:href="#DejaVuSans-116"/>
      <use x="268.359375" xlink:href="#DejaVuSans-101"/>
      <use x="329.882812" xlink:href="#DejaVuSans-115"/>
      <use x="381.982422" xlink:href="#DejaVuSans-116"/>
      <use x="421.191406" xlink:href="#DejaVuSans-32"/>
      <use x="452.978516" xlink:href="#DejaVuSans-80"/>
      <use x="508.78125" xlink:href="#DejaVuSans-97"/>
      <use x="570.060547" xlink:href="#DejaVuSans-116"/>
      <use x="609.269531" xlink:href="#DejaVuSans-104"/>
     </g>
    </g>
    <g id="line2d_22">
     <path d="M 260.462188 83.926688 
L 280.462188 83.926688 
" style="fill:none;stroke:#2ca02c;stroke-linecap:square;stroke-width:1.5;"/>
    </g>
    <g id="line2d_23"/>
    <g id="text_17">
     <!-- Minimum Curvature (C) -->
     <g transform="translate(288.462188 87.426688)scale(0.1 -0.1)">
      <defs>
       <path d="M 9.8125 72.90625 
L 24.515625 72.90625 
L 43.109375 23.296875 
L 61.8125 72.90625 
L 76.515625 72.90625 
L 76.515625 0 
L 66.890625 0 
L 66.890625 64.015625 
L 48.09375 14.015625 
L 38.1875 14.015625 
L 19.390625 64.015625 
L 19.390625 0 
L 9.8125 0 
z
" id="DejaVuSans-77"/>
       <path d="M 52 44.1875 
Q 55.375 50.25 60.0625 53.125 
Q 64.75 56 71.09375 56 
Q 79.640625 56 84.28125 50.015625 
Q 88.921875 44.046875 88.921875 33.015625 
L 88.921875 0 
L 79.890625 0 
L 79.890625 32.71875 
Q 79.890625 40.578125 77.09375 44.375 
Q 74.3125 48.1875 68.609375 48.1875 
Q 61.625 48.1875 57.5625 43.546875 
Q 53.515625 38.921875 53.515625 30.90625 
L 53.515625 0 
L 44.484375 0 
L 44.484375 32.71875 
Q 44.484375 40.625 41.703125 44.40625 
Q 38.921875 48.1875 33.109375 48.1875 
Q 26.21875 48.1875 22.15625 43.53125 
Q 18.109375 38.875 18.109375 30.90625 
L 18.109375 0 
L 9.078125 0 
L 9.078125 54.6875 
L 18.109375 54.6875 
L 18.109375 46.1875 
Q 21.1875 51.21875 25.484375 53.609375 
Q 29.78125 56 35.6875 56 
Q 41.65625 56 45.828125 52.96875 
Q 50 49.953125 52 44.1875 
z
" id="DejaVuSans-109"/>
       <path d="M 8.5 21.578125 
L 8.5 54.6875 
L 17.484375 54.6875 
L 17.484375 21.921875 
Q 17.484375 14.15625 20.5 10.265625 
Q 23.53125 6.390625 29.59375 6.390625 
Q 36.859375 6.390625 41.078125 11.03125 
Q 45.3125 15.671875 45.3125 23.6875 
L 45.3125 54.6875 
L 54.296875 54.6875 
L 54.296875 0 
L 45.3125 0 
L 45.3125 8.40625 
Q 42.046875 3.421875 37.71875 1 
Q 33.40625 -1.421875 27.6875 -1.421875 
Q 18.265625 -1.421875 13.375 4.4375 
Q 8.5 10.296875 8.5 21.578125 
z
M 31.109375 56 
z
" id="DejaVuSans-117"/>
       <path d="M 31 75.875 
Q 24.46875 64.65625 21.28125 53.65625 
Q 18.109375 42.671875 18.109375 31.390625 
Q 18.109375 20.125 21.3125 9.0625 
Q 24.515625 -2 31 -13.1875 
L 23.1875 -13.1875 
Q 15.875 -1.703125 12.234375 9.375 
Q 8.59375 20.453125 8.59375 31.390625 
Q 8.59375 42.28125 12.203125 53.3125 
Q 15.828125 64.359375 23.1875 75.875 
z
" id="DejaVuSans-40"/>
       <path d="M 8.015625 75.875 
L 15.828125 75.875 
Q 23.140625 64.359375 26.78125 53.3125 
Q 30.421875 42.28125 30.421875 31.390625 
Q 30.421875 20.453125 26.78125 9.375 
Q 23.140625 -1.703125 15.828125 -13.1875 
L 8.015625 -13.1875 
Q 14.5 -2 17.703125 9.0625 
Q 20.90625 20.125 20.90625 31.390625 
Q 20.90625 42.671875 17.703125 53.65625 
Q 14.5 64.65625 8.015625 75.875 
z
" id="DejaVuSans-41"/>
      </defs>
      <use xlink:href="#DejaVuSans-77"/>
      <use x="86.279297" xlink:href="#DejaVuSans-105"/>
      <use x="114.0625" xlink:href="#DejaVuSans-110"/>
      <use x="177.441406" xlink:href="#DejaVuSans-105"/>
      <use x="205.224609" xlink:href="#DejaVuSans-109"/>
      <use x="302.636719" xlink:href="#DejaVuSans-117"/>
      <use x="366.015625" xlink:href="#DejaVuSans-109"/>
      <use x="463.427734" xlink:href="#DejaVuSans-32"/>
      <use x="495.214844" xlink:href="#DejaVuSans-67"/>
      <use x="565.039062" xlink:href="#DejaVuSans-117"/>
      <use x="628.417969" xlink:href="#DejaVuSans-114"/>
      <use x="669.53125" xlink:href="#DejaVuSans-118"/>
      <use x="728.710938" xlink:href="#DejaVuSans-97"/>
      <use x="789.990234" xlink:href="#DejaVuSans-116"/>
      <use x="829.199219" xlink:href="#DejaVuSans-117"/>
      <use x="892.578125" xlink:href="#DejaVuSans-114"/>
      <use x="931.441406" xlink:href="#DejaVuSans-101"/>
      <use x="992.964844" xlink:href="#DejaVuSans-32"/>
      <use x="1024.751953" xlink:href="#DejaVuSans-40"/>
      <use x="1063.765625" xlink:href="#DejaVuSans-67"/>
      <use x="1133.589844" xlink:href="#DejaVuSans-41"/>
     </g>
    </g>
    <g id="line2d_24">
     <path d="M 260.462188 98.604813 
L 280.462188 98.604813 
" style="fill:none;stroke:#d62728;stroke-linecap:square;stroke-width:1.5;"/>
    </g>
    <g id="line2d_25"/>
    <g id="text_18">
     <!-- Minimum Curvature (S) -->
     <g transform="translate(288.462188 102.104813)scale(0.1 -0.1)">
      <use xlink:href="#DejaVuSans-77"/>
      <use x="86.279297" xlink:href="#DejaVuSans-105"/>
      <use x="114.0625" xlink:href="#DejaVuSans-110"/>
      <use x="177.441406" xlink:href="#DejaVuSans-105"/>
      <use x="205.224609" xlink:href="#DejaVuSans-109"/>
      <use x="302.636719" xlink:href="#DejaVuSans-117"/>
      <use x="366.015625" xlink:href="#DejaVuSans-109"/>
      <use x="463.427734" xlink:href="#DejaVuSans-32"/>
      <use x="495.214844" xlink:href="#DejaVuSans-67"/>
      <use x="565.039062" xlink:href="#DejaVuSans-117"/>
      <use x="628.417969" xlink:href="#DejaVuSans-114"/>
      <use x="669.53125" xlink:href="#DejaVuSans-118"/>
      <use x="728.710938" xlink:href="#DejaVuSans-97"/>
      <use x="789.990234" xlink:href="#DejaVuSans-116"/>
      <use x="829.199219" xlink:href="#DejaVuSans-117"/>
      <use x="892.578125" xlink:href="#DejaVuSans-114"/>
      <use x="931.441406" xlink:href="#DejaVuSans-101"/>
      <use x="992.964844" xlink:href="#DejaVuSans-32"/>
      <use x="1024.751953" xlink:href="#DejaVuSans-40"/>
      <use x="1063.765625" xlink:href="#DejaVuSans-83"/>
      <use x="1127.242188" xlink:href="#DejaVuSans-41"/>
     </g>
    </g>
   </g>
  </g>
 </g>
 <defs>
  <clipPath id="pe6edf441d6">
   <rect height="266.112" width="357.12" x="57.6" y="41.472"/>
  </clipPath>
 </defs>
</svg>
