<?xml version="1.0" encoding="utf-8" standalone="no"?>
<!DOCTYPE svg PUBLIC "-//W3C//DTD SVG 1.1//EN"
  "http://www.w3.org/Graphics/SVG/1.1/DTD/svg11.dtd">
<svg xmlns:xlink="http://www.w3.org/1999/xlink" width="460.8pt" height="345.6pt" viewBox="0 0 460.8 345.6" xmlns="http://www.w3.org/2000/svg" version="1.1">
 <metadata>
  <rdf:RDF xmlns:dc="http://purl.org/dc/elements/1.1/" xmlns:cc="http://creativecommons.org/ns#" xmlns:rdf="http://www.w3.org/1999/02/22-rdf-syntax-ns#">
   <cc:Work>
    <dc:type rdf:resource="http://purl.org/dc/dcmitype/StillImage"/>
    <dc:date>2024-10-02T14:29:32.291270</dc:date>
    <dc:format>image/svg+xml</dc:format>
    <dc:creator>
     <cc:Agent>
      <dc:title>Matplotlib v3.5.1, https://matplotlib.org/</dc:title>
     </cc:Agent>
    </dc:creator>
   </cc:Work>
  </rdf:RDF>
 </metadata>
 <defs>
  <style type="text/css">*{stroke-linejoin: round; stroke-linecap: butt}</style>
 </defs>
 <g id="figure_1">
  <g id="patch_1">
   <path d="M 0 345.6 
L 460.8 345.6 
L 460.8 0 
L 0 0 
z
" style="fill: #ffffff"/>
  </g>
  <g id="axes_1">
   <g id="patch_2">
    <path d="M 57.6 307.584 
L 414.72 307.584 
L 414.72 41.472 
L 57.6 41.472 
z
" style="fill: #ffffff"/>
   </g>
   <g id="matplotlib.axis_1">
    <g id="xtick_1">
     <g id="line2d_1">
      <defs>
       <path id="m0a19d46976" d="M 0 0 
L 0 3.5 
" style="stroke: #000000; stroke-width: 0.8"/>
      </defs>
      <g>
       <use xlink:href="#m0a19d46976" x="73.832727" y="307.584" style="stroke: #000000; stroke-width: 0.8"/>
      </g>
     </g>
     <g id="text_1">
      <!-- 0.0 -->
      <g transform="translate(65.881165 322.182437)scale(0.1 -0.1)">
       <defs>
        <path id="DejaVuSans-30" d="M 2034 4250 
Q 1547 4250 1301 3770 
Q 1056 3291 1056 2328 
Q 1056 1369 1301 889 
Q 1547 409 2034 409 
Q 2525 409 2770 889 
Q 3016 1369 3016 2328 
Q 3016 3291 2770 3770 
Q 2525 4250 2034 4250 
z
M 2034 4750 
Q 2819 4750 3233 4129 
Q 3647 3509 3647 2328 
Q 3647 1150 3233 529 
Q 2819 -91 2034 -91 
Q 1250 -91 836 529 
Q 422 1150 422 2328 
Q 422 3509 836 4129 
Q 1250 4750 2034 4750 
z
" transform="scale(0.015625)"/>
        <path id="DejaVuSans-2e" d="M 684 794 
L 1344 794 
L 1344 0 
L 684 0 
L 684 794 
z
" transform="scale(0.015625)"/>
       </defs>
       <use xlink:href="#DejaVuSans-30"/>
       <use xlink:href="#DejaVuSans-2e" x="63.623047"/>
       <use xlink:href="#DejaVuSans-30" x="95.410156"/>
      </g>
     </g>
    </g>
    <g id="xtick_2">
     <g id="line2d_2">
      <g>
       <use xlink:href="#m0a19d46976" x="138.763636" y="307.584" style="stroke: #000000; stroke-width: 0.8"/>
      </g>
     </g>
     <g id="text_2">
      <!-- 0.2 -->
      <g transform="translate(130.812074 322.182437)scale(0.1 -0.1)">
       <defs>
        <path id="DejaVuSans-32" d="M 1228 531 
L 3431 531 
L 3431 0 
L 469 0 
L 469 531 
Q 828 903 1448 1529 
Q 2069 2156 2228 2338 
Q 2531 2678 2651 2914 
Q 2772 3150 2772 3378 
Q 2772 3750 2511 3984 
Q 2250 4219 1831 4219 
Q 1534 4219 1204 4116 
Q 875 4013 500 3803 
L 500 4441 
Q 881 4594 1212 4672 
Q 1544 4750 1819 4750 
Q 2544 4750 2975 4387 
Q 3406 4025 3406 3419 
Q 3406 3131 3298 2873 
Q 3191 2616 2906 2266 
Q 2828 2175 2409 1742 
Q 1991 1309 1228 531 
z
" transform="scale(0.015625)"/>
       </defs>
       <use xlink:href="#DejaVuSans-30"/>
       <use xlink:href="#DejaVuSans-2e" x="63.623047"/>
       <use xlink:href="#DejaVuSans-32" x="95.410156"/>
      </g>
     </g>
    </g>
    <g id="xtick_3">
     <g id="line2d_3">
      <g>
       <use xlink:href="#m0a19d46976" x="203.694545" y="307.584" style="stroke: #000000; stroke-width: 0.8"/>
      </g>
     </g>
     <g id="text_3">
      <!-- 0.4 -->
      <g transform="translate(195.742983 322.182437)scale(0.1 -0.1)">
       <defs>
        <path id="DejaVuSans-34" d="M 2419 4116 
L 825 1625 
L 2419 1625 
L 2419 4116 
z
M 2253 4666 
L 3047 4666 
L 3047 1625 
L 3713 1625 
L 3713 1100 
L 3047 1100 
L 3047 0 
L 2419 0 
L 2419 1100 
L 313 1100 
L 313 1709 
L 2253 4666 
z
" transform="scale(0.015625)"/>
       </defs>
       <use xlink:href="#DejaVuSans-30"/>
       <use xlink:href="#DejaVuSans-2e" x="63.623047"/>
       <use xlink:href="#DejaVuSans-34" x="95.410156"/>
      </g>
     </g>
    </g>
    <g id="xtick_4">
     <g id="line2d_4">
      <g>
       <use xlink:href="#m0a19d46976" x="268.625455" y="307.584" style="stroke: #000000; stroke-width: 0.8"/>
      </g>
     </g>
     <g id="text_4">
      <!-- 0.6 -->
      <g transform="translate(260.673892 322.182437)scale(0.1 -0.1)">
       <defs>
        <path id="DejaVuSans-36" d="M 2113 2584 
Q 1688 2584 1439 2293 
Q 1191 2003 1191 1497 
Q 1191 994 1439 701 
Q 1688 409 2113 409 
Q 2538 409 2786 701 
Q 3034 994 3034 1497 
Q 3034 2003 2786 2293 
Q 2538 2584 2113 2584 
z
M 3366 4563 
L 3366 3988 
Q 3128 4100 2886 4159 
Q 2644 4219 2406 4219 
Q 1781 4219 1451 3797 
Q 1122 3375 1075 2522 
Q 1259 2794 1537 2939 
Q 1816 3084 2150 3084 
Q 2853 3084 3261 2657 
Q 3669 2231 3669 1497 
Q 3669 778 3244 343 
Q 2819 -91 2113 -91 
Q 1303 -91 875 529 
Q 447 1150 447 2328 
Q 447 3434 972 4092 
Q 1497 4750 2381 4750 
Q 2619 4750 2861 4703 
Q 3103 4656 3366 4563 
z
" transform="scale(0.015625)"/>
       </defs>
       <use xlink:href="#DejaVuSans-30"/>
       <use xlink:href="#DejaVuSans-2e" x="63.623047"/>
       <use xlink:href="#DejaVuSans-36" x="95.410156"/>
      </g>
     </g>
    </g>
    <g id="xtick_5">
     <g id="line2d_5">
      <g>
       <use xlink:href="#m0a19d46976" x="333.556364" y="307.584" style="stroke: #000000; stroke-width: 0.8"/>
      </g>
     </g>
     <g id="text_5">
      <!-- 0.8 -->
      <g transform="translate(325.604801 322.182437)scale(0.1 -0.1)">
       <defs>
        <path id="DejaVuSans-38" d="M 2034 2216 
Q 1584 2216 1326 1975 
Q 1069 1734 1069 1313 
Q 1069 891 1326 650 
Q 1584 409 2034 409 
Q 2484 409 2743 651 
Q 3003 894 3003 1313 
Q 3003 1734 2745 1975 
Q 2488 2216 2034 2216 
z
M 1403 2484 
Q 997 2584 770 2862 
Q 544 3141 544 3541 
Q 544 4100 942 4425 
Q 1341 4750 2034 4750 
Q 2731 4750 3128 4425 
Q 3525 4100 3525 3541 
Q 3525 3141 3298 2862 
Q 3072 2584 2669 2484 
Q 3125 2378 3379 2068 
Q 3634 1759 3634 1313 
Q 3634 634 3220 271 
Q 2806 -91 2034 -91 
Q 1263 -91 848 271 
Q 434 634 434 1313 
Q 434 1759 690 2068 
Q 947 2378 1403 2484 
z
M 1172 3481 
Q 1172 3119 1398 2916 
Q 1625 2713 2034 2713 
Q 2441 2713 2670 2916 
Q 2900 3119 2900 3481 
Q 2900 3844 2670 4047 
Q 2441 4250 2034 4250 
Q 1625 4250 1398 4047 
Q 1172 3844 1172 3481 
z
" transform="scale(0.015625)"/>
       </defs>
       <use xlink:href="#DejaVuSans-30"/>
       <use xlink:href="#DejaVuSans-2e" x="63.623047"/>
       <use xlink:href="#DejaVuSans-38" x="95.410156"/>
      </g>
     </g>
    </g>
    <g id="xtick_6">
     <g id="line2d_6">
      <g>
       <use xlink:href="#m0a19d46976" x="398.487273" y="307.584" style="stroke: #000000; stroke-width: 0.8"/>
      </g>
     </g>
     <g id="text_6">
      <!-- 1.0 -->
      <g transform="translate(390.53571 322.182437)scale(0.1 -0.1)">
       <defs>
        <path id="DejaVuSans-31" d="M 794 531 
L 1825 531 
L 1825 4091 
L 703 3866 
L 703 4441 
L 1819 4666 
L 2450 4666 
L 2450 531 
L 3481 531 
L 3481 0 
L 794 0 
L 794 531 
z
" transform="scale(0.015625)"/>
       </defs>
       <use xlink:href="#DejaVuSans-31"/>
       <use xlink:href="#DejaVuSans-2e" x="63.623047"/>
       <use xlink:href="#DejaVuSans-30" x="95.410156"/>
      </g>
     </g>
    </g>
   </g>
   <g id="matplotlib.axis_2">
    <g id="ytick_1">
     <g id="line2d_7">
      <defs>
       <path id="m515f2f5aed" d="M 0 0 
L -3.5 0 
" style="stroke: #000000; stroke-width: 0.8"/>
      </defs>
      <g>
       <use xlink:href="#m515f2f5aed" x="57.6" y="284.12642" style="stroke: #000000; stroke-width: 0.8"/>
      </g>
     </g>
     <g id="text_7">
      <!-- −2 -->
      <g transform="translate(35.857813 287.925639)scale(0.1 -0.1)">
       <defs>
        <path id="DejaVuSans-2212" d="M 678 2272 
L 4684 2272 
L 4684 1741 
L 678 1741 
L 678 2272 
z
" transform="scale(0.015625)"/>
       </defs>
       <use xlink:href="#DejaVuSans-2212"/>
       <use xlink:href="#DejaVuSans-32" x="83.789062"/>
      </g>
     </g>
    </g>
    <g id="ytick_2">
     <g id="line2d_8">
      <g>
       <use xlink:href="#m515f2f5aed" x="57.6" y="229.417639" style="stroke: #000000; stroke-width: 0.8"/>
      </g>
     </g>
     <g id="text_8">
      <!-- −1 -->
      <g transform="translate(35.857813 233.216858)scale(0.1 -0.1)">
       <use xlink:href="#DejaVuSans-2212"/>
       <use xlink:href="#DejaVuSans-31" x="83.789062"/>
      </g>
     </g>
    </g>
    <g id="ytick_3">
     <g id="line2d_9">
      <g>
       <use xlink:href="#m515f2f5aed" x="57.6" y="174.708858" style="stroke: #000000; stroke-width: 0.8"/>
      </g>
     </g>
     <g id="text_9">
      <!-- 0 -->
      <g transform="translate(44.2375 178.508077)scale(0.1 -0.1)">
       <use xlink:href="#DejaVuSans-30"/>
      </g>
     </g>
    </g>
    <g id="ytick_4">
     <g id="line2d_10">
      <g>
       <use xlink:href="#m515f2f5aed" x="57.6" y="120.000077" style="stroke: #000000; stroke-width: 0.8"/>
      </g>
     </g>
     <g id="text_10">
      <!-- 1 -->
      <g transform="translate(44.2375 123.799296)scale(0.1 -0.1)">
       <use xlink:href="#DejaVuSans-31"/>
      </g>
     </g>
    </g>
    <g id="ytick_5">
     <g id="line2d_11">
      <g>
       <use xlink:href="#m515f2f5aed" x="57.6" y="65.291296" style="stroke: #000000; stroke-width: 0.8"/>
      </g>
     </g>
     <g id="text_11">
      <!-- 2 -->
      <g transform="translate(44.2375 69.090515)scale(0.1 -0.1)">
       <use xlink:href="#DejaVuSans-32"/>
      </g>
     </g>
    </g>
   </g>
   <g id="line2d_12">
    <path d="M 73.832727 174.708858 
L 91.535864 174.715157 
L 91.698277 176.557828 
L 92.023099 162.603059 
L 92.185519 164.330269 
L 92.347933 156.591379 
L 92.510344 155.555392 
L 92.67276 171.092936 
L 92.835175 175.613394 
L 92.997589 170.614909 
L 93.32241 184.633499 
L 93.647245 166.232676 
L 94.134479 177.840986 
L 94.459312 144.008486 
L 94.784138 168.216324 
L 94.946558 150.700443 
L 95.10896 149.549576 
L 95.271378 165.672172 
L 95.433793 162.153781 
L 95.59621 162.927336 
L 95.758622 166.204555 
L 95.921033 151.337703 
L 96.083452 148.339929 
L 96.245864 161.402342 
L 96.570689 167.348484 
L 96.733101 175.843868 
L 96.89552 169.913263 
L 97.057937 172.155682 
L 97.220344 179.158897 
L 97.382759 177.716612 
L 97.54517 183.333048 
L 97.87 168.709728 
L 98.032415 174.795296 
L 98.682072 180.161019 
L 98.844488 183.29389 
L 99.006899 174.098269 
L 99.169309 154.529015 
L 99.33173 154.282236 
L 99.818975 222.625496 
L 99.981369 215.384498 
L 100.306205 178.855422 
L 100.631013 214.555421 
L 100.793458 209.188865 
L 101.280683 153.867942 
L 101.443109 162.287149 
L 101.767941 216.843056 
L 101.930304 213.948496 
L 102.255164 172.308614 
L 102.417579 173.50069 
L 103.067222 209.235114 
L 103.22965 197.796817 
L 103.392053 175.77661 
L 103.716887 188.790393 
L 103.879305 180.652222 
L 104.041714 187.30325 
L 104.366502 223.392322 
L 104.528965 213.298091 
L 104.691366 219.377466 
L 104.853778 211.182951 
L 105.016196 185.41134 
L 105.178608 185.085537 
L 105.341036 196.454713 
L 105.503422 194.193417 
L 105.665855 178.415877 
L 105.828262 173.830603 
L 106.153057 220.407632 
L 106.477914 187.211253 
L 106.965144 191.980731 
L 107.127577 194.918731 
L 107.289967 193.555912 
L 107.614807 173.303134 
L 107.777219 183.038779 
L 108.102046 170.14 
L 108.264459 174.833672 
L 108.426877 169.830197 
L 108.589294 173.58586 
L 108.751699 183.059542 
L 109.238951 139.999899 
L 109.401355 140.197514 
L 109.56378 137.698793 
L 109.726186 133.408039 
L 110.213427 175.910607 
L 110.37584 174.231701 
L 110.538255 174.811029 
L 110.700669 174.772875 
L 110.863083 173.517997 
L 111.350317 148.050284 
L 111.675147 170.206255 
L 111.837563 172.778893 
L 111.999966 162.842575 
L 112.162409 145.593832 
L 112.324747 145.119158 
L 112.649613 171.880478 
L 112.812035 170.811907 
L 112.974444 167.73493 
L 113.136872 156.347363 
L 113.299253 157.801294 
L 113.461688 177.707122 
L 113.624106 173.802317 
L 113.786482 156.11806 
L 114.111321 164.865273 
L 114.436114 131.646951 
L 114.760953 191.299999 
L 115.085807 178.286218 
L 115.248201 186.615014 
L 115.735454 155.001875 
L 115.897877 158.128782 
L 116.060288 169.359281 
L 116.385102 173.071475 
L 116.547512 186.625577 
L 116.709941 185.744989 
L 116.872358 167.650679 
L 117.034739 167.847111 
L 117.197142 186.534146 
L 117.359588 190.266729 
L 117.684402 163.807372 
L 117.846821 163.411821 
L 118.334023 203.38278 
L 118.496489 201.722976 
L 118.658856 193.360104 
L 118.821297 177.598673 
L 118.983709 176.559238 
L 119.146099 184.388745 
L 119.308527 181.266051 
L 119.470931 182.707601 
L 119.795758 193.450674 
L 119.958194 200.733531 
L 120.12057 197.349202 
L 120.283015 200.27458 
L 120.44538 218.508611 
L 120.607839 218.568907 
L 121.095068 174.71843 
L 121.257483 174.24223 
L 121.419897 174.938823 
L 121.582311 174.886403 
L 121.744725 173.117285 
L 121.907135 182.142822 
L 122.069541 206.394079 
L 122.231961 212.154678 
L 122.55678 176.074291 
L 122.881601 174.581104 
L 123.044013 174.867738 
L 123.206425 174.753198 
L 123.531253 176.542428 
L 123.693665 178.246947 
L 123.85608 177.607297 
L 124.18087 157.320082 
L 124.668149 180.91686 
L 124.830537 183.061133 
L 125.155383 156.208712 
L 125.317753 150.985908 
L 125.642593 181.292686 
L 125.967449 145.730206 
L 126.129821 142.708533 
L 126.454642 185.587437 
L 126.617095 168.632168 
L 126.779484 164.67791 
L 126.941925 190.254747 
L 127.104296 195.48658 
L 127.429143 161.305675 
L 127.753938 144.314856 
L 128.241213 172.5267 
L 128.403621 171.856159 
L 128.728441 168.3442 
L 128.89087 178.331455 
L 129.053274 179.158429 
L 129.215676 170.910613 
L 129.378096 171.603923 
L 129.865333 180.414866 
L 130.027727 177.715253 
L 130.190138 168.889561 
L 130.352565 169.41995 
L 130.677353 158.255627 
L 131.327014 185.497985 
L 131.489431 180.690932 
L 131.65184 187.867075 
L 131.97667 177.462432 
L 132.139063 182.091603 
L 132.463911 165.250491 
L 132.951152 180.761693 
L 133.113557 179.536528 
L 133.275988 166.762289 
L 133.438372 164.433624 
L 133.600786 168.958184 
L 133.763192 161.026671 
L 133.925627 166.809003 
L 134.088024 176.939275 
L 134.412853 172.253433 
L 134.575251 180.611181 
L 134.737681 201.961556 
L 134.900069 200.124099 
L 135.224908 168.701107 
L 135.387311 169.524087 
L 135.549726 167.821874 
L 135.71215 157.291625 
L 135.874546 160.191888 
L 136.036957 167.904069 
L 136.199348 164.350091 
L 136.524187 182.618076 
L 136.686612 185.458251 
L 136.848979 191.097342 
L 137.011432 182.336376 
L 137.336239 179.677834 
L 137.498637 170.560231 
L 137.661063 171.547541 
L 137.985886 185.562155 
L 138.310701 172.023915 
L 138.473112 174.88298 
L 138.635523 174.938818 
L 138.960348 174.664538 
L 139.610005 176.034151 
L 139.77242 176.824925 
L 139.934833 178.868016 
L 140.097247 175.463938 
L 140.259666 168.425601 
L 140.422066 170.189455 
L 140.584473 175.705173 
L 140.746883 175.380284 
L 140.909292 173.916039 
L 141.071695 179.141425 
L 141.234106 192.360139 
L 141.396536 186.271091 
L 141.558927 172.286998 
L 141.883757 174.217959 
L 142.046171 172.278714 
L 142.370975 184.244006 
L 142.695804 169.737277 
L 142.858215 177.792081 
L 143.020638 175.326999 
L 143.345437 184.697782 
L 143.507878 169.465691 
L 143.670288 169.796698 
L 143.832678 180.494593 
L 143.995105 181.854176 
L 144.15749 177.96107 
L 144.319896 170.659557 
L 144.48232 171.745899 
L 144.644732 178.828687 
L 144.807121 176.841252 
L 144.969519 169.431026 
L 145.131946 171.790446 
L 145.29436 180.828458 
L 145.456743 181.420486 
L 145.619168 174.642066 
L 145.943968 202.101479 
L 146.268826 181.695252 
L 146.431223 184.098497 
L 146.756066 166.204168 
L 147.080865 173.823046 
L 147.24329 160.536214 
L 147.405702 161.480308 
L 147.568112 174.570082 
L 147.73053 175.806072 
L 147.892944 174.375094 
L 148.055358 174.835733 
L 148.217772 174.666017 
L 148.5426 174.704 
L 149.354671 174.726081 
L 149.517084 174.903667 
L 149.6795 173.263906 
L 149.841908 175.59265 
L 150.16673 195.342606 
L 150.491564 171.521634 
L 150.653981 171.106006 
L 151.141224 189.6422 
L 151.303634 180.178896 
L 151.466043 177.891921 
L 151.790876 190.182981 
L 151.953266 186.131315 
L 152.278079 150.600307 
L 152.602872 193.762291 
L 153.09014 174.864501 
L 153.252551 175.696512 
L 153.414957 183.284369 
L 153.739767 225.503731 
L 153.902202 211.367515 
L 154.06462 183.810226 
L 154.227014 177.232255 
L 154.389447 190.215908 
L 154.714206 166.354002 
L 155.039068 211.058464 
L 155.363877 178.804222 
L 155.688729 207.311221 
L 155.851126 201.821484 
L 156.17596 181.272401 
L 156.50078 190.935341 
L 156.663211 203.195699 
L 156.82557 199.378909 
L 156.988027 175.53423 
L 157.150417 179.542134 
L 157.312855 205.178212 
L 157.475219 203.740958 
L 157.63766 196.509989 
L 157.800014 206.90201 
L 157.962482 201.552252 
L 158.124885 190.936844 
L 158.287294 190.965715 
L 158.612116 173.573609 
L 158.936955 186.926466 
L 159.099343 186.386332 
L 159.26178 175.598425 
L 159.424183 173.853932 
L 159.586579 174.37383 
L 159.748975 169.484294 
L 160.073817 182.825636 
L 160.236234 177.660635 
L 160.561062 175.528348 
L 160.885889 179.328667 
L 161.048314 170.566187 
L 161.210681 167.809745 
L 161.373093 175.61196 
L 161.535507 177.075134 
L 161.860316 174.546877 
L 162.02272 175.073607 
L 162.347508 181.711922 
L 162.509948 172.655644 
L 162.672361 170.415964 
L 162.834773 175.461959 
L 162.997188 174.578026 
L 163.159602 174.823912 
L 163.322017 174.296448 
L 163.484428 175.958614 
L 163.646845 180.405847 
L 163.971633 167.783255 
L 164.296455 174.821924 
L 164.45886 174.783649 
L 164.621268 178.376349 
L 164.78365 179.488012 
L 164.946086 170.269699 
L 165.108501 169.172471 
L 165.270911 175.216765 
L 165.433326 174.528629 
L 165.59574 174.69659 
L 165.758156 173.22772 
L 165.920563 174.72267 
L 166.083001 185.190612 
L 166.245365 183.825913 
L 166.407768 173.460773 
L 166.570183 172.747563 
L 166.732586 174.709553 
L 166.894991 174.887054 
L 167.057397 174.83685 
L 167.219803 175.536037 
L 167.382209 174.359496 
L 167.706984 163.998113 
L 168.031845 179.453451 
L 168.356673 171.527236 
L 168.681448 186.606047 
L 169.006286 174.467825 
L 169.168694 175.274673 
L 169.331093 171.453212 
L 169.493511 161.714996 
L 169.655934 167.640126 
L 169.818322 178.367429 
L 170.305566 175.367433 
L 170.630394 174.780925 
L 171.117634 174.686899 
L 171.280044 174.732239 
L 171.442451 174.64587 
L 171.604858 174.725863 
L 171.929668 173.042925 
L 172.092062 177.857403 
L 172.25446 186.506739 
L 172.579297 171.366369 
L 172.741712 174.458884 
L 172.904124 174.783494 
L 173.066539 175.447465 
L 173.228954 175.550492 
L 173.391369 177.509811 
L 173.553779 177.729232 
L 173.716216 166.160569 
L 173.878555 162.530368 
L 174.203395 177.089116 
L 174.528201 175.575454 
L 175.177825 174.618574 
L 175.340236 174.929883 
L 175.50265 173.89224 
L 175.665056 175.457403 
L 175.827498 189.239274 
L 175.989806 192.277593 
L 176.314652 159.881962 
L 176.477082 172.764405 
L 176.639491 176.229869 
L 176.801898 174.73707 
L 177.126705 175.121091 
L 177.289108 174.557942 
L 177.613892 164.817681 
L 177.938741 178.894903 
L 178.101151 173.721967 
L 178.263564 173.318239 
L 178.425976 171.475013 
L 178.588387 173.91058 
L 178.750826 186.400305 
L 178.913151 189.698123 
L 179.238006 173.208529 
L 179.400415 175.014221 
L 179.56282 174.139903 
L 179.72522 170.813375 
L 179.887642 169.944427 
L 180.212437 175.507901 
L 180.374844 174.878369 
L 180.69966 174.855571 
L 180.862069 176.415378 
L 181.186887 183.977942 
L 181.674132 171.108632 
L 181.836575 161.516973 
L 181.998926 164.433735 
L 182.486194 200.050646 
L 182.648547 195.741821 
L 182.810971 182.773682 
L 183.135792 185.159838 
L 183.298165 184.168692 
L 183.460611 187.543749 
L 183.622961 186.243183 
L 183.947818 172.517639 
L 184.110224 175.336113 
L 184.43494 206.006947 
L 184.759819 187.772869 
L 184.922262 178.794806 
L 185.084672 178.532884 
L 185.247077 183.977118 
L 185.571907 179.401854 
L 185.896722 190.227915 
L 186.22151 155.787568 
L 186.383971 167.615228 
L 186.708783 203.174439 
L 187.033597 173.680036 
L 187.358386 192.477647 
L 187.683229 179.953848 
L 187.845671 170.377406 
L 188.008067 174.744142 
L 188.170419 184.129137 
L 188.495252 175.706049 
L 188.819996 199.217368 
L 189.144898 188.47478 
L 189.307233 186.959544 
L 189.469672 175.506059 
L 189.632089 173.014375 
L 189.956891 148.697973 
L 190.281687 183.252083 
L 190.444132 183.301465 
L 190.768916 171.839229 
L 191.418477 198.123212 
L 192.068124 164.839312 
L 192.230585 177.167441 
L 192.392992 180.773289 
L 192.5554 181.625647 
L 192.717829 191.121184 
L 193.204996 187.305755 
L 193.529855 172.591403 
L 193.692271 174.813061 
L 194.179513 174.719802 
L 195.316412 174.70806 
L 195.966068 174.635825 
L 196.128482 174.905682 
L 196.290896 174.224357 
L 196.453311 172.946516 
L 196.778098 182.916721 
L 196.940535 176.245983 
L 197.265306 187.744369 
L 197.590164 173.305353 
L 197.75258 175.025159 
L 197.914993 174.607805 
L 198.077408 174.76198 
L 198.239822 174.602656 
L 198.402236 175.09994 
L 198.727067 171.224765 
L 199.051775 199.374931 
L 199.376684 165.931042 
L 199.701429 184.833163 
L 200.026323 155.287489 
L 200.188631 167.005203 
L 200.351099 195.379653 
L 200.513472 202.99431 
L 200.838255 196.591452 
L 201.000726 186.830808 
L 201.163115 189.059149 
L 201.487955 214.186786 
L 201.650335 201.249882 
L 201.812797 206.121699 
L 201.974998 225.635966 
L 202.137547 218.842675 
L 202.62475 185.980604 
L 202.949506 175.406457 
L 203.111923 174.780998 
L 203.274337 174.978405 
L 203.436807 180.206503 
L 203.599012 192.444268 
L 203.92283 236.085725 
L 204.08597 210.382419 
L 204.410432 252.54673 
L 204.735382 217.310934 
L 205.060299 165.633514 
L 205.22274 162.417011 
L 205.385093 186.954522 
L 205.547706 231.524875 
L 205.709779 245.450321 
L 206.034765 186.977709 
L 206.197089 193.10597 
L 206.359894 237.351231 
L 206.521538 247.271482 
L 206.684371 211.186632 
L 206.84665 204.475887 
L 207.009121 218.332463 
L 207.171447 208.854438 
L 207.496292 180.990011 
L 207.658715 182.11239 
L 207.983563 200.97475 
L 208.14591 194.576488 
L 208.470656 210.891566 
L 208.633146 200.059028 
L 208.79562 209.243559 
L 208.957754 233.715858 
L 209.120422 238.820306 
L 209.282665 229.509946 
L 209.60755 177.520942 
L 209.932296 195.569182 
L 210.257162 183.602003 
L 210.581986 207.116591 
L 211.06921 176.991758 
L 211.231621 176.689802 
L 211.394015 173.919282 
L 211.718813 172.719555 
L 211.881254 163.811912 
L 212.043632 166.943573 
L 212.206059 178.412699 
L 212.368481 174.497355 
L 212.53087 173.747386 
L 212.693246 170.762778 
L 212.855732 154.662214 
L 213.018051 156.880318 
L 213.180473 161.923288 
L 213.342863 155.550263 
L 213.667681 172.918321 
L 214.154891 137.15815 
L 214.642155 183.564256 
L 214.804583 179.227509 
L 215.291706 112.024189 
L 215.454232 133.379098 
L 215.616644 139.684536 
L 215.779023 140.320712 
L 216.103839 173.316455 
L 216.266258 167.002307 
L 216.591154 124.302338 
L 216.75336 136.337983 
L 216.915882 162.680562 
L 217.078316 150.486044 
L 217.240636 129.317465 
L 217.403095 138.485495 
L 217.565495 154.110162 
L 217.727935 151.050571 
L 218.052797 129.891789 
L 218.539976 171.372393 
L 218.702363 171.187242 
L 218.864776 172.322435 
L 219.027135 160.641104 
L 219.351821 124.907452 
L 219.676788 144.576574 
L 220.001577 176.197251 
L 220.163999 175.638526 
L 220.32641 173.949036 
L 220.488829 177.725094 
L 220.651223 173.035728 
L 220.813716 150.020222 
L 220.975956 142.852701 
L 221.300838 178.244267 
L 221.625662 153.048004 
L 221.788114 157.446381 
L 222.112922 168.552033 
L 222.275293 169.425186 
L 222.600105 174.581558 
L 222.762504 174.416594 
L 222.924899 173.990947 
L 223.087303 174.320945 
L 223.412121 169.322386 
L 223.736891 179.745192 
L 224.224137 173.516024 
L 224.38655 172.943946 
L 225.036152 174.749877 
L 225.198548 172.908603 
L 225.360954 173.251475 
L 225.685676 189.445287 
L 226.010547 168.621793 
L 226.335381 174.048704 
L 226.6602 176.798912 
L 226.82262 179.333478 
L 227.147421 162.378377 
L 227.472212 178.479929 
L 227.634622 175.540285 
L 227.797023 174.707163 
L 227.95943 174.850345 
L 228.284255 177.604901 
L 228.446671 181.751904 
L 228.609075 177.03171 
L 228.77154 162.634615 
L 228.933844 164.320183 
L 229.096259 175.853841 
L 229.25867 177.392767 
L 229.421067 174.946491 
L 229.583467 174.999539 
L 229.908272 177.465845 
L 230.070656 180.653802 
L 230.233086 180.359821 
L 230.557802 161.503468 
L 230.882668 175.886103 
L 231.045086 174.035242 
L 231.369905 174.808113 
L 231.532308 174.364939 
L 231.694715 172.960276 
L 232.019501 190.772185 
L 232.344297 167.374416 
L 232.831543 173.885177 
L 232.993956 174.412636 
L 233.15637 174.022074 
L 233.31879 170.841092 
L 233.481183 176.283708 
L 233.643654 188.597179 
L 233.805987 182.136417 
L 233.968365 169.458938 
L 234.130794 169.320504 
L 234.455583 174.163408 
L 234.780386 175.802081 
L 235.105211 170.885655 
L 235.429953 182.678995 
L 235.754803 171.346437 
L 236.079619 174.733576 
L 236.242026 175.938465 
L 236.56684 180.361499 
L 236.891582 159.682427 
L 237.216418 178.823595 
L 237.378839 175.897869 
L 237.541248 175.050368 
L 237.703663 175.200664 
L 238.028487 178.870382 
L 238.190916 182.530525 
L 238.353288 174.620914 
L 238.515756 160.727069 
L 238.840497 177.260171 
L 239.002906 176.521119 
L 239.165301 174.975371 
L 239.327704 175.168361 
L 239.652525 178.372492 
L 239.977372 187.925346 
L 240.30211 170.567788 
L 240.464534 170.282408 
L 240.789318 145.400991 
L 241.114134 183.153636 
L 241.438954 178.299695 
L 241.763686 191.043915 
L 242.088555 168.136122 
L 242.41339 173.038271 
L 242.575806 174.270594 
L 242.738219 174.335285 
L 242.900627 174.074849 
L 243.063035 174.163792 
L 243.225437 174.741976 
L 243.550242 176.900094 
L 243.875049 181.224097 
L 244.199791 163.014038 
L 244.524638 174.914499 
L 244.687055 173.731309 
L 245.011883 174.720607 
L 245.174292 174.458688 
L 245.336706 172.357205 
L 245.661527 190.567702 
L 245.986283 167.808197 
L 246.635923 174.4068 
L 246.798336 174.121479 
L 246.960753 170.841632 
L 247.123155 175.741814 
L 247.285626 188.06191 
L 247.447931 183.303139 
L 247.610333 170.307141 
L 247.772759 169.154493 
L 248.097552 174.148547 
L 248.422346 176.332503 
L 248.584751 174.612938 
L 248.747162 169.859801 
L 248.909518 173.937012 
L 249.071919 181.192433 
L 249.39676 172.125976 
L 249.721587 174.787687 
L 249.884 176.025607 
L 250.208823 181.012944 
L 250.5336 159.678754 
L 250.858401 178.492602 
L 251.18322 175.024627 
L 251.345632 175.198156 
L 251.670459 178.671475 
L 251.832882 182.502403 
L 251.99527 174.997389 
L 252.157747 160.715493 
L 252.320072 165.441744 
L 252.48247 175.926232 
L 252.644875 176.288087 
L 252.807271 174.644335 
L 252.96967 174.939014 
L 253.294475 175.762068 
L 253.61929 175.257514 
L 253.781703 176.098969 
L 253.944116 177.551738 
L 254.106539 181.679622 
L 254.268927 174.336275 
L 254.431406 159.905316 
L 254.593727 164.233318 
L 254.756134 173.926874 
L 254.918526 174.353158 
L 255.08093 173.512173 
L 255.243324 173.714885 
L 255.730546 169.98595 
L 255.892942 171.036335 
L 256.055368 173.522648 
L 256.217754 166.08515 
L 256.380263 150.101012 
L 256.542485 148.503613 
L 256.705008 158.749928 
L 256.867312 159.197105 
L 257.029849 147.790653 
L 257.192014 147.912375 
L 257.35454 155.486937 
L 257.679371 139.542042 
L 257.841727 160.870715 
L 258.004106 167.166103 
L 258.166579 147.277777 
L 258.328918 146.137105 
L 258.491377 163.623798 
L 258.653759 158.894468 
L 258.816228 135.949287 
L 258.978554 138.609424 
L 259.141037 167.312839 
L 259.303361 168.759801 
L 259.465898 145.878275 
L 259.628149 147.129635 
L 259.953026 186.340729 
L 260.115388 192.285156 
L 260.440234 169.26287 
L 260.602654 170.531402 
L 260.765088 167.174201 
L 260.927458 172.031471 
L 261.089844 171.969933 
L 261.252291 164.0899 
L 261.414687 167.790845 
L 261.739442 150.087001 
L 262.064286 173.032813 
L 262.226692 170.724884 
L 262.38911 172.549709 
L 262.551525 179.190766 
L 262.713889 178.024001 
L 262.876294 171.808017 
L 263.038712 172.065041 
L 263.201116 174.215748 
L 263.363521 174.740787 
L 263.525928 174.736774 
L 263.850719 150.671031 
L 264.175527 170.703475 
L 264.500405 149.01822 
L 264.825122 186.731013 
L 264.987565 181.324208 
L 265.149985 186.979061 
L 265.312291 187.229077 
L 265.474772 170.867642 
L 265.799568 167.46435 
L 265.962 159.876991 
L 266.124394 162.085336 
L 266.286772 150.552617 
L 266.449319 124.072432 
L 266.611517 124.946585 
L 266.774015 132.703551 
L 266.936535 121.169312 
L 267.098756 120.309213 
L 267.261131 105.72908 
L 267.424126 75.989432 
L 267.910699 156.748241 
L 268.073029 140.636894 
L 268.397459 87.105358 
L 268.560487 88.329184 
L 268.722445 92.135163 
L 269.209904 149.847357 
L 269.372215 149.05666 
L 269.534743 142.278899 
L 269.859457 159.049879 
L 270.184108 120.91797 
L 270.34676 132.328653 
L 270.671461 173.537449 
L 270.833864 175.509691 
L 270.996281 174.386942 
L 271.158695 174.797833 
L 271.321109 174.680974 
L 271.808351 174.709555 
L 273.270078 174.680706 
L 273.432491 174.812608 
L 273.59491 174.352202 
L 273.757306 176.25235 
L 273.91979 171.351574 
L 274.081969 194.330978 
L 274.24549 268.96842 
L 274.405493 281.276933 
L 274.731073 178.720314 
L 274.893568 177.935125 
L 275.055967 187.951825 
L 275.38095 239.786136 
L 275.542977 230.707038 
L 275.867596 237.074906 
L 276.030437 222.410649 
L 276.35652 295.488 
L 276.841663 169.018377 
L 277.004109 169.614003 
L 277.166575 185.493979 
L 277.328889 189.009073 
L 277.49134 177.335063 
L 277.653737 178.173514 
L 277.97854 187.778654 
L 278.303298 217.367186 
L 278.628179 173.399163 
L 278.790581 177.133671 
L 278.952977 188.122254 
L 279.115412 185.519569 
L 279.440213 156.882605 
L 279.602631 166.873481 
L 279.765072 184.087528 
L 279.927434 184.336177 
L 280.252273 175.895554 
L 280.414702 160.042946 
L 280.577083 155.547687 
L 280.90191 177.310543 
L 281.226728 175.429571 
L 281.389136 175.455911 
L 281.551538 174.525464 
L 282.038744 174.883528 
L 282.201151 174.826846 
L 282.363562 175.839423 
L 282.525976 178.312044 
L 282.688392 174.97079 
L 282.850799 177.148641 
L 283.013249 187.328122 
L 283.175596 188.120974 
L 283.500426 178.318895 
L 283.662843 175.731735 
L 283.987626 156.065309 
L 284.312478 178.549547 
L 284.474886 174.698809 
L 284.637278 173.863994 
L 284.799682 172.292485 
L 284.962084 163.850739 
L 285.124518 164.217906 
L 285.286918 171.476394 
L 285.449327 173.281331 
L 285.774125 173.998817 
L 286.098942 170.305525 
L 286.423719 177.510879 
L 286.586137 172.58207 
L 286.748552 174.739596 
L 286.910967 185.185028 
L 287.073378 186.05095 
L 287.398219 152.563969 
L 287.723021 174.667534 
L 287.885453 184.898805 
L 288.047797 181.168093 
L 288.210225 172.864208 
L 288.372639 171.676126 
L 288.697468 161.008699 
L 288.859881 163.442167 
L 289.18473 136.040693 
L 289.509564 151.165893 
L 289.834324 174.954183 
L 289.996734 175.937667 
L 290.159149 173.87357 
L 290.321565 176.564127 
L 290.483974 172.255038 
L 290.8087 141.864507 
L 291.133585 171.804565 
L 291.295996 174.680573 
L 291.620814 172.944116 
L 291.783201 167.108726 
L 291.945666 155.293836 
L 292.107957 157.258723 
L 292.270423 169.50979 
L 292.432819 166.225888 
L 292.757663 134.07335 
L 293.082493 182.879379 
L 293.244879 179.474464 
L 293.40728 179.974402 
L 293.569654 178.521073 
L 293.732097 168.653974 
L 293.894494 167.33499 
L 294.056915 172.585438 
L 294.219332 182.26907 
L 294.381684 174.707413 
L 294.544177 158.786497 
L 295.031311 176.009646 
L 295.193758 184.756348 
L 295.518556 174.163736 
L 295.680961 178.398876 
L 295.843378 175.509815 
L 296.005802 169.491413 
L 296.330567 179.558753 
L 296.492987 176.282141 
L 296.655396 168.420308 
L 296.817797 171.22454 
L 296.980248 181.173747 
L 297.142621 179.894784 
L 297.305028 183.460177 
L 297.467399 182.854587 
L 297.629852 170.366961 
L 297.792239 168.140649 
L 298.117083 187.712368 
L 298.279437 182.711164 
L 298.441902 168.957805 
L 298.766681 177.17296 
L 298.929113 172.627641 
L 299.091535 178.645973 
L 299.416323 169.402159 
L 299.74114 186.150994 
L 300.066019 202.372581 
L 300.390792 187.816531 
L 300.553215 187.098329 
L 300.715623 179.340671 
L 300.878034 179.43549 
L 301.202875 190.874152 
L 301.3652 183.498977 
L 301.527624 181.787047 
L 301.852469 196.781768 
L 302.01481 185.291338 
L 302.177227 185.601233 
L 302.339683 209.917186 
L 302.502047 216.65015 
L 302.826883 187.979195 
L 302.989304 205.893262 
L 303.151727 209.141585 
L 303.314124 186.221821 
L 303.476486 187.753843 
L 303.638993 206.706955 
L 303.801291 201.483454 
L 304.12614 180.556621 
L 304.288564 188.162657 
L 304.450934 190.484941 
L 304.613372 180.122666 
L 304.77578 178.312953 
L 304.938188 187.51743 
L 305.100624 185.249679 
L 305.425409 149.627017 
L 305.912727 209.416271 
L 306.237501 162.460247 
L 306.399839 163.82495 
L 306.724669 160.867752 
L 306.887088 186.876629 
L 307.049466 194.051201 
L 307.211924 165.636897 
L 307.374263 157.731261 
L 307.699112 184.443291 
L 308.18634 163.698073 
L 308.67356 187.730588 
L 308.836015 186.517426 
L 309.160779 161.650969 
L 309.323208 161.519775 
L 309.810429 185.491028 
L 309.972889 184.764054 
L 310.297594 159.532115 
L 310.460051 170.277967 
L 310.784847 211.781103 
L 311.272038 148.927106 
L 311.596904 185.035328 
L 312.084133 162.298152 
L 312.571358 185.711926 
L 312.73382 185.740696 
L 313.058524 156.882881 
L 313.22099 165.063144 
L 313.545802 214.325798 
L 313.70817 196.944717 
L 313.870632 157.62532 
L 314.033 147.78529 
L 314.357834 181.229337 
L 314.520249 174.197312 
L 314.682687 160.893664 
L 314.845054 166.3131 
L 315.169898 192.039783 
L 315.49473 172.965676 
L 315.65713 179.187631 
L 315.819578 191.006145 
L 315.981941 175.310639 
L 316.144394 141.606405 
L 316.306791 138.644482 
L 316.6316 179.008638 
L 316.794019 194.231822 
L 316.9564 198.457032 
L 317.443684 160.03122 
L 317.606025 161.407953 
L 318.093252 186.852926 
L 318.255687 183.945767 
L 318.580509 157.434856 
L 318.742912 162.2625 
L 319.067756 205.467186 
L 319.230152 199.02148 
L 319.555012 148.07906 
L 319.879804 166.454309 
L 320.204629 177.874552 
L 320.367039 175.184542 
L 320.691839 187.96476 
L 320.854263 183.512437 
L 321.179115 159.011213 
L 321.341477 160.760892 
L 321.666363 196.506865 
L 321.99117 155.54804 
L 322.478356 172.985149 
L 322.640789 179.412673 
L 322.803188 178.063301 
L 322.965587 186.887919 
L 323.128004 189.635529 
L 323.452816 154.707213 
L 323.777647 175.099066 
L 323.940058 183.511003 
L 324.102445 182.886729 
L 324.264876 177.125562 
L 324.427301 185.71225 
L 324.589659 175.183964 
L 324.752165 152.523703 
L 324.914475 158.061724 
L 325.401761 199.739731 
L 325.726579 152.398836 
L 326.213783 189.611053 
L 326.376177 188.632638 
L 326.538619 164.211584 
L 326.700991 159.21732 
L 326.863428 169.815894 
L 327.025841 172.441205 
L 327.188246 178.25778 
L 327.350643 178.963582 
L 327.513051 182.434739 
L 327.675512 192.652571 
L 328.000328 154.31019 
L 328.325134 189.831233 
L 328.649929 172.736965 
L 328.974743 164.293119 
L 329.29955 195.066693 
L 329.462012 194.941086 
L 329.786806 178.441765 
L 329.949195 185.291689 
L 330.111649 200.074888 
L 330.273987 196.447202 
L 330.436441 177.530639 
L 330.598839 173.796166 
L 330.761254 176.099192 
L 330.923668 174.396012 
L 331.086081 175.691748 
L 331.248501 174.590445 
L 331.410904 183.979049 
L 331.573389 214.900679 
L 331.735645 219.046585 
L 331.898129 199.9636 
L 332.060544 203.839266 
L 332.222931 198.954848 
L 332.385377 183.093995 
L 332.710186 225.090073 
L 333.034991 188.810514 
L 333.359804 212.761682 
L 333.684636 178.756964 
L 333.847049 174.697422 
L 334.334291 174.699752 
L 334.496705 174.73207 
L 334.65912 174.646599 
L 334.821533 174.852208 
L 334.98395 174.097042 
L 335.308799 161.132065 
L 335.796022 224.243722 
L 336.120843 180.383559 
L 336.283254 175.417844 
L 336.445668 176.248265 
L 336.608086 180.85807 
L 336.770487 178.959981 
L 336.932897 181.591417 
L 337.095341 189.589172 
L 337.257716 189.272502 
L 337.420161 186.395439 
L 337.58254 180.930467 
L 337.744959 182.259957 
L 338.069791 194.2583 
L 338.232179 193.404464 
L 338.557027 177.557833 
L 338.881796 191.274044 
L 339.206636 180.772806 
L 339.369069 184.194264 
L 339.531447 180.33973 
L 339.693859 181.379601 
L 340.505959 211.645441 
L 340.830763 179.072132 
L 341.155573 198.852032 
L 341.480609 259.148406 
L 341.642676 246.461728 
L 341.96758 208.677056 
L 342.130033 219.156051 
L 342.292442 219.52444 
L 342.617274 167.154292 
L 342.942148 219.902743 
L 343.104453 208.617647 
L 343.42932 171.771539 
L 343.591745 178.294876 
L 343.916704 129.206 
L 344.241343 171.851037 
L 344.403759 172.26054 
L 344.566193 182.692351 
L 344.728573 177.586163 
L 345.215804 64.916552 
L 345.377988 74.914347 
L 345.540808 72.046884 
L 346.190208 178.269223 
L 346.51499 156.847355 
L 346.677434 159.004004 
L 347.002241 168.612527 
L 347.164661 170.33338 
L 347.32709 180.169252 
L 347.651932 142.786447 
L 348.139122 178.507211 
L 348.301528 173.931925 
L 348.463958 164.715006 
L 348.626356 163.497759 
L 348.788789 167.724673 
L 349.113586 186.10645 
L 349.438446 156.009138 
L 349.600809 156.243449 
L 349.925651 172.881297 
L 350.088064 166.024801 
L 350.250471 169.005773 
L 350.412902 179.356402 
L 350.737718 174.472834 
L 350.900123 183.000709 
L 351.06257 199.554414 
L 351.224921 196.150028 
L 351.38736 177.987194 
L 351.549768 172.541611 
L 351.874595 179.301767 
L 352.037015 179.027126 
L 352.199428 176.259856 
L 352.361843 176.852994 
L 352.524252 175.976775 
L 352.849086 169.034284 
L 353.173887 184.152137 
L 353.336306 175.404322 
L 353.498719 173.336563 
L 353.661129 182.279291 
L 353.823557 183.380876 
L 353.985971 173.522178 
L 354.148373 171.731493 
L 354.310787 173.790814 
L 354.473197 173.566545 
L 354.635611 172.976037 
L 354.79802 174.182235 
L 354.960432 176.945305 
L 355.122846 171.641326 
L 355.285276 159.021026 
L 355.447649 162.847613 
L 355.772483 182.706145 
L 355.934915 184.306349 
L 356.422135 163.148228 
L 356.584551 161.05582 
L 356.746972 174.947259 
L 356.909375 172.135732 
L 357.071784 161.775458 
L 357.234207 165.662098 
L 357.559022 186.640725 
L 357.721453 184.540572 
L 358.371076 143.510914 
L 358.858329 179.717242 
L 359.02075 180.88364 
L 359.183153 180.930662 
L 359.345575 184.112971 
L 359.670402 160.506236 
L 359.832803 164.828772 
L 359.995218 165.621906 
L 360.157637 168.561542 
L 360.320059 178.750881 
L 360.482461 180.240577 
L 360.969692 166.571092 
L 361.132117 170.035224 
L 361.294522 179.805926 
L 361.456925 179.086446 
L 361.619345 170.597763 
L 361.944171 173.348886 
L 362.106584 168.349995 
L 362.431424 179.762071 
L 362.756239 171.274511 
L 363.081067 174.665264 
L 363.243479 174.491753 
L 363.568305 174.923184 
L 363.730715 168.586237 
L 363.893144 154.508735 
L 364.055523 159.071909 
L 364.380357 184.782477 
L 364.542794 193.165893 
L 365.030014 175.962774 
L 365.19243 177.110895 
L 365.354842 179.202178 
L 365.51726 179.205298 
L 365.679671 180.542625 
L 365.842091 189.802369 
L 366.004489 182.705208 
L 366.166919 169.173169 
L 366.329326 175.660351 
L 366.816569 223.14561 
L 367.141387 185.062484 
L 367.303804 192.345251 
L 367.628635 179.491356 
L 367.953473 208.205674 
L 368.440693 181.220931 
L 368.603111 173.792593 
L 368.765525 172.65867 
L 368.927935 181.790435 
L 369.090373 199.326917 
L 369.252754 196.803202 
L 369.415183 184.198147 
L 369.577581 191.570293 
L 369.902404 215.365821 
L 370.064852 227.520027 
L 370.227241 219.686959 
L 370.389661 186.032411 
L 370.552072 175.637117 
L 370.714491 177.833625 
L 370.876907 175.378162 
L 371.201733 201.310369 
L 371.364143 199.224646 
L 371.688971 190.874219 
L 372.013801 207.003771 
L 372.501039 174.190307 
L 372.663454 174.519656 
L 372.825867 179.227142 
L 373.150692 198.478099 
L 373.475526 182.730507 
L 373.800343 220.626255 
L 374.287589 181.222038 
L 374.450002 178.827946 
L 374.612419 178.547169 
L 374.937274 207.69233 
L 375.424487 171.906661 
L 375.586899 175.816977 
L 375.74932 195.103665 
L 375.911725 190.389437 
L 376.074145 175.321816 
L 376.236556 170.925874 
L 376.398974 170.090241 
L 376.886213 190.102119 
L 377.211039 178.538833 
L 377.373458 181.657249 
L 377.535868 180.536592 
L 377.698285 176.722911 
L 377.860698 164.395124 
L 378.023105 160.581767 
L 378.347945 185.140973 
L 378.510355 167.866789 
L 378.672759 166.232796 
L 378.997602 196.729715 
L 379.322423 151.29363 
L 379.809668 196.38478 
L 380.13449 152.613398 
L 380.459314 196.107612 
L 380.621726 189.045327 
L 380.784143 172.642513 
L 380.946554 172.304043 
L 381.108969 174.106978 
L 381.271383 170.613116 
L 381.433797 171.112942 
L 381.758628 190.499335 
L 382.083454 172.946648 
L 382.245867 173.496551 
L 382.408281 175.003892 
L 382.570695 174.642482 
L 382.895523 174.718862 
L 383.057938 174.662228 
L 383.220352 174.869951 
L 383.382766 174.130541 
L 383.54518 177.299998 
L 383.707596 176.802565 
L 384.032422 154.126123 
L 384.357256 197.141338 
L 384.682077 170.563472 
L 384.844491 174.038961 
L 385.006905 174.907852 
L 385.169319 174.67288 
L 385.331733 174.68346 
L 385.494147 174.83292 
L 385.656561 174.229043 
L 385.818975 178.241002 
L 385.981391 175.218018 
L 386.143808 157.723461 
L 386.306215 160.996802 
L 386.468628 190.536549 
L 386.63105 199.192699 
L 386.955872 170.873504 
L 387.118286 174.767157 
L 387.767943 174.70865 
L 398.487273 174.708858 
L 398.487273 174.708858 
" clip-path="url(#p6dc4606573)" style="fill: none; stroke: #1f77b4; stroke-width: 1.5; stroke-linecap: square"/>
   </g>
   <g id="line2d_13">
    <path d="M 73.832727 174.708858 
L 92.059443 174.695439 
L 92.565741 174.294723 
L 92.734507 174.076804 
L 93.240804 168.364076 
L 93.409568 167.102182 
L 93.747099 174.174411 
L 93.915865 173.538716 
L 94.084631 172.468937 
L 94.422137 149.252711 
L 94.759668 173.945126 
L 95.097194 156.620691 
L 95.434725 171.105656 
L 95.772256 171.277301 
L 96.44732 176.906284 
L 96.784849 168.32556 
L 97.459912 174.550728 
L 97.797444 173.034065 
L 98.134976 175.163588 
L 98.472508 175.097904 
L 98.810039 174.748564 
L 99.485103 175.8009 
L 99.822634 169.985786 
L 100.160165 178.602756 
L 100.497677 199.139136 
L 100.835207 169.735822 
L 101.172738 178.997236 
L 101.510269 179.77389 
L 101.847799 178.972472 
L 102.522793 207.797411 
L 102.860324 174.247997 
L 103.197856 174.986363 
L 103.535385 183.856911 
L 103.87265 231.830576 
L 104.378925 185.653747 
L 104.547691 176.908473 
L 105.053972 194.961348 
L 105.222698 198.981074 
L 105.560052 227.517482 
L 106.066317 183.359196 
L 106.235083 173.33196 
L 106.572606 184.175097 
L 106.910138 176.426934 
L 107.247669 175.898821 
L 107.585199 180.328796 
L 107.92273 175.989618 
L 108.429028 174.684488 
L 108.597794 174.235576 
L 108.935325 175.870282 
L 109.610371 160.419464 
L 110.285431 177.661305 
L 110.622963 174.668008 
L 110.791729 174.680624 
L 110.960495 174.576358 
L 111.298026 170.940634 
L 111.635544 161.647674 
L 111.973071 167.025088 
L 112.310551 148.21348 
L 112.479317 149.470481 
L 112.648026 152.141333 
L 112.985558 174.42903 
L 113.154324 174.750276 
L 113.32309 174.815458 
L 113.66062 171.002104 
L 113.998151 176.201936 
L 114.166917 176.227942 
L 114.335683 175.69758 
L 114.673205 164.523982 
L 115.010731 167.230966 
L 115.348263 174.741362 
L 115.685794 177.245807 
L 116.023326 173.735814 
L 116.360857 172.624191 
L 116.698389 175.17422 
L 117.03592 174.46012 
L 117.373452 176.51852 
L 117.542218 176.350614 
L 117.710983 175.899711 
L 118.048513 170.810061 
L 118.386041 181.632108 
L 118.723564 184.116164 
L 119.061094 170.963721 
L 119.398625 177.170559 
L 119.736157 174.720981 
L 120.073688 176.2132 
L 120.242454 175.550388 
L 120.41122 176.700725 
L 120.748625 210.102423 
L 121.086071 199.260485 
L 121.423603 175.369836 
L 121.592369 175.133242 
L 121.761134 174.658668 
L 122.098664 170.864391 
L 122.436188 182.45858 
L 122.773717 179.936408 
L 123.111248 174.79757 
L 123.617546 174.707361 
L 124.123844 174.685513 
L 124.461375 173.668741 
L 124.798907 175.291854 
L 125.136439 174.090926 
L 125.473968 170.230578 
L 125.811498 177.140821 
L 126.149027 169.453782 
L 126.486558 173.313429 
L 126.992856 174.268481 
L 127.161622 174.367516 
L 127.499153 172.010769 
L 127.836683 171.531825 
L 128.680512 174.51332 
L 128.849278 174.938955 
L 129.186809 173.431902 
L 129.524341 175.308695 
L 129.861873 174.275829 
L 130.199405 174.327993 
L 130.536936 175.352811 
L 130.874468 175.012451 
L 131.212 173.366849 
L 131.549531 173.048418 
L 131.887063 174.988338 
L 132.224595 174.689836 
L 132.730892 174.812802 
L 132.899658 174.870006 
L 133.23719 174.451268 
L 133.574722 174.726377 
L 134.081019 174.613641 
L 134.418551 174.579419 
L 134.924849 174.751311 
L 135.26238 176.351237 
L 135.599912 174.56003 
L 135.937444 174.655631 
L 136.274975 174.25498 
L 136.781273 175.534518 
L 137.28757 176.326195 
L 137.625102 174.746502 
L 138.300165 174.514259 
L 138.637697 175.887338 
L 138.975229 174.179225 
L 139.312761 174.863185 
L 139.650292 174.707925 
L 140.662888 174.852881 
L 141.000419 174.265756 
L 141.337951 175.413227 
L 141.675483 174.721471 
L 142.013014 176.584958 
L 142.350546 175.013375 
L 142.519312 174.786136 
L 142.688078 174.854977 
L 143.025608 178.059512 
L 143.363139 175.895114 
L 143.700671 175.152085 
L 144.038203 175.181459 
L 144.375734 175.620762 
L 144.713266 175.701201 
L 145.050797 176.55572 
L 145.388329 175.966384 
L 145.725859 177.688343 
L 145.894625 177.227932 
L 146.06339 177.107235 
L 146.400918 179.945297 
L 146.738449 176.175409 
L 147.07598 177.362134 
L 147.582277 175.680652 
L 147.751043 175.530852 
L 148.088572 178.975863 
L 148.257338 178.839555 
L 148.426101 178.429519 
L 148.763633 174.725523 
L 150.451292 174.729435 
L 150.620058 174.77386 
L 150.788824 175.56672 
L 151.126341 184.562645 
L 151.463863 182.158439 
L 151.801394 175.48192 
L 152.138921 180.472428 
L 152.813983 174.903414 
L 153.15151 179.416041 
L 153.320276 176.956776 
L 153.489042 176.530519 
L 153.826519 191.920555 
L 154.164047 179.120468 
L 154.332813 176.504315 
L 154.501579 178.195751 
L 154.838775 218.19415 
L 155.176291 185.316023 
L 155.513779 190.524329 
L 155.682545 189.759056 
L 155.851281 189.872282 
L 156.020047 191.107281 
L 156.188762 194.367681 
L 156.525901 221.772963 
L 156.863422 181.762879 
L 157.032188 177.645756 
L 157.200954 176.712916 
L 157.538353 203.789495 
L 157.875799 196.921912 
L 158.213208 201.921359 
L 158.550668 194.915535 
L 158.888185 185.596774 
L 159.225575 201.030847 
L 159.563099 181.283303 
L 159.900629 177.261585 
L 160.23816 177.028854 
L 160.406926 177.139446 
L 160.575691 177.018261 
L 160.913223 174.985425 
L 161.250755 174.7063 
L 161.588286 174.789272 
L 161.925818 175.107366 
L 162.432116 174.755955 
L 162.769647 174.7138 
L 162.938413 174.766739 
L 163.275945 175.081411 
L 163.782243 174.773063 
L 164.119775 174.713304 
L 164.28854 174.738368 
L 164.626072 175.005616 
L 165.638668 174.815204 
L 165.976199 175.087612 
L 166.313731 174.747005 
L 166.651263 174.727071 
L 166.988795 175.003358 
L 167.326326 175.404034 
L 167.663858 174.673482 
L 168.338922 174.781415 
L 169.013985 175.200252 
L 169.351517 174.684353 
L 169.689049 175.311149 
L 170.195346 174.912569 
L 170.364112 174.895953 
L 170.701644 175.350048 
L 171.545473 174.692823 
L 173.233132 174.913387 
L 173.73943 175.340456 
L 174.076961 174.639434 
L 174.752025 174.839926 
L 175.089557 175.425214 
L 175.76462 174.674698 
L 176.777215 174.733575 
L 176.945981 174.887007 
L 177.114747 175.294036 
L 177.452277 177.199078 
L 177.789809 175.406757 
L 178.127341 174.75824 
L 178.802404 174.730501 
L 179.139936 175.306604 
L 179.646234 174.687713 
L 179.815 174.730982 
L 180.152531 175.830343 
L 180.827595 174.782086 
L 182.346488 174.761558 
L 182.684019 175.009085 
L 182.852785 175.247277 
L 183.021551 175.709619 
L 183.190317 177.624513 
L 183.527803 188.855223 
L 183.865329 181.25387 
L 184.202809 189.535364 
L 184.540338 178.943475 
L 184.709104 179.041785 
L 184.877866 179.42231 
L 185.046632 180.837683 
L 185.215387 181.119182 
L 185.384153 177.551033 
L 185.552919 177.424934 
L 185.890341 197.627527 
L 186.227823 188.49764 
L 186.565354 175.317466 
L 186.73412 175.012547 
L 186.902886 176.492337 
L 187.240373 188.82291 
L 187.746662 177.905452 
L 187.915427 175.962283 
L 188.084193 176.752523 
L 188.252958 180.074702 
L 188.590352 199.776185 
L 189.265361 178.120946 
L 189.602885 180.138333 
L 189.771651 177.447901 
L 189.940417 176.652987 
L 190.277921 185.839758 
L 190.952975 176.728071 
L 191.459271 178.007947 
L 191.628034 178.004413 
L 191.965566 174.89558 
L 192.134332 174.761266 
L 192.303098 175.567939 
L 192.640619 181.699173 
L 192.978144 180.274094 
L 193.14691 180.970983 
L 193.315666 180.627041 
L 193.653198 175.10829 
L 193.821964 176.524087 
L 193.990728 181.985457 
L 194.32796 207.80306 
L 194.665489 178.107288 
L 195.003021 174.795741 
L 195.678084 174.709451 
L 197.703275 174.661247 
L 197.872041 174.547116 
L 198.040807 175.534322 
L 198.378324 181.976499 
L 198.715856 176.166527 
L 199.390919 174.683436 
L 200.065983 174.687929 
L 200.234748 174.583205 
L 200.403514 176.371669 
L 200.741003 187.241569 
L 201.078534 176.115968 
L 201.2473 175.729428 
L 201.416066 176.583578 
L 201.753578 184.198316 
L 201.922344 184.869423 
L 202.091085 186.674802 
L 202.42853 193.822939 
L 202.597296 190.685353 
L 202.766021 190.396913 
L 203.103369 200.828422 
L 203.440886 186.254138 
L 203.778203 204.780166 
L 203.946969 201.637584 
L 204.115598 200.807345 
L 204.284364 205.890022 
L 204.452857 218.271382 
L 204.788252 263.138583 
L 205.125549 205.376736 
L 205.294315 199.596579 
L 205.462979 202.663553 
L 205.631745 227.270297 
L 205.799357 234.306527 
L 206.136878 181.507305 
L 206.305644 181.558409 
L 206.474399 192.295204 
L 206.81042 245.086077 
L 207.147934 193.178877 
L 207.484092 245.364874 
L 207.652858 222.191802 
L 207.821389 214.968566 
L 207.990155 239.40827 
L 208.157308 241.111619 
L 208.494832 182.042146 
L 209.169716 204.213249 
L 209.506057 237.686643 
L 210.012127 186.413927 
L 210.18089 178.486268 
L 210.349656 179.777572 
L 210.518413 178.708406 
L 210.687179 173.539233 
L 210.85594 173.103237 
L 211.193437 184.403431 
L 211.530968 176.81172 
L 212.037265 174.661867 
L 212.206031 174.293152 
L 212.543563 174.224025 
L 212.712329 174.370753 
L 212.881095 174.179286 
L 213.556154 171.435346 
L 214.062451 174.951922 
L 214.231216 174.477976 
L 214.568737 169.015792 
L 214.906268 173.073154 
L 215.075034 173.88349 
L 215.2438 171.602592 
L 215.412566 163.786701 
L 215.581266 147.228255 
L 215.750032 117.816496 
L 215.917332 111.236604 
L 216.254767 154.501519 
L 216.423533 151.588073 
L 216.592134 144.54913 
L 216.7609 129.441316 
L 216.928886 125.315647 
L 217.097652 142.496188 
L 217.2663 146.990633 
L 217.435066 128.918795 
L 217.602972 124.681794 
L 217.940379 152.02282 
L 218.109145 149.268594 
L 218.277713 150.439935 
L 218.446479 157.625678 
L 218.615201 158.727005 
L 218.783967 150.695922 
L 218.952509 148.36257 
L 219.289956 157.93651 
L 219.458722 160.946681 
L 219.62745 158.551119 
L 219.796216 148.242483 
L 219.964695 146.137425 
L 220.133461 155.069933 
L 220.302169 157.560955 
L 220.6395 148.63401 
L 220.808266 151.046871 
L 220.976897 156.49347 
L 221.314428 172.490064 
L 221.483194 171.034657 
L 221.651955 171.152441 
L 221.989486 174.940003 
L 222.327018 174.539305 
L 223.170847 174.885089 
L 223.339613 174.734341 
L 223.508379 174.199955 
L 223.677145 174.11848 
L 224.014677 174.938769 
L 224.520974 174.664832 
L 225.027272 174.685453 
L 225.196038 174.727759 
L 225.364804 174.516848 
L 225.53357 173.956351 
L 225.702335 173.823965 
L 226.039867 174.56252 
L 226.714931 174.649124 
L 227.052462 174.529432 
L 227.389994 174.246554 
L 228.065058 174.70886 
L 228.908887 174.391532 
L 229.246419 174.197448 
L 229.415185 174.280019 
L 229.752716 174.755186 
L 230.259014 174.62308 
L 230.765312 174.475022 
L 230.934078 174.231601 
L 231.102843 174.233755 
L 231.440375 174.747542 
L 231.777907 174.65683 
L 232.284205 174.274484 
L 232.45297 174.279501 
L 232.959268 174.61701 
L 233.465566 174.680699 
L 233.803097 174.517811 
L 234.140629 174.31266 
L 234.815693 174.699202 
L 235.490756 174.676126 
L 235.828288 174.545752 
L 236.840883 174.66892 
L 237.515947 174.289082 
L 238.022244 174.666379 
L 238.359776 174.695991 
L 238.866074 174.470917 
L 239.203606 174.302718 
L 239.709903 174.667956 
L 240.216201 174.698472 
L 240.384967 174.725653 
L 240.553733 174.579254 
L 240.891264 174.052265 
L 241.06003 174.169639 
L 241.228796 173.894537 
L 241.397562 173.122743 
L 241.566327 172.987485 
L 241.903858 174.14563 
L 242.24139 174.503787 
L 242.578922 174.259427 
L 243.085219 174.666974 
L 243.422751 174.713982 
L 244.604112 174.626081 
L 244.772878 174.310609 
L 244.941644 174.248426 
L 245.279176 174.658387 
L 245.954239 174.690456 
L 246.291771 174.534671 
L 246.629303 174.216455 
L 246.798069 174.218422 
L 246.966835 174.347525 
L 247.304366 174.774198 
L 248.148196 174.53049 
L 248.654493 174.142025 
L 248.992025 174.855613 
L 249.329557 174.709435 
L 249.498323 174.56293 
L 249.667089 174.575446 
L 249.835854 174.780117 
L 250.00462 174.752347 
L 250.173386 174.443488 
L 250.342152 174.393223 
L 250.679684 174.80893 
L 250.84845 174.827801 
L 251.017216 174.688271 
L 251.523513 173.880472 
L 251.692279 173.988561 
L 252.029811 174.732953 
L 252.367342 174.70977 
L 252.536108 174.78177 
L 252.704874 174.717606 
L 253.042406 174.111199 
L 253.211172 173.533921 
L 253.379937 173.609215 
L 253.717469 174.883574 
L 254.055001 174.684251 
L 254.89883 174.760357 
L 255.067596 174.685467 
L 255.236362 174.466763 
L 255.742659 173.492162 
L 256.08019 174.795834 
L 256.586488 174.720725 
L 256.92402 174.685658 
L 257.092786 173.70928 
L 257.261552 171.633329 
L 257.430313 163.449249 
L 257.599079 148.109619 
L 257.767506 145.887388 
L 257.936272 158.928901 
L 258.105016 160.885579 
L 258.442291 137.027365 
L 258.611057 120.551666 
L 258.778722 126.295458 
L 258.947488 157.84351 
L 259.116254 164.661888 
L 259.28502 143.649121 
L 259.45329 138.006711 
L 259.959482 166.245146 
L 260.128243 168.435314 
L 260.634492 154.056698 
L 260.803109 155.920018 
L 261.140633 168.360124 
L 261.309398 166.731749 
L 261.478142 168.021865 
L 261.815674 174.589035 
L 261.98444 174.214714 
L 262.153206 174.169623 
L 262.321972 174.478892 
L 262.490738 174.050137 
L 262.659503 172.865425 
L 262.828268 169.386572 
L 263.16574 160.83744 
L 263.334506 162.411992 
L 264.009533 174.691038 
L 264.178299 174.725374 
L 264.347065 174.643437 
L 264.515831 174.198346 
L 264.684596 173.346462 
L 265.022127 167.630563 
L 265.359637 152.284282 
L 265.528196 153.875459 
L 265.865728 172.425564 
L 266.034494 170.803254 
L 266.203253 166.941101 
L 266.372019 160.470006 
L 266.540697 160.787643 
L 266.878228 173.482435 
L 267.046994 175.102142 
L 267.215759 153.012404 
L 267.550971 73.334508 
L 267.719737 53.568 
L 267.883955 57.953873 
L 268.389172 141.294904 
L 268.55773 119.242675 
L 268.726496 75.826561 
L 268.89208 82.361533 
L 269.060846 113.773518 
L 269.228921 116.353508 
L 269.397687 105.610162 
L 269.565108 121.963154 
L 269.733874 152.740124 
L 269.902606 161.566803 
L 270.071372 158.683547 
L 270.240063 163.100545 
L 270.577595 174.593704 
L 271.927722 174.708855 
L 273.109083 174.609585 
L 273.446615 174.375514 
L 273.952621 208.260901 
L 274.121387 206.691997 
L 274.458705 184.551015 
L 274.62746 200.591364 
L 274.963824 243.753824 
L 275.13259 245.458515 
L 275.468863 257.582219 
L 275.63583 256.801367 
L 276.141116 229.537337 
L 276.646734 177.340438 
L 276.8155 175.689306 
L 276.984266 175.265403 
L 277.153032 175.352048 
L 277.490564 180.401435 
L 277.65932 179.388023 
L 277.828086 176.850059 
L 277.996851 176.011771 
L 278.165617 175.816753 
L 278.503149 177.54325 
L 278.671912 175.926693 
L 278.840678 173.231273 
L 279.009443 173.583686 
L 279.346974 175.895128 
L 279.51574 176.206189 
L 280.022037 174.290236 
L 280.359569 174.686087 
L 281.034633 174.718149 
L 281.878462 174.716815 
L 282.38476 174.902676 
L 282.722291 174.710564 
L 282.891057 174.559343 
L 283.228589 173.052782 
L 283.397354 173.906276 
L 283.56612 175.441526 
L 283.734886 175.334679 
L 284.072417 174.098267 
L 284.241183 173.725598 
L 284.409949 174.157345 
L 284.578715 174.909077 
L 284.747481 174.997401 
L 285.253778 174.576423 
L 285.59131 174.865606 
L 285.928842 174.492212 
L 286.266374 175.303003 
L 286.603905 172.36533 
L 286.772669 172.528086 
L 286.941435 173.475728 
L 287.110201 172.841027 
L 287.278967 171.591837 
L 287.44773 171.616225 
L 287.616496 172.09121 
L 288.122766 164.809562 
L 288.629048 169.064959 
L 288.966574 144.658922 
L 289.135082 153.005691 
L 289.303848 169.84559 
L 289.472614 174.461499 
L 289.64138 174.498458 
L 289.978912 167.152511 
L 290.316426 123.753156 
L 290.484515 140.204482 
L 290.653281 170.006842 
L 290.822046 176.337588 
L 291.159577 174.061283 
L 291.328343 173.440951 
L 291.497109 173.631702 
L 292.003406 174.880432 
L 292.340938 163.443838 
L 292.50967 167.055231 
L 292.678436 173.933888 
L 292.847201 175.888955 
L 293.015967 176.275015 
L 293.353498 173.824016 
L 293.522264 173.955394 
L 293.69103 174.653473 
L 293.859796 174.724738 
L 294.028562 174.577807 
L 294.366093 173.419128 
L 294.534859 173.856098 
L 294.703625 174.669333 
L 294.872391 174.853391 
L 295.547454 174.786951 
L 295.71622 174.988271 
L 296.053752 174.155575 
L 296.560049 175.756767 
L 296.728815 175.454589 
L 297.066347 173.737498 
L 297.235112 174.276389 
L 297.572644 175.912838 
L 297.74141 176.35716 
L 298.247707 174.169176 
L 298.754004 175.026316 
L 299.429067 177.640699 
L 299.597831 177.531447 
L 299.766597 177.172472 
L 300.104127 175.665623 
L 300.779105 199.503592 
L 301.285251 185.282174 
L 301.622749 189.994919 
L 302.297595 202.187952 
L 302.466361 205.509466 
L 302.803682 182.235285 
L 303.14121 215.892143 
L 303.309553 206.57676 
L 303.647067 181.192758 
L 303.984598 175.437201 
L 304.153364 173.876869 
L 304.490896 180.415245 
L 304.659654 178.412432 
L 304.82842 174.813587 
L 304.997185 174.72121 
L 305.165951 175.615874 
L 305.503483 181.596644 
L 306.178535 173.863521 
L 306.516067 178.193047 
L 306.68483 176.90212 
L 306.853596 174.569183 
L 307.022362 174.628666 
L 307.191127 175.356191 
L 307.359893 175.31356 
L 307.866191 174.561276 
L 308.203723 175.095536 
L 308.541254 175.713519 
L 309.047552 174.601857 
L 309.216318 174.610277 
L 309.553849 175.469785 
L 309.722615 175.26777 
L 309.891381 174.874064 
L 310.228913 175.654672 
L 310.566444 178.095028 
L 311.07274 174.606139 
L 311.241505 174.942891 
L 311.579037 174.841253 
L 312.085335 174.82188 
L 312.591632 174.988766 
L 312.929164 175.147192 
L 313.266696 176.406586 
L 313.435461 176.17055 
L 313.941759 174.749804 
L 314.110525 174.718882 
L 314.448056 174.840658 
L 315.12312 174.796634 
L 315.291886 174.694407 
L 315.798183 174.958746 
L 316.135715 174.865612 
L 316.642013 174.93413 
L 317.654608 174.79919 
L 318.329672 174.773812 
L 319.173501 175.165043 
L 319.342267 175.13224 
L 319.848565 174.734108 
L 320.692394 174.760223 
L 321.198692 174.878819 
L 321.536223 175.019614 
L 321.873755 174.965719 
L 322.380053 174.850556 
L 322.886351 174.88013 
L 323.223882 175.013215 
L 323.898946 175.005988 
L 324.236478 174.879937 
L 324.742775 174.868366 
L 325.249073 175.95161 
L 325.417839 175.903249 
L 325.75537 175.175493 
L 326.092902 175.831637 
L 326.430433 175.31104 
L 326.767965 174.955901 
L 327.274263 175.270635 
L 327.443028 175.227557 
L 327.78056 175.735818 
L 328.118092 174.862163 
L 328.455624 177.409003 
L 328.793154 174.207939 
L 328.961919 174.342714 
L 329.130685 175.014468 
L 329.468217 177.611091 
L 330.143279 174.004023 
L 330.48081 178.327246 
L 330.649573 177.306619 
L 330.818339 175.460993 
L 331.155871 184.948723 
L 331.49338 196.56262 
L 331.83082 226.860898 
L 332.16782 202.500192 
L 332.336476 206.629562 
L 332.505242 214.595385 
L 332.842512 206.971081 
L 333.179868 185.200027 
L 333.517388 213.184326 
L 334.023432 173.687431 
L 334.192198 174.491118 
L 334.52973 174.710484 
L 334.867261 174.914698 
L 335.204793 177.709306 
L 335.542323 202.281794 
L 335.71093 196.751927 
L 335.879696 186.517161 
L 336.048447 185.751038 
L 336.217213 187.304145 
L 336.723483 177.842832 
L 336.892249 178.445033 
L 337.229778 194.608479 
L 337.567239 181.303679 
L 337.736001 182.96798 
L 338.242273 192.689762 
L 338.579753 187.844669 
L 338.91726 192.232826 
L 339.254745 177.776637 
L 339.423511 180.187773 
L 339.592277 184.471791 
L 340.098459 209.070583 
L 340.267225 219.266458 
L 340.604442 205.342239 
L 340.94187 186.793373 
L 341.279384 216.327691 
L 341.616664 186.385838 
L 341.954183 203.677546 
L 342.291604 164.407992 
L 342.629111 195.953209 
L 343.304104 167.125686 
L 343.979158 176.724813 
L 344.316689 164.191971 
L 344.654204 71.071877 
L 345.327285 171.797272 
L 346.002214 127.283242 
L 346.339485 171.885884 
L 346.508251 171.831054 
L 346.677017 168.635054 
L 347.183309 174.318244 
L 347.689606 174.632213 
L 348.027138 173.218381 
L 348.36467 174.680694 
L 349.208499 173.427979 
L 349.377265 173.505554 
L 349.714796 174.469708 
L 350.052328 173.390855 
L 350.38986 173.551915 
L 350.896157 174.666852 
L 351.064923 174.761794 
L 351.571221 174.631946 
L 351.739986 174.671663 
L 352.077518 174.480801 
L 352.41505 174.731541 
L 352.752582 174.267467 
L 353.090114 174.934185 
L 353.427645 173.736189 
L 353.933943 174.819531 
L 354.102709 174.783892 
L 354.440241 174.257515 
L 354.777772 173.310434 
L 355.115304 175.105503 
L 355.790367 173.361144 
L 356.127899 174.285111 
L 356.465431 174.229197 
L 356.802962 173.660984 
L 357.140494 174.311962 
L 357.478026 174.024253 
L 357.815557 172.968792 
L 358.153089 169.275727 
L 358.490618 174.261095 
L 358.659384 174.579683 
L 358.828149 174.655892 
L 359.165681 175.516062 
L 359.840745 172.728847 
L 360.178276 175.631642 
L 360.515808 174.81821 
L 360.853339 173.37234 
L 361.190871 175.353208 
L 361.865935 174.153349 
L 362.203466 174.898956 
L 362.709764 174.642924 
L 363.047296 174.667725 
L 363.216062 174.63258 
L 363.553593 173.192311 
L 364.05989 177.440729 
L 364.228656 177.795703 
L 364.566187 172.940038 
L 365.072484 175.191894 
L 365.24125 175.075481 
L 365.578782 176.844449 
L 365.916313 173.084649 
L 366.253845 180.960141 
L 366.591372 191.947206 
L 366.92888 193.325198 
L 367.266375 198.546554 
L 367.603863 192.432268 
L 367.941368 202.742779 
L 368.278836 175.721271 
L 368.447602 176.298808 
L 368.616368 178.125791 
L 368.953899 216.854081 
L 369.291305 182.608773 
L 369.628833 211.258984 
L 369.966254 203.554431 
L 370.303726 192.147223 
L 370.641238 214.220896 
L 370.978658 182.867605 
L 371.316186 198.153288 
L 371.822439 181.543106 
L 371.991205 180.913632 
L 372.666224 211.72292 
L 373.003702 189.113838 
L 373.341225 214.050446 
L 373.678713 180.013999 
L 373.847478 180.377196 
L 374.016244 181.257084 
L 374.353773 193.601607 
L 374.691293 189.949309 
L 375.028817 176.989931 
L 375.366349 174.243957 
L 375.70388 175.455226 
L 376.041412 177.296309 
L 376.378944 175.380649 
L 376.716475 175.120574 
L 377.054007 176.712136 
L 377.391539 174.778492 
L 377.729071 176.417234 
L 378.066602 175.059017 
L 378.404134 180.342105 
L 378.741665 176.061541 
L 379.079197 177.561121 
L 379.585494 177.42893 
L 379.75426 177.388663 
L 380.260557 175.20964 
L 380.429323 174.780418 
L 380.766855 174.728505 
L 381.104387 175.482245 
L 381.441918 175.604818 
L 381.77945 174.653226 
L 382.454514 174.700574 
L 382.792046 174.551795 
L 383.129577 175.986777 
L 383.804641 176.724915 
L 384.310938 174.961429 
L 384.479704 174.700757 
L 385.154768 174.615734 
L 385.998597 176.736184 
L 386.167363 176.939526 
L 386.504895 175.058119 
L 386.842426 174.724857 
L 389.036383 174.708858 
L 398.487273 174.708858 
L 398.487273 174.708858 
" clip-path="url(#p6dc4606573)" style="fill: none; stroke: #ff7f0e; stroke-width: 1.5; stroke-linecap: square"/>
   </g>
   <g id="line2d_14">
    <path d="M 73.832727 174.708638 
L 74.3307 174.450578 
L 83.958178 173.53029 
L 91.095787 171.518128 
L 92.257722 171.238481 
L 92.755694 171.237573 
L 93.419656 170.846986 
L 93.751637 170.579616 
L 94.083618 170.733365 
L 94.415599 170.519595 
L 94.74758 170.649272 
L 95.245552 171.418361 
L 95.577534 171.94847 
L 95.909515 172.53999 
L 97.569425 176.175375 
L 98.067398 177.231273 
L 98.897351 179.218423 
L 99.39532 180.402604 
L 99.727298 181.577455 
L 100.391255 181.869088 
L 100.723231 183.634818 
L 101.055207 183.795481 
L 101.387181 184.841109 
L 101.719152 186.500934 
L 102.383092 187.225016 
L 102.881048 189.32433 
L 103.544973 190.903387 
L 103.876932 191.650737 
L 104.208889 191.918257 
L 104.540845 191.955927 
L 104.70681 191.998601 
L 105.038759 193.671723 
L 105.536703 191.813617 
L 105.868661 189.574271 
L 106.200625 187.375081 
L 108.192482 176.340453 
L 109.188427 171.101384 
L 110.018373 167.993534 
L 110.682324 166.581619 
L 111.346272 165.714571 
L 111.678243 164.796507 
L 112.010215 165.017245 
L 112.674162 166.068305 
L 113.172128 167.316591 
L 113.338113 167.602465 
L 114.33405 170.502329 
L 114.66603 170.444919 
L 115.495983 172.710313 
L 115.827964 173.452128 
L 116.491928 174.748592 
L 117.985844 177.997094 
L 118.317825 178.417478 
L 118.981782 180.305339 
L 119.645735 181.61911 
L 119.97771 182.213234 
L 120.309685 182.171289 
L 120.641659 182.38356 
L 121.139626 181.494095 
L 121.637589 180.235267 
L 121.969569 179.229135 
L 122.301548 179.080406 
L 123.795463 176.225857 
L 123.961454 176.001954 
L 124.625417 174.349955 
L 124.957399 174.077757 
L 125.455372 172.947407 
L 126.285324 171.546044 
L 127.115277 172.001344 
L 127.447258 172.335986 
L 127.613248 172.391237 
L 127.945229 172.157147 
L 128.443201 172.309362 
L 128.941173 172.474978 
L 129.937117 172.83414 
L 130.43509 173.117192 
L 130.767071 173.092385 
L 131.099053 173.064076 
L 131.763016 173.271581 
L 132.592971 173.633213 
L 132.924952 173.722794 
L 133.422925 174.090122 
L 133.754907 174.103656 
L 134.086889 174.163924 
L 134.25288 174.20181 
L 134.584862 173.928421 
L 135.082835 174.489377 
L 135.746799 174.876268 
L 136.410763 174.804688 
L 136.576754 174.770116 
L 137.738691 175.304061 
L 137.904682 175.291491 
L 138.402655 175.597444 
L 139.896573 176.053308 
L 140.394545 176.294406 
L 141.39049 176.497943 
L 141.722471 176.711494 
L 145.37426 177.897693 
L 145.706241 177.956835 
L 146.038221 177.986733 
L 146.20421 177.995872 
L 147.532126 179.184346 
L 147.864105 179.177942 
L 150.187938 181.097136 
L 150.519913 181.133006 
L 151.017877 181.787285 
L 152.179771 182.579281 
L 152.843707 183.502993 
L 153.175675 183.428636 
L 153.673631 184.070021 
L 153.839605 184.118836 
L 154.171571 183.860518 
L 154.669525 184.9276 
L 155.167453 185.790826 
L 155.499412 185.643821 
L 155.831367 186.34227 
L 156.163324 186.010281 
L 156.49528 185.924125 
L 157.159201 184.828075 
L 157.491164 184.430376 
L 158.155096 183.32826 
L 158.819032 182.953318 
L 159.316992 182.283419 
L 160.312907 181.18254 
L 160.976856 180.423466 
L 165.292586 175.826354 
L 165.624567 175.617218 
L 166.786504 174.80057 
L 167.450468 174.879098 
L 167.78245 174.917989 
L 168.114432 175.075551 
L 168.612405 175.00879 
L 169.774342 175.103581 
L 170.106324 175.293113 
L 170.438306 175.103312 
L 173.592134 175.590711 
L 174.090107 175.722095 
L 174.422089 176.001765 
L 174.920061 175.98115 
L 176.745959 176.471182 
L 177.07794 176.810092 
L 177.409921 176.69958 
L 179.401806 177.259004 
L 179.733786 177.242405 
L 180.231757 177.531936 
L 181.559677 177.889399 
L 182.223636 178.050458 
L 182.721603 178.386685 
L 183.053582 178.278104 
L 183.385562 178.064366 
L 183.717541 178.404895 
L 184.381498 178.584835 
L 184.713476 178.816568 
L 185.377432 178.612347 
L 185.70941 179.109294 
L 186.705341 179.327854 
L 187.037317 179.590315 
L 187.369294 179.10087 
L 187.701271 179.273091 
L 188.033248 179.224334 
L 188.863193 179.380671 
L 189.693133 179.109089 
L 190.357086 179.542103 
L 190.689062 179.73787 
L 191.021039 179.429123 
L 191.684991 179.454946 
L 192.016968 179.260942 
L 192.348945 179.304046 
L 192.680921 179.579337 
L 193.178889 179.510446 
L 193.676851 179.378285 
L 194.174818 179.582539 
L 194.506794 179.645102 
L 196.166673 179.75042 
L 197.992535 179.941736 
L 198.158526 180.029343 
L 198.32451 180.258468 
L 199.984332 184.877556 
L 200.482275 186.390494 
L 201.312099 188.979254 
L 201.644027 189.518904 
L 203.303504 195.910686 
L 204.630704 204.887487 
L 204.796695 205.003757 
L 204.962447 205.521065 
L 206.123426 213.079244 
L 206.786563 217.212466 
L 207.283454 221.075126 
L 208.112584 208.724835 
L 208.941851 199.909107 
L 209.43969 195.555338 
L 212.427176 173.46793 
L 216.078114 145.032144 
L 216.243855 144.630979 
L 216.741601 147.317735 
L 217.73704 152.825 
L 219.562381 159.402228 
L 220.060294 160.642052 
L 220.890118 163.273115 
L 221.388059 164.638563 
L 222.051974 166.147 
L 225.039735 173.028408 
L 226.533652 174.632211 
L 227.197616 174.850673 
L 227.529598 174.730917 
L 228.027571 174.760869 
L 228.525544 174.721241 
L 228.857526 174.876278 
L 229.189508 174.738669 
L 229.853472 174.724309 
L 230.185454 174.712424 
L 230.517436 174.851334 
L 231.1814 174.764995 
L 231.845364 174.674188 
L 232.177346 174.584793 
L 232.509328 174.823403 
L 233.837256 174.604057 
L 234.169238 174.812273 
L 235.497166 174.682341 
L 235.995139 174.755037 
L 236.825094 174.735593 
L 237.157076 174.847225 
L 237.489058 174.692556 
L 237.987031 174.719818 
L 238.485004 174.694712 
L 238.816986 174.848777 
L 239.148969 174.70318 
L 239.646942 174.716083 
L 240.144915 174.600344 
L 240.97487 174.975647 
L 241.140861 174.91385 
L 241.472843 174.601396 
L 242.302798 174.736468 
L 242.63478 174.763951 
L 244.128699 174.682438 
L 244.460681 174.794715 
L 246.120591 174.573039 
L 246.452573 174.799994 
L 247.448519 174.617891 
L 247.780501 174.42419 
L 248.112483 174.543538 
L 249.108429 174.097076 
L 250.602346 172.715381 
L 251.100316 172.480515 
L 251.432296 172.085436 
L 251.930267 171.73236 
L 252.428235 171.337833 
L 252.594226 171.354872 
L 252.926205 171.02945 
L 253.756146 170.397344 
L 256.74391 168.234542 
L 256.909901 168.266633 
L 257.241871 167.97531 
L 258.735718 166.832016 
L 258.901709 166.518764 
L 259.067681 166.475764 
L 259.233672 166.649035 
L 259.399646 166.462824 
L 259.731606 165.808097 
L 259.897597 165.856051 
L 260.063567 165.676849 
L 260.561515 164.667916 
L 260.893469 164.530033 
L 261.225422 164.283571 
L 262.88516 162.280341 
L 263.549035 161.311441 
L 263.880968 160.088797 
L 264.544796 157.218963 
L 265.540448 153.064511 
L 267.033518 145.678371 
L 267.531237 141.578273 
L 268.0285 135.456288 
L 268.194491 135.030832 
L 268.52605 129.456536 
L 268.857456 123.664304 
L 269.022729 123.725033 
L 269.354099 128.262039 
L 271.510653 165.308821 
L 272.506575 177.205343 
L 273.834393 193.219382 
L 274.332038 204.708252 
L 274.498029 204.814698 
L 274.829777 210.713977 
L 275.1614 215.263106 
L 275.326954 214.182908 
L 275.492945 211.308731 
L 275.658613 210.761535 
L 275.824604 211.5865 
L 275.990241 210.241172 
L 276.487955 203.332945 
L 276.985568 199.263852 
L 279.806861 182.37214 
L 280.968767 177.968948 
L 283.126645 174.349919 
L 284.122591 172.865866 
L 284.620561 172.109211 
L 284.952541 171.640612 
L 285.782489 170.231893 
L 286.944397 168.300467 
L 287.110388 168.231606 
L 287.44236 167.659081 
L 288.106296 166.431564 
L 289.268155 164.900798 
L 289.600112 164.446371 
L 289.932069 164.55897 
L 290.09806 164.69301 
L 290.595988 165.398113 
L 290.761979 165.354293 
L 291.09394 165.759971 
L 292.255819 168.337542 
L 292.42181 168.927971 
L 292.587794 169.056472 
L 292.753785 168.975929 
L 293.085759 169.510463 
L 294.413671 172.260196 
L 295.409614 173.926484 
L 296.571551 176.193992 
L 297.069523 176.986872 
L 297.899471 178.591267 
L 300.223283 182.843087 
L 300.88721 184.246592 
L 301.717118 185.874532 
L 301.88308 185.911344 
L 302.381026 185.597644 
L 303.21091 184.333489 
L 304.870736 182.682788 
L 305.036727 182.580955 
L 305.534677 181.429313 
L 305.700668 181.531496 
L 306.03264 181.291919 
L 306.862571 180.182804 
L 307.194547 179.758925 
L 307.526524 179.300674 
L 307.692515 179.234195 
L 308.52246 177.979642 
L 308.85444 177.785958 
L 309.18642 177.311558 
L 309.518401 176.767722 
L 309.850382 176.531113 
L 310.016373 176.502057 
L 310.514346 175.655177 
L 310.846327 175.712086 
L 311.012318 175.634667 
L 311.510291 174.970951 
L 311.676282 175.019863 
L 312.174255 174.6996 
L 312.340246 174.575602 
L 312.838219 174.813475 
L 313.00421 174.769384 
L 313.336192 174.298576 
L 313.834165 174.882925 
L 314.166147 174.602507 
L 314.66412 174.569397 
L 315.162093 174.326246 
L 315.328084 174.424342 
L 315.660066 174.271175 
L 315.992048 175.076829 
L 316.158039 174.927491 
L 316.656012 174.090663 
L 316.987994 174.22623 
L 317.319976 174.461253 
L 318.149931 174.156138 
L 318.481913 174.314547 
L 318.647904 174.275407 
L 318.979886 173.836595 
L 319.477859 174.467018 
L 320.141822 174.120776 
L 320.805786 174.117209 
L 321.137768 174.293903 
L 321.635741 174.169343 
L 322.133714 174.742459 
L 322.465696 174.705764 
L 322.963669 174.831471 
L 323.461642 175.4501 
L 323.959615 175.346841 
L 324.291597 175.534024 
L 324.95556 176.460826 
L 325.287542 176.498033 
L 325.785513 177.691293 
L 326.283484 177.928125 
L 326.781452 178.935186 
L 327.279421 179.391985 
L 327.611399 179.749969 
L 328.109361 180.728156 
L 328.607327 181.193066 
L 329.105283 181.974507 
L 329.603246 182.358703 
L 330.101195 183.169909 
L 330.267186 183.269411 
L 331.263086 185.137613 
L 331.761018 185.517542 
L 331.927009 185.575976 
L 332.590927 187.157738 
L 333.254837 187.071216 
L 333.752756 187.413137 
L 334.08471 187.619374 
L 334.914607 187.807985 
L 335.24656 188.146551 
L 335.744473 187.674522 
L 335.910464 187.656669 
L 336.408377 188.598475 
L 337.238266 189.165934 
L 338.400052 190.856323 
L 338.731989 191.542838 
L 338.89798 191.706212 
L 340.225696 194.810662 
L 340.557614 194.393332 
L 340.889536 193.529028 
L 341.221463 194.85934 
L 341.719351 185.586872 
L 343.213243 175.893197 
L 343.545225 174.627876 
L 344.209186 166.777641 
L 344.541158 154.868925 
L 344.707086 154.638984 
L 345.702905 160.020551 
L 346.532805 161.631908 
L 347.030735 163.260139 
L 347.196726 163.38497 
L 347.694665 164.454199 
L 348.026634 165.128049 
L 348.192625 165.313481 
L 349.02255 167.126626 
L 349.520516 167.792355 
L 350.018477 168.379644 
L 350.350454 168.689297 
L 350.516445 168.896887 
L 351.01441 169.953144 
L 351.51238 170.274061 
L 352.342329 170.783491 
L 352.50832 170.759386 
L 353.006289 171.167803 
L 353.17228 171.164984 
L 353.836241 171.750659 
L 354.666194 172.357232 
L 354.832185 172.562421 
L 355.330156 172.575282 
L 355.662138 172.892038 
L 355.99412 173.197359 
L 356.326101 173.397341 
L 356.658083 173.584363 
L 357.156056 173.658993 
L 357.654029 174.436318 
L 357.82002 174.748557 
L 358.483984 174.570851 
L 358.815966 174.770445 
L 359.313939 175.374323 
L 359.645921 175.482999 
L 359.977903 175.583216 
L 360.309885 175.850282 
L 360.641867 176.064223 
L 360.807858 176.074009 
L 361.30583 176.590356 
L 362.135784 177.903966 
L 363.795683 181.024084 
L 364.127661 181.22505 
L 364.9576 182.928679 
L 366.119513 184.871199 
L 366.451485 184.766999 
L 366.949436 186.626309 
L 367.945336 188.748311 
L 368.44329 190.234155 
L 368.775251 190.673501 
L 369.273176 192.101745 
L 369.439167 192.319969 
L 369.771122 193.347827 
L 370.103075 193.360417 
L 371.430907 189.788109 
L 371.762871 189.541739 
L 372.260812 188.342195 
L 372.592781 187.636221 
L 372.758772 187.454364 
L 373.090742 186.148766 
L 373.422715 186.271278 
L 373.754687 185.944743 
L 374.252644 184.736635 
L 374.418635 184.479958 
L 374.75061 184.480034 
L 375.248572 183.565868 
L 375.746539 183.19824 
L 376.410495 182.095555 
L 377.240441 181.36254 
L 377.406432 181.333568 
L 377.738411 180.528669 
L 378.070391 180.579631 
L 378.402371 179.627815 
L 378.734352 180.02311 
L 379.232322 178.964424 
L 379.730294 178.728628 
L 380.062275 178.083326 
L 380.394257 178.123564 
L 381.22421 177.378595 
L 381.390201 177.178856 
L 381.888173 177.002295 
L 383.05011 176.139956 
L 383.382092 175.972526 
L 383.714074 176.092233 
L 384.046056 175.54897 
L 384.544029 175.731152 
L 385.207993 175.647048 
L 385.705966 175.723041 
L 386.037948 175.788389 
L 386.36993 175.352341 
L 386.867903 175.536877 
L 387.697858 175.433825 
L 398.487273 174.521881 
L 398.487273 174.521881 
" clip-path="url(#p6dc4606573)" style="fill: none; stroke: #2ca02c; stroke-width: 1.5; stroke-linecap: square"/>
   </g>
   <g id="line2d_15">
    <path d="M 73.832727 174.708627 
L 74.3307 174.43844 
L 84.622139 173.401607 
L 93.917623 170.961927 
L 94.083613 171.034067 
L 94.581585 170.780986 
L 95.079556 170.728571 
L 95.411538 171.116728 
L 97.237437 175.438297 
L 99.893282 181.597524 
L 100.22526 182.334138 
L 101.387171 185.204766 
L 102.383082 187.539438 
L 103.047012 189.598498 
L 103.378975 189.768697 
L 103.710936 190.407484 
L 104.042892 191.983528 
L 104.7068 192.887087 
L 105.038752 192.730255 
L 106.200624 187.484253 
L 108.52446 174.937187 
L 109.686392 169.090951 
L 110.68232 166.405533 
L 111.512256 164.609636 
L 111.678236 164.468066 
L 113.338106 167.793286 
L 115.329984 172.227788 
L 117.653855 177.474163 
L 118.317816 178.893324 
L 119.47974 181.568082 
L 119.977699 182.392498 
L 120.973625 181.382363 
L 126.119325 171.822295 
L 126.285315 171.711421 
L 127.945219 172.22226 
L 145.208256 177.791446 
L 147.366124 178.921629 
L 150.85187 181.513053 
L 151.515814 182.044215 
L 153.009683 183.297943 
L 153.34165 183.578953 
L 153.83959 184.158082 
L 154.171555 184.12739 
L 155.00147 185.224237 
L 155.499397 185.733944 
L 155.831355 185.825575 
L 156.16331 186.231301 
L 156.495266 186.063895 
L 157.159187 184.805048 
L 157.989106 183.801291 
L 160.644865 180.826019 
L 164.296624 176.789588 
L 166.122523 175.220906 
L 167.782432 174.740538 
L 168.280405 174.708139 
L 171.268242 175.186672 
L 173.426124 175.632797 
L 182.389601 178.15107 
L 182.72158 178.137618 
L 184.547464 178.778487 
L 184.879442 178.768747 
L 185.21142 178.792286 
L 185.543398 179.012971 
L 186.041361 179.274508 
L 186.539329 179.267279 
L 187.203283 179.348278 
L 187.53526 179.170852 
L 187.867237 179.078258 
L 190.191075 179.338011 
L 193.178864 179.386424 
L 193.676827 179.278872 
L 194.008803 179.581522 
L 196.332633 179.783255 
L 198.1585 180.033915 
L 198.324484 180.185302 
L 198.656457 180.885093 
L 201.478064 189.732118 
L 202.639697 194.060304 
L 204.298864 202.384695 
L 204.796613 205.065528 
L 205.294083 206.622173 
L 206.288995 214.01618 
L 206.786497 219.489581 
L 206.951939 220.377595 
L 207.11793 219.988269 
L 207.283388 218.840075 
L 208.112557 208.710537 
L 209.107818 198.179071 
L 211.265228 181.591437 
L 216.07807 144.802566 
L 216.243811 144.773414 
L 218.068872 154.287193 
L 219.064529 157.968935 
L 220.060281 161.126522 
L 220.724154 162.786426 
L 224.209772 171.426532 
L 225.205715 173.713471 
L 225.703687 174.126073 
L 226.865624 174.706774 
L 229.189497 174.716578 
L 236.327109 174.711907 
L 247.614494 174.692266 
L 248.942422 174.461942 
L 249.606385 173.947447 
L 256.577906 167.887657 
L 257.241844 167.51619 
L 257.573812 167.277103 
L 258.071754 167.128575 
L 258.403718 166.599623 
L 258.901673 166.350053 
L 259.731564 165.585182 
L 260.063523 165.409997 
L 263.051068 162.224611 
L 263.548995 161.333415 
L 264.046859 159.557231 
L 265.872296 152.276242 
L 266.701759 147.387477 
L 268.02849 135.878642 
L 268.691377 126.361415 
L 268.857368 124.699522 
L 269.022681 125.449018 
L 269.354106 130.82895 
L 269.851677 139.748691 
L 271.012827 155.974853 
L 272.838615 181.593632 
L 275.161408 214.764596 
L 275.326975 214.577018 
L 275.658585 211.58081 
L 276.322007 204.853189 
L 277.981199 192.962775 
L 280.138845 180.665588 
L 280.802796 178.262692 
L 281.466755 177.090047 
L 288.936207 165.150951 
L 289.932082 164.652456 
L 290.098073 164.687797 
L 290.927963 165.774004 
L 291.259927 166.238865 
L 293.085773 169.696133 
L 299.891326 182.397924 
L 300.555258 183.508068 
L 300.887221 184.089012 
L 301.717128 185.802271 
L 302.049082 185.863869 
L 303.044951 184.467468 
L 303.542884 183.895344 
L 303.874847 183.663056 
L 304.70477 182.612346 
L 309.352423 177.140566 
L 310.348366 175.969222 
L 312.174266 174.614878 
L 318.481922 174.326211 
L 321.469759 174.252574 
L 322.133723 174.512616 
L 323.627641 175.306937 
L 325.121559 176.389722 
L 327.611406 179.991944 
L 331.429056 185.27704 
L 331.595047 185.351628 
L 332.424934 186.558432 
L 332.756891 186.683724 
L 333.088847 186.816208 
L 333.254838 186.781765 
L 335.080576 187.648771 
L 335.57852 187.813015 
L 337.238271 189.359557 
L 338.731989 191.670526 
L 339.229914 192.807028 
L 340.557605 195.84016 
L 340.889517 194.844255 
L 344.375134 163.577857 
L 344.541125 163.159064 
L 345.039039 158.136836 
L 345.20503 157.94467 
L 346.034879 160.469616 
L 346.20087 160.60239 
L 348.524604 165.665854 
L 350.516452 169.727264 
L 351.18041 170.188681 
L 359.97791 175.660592 
L 360.807865 176.184796 
L 361.305837 176.724567 
L 363.131731 179.775622 
L 367.779368 187.979776 
L 368.609268 190.101179 
L 368.775259 190.321277 
L 369.771133 193.074189 
L 370.103086 193.263028 
L 370.932965 191.095798 
L 372.758783 187.209163 
L 373.256734 186.448504 
L 373.422725 186.100518 
L 373.754697 186.021662 
L 374.750619 184.480169 
L 375.248579 184.00645 
L 377.240446 181.499626 
L 379.564307 178.69936 
L 380.892233 177.221425 
L 381.556196 176.828034 
L 383.714078 175.812448 
L 386.701915 175.555174 
L 395.333444 174.782207 
L 398.487273 174.513439 
L 398.487273 174.513439 
" clip-path="url(#p6dc4606573)" style="fill: none; stroke: #d62728; stroke-width: 1.5; stroke-linecap: square"/>
   </g>
   <g id="patch_3">
    <path d="M 57.6 307.584 
L 57.6 41.472 
" style="fill: none; stroke: #000000; stroke-width: 0.8; stroke-linejoin: miter; stroke-linecap: square"/>
   </g>
   <g id="patch_4">
    <path d="M 414.72 307.584 
L 414.72 41.472 
" style="fill: none; stroke: #000000; stroke-width: 0.8; stroke-linejoin: miter; stroke-linecap: square"/>
   </g>
   <g id="patch_5">
    <path d="M 57.6 307.584 
L 414.72 307.584 
" style="fill: none; stroke: #000000; stroke-width: 0.8; stroke-linejoin: miter; stroke-linecap: square"/>
   </g>
   <g id="patch_6">
    <path d="M 57.6 41.472 
L 414.72 41.472 
" style="fill: none; stroke: #000000; stroke-width: 0.8; stroke-linejoin: miter; stroke-linecap: square"/>
   </g>
   <g id="text_12">
    <!-- Curvature vs Distance gbr -->
    <g transform="translate(157.577812 35.472)scale(0.12 -0.12)">
     <defs>
      <path id="DejaVuSans-43" d="M 4122 4306 
L 4122 3641 
Q 3803 3938 3442 4084 
Q 3081 4231 2675 4231 
Q 1875 4231 1450 3742 
Q 1025 3253 1025 2328 
Q 1025 1406 1450 917 
Q 1875 428 2675 428 
Q 3081 428 3442 575 
Q 3803 722 4122 1019 
L 4122 359 
Q 3791 134 3420 21 
Q 3050 -91 2638 -91 
Q 1578 -91 968 557 
Q 359 1206 359 2328 
Q 359 3453 968 4101 
Q 1578 4750 2638 4750 
Q 3056 4750 3426 4639 
Q 3797 4528 4122 4306 
z
" transform="scale(0.015625)"/>
      <path id="DejaVuSans-75" d="M 544 1381 
L 544 3500 
L 1119 3500 
L 1119 1403 
Q 1119 906 1312 657 
Q 1506 409 1894 409 
Q 2359 409 2629 706 
Q 2900 1003 2900 1516 
L 2900 3500 
L 3475 3500 
L 3475 0 
L 2900 0 
L 2900 538 
Q 2691 219 2414 64 
Q 2138 -91 1772 -91 
Q 1169 -91 856 284 
Q 544 659 544 1381 
z
M 1991 3584 
L 1991 3584 
z
" transform="scale(0.015625)"/>
      <path id="DejaVuSans-72" d="M 2631 2963 
Q 2534 3019 2420 3045 
Q 2306 3072 2169 3072 
Q 1681 3072 1420 2755 
Q 1159 2438 1159 1844 
L 1159 0 
L 581 0 
L 581 3500 
L 1159 3500 
L 1159 2956 
Q 1341 3275 1631 3429 
Q 1922 3584 2338 3584 
Q 2397 3584 2469 3576 
Q 2541 3569 2628 3553 
L 2631 2963 
z
" transform="scale(0.015625)"/>
      <path id="DejaVuSans-76" d="M 191 3500 
L 800 3500 
L 1894 563 
L 2988 3500 
L 3597 3500 
L 2284 0 
L 1503 0 
L 191 3500 
z
" transform="scale(0.015625)"/>
      <path id="DejaVuSans-61" d="M 2194 1759 
Q 1497 1759 1228 1600 
Q 959 1441 959 1056 
Q 959 750 1161 570 
Q 1363 391 1709 391 
Q 2188 391 2477 730 
Q 2766 1069 2766 1631 
L 2766 1759 
L 2194 1759 
z
M 3341 1997 
L 3341 0 
L 2766 0 
L 2766 531 
Q 2569 213 2275 61 
Q 1981 -91 1556 -91 
Q 1019 -91 701 211 
Q 384 513 384 1019 
Q 384 1609 779 1909 
Q 1175 2209 1959 2209 
L 2766 2209 
L 2766 2266 
Q 2766 2663 2505 2880 
Q 2244 3097 1772 3097 
Q 1472 3097 1187 3025 
Q 903 2953 641 2809 
L 641 3341 
Q 956 3463 1253 3523 
Q 1550 3584 1831 3584 
Q 2591 3584 2966 3190 
Q 3341 2797 3341 1997 
z
" transform="scale(0.015625)"/>
      <path id="DejaVuSans-74" d="M 1172 4494 
L 1172 3500 
L 2356 3500 
L 2356 3053 
L 1172 3053 
L 1172 1153 
Q 1172 725 1289 603 
Q 1406 481 1766 481 
L 2356 481 
L 2356 0 
L 1766 0 
Q 1100 0 847 248 
Q 594 497 594 1153 
L 594 3053 
L 172 3053 
L 172 3500 
L 594 3500 
L 594 4494 
L 1172 4494 
z
" transform="scale(0.015625)"/>
      <path id="DejaVuSans-65" d="M 3597 1894 
L 3597 1613 
L 953 1613 
Q 991 1019 1311 708 
Q 1631 397 2203 397 
Q 2534 397 2845 478 
Q 3156 559 3463 722 
L 3463 178 
Q 3153 47 2828 -22 
Q 2503 -91 2169 -91 
Q 1331 -91 842 396 
Q 353 884 353 1716 
Q 353 2575 817 3079 
Q 1281 3584 2069 3584 
Q 2775 3584 3186 3129 
Q 3597 2675 3597 1894 
z
M 3022 2063 
Q 3016 2534 2758 2815 
Q 2500 3097 2075 3097 
Q 1594 3097 1305 2825 
Q 1016 2553 972 2059 
L 3022 2063 
z
" transform="scale(0.015625)"/>
      <path id="DejaVuSans-20" transform="scale(0.015625)"/>
      <path id="DejaVuSans-73" d="M 2834 3397 
L 2834 2853 
Q 2591 2978 2328 3040 
Q 2066 3103 1784 3103 
Q 1356 3103 1142 2972 
Q 928 2841 928 2578 
Q 928 2378 1081 2264 
Q 1234 2150 1697 2047 
L 1894 2003 
Q 2506 1872 2764 1633 
Q 3022 1394 3022 966 
Q 3022 478 2636 193 
Q 2250 -91 1575 -91 
Q 1294 -91 989 -36 
Q 684 19 347 128 
L 347 722 
Q 666 556 975 473 
Q 1284 391 1588 391 
Q 1994 391 2212 530 
Q 2431 669 2431 922 
Q 2431 1156 2273 1281 
Q 2116 1406 1581 1522 
L 1381 1569 
Q 847 1681 609 1914 
Q 372 2147 372 2553 
Q 372 3047 722 3315 
Q 1072 3584 1716 3584 
Q 2034 3584 2315 3537 
Q 2597 3491 2834 3397 
z
" transform="scale(0.015625)"/>
      <path id="DejaVuSans-44" d="M 1259 4147 
L 1259 519 
L 2022 519 
Q 2988 519 3436 956 
Q 3884 1394 3884 2338 
Q 3884 3275 3436 3711 
Q 2988 4147 2022 4147 
L 1259 4147 
z
M 628 4666 
L 1925 4666 
Q 3281 4666 3915 4102 
Q 4550 3538 4550 2338 
Q 4550 1131 3912 565 
Q 3275 0 1925 0 
L 628 0 
L 628 4666 
z
" transform="scale(0.015625)"/>
      <path id="DejaVuSans-69" d="M 603 3500 
L 1178 3500 
L 1178 0 
L 603 0 
L 603 3500 
z
M 603 4863 
L 1178 4863 
L 1178 4134 
L 603 4134 
L 603 4863 
z
" transform="scale(0.015625)"/>
      <path id="DejaVuSans-6e" d="M 3513 2113 
L 3513 0 
L 2938 0 
L 2938 2094 
Q 2938 2591 2744 2837 
Q 2550 3084 2163 3084 
Q 1697 3084 1428 2787 
Q 1159 2491 1159 1978 
L 1159 0 
L 581 0 
L 581 3500 
L 1159 3500 
L 1159 2956 
Q 1366 3272 1645 3428 
Q 1925 3584 2291 3584 
Q 2894 3584 3203 3211 
Q 3513 2838 3513 2113 
z
" transform="scale(0.015625)"/>
      <path id="DejaVuSans-63" d="M 3122 3366 
L 3122 2828 
Q 2878 2963 2633 3030 
Q 2388 3097 2138 3097 
Q 1578 3097 1268 2742 
Q 959 2388 959 1747 
Q 959 1106 1268 751 
Q 1578 397 2138 397 
Q 2388 397 2633 464 
Q 2878 531 3122 666 
L 3122 134 
Q 2881 22 2623 -34 
Q 2366 -91 2075 -91 
Q 1284 -91 818 406 
Q 353 903 353 1747 
Q 353 2603 823 3093 
Q 1294 3584 2113 3584 
Q 2378 3584 2631 3529 
Q 2884 3475 3122 3366 
z
" transform="scale(0.015625)"/>
      <path id="DejaVuSans-67" d="M 2906 1791 
Q 2906 2416 2648 2759 
Q 2391 3103 1925 3103 
Q 1463 3103 1205 2759 
Q 947 2416 947 1791 
Q 947 1169 1205 825 
Q 1463 481 1925 481 
Q 2391 481 2648 825 
Q 2906 1169 2906 1791 
z
M 3481 434 
Q 3481 -459 3084 -895 
Q 2688 -1331 1869 -1331 
Q 1566 -1331 1297 -1286 
Q 1028 -1241 775 -1147 
L 775 -588 
Q 1028 -725 1275 -790 
Q 1522 -856 1778 -856 
Q 2344 -856 2625 -561 
Q 2906 -266 2906 331 
L 2906 616 
Q 2728 306 2450 153 
Q 2172 0 1784 0 
Q 1141 0 747 490 
Q 353 981 353 1791 
Q 353 2603 747 3093 
Q 1141 3584 1784 3584 
Q 2172 3584 2450 3431 
Q 2728 3278 2906 2969 
L 2906 3500 
L 3481 3500 
L 3481 434 
z
" transform="scale(0.015625)"/>
      <path id="DejaVuSans-62" d="M 3116 1747 
Q 3116 2381 2855 2742 
Q 2594 3103 2138 3103 
Q 1681 3103 1420 2742 
Q 1159 2381 1159 1747 
Q 1159 1113 1420 752 
Q 1681 391 2138 391 
Q 2594 391 2855 752 
Q 3116 1113 3116 1747 
z
M 1159 2969 
Q 1341 3281 1617 3432 
Q 1894 3584 2278 3584 
Q 2916 3584 3314 3078 
Q 3713 2572 3713 1747 
Q 3713 922 3314 415 
Q 2916 -91 2278 -91 
Q 1894 -91 1617 61 
Q 1341 213 1159 525 
L 1159 0 
L 581 0 
L 581 4863 
L 1159 4863 
L 1159 2969 
z
" transform="scale(0.015625)"/>
     </defs>
     <use xlink:href="#DejaVuSans-43"/>
     <use xlink:href="#DejaVuSans-75" x="69.824219"/>
     <use xlink:href="#DejaVuSans-72" x="133.203125"/>
     <use xlink:href="#DejaVuSans-76" x="174.316406"/>
     <use xlink:href="#DejaVuSans-61" x="233.496094"/>
     <use xlink:href="#DejaVuSans-74" x="294.775391"/>
     <use xlink:href="#DejaVuSans-75" x="333.984375"/>
     <use xlink:href="#DejaVuSans-72" x="397.363281"/>
     <use xlink:href="#DejaVuSans-65" x="436.226562"/>
     <use xlink:href="#DejaVuSans-20" x="497.75"/>
     <use xlink:href="#DejaVuSans-76" x="529.537109"/>
     <use xlink:href="#DejaVuSans-73" x="588.716797"/>
     <use xlink:href="#DejaVuSans-20" x="640.816406"/>
     <use xlink:href="#DejaVuSans-44" x="672.603516"/>
     <use xlink:href="#DejaVuSans-69" x="749.605469"/>
     <use xlink:href="#DejaVuSans-73" x="777.388672"/>
     <use xlink:href="#DejaVuSans-74" x="829.488281"/>
     <use xlink:href="#DejaVuSans-61" x="868.697266"/>
     <use xlink:href="#DejaVuSans-6e" x="929.976562"/>
     <use xlink:href="#DejaVuSans-63" x="993.355469"/>
     <use xlink:href="#DejaVuSans-65" x="1048.335938"/>
     <use xlink:href="#DejaVuSans-20" x="1109.859375"/>
     <use xlink:href="#DejaVuSans-67" x="1141.646484"/>
     <use xlink:href="#DejaVuSans-62" x="1205.123047"/>
     <use xlink:href="#DejaVuSans-72" x="1268.599609"/>
    </g>
   </g>
   <g id="legend_1">
    <g id="patch_7">
     <path d="M 258.462188 108.1845 
L 407.72 108.1845 
Q 409.72 108.1845 409.72 106.1845 
L 409.72 48.472 
Q 409.72 46.472 407.72 46.472 
L 258.462188 46.472 
Q 256.462188 46.472 256.462188 48.472 
L 256.462188 106.1845 
Q 256.462188 108.1845 258.462188 108.1845 
z
" style="fill: #ffffff; opacity: 0.8; stroke: #cccccc; stroke-linejoin: miter"/>
    </g>
    <g id="line2d_16">
     <path d="M 260.462188 54.570438 
L 270.462188 54.570438 
L 280.462188 54.570438 
" style="fill: none; stroke: #1f77b4; stroke-width: 1.5; stroke-linecap: square"/>
    </g>
    <g id="text_13">
     <!-- Centreline -->
     <g transform="translate(288.462188 58.070438)scale(0.1 -0.1)">
      <defs>
       <path id="DejaVuSans-6c" d="M 603 4863 
L 1178 4863 
L 1178 0 
L 603 0 
L 603 4863 
z
" transform="scale(0.015625)"/>
      </defs>
      <use xlink:href="#DejaVuSans-43"/>
      <use xlink:href="#DejaVuSans-65" x="69.824219"/>
      <use xlink:href="#DejaVuSans-6e" x="131.347656"/>
      <use xlink:href="#DejaVuSans-74" x="194.726562"/>
      <use xlink:href="#DejaVuSans-72" x="233.935547"/>
      <use xlink:href="#DejaVuSans-65" x="272.798828"/>
      <use xlink:href="#DejaVuSans-6c" x="334.322266"/>
      <use xlink:href="#DejaVuSans-69" x="362.105469"/>
      <use xlink:href="#DejaVuSans-6e" x="389.888672"/>
      <use xlink:href="#DejaVuSans-65" x="453.267578"/>
     </g>
    </g>
    <g id="line2d_17">
     <path d="M 260.462188 69.248563 
L 270.462188 69.248563 
L 280.462188 69.248563 
" style="fill: none; stroke: #ff7f0e; stroke-width: 1.5; stroke-linecap: square"/>
    </g>
    <g id="text_14">
     <!-- Shortest Path -->
     <g transform="translate(288.462188 72.748563)scale(0.1 -0.1)">
      <defs>
       <path id="DejaVuSans-53" d="M 3425 4513 
L 3425 3897 
Q 3066 4069 2747 4153 
Q 2428 4238 2131 4238 
Q 1616 4238 1336 4038 
Q 1056 3838 1056 3469 
Q 1056 3159 1242 3001 
Q 1428 2844 1947 2747 
L 2328 2669 
Q 3034 2534 3370 2195 
Q 3706 1856 3706 1288 
Q 3706 609 3251 259 
Q 2797 -91 1919 -91 
Q 1588 -91 1214 -16 
Q 841 59 441 206 
L 441 856 
Q 825 641 1194 531 
Q 1563 422 1919 422 
Q 2459 422 2753 634 
Q 3047 847 3047 1241 
Q 3047 1584 2836 1778 
Q 2625 1972 2144 2069 
L 1759 2144 
Q 1053 2284 737 2584 
Q 422 2884 422 3419 
Q 422 4038 858 4394 
Q 1294 4750 2059 4750 
Q 2388 4750 2728 4690 
Q 3069 4631 3425 4513 
z
" transform="scale(0.015625)"/>
       <path id="DejaVuSans-68" d="M 3513 2113 
L 3513 0 
L 2938 0 
L 2938 2094 
Q 2938 2591 2744 2837 
Q 2550 3084 2163 3084 
Q 1697 3084 1428 2787 
Q 1159 2491 1159 1978 
L 1159 0 
L 581 0 
L 581 4863 
L 1159 4863 
L 1159 2956 
Q 1366 3272 1645 3428 
Q 1925 3584 2291 3584 
Q 2894 3584 3203 3211 
Q 3513 2838 3513 2113 
z
" transform="scale(0.015625)"/>
       <path id="DejaVuSans-6f" d="M 1959 3097 
Q 1497 3097 1228 2736 
Q 959 2375 959 1747 
Q 959 1119 1226 758 
Q 1494 397 1959 397 
Q 2419 397 2687 759 
Q 2956 1122 2956 1747 
Q 2956 2369 2687 2733 
Q 2419 3097 1959 3097 
z
M 1959 3584 
Q 2709 3584 3137 3096 
Q 3566 2609 3566 1747 
Q 3566 888 3137 398 
Q 2709 -91 1959 -91 
Q 1206 -91 779 398 
Q 353 888 353 1747 
Q 353 2609 779 3096 
Q 1206 3584 1959 3584 
z
" transform="scale(0.015625)"/>
       <path id="DejaVuSans-50" d="M 1259 4147 
L 1259 2394 
L 2053 2394 
Q 2494 2394 2734 2622 
Q 2975 2850 2975 3272 
Q 2975 3691 2734 3919 
Q 2494 4147 2053 4147 
L 1259 4147 
z
M 628 4666 
L 2053 4666 
Q 2838 4666 3239 4311 
Q 3641 3956 3641 3272 
Q 3641 2581 3239 2228 
Q 2838 1875 2053 1875 
L 1259 1875 
L 1259 0 
L 628 0 
L 628 4666 
z
" transform="scale(0.015625)"/>
      </defs>
      <use xlink:href="#DejaVuSans-53"/>
      <use xlink:href="#DejaVuSans-68" x="63.476562"/>
      <use xlink:href="#DejaVuSans-6f" x="126.855469"/>
      <use xlink:href="#DejaVuSans-72" x="188.037109"/>
      <use xlink:href="#DejaVuSans-74" x="229.150391"/>
      <use xlink:href="#DejaVuSans-65" x="268.359375"/>
      <use xlink:href="#DejaVuSans-73" x="329.882812"/>
      <use xlink:href="#DejaVuSans-74" x="381.982422"/>
      <use xlink:href="#DejaVuSans-20" x="421.191406"/>
      <use xlink:href="#DejaVuSans-50" x="452.978516"/>
      <use xlink:href="#DejaVuSans-61" x="508.78125"/>
      <use xlink:href="#DejaVuSans-74" x="570.060547"/>
      <use xlink:href="#DejaVuSans-68" x="609.269531"/>
     </g>
    </g>
    <g id="line2d_18">
     <path d="M 260.462188 83.926688 
L 270.462188 83.926688 
L 280.462188 83.926688 
" style="fill: none; stroke: #2ca02c; stroke-width: 1.5; stroke-linecap: square"/>
    </g>
    <g id="text_15">
     <!-- Minimum Curvature (C) -->
     <g transform="translate(288.462188 87.426688)scale(0.1 -0.1)">
      <defs>
       <path id="DejaVuSans-4d" d="M 628 4666 
L 1569 4666 
L 2759 1491 
L 3956 4666 
L 4897 4666 
L 4897 0 
L 4281 0 
L 4281 4097 
L 3078 897 
L 2444 897 
L 1241 4097 
L 1241 0 
L 628 0 
L 628 4666 
z
" transform="scale(0.015625)"/>
       <path id="DejaVuSans-6d" d="M 3328 2828 
Q 3544 3216 3844 3400 
Q 4144 3584 4550 3584 
Q 5097 3584 5394 3201 
Q 5691 2819 5691 2113 
L 5691 0 
L 5113 0 
L 5113 2094 
Q 5113 2597 4934 2840 
Q 4756 3084 4391 3084 
Q 3944 3084 3684 2787 
Q 3425 2491 3425 1978 
L 3425 0 
L 2847 0 
L 2847 2094 
Q 2847 2600 2669 2842 
Q 2491 3084 2119 3084 
Q 1678 3084 1418 2786 
Q 1159 2488 1159 1978 
L 1159 0 
L 581 0 
L 581 3500 
L 1159 3500 
L 1159 2956 
Q 1356 3278 1631 3431 
Q 1906 3584 2284 3584 
Q 2666 3584 2933 3390 
Q 3200 3197 3328 2828 
z
" transform="scale(0.015625)"/>
       <path id="DejaVuSans-28" d="M 1984 4856 
Q 1566 4138 1362 3434 
Q 1159 2731 1159 2009 
Q 1159 1288 1364 580 
Q 1569 -128 1984 -844 
L 1484 -844 
Q 1016 -109 783 600 
Q 550 1309 550 2009 
Q 550 2706 781 3412 
Q 1013 4119 1484 4856 
L 1984 4856 
z
" transform="scale(0.015625)"/>
       <path id="DejaVuSans-29" d="M 513 4856 
L 1013 4856 
Q 1481 4119 1714 3412 
Q 1947 2706 1947 2009 
Q 1947 1309 1714 600 
Q 1481 -109 1013 -844 
L 513 -844 
Q 928 -128 1133 580 
Q 1338 1288 1338 2009 
Q 1338 2731 1133 3434 
Q 928 4138 513 4856 
z
" transform="scale(0.015625)"/>
      </defs>
      <use xlink:href="#DejaVuSans-4d"/>
      <use xlink:href="#DejaVuSans-69" x="86.279297"/>
      <use xlink:href="#DejaVuSans-6e" x="114.0625"/>
      <use xlink:href="#DejaVuSans-69" x="177.441406"/>
      <use xlink:href="#DejaVuSans-6d" x="205.224609"/>
      <use xlink:href="#DejaVuSans-75" x="302.636719"/>
      <use xlink:href="#DejaVuSans-6d" x="366.015625"/>
      <use xlink:href="#DejaVuSans-20" x="463.427734"/>
      <use xlink:href="#DejaVuSans-43" x="495.214844"/>
      <use xlink:href="#DejaVuSans-75" x="565.039062"/>
      <use xlink:href="#DejaVuSans-72" x="628.417969"/>
      <use xlink:href="#DejaVuSans-76" x="669.53125"/>
      <use xlink:href="#DejaVuSans-61" x="728.710938"/>
      <use xlink:href="#DejaVuSans-74" x="789.990234"/>
      <use xlink:href="#DejaVuSans-75" x="829.199219"/>
      <use xlink:href="#DejaVuSans-72" x="892.578125"/>
      <use xlink:href="#DejaVuSans-65" x="931.441406"/>
      <use xlink:href="#DejaVuSans-20" x="992.964844"/>
      <use xlink:href="#DejaVuSans-28" x="1024.751953"/>
      <use xlink:href="#DejaVuSans-43" x="1063.765625"/>
      <use xlink:href="#DejaVuSans-29" x="1133.589844"/>
     </g>
    </g>
    <g id="line2d_19">
     <path d="M 260.462188 98.604813 
L 270.462188 98.604813 
L 280.462188 98.604813 
" style="fill: none; stroke: #d62728; stroke-width: 1.5; stroke-linecap: square"/>
    </g>
    <g id="text_16">
     <!-- Minimum Curvature (S) -->
     <g transform="translate(288.462188 102.104813)scale(0.1 -0.1)">
      <use xlink:href="#DejaVuSans-4d"/>
      <use xlink:href="#DejaVuSans-69" x="86.279297"/>
      <use xlink:href="#DejaVuSans-6e" x="114.0625"/>
      <use xlink:href="#DejaVuSans-69" x="177.441406"/>
      <use xlink:href="#DejaVuSans-6d" x="205.224609"/>
      <use xlink:href="#DejaVuSans-75" x="302.636719"/>
      <use xlink:href="#DejaVuSans-6d" x="366.015625"/>
      <use xlink:href="#DejaVuSans-20" x="463.427734"/>
      <use xlink:href="#DejaVuSans-43" x="495.214844"/>
      <use xlink:href="#DejaVuSans-75" x="565.039062"/>
      <use xlink:href="#DejaVuSans-72" x="628.417969"/>
      <use xlink:href="#DejaVuSans-76" x="669.53125"/>
      <use xlink:href="#DejaVuSans-61" x="728.710938"/>
      <use xlink:href="#DejaVuSans-74" x="789.990234"/>
      <use xlink:href="#DejaVuSans-75" x="829.199219"/>
      <use xlink:href="#DejaVuSans-72" x="892.578125"/>
      <use xlink:href="#DejaVuSans-65" x="931.441406"/>
      <use xlink:href="#DejaVuSans-20" x="992.964844"/>
      <use xlink:href="#DejaVuSans-28" x="1024.751953"/>
      <use xlink:href="#DejaVuSans-53" x="1063.765625"/>
      <use xlink:href="#DejaVuSans-29" x="1127.242188"/>
     </g>
    </g>
   </g>
  </g>
 </g>
 <defs>
  <clipPath id="p6dc4606573">
   <rect x="57.6" y="41.472" width="357.12" height="266.112"/>
  </clipPath>
 </defs>
</svg>
