<?xml version="1.0" encoding="utf-8" standalone="no"?>
<!DOCTYPE svg PUBLIC "-//W3C//DTD SVG 1.1//EN"
  "http://www.w3.org/Graphics/SVG/1.1/DTD/svg11.dtd">
<!-- Created with matplotlib (https://matplotlib.org/) -->
<svg height="345.6pt" version="1.1" viewBox="0 0 460.8 345.6" width="460.8pt" xmlns="http://www.w3.org/2000/svg" xmlns:xlink="http://www.w3.org/1999/xlink">
 <metadata>
  <rdf:RDF xmlns:cc="http://creativecommons.org/ns#" xmlns:dc="http://purl.org/dc/elements/1.1/" xmlns:rdf="http://www.w3.org/1999/02/22-rdf-syntax-ns#">
   <cc:Work>
    <dc:type rdf:resource="http://purl.org/dc/dcmitype/StillImage"/>
    <dc:date>2024-09-30T13:42:24.752356</dc:date>
    <dc:format>image/svg+xml</dc:format>
    <dc:creator>
     <cc:Agent>
      <dc:title>Matplotlib v3.3.1, https://matplotlib.org/</dc:title>
     </cc:Agent>
    </dc:creator>
   </cc:Work>
  </rdf:RDF>
 </metadata>
 <defs>
  <style type="text/css">*{stroke-linecap:butt;stroke-linejoin:round;}</style>
 </defs>
 <g id="figure_1">
  <g id="patch_1">
   <path d="M 0 345.6 
L 460.8 345.6 
L 460.8 0 
L 0 0 
z
" style="fill:#ffffff;"/>
  </g>
  <g id="axes_1">
   <g id="patch_2">
    <path d="M 57.6 307.584 
L 414.72 307.584 
L 414.72 41.472 
L 57.6 41.472 
z
" style="fill:#ffffff;"/>
   </g>
   <g id="matplotlib.axis_1">
    <g id="xtick_1">
     <g id="line2d_1">
      <defs>
       <path d="M 0 0 
L 0 3.5 
" id="m03265e4576" style="stroke:#000000;stroke-width:0.8;"/>
      </defs>
      <g>
       <use style="stroke:#000000;stroke-width:0.8;" x="73.832727" xlink:href="#m03265e4576" y="307.584"/>
      </g>
     </g>
     <g id="text_1">
      <!-- 0.0 -->
      <g transform="translate(65.881165 322.182437)scale(0.1 -0.1)">
       <defs>
        <path d="M 31.78125 66.40625 
Q 24.171875 66.40625 20.328125 58.90625 
Q 16.5 51.421875 16.5 36.375 
Q 16.5 21.390625 20.328125 13.890625 
Q 24.171875 6.390625 31.78125 6.390625 
Q 39.453125 6.390625 43.28125 13.890625 
Q 47.125 21.390625 47.125 36.375 
Q 47.125 51.421875 43.28125 58.90625 
Q 39.453125 66.40625 31.78125 66.40625 
z
M 31.78125 74.21875 
Q 44.046875 74.21875 50.515625 64.515625 
Q 56.984375 54.828125 56.984375 36.375 
Q 56.984375 17.96875 50.515625 8.265625 
Q 44.046875 -1.421875 31.78125 -1.421875 
Q 19.53125 -1.421875 13.0625 8.265625 
Q 6.59375 17.96875 6.59375 36.375 
Q 6.59375 54.828125 13.0625 64.515625 
Q 19.53125 74.21875 31.78125 74.21875 
z
" id="DejaVuSans-48"/>
        <path d="M 10.6875 12.40625 
L 21 12.40625 
L 21 0 
L 10.6875 0 
z
" id="DejaVuSans-46"/>
       </defs>
       <use xlink:href="#DejaVuSans-48"/>
       <use x="63.623047" xlink:href="#DejaVuSans-46"/>
       <use x="95.410156" xlink:href="#DejaVuSans-48"/>
      </g>
     </g>
    </g>
    <g id="xtick_2">
     <g id="line2d_2">
      <g>
       <use style="stroke:#000000;stroke-width:0.8;" x="138.763636" xlink:href="#m03265e4576" y="307.584"/>
      </g>
     </g>
     <g id="text_2">
      <!-- 0.2 -->
      <g transform="translate(130.812074 322.182437)scale(0.1 -0.1)">
       <defs>
        <path d="M 19.1875 8.296875 
L 53.609375 8.296875 
L 53.609375 0 
L 7.328125 0 
L 7.328125 8.296875 
Q 12.9375 14.109375 22.625 23.890625 
Q 32.328125 33.6875 34.8125 36.53125 
Q 39.546875 41.84375 41.421875 45.53125 
Q 43.3125 49.21875 43.3125 52.78125 
Q 43.3125 58.59375 39.234375 62.25 
Q 35.15625 65.921875 28.609375 65.921875 
Q 23.96875 65.921875 18.8125 64.3125 
Q 13.671875 62.703125 7.8125 59.421875 
L 7.8125 69.390625 
Q 13.765625 71.78125 18.9375 73 
Q 24.125 74.21875 28.421875 74.21875 
Q 39.75 74.21875 46.484375 68.546875 
Q 53.21875 62.890625 53.21875 53.421875 
Q 53.21875 48.921875 51.53125 44.890625 
Q 49.859375 40.875 45.40625 35.40625 
Q 44.1875 33.984375 37.640625 27.21875 
Q 31.109375 20.453125 19.1875 8.296875 
z
" id="DejaVuSans-50"/>
       </defs>
       <use xlink:href="#DejaVuSans-48"/>
       <use x="63.623047" xlink:href="#DejaVuSans-46"/>
       <use x="95.410156" xlink:href="#DejaVuSans-50"/>
      </g>
     </g>
    </g>
    <g id="xtick_3">
     <g id="line2d_3">
      <g>
       <use style="stroke:#000000;stroke-width:0.8;" x="203.694545" xlink:href="#m03265e4576" y="307.584"/>
      </g>
     </g>
     <g id="text_3">
      <!-- 0.4 -->
      <g transform="translate(195.742983 322.182437)scale(0.1 -0.1)">
       <defs>
        <path d="M 37.796875 64.3125 
L 12.890625 25.390625 
L 37.796875 25.390625 
z
M 35.203125 72.90625 
L 47.609375 72.90625 
L 47.609375 25.390625 
L 58.015625 25.390625 
L 58.015625 17.1875 
L 47.609375 17.1875 
L 47.609375 0 
L 37.796875 0 
L 37.796875 17.1875 
L 4.890625 17.1875 
L 4.890625 26.703125 
z
" id="DejaVuSans-52"/>
       </defs>
       <use xlink:href="#DejaVuSans-48"/>
       <use x="63.623047" xlink:href="#DejaVuSans-46"/>
       <use x="95.410156" xlink:href="#DejaVuSans-52"/>
      </g>
     </g>
    </g>
    <g id="xtick_4">
     <g id="line2d_4">
      <g>
       <use style="stroke:#000000;stroke-width:0.8;" x="268.625455" xlink:href="#m03265e4576" y="307.584"/>
      </g>
     </g>
     <g id="text_4">
      <!-- 0.6 -->
      <g transform="translate(260.673892 322.182437)scale(0.1 -0.1)">
       <defs>
        <path d="M 33.015625 40.375 
Q 26.375 40.375 22.484375 35.828125 
Q 18.609375 31.296875 18.609375 23.390625 
Q 18.609375 15.53125 22.484375 10.953125 
Q 26.375 6.390625 33.015625 6.390625 
Q 39.65625 6.390625 43.53125 10.953125 
Q 47.40625 15.53125 47.40625 23.390625 
Q 47.40625 31.296875 43.53125 35.828125 
Q 39.65625 40.375 33.015625 40.375 
z
M 52.59375 71.296875 
L 52.59375 62.3125 
Q 48.875 64.0625 45.09375 64.984375 
Q 41.3125 65.921875 37.59375 65.921875 
Q 27.828125 65.921875 22.671875 59.328125 
Q 17.53125 52.734375 16.796875 39.40625 
Q 19.671875 43.65625 24.015625 45.921875 
Q 28.375 48.1875 33.59375 48.1875 
Q 44.578125 48.1875 50.953125 41.515625 
Q 57.328125 34.859375 57.328125 23.390625 
Q 57.328125 12.15625 50.6875 5.359375 
Q 44.046875 -1.421875 33.015625 -1.421875 
Q 20.359375 -1.421875 13.671875 8.265625 
Q 6.984375 17.96875 6.984375 36.375 
Q 6.984375 53.65625 15.1875 63.9375 
Q 23.390625 74.21875 37.203125 74.21875 
Q 40.921875 74.21875 44.703125 73.484375 
Q 48.484375 72.75 52.59375 71.296875 
z
" id="DejaVuSans-54"/>
       </defs>
       <use xlink:href="#DejaVuSans-48"/>
       <use x="63.623047" xlink:href="#DejaVuSans-46"/>
       <use x="95.410156" xlink:href="#DejaVuSans-54"/>
      </g>
     </g>
    </g>
    <g id="xtick_5">
     <g id="line2d_5">
      <g>
       <use style="stroke:#000000;stroke-width:0.8;" x="333.556364" xlink:href="#m03265e4576" y="307.584"/>
      </g>
     </g>
     <g id="text_5">
      <!-- 0.8 -->
      <g transform="translate(325.604801 322.182437)scale(0.1 -0.1)">
       <defs>
        <path d="M 31.78125 34.625 
Q 24.75 34.625 20.71875 30.859375 
Q 16.703125 27.09375 16.703125 20.515625 
Q 16.703125 13.921875 20.71875 10.15625 
Q 24.75 6.390625 31.78125 6.390625 
Q 38.8125 6.390625 42.859375 10.171875 
Q 46.921875 13.96875 46.921875 20.515625 
Q 46.921875 27.09375 42.890625 30.859375 
Q 38.875 34.625 31.78125 34.625 
z
M 21.921875 38.8125 
Q 15.578125 40.375 12.03125 44.71875 
Q 8.5 49.078125 8.5 55.328125 
Q 8.5 64.0625 14.71875 69.140625 
Q 20.953125 74.21875 31.78125 74.21875 
Q 42.671875 74.21875 48.875 69.140625 
Q 55.078125 64.0625 55.078125 55.328125 
Q 55.078125 49.078125 51.53125 44.71875 
Q 48 40.375 41.703125 38.8125 
Q 48.828125 37.15625 52.796875 32.3125 
Q 56.78125 27.484375 56.78125 20.515625 
Q 56.78125 9.90625 50.3125 4.234375 
Q 43.84375 -1.421875 31.78125 -1.421875 
Q 19.734375 -1.421875 13.25 4.234375 
Q 6.78125 9.90625 6.78125 20.515625 
Q 6.78125 27.484375 10.78125 32.3125 
Q 14.796875 37.15625 21.921875 38.8125 
z
M 18.3125 54.390625 
Q 18.3125 48.734375 21.84375 45.5625 
Q 25.390625 42.390625 31.78125 42.390625 
Q 38.140625 42.390625 41.71875 45.5625 
Q 45.3125 48.734375 45.3125 54.390625 
Q 45.3125 60.0625 41.71875 63.234375 
Q 38.140625 66.40625 31.78125 66.40625 
Q 25.390625 66.40625 21.84375 63.234375 
Q 18.3125 60.0625 18.3125 54.390625 
z
" id="DejaVuSans-56"/>
       </defs>
       <use xlink:href="#DejaVuSans-48"/>
       <use x="63.623047" xlink:href="#DejaVuSans-46"/>
       <use x="95.410156" xlink:href="#DejaVuSans-56"/>
      </g>
     </g>
    </g>
    <g id="xtick_6">
     <g id="line2d_6">
      <g>
       <use style="stroke:#000000;stroke-width:0.8;" x="398.487273" xlink:href="#m03265e4576" y="307.584"/>
      </g>
     </g>
     <g id="text_6">
      <!-- 1.0 -->
      <g transform="translate(390.53571 322.182437)scale(0.1 -0.1)">
       <defs>
        <path d="M 12.40625 8.296875 
L 28.515625 8.296875 
L 28.515625 63.921875 
L 10.984375 60.40625 
L 10.984375 69.390625 
L 28.421875 72.90625 
L 38.28125 72.90625 
L 38.28125 8.296875 
L 54.390625 8.296875 
L 54.390625 0 
L 12.40625 0 
z
" id="DejaVuSans-49"/>
       </defs>
       <use xlink:href="#DejaVuSans-49"/>
       <use x="63.623047" xlink:href="#DejaVuSans-46"/>
       <use x="95.410156" xlink:href="#DejaVuSans-48"/>
      </g>
     </g>
    </g>
   </g>
   <g id="matplotlib.axis_2">
    <g id="ytick_1">
     <g id="line2d_7">
      <defs>
       <path d="M 0 0 
L -3.5 0 
" id="m6d9911c1d2" style="stroke:#000000;stroke-width:0.8;"/>
      </defs>
      <g>
       <use style="stroke:#000000;stroke-width:0.8;" x="57.6" xlink:href="#m6d9911c1d2" y="290.03735"/>
      </g>
     </g>
     <g id="text_7">
      <!-- −3 -->
      <g transform="translate(35.857813 293.836569)scale(0.1 -0.1)">
       <defs>
        <path d="M 10.59375 35.5 
L 73.1875 35.5 
L 73.1875 27.203125 
L 10.59375 27.203125 
z
" id="DejaVuSans-8722"/>
        <path d="M 40.578125 39.3125 
Q 47.65625 37.796875 51.625 33 
Q 55.609375 28.21875 55.609375 21.1875 
Q 55.609375 10.40625 48.1875 4.484375 
Q 40.765625 -1.421875 27.09375 -1.421875 
Q 22.515625 -1.421875 17.65625 -0.515625 
Q 12.796875 0.390625 7.625 2.203125 
L 7.625 11.71875 
Q 11.71875 9.328125 16.59375 8.109375 
Q 21.484375 6.890625 26.8125 6.890625 
Q 36.078125 6.890625 40.9375 10.546875 
Q 45.796875 14.203125 45.796875 21.1875 
Q 45.796875 27.640625 41.28125 31.265625 
Q 36.765625 34.90625 28.71875 34.90625 
L 20.21875 34.90625 
L 20.21875 43.015625 
L 29.109375 43.015625 
Q 36.375 43.015625 40.234375 45.921875 
Q 44.09375 48.828125 44.09375 54.296875 
Q 44.09375 59.90625 40.109375 62.90625 
Q 36.140625 65.921875 28.71875 65.921875 
Q 24.65625 65.921875 20.015625 65.03125 
Q 15.375 64.15625 9.8125 62.3125 
L 9.8125 71.09375 
Q 15.4375 72.65625 20.34375 73.4375 
Q 25.25 74.21875 29.59375 74.21875 
Q 40.828125 74.21875 47.359375 69.109375 
Q 53.90625 64.015625 53.90625 55.328125 
Q 53.90625 49.265625 50.4375 45.09375 
Q 46.96875 40.921875 40.578125 39.3125 
z
" id="DejaVuSans-51"/>
       </defs>
       <use xlink:href="#DejaVuSans-8722"/>
       <use x="83.789062" xlink:href="#DejaVuSans-51"/>
      </g>
     </g>
    </g>
    <g id="ytick_2">
     <g id="line2d_8">
      <g>
       <use style="stroke:#000000;stroke-width:0.8;" x="57.6" xlink:href="#m6d9911c1d2" y="251.533888"/>
      </g>
     </g>
     <g id="text_8">
      <!-- −2 -->
      <g transform="translate(35.857813 255.333106)scale(0.1 -0.1)">
       <use xlink:href="#DejaVuSans-8722"/>
       <use x="83.789062" xlink:href="#DejaVuSans-50"/>
      </g>
     </g>
    </g>
    <g id="ytick_3">
     <g id="line2d_9">
      <g>
       <use style="stroke:#000000;stroke-width:0.8;" x="57.6" xlink:href="#m6d9911c1d2" y="213.030425"/>
      </g>
     </g>
     <g id="text_9">
      <!-- −1 -->
      <g transform="translate(35.857813 216.829644)scale(0.1 -0.1)">
       <use xlink:href="#DejaVuSans-8722"/>
       <use x="83.789062" xlink:href="#DejaVuSans-49"/>
      </g>
     </g>
    </g>
    <g id="ytick_4">
     <g id="line2d_10">
      <g>
       <use style="stroke:#000000;stroke-width:0.8;" x="57.6" xlink:href="#m6d9911c1d2" y="174.526962"/>
      </g>
     </g>
     <g id="text_10">
      <!-- 0 -->
      <g transform="translate(44.2375 178.326181)scale(0.1 -0.1)">
       <use xlink:href="#DejaVuSans-48"/>
      </g>
     </g>
    </g>
    <g id="ytick_5">
     <g id="line2d_11">
      <g>
       <use style="stroke:#000000;stroke-width:0.8;" x="57.6" xlink:href="#m6d9911c1d2" y="136.0235"/>
      </g>
     </g>
     <g id="text_11">
      <!-- 1 -->
      <g transform="translate(44.2375 139.822718)scale(0.1 -0.1)">
       <use xlink:href="#DejaVuSans-49"/>
      </g>
     </g>
    </g>
    <g id="ytick_6">
     <g id="line2d_12">
      <g>
       <use style="stroke:#000000;stroke-width:0.8;" x="57.6" xlink:href="#m6d9911c1d2" y="97.520037"/>
      </g>
     </g>
     <g id="text_12">
      <!-- 2 -->
      <g transform="translate(44.2375 101.319256)scale(0.1 -0.1)">
       <use xlink:href="#DejaVuSans-50"/>
      </g>
     </g>
    </g>
    <g id="ytick_7">
     <g id="line2d_13">
      <g>
       <use style="stroke:#000000;stroke-width:0.8;" x="57.6" xlink:href="#m6d9911c1d2" y="59.016574"/>
      </g>
     </g>
     <g id="text_13">
      <!-- 3 -->
      <g transform="translate(44.2375 62.815793)scale(0.1 -0.1)">
       <use xlink:href="#DejaVuSans-51"/>
      </g>
     </g>
    </g>
   </g>
   <g id="line2d_14">
    <path clip-path="url(#p63dbae337d)" d="M 73.832727 174.598693 
L 91.698277 174.597396 
L 91.860692 174.340312 
L 92.347933 176.662586 
L 92.67276 179.358518 
L 92.835175 179.103318 
L 92.997589 179.2312 
L 93.160003 179.679561 
L 93.484832 178.282618 
L 93.809659 179.475679 
L 93.972073 179.713322 
L 94.134479 179.156116 
L 94.2969 179.272461 
L 94.621729 183.593688 
L 94.784138 183.733335 
L 94.946558 184.507548 
L 95.271378 188.048749 
L 95.433793 188.384541 
L 95.59621 189.815957 
L 95.758622 190.042851 
L 95.921033 191.012958 
L 96.245864 194.724551 
L 96.408281 195.20544 
L 96.570689 196.206033 
L 96.733101 196.241421 
L 96.89552 196.046274 
L 97.057937 196.916441 
L 97.220344 196.40564 
L 97.382759 196.290089 
L 97.54517 195.982286 
L 97.707594 195.076167 
L 97.87 195.790229 
L 98.032415 195.920555 
L 98.519659 195.347087 
L 98.682072 195.106486 
L 99.006899 193.898105 
L 99.169309 194.665608 
L 99.494141 197.540794 
L 99.656555 196.583927 
L 100.143799 187.988931 
L 100.468628 187.40528 
L 101.118275 179.404894 
L 101.280683 180.228689 
L 101.443109 182.338409 
L 101.605506 181.977079 
L 102.092756 174.129302 
L 102.255164 174.488087 
L 102.417579 174.467143 
L 102.579995 174.658144 
L 102.904825 172.06143 
L 103.392053 166.830951 
L 103.554478 167.051448 
L 103.879305 165.069412 
L 104.041714 164.926396 
L 104.204148 163.296608 
L 104.853778 150.157387 
L 105.016196 148.84943 
L 105.178608 148.650955 
L 105.665855 144.646341 
L 105.828262 145.068449 
L 105.990696 144.769964 
L 106.477914 137.543696 
L 107.127577 133.151369 
L 107.452401 130.498585 
L 107.614807 131.064068 
L 107.777219 130.696442 
L 107.939641 129.891571 
L 108.102046 130.487702 
L 108.426877 130.470134 
L 108.589294 131.221349 
L 108.914124 130.045944 
L 109.076531 131.410924 
L 110.05101 145.260908 
L 110.213427 144.998029 
L 110.538255 145.065191 
L 110.863083 145.056181 
L 111.025497 145.244994 
L 111.350317 148.972209 
L 111.675147 151.024462 
L 111.837563 151.020926 
L 111.999966 151.296106 
L 112.162409 152.691252 
L 112.487209 156.855782 
L 112.649613 156.881221 
L 113.136872 158.235529 
L 113.461688 160.615262 
L 113.624106 159.592009 
L 114.273761 163.59426 
L 114.598591 169.655474 
L 114.760953 168.926565 
L 114.923407 167.320279 
L 115.085807 167.597589 
L 115.410635 165.92174 
L 115.573049 166.421393 
L 116.060288 169.962084 
L 116.222703 169.948222 
L 116.385102 170.504063 
L 116.547512 170.178678 
L 116.709941 168.826675 
L 116.872358 168.625204 
L 117.034739 169.820057 
L 117.197142 169.590896 
L 117.521982 167.40097 
L 117.684402 167.614951 
L 117.846821 168.935461 
L 118.009227 169.205048 
L 118.17166 168.788672 
L 118.821297 162.127575 
L 118.983709 162.646865 
L 119.308527 161.284419 
L 119.470931 160.94418 
L 119.795758 159.219905 
L 120.44538 151.958683 
L 120.770237 145.784639 
L 120.932656 144.64362 
L 121.095068 144.533765 
L 121.257483 144.642273 
L 121.744725 144.574455 
L 121.907135 144.833923 
L 122.069541 143.528129 
L 122.394374 138.257365 
L 122.719191 138.06518 
L 123.368838 138.076921 
L 123.693665 137.818838 
L 123.85608 137.431934 
L 124.018503 137.410856 
L 124.343317 139.858309 
L 124.668149 140.188681 
L 124.830537 139.111697 
L 124.992947 139.013166 
L 125.155383 139.887438 
L 125.480214 143.226594 
L 125.642593 142.402516 
L 125.805013 142.299973 
L 126.129821 146.378605 
L 126.292278 148.341446 
L 126.617095 146.810284 
L 126.779484 148.239555 
L 126.941925 148.222194 
L 127.266737 145.297777 
L 127.591579 147.184421 
L 127.916396 151.462382 
L 128.078794 152.047645 
L 128.403621 152.354793 
L 128.566039 152.546423 
L 128.89087 153.442286 
L 129.053274 152.613062 
L 129.540504 153.253064 
L 129.702914 153.236519 
L 129.865333 152.994233 
L 130.027727 152.43341 
L 130.190138 152.571099 
L 130.352565 153.25253 
L 130.514992 153.315596 
L 130.839794 155.631287 
L 131.164635 156.409793 
L 131.327014 155.19418 
L 131.489431 154.891321 
L 131.65184 154.352179 
L 131.814271 153.039171 
L 131.97667 153.227488 
L 132.301493 152.188346 
L 132.626321 153.519654 
L 132.788735 153.617743 
L 132.951152 153.351184 
L 133.113557 152.765793 
L 133.275988 152.67165 
L 133.438372 153.884263 
L 133.600786 154.117802 
L 133.763192 154.693678 
L 133.925627 156.043715 
L 134.250438 155.72979 
L 134.575251 156.075388 
L 134.737681 155.021592 
L 134.900069 152.239563 
L 135.062488 151.444504 
L 135.549726 152.553645 
L 135.71215 153.259517 
L 135.874546 155.005146 
L 136.036957 155.302717 
L 136.361797 156.760817 
L 137.011432 153.3409 
L 137.173845 153.376453 
L 137.336239 152.525205 
L 137.498637 152.677123 
L 137.661063 153.109137 
L 137.823471 153.122101 
L 137.985886 152.655579 
L 138.148308 151.594405 
L 138.310701 151.933926 
L 138.797935 151.939929 
L 139.285176 151.854666 
L 139.44759 151.879595 
L 139.610005 151.703884 
L 139.77242 151.693053 
L 140.097247 151.107634 
L 140.259666 151.299756 
L 140.422066 151.99201 
L 140.909292 151.841338 
L 141.071695 151.963366 
L 141.234106 151.217459 
L 141.396536 149.478762 
L 142.208574 150.137296 
L 142.533417 148.795114 
L 142.695804 149.595296 
L 142.858215 149.494821 
L 143.020638 149.16131 
L 143.183062 149.40781 
L 143.345437 148.288499 
L 143.507878 148.001875 
L 143.670288 149.026552 
L 143.995105 148.21221 
L 144.15749 147.687538 
L 144.319896 147.754496 
L 144.48232 148.2575 
L 144.644732 148.171557 
L 144.807121 147.677663 
L 144.969519 147.87145 
L 145.131946 148.420535 
L 145.29436 148.282247 
L 145.619168 147.337612 
L 145.781609 147.568657 
L 146.106423 143.713178 
L 146.268826 143.479873 
L 146.593649 142.158256 
L 146.918469 143.355304 
L 147.080865 143.09929 
L 147.24329 143.479983 
L 147.405702 145.094209 
L 147.568112 145.34193 
L 147.73053 145.113743 
L 148.055358 145.160722 
L 149.841908 145.366937 
L 150.004333 145.018823 
L 150.329156 142.114564 
L 150.491564 142.149295 
L 150.653981 142.563176 
L 150.816395 142.656419 
L 150.978804 141.97722 
L 151.303634 139.875271 
L 151.466043 139.939556 
L 151.62844 139.427269 
L 152.115713 136.746888 
L 152.440547 140.140348 
L 152.927726 136.99143 
L 153.414957 136.821694 
L 153.577401 135.762398 
L 154.06462 127.062185 
L 154.227014 127.332374 
L 154.389447 126.707006 
L 154.551855 125.149594 
L 154.876689 126.325602 
L 155.201495 121.209568 
L 155.363877 121.133555 
L 155.5263 120.633168 
L 156.01355 114.578615 
L 156.17596 114.374994 
L 156.50078 112.757708 
L 156.663211 111.370669 
L 156.988027 107.898371 
L 157.150417 108.632327 
L 157.312855 107.218065 
L 157.63766 103.131951 
L 158.287294 96.316647 
L 158.449715 95.208581 
L 158.612116 95.373676 
L 158.774529 95.368365 
L 159.26178 93.088964 
L 159.424183 93.523535 
L 159.586579 93.209289 
L 159.911414 93.944687 
L 160.236234 92.802239 
L 160.885889 92.162505 
L 161.048314 91.908492 
L 161.210681 92.745542 
L 161.373093 92.87943 
L 161.69791 92.546376 
L 162.185131 92.502406 
L 162.509948 91.516724 
L 162.672361 92.179813 
L 162.997188 92.073811 
L 163.159602 92.139379 
L 163.322017 92.057616 
L 163.484428 92.197427 
L 163.809264 91.395529 
L 164.134052 92.37022 
L 164.621268 92.324719 
L 164.946086 91.652051 
L 165.108501 92.463026 
L 165.758156 92.393263 
L 165.920563 92.665159 
L 166.083001 92.391319 
L 166.245365 91.189923 
L 166.407768 91.108292 
L 166.570183 91.365592 
L 167.219803 91.347479 
L 167.382209 91.242841 
L 167.544627 91.396653 
L 167.869434 92.904147 
L 168.031845 92.36237 
L 168.19426 92.236329 
L 168.5191 92.684174 
L 168.843887 91.009803 
L 169.331093 90.93002 
L 169.493511 91.50196 
L 169.655934 92.759042 
L 170.143149 92.139606 
L 170.305566 92.013677 
L 170.792809 92.036764 
L 170.955222 91.969228 
L 171.117634 92.036809 
L 171.280044 91.972319 
L 171.604858 91.981184 
L 171.929668 92.077393 
L 172.092062 92.265593 
L 172.416906 90.604905 
L 172.579297 91.003212 
L 172.904124 91.038397 
L 173.066539 91.064841 
L 173.716216 90.521219 
L 174.040987 92.235101 
L 174.528201 91.839336 
L 175.015416 91.763228 
L 175.50265 91.703906 
L 175.665056 91.890876 
L 175.827498 91.598538 
L 176.152323 89.125675 
L 176.314652 90.752793 
L 176.477082 91.21219 
L 176.801898 90.998108 
L 177.451514 90.992062 
L 177.776347 92.384312 
L 177.938741 91.763856 
L 178.263564 91.902763 
L 178.425976 91.990884 
L 178.588387 92.357935 
L 178.750826 92.103253 
L 179.075601 89.993789 
L 179.400415 90.204959 
L 179.56282 90.127142 
L 179.72522 90.285036 
L 180.050036 90.955629 
L 180.374844 90.843167 
L 180.862069 90.836348 
L 181.024487 90.58232 
L 181.349313 89.277662 
L 181.674132 89.270285 
L 181.836575 89.81054 
L 181.998926 91.126908 
L 182.16134 91.256534 
L 182.323744 90.942318 
L 182.486194 89.713936 
L 182.648547 87.375615 
L 183.460611 84.048593 
L 183.785405 82.425252 
L 184.110224 82.733668 
L 184.272685 82.524428 
L 184.759819 76.909529 
L 184.922262 76.281047 
L 185.084672 76.334369 
L 185.896722 73.119674 
L 186.059169 72.184785 
L 186.383971 74.847836 
L 186.546379 74.521222 
L 186.871192 70.514735 
L 187.033597 70.49725 
L 187.196047 70.659559 
L 187.520844 68.158757 
L 187.683229 67.486041 
L 187.845671 67.420501 
L 188.008067 68.095732 
L 188.33286 66.769925 
L 188.495252 66.771714 
L 188.657669 66.629574 
L 189.144898 62.611178 
L 189.307233 61.242894 
L 189.469672 60.887119 
L 189.632089 61.130675 
L 189.794515 61.125636 
L 190.11934 64.786754 
L 190.606504 63.060782 
L 190.931358 63.464729 
L 191.256187 62.112557 
L 191.580972 58.817311 
L 191.905788 57.769038 
L 192.230585 59.158093 
L 192.392992 58.401101 
L 192.5554 58.30453 
L 193.204996 54.207936 
L 193.367448 295.473769 
L 193.529855 53.850681 
L 196.290896 53.808539 
L 196.615725 54.056598 
L 196.778098 295.146945 
L 196.940535 294.825757 
L 197.102969 294.930559 
L 197.427754 293.095987 
L 197.590164 293.356347 
L 197.914993 293.311826 
L 198.564649 293.249302 
L 198.889488 293.739722 
L 199.214276 290.26829 
L 199.376684 290.673909 
L 199.539065 291.503664 
L 199.863869 290.078727 
L 200.188631 292.811829 
L 200.351099 292.222988 
L 200.838255 286.326378 
L 201.325553 283.141949 
L 201.650335 277.586041 
L 201.812797 276.459889 
L 202.462296 264.810627 
L 202.787094 263.224222 
L 203.111923 263.126031 
L 203.436807 263.088085 
L 203.599012 262.331717 
L 203.761768 260.590714 
L 204.08597 251.968284 
L 204.248453 250.13182 
L 204.735382 235.32421 
L 204.89793 233.183525 
L 205.060299 233.410535 
L 205.385093 235.140486 
L 205.547706 232.73649 
L 205.872401 222.783364 
L 206.034765 221.177047 
L 206.197089 221.057207 
L 206.359894 218.585167 
L 206.684371 208.382666 
L 206.84665 207.111377 
L 207.333918 199.388132 
L 207.821109 197.714135 
L 208.957754 182.953823 
L 209.445143 170.586947 
L 209.60755 170.053185 
L 209.76998 170.19112 
L 210.094774 167.255237 
L 210.257162 166.882769 
L 210.419597 166.003506 
L 210.744402 161.442283 
L 211.06921 160.706953 
L 211.394015 160.428146 
L 211.556406 160.67081 
L 211.718813 160.638665 
L 211.881254 160.950831 
L 212.043632 162.172418 
L 212.206059 162.043756 
L 212.368481 161.651051 
L 212.53087 162.073524 
L 212.693246 161.786357 
L 212.855732 162.629012 
L 213.018051 164.607813 
L 213.180473 165.137797 
L 213.505304 167.834485 
L 213.667681 167.606697 
L 213.830079 168.08647 
L 214.154891 172.7462 
L 214.317334 175.179682 
L 214.479745 175.441714 
L 214.804583 174.195236 
L 214.966957 174.146534 
L 215.1295 176.794356 
L 215.454232 185.614927 
L 216.103839 192.624194 
L 216.266258 192.75802 
L 216.428657 193.708894 
L 216.915882 202.079187 
L 217.078316 202.494825 
L 217.565495 210.586985 
L 217.727935 211.782394 
L 218.052797 217.066426 
L 218.377572 221.341086 
L 218.539976 221.361475 
L 218.702363 221.810655 
L 218.864776 221.857116 
L 219.027135 222.146499 
L 219.189675 223.83765 
L 219.676788 233.239729 
L 219.839172 235.085773 
L 220.001577 235.135389 
L 220.163999 234.876276 
L 220.32641 235.004531 
L 220.488829 234.983226 
L 220.651223 234.580001 
L 220.813716 235.218769 
L 221.138482 239.701824 
L 221.300838 239.059967 
L 221.463293 239.204224 
L 221.950496 243.127784 
L 222.43771 244.249374 
L 223.2497 244.384392 
L 223.574492 245.14248 
L 223.736891 244.897862 
L 223.899317 244.433599 
L 224.873753 244.939195 
L 225.198548 244.933422 
L 225.360954 245.161541 
L 225.523355 245.138542 
L 225.848154 243.064504 
L 226.172968 243.92125 
L 226.497795 244.014169 
L 226.82262 243.719987 
L 226.984997 243.268742 
L 227.309846 245.004431 
L 227.472212 244.582441 
L 227.797023 244.46542 
L 228.121841 244.445505 
L 228.446671 244.037871 
L 228.609075 243.30999 
L 228.77154 243.710877 
L 228.933844 245.00919 
L 229.096259 245.172641 
L 229.25867 244.848029 
L 229.908272 244.62207 
L 230.070656 244.365962 
L 230.395472 243.57059 
L 230.720266 245.429115 
L 230.882668 245.209637 
L 231.369905 245.27939 
L 231.694715 245.327795 
L 231.857094 245.536571 
L 232.18194 243.275453 
L 232.50673 244.307689 
L 232.831543 244.675871 
L 233.31879 244.779312 
L 233.481183 245.261946 
L 233.643654 244.55762 
L 233.805987 243.307242 
L 233.968365 243.51253 
L 234.293177 244.270929 
L 234.617982 244.347698 
L 234.942793 244.19383 
L 235.267599 244.731928 
L 235.592391 243.610219 
L 235.917212 244.083486 
L 236.242026 244.080007 
L 236.404415 243.919365 
L 236.729201 243.123831 
L 237.054041 245.238946 
L 237.378839 244.659831 
L 237.86608 244.551673 
L 238.190916 243.965905 
L 238.353288 243.233676 
L 238.678118 245.201689 
L 238.840497 245.047921 
L 239.165301 244.792856 
L 239.490106 244.728183 
L 239.814917 244.212536 
L 240.139725 242.352368 
L 240.626987 243.412415 
L 240.951796 247.537399 
L 241.438954 246.166033 
L 241.601379 245.843539 
L 241.926173 243.544542 
L 242.250979 244.469622 
L 242.575806 244.704765 
L 243.063035 244.786373 
L 243.387834 244.781712 
L 243.712622 244.473324 
L 244.037403 243.556405 
L 244.362235 245.202528 
L 244.524638 245.074959 
L 244.849469 245.212555 
L 245.336706 245.24085 
L 245.499086 245.541873 
L 245.82393 243.309551 
L 246.3111 244.552578 
L 246.635923 244.672636 
L 246.960753 244.755313 
L 247.123155 245.231936 
L 247.285626 244.609899 
L 247.447931 243.352733 
L 247.610333 243.400664 
L 247.935147 244.182435 
L 248.259949 244.261295 
L 248.584751 244.032778 
L 248.747162 244.20881 
L 248.909518 244.715179 
L 249.234349 243.802577 
L 249.559175 244.166127 
L 249.884 244.155032 
L 250.046395 243.999512 
L 250.371181 243.112298 
L 250.69603 245.227997 
L 251.020817 244.695485 
L 251.670459 244.374329 
L 251.832882 244.014891 
L 251.99527 243.277405 
L 252.157747 243.974274 
L 252.320072 245.246876 
L 252.48247 245.278243 
L 252.644875 245.075538 
L 253.61929 244.872485 
L 253.944116 244.676821 
L 254.106539 244.397964 
L 254.268927 243.695705 
L 254.431406 244.450413 
L 254.593727 245.779198 
L 254.756134 245.92444 
L 254.918526 245.889256 
L 255.40573 246.114396 
L 256.217754 247.199692 
L 256.380263 248.443469 
L 256.705008 252.131034 
L 256.867312 252.908618 
L 257.029849 254.314475 
L 257.35454 258.084612 
L 257.516908 259.402141 
L 257.841727 264.351891 
L 258.004106 264.279166 
L 258.166579 265.41365 
L 258.491377 269.434888 
L 258.653759 269.700373 
L 258.816228 271.660993 
L 259.141037 276.741874 
L 259.303361 276.196366 
L 259.465898 277.579316 
L 259.790631 281.460097 
L 259.953026 281.336499 
L 260.27784 278.862655 
L 260.602654 279.62917 
L 260.927458 280.689629 
L 261.089844 280.400564 
L 261.577081 282.048782 
L 261.901893 285.514253 
L 262.226692 285.750143 
L 262.38911 286.152051 
L 262.551525 286.054059 
L 262.713889 285.521296 
L 262.876294 285.587521 
L 263.038712 285.929596 
L 263.688314 285.995071 
L 264.013138 289.378464 
L 264.175527 289.30915 
L 264.337913 289.94215 
L 264.662718 293.557973 
L 264.987565 291.865702 
L 265.149985 291.654692 
L 265.312291 290.139153 
L 265.474772 289.892634 
L 265.637156 290.679884 
L 265.799568 290.789496 
L 266.286772 293.476146 
L 266.449319 54.353873 
L 267.098756 68.889229 
L 267.261131 72.244711 
L 267.748368 88.69328 
L 268.073029 91.220019 
L 268.235809 94.596269 
L 269.047388 121.945541 
L 269.859457 130.738714 
L 270.022026 132.214406 
L 270.508996 142.06163 
L 270.671461 142.402641 
L 270.833864 142.226532 
L 271.158695 142.271843 
L 273.757306 142.330618 
L 273.91979 142.043071 
L 274.081969 142.802931 
L 274.24549 139.273747 
L 274.56899 124.335132 
L 274.731073 123.879013 
L 274.893568 123.770933 
L 275.055967 123.424808 
L 275.218342 121.907237 
L 276.030437 100.615704 
L 276.19227 97.79571 
L 276.679448 78.859602 
L 276.841663 78.937645 
L 277.004109 79.660153 
L 277.166575 79.654956 
L 277.49134 77.642524 
L 277.653737 77.772647 
L 277.97854 76.453761 
L 278.141004 75.315233 
L 278.465758 69.312228 
L 278.628179 69.13144 
L 278.790581 69.496571 
L 279.277814 67.268468 
L 279.602631 69.777516 
L 279.765072 69.527928 
L 279.927434 68.457526 
L 280.252273 67.7721 
L 280.414702 68.005954 
L 280.73952 70.702896 
L 281.064325 70.336722 
L 282.201151 70.179176 
L 282.363562 70.234858 
L 282.688392 69.727689 
L 282.850799 69.983177 
L 283.013249 69.384248 
L 283.33804 67.49664 
L 283.662843 66.988551 
L 283.825242 67.055036 
L 284.150055 69.679078 
L 284.474886 69.138477 
L 284.637278 69.364451 
L 284.799682 69.257384 
L 284.962084 69.704543 
L 285.286918 71.181224 
L 285.936522 71.482073 
L 286.261328 72.101821 
L 286.423719 71.706166 
L 286.586137 71.707446 
L 286.748552 72.005526 
L 286.910967 71.70312 
L 287.235787 70.10671 
L 287.560605 73.223613 
L 287.723021 73.674133 
L 287.885453 73.22943 
L 288.047797 72.240079 
L 288.372639 72.499734 
L 288.535054 72.747294 
L 289.022288 75.48845 
L 289.509564 82.732365 
L 289.671883 84.24405 
L 289.834324 84.388515 
L 289.996734 84.209516 
L 290.321565 84.327088 
L 290.483974 83.954421 
L 290.646446 84.672532 
L 290.971202 89.294498 
L 291.133585 89.753813 
L 291.458397 89.757794 
L 291.783201 90.006171 
L 291.945666 90.958489 
L 292.270423 93.414144 
L 292.432819 93.470195 
L 292.595248 94.60815 
L 292.920027 100.326931 
L 293.569654 98.435775 
L 293.732097 98.659622 
L 294.056915 99.697496 
L 294.219332 99.58695 
L 294.381684 98.633554 
L 294.868942 101.148332 
L 295.031311 101.719145 
L 295.356159 100.304828 
L 295.518556 100.504017 
L 295.680961 100.38155 
L 295.843378 99.984639 
L 296.168175 100.71895 
L 296.492987 100.036339 
L 296.655396 100.120546 
L 296.817797 100.921433 
L 296.980248 100.611017 
L 297.142621 100.01148 
L 297.305028 99.881181 
L 297.467399 98.779877 
L 297.629852 98.734645 
L 297.954655 99.65908 
L 298.117083 99.185363 
L 298.279437 97.829034 
L 298.441902 98.059031 
L 298.604287 98.638579 
L 298.766681 98.016744 
L 298.929113 98.291748 
L 299.091535 98.309709 
L 299.25391 97.737633 
L 299.416323 98.457239 
L 299.57876 98.484625 
L 300.066019 95.009667 
L 300.390792 92.300705 
L 300.715623 90.556808 
L 300.878034 90.483643 
L 301.040398 89.891621 
L 301.3652 87.616462 
L 301.527624 87.408274 
L 301.689992 86.620285 
L 302.01481 83.513512 
L 302.177227 83.43612 
L 302.339683 81.980145 
L 302.664469 76.07747 
L 302.826883 75.496846 
L 302.989304 74.209567 
L 303.314124 69.363108 
L 303.476486 69.487115 
L 303.963763 63.758752 
L 304.288564 62.93572 
L 304.613372 60.715298 
L 304.77578 60.700025 
L 304.938188 60.208024 
L 305.100624 58.897069 
L 305.263026 58.724304 
L 305.587851 62.254658 
L 305.750198 61.483872 
L 306.074963 56.599589 
L 306.237501 57.034627 
L 306.399839 58.323894 
L 306.562252 58.566223 
L 306.724669 60.057711 
L 306.887088 60.514474 
L 307.049466 58.345199 
L 307.211924 57.791877 
L 307.374263 59.621998 
L 307.53672 60.181318 
L 307.861532 58.811219 
L 308.023965 59.268893 
L 308.348766 60.818588 
L 308.511191 60.498233 
L 308.998382 58.038784 
L 309.485613 60.742811 
L 309.648045 60.655134 
L 309.810429 60.180046 
L 310.135265 58.764697 
L 310.460051 60.900619 
L 310.622439 60.573802 
L 310.947228 55.356336 
L 311.109713 56.254835 
L 311.434491 59.88318 
L 311.759305 58.429742 
L 312.084133 60.036606 
L 312.246555 60.810761 
L 312.408978 60.747057 
L 312.571358 60.274516 
L 312.896185 58.721735 
L 313.22099 61.23065 
L 313.38336 61.336195 
L 313.70817 55.760236 
L 313.870632 55.696268 
L 314.195432 59.485565 
L 314.520249 58.567806 
L 314.682687 59.188345 
L 314.845054 60.51222 
L 315.007489 60.369994 
L 315.332309 57.930645 
L 315.49473 57.841375 
L 315.65713 58.176002 
L 315.981941 55.882204 
L 316.144394 57.126227 
L 316.469204 62.202182 
L 316.6316 62.200252 
L 316.794019 61.596991 
L 317.118833 58.254474 
L 317.28123 58.122955 
L 317.768463 60.811974 
L 317.930868 60.734858 
L 318.418081 58.56991 
L 318.905326 61.251934 
L 319.392558 56.091898 
L 319.717377 59.840061 
L 320.042195 61.001894 
L 320.367039 60.556286 
L 320.52944 60.646858 
L 320.854263 58.781057 
L 321.01667 58.344419 
L 321.179115 59.065171 
L 321.503896 61.028126 
L 321.828681 57.960358 
L 322.31595 60.801565 
L 322.478356 61.329747 
L 322.965587 60.572084 
L 323.128004 58.953454 
L 323.29042 58.471048 
L 323.615242 61.286325 
L 323.777647 61.371939 
L 323.940058 61.231403 
L 324.102445 60.133111 
L 324.264876 60.080367 
L 324.427301 59.792919 
L 324.589659 58.5318 
L 325.076923 62.068697 
L 325.239312 61.674523 
L 325.564125 58.15147 
L 325.888965 61.291826 
L 326.051374 61.336405 
L 326.213783 60.978924 
L 326.376177 59.239009 
L 326.538619 59.019037 
L 326.700991 60.716488 
L 327.025841 61.405242 
L 327.188246 61.518594 
L 327.350643 60.905754 
L 327.513051 60.919764 
L 327.837849 58.394335 
L 328.162677 61.265543 
L 328.487534 59.136807 
L 328.649929 59.397101 
L 328.812331 59.414335 
L 328.974743 60.575845 
L 329.137171 60.88045 
L 329.786806 56.723333 
L 329.949195 56.42228 
L 330.111649 55.233679 
L 330.273987 294.776667 
L 330.436441 294.098634 
L 330.598839 294.379459 
L 330.923668 294.183763 
L 331.086081 294.271129 
L 331.248501 294.045414 
L 331.410904 294.287796 
L 331.573389 292.740348 
L 331.898129 286.5013 
L 332.060544 285.076618 
L 332.222931 282.401388 
L 332.547758 281.221141 
L 332.872552 274.1305 
L 333.197415 272.145408 
L 333.522218 266.789708 
L 333.684636 266.224137 
L 334.98395 266.201139 
L 335.146354 266.320969 
L 335.471176 268.231932 
L 335.796022 261.655876 
L 335.958416 258.780994 
L 336.120843 258.116619 
L 336.283254 257.982227 
L 336.445668 258.016827 
L 336.608086 257.765546 
L 336.770487 257.15132 
L 336.932897 257.16721 
L 337.58254 253.427874 
L 337.744959 253.257 
L 338.069791 250.957539 
L 338.394618 248.326048 
L 338.557027 248.233257 
L 338.719451 247.925035 
L 339.044243 245.593665 
L 339.206636 245.309054 
L 340.018682 242.199023 
L 340.343485 238.97566 
L 340.668313 233.776662 
L 340.993171 233.162453 
L 341.317922 229.764995 
L 341.805253 214.154648 
L 342.292442 205.534669 
L 342.454822 203.066936 
L 342.779642 204.130253 
L 343.266913 196.410175 
L 343.591745 196.823621 
L 343.754077 196.202824 
L 344.078894 202.607345 
L 344.241343 202.417019 
L 344.403759 203.009643 
L 344.566193 202.761654 
L 344.728573 201.885976 
L 344.890965 202.356729 
L 345.053451 206.249523 
L 345.702797 236.138779 
L 345.865403 239.100391 
L 346.027763 239.941541 
L 346.190208 239.213343 
L 346.352631 239.44034 
L 346.839819 243.071475 
L 347.002241 243.202489 
L 347.164661 243.9296 
L 347.32709 243.818399 
L 347.489451 243.161114 
L 347.814284 247.654412 
L 347.976716 248.105498 
L 348.139122 248.127932 
L 348.301528 247.570889 
L 348.951194 249.960659 
L 349.276006 248.356473 
L 349.438446 249.235388 
L 349.763244 251.834242 
L 350.088064 252.091475 
L 350.250471 253.160022 
L 350.737718 252.529658 
L 350.900123 252.53907 
L 351.06257 251.362457 
L 351.224921 249.042256 
L 351.38736 248.344861 
L 351.712184 248.649907 
L 351.874595 248.528878 
L 352.037015 248.003426 
L 352.361843 247.785116 
L 352.686662 247.606655 
L 353.011482 248.40536 
L 353.173887 247.38848 
L 353.336306 247.076192 
L 353.498719 247.290589 
L 353.661129 247.269346 
L 353.823557 246.224982 
L 353.985971 246.048669 
L 354.148373 246.392006 
L 354.960432 246.702639 
L 355.122846 246.450334 
L 355.285276 247.134431 
L 355.447649 248.658304 
L 355.610078 248.803821 
L 355.772483 248.692875 
L 356.097322 247.341939 
L 356.422135 247.466262 
L 356.584551 249.069164 
L 356.746972 249.388047 
L 356.909375 249.035609 
L 357.396621 251.023617 
L 357.883858 248.96693 
L 358.046262 249.336146 
L 358.208694 250.422357 
L 358.533514 254.813507 
L 358.69592 255.39477 
L 358.858329 255.152691 
L 359.345575 253.814072 
L 359.507971 252.95994 
L 360.157637 256.23811 
L 360.320059 256.133084 
L 360.64488 255.354485 
L 360.807295 255.493131 
L 361.132117 256.638541 
L 361.294522 256.751453 
L 361.456925 255.921148 
L 362.106584 256.691232 
L 362.269 257.39054 
L 362.593832 256.679268 
L 362.918655 257.162661 
L 363.730715 257.163628 
L 363.893144 258.038291 
L 364.055523 260.006722 
L 364.217954 260.23914 
L 364.380357 260.024028 
L 364.867603 257.220849 
L 365.030014 257.196102 
L 365.354842 256.858005 
L 365.842091 255.590756 
L 366.004489 254.100688 
L 366.329326 254.879884 
L 366.491735 254.331309 
L 366.654156 252.485872 
L 366.978968 245.668499 
L 367.141387 245.15115 
L 367.791039 241.995609 
L 368.115866 237.280788 
L 368.440693 234.997591 
L 368.603111 235.137198 
L 368.765525 235.126561 
L 368.927935 235.425769 
L 369.740041 228.646475 
L 370.064852 222.924121 
L 370.389661 216.5936 
L 370.552072 216.923777 
L 370.714491 216.462942 
L 370.876907 216.483942 
L 371.039316 216.368735 
L 371.688971 209.864534 
L 371.851386 208.748034 
L 372.176209 204.202439 
L 372.338627 203.71497 
L 372.501039 203.855134 
L 372.663454 203.787959 
L 372.825867 203.881765 
L 372.988286 203.15198 
L 373.31311 199.806388 
L 373.475526 199.658894 
L 373.637943 198.677287 
L 373.96276 192.214404 
L 374.287589 190.642277 
L 374.450002 190.147952 
L 374.612419 190.062492 
L 374.774823 189.607703 
L 375.099655 184.965068 
L 375.424487 183.792599 
L 375.586899 184.54107 
L 375.74932 183.636623 
L 375.911725 181.670417 
L 376.074145 181.429526 
L 376.236556 181.584139 
L 376.561384 182.234232 
L 376.886213 180.476745 
L 377.048623 179.356417 
L 377.211039 179.350002 
L 377.698285 177.997041 
L 377.860698 178.088492 
L 378.185519 180.076906 
L 378.347945 178.864756 
L 378.510355 178.608498 
L 378.672759 179.82777 
L 378.835171 179.801501 
L 379.159995 176.702 
L 379.48483 179.997875 
L 379.64724 179.579062 
L 379.972066 176.528097 
L 380.296896 179.638166 
L 380.784143 176.442265 
L 380.946554 176.91702 
L 381.108969 176.780752 
L 381.59621 177.507878 
L 382.083454 175.308657 
L 382.245867 175.533338 
L 382.570695 175.49181 
L 383.54518 175.578059 
L 383.707596 175.099837 
L 383.870008 175.28336 
L 384.194831 178.180437 
L 384.519661 175.022937 
L 384.844491 175.606423 
L 385.331733 175.574155 
L 385.818975 175.649525 
L 385.981391 175.059523 
L 386.143808 175.577857 
L 386.306215 177.450271 
L 386.468628 177.507849 
L 386.793459 174.061603 
L 386.955872 174.606621 
L 390.691396 174.598693 
L 398.487273 174.598693 
L 398.487273 174.598693 
" style="fill:none;stroke:#1f77b4;stroke-linecap:square;stroke-width:1.5;"/>
   </g>
   <g id="line2d_15">
    <path clip-path="url(#p63dbae337d)" d="M 73.832727 175.798577 
L 92.734507 175.875948 
L 92.903273 175.924258 
L 93.409568 177.158077 
L 93.578333 177.685185 
L 94.084631 177.886608 
L 94.253397 178.075506 
L 94.590902 181.656611 
L 94.928434 181.764059 
L 95.26596 184.308806 
L 95.941022 185.298513 
L 96.278554 185.359878 
L 96.616086 185.050726 
L 97.122381 186.163356 
L 97.291147 186.370483 
L 97.628678 186.39273 
L 97.96621 186.628354 
L 99.653869 186.270578 
L 99.991399 186.935057 
L 100.328931 186.387232 
L 100.666443 182.950376 
L 101.003973 183.650021 
L 102.016565 181.73427 
L 102.354082 179.011209 
L 102.691559 174.356801 
L 103.366622 174.382597 
L 103.704151 173.095583 
L 104.041415 165.065593 
L 104.378925 162.173914 
L 104.716457 161.864454 
L 105.222698 157.870595 
L 105.391464 156.111348 
L 105.897551 147.224173 
L 106.066317 145.876968 
L 106.403849 146.070681 
L 106.741372 144.738925 
L 107.416435 144.329798 
L 107.753964 143.539144 
L 108.429028 143.283829 
L 108.76656 143.350414 
L 109.104091 143.187015 
L 109.44162 144.186619 
L 109.9479 146.636192 
L 110.116666 147.025924 
L 110.454197 146.61055 
L 111.129261 146.634939 
L 111.466792 147.165083 
L 111.973071 149.497122 
L 112.141837 150.083566 
L 112.816792 156.985039 
L 113.491856 157.00941 
L 113.829386 157.530904 
L 114.504449 157.181744 
L 115.179497 159.66663 
L 115.517029 159.662058 
L 115.85456 159.305139 
L 116.360857 159.597622 
L 116.529623 159.735323 
L 117.542218 159.450248 
L 117.879749 159.282709 
L 118.217279 159.831221 
L 118.723564 158.151108 
L 118.892329 157.53375 
L 119.22986 158.060644 
L 119.567391 157.714312 
L 119.904922 157.712607 
L 120.579986 157.220731 
L 121.254837 148.789891 
L 121.9299 148.70396 
L 122.26743 149.244828 
L 122.773717 147.764325 
L 122.942482 147.419108 
L 124.29261 147.410522 
L 124.630141 147.556855 
L 125.136439 147.499529 
L 125.305205 147.56177 
L 125.642734 148.191806 
L 125.980264 147.849659 
L 126.317793 148.588979 
L 126.992856 148.887787 
L 127.330388 148.93581 
L 128.511746 150.089 
L 128.849278 150.11651 
L 129.186809 150.207906 
L 129.355575 150.288215 
L 129.861873 150.234173 
L 130.536936 150.272072 
L 131.043234 150.185022 
L 131.887063 150.586347 
L 133.068424 150.547787 
L 134.587317 150.612767 
L 135.093615 150.61344 
L 135.431146 150.382376 
L 136.781273 150.395197 
L 137.793868 150.007638 
L 138.637697 149.952219 
L 138.975229 149.919796 
L 139.481526 149.931445 
L 141.844249 149.853605 
L 142.350546 149.565712 
L 142.856843 149.526261 
L 143.363139 148.966411 
L 143.869437 148.825616 
L 144.713266 148.566898 
L 145.388329 148.1537 
L 145.725859 147.839486 
L 146.400918 146.906334 
L 146.738449 146.466508 
L 147.07598 146.162068 
L 147.582277 145.769325 
L 147.919809 145.65368 
L 148.594867 144.529917 
L 150.95759 144.403244 
L 151.632628 141.968953 
L 151.97016 141.860193 
L 152.476451 140.849136 
L 152.645217 140.68557 
L 152.982749 140.658198 
L 153.320276 139.995961 
L 153.489042 139.978863 
L 153.657808 139.739675 
L 153.995285 137.318582 
L 154.332813 136.697927 
L 154.501579 136.724841 
L 154.670345 136.207362 
L 155.007541 130.095568 
L 155.345057 128.603336 
L 156.357528 121.480086 
L 156.694667 114.866433 
L 157.032188 113.874044 
L 157.200954 113.904046 
L 157.36972 113.592097 
L 158.381974 102.550984 
L 158.719434 99.708748 
L 159.056951 98.177011 
L 159.394341 94.475368 
L 159.731865 93.550443 
L 160.744457 92.540005 
L 162.432116 92.416094 
L 164.457306 92.333803 
L 166.313731 92.190651 
L 167.326326 92.089462 
L 167.832624 92.051487 
L 169.013985 91.95298 
L 171.376707 91.639517 
L 173.570664 91.582746 
L 174.076961 91.499246 
L 175.089557 91.432434 
L 175.76462 91.342728 
L 177.283513 91.26126 
L 177.621043 90.910916 
L 178.296107 90.805783 
L 179.983766 90.700985 
L 180.658829 90.463552 
L 183.021551 90.334144 
L 183.190317 90.238389 
L 183.359083 89.923946 
L 183.696569 87.933986 
L 184.034095 87.013194 
L 184.371575 84.927596 
L 185.046632 83.66872 
L 185.384153 82.76689 
L 185.552919 82.760863 
L 185.721685 82.38477 
L 186.227823 78.063505 
L 186.396589 77.221794 
L 186.902886 77.131255 
L 187.071652 76.885256 
L 187.409139 74.899838 
L 187.746662 74.055346 
L 188.084193 73.879004 
L 188.252958 73.692966 
L 188.421723 73.124096 
L 188.927831 68.481395 
L 189.096597 67.588419 
L 189.434126 67.108381 
L 189.771651 66.344534 
L 189.940417 66.297475 
L 190.109183 66.071018 
L 190.615444 64.051307 
L 190.952975 63.540198 
L 191.459271 62.994557 
L 191.7968 62.530914 
L 192.471864 62.383782 
L 193.315666 60.140574 
L 193.484432 59.784814 
L 193.821964 59.728618 
L 193.990728 59.52685 
L 194.159494 58.704891 
L 194.496726 54.053052 
L 194.834255 53.574937 
L 195.003021 53.568 
L 195.171787 295.487105 
L 197.703275 295.488 
L 197.872041 53.569067 
L 198.040807 53.586364 
L 198.209573 295.377325 
L 198.54709 294.354896 
L 199.053387 294.097401 
L 199.559685 294.063161 
L 200.403514 294.079741 
L 200.57228 293.831556 
L 200.909769 292.068577 
L 201.584831 291.606862 
L 202.259851 288.588536 
L 203.440886 279.434522 
L 203.609652 278.396307 
L 204.621623 264.374261 
L 204.957018 252.011996 
L 205.631745 243.768675 
L 205.968123 235.41263 
L 206.474399 233.971362 
L 206.643164 231.982087 
L 206.979186 222.125146 
L 207.147934 221.520515 
L 207.3167 219.526767 
L 207.652858 209.626732 
L 207.990155 203.966609 
L 208.326074 194.66914 
L 208.663598 193.637456 
L 209.169716 189.769426 
L 209.338482 187.138381 
L 209.674823 178.309401 
L 210.012127 174.807185 
L 210.349656 174.275752 
L 210.687179 173.713077 
L 210.85594 174.028344 
L 211.024705 173.938966 
L 211.362203 172.575189 
L 211.699734 172.279342 
L 212.206031 172.238067 
L 213.04986 172.411898 
L 213.387391 172.713907 
L 213.893685 173.287329 
L 214.062451 173.331284 
L 214.231216 173.253133 
L 214.399982 173.363767 
L 214.737503 174.164689 
L 215.075034 174.394813 
L 215.2438 174.416909 
L 215.412566 174.831828 
L 215.581266 175.95323 
L 215.750032 178.697276 
L 216.086098 187.588314 
L 216.592134 192.189097 
L 216.928886 198.542992 
L 217.2663 203.073357 
L 217.602972 209.499078 
L 217.940379 214.040135 
L 219.289956 226.331272 
L 219.796216 229.710236 
L 220.133461 233.72649 
L 220.470935 236.138589 
L 220.976897 241.376431 
L 221.145663 242.366505 
L 221.483194 242.678663 
L 221.82072 243.179001 
L 222.495784 243.170335 
L 227.221228 243.447297 
L 228.065058 243.5412 
L 229.246419 243.643987 
L 229.921482 243.697802 
L 232.284205 243.870213 
L 233.128034 243.957005 
L 235.997054 244.09998 
L 240.891264 244.417867 
L 241.397562 244.575078 
L 241.903858 244.865756 
L 243.253985 245.009058 
L 246.291771 245.096918 
L 249.667089 245.366724 
L 251.523513 245.483938 
L 252.029811 245.582413 
L 253.211172 245.66461 
L 253.548703 245.819316 
L 254.89883 245.795751 
L 255.405128 245.824332 
L 256.248956 246.048537 
L 257.092786 246.050501 
L 257.261552 246.188431 
L 257.430313 246.483186 
L 257.599079 247.772504 
L 257.936272 251.823279 
L 258.105016 252.441547 
L 258.442291 255.896965 
L 258.947488 265.854233 
L 259.116254 265.864159 
L 259.28502 267.267724 
L 259.622056 272.423707 
L 259.959482 274.665346 
L 260.128243 274.977927 
L 260.465726 276.473106 
L 261.140633 280.794685 
L 261.646908 282.236748 
L 262.321972 282.32947 
L 262.659503 282.422144 
L 262.828268 282.593716 
L 262.997034 283.170924 
L 263.503235 285.92386 
L 263.672001 286.336984 
L 264.853361 286.556648 
L 265.190871 287.552417 
L 265.865728 291.831707 
L 266.203253 292.38117 
L 266.878228 295.242841 
L 267.046994 295.272862 
L 267.215759 295.187511 
L 267.384525 56.400905 
L 267.883955 79.650906 
L 268.220406 91.301286 
L 268.55773 95.999344 
L 269.565108 128.017791 
L 269.902606 131.10823 
L 270.408829 133.800914 
L 272.771551 133.826062 
L 273.615381 133.887861 
L 273.952621 130.064691 
L 274.28994 125.567878 
L 274.62746 124.183246 
L 274.963824 116.263562 
L 276.309206 76.746313 
L 276.477972 75.444145 
L 276.8155 75.073916 
L 277.321798 74.948652 
L 277.828086 73.947615 
L 278.503149 73.512043 
L 278.671912 73.291923 
L 279.346974 73.431258 
L 279.853272 73.21966 
L 280.528335 73.281759 
L 283.228589 73.349421 
L 283.397354 73.483146 
L 284.241183 73.460192 
L 284.578715 73.537784 
L 285.253778 73.499512 
L 286.266374 73.487747 
L 286.435139 73.43597 
L 287.278967 74.134638 
L 287.78526 74.745958 
L 288.797808 78.103943 
L 289.303848 82.993334 
L 289.810146 83.042206 
L 290.14766 84.10524 
L 290.653281 92.110787 
L 290.990812 91.881645 
L 291.328343 91.972751 
L 291.83464 92.154463 
L 292.172172 92.130325 
L 292.678436 93.887293 
L 293.353498 93.638776 
L 293.69103 93.744779 
L 294.197328 93.754427 
L 294.703625 93.953428 
L 296.053752 93.923498 
L 296.391284 93.917158 
L 296.897581 93.722716 
L 297.403878 93.835117 
L 298.247707 93.597896 
L 298.92277 93.596458 
L 299.429067 93.161512 
L 299.935362 92.598175 
L 300.272893 92.463569 
L 300.610339 89.967826 
L 301.116502 85.560933 
L 301.454017 84.073466 
L 301.791515 81.923109 
L 302.297595 77.01324 
L 302.803682 71.913402 
L 302.972444 71.623791 
L 303.478319 64.594693 
L 303.815833 63.682532 
L 303.984598 63.546758 
L 304.32213 63.66381 
L 304.82842 62.79967 
L 305.165951 62.797932 
L 305.334717 62.718666 
L 305.841004 61.637733 
L 306.178535 61.691068 
L 306.347301 61.758707 
L 306.853596 61.243199 
L 307.191127 61.254481 
L 307.697425 61.150157 
L 308.372488 61.116519 
L 308.878786 60.96455 
L 309.553849 60.940319 
L 310.566444 60.503824 
L 310.735208 60.246646 
L 311.410271 60.203936 
L 313.09793 60.051338 
L 313.772993 59.675156 
L 323.73018 58.981437 
L 325.417839 58.633228 
L 326.261667 58.326276 
L 328.118092 57.892256 
L 328.286858 57.889202 
L 328.793154 57.516032 
L 329.130685 57.567544 
L 329.299451 57.536803 
L 329.805747 57.085829 
L 330.312044 57.189649 
L 330.818339 56.602748 
L 330.987105 56.574772 
L 331.324614 55.134238 
L 331.49338 53.676115 
L 331.662054 293.9849 
L 332.16782 284.506213 
L 332.505242 280.016812 
L 333.011102 272.606845 
L 333.348622 271.130911 
L 333.685901 265.721927 
L 333.854666 265.360344 
L 334.192198 265.504046 
L 335.036027 265.48034 
L 335.373557 265.058214 
L 335.879696 260.205243 
L 336.554718 257.4424 
L 337.061013 256.732003 
L 337.567239 253.373926 
L 337.736001 253.005146 
L 338.073507 251.3243 
L 339.08598 244.481983 
L 339.592277 243.410821 
L 339.761026 242.676919 
L 340.098459 239.215038 
L 340.773104 228.643717 
L 341.110618 226.943658 
L 341.616664 220.114646 
L 341.785417 219.449986 
L 342.122838 215.375766 
L 342.291604 215.899508 
L 342.460345 216.824871 
L 342.966572 213.572121 
L 343.135338 213.510479 
L 343.641626 214.66292 
L 343.810392 214.669239 
L 344.147923 214.385618 
L 344.485438 215.865144 
L 344.989809 233.25022 
L 345.158519 235.012559 
L 345.49605 235.422185 
L 345.833448 239.735955 
L 346.170719 246.403033 
L 346.339485 246.791864 
L 346.508251 246.800192 
L 347.014543 247.749474 
L 349.208499 248.333899 
L 349.714796 248.523991 
L 350.052328 248.624957 
L 350.727391 248.902099 
L 354.609006 249.161278 
L 355.115304 249.337411 
L 355.452836 249.347266 
L 357.984323 250.263151 
L 358.321852 251.027522 
L 358.828149 251.094796 
L 359.165681 251.044682 
L 359.503213 251.0341 
L 359.840745 251.2326 
L 360.00951 251.375461 
L 360.684574 251.230251 
L 361.190871 251.38024 
L 361.697169 251.329562 
L 362.372232 251.380971 
L 363.553593 251.509212 
L 363.722359 251.620601 
L 364.228656 251.092857 
L 364.397421 250.873065 
L 364.903718 251.096768 
L 365.578782 250.860487 
L 365.747547 250.703334 
L 366.085079 250.931841 
L 366.422606 250.05237 
L 367.266375 243.32811 
L 368.11007 235.218656 
L 368.278836 235.071384 
L 368.447602 235.076221 
L 368.785133 234.595501 
L 369.122539 228.668357 
L 369.460067 227.556945 
L 370.13496 218.358937 
L 370.472472 215.905706 
L 370.809892 210.348666 
L 371.147421 209.200836 
L 371.653676 205.285084 
L 372.159969 203.886856 
L 372.666224 197.866987 
L 373.003702 194.233568 
L 373.172459 193.247172 
L 373.509947 187.712993 
L 374.185007 186.045371 
L 374.860051 181.24337 
L 375.197583 180.92245 
L 375.70388 180.937059 
L 375.872646 180.882851 
L 376.378944 180.468875 
L 377.054007 180.226638 
L 377.391539 180.07814 
L 377.560305 180.074755 
L 378.066602 179.80955 
L 378.235368 179.785144 
L 378.572899 178.992613 
L 379.079197 178.602686 
L 380.091791 177.55889 
L 380.429323 177.488436 
L 381.273153 177.372598 
L 381.77945 177.2496 
L 383.129577 177.189706 
L 383.804641 176.737227 
L 384.142172 176.556868 
L 384.817236 176.522617 
L 385.661065 176.418563 
L 386.504895 175.824592 
L 387.348724 175.798584 
L 398.487273 175.798577 
L 398.487273 175.798577 
" style="fill:none;stroke:#ff7f0e;stroke-linecap:square;stroke-width:1.5;"/>
   </g>
   <g id="line2d_16">
    <path clip-path="url(#p63dbae337d)" d="M 73.832727 171.917811 
L 74.828673 172.011671 
L 77.318538 172.44125 
L 79.974394 173.14818 
L 82.63025 174.111858 
L 84.622142 175.049891 
L 86.116061 176.010907 
L 87.609979 177.249702 
L 89.269888 178.949261 
L 90.929796 180.98826 
L 92.921685 183.842737 
L 94.415599 186.331841 
L 95.411543 187.91716 
L 96.075506 188.610727 
L 96.573479 188.845728 
L 97.237443 188.833491 
L 97.901407 188.420146 
L 98.56537 187.580942 
L 99.39532 185.914223 
L 100.059277 184.053401 
L 100.889222 181.298369 
L 101.719152 177.766255 
L 102.881048 171.450839 
L 104.208889 162.382905 
L 106.366603 147.305292 
L 107.030551 144.500026 
L 107.528521 143.074157 
L 108.026491 142.261215 
L 108.358473 142.031643 
L 108.524464 141.989379 
L 108.856446 142.154473 
L 109.354416 142.862794 
L 109.852386 143.950423 
L 110.682324 146.52552 
L 111.678243 150.258261 
L 113.006137 155.37317 
L 113.836082 157.76781 
L 114.66603 159.409539 
L 115.329992 160.372296 
L 115.827964 160.758861 
L 116.491928 160.945019 
L 116.989901 160.802384 
L 117.487874 160.462572 
L 118.317825 159.340043 
L 118.815795 158.398637 
L 119.645735 156.234124 
L 122.13556 149.237858 
L 122.965509 147.88734 
L 123.463481 147.352616 
L 124.127445 146.931795 
L 124.625417 146.906573 
L 125.289381 147.124548 
L 125.953344 147.688243 
L 126.783296 148.738387 
L 127.613248 149.665723 
L 130.269099 152.156344 
L 132.260989 153.429091 
L 133.588916 153.930468 
L 135.414817 154.301479 
L 137.738691 154.038885 
L 138.734637 153.706385 
L 140.062564 153.029328 
L 141.888462 151.69608 
L 143.382377 150.252715 
L 145.04228 148.270287 
L 147.03416 145.381009 
L 148.196083 143.220869 
L 149.358004 140.651411 
L 150.851886 136.680855 
L 152.345762 131.960922 
L 154.005596 125.687594 
L 155.001486 121.520628 
L 157.823129 108.692261 
L 159.316992 103.404137 
L 160.644881 99.536665 
L 161.806794 96.842208 
L 162.802729 95.052331 
L 163.798669 93.714078 
L 164.628622 92.945998 
L 165.458576 92.495883 
L 166.288531 92.234932 
L 172.430198 91.306073 
L 173.924116 90.832383 
L 175.086052 90.242136 
L 176.413978 89.390812 
L 177.575912 88.449383 
L 179.069825 86.988467 
L 180.729726 85.089615 
L 182.555616 82.613863 
L 185.70941 77.526355 
L 188.697202 71.715139 
L 196.498649 55.876141 
L 197.494575 53.716105 
L 197.66056 295.281927 
L 198.822472 292.48622 
L 199.652376 289.614451 
L 200.482275 285.957263 
L 201.47809 280.370715 
L 202.473842 273.579409 
L 203.469495 265.229768 
L 204.464948 254.408081 
L 205.791802 236.158417 
L 206.952063 216.552872 
L 208.112584 196.050022 
L 208.941851 185.724872 
L 209.771563 178.146296 
L 210.435383 173.68125 
L 211.099277 170.617973 
L 211.597224 169.158215 
L 211.929203 168.603197 
L 212.261185 168.406465 
L 212.593166 168.581068 
L 212.925143 169.114683 
L 213.257111 170.009288 
L 213.755058 172.052066 
L 214.418921 176.05265 
L 215.082683 181.613315 
L 215.912123 190.406274 
L 217.571049 209.433533 
L 218.732644 219.509568 
L 219.894303 227.34 
L 220.890118 232.785425 
L 221.885983 237.06819 
L 222.881881 240.351845 
L 223.711819 242.323855 
L 224.375774 243.406314 
L 225.039735 244.064478 
L 225.869688 244.510283 
L 226.533652 244.610455 
L 228.857526 244.555784 
L 232.011355 244.494368 
L 233.007301 244.486312 
L 243.962708 244.390103 
L 247.116537 244.375738 
L 248.444465 244.470156 
L 249.44041 244.697843 
L 250.270364 245.15227 
L 251.266307 246.016091 
L 252.262247 247.22477 
L 253.59016 249.296765 
L 254.752074 251.580104 
L 256.079968 254.670402 
L 257.573841 258.775005 
L 258.901709 262.974006 
L 260.561515 269.18389 
L 262.387227 277.494479 
L 263.714977 284.635134 
L 264.544796 290.2062 
L 265.042584 294.105104 
L 265.208575 53.568021 
L 266.204133 62.984124 
L 267.199509 74.430009 
L 268.0285 86.582276 
L 268.857456 102.019241 
L 269.68561 118.671159 
L 270.349002 128.257382 
L 271.012725 134.528096 
L 271.510653 137.247712 
L 271.842616 138.263 
L 272.174593 138.70612 
L 272.340584 138.74138 
L 272.672563 138.390116 
L 273.004532 137.507896 
L 273.502474 135.094205 
L 274.000288 131.402295 
L 274.663786 123.244281 
L 277.151559 88.212685 
L 277.981182 80.942622 
L 278.811011 75.446778 
L 279.4749 72.205398 
L 280.13883 70.022924 
L 280.636788 68.900366 
L 281.300747 67.969747 
L 281.964709 67.360603 
L 282.628672 67.056465 
L 283.292636 67.086248 
L 283.9566 67.351743 
L 284.620561 67.947799 
L 285.28452 68.817844 
L 286.114466 70.356698 
L 286.944397 72.381142 
L 287.940305 75.384307 
L 289.268155 80.386912 
L 291.425903 89.151554 
L 292.255819 91.732276 
L 293.417735 94.404135 
L 294.24768 95.698674 
L 294.911642 96.323949 
L 295.575605 96.632099 
L 296.239569 96.574233 
L 296.903532 96.163184 
L 297.567492 95.413055 
L 298.39744 93.983566 
L 299.227373 91.994135 
L 300.223283 88.970671 
L 301.21917 85.085412 
L 304.206801 72.290021 
L 305.534677 67.927824 
L 306.862571 64.395599 
L 307.858502 62.344319 
L 308.85444 60.858867 
L 309.684392 59.995829 
L 310.514346 59.473565 
L 311.510291 59.153282 
L 312.672228 59.107962 
L 314.166147 59.121422 
L 315.660066 59.281361 
L 315.992048 59.296152 
L 316.490021 59.280715 
L 319.64385 59.922826 
L 321.46975 60.334488 
L 322.299705 60.410036 
L 323.295651 60.343324 
L 324.95556 59.671405 
L 325.619523 59.104748 
L 326.615464 57.739823 
L 327.611399 55.827673 
L 328.441336 53.785283 
L 328.607327 295.255836 
L 329.603246 292.222492 
L 330.599155 288.661269 
L 331.761018 283.636423 
L 332.922882 277.827613 
L 335.24656 265.210768 
L 337.902158 249.49276 
L 339.229916 240.226459 
L 340.557614 229.421539 
L 341.553382 221.627849 
L 342.21731 218.867608 
L 342.549284 217.983681 
L 343.047252 217.203654 
L 343.545225 217.035995 
L 343.711216 217.048407 
L 344.043195 217.570467 
L 344.375167 218.68639 
L 345.702905 228.698092 
L 346.864763 235.311524 
L 348.192625 241.263753 
L 349.02255 244.22931 
L 350.184468 247.592542 
L 351.01441 249.532951 
L 352.342329 251.964049 
L 353.504261 253.743727 
L 354.666194 255.124846 
L 356.160111 256.351484 
L 357.156056 256.844489 
L 357.654029 256.999468 
L 359.47993 256.890077 
L 360.641867 256.402825 
L 361.471821 255.830631 
L 361.969793 255.29733 
L 362.799745 253.999524 
L 363.463705 252.573272 
L 364.459639 249.837454 
L 365.455566 246.379377 
L 366.451485 242.222618 
L 367.115427 239.032125 
L 368.277299 232.426228 
L 369.605131 223.106397 
L 371.264916 210.795485 
L 372.758772 201.853821 
L 373.920669 196.141239 
L 375.414563 190.062348 
L 376.576482 186.115773 
L 377.9044 182.431111 
L 378.900341 180.165222 
L 380.062275 178.160325 
L 381.390201 176.42067 
L 382.552137 175.334729 
L 383.880065 174.526436 
L 386.037948 173.638795 
L 387.033894 173.295321 
L 389.357768 172.623048 
L 391.847633 172.121317 
L 394.337498 171.846316 
L 396.661372 171.792598 
L 398.487273 171.887459 
L 398.487273 171.887459 
" style="fill:none;stroke:#2ca02c;stroke-linecap:square;stroke-width:1.5;"/>
   </g>
   <g id="line2d_17">
    <path clip-path="url(#p63dbae337d)" d="M 73.832727 171.881536 
L 74.828673 171.979843 
L 77.152546 172.393557 
L 79.47642 173.013605 
L 81.800293 173.840189 
L 84.124166 174.886572 
L 85.618085 175.763286 
L 87.277994 177.047921 
L 88.937902 178.648054 
L 90.763801 180.775822 
L 92.423708 183.047322 
L 94.581585 186.410882 
L 95.90951 188.436243 
L 96.573473 188.904807 
L 97.237437 188.916812 
L 97.901401 188.489313 
L 98.565363 187.620486 
L 99.229324 186.31058 
L 100.059269 184.050824 
L 100.723222 181.778184 
L 101.553161 178.304703 
L 102.715048 172.271291 
L 103.876927 164.857783 
L 106.200624 148.373978 
L 107.030549 144.699013 
L 107.528518 143.212085 
L 108.026487 142.336577 
L 108.358469 142.051921 
L 108.690451 142.019788 
L 109.022433 142.231278 
L 109.354413 142.68674 
L 109.852383 143.772322 
L 110.68232 146.32887 
L 111.512256 149.592134 
L 112.674154 154.25599 
L 113.504097 156.902118 
L 114.334042 158.860619 
L 114.998003 159.956101 
L 115.495975 160.529096 
L 116.159938 160.901411 
L 116.657911 160.899907 
L 117.155884 160.684603 
L 117.819846 160.010289 
L 118.483807 158.943888 
L 119.313749 156.978796 
L 120.309674 153.900269 
L 121.471593 150.593484 
L 122.301539 148.889558 
L 122.9655 147.909621 
L 123.629463 147.282238 
L 124.127436 147.0358 
L 124.7914 147.027297 
L 125.455363 147.372738 
L 126.119325 148.058981 
L 127.779229 150.020416 
L 129.439135 151.619345 
L 130.933051 152.732126 
L 132.260978 153.468312 
L 133.588905 153.962716 
L 134.916833 154.219222 
L 136.07877 154.245145 
L 137.406697 154.050644 
L 138.734625 153.611755 
L 140.062551 152.930535 
L 141.556467 151.879254 
L 143.050383 150.52929 
L 144.710286 148.666771 
L 146.038207 146.866612 
L 147.532111 144.381024 
L 148.694035 142.021275 
L 150.021939 138.797766 
L 151.515814 134.519082 
L 152.843692 130.052119 
L 154.337546 124.297853 
L 155.831355 117.612349 
L 157.823115 108.681843 
L 159.150986 103.898719 
L 160.312891 100.3733 
L 161.4748 97.503186 
L 162.470734 95.55007 
L 163.466672 94.063245 
L 164.296624 93.17568 
L 165.292568 92.485704 
L 166.122523 92.192564 
L 167.45045 92.004851 
L 171.268242 91.697526 
L 173.094142 91.209766 
L 174.422069 90.637019 
L 175.749995 89.845542 
L 177.24391 88.707267 
L 178.903814 87.125284 
L 180.563715 85.218021 
L 182.389601 82.733199 
L 184.381473 79.641446 
L 186.373338 76.042344 
L 194.174794 60.778174 
L 197.49455 53.704462 
L 197.660534 295.267392 
L 198.822448 292.522398 
L 199.652353 289.723566 
L 200.482252 286.057282 
L 201.478064 280.404631 
L 202.473799 273.314003 
L 203.469416 264.495337 
L 204.464854 253.553673 
L 205.791759 235.717872 
L 206.786497 218.93954 
L 207.946566 198.172242 
L 208.776009 187.199532 
L 209.605545 179.158843 
L 210.269365 174.339795 
L 210.933261 170.981548 
L 211.431219 169.389608 
L 211.929184 168.608856 
L 212.261166 168.526963 
L 212.593146 168.797989 
L 212.92512 169.418406 
L 213.423078 170.99974 
L 213.92098 173.383193 
L 214.584798 177.784647 
L 215.414505 185.270821 
L 216.243811 195.179698 
L 217.239186 206.566187 
L 218.400745 217.165514 
L 219.562365 225.542182 
L 220.558163 231.290956 
L 221.554012 235.967827 
L 222.5499 239.58766 
L 223.379833 241.813583 
L 224.043784 243.079863 
L 224.707743 243.88838 
L 225.205715 244.196375 
L 226.035669 244.424595 
L 227.197606 244.478508 
L 248.942422 244.496288 
L 249.772376 244.6899 
L 250.60233 245.141119 
L 251.432281 245.865151 
L 252.42822 247.087408 
L 253.424154 248.664428 
L 254.586073 250.94926 
L 255.747975 253.712609 
L 257.241844 257.946997 
L 258.901673 263.395624 
L 260.39548 269.117639 
L 261.889281 275.700899 
L 263.383004 283.28342 
L 264.378771 289.429183 
L 265.042565 294.354789 
L 265.208556 53.770084 
L 266.204138 62.896456 
L 267.03351 72.336417 
L 268.02849 86.718115 
L 268.857368 102.536635 
L 269.685686 118.366705 
L 270.515117 129.339572 
L 271.178818 135.229342 
L 271.676693 138.028504 
L 272.008664 139.07855 
L 272.340645 139.465797 
L 272.506636 139.38646 
L 272.672624 139.177958 
L 273.00459 138.20908 
L 273.502522 135.458058 
L 274.000289 131.253143 
L 274.663795 123.198883 
L 276.985595 89.912711 
L 277.815299 82.159501 
L 278.645035 76.251927 
L 279.474916 72.064265 
L 280.138845 69.901265 
L 280.636805 68.856702 
L 281.300764 67.945629 
L 281.964726 67.350483 
L 282.628689 67.055911 
L 283.292653 67.061693 
L 283.956616 67.364624 
L 284.620577 67.96889 
L 285.284536 68.873216 
L 286.114481 70.42807 
L 286.944412 72.443963 
L 287.940319 75.48457 
L 289.102198 79.878703 
L 291.591894 89.759523 
L 292.587807 92.647891 
L 293.583735 94.752825 
L 294.413685 95.909206 
L 295.077646 96.444671 
L 295.575619 96.623421 
L 296.073592 96.5972 
L 296.571564 96.383615 
L 297.235526 95.78831 
L 297.899484 94.845801 
L 298.729429 93.170505 
L 299.559357 90.964446 
L 300.555258 87.596008 
L 301.551137 83.471044 
L 303.376912 75.351529 
L 304.870747 69.902657 
L 306.032651 66.456603 
L 307.194559 63.664392 
L 308.190493 61.793794 
L 309.186432 60.414795 
L 310.016384 59.677181 
L 310.846338 59.250019 
L 311.676293 59.059282 
L 313.170211 59.115282 
L 316.988003 59.489936 
L 320.473813 60.064706 
L 322.631696 60.375853 
L 323.627641 60.253474 
L 324.457596 59.948661 
L 325.28755 59.445914 
L 325.951512 58.756046 
L 326.615472 57.788432 
L 327.445415 56.215298 
L 328.441342 53.791364 
L 328.607333 295.249173 
L 329.603251 292.134901 
L 330.599156 288.404799 
L 331.927009 282.552982 
L 333.75276 273.298896 
L 336.408384 258.658489 
L 338.234103 247.141158 
L 339.561843 237.365594 
L 341.885329 219.486501 
L 342.383275 217.617829 
L 342.881245 216.822427 
L 343.047236 216.719253 
L 343.379218 216.893342 
L 343.711196 217.512135 
L 344.20916 219.299201 
L 344.873087 222.784599 
L 346.366833 232.505446 
L 347.528703 238.606486 
L 348.524604 242.861108 
L 349.520522 246.242124 
L 350.350461 248.402846 
L 351.678377 251.01074 
L 353.006298 253.139584 
L 354.334221 254.799938 
L 355.496156 255.866683 
L 356.492101 256.499944 
L 357.322055 256.832706 
L 358.318001 256.979976 
L 359.313947 256.883534 
L 360.309892 256.524685 
L 361.305837 255.89211 
L 361.9698 255.173148 
L 362.799752 253.825799 
L 363.629698 252.00012 
L 364.62563 249.159717 
L 365.787546 244.917798 
L 366.949441 239.711183 
L 368.111334 233.395996 
L 369.273186 225.727897 
L 371.928856 206.774993 
L 373.256734 199.513846 
L 374.916603 192.003699 
L 376.24451 187.021927 
L 377.572425 182.970052 
L 378.734356 180.172688 
L 379.730298 178.318586 
L 380.560251 177.149879 
L 381.722187 175.988623 
L 382.884123 175.121906 
L 384.212051 174.453136 
L 386.701915 173.447949 
L 389.191779 172.668546 
L 391.681643 172.126488 
L 394.005517 171.833493 
L 396.32939 171.746532 
L 398.487273 171.849781 
L 398.487273 171.849781 
" style="fill:none;stroke:#d62728;stroke-linecap:square;stroke-width:1.5;"/>
   </g>
   <g id="patch_3">
    <path d="M 57.6 307.584 
L 57.6 41.472 
" style="fill:none;stroke:#000000;stroke-linecap:square;stroke-linejoin:miter;stroke-width:0.8;"/>
   </g>
   <g id="patch_4">
    <path d="M 414.72 307.584 
L 414.72 41.472 
" style="fill:none;stroke:#000000;stroke-linecap:square;stroke-linejoin:miter;stroke-width:0.8;"/>
   </g>
   <g id="patch_5">
    <path d="M 57.6 307.584 
L 414.72 307.584 
" style="fill:none;stroke:#000000;stroke-linecap:square;stroke-linejoin:miter;stroke-width:0.8;"/>
   </g>
   <g id="patch_6">
    <path d="M 57.6 41.472 
L 414.72 41.472 
" style="fill:none;stroke:#000000;stroke-linecap:square;stroke-linejoin:miter;stroke-width:0.8;"/>
   </g>
   <g id="text_14">
    <!-- Heading vs Distance gbr -->
    <g transform="translate(162.474375 35.472)scale(0.12 -0.12)">
     <defs>
      <path d="M 9.8125 72.90625 
L 19.671875 72.90625 
L 19.671875 43.015625 
L 55.515625 43.015625 
L 55.515625 72.90625 
L 65.375 72.90625 
L 65.375 0 
L 55.515625 0 
L 55.515625 34.71875 
L 19.671875 34.71875 
L 19.671875 0 
L 9.8125 0 
z
" id="DejaVuSans-72"/>
      <path d="M 56.203125 29.59375 
L 56.203125 25.203125 
L 14.890625 25.203125 
Q 15.484375 15.921875 20.484375 11.0625 
Q 25.484375 6.203125 34.421875 6.203125 
Q 39.59375 6.203125 44.453125 7.46875 
Q 49.3125 8.734375 54.109375 11.28125 
L 54.109375 2.78125 
Q 49.265625 0.734375 44.1875 -0.34375 
Q 39.109375 -1.421875 33.890625 -1.421875 
Q 20.796875 -1.421875 13.15625 6.1875 
Q 5.515625 13.8125 5.515625 26.8125 
Q 5.515625 40.234375 12.765625 48.109375 
Q 20.015625 56 32.328125 56 
Q 43.359375 56 49.78125 48.890625 
Q 56.203125 41.796875 56.203125 29.59375 
z
M 47.21875 32.234375 
Q 47.125 39.59375 43.09375 43.984375 
Q 39.0625 48.390625 32.421875 48.390625 
Q 24.90625 48.390625 20.390625 44.140625 
Q 15.875 39.890625 15.1875 32.171875 
z
" id="DejaVuSans-101"/>
      <path d="M 34.28125 27.484375 
Q 23.390625 27.484375 19.1875 25 
Q 14.984375 22.515625 14.984375 16.5 
Q 14.984375 11.71875 18.140625 8.90625 
Q 21.296875 6.109375 26.703125 6.109375 
Q 34.1875 6.109375 38.703125 11.40625 
Q 43.21875 16.703125 43.21875 25.484375 
L 43.21875 27.484375 
z
M 52.203125 31.203125 
L 52.203125 0 
L 43.21875 0 
L 43.21875 8.296875 
Q 40.140625 3.328125 35.546875 0.953125 
Q 30.953125 -1.421875 24.3125 -1.421875 
Q 15.921875 -1.421875 10.953125 3.296875 
Q 6 8.015625 6 15.921875 
Q 6 25.140625 12.171875 29.828125 
Q 18.359375 34.515625 30.609375 34.515625 
L 43.21875 34.515625 
L 43.21875 35.40625 
Q 43.21875 41.609375 39.140625 45 
Q 35.0625 48.390625 27.6875 48.390625 
Q 23 48.390625 18.546875 47.265625 
Q 14.109375 46.140625 10.015625 43.890625 
L 10.015625 52.203125 
Q 14.9375 54.109375 19.578125 55.046875 
Q 24.21875 56 28.609375 56 
Q 40.484375 56 46.34375 49.84375 
Q 52.203125 43.703125 52.203125 31.203125 
z
" id="DejaVuSans-97"/>
      <path d="M 45.40625 46.390625 
L 45.40625 75.984375 
L 54.390625 75.984375 
L 54.390625 0 
L 45.40625 0 
L 45.40625 8.203125 
Q 42.578125 3.328125 38.25 0.953125 
Q 33.9375 -1.421875 27.875 -1.421875 
Q 17.96875 -1.421875 11.734375 6.484375 
Q 5.515625 14.40625 5.515625 27.296875 
Q 5.515625 40.1875 11.734375 48.09375 
Q 17.96875 56 27.875 56 
Q 33.9375 56 38.25 53.625 
Q 42.578125 51.265625 45.40625 46.390625 
z
M 14.796875 27.296875 
Q 14.796875 17.390625 18.875 11.75 
Q 22.953125 6.109375 30.078125 6.109375 
Q 37.203125 6.109375 41.296875 11.75 
Q 45.40625 17.390625 45.40625 27.296875 
Q 45.40625 37.203125 41.296875 42.84375 
Q 37.203125 48.484375 30.078125 48.484375 
Q 22.953125 48.484375 18.875 42.84375 
Q 14.796875 37.203125 14.796875 27.296875 
z
" id="DejaVuSans-100"/>
      <path d="M 9.421875 54.6875 
L 18.40625 54.6875 
L 18.40625 0 
L 9.421875 0 
z
M 9.421875 75.984375 
L 18.40625 75.984375 
L 18.40625 64.59375 
L 9.421875 64.59375 
z
" id="DejaVuSans-105"/>
      <path d="M 54.890625 33.015625 
L 54.890625 0 
L 45.90625 0 
L 45.90625 32.71875 
Q 45.90625 40.484375 42.875 44.328125 
Q 39.84375 48.1875 33.796875 48.1875 
Q 26.515625 48.1875 22.3125 43.546875 
Q 18.109375 38.921875 18.109375 30.90625 
L 18.109375 0 
L 9.078125 0 
L 9.078125 54.6875 
L 18.109375 54.6875 
L 18.109375 46.1875 
Q 21.34375 51.125 25.703125 53.5625 
Q 30.078125 56 35.796875 56 
Q 45.21875 56 50.046875 50.171875 
Q 54.890625 44.34375 54.890625 33.015625 
z
" id="DejaVuSans-110"/>
      <path d="M 45.40625 27.984375 
Q 45.40625 37.75 41.375 43.109375 
Q 37.359375 48.484375 30.078125 48.484375 
Q 22.859375 48.484375 18.828125 43.109375 
Q 14.796875 37.75 14.796875 27.984375 
Q 14.796875 18.265625 18.828125 12.890625 
Q 22.859375 7.515625 30.078125 7.515625 
Q 37.359375 7.515625 41.375 12.890625 
Q 45.40625 18.265625 45.40625 27.984375 
z
M 54.390625 6.78125 
Q 54.390625 -7.171875 48.1875 -13.984375 
Q 42 -20.796875 29.203125 -20.796875 
Q 24.46875 -20.796875 20.265625 -20.09375 
Q 16.0625 -19.390625 12.109375 -17.921875 
L 12.109375 -9.1875 
Q 16.0625 -11.328125 19.921875 -12.34375 
Q 23.78125 -13.375 27.78125 -13.375 
Q 36.625 -13.375 41.015625 -8.765625 
Q 45.40625 -4.15625 45.40625 5.171875 
L 45.40625 9.625 
Q 42.625 4.78125 38.28125 2.390625 
Q 33.9375 0 27.875 0 
Q 17.828125 0 11.671875 7.65625 
Q 5.515625 15.328125 5.515625 27.984375 
Q 5.515625 40.671875 11.671875 48.328125 
Q 17.828125 56 27.875 56 
Q 33.9375 56 38.28125 53.609375 
Q 42.625 51.21875 45.40625 46.390625 
L 45.40625 54.6875 
L 54.390625 54.6875 
z
" id="DejaVuSans-103"/>
      <path id="DejaVuSans-32"/>
      <path d="M 2.984375 54.6875 
L 12.5 54.6875 
L 29.59375 8.796875 
L 46.6875 54.6875 
L 56.203125 54.6875 
L 35.6875 0 
L 23.484375 0 
z
" id="DejaVuSans-118"/>
      <path d="M 44.28125 53.078125 
L 44.28125 44.578125 
Q 40.484375 46.53125 36.375 47.5 
Q 32.28125 48.484375 27.875 48.484375 
Q 21.1875 48.484375 17.84375 46.4375 
Q 14.5 44.390625 14.5 40.28125 
Q 14.5 37.15625 16.890625 35.375 
Q 19.28125 33.59375 26.515625 31.984375 
L 29.59375 31.296875 
Q 39.15625 29.25 43.1875 25.515625 
Q 47.21875 21.78125 47.21875 15.09375 
Q 47.21875 7.46875 41.1875 3.015625 
Q 35.15625 -1.421875 24.609375 -1.421875 
Q 20.21875 -1.421875 15.453125 -0.5625 
Q 10.6875 0.296875 5.421875 2 
L 5.421875 11.28125 
Q 10.40625 8.6875 15.234375 7.390625 
Q 20.0625 6.109375 24.8125 6.109375 
Q 31.15625 6.109375 34.5625 8.28125 
Q 37.984375 10.453125 37.984375 14.40625 
Q 37.984375 18.0625 35.515625 20.015625 
Q 33.0625 21.96875 24.703125 23.78125 
L 21.578125 24.515625 
Q 13.234375 26.265625 9.515625 29.90625 
Q 5.8125 33.546875 5.8125 39.890625 
Q 5.8125 47.609375 11.28125 51.796875 
Q 16.75 56 26.8125 56 
Q 31.78125 56 36.171875 55.265625 
Q 40.578125 54.546875 44.28125 53.078125 
z
" id="DejaVuSans-115"/>
      <path d="M 19.671875 64.796875 
L 19.671875 8.109375 
L 31.59375 8.109375 
Q 46.6875 8.109375 53.6875 14.9375 
Q 60.6875 21.78125 60.6875 36.53125 
Q 60.6875 51.171875 53.6875 57.984375 
Q 46.6875 64.796875 31.59375 64.796875 
z
M 9.8125 72.90625 
L 30.078125 72.90625 
Q 51.265625 72.90625 61.171875 64.09375 
Q 71.09375 55.28125 71.09375 36.53125 
Q 71.09375 17.671875 61.125 8.828125 
Q 51.171875 0 30.078125 0 
L 9.8125 0 
z
" id="DejaVuSans-68"/>
      <path d="M 18.3125 70.21875 
L 18.3125 54.6875 
L 36.8125 54.6875 
L 36.8125 47.703125 
L 18.3125 47.703125 
L 18.3125 18.015625 
Q 18.3125 11.328125 20.140625 9.421875 
Q 21.96875 7.515625 27.59375 7.515625 
L 36.8125 7.515625 
L 36.8125 0 
L 27.59375 0 
Q 17.1875 0 13.234375 3.875 
Q 9.28125 7.765625 9.28125 18.015625 
L 9.28125 47.703125 
L 2.6875 47.703125 
L 2.6875 54.6875 
L 9.28125 54.6875 
L 9.28125 70.21875 
z
" id="DejaVuSans-116"/>
      <path d="M 48.78125 52.59375 
L 48.78125 44.1875 
Q 44.96875 46.296875 41.140625 47.34375 
Q 37.3125 48.390625 33.40625 48.390625 
Q 24.65625 48.390625 19.8125 42.84375 
Q 14.984375 37.3125 14.984375 27.296875 
Q 14.984375 17.28125 19.8125 11.734375 
Q 24.65625 6.203125 33.40625 6.203125 
Q 37.3125 6.203125 41.140625 7.25 
Q 44.96875 8.296875 48.78125 10.40625 
L 48.78125 2.09375 
Q 45.015625 0.34375 40.984375 -0.53125 
Q 36.96875 -1.421875 32.421875 -1.421875 
Q 20.0625 -1.421875 12.78125 6.34375 
Q 5.515625 14.109375 5.515625 27.296875 
Q 5.515625 40.671875 12.859375 48.328125 
Q 20.21875 56 33.015625 56 
Q 37.15625 56 41.109375 55.140625 
Q 45.0625 54.296875 48.78125 52.59375 
z
" id="DejaVuSans-99"/>
      <path d="M 48.6875 27.296875 
Q 48.6875 37.203125 44.609375 42.84375 
Q 40.53125 48.484375 33.40625 48.484375 
Q 26.265625 48.484375 22.1875 42.84375 
Q 18.109375 37.203125 18.109375 27.296875 
Q 18.109375 17.390625 22.1875 11.75 
Q 26.265625 6.109375 33.40625 6.109375 
Q 40.53125 6.109375 44.609375 11.75 
Q 48.6875 17.390625 48.6875 27.296875 
z
M 18.109375 46.390625 
Q 20.953125 51.265625 25.265625 53.625 
Q 29.59375 56 35.59375 56 
Q 45.5625 56 51.78125 48.09375 
Q 58.015625 40.1875 58.015625 27.296875 
Q 58.015625 14.40625 51.78125 6.484375 
Q 45.5625 -1.421875 35.59375 -1.421875 
Q 29.59375 -1.421875 25.265625 0.953125 
Q 20.953125 3.328125 18.109375 8.203125 
L 18.109375 0 
L 9.078125 0 
L 9.078125 75.984375 
L 18.109375 75.984375 
z
" id="DejaVuSans-98"/>
      <path d="M 41.109375 46.296875 
Q 39.59375 47.171875 37.8125 47.578125 
Q 36.03125 48 33.890625 48 
Q 26.265625 48 22.1875 43.046875 
Q 18.109375 38.09375 18.109375 28.8125 
L 18.109375 0 
L 9.078125 0 
L 9.078125 54.6875 
L 18.109375 54.6875 
L 18.109375 46.1875 
Q 20.953125 51.171875 25.484375 53.578125 
Q 30.03125 56 36.53125 56 
Q 37.453125 56 38.578125 55.875 
Q 39.703125 55.765625 41.0625 55.515625 
z
" id="DejaVuSans-114"/>
     </defs>
     <use xlink:href="#DejaVuSans-72"/>
     <use x="75.195312" xlink:href="#DejaVuSans-101"/>
     <use x="136.71875" xlink:href="#DejaVuSans-97"/>
     <use x="197.998047" xlink:href="#DejaVuSans-100"/>
     <use x="261.474609" xlink:href="#DejaVuSans-105"/>
     <use x="289.257812" xlink:href="#DejaVuSans-110"/>
     <use x="352.636719" xlink:href="#DejaVuSans-103"/>
     <use x="416.113281" xlink:href="#DejaVuSans-32"/>
     <use x="447.900391" xlink:href="#DejaVuSans-118"/>
     <use x="507.080078" xlink:href="#DejaVuSans-115"/>
     <use x="559.179688" xlink:href="#DejaVuSans-32"/>
     <use x="590.966797" xlink:href="#DejaVuSans-68"/>
     <use x="667.96875" xlink:href="#DejaVuSans-105"/>
     <use x="695.751953" xlink:href="#DejaVuSans-115"/>
     <use x="747.851562" xlink:href="#DejaVuSans-116"/>
     <use x="787.060547" xlink:href="#DejaVuSans-97"/>
     <use x="848.339844" xlink:href="#DejaVuSans-110"/>
     <use x="911.71875" xlink:href="#DejaVuSans-99"/>
     <use x="966.699219" xlink:href="#DejaVuSans-101"/>
     <use x="1028.222656" xlink:href="#DejaVuSans-32"/>
     <use x="1060.009766" xlink:href="#DejaVuSans-103"/>
     <use x="1123.486328" xlink:href="#DejaVuSans-98"/>
     <use x="1186.962891" xlink:href="#DejaVuSans-114"/>
    </g>
   </g>
   <g id="legend_1">
    <g id="patch_7">
     <path d="M 258.462188 108.1845 
L 407.72 108.1845 
Q 409.72 108.1845 409.72 106.1845 
L 409.72 48.472 
Q 409.72 46.472 407.72 46.472 
L 258.462188 46.472 
Q 256.462188 46.472 256.462188 48.472 
L 256.462188 106.1845 
Q 256.462188 108.1845 258.462188 108.1845 
z
" style="fill:#ffffff;opacity:0.8;stroke:#cccccc;stroke-linejoin:miter;"/>
    </g>
    <g id="line2d_18">
     <path d="M 260.462188 54.570438 
L 280.462188 54.570438 
" style="fill:none;stroke:#1f77b4;stroke-linecap:square;stroke-width:1.5;"/>
    </g>
    <g id="line2d_19"/>
    <g id="text_15">
     <!-- Centreline -->
     <g transform="translate(288.462188 58.070438)scale(0.1 -0.1)">
      <defs>
       <path d="M 64.40625 67.28125 
L 64.40625 56.890625 
Q 59.421875 61.53125 53.78125 63.8125 
Q 48.140625 66.109375 41.796875 66.109375 
Q 29.296875 66.109375 22.65625 58.46875 
Q 16.015625 50.828125 16.015625 36.375 
Q 16.015625 21.96875 22.65625 14.328125 
Q 29.296875 6.6875 41.796875 6.6875 
Q 48.140625 6.6875 53.78125 8.984375 
Q 59.421875 11.28125 64.40625 15.921875 
L 64.40625 5.609375 
Q 59.234375 2.09375 53.4375 0.328125 
Q 47.65625 -1.421875 41.21875 -1.421875 
Q 24.65625 -1.421875 15.125 8.703125 
Q 5.609375 18.84375 5.609375 36.375 
Q 5.609375 53.953125 15.125 64.078125 
Q 24.65625 74.21875 41.21875 74.21875 
Q 47.75 74.21875 53.53125 72.484375 
Q 59.328125 70.75 64.40625 67.28125 
z
" id="DejaVuSans-67"/>
       <path d="M 9.421875 75.984375 
L 18.40625 75.984375 
L 18.40625 0 
L 9.421875 0 
z
" id="DejaVuSans-108"/>
      </defs>
      <use xlink:href="#DejaVuSans-67"/>
      <use x="69.824219" xlink:href="#DejaVuSans-101"/>
      <use x="131.347656" xlink:href="#DejaVuSans-110"/>
      <use x="194.726562" xlink:href="#DejaVuSans-116"/>
      <use x="233.935547" xlink:href="#DejaVuSans-114"/>
      <use x="272.798828" xlink:href="#DejaVuSans-101"/>
      <use x="334.322266" xlink:href="#DejaVuSans-108"/>
      <use x="362.105469" xlink:href="#DejaVuSans-105"/>
      <use x="389.888672" xlink:href="#DejaVuSans-110"/>
      <use x="453.267578" xlink:href="#DejaVuSans-101"/>
     </g>
    </g>
    <g id="line2d_20">
     <path d="M 260.462188 69.248563 
L 280.462188 69.248563 
" style="fill:none;stroke:#ff7f0e;stroke-linecap:square;stroke-width:1.5;"/>
    </g>
    <g id="line2d_21"/>
    <g id="text_16">
     <!-- Shortest Path -->
     <g transform="translate(288.462188 72.748563)scale(0.1 -0.1)">
      <defs>
       <path d="M 53.515625 70.515625 
L 53.515625 60.890625 
Q 47.90625 63.578125 42.921875 64.890625 
Q 37.9375 66.21875 33.296875 66.21875 
Q 25.25 66.21875 20.875 63.09375 
Q 16.5 59.96875 16.5 54.203125 
Q 16.5 49.359375 19.40625 46.890625 
Q 22.3125 44.4375 30.421875 42.921875 
L 36.375 41.703125 
Q 47.40625 39.59375 52.65625 34.296875 
Q 57.90625 29 57.90625 20.125 
Q 57.90625 9.515625 50.796875 4.046875 
Q 43.703125 -1.421875 29.984375 -1.421875 
Q 24.8125 -1.421875 18.96875 -0.25 
Q 13.140625 0.921875 6.890625 3.21875 
L 6.890625 13.375 
Q 12.890625 10.015625 18.65625 8.296875 
Q 24.421875 6.59375 29.984375 6.59375 
Q 38.421875 6.59375 43.015625 9.90625 
Q 47.609375 13.234375 47.609375 19.390625 
Q 47.609375 24.75 44.3125 27.78125 
Q 41.015625 30.8125 33.5 32.328125 
L 27.484375 33.5 
Q 16.453125 35.6875 11.515625 40.375 
Q 6.59375 45.0625 6.59375 53.421875 
Q 6.59375 63.09375 13.40625 68.65625 
Q 20.21875 74.21875 32.171875 74.21875 
Q 37.3125 74.21875 42.625 73.28125 
Q 47.953125 72.359375 53.515625 70.515625 
z
" id="DejaVuSans-83"/>
       <path d="M 54.890625 33.015625 
L 54.890625 0 
L 45.90625 0 
L 45.90625 32.71875 
Q 45.90625 40.484375 42.875 44.328125 
Q 39.84375 48.1875 33.796875 48.1875 
Q 26.515625 48.1875 22.3125 43.546875 
Q 18.109375 38.921875 18.109375 30.90625 
L 18.109375 0 
L 9.078125 0 
L 9.078125 75.984375 
L 18.109375 75.984375 
L 18.109375 46.1875 
Q 21.34375 51.125 25.703125 53.5625 
Q 30.078125 56 35.796875 56 
Q 45.21875 56 50.046875 50.171875 
Q 54.890625 44.34375 54.890625 33.015625 
z
" id="DejaVuSans-104"/>
       <path d="M 30.609375 48.390625 
Q 23.390625 48.390625 19.1875 42.75 
Q 14.984375 37.109375 14.984375 27.296875 
Q 14.984375 17.484375 19.15625 11.84375 
Q 23.34375 6.203125 30.609375 6.203125 
Q 37.796875 6.203125 41.984375 11.859375 
Q 46.1875 17.53125 46.1875 27.296875 
Q 46.1875 37.015625 41.984375 42.703125 
Q 37.796875 48.390625 30.609375 48.390625 
z
M 30.609375 56 
Q 42.328125 56 49.015625 48.375 
Q 55.71875 40.765625 55.71875 27.296875 
Q 55.71875 13.875 49.015625 6.21875 
Q 42.328125 -1.421875 30.609375 -1.421875 
Q 18.84375 -1.421875 12.171875 6.21875 
Q 5.515625 13.875 5.515625 27.296875 
Q 5.515625 40.765625 12.171875 48.375 
Q 18.84375 56 30.609375 56 
z
" id="DejaVuSans-111"/>
       <path d="M 19.671875 64.796875 
L 19.671875 37.40625 
L 32.078125 37.40625 
Q 38.96875 37.40625 42.71875 40.96875 
Q 46.484375 44.53125 46.484375 51.125 
Q 46.484375 57.671875 42.71875 61.234375 
Q 38.96875 64.796875 32.078125 64.796875 
z
M 9.8125 72.90625 
L 32.078125 72.90625 
Q 44.34375 72.90625 50.609375 67.359375 
Q 56.890625 61.8125 56.890625 51.125 
Q 56.890625 40.328125 50.609375 34.8125 
Q 44.34375 29.296875 32.078125 29.296875 
L 19.671875 29.296875 
L 19.671875 0 
L 9.8125 0 
z
" id="DejaVuSans-80"/>
      </defs>
      <use xlink:href="#DejaVuSans-83"/>
      <use x="63.476562" xlink:href="#DejaVuSans-104"/>
      <use x="126.855469" xlink:href="#DejaVuSans-111"/>
      <use x="188.037109" xlink:href="#DejaVuSans-114"/>
      <use x="229.150391" xlink:href="#DejaVuSans-116"/>
      <use x="268.359375" xlink:href="#DejaVuSans-101"/>
      <use x="329.882812" xlink:href="#DejaVuSans-115"/>
      <use x="381.982422" xlink:href="#DejaVuSans-116"/>
      <use x="421.191406" xlink:href="#DejaVuSans-32"/>
      <use x="452.978516" xlink:href="#DejaVuSans-80"/>
      <use x="508.78125" xlink:href="#DejaVuSans-97"/>
      <use x="570.060547" xlink:href="#DejaVuSans-116"/>
      <use x="609.269531" xlink:href="#DejaVuSans-104"/>
     </g>
    </g>
    <g id="line2d_22">
     <path d="M 260.462188 83.926688 
L 280.462188 83.926688 
" style="fill:none;stroke:#2ca02c;stroke-linecap:square;stroke-width:1.5;"/>
    </g>
    <g id="line2d_23"/>
    <g id="text_17">
     <!-- Minimum Curvature (C) -->
     <g transform="translate(288.462188 87.426688)scale(0.1 -0.1)">
      <defs>
       <path d="M 9.8125 72.90625 
L 24.515625 72.90625 
L 43.109375 23.296875 
L 61.8125 72.90625 
L 76.515625 72.90625 
L 76.515625 0 
L 66.890625 0 
L 66.890625 64.015625 
L 48.09375 14.015625 
L 38.1875 14.015625 
L 19.390625 64.015625 
L 19.390625 0 
L 9.8125 0 
z
" id="DejaVuSans-77"/>
       <path d="M 52 44.1875 
Q 55.375 50.25 60.0625 53.125 
Q 64.75 56 71.09375 56 
Q 79.640625 56 84.28125 50.015625 
Q 88.921875 44.046875 88.921875 33.015625 
L 88.921875 0 
L 79.890625 0 
L 79.890625 32.71875 
Q 79.890625 40.578125 77.09375 44.375 
Q 74.3125 48.1875 68.609375 48.1875 
Q 61.625 48.1875 57.5625 43.546875 
Q 53.515625 38.921875 53.515625 30.90625 
L 53.515625 0 
L 44.484375 0 
L 44.484375 32.71875 
Q 44.484375 40.625 41.703125 44.40625 
Q 38.921875 48.1875 33.109375 48.1875 
Q 26.21875 48.1875 22.15625 43.53125 
Q 18.109375 38.875 18.109375 30.90625 
L 18.109375 0 
L 9.078125 0 
L 9.078125 54.6875 
L 18.109375 54.6875 
L 18.109375 46.1875 
Q 21.1875 51.21875 25.484375 53.609375 
Q 29.78125 56 35.6875 56 
Q 41.65625 56 45.828125 52.96875 
Q 50 49.953125 52 44.1875 
z
" id="DejaVuSans-109"/>
       <path d="M 8.5 21.578125 
L 8.5 54.6875 
L 17.484375 54.6875 
L 17.484375 21.921875 
Q 17.484375 14.15625 20.5 10.265625 
Q 23.53125 6.390625 29.59375 6.390625 
Q 36.859375 6.390625 41.078125 11.03125 
Q 45.3125 15.671875 45.3125 23.6875 
L 45.3125 54.6875 
L 54.296875 54.6875 
L 54.296875 0 
L 45.3125 0 
L 45.3125 8.40625 
Q 42.046875 3.421875 37.71875 1 
Q 33.40625 -1.421875 27.6875 -1.421875 
Q 18.265625 -1.421875 13.375 4.4375 
Q 8.5 10.296875 8.5 21.578125 
z
M 31.109375 56 
z
" id="DejaVuSans-117"/>
       <path d="M 31 75.875 
Q 24.46875 64.65625 21.28125 53.65625 
Q 18.109375 42.671875 18.109375 31.390625 
Q 18.109375 20.125 21.3125 9.0625 
Q 24.515625 -2 31 -13.1875 
L 23.1875 -13.1875 
Q 15.875 -1.703125 12.234375 9.375 
Q 8.59375 20.453125 8.59375 31.390625 
Q 8.59375 42.28125 12.203125 53.3125 
Q 15.828125 64.359375 23.1875 75.875 
z
" id="DejaVuSans-40"/>
       <path d="M 8.015625 75.875 
L 15.828125 75.875 
Q 23.140625 64.359375 26.78125 53.3125 
Q 30.421875 42.28125 30.421875 31.390625 
Q 30.421875 20.453125 26.78125 9.375 
Q 23.140625 -1.703125 15.828125 -13.1875 
L 8.015625 -13.1875 
Q 14.5 -2 17.703125 9.0625 
Q 20.90625 20.125 20.90625 31.390625 
Q 20.90625 42.671875 17.703125 53.65625 
Q 14.5 64.65625 8.015625 75.875 
z
" id="DejaVuSans-41"/>
      </defs>
      <use xlink:href="#DejaVuSans-77"/>
      <use x="86.279297" xlink:href="#DejaVuSans-105"/>
      <use x="114.0625" xlink:href="#DejaVuSans-110"/>
      <use x="177.441406" xlink:href="#DejaVuSans-105"/>
      <use x="205.224609" xlink:href="#DejaVuSans-109"/>
      <use x="302.636719" xlink:href="#DejaVuSans-117"/>
      <use x="366.015625" xlink:href="#DejaVuSans-109"/>
      <use x="463.427734" xlink:href="#DejaVuSans-32"/>
      <use x="495.214844" xlink:href="#DejaVuSans-67"/>
      <use x="565.039062" xlink:href="#DejaVuSans-117"/>
      <use x="628.417969" xlink:href="#DejaVuSans-114"/>
      <use x="669.53125" xlink:href="#DejaVuSans-118"/>
      <use x="728.710938" xlink:href="#DejaVuSans-97"/>
      <use x="789.990234" xlink:href="#DejaVuSans-116"/>
      <use x="829.199219" xlink:href="#DejaVuSans-117"/>
      <use x="892.578125" xlink:href="#DejaVuSans-114"/>
      <use x="931.441406" xlink:href="#DejaVuSans-101"/>
      <use x="992.964844" xlink:href="#DejaVuSans-32"/>
      <use x="1024.751953" xlink:href="#DejaVuSans-40"/>
      <use x="1063.765625" xlink:href="#DejaVuSans-67"/>
      <use x="1133.589844" xlink:href="#DejaVuSans-41"/>
     </g>
    </g>
    <g id="line2d_24">
     <path d="M 260.462188 98.604813 
L 280.462188 98.604813 
" style="fill:none;stroke:#d62728;stroke-linecap:square;stroke-width:1.5;"/>
    </g>
    <g id="line2d_25"/>
    <g id="text_18">
     <!-- Minimum Curvature (S) -->
     <g transform="translate(288.462188 102.104813)scale(0.1 -0.1)">
      <use xlink:href="#DejaVuSans-77"/>
      <use x="86.279297" xlink:href="#DejaVuSans-105"/>
      <use x="114.0625" xlink:href="#DejaVuSans-110"/>
      <use x="177.441406" xlink:href="#DejaVuSans-105"/>
      <use x="205.224609" xlink:href="#DejaVuSans-109"/>
      <use x="302.636719" xlink:href="#DejaVuSans-117"/>
      <use x="366.015625" xlink:href="#DejaVuSans-109"/>
      <use x="463.427734" xlink:href="#DejaVuSans-32"/>
      <use x="495.214844" xlink:href="#DejaVuSans-67"/>
      <use x="565.039062" xlink:href="#DejaVuSans-117"/>
      <use x="628.417969" xlink:href="#DejaVuSans-114"/>
      <use x="669.53125" xlink:href="#DejaVuSans-118"/>
      <use x="728.710938" xlink:href="#DejaVuSans-97"/>
      <use x="789.990234" xlink:href="#DejaVuSans-116"/>
      <use x="829.199219" xlink:href="#DejaVuSans-117"/>
      <use x="892.578125" xlink:href="#DejaVuSans-114"/>
      <use x="931.441406" xlink:href="#DejaVuSans-101"/>
      <use x="992.964844" xlink:href="#DejaVuSans-32"/>
      <use x="1024.751953" xlink:href="#DejaVuSans-40"/>
      <use x="1063.765625" xlink:href="#DejaVuSans-83"/>
      <use x="1127.242188" xlink:href="#DejaVuSans-41"/>
     </g>
    </g>
   </g>
  </g>
 </g>
 <defs>
  <clipPath id="p63dbae337d">
   <rect height="266.112" width="357.12" x="57.6" y="41.472"/>
  </clipPath>
 </defs>
</svg>
