<?xml version="1.0" encoding="utf-8" standalone="no"?>
<!DOCTYPE svg PUBLIC "-//W3C//DTD SVG 1.1//EN"
  "http://www.w3.org/Graphics/SVG/1.1/DTD/svg11.dtd">
<svg xmlns:xlink="http://www.w3.org/1999/xlink" width="460.8pt" height="345.6pt" viewBox="0 0 460.8 345.6" xmlns="http://www.w3.org/2000/svg" version="1.1">
 <metadata>
  <rdf:RDF xmlns:dc="http://purl.org/dc/elements/1.1/" xmlns:cc="http://creativecommons.org/ns#" xmlns:rdf="http://www.w3.org/1999/02/22-rdf-syntax-ns#">
   <cc:Work>
    <dc:type rdf:resource="http://purl.org/dc/dcmitype/StillImage"/>
    <dc:date>2024-10-02T14:29:30.923729</dc:date>
    <dc:format>image/svg+xml</dc:format>
    <dc:creator>
     <cc:Agent>
      <dc:title>Matplotlib v3.5.1, https://matplotlib.org/</dc:title>
     </cc:Agent>
    </dc:creator>
   </cc:Work>
  </rdf:RDF>
 </metadata>
 <defs>
  <style type="text/css">*{stroke-linejoin: round; stroke-linecap: butt}</style>
 </defs>
 <g id="figure_1">
  <g id="patch_1">
   <path d="M 0 345.6 
L 460.8 345.6 
L 460.8 0 
L 0 0 
z
" style="fill: #ffffff"/>
  </g>
  <g id="axes_1">
   <g id="patch_2">
    <path d="M 57.6 307.584 
L 414.72 307.584 
L 414.72 41.472 
L 57.6 41.472 
z
" style="fill: #ffffff"/>
   </g>
   <g id="matplotlib.axis_1">
    <g id="xtick_1">
     <g id="line2d_1">
      <defs>
       <path id="m806db1a2ac" d="M 0 0 
L 0 3.5 
" style="stroke: #000000; stroke-width: 0.8"/>
      </defs>
      <g>
       <use xlink:href="#m806db1a2ac" x="73.832727" y="307.584" style="stroke: #000000; stroke-width: 0.8"/>
      </g>
     </g>
     <g id="text_1">
      <!-- 0.0 -->
      <g transform="translate(65.881165 322.182437)scale(0.1 -0.1)">
       <defs>
        <path id="DejaVuSans-30" d="M 2034 4250 
Q 1547 4250 1301 3770 
Q 1056 3291 1056 2328 
Q 1056 1369 1301 889 
Q 1547 409 2034 409 
Q 2525 409 2770 889 
Q 3016 1369 3016 2328 
Q 3016 3291 2770 3770 
Q 2525 4250 2034 4250 
z
M 2034 4750 
Q 2819 4750 3233 4129 
Q 3647 3509 3647 2328 
Q 3647 1150 3233 529 
Q 2819 -91 2034 -91 
Q 1250 -91 836 529 
Q 422 1150 422 2328 
Q 422 3509 836 4129 
Q 1250 4750 2034 4750 
z
" transform="scale(0.015625)"/>
        <path id="DejaVuSans-2e" d="M 684 794 
L 1344 794 
L 1344 0 
L 684 0 
L 684 794 
z
" transform="scale(0.015625)"/>
       </defs>
       <use xlink:href="#DejaVuSans-30"/>
       <use xlink:href="#DejaVuSans-2e" x="63.623047"/>
       <use xlink:href="#DejaVuSans-30" x="95.410156"/>
      </g>
     </g>
    </g>
    <g id="xtick_2">
     <g id="line2d_2">
      <g>
       <use xlink:href="#m806db1a2ac" x="138.763636" y="307.584" style="stroke: #000000; stroke-width: 0.8"/>
      </g>
     </g>
     <g id="text_2">
      <!-- 0.2 -->
      <g transform="translate(130.812074 322.182437)scale(0.1 -0.1)">
       <defs>
        <path id="DejaVuSans-32" d="M 1228 531 
L 3431 531 
L 3431 0 
L 469 0 
L 469 531 
Q 828 903 1448 1529 
Q 2069 2156 2228 2338 
Q 2531 2678 2651 2914 
Q 2772 3150 2772 3378 
Q 2772 3750 2511 3984 
Q 2250 4219 1831 4219 
Q 1534 4219 1204 4116 
Q 875 4013 500 3803 
L 500 4441 
Q 881 4594 1212 4672 
Q 1544 4750 1819 4750 
Q 2544 4750 2975 4387 
Q 3406 4025 3406 3419 
Q 3406 3131 3298 2873 
Q 3191 2616 2906 2266 
Q 2828 2175 2409 1742 
Q 1991 1309 1228 531 
z
" transform="scale(0.015625)"/>
       </defs>
       <use xlink:href="#DejaVuSans-30"/>
       <use xlink:href="#DejaVuSans-2e" x="63.623047"/>
       <use xlink:href="#DejaVuSans-32" x="95.410156"/>
      </g>
     </g>
    </g>
    <g id="xtick_3">
     <g id="line2d_3">
      <g>
       <use xlink:href="#m806db1a2ac" x="203.694545" y="307.584" style="stroke: #000000; stroke-width: 0.8"/>
      </g>
     </g>
     <g id="text_3">
      <!-- 0.4 -->
      <g transform="translate(195.742983 322.182437)scale(0.1 -0.1)">
       <defs>
        <path id="DejaVuSans-34" d="M 2419 4116 
L 825 1625 
L 2419 1625 
L 2419 4116 
z
M 2253 4666 
L 3047 4666 
L 3047 1625 
L 3713 1625 
L 3713 1100 
L 3047 1100 
L 3047 0 
L 2419 0 
L 2419 1100 
L 313 1100 
L 313 1709 
L 2253 4666 
z
" transform="scale(0.015625)"/>
       </defs>
       <use xlink:href="#DejaVuSans-30"/>
       <use xlink:href="#DejaVuSans-2e" x="63.623047"/>
       <use xlink:href="#DejaVuSans-34" x="95.410156"/>
      </g>
     </g>
    </g>
    <g id="xtick_4">
     <g id="line2d_4">
      <g>
       <use xlink:href="#m806db1a2ac" x="268.625455" y="307.584" style="stroke: #000000; stroke-width: 0.8"/>
      </g>
     </g>
     <g id="text_4">
      <!-- 0.6 -->
      <g transform="translate(260.673892 322.182437)scale(0.1 -0.1)">
       <defs>
        <path id="DejaVuSans-36" d="M 2113 2584 
Q 1688 2584 1439 2293 
Q 1191 2003 1191 1497 
Q 1191 994 1439 701 
Q 1688 409 2113 409 
Q 2538 409 2786 701 
Q 3034 994 3034 1497 
Q 3034 2003 2786 2293 
Q 2538 2584 2113 2584 
z
M 3366 4563 
L 3366 3988 
Q 3128 4100 2886 4159 
Q 2644 4219 2406 4219 
Q 1781 4219 1451 3797 
Q 1122 3375 1075 2522 
Q 1259 2794 1537 2939 
Q 1816 3084 2150 3084 
Q 2853 3084 3261 2657 
Q 3669 2231 3669 1497 
Q 3669 778 3244 343 
Q 2819 -91 2113 -91 
Q 1303 -91 875 529 
Q 447 1150 447 2328 
Q 447 3434 972 4092 
Q 1497 4750 2381 4750 
Q 2619 4750 2861 4703 
Q 3103 4656 3366 4563 
z
" transform="scale(0.015625)"/>
       </defs>
       <use xlink:href="#DejaVuSans-30"/>
       <use xlink:href="#DejaVuSans-2e" x="63.623047"/>
       <use xlink:href="#DejaVuSans-36" x="95.410156"/>
      </g>
     </g>
    </g>
    <g id="xtick_5">
     <g id="line2d_5">
      <g>
       <use xlink:href="#m806db1a2ac" x="333.556364" y="307.584" style="stroke: #000000; stroke-width: 0.8"/>
      </g>
     </g>
     <g id="text_5">
      <!-- 0.8 -->
      <g transform="translate(325.604801 322.182437)scale(0.1 -0.1)">
       <defs>
        <path id="DejaVuSans-38" d="M 2034 2216 
Q 1584 2216 1326 1975 
Q 1069 1734 1069 1313 
Q 1069 891 1326 650 
Q 1584 409 2034 409 
Q 2484 409 2743 651 
Q 3003 894 3003 1313 
Q 3003 1734 2745 1975 
Q 2488 2216 2034 2216 
z
M 1403 2484 
Q 997 2584 770 2862 
Q 544 3141 544 3541 
Q 544 4100 942 4425 
Q 1341 4750 2034 4750 
Q 2731 4750 3128 4425 
Q 3525 4100 3525 3541 
Q 3525 3141 3298 2862 
Q 3072 2584 2669 2484 
Q 3125 2378 3379 2068 
Q 3634 1759 3634 1313 
Q 3634 634 3220 271 
Q 2806 -91 2034 -91 
Q 1263 -91 848 271 
Q 434 634 434 1313 
Q 434 1759 690 2068 
Q 947 2378 1403 2484 
z
M 1172 3481 
Q 1172 3119 1398 2916 
Q 1625 2713 2034 2713 
Q 2441 2713 2670 2916 
Q 2900 3119 2900 3481 
Q 2900 3844 2670 4047 
Q 2441 4250 2034 4250 
Q 1625 4250 1398 4047 
Q 1172 3844 1172 3481 
z
" transform="scale(0.015625)"/>
       </defs>
       <use xlink:href="#DejaVuSans-30"/>
       <use xlink:href="#DejaVuSans-2e" x="63.623047"/>
       <use xlink:href="#DejaVuSans-38" x="95.410156"/>
      </g>
     </g>
    </g>
    <g id="xtick_6">
     <g id="line2d_6">
      <g>
       <use xlink:href="#m806db1a2ac" x="398.487273" y="307.584" style="stroke: #000000; stroke-width: 0.8"/>
      </g>
     </g>
     <g id="text_6">
      <!-- 1.0 -->
      <g transform="translate(390.53571 322.182437)scale(0.1 -0.1)">
       <defs>
        <path id="DejaVuSans-31" d="M 794 531 
L 1825 531 
L 1825 4091 
L 703 3866 
L 703 4441 
L 1819 4666 
L 2450 4666 
L 2450 531 
L 3481 531 
L 3481 0 
L 794 0 
L 794 531 
z
" transform="scale(0.015625)"/>
       </defs>
       <use xlink:href="#DejaVuSans-31"/>
       <use xlink:href="#DejaVuSans-2e" x="63.623047"/>
       <use xlink:href="#DejaVuSans-30" x="95.410156"/>
      </g>
     </g>
    </g>
   </g>
   <g id="matplotlib.axis_2">
    <g id="ytick_1">
     <g id="line2d_7">
      <defs>
       <path id="m6d6a533783" d="M 0 0 
L -3.5 0 
" style="stroke: #000000; stroke-width: 0.8"/>
      </defs>
      <g>
       <use xlink:href="#m6d6a533783" x="57.6" y="290.092405" style="stroke: #000000; stroke-width: 0.8"/>
      </g>
     </g>
     <g id="text_7">
      <!-- −3 -->
      <g transform="translate(35.857813 293.891623)scale(0.1 -0.1)">
       <defs>
        <path id="DejaVuSans-2212" d="M 678 2272 
L 4684 2272 
L 4684 1741 
L 678 1741 
L 678 2272 
z
" transform="scale(0.015625)"/>
        <path id="DejaVuSans-33" d="M 2597 2516 
Q 3050 2419 3304 2112 
Q 3559 1806 3559 1356 
Q 3559 666 3084 287 
Q 2609 -91 1734 -91 
Q 1441 -91 1130 -33 
Q 819 25 488 141 
L 488 750 
Q 750 597 1062 519 
Q 1375 441 1716 441 
Q 2309 441 2620 675 
Q 2931 909 2931 1356 
Q 2931 1769 2642 2001 
Q 2353 2234 1838 2234 
L 1294 2234 
L 1294 2753 
L 1863 2753 
Q 2328 2753 2575 2939 
Q 2822 3125 2822 3475 
Q 2822 3834 2567 4026 
Q 2313 4219 1838 4219 
Q 1578 4219 1281 4162 
Q 984 4106 628 3988 
L 628 4550 
Q 988 4650 1302 4700 
Q 1616 4750 1894 4750 
Q 2613 4750 3031 4423 
Q 3450 4097 3450 3541 
Q 3450 3153 3228 2886 
Q 3006 2619 2597 2516 
z
" transform="scale(0.015625)"/>
       </defs>
       <use xlink:href="#DejaVuSans-2212"/>
       <use xlink:href="#DejaVuSans-33" x="83.789062"/>
      </g>
     </g>
    </g>
    <g id="ytick_2">
     <g id="line2d_8">
      <g>
       <use xlink:href="#m6d6a533783" x="57.6" y="251.576538" style="stroke: #000000; stroke-width: 0.8"/>
      </g>
     </g>
     <g id="text_8">
      <!-- −2 -->
      <g transform="translate(35.857813 255.375757)scale(0.1 -0.1)">
       <use xlink:href="#DejaVuSans-2212"/>
       <use xlink:href="#DejaVuSans-32" x="83.789062"/>
      </g>
     </g>
    </g>
    <g id="ytick_3">
     <g id="line2d_9">
      <g>
       <use xlink:href="#m6d6a533783" x="57.6" y="213.060672" style="stroke: #000000; stroke-width: 0.8"/>
      </g>
     </g>
     <g id="text_9">
      <!-- −1 -->
      <g transform="translate(35.857813 216.859891)scale(0.1 -0.1)">
       <use xlink:href="#DejaVuSans-2212"/>
       <use xlink:href="#DejaVuSans-31" x="83.789062"/>
      </g>
     </g>
    </g>
    <g id="ytick_4">
     <g id="line2d_10">
      <g>
       <use xlink:href="#m6d6a533783" x="57.6" y="174.544806" style="stroke: #000000; stroke-width: 0.8"/>
      </g>
     </g>
     <g id="text_10">
      <!-- 0 -->
      <g transform="translate(44.2375 178.344025)scale(0.1 -0.1)">
       <use xlink:href="#DejaVuSans-30"/>
      </g>
     </g>
    </g>
    <g id="ytick_5">
     <g id="line2d_11">
      <g>
       <use xlink:href="#m6d6a533783" x="57.6" y="136.02894" style="stroke: #000000; stroke-width: 0.8"/>
      </g>
     </g>
     <g id="text_11">
      <!-- 1 -->
      <g transform="translate(44.2375 139.828159)scale(0.1 -0.1)">
       <use xlink:href="#DejaVuSans-31"/>
      </g>
     </g>
    </g>
    <g id="ytick_6">
     <g id="line2d_12">
      <g>
       <use xlink:href="#m6d6a533783" x="57.6" y="97.513074" style="stroke: #000000; stroke-width: 0.8"/>
      </g>
     </g>
     <g id="text_12">
      <!-- 2 -->
      <g transform="translate(44.2375 101.312292)scale(0.1 -0.1)">
       <use xlink:href="#DejaVuSans-32"/>
      </g>
     </g>
    </g>
    <g id="ytick_7">
     <g id="line2d_13">
      <g>
       <use xlink:href="#m6d6a533783" x="57.6" y="58.997207" style="stroke: #000000; stroke-width: 0.8"/>
      </g>
     </g>
     <g id="text_13">
      <!-- 3 -->
      <g transform="translate(44.2375 62.796426)scale(0.1 -0.1)">
       <use xlink:href="#DejaVuSans-33"/>
      </g>
     </g>
    </g>
   </g>
   <g id="line2d_14">
    <path d="M 73.832727 169.012662 
L 74.016988 169.337724 
L 74.201248 170.583237 
L 74.385508 170.616641 
L 74.754028 166.691083 
L 75.12255 170.006667 
L 75.491069 169.105702 
L 75.675329 169.888212 
L 76.04385 173.1771 
L 76.228109 172.668691 
L 76.412371 171.431816 
L 76.596631 171.820688 
L 76.965152 170.341631 
L 77.149413 171.317795 
L 77.333673 171.531303 
L 77.702194 171.490045 
L 77.886454 171.476163 
L 78.070714 171.624995 
L 78.254974 172.113641 
L 78.439235 172.193002 
L 78.807756 173.984756 
L 78.992016 173.644068 
L 79.729057 173.623278 
L 80.097578 173.592809 
L 80.281837 174.201448 
L 80.466096 173.43968 
L 80.65036 171.670696 
L 80.83462 172.349705 
L 81.018873 174.918068 
L 81.203137 175.831755 
L 81.387398 175.295575 
L 81.755918 175.349059 
L 83.967042 175.391163 
L 84.151303 175.565638 
L 84.335559 174.640462 
L 84.519819 174.588765 
L 84.704087 175.558559 
L 85.072605 174.546711 
L 85.256866 174.840155 
L 85.441127 174.825217 
L 85.809649 174.638166 
L 86.362423 177.780309 
L 86.546688 178.413202 
L 86.730949 178.530863 
L 87.099471 180.638185 
L 87.467988 178.919007 
L 87.83651 180.163636 
L 88.020764 179.439687 
L 88.205021 179.865059 
L 88.573547 182.096449 
L 88.757803 181.250117 
L 89.126329 178.364066 
L 89.494851 179.812924 
L 89.67911 179.176559 
L 89.863361 180.232043 
L 90.047638 181.979952 
L 90.416158 179.263797 
L 90.78467 180.698921 
L 90.968935 180.5885 
L 91.337451 182.621333 
L 91.705974 183.222717 
L 91.890231 182.374391 
L 92.258751 183.151803 
L 92.443005 183.620387 
L 92.627268 183.659372 
L 92.811534 182.869168 
L 93.180053 184.066804 
L 93.732832 184.329143 
L 93.917098 184.640558 
L 94.10134 186.379718 
L 94.285605 186.818253 
L 94.654127 186.032177 
L 94.838387 185.994781 
L 95.022648 186.088633 
L 95.391171 185.948659 
L 95.759694 188.642592 
L 96.312472 188.0528 
L 96.68099 189.389152 
L 96.865252 188.524878 
L 97.049505 188.979449 
L 97.233766 189.088558 
L 97.418028 188.783208 
L 97.602292 189.150571 
L 97.970809 190.787065 
L 98.155073 190.40574 
L 98.523592 192.632274 
L 98.707851 192.751556 
L 99.076377 190.722654 
L 99.62915 194.536555 
L 99.813413 194.041354 
L 99.997669 193.015137 
L 100.181929 192.927599 
L 100.366181 192.255688 
L 100.734704 189.289716 
L 100.91897 188.705714 
L 101.103229 188.732798 
L 101.287488 190.155306 
L 101.471745 193.178681 
L 101.656007 194.281479 
L 101.840269 194.203106 
L 102.024523 193.438896 
L 102.208792 191.927569 
L 102.393051 191.36494 
L 102.761582 192.823737 
L 103.130104 197.943337 
L 103.498686 196.534203 
L 104.051314 215.527085 
L 104.604092 217.49564 
L 105.709667 224.188343 
L 106.078184 228.510812 
L 106.262428 229.26433 
L 106.446689 229.171756 
L 106.630948 228.807849 
L 106.815231 229.847425 
L 107.183729 233.919259 
L 107.367985 233.375954 
L 108.47355 233.374111 
L 108.842066 231.707293 
L 109.026332 231.884223 
L 109.394837 233.72611 
L 109.579102 233.304597 
L 109.94761 232.316955 
L 110.131865 231.611785 
L 110.31614 229.862785 
L 110.500383 230.081367 
L 110.684655 230.654757 
L 110.86891 230.471292 
L 111.053181 230.758333 
L 111.421713 232.984198 
L 111.974469 226.284638 
L 112.15874 226.168582 
L 112.711509 231.5454 
L 113.080032 228.795363 
L 113.264274 228.135145 
L 113.448557 228.426154 
L 113.632789 230.683139 
L 113.817069 230.953434 
L 114.00132 229.142093 
L 114.185572 229.376421 
L 114.369849 230.666349 
L 114.554097 230.52957 
L 114.738354 231.301079 
L 114.922622 232.858101 
L 115.106884 231.71674 
L 115.475405 226.441326 
L 115.659651 226.423612 
L 115.843934 227.173652 
L 116.212436 230.671829 
L 116.396695 230.592738 
L 116.949461 227.731756 
L 117.133734 227.852923 
L 117.502249 229.893858 
L 117.68649 230.57682 
L 117.87072 229.942456 
L 118.239257 228.094176 
L 118.42353 227.706157 
L 118.976317 229.74758 
L 119.52909 226.514588 
L 120.081862 231.603645 
L 120.450385 228.943308 
L 120.634623 228.260906 
L 120.818911 228.534591 
L 121.003136 230.705222 
L 121.187418 230.768548 
L 121.371669 228.776993 
L 121.555921 228.914941 
L 121.7402 230.093831 
L 121.924438 229.61896 
L 122.108705 229.855983 
L 122.292978 230.956773 
L 122.661511 228.201482 
L 123.030019 231.006099 
L 123.214245 229.844965 
L 123.398513 229.638755 
L 123.582788 230.077292 
L 123.767013 228.969804 
L 123.9513 229.041716 
L 124.135544 230.851943 
L 124.319805 230.301262 
L 124.504069 228.13094 
L 124.688311 228.076006 
L 125.056845 229.734725 
L 125.241094 231.614075 
L 125.425372 231.063607 
L 125.793893 225.920608 
L 125.978126 226.160238 
L 126.162426 227.211365 
L 126.530927 231.887087 
L 126.715177 231.109461 
L 127.083692 227.590077 
L 127.267962 227.747039 
L 127.636457 229.892317 
L 128.004979 228.812324 
L 128.189214 229.414961 
L 128.373502 229.330542 
L 128.557743 227.632084 
L 128.74199 227.861903 
L 129.110525 229.958431 
L 129.29477 229.504096 
L 129.479037 229.748867 
L 129.663311 230.870773 
L 130.031845 228.178315 
L 130.400352 231.015603 
L 130.58457 229.817384 
L 130.768842 229.554474 
L 130.953117 229.968942 
L 131.137339 228.881983 
L 131.321627 228.946783 
L 131.505873 230.552333 
L 131.690136 229.694644 
L 131.874388 227.231827 
L 132.427175 226.281172 
L 132.61142 227.222431 
L 132.795645 225.827891 
L 132.979961 223.529223 
L 133.348454 225.448483 
L 133.716967 224.502308 
L 133.901225 224.602221 
L 134.269741 224.576365 
L 134.638279 223.882123 
L 134.822487 225.496935 
L 135.006781 225.620184 
L 135.191024 223.954124 
L 135.743808 222.187987 
L 135.928059 223.104646 
L 136.112291 222.201276 
L 136.296582 220.738085 
L 136.48084 220.424736 
L 136.849358 218.846675 
L 137.217871 221.827719 
L 137.402115 221.66552 
L 137.770638 220.106106 
L 137.954873 220.521295 
L 138.507655 223.101773 
L 138.691909 223.011304 
L 139.244678 223.836292 
L 139.428926 223.974273 
L 139.613182 223.527364 
L 139.797469 222.504331 
L 140.165971 223.991741 
L 140.350225 224.005319 
L 140.718741 224.281709 
L 140.903041 225.718466 
L 141.08721 228.569804 
L 141.271537 229.49813 
L 141.455767 228.142133 
L 142.008559 227.758958 
L 142.1928 228.597562 
L 142.377054 228.373586 
L 142.561332 227.810107 
L 142.745581 228.298536 
L 143.114099 227.605802 
L 143.298357 228.081828 
L 143.482623 228.09064 
L 143.851163 230.179708 
L 144.219649 227.360141 
L 144.588171 227.183065 
L 144.772397 228.14751 
L 145.140947 228.555686 
L 145.325165 230.093203 
L 145.509442 229.443303 
L 145.693692 227.126883 
L 145.877942 226.633758 
L 146.062209 226.811206 
L 146.430746 229.858471 
L 146.799269 227.119122 
L 147.167742 229.398365 
L 147.351999 228.850097 
L 147.536257 228.654701 
L 147.720531 228.675088 
L 147.90474 229.807491 
L 148.089057 229.863101 
L 148.273249 227.8747 
L 148.457552 228.020835 
L 148.641781 230.045279 
L 148.826056 229.379232 
L 149.010298 226.96266 
L 149.19455 226.372832 
L 149.378819 226.555471 
L 149.747351 229.872039 
L 150.115833 228.537179 
L 150.300112 228.686887 
L 150.668608 226.181216 
L 150.852854 226.026057 
L 151.037115 226.140735 
L 151.405633 227.38051 
L 151.589882 225.887835 
L 151.958421 220.646879 
L 152.326934 223.106834 
L 152.511184 222.617644 
L 153.432481 215.365418 
L 153.616715 214.900229 
L 153.801005 214.009826 
L 154.353749 206.699683 
L 154.722283 205.377316 
L 155.090784 207.029653 
L 155.275035 207.060905 
L 155.459317 206.888818 
L 155.827825 203.483045 
L 156.012076 203.076847 
L 156.196325 203.54896 
L 156.380587 203.620844 
L 156.564853 203.3552 
L 156.749106 203.66907 
L 156.933383 203.267864 
L 157.301894 200.243258 
L 157.854661 199.226064 
L 158.038966 198.093303 
L 158.407457 194.283214 
L 158.775968 191.803789 
L 159.328615 186.057243 
L 159.512924 184.98472 
L 159.697185 184.597384 
L 159.881408 183.410897 
L 160.065769 181.232288 
L 160.434193 175.520913 
L 160.618408 174.202229 
L 160.987011 168.723303 
L 161.355469 162.588516 
L 161.539671 161.84993 
L 161.908195 161.660812 
L 162.092455 161.117096 
L 162.645191 155.097352 
L 162.829435 154.988467 
L 163.197945 154.072735 
L 163.382202 154.025456 
L 163.566441 153.727073 
L 163.934959 152.314592 
L 164.119222 152.177454 
L 164.671999 152.2105 
L 164.85626 152.144159 
L 165.040521 152.214564 
L 165.224781 152.142796 
L 165.409039 152.200783 
L 165.961796 151.802843 
L 166.14606 151.626463 
L 166.330289 151.267605 
L 166.514567 151.87079 
L 166.698822 153.495415 
L 166.883061 153.500636 
L 167.251578 153.220938 
L 167.43584 153.104592 
L 167.988624 153.137228 
L 168.172876 153.073206 
L 168.357165 153.831077 
L 168.541372 155.338075 
L 168.725628 155.432081 
L 168.909893 155.280129 
L 169.094175 155.348926 
L 169.462669 153.601003 
L 169.646934 153.739591 
L 169.83115 154.350279 
L 170.015505 155.98281 
L 170.383967 162.129988 
L 170.752432 163.050947 
L 170.936773 164.260494 
L 171.489479 173.880211 
L 171.857979 171.658625 
L 172.042231 171.865304 
L 172.226485 171.520887 
L 172.41069 172.118304 
L 172.595053 174.071283 
L 173.147737 186.262592 
L 173.332064 187.350933 
L 173.700527 191.493312 
L 174.253228 195.393017 
L 174.621727 195.533024 
L 174.806026 196.148648 
L 175.174518 199.79182 
L 175.358744 199.797081 
L 175.543028 199.485774 
L 175.727234 198.587592 
L 175.911493 198.545852 
L 176.095764 199.008739 
L 176.464281 199.149081 
L 176.648507 199.674639 
L 176.83281 199.26643 
L 177.017023 197.72751 
L 177.201272 197.586261 
L 177.3855 197.257028 
L 177.569803 197.369894 
L 177.754034 198.695056 
L 177.938281 198.747686 
L 178.306794 198.572143 
L 178.675313 198.550378 
L 179.228097 198.504994 
L 179.412351 198.588137 
L 179.596627 198.912827 
L 179.780839 199.783892 
L 179.965097 199.820831 
L 180.333615 198.814081 
L 180.702115 198.869843 
L 181.070608 199.274695 
L 181.254857 199.236583 
L 181.439112 198.452728 
L 181.623385 197.14819 
L 181.991888 197.222139 
L 182.176144 196.961083 
L 182.360415 196.988834 
L 182.728899 199.348969 
L 183.281653 199.097983 
L 183.465956 198.467975 
L 183.650133 196.882193 
L 183.834391 196.620511 
L 184.202889 196.827277 
L 184.387137 196.849259 
L 184.755626 196.651187 
L 185.308395 198.891142 
L 186.045436 198.839354 
L 186.229713 198.324329 
L 186.413948 197.46536 
L 186.78244 197.906606 
L 187.335189 197.795958 
L 187.519417 197.421037 
L 187.703669 197.562318 
L 188.256463 202.187903 
L 188.440712 201.829039 
L 188.809218 202.196567 
L 188.993475 202.036033 
L 189.546245 198.262344 
L 189.914798 199.029239 
L 190.283273 201.738164 
L 190.467505 202.013017 
L 191.204546 210.99253 
L 191.573031 219.386522 
L 191.757221 219.899482 
L 191.941599 221.020915 
L 192.310009 225.737025 
L 192.494222 226.100987 
L 192.678467 226.095307 
L 192.862823 227.097901 
L 193.046883 231.619366 
L 193.599593 250.726232 
L 193.784091 253.195158 
L 194.15228 261.862273 
L 194.336431 262.959547 
L 194.520749 266.462857 
L 195.073527 283.80914 
L 195.257704 284.032463 
L 195.441982 284.049978 
L 195.626243 284.225269 
L 196.178975 285.320353 
L 196.363231 285.344649 
L 196.547469 286.147539 
L 196.915911 292.418296 
L 197.100187 292.764963 
L 197.46874 291.980564 
L 197.652958 290.534477 
L 197.837222 290.097229 
L 198.205681 292.956493 
L 198.389979 292.360609 
L 198.574228 290.114624 
L 198.758511 289.573657 
L 199.127016 291.261048 
L 199.311289 291.432078 
L 199.495486 292.35674 
L 199.67982 291.748572 
L 199.863992 289.628346 
L 200.048269 288.938871 
L 200.232571 289.678246 
L 200.416688 291.85529 
L 200.601126 292.633422 
L 200.969542 288.360785 
L 201.153751 288.065974 
L 201.338004 288.122097 
L 201.706517 285.304986 
L 201.890751 285.280175 
L 202.627791 283.033197 
L 202.812055 282.997215 
L 202.996277 282.774555 
L 203.180616 281.88306 
L 204.101852 270.863104 
L 204.470481 260.487644 
L 204.838814 251.705044 
L 205.207143 245.448327 
L 205.575607 242.939679 
L 206.128368 234.956094 
L 206.312569 234.943361 
L 207.049334 218.671929 
L 207.234082 215.998076 
L 207.602163 205.86424 
L 207.786246 205.739232 
L 207.970411 204.223035 
L 208.338715 195.85787 
L 208.707478 190.864921 
L 209.260239 183.874716 
L 209.444448 182.769845 
L 209.997226 175.269847 
L 210.365725 175.798351 
L 210.549953 176.084166 
L 210.918445 172.557379 
L 211.102777 173.516963 
L 211.286909 175.777036 
L 211.471193 176.073441 
L 211.655459 175.579982 
L 212.023991 176.091864 
L 212.208141 175.305618 
L 212.392713 176.656403 
L 212.576494 179.939326 
L 212.760653 179.546416 
L 212.945128 179.484363 
L 213.313811 186.680413 
L 213.681929 194.328533 
L 213.866066 196.360241 
L 214.603107 217.069436 
L 214.78739 217.709891 
L 215.155907 217.610102 
L 215.340141 217.886402 
L 215.524496 220.286776 
L 215.892966 227.72215 
L 216.261407 226.426778 
L 216.445635 226.571694 
L 216.998384 230.485075 
L 217.182667 231.419959 
L 217.366887 233.205848 
L 217.551198 232.899216 
L 217.735398 231.510204 
L 217.919663 231.379027 
L 218.103933 232.059962 
L 218.288189 232.292103 
L 218.472367 231.55496 
L 218.656725 232.488595 
L 219.577901 250.920854 
L 219.94632 261.305378 
L 220.314666 271.341596 
L 220.683255 274.549447 
L 221.051934 281.325623 
L 221.420015 292.57233 
L 221.604069 292.696093 
L 221.788382 292.564397 
L 221.972626 292.720229 
L 222.156901 292.598683 
L 222.341115 292.315166 
L 222.525484 293.885129 
L 222.709555 55.482746 
L 222.893954 56.987205 
L 223.078108 56.009651 
L 223.262408 55.941967 
L 223.630928 56.606353 
L 223.815161 56.898429 
L 224.183678 54.832653 
L 224.552177 58.23742 
L 224.736428 58.463237 
L 224.920683 58.137878 
L 225.104958 58.352102 
L 225.473402 60.427395 
L 225.657633 60.452184 
L 226.026183 58.940199 
L 226.394658 60.976273 
L 226.578919 61.135403 
L 226.763155 61.590039 
L 227.131657 61.035921 
L 227.315878 60.587458 
L 227.500195 61.241159 
L 227.684395 62.429566 
L 228.05287 62.440276 
L 228.421393 60.245159 
L 228.605626 60.149402 
L 228.789911 60.43628 
L 229.158365 63.454701 
L 229.342598 63.302444 
L 229.711125 63.450206 
L 230.079639 63.384967 
L 230.448134 63.196596 
L 230.632343 62.378742 
L 230.816664 62.391596 
L 231.000869 63.347306 
L 231.553631 63.788062 
L 232.843417 64.142031 
L 233.21194 67.00966 
L 233.58041 66.586541 
L 233.764666 66.968943 
L 233.948931 66.845091 
L 234.317378 64.754448 
L 234.501622 65.104463 
L 234.685893 65.09057 
L 234.870122 64.810385 
L 235.23862 67.463937 
L 235.422859 67.50724 
L 235.607105 67.424766 
L 235.791353 67.579491 
L 236.159885 69.752971 
L 236.34409 69.084944 
L 236.528385 69.238685 
L 236.712639 69.689755 
L 236.896865 69.305119 
L 237.081107 69.744694 
L 237.265415 69.59946 
L 237.449624 68.8269 
L 237.63386 68.912766 
L 237.818088 68.315805 
L 238.00239 68.171186 
L 238.186619 68.803047 
L 238.555122 68.75731 
L 238.9236 69.820669 
L 239.107911 68.632919 
L 239.292108 66.223221 
L 239.476409 65.701639 
L 239.844912 68.79181 
L 240.029146 68.876211 
L 240.397659 71.242554 
L 240.5819 71.301036 
L 240.950397 69.178136 
L 241.134693 70.253145 
L 241.503197 72.830098 
L 241.687432 73.122614 
L 241.87167 72.982994 
L 242.240152 72.224294 
L 242.424418 73.015721 
L 242.608684 74.857491 
L 242.79295 75.547134 
L 243.345696 74.423119 
L 243.52994 74.732671 
L 243.714214 75.437794 
L 243.898484 75.358223 
L 244.082655 74.548849 
L 244.266925 74.342518 
L 244.451161 74.58689 
L 244.635446 76.396039 
L 245.003954 81.798602 
L 245.188163 81.549792 
L 245.37241 81.565899 
L 245.740877 83.916578 
L 245.925156 84.007273 
L 246.109418 83.742286 
L 246.477938 83.787843 
L 246.6622 83.846634 
L 246.846456 83.582457 
L 247.03075 83.893543 
L 247.399207 85.84445 
L 247.583469 85.560917 
L 247.767669 84.766815 
L 247.951942 84.644006 
L 248.136202 84.805909 
L 248.504724 84.790077 
L 248.688978 84.489717 
L 248.873272 84.871961 
L 249.241742 86.599347 
L 249.7945 85.502856 
L 249.978781 86.120306 
L 250.162996 87.14462 
L 250.347278 87.470875 
L 250.531531 87.140977 
L 250.7158 87.366614 
L 251.084316 88.640694 
L 251.268569 88.614075 
L 251.45284 88.311659 
L 251.637063 87.287312 
L 251.821369 87.193915 
L 252.00557 87.743004 
L 252.374055 84.219379 
L 252.926841 88.418959 
L 253.111058 89.091432 
L 253.29537 88.926563 
L 253.479593 88.301895 
L 253.848111 89.848715 
L 254.032345 89.486741 
L 254.400847 89.521726 
L 254.585091 89.300337 
L 254.769403 89.955946 
L 255.137836 92.963687 
L 255.506342 93.883904 
L 255.69054 93.181263 
L 255.874807 93.007326 
L 256.059109 92.335857 
L 256.243306 91.134463 
L 256.427573 90.910633 
L 256.611813 90.414373 
L 256.796112 90.55985 
L 257.164589 91.535072 
L 257.34882 91.655123 
L 257.533026 91.362738 
L 258.08581 94.190153 
L 258.270084 93.809136 
L 258.454301 92.992131 
L 258.822838 93.872643 
L 259.191376 92.063342 
L 259.559847 93.093796 
L 259.928333 97.191911 
L 260.112555 97.295696 
L 260.481056 98.972495 
L 260.849553 95.729012 
L 261.033756 96.229198 
L 261.402245 98.374375 
L 261.586583 97.272999 
L 261.770766 95.322822 
L 261.955038 94.854457 
L 262.139341 95.892528 
L 262.507819 99.816697 
L 262.876343 98.325571 
L 263.244827 99.996855 
L 263.981805 100.896764 
L 264.350323 102.616758 
L 264.534554 102.246773 
L 264.718808 102.133037 
L 265.087287 103.100015 
L 265.271516 102.777979 
L 265.455777 102.718032 
L 265.640051 103.372263 
L 265.824296 103.591029 
L 266.008547 103.542974 
L 266.192762 103.914779 
L 266.561292 101.922836 
L 266.929798 105.337138 
L 267.11405 105.769599 
L 267.298316 105.625237 
L 267.4825 104.854054 
L 267.666779 104.900869 
L 267.851019 105.291232 
L 268.219482 108.52589 
L 268.403831 107.77249 
L 268.772304 103.207815 
L 269.140818 106.216945 
L 269.509299 105.998735 
L 269.693516 105.573888 
L 270.246336 106.492331 
L 270.430493 107.725928 
L 270.799029 108.514145 
L 270.983358 107.984559 
L 271.167472 106.45559 
L 271.351846 107.368769 
L 271.535998 109.158125 
L 271.904538 106.637233 
L 272.088784 106.614379 
L 272.27302 106.202755 
L 272.641557 106.916007 
L 272.825795 106.84019 
L 273.194309 108.783603 
L 273.378561 108.863396 
L 273.562825 108.551217 
L 273.747099 108.739623 
L 273.931286 109.306123 
L 274.299791 107.719827 
L 274.484091 108.632298 
L 274.852561 110.95976 
L 275.036829 110.564065 
L 275.405318 109.057128 
L 275.773838 106.355562 
L 275.95807 106.388252 
L 276.326556 106.135105 
L 276.510773 105.642356 
L 277.063599 106.643797 
L 277.432056 108.866344 
L 277.616281 109.291955 
L 277.800575 108.632368 
L 277.984797 106.942654 
L 278.169079 106.363606 
L 278.537583 108.199915 
L 278.721881 107.727808 
L 279.090374 106.18931 
L 279.274553 105.636256 
L 279.45889 107.310287 
L 279.643054 110.402126 
L 279.827391 111.11753 
L 280.195871 109.163457 
L 280.380147 108.705187 
L 280.564348 107.406776 
L 280.748637 106.903233 
L 280.932891 107.451099 
L 281.301409 109.685076 
L 281.485657 109.832704 
L 282.038422 107.093137 
L 282.222674 106.744405 
L 282.406963 106.850015 
L 282.591166 107.514019 
L 282.959657 109.422383 
L 283.328138 107.591613 
L 283.696621 103.240193 
L 284.065135 102.290424 
L 284.249391 100.786767 
L 285.170668 78.412361 
L 285.354835 76.474122 
L 285.907673 66.333698 
L 286.09188 66.124232 
L 286.460317 64.005221 
L 286.828523 68.076482 
L 287.014837 73.916618 
L 287.381025 90.712862 
L 288.302026 100.022478 
L 288.486292 99.843175 
L 288.670478 100.565999 
L 289.223288 109.003245 
L 289.40752 109.470146 
L 289.591783 109.451451 
L 289.960304 106.269821 
L 290.1445 106.93717 
L 290.512988 110.813812 
L 290.697246 110.704371 
L 290.88151 111.372087 
L 291.250031 113.332639 
L 291.618554 113.434002 
L 291.802798 112.960697 
L 291.987168 114.110995 
L 292.355589 120.392246 
L 292.724066 122.640723 
L 293.092576 123.551642 
L 293.276828 123.756827 
L 293.645345 124.651904 
L 294.013828 125.664021 
L 294.198079 124.394103 
L 294.38238 124.121024 
L 294.566566 125.650454 
L 294.750878 125.84966 
L 294.935085 124.728837 
L 295.303553 118.786593 
L 295.672077 111.76208 
L 295.856455 111.790252 
L 296.040619 112.965209 
L 296.409151 112.20079 
L 296.593409 112.56841 
L 296.777706 112.030288 
L 297.146169 109.147318 
L 297.330451 109.772813 
L 297.514693 109.942707 
L 297.883138 107.944277 
L 298.251646 109.475993 
L 298.43587 108.845856 
L 298.620143 108.790591 
L 298.804395 109.306927 
L 298.988695 108.602263 
L 299.357164 106.178078 
L 299.541454 107.429011 
L 299.909934 111.811928 
L 300.278458 110.168923 
L 300.462697 110.637698 
L 300.646961 110.097277 
L 300.83124 108.285838 
L 301.015472 107.639521 
L 301.383993 110.850791 
L 301.752513 108.030125 
L 302.305259 110.754542 
L 302.489515 110.756816 
L 302.673741 110.472827 
L 303.042234 105.5145 
L 303.226506 105.406543 
L 303.595012 107.77928 
L 303.779292 107.180752 
L 304.147792 105.036979 
L 304.332102 106.48488 
L 304.516294 109.523715 
L 304.700597 110.603907 
L 304.884829 110.655247 
L 305.069097 110.407315 
L 305.621786 106.817019 
L 305.990301 110.268314 
L 306.358856 108.985314 
L 306.54306 110.186101 
L 306.72738 109.637099 
L 306.911577 107.800833 
L 307.464377 106.389692 
L 307.648624 106.694946 
L 307.832866 106.603104 
L 308.201363 109.029585 
L 308.569889 106.240646 
L 308.938437 108.404279 
L 309.122653 107.946098 
L 309.491151 107.642061 
L 309.675423 108.722949 
L 309.859713 108.660997 
L 310.043877 106.636413 
L 310.228237 106.848793 
L 310.412374 108.794589 
L 310.596787 107.617814 
L 310.965209 102.797282 
L 311.333712 102.434705 
L 311.702223 102.477356 
L 311.886469 102.2981 
L 312.070732 101.546274 
L 312.807741 91.792281 
L 312.992046 91.575497 
L 313.176251 92.317634 
L 313.360502 92.15189 
L 313.544786 91.069881 
L 315.387405 67.099807 
L 315.571525 65.1583 
L 315.755826 64.565036 
L 316.124324 64.446644 
L 316.492833 64.092664 
L 317.045582 63.429621 
L 317.229841 63.455295 
L 317.414096 63.352882 
L 317.782609 62.750793 
L 318.15111 60.66306 
L 318.335386 61.068008 
L 318.519663 60.99205 
L 318.703888 60.481775 
L 319.072412 59.009583 
L 319.440906 61.200009 
L 319.625111 61.410394 
L 319.993621 57.032462 
L 320.177902 57.248131 
L 320.362167 57.255277 
L 320.546417 57.1077 
L 320.914921 58.226428 
L 321.099219 57.192051 
L 321.28341 55.294839 
L 321.467715 55.900586 
L 321.836206 61.196631 
L 322.020447 61.032234 
L 322.388928 56.501866 
L 322.573293 56.678537 
L 322.757451 58.436669 
L 322.941725 58.79915 
L 323.310225 55.826738 
L 323.49449 55.594195 
L 323.678758 56.104183 
L 323.862949 57.47538 
L 324.04722 57.204595 
L 324.231529 54.850161 
L 324.415738 295.488 
L 324.599983 53.920266 
L 324.968507 53.961695 
L 325.705516 53.932282 
L 326.073643 55.738023 
L 326.259607 289.934466 
L 326.441632 279.892389 
L 326.626573 278.111173 
L 326.994961 276.786111 
L 327.17921 277.510452 
L 327.363484 277.526494 
L 327.547747 277.685968 
L 327.731975 278.10624 
L 327.916222 277.183741 
L 328.100517 277.548343 
L 328.284731 278.934841 
L 328.653268 278.763401 
L 329.021774 280.80515 
L 329.390293 284.176417 
L 329.758803 284.752589 
L 329.9431 285.651954 
L 330.127271 287.68321 
L 330.311574 288.131206 
L 330.495818 288.044544 
L 330.864335 290.177591 
L 331.048616 289.758589 
L 331.417128 287.98323 
L 331.601386 287.977213 
L 331.785633 288.299447 
L 331.969874 288.331834 
L 332.338383 290.901116 
L 332.706914 287.414878 
L 332.891172 287.23804 
L 333.075442 287.854288 
L 333.259643 289.89215 
L 333.443957 289.862939 
L 333.628165 288.181 
L 333.81245 287.67316 
L 333.996695 288.024814 
L 334.549484 291.957991 
L 334.73374 291.388521 
L 334.918015 291.694263 
L 335.102247 292.727789 
L 335.286515 291.983351 
L 335.655033 287.750169 
L 335.839275 287.850726 
L 336.207795 290.205853 
L 336.576293 289.010147 
L 336.760568 290.002489 
L 337.129055 294.863446 
L 337.313314 294.455706 
L 337.497591 294.703799 
L 337.681821 53.568 
L 337.866093 295.440031 
L 338.050336 295.082944 
L 338.23466 54.612812 
L 338.418828 57.199828 
L 338.603131 57.714946 
L 338.787367 57.368794 
L 339.155882 60.074849 
L 339.340174 61.739885 
L 339.708659 62.733162 
L 340.077187 66.75093 
L 340.261433 66.828462 
L 340.445686 68.095226 
L 340.629945 68.527523 
L 340.814254 69.765036 
L 340.998419 72.24375 
L 341.182729 72.501355 
L 341.551222 70.508721 
L 341.919733 65.96597 
L 342.104028 64.797161 
L 342.472537 64.22236 
L 342.656739 63.218069 
L 343.209558 54.018304 
L 343.393801 53.995226 
L 343.578063 54.276061 
L 344.130849 54.373922 
L 344.315081 54.648158 
L 344.499431 294.520282 
L 344.683573 291.11855 
L 344.867888 290.406298 
L 345.052116 290.564449 
L 345.604908 286.127018 
L 345.789169 285.892037 
L 346.157691 285.76355 
L 346.34191 285.052716 
L 346.526256 282.691484 
L 346.894712 276.476835 
L 347.447479 273.779705 
L 347.816 273.400961 
L 348.000267 272.243444 
L 348.184535 272.165088 
L 348.36879 272.264352 
L 348.553021 271.712752 
L 348.92154 269.656708 
L 349.105801 269.728832 
L 349.290033 269.262125 
L 349.658532 266.004878 
L 349.842826 266.511535 
L 350.027078 266.608979 
L 350.579851 261.734863 
L 350.764109 261.926236 
L 351.869672 261.870855 
L 352.053929 261.460036 
L 352.238207 262.036329 
L 352.422452 262.221749 
L 352.606706 260.758059 
L 352.790978 260.657063 
L 352.975227 262.266177 
L 353.159496 262.324583 
L 353.343743 260.839919 
L 353.527992 260.816549 
L 353.896483 266.164048 
L 354.08082 264.743529 
L 354.265012 261.619595 
L 354.449304 260.606079 
L 355.002083 259.839087 
L 355.370595 258.306627 
L 355.554846 257.99262 
L 355.923372 256.885958 
L 356.107629 256.897096 
L 356.660394 255.874419 
L 356.844654 256.295632 
L 357.028935 255.71795 
L 357.765968 252.044301 
L 357.950179 249.765201 
L 358.134488 249.946935 
L 358.502983 252.554762 
L 358.68724 252.62793 
L 358.871488 252.307061 
L 359.055769 253.454667 
L 359.240025 253.777002 
L 359.424267 253.058162 
L 359.608523 253.215284 
L 360.529811 259.795563 
L 360.714092 263.103338 
L 361.082581 272.531683 
L 361.819652 284.889876 
L 362.188179 285.717661 
L 362.372382 287.390546 
L 362.556839 292.700762 
L 362.740873 57.465672 
L 363.477933 70.154673 
L 363.846476 72.579717 
L 364.0307 76.390321 
L 364.39916 95.066601 
L 364.583498 98.443223 
L 364.7677 99.690412 
L 365.136219 106.93175 
L 365.504744 108.013741 
L 365.873266 113.048256 
L 366.241798 112.612901 
L 366.79458 112.654985 
L 367.34736 112.562243 
L 367.531628 113.145216 
L 367.715892 112.761511 
L 367.900132 110.948242 
L 368.084389 110.673793 
L 368.452915 114.091891 
L 368.637173 113.575807 
L 369.189954 113.547324 
L 372.138117 113.650165 
L 372.506635 111.382433 
L 372.690895 112.075675 
L 373.059419 114.952968 
L 373.243676 114.544323 
L 373.980718 114.590405 
L 374.349236 114.593494 
L 374.902038 117.656745 
L 376.191879 138.551318 
L 376.560373 144.200851 
L 376.744632 145.489309 
L 376.928808 145.392863 
L 377.297332 157.870515 
L 377.481585 159.063159 
L 377.850097 168.216761 
L 378.034395 168.400871 
L 378.218636 169.0561 
L 378.587162 168.109548 
L 378.771422 168.339253 
L 379.508464 168.305928 
L 379.692721 168.336323 
L 379.876996 167.121402 
L 380.061263 167.369395 
L 380.245495 168.78459 
L 380.61401 166.088209 
L 380.798295 162.813167 
L 381.166815 152.791811 
L 381.351082 151.805418 
L 381.719601 151.524808 
L 381.903856 151.01714 
L 382.27238 149.519058 
L 382.456639 149.626354 
L 382.825156 150.805779 
L 383.009416 150.111165 
L 383.193679 150.417695 
L 383.377944 150.023126 
L 383.562195 149.002385 
L 383.746457 149.1606 
L 384.114978 149.792756 
L 384.299239 150.026714 
L 384.4835 149.979134 
L 385.036281 150.454999 
L 385.220542 150.331968 
L 385.4048 150.502408 
L 385.589058 152.099527 
L 385.773322 152.26679 
L 385.95758 152.038632 
L 386.141841 152.074322 
L 386.3261 151.891151 
L 386.510363 151.438757 
L 386.694622 152.264812 
L 387.063139 156.575021 
L 387.247392 156.645068 
L 387.615917 160.701318 
L 387.800181 160.984222 
L 387.984441 159.929216 
L 388.352959 155.433631 
L 388.537218 155.535392 
L 388.905738 158.624418 
L 389.09 158.829503 
L 389.458521 160.448486 
L 389.642778 160.57557 
L 390.011302 163.550616 
L 390.564083 163.88216 
L 390.748345 163.513574 
L 390.9326 162.405156 
L 391.301122 163.751378 
L 391.485383 163.777172 
L 391.669643 163.964203 
L 391.853903 163.977903 
L 392.222424 164.498981 
L 392.590944 165.795269 
L 392.775205 164.481059 
L 392.959466 164.381027 
L 393.143726 164.595012 
L 393.512246 164.40977 
L 393.696511 165.378872 
L 393.880765 166.946361 
L 394.065026 166.846555 
L 394.249286 166.567285 
L 394.433546 166.757055 
L 394.617808 167.808351 
L 394.802069 167.610078 
L 394.986329 167.048797 
L 395.170588 166.980877 
L 395.354849 165.617546 
L 395.53911 165.37864 
L 395.72337 165.510189 
L 395.90763 165.484574 
L 396.09189 165.326503 
L 396.276151 165.61051 
L 396.46041 166.716798 
L 396.64467 166.642992 
L 397.013192 168.564054 
L 397.197452 167.944307 
L 397.381713 167.763276 
L 397.565973 167.759098 
L 397.934492 169.583151 
L 398.118751 167.696304 
L 398.303012 167.177638 
L 398.487273 168.034677 
L 398.487273 168.034677 
" clip-path="url(#p77fa41bb08)" style="fill: none; stroke: #1f77b4; stroke-width: 1.5; stroke-linecap: square"/>
   </g>
   <g id="line2d_15">
    <path d="M 73.832727 168.393443 
L 74.026248 168.395856 
L 74.993851 169.518017 
L 75.767933 170.589776 
L 75.961453 170.681091 
L 77.316097 172.314642 
L 79.444823 172.481882 
L 79.831865 173.367913 
L 80.412426 173.638034 
L 80.605947 173.665518 
L 81.186509 174.360024 
L 81.380029 174.675311 
L 82.154112 174.763587 
L 84.8634 174.839607 
L 85.637482 174.951977 
L 86.024523 177.414469 
L 86.411564 178.165696 
L 86.992126 178.35773 
L 87.185646 178.496227 
L 87.572688 179.209634 
L 88.540291 179.432122 
L 88.733811 179.443057 
L 89.507893 180.044834 
L 90.088455 180.361355 
L 90.281976 180.38136 
L 91.249579 181.128882 
L 92.217182 181.56964 
L 92.797743 183.100578 
L 92.991264 183.356745 
L 93.378305 183.430301 
L 93.765346 183.928875 
L 94.152387 185.657066 
L 94.539428 185.632593 
L 95.11999 185.885952 
L 95.31351 185.905946 
L 95.700551 186.336734 
L 96.474634 186.602152 
L 97.055195 188.162615 
L 97.248715 188.790082 
L 98.216318 189.772764 
L 98.409838 190.040422 
L 99.377441 190.30254 
L 99.570962 190.490708 
L 99.958003 190.52592 
L 100.538565 191.041419 
L 100.732085 191.276833 
L 101.312647 191.280595 
L 101.893209 191.501748 
L 102.667291 192.606786 
L 103.441373 192.905075 
L 103.828414 192.711812 
L 104.215402 200.125228 
L 104.60172 214.189028 
L 104.988719 217.610528 
L 105.375759 218.452611 
L 105.762666 224.415537 
L 106.149702 225.55383 
L 106.923782 226.490073 
L 107.310823 226.055111 
L 107.697858 227.238969 
L 108.084899 227.54289 
L 108.858982 227.554866 
L 109.246023 227.805123 
L 109.633063 227.477046 
L 110.600666 227.863844 
L 111.568269 227.84766 
L 111.95531 227.797211 
L 112.342351 228.11934 
L 113.116433 228.255947 
L 113.696995 228.482241 
L 115.632201 228.637977 
L 122.985984 228.742081 
L 125.501752 228.628297 
L 126.275834 228.52229 
L 126.856396 228.389838 
L 127.436957 228.159388 
L 128.017519 228.008549 
L 128.40456 227.863269 
L 129.565684 227.748294 
L 130.146245 227.664029 
L 131.307369 227.556002 
L 132.274972 227.234257 
L 133.049054 227.096708 
L 133.242575 227.107672 
L 133.629615 226.581007 
L 134.403698 226.547256 
L 135.17778 226.07079 
L 136.919465 225.899032 
L 137.693547 225.779272 
L 139.241712 225.483376 
L 139.628753 225.518862 
L 140.596356 225.535902 
L 143.112124 225.674974 
L 144.079727 225.887928 
L 147.756618 225.831034 
L 148.143659 225.751452 
L 148.724221 225.779368 
L 149.111262 225.513868 
L 149.498303 225.593518 
L 149.885344 225.447776 
L 150.272385 225.555943 
L 150.659426 225.21938 
L 151.046467 225.401503 
L 151.433507 224.637499 
L 152.207589 224.881383 
L 152.594629 224.156856 
L 153.368711 224.018281 
L 153.755753 224.15798 
L 154.142793 223.687113 
L 154.529832 222.764582 
L 154.916873 222.402641 
L 155.690939 218.390553 
L 156.077883 213.019805 
L 156.658431 210.551244 
L 157.238986 208.460934 
L 157.62599 205.062051 
L 158.01303 204.257422 
L 158.400051 201.794546 
L 158.980612 201.917671 
L 159.367653 201.793539 
L 159.948215 201.450706 
L 160.335253 200.353726 
L 160.915697 192.734428 
L 162.657231 177.787936 
L 163.23762 169.965223 
L 164.398639 160.46835 
L 164.592159 159.630184 
L 165.366241 159.28667 
L 165.753283 159.43433 
L 166.333844 159.148408 
L 167.494968 159.128942 
L 168.656091 159.198977 
L 168.849612 159.287229 
L 169.430173 159.187782 
L 170.397776 159.24145 
L 170.784817 159.631699 
L 171.558899 159.187315 
L 171.94594 159.527961 
L 172.332978 160.48446 
L 172.720003 162.649964 
L 173.107043 163.258699 
L 173.49407 166.059536 
L 173.880886 173.215908 
L 174.654959 175.644089 
L 175.234943 190.180987 
L 175.428464 193.536711 
L 175.81548 195.684202 
L 176.202518 196.562882 
L 176.589559 196.579389 
L 176.9766 196.856391 
L 177.363639 197.377721 
L 178.718283 197.49906 
L 179.105324 197.636941 
L 179.879406 197.772615 
L 180.266448 197.825854 
L 182.008133 197.890857 
L 182.588695 197.956409 
L 183.362777 197.97731 
L 186.846148 198.622837 
L 187.233189 198.743824 
L 187.62023 198.858866 
L 190.135997 199.024542 
L 191.103599 199.789774 
L 191.29712 199.793825 
L 192.845284 200.857926 
L 193.232259 205.275272 
L 193.618898 213.417797 
L 194.005851 217.174318 
L 194.585842 229.723854 
L 194.972505 236.776814 
L 196.125415 271.684504 
L 196.318935 279.275091 
L 196.705952 280.435867 
L 197.480034 280.333553 
L 197.673538 279.761218 
L 197.867059 279.748233 
L 198.254 282.107375 
L 198.641038 282.507899 
L 199.415119 282.188472 
L 199.802157 282.569362 
L 200.189198 282.416046 
L 200.576239 282.47662 
L 200.96328 282.308144 
L 201.156799 282.114962 
L 201.350319 282.088138 
L 201.543832 282.471895 
L 201.737353 282.536516 
L 202.124364 281.2071 
L 203.091966 280.803882 
L 203.479007 280.71425 
L 203.866047 280.745936 
L 204.253089 280.765932 
L 204.640129 280.602323 
L 204.83365 279.749521 
L 205.220283 273.503845 
L 206.955781 231.09395 
L 207.340272 220.150057 
L 207.918651 203.89564 
L 208.11217 203.74078 
L 208.30569 202.587224 
L 209.078915 192.642569 
L 209.4659 190.896439 
L 209.852924 189.625916 
L 210.239893 187.93601 
L 210.626932 188.161943 
L 211.01397 187.830698 
L 211.594532 187.901641 
L 211.981573 187.862839 
L 212.175094 188.137975 
L 212.562098 189.295079 
L 212.755615 189.0322 
L 212.949135 189.556512 
L 213.335954 193.104258 
L 213.529416 194.078014 
L 213.722937 196.057615 
L 214.109061 205.09254 
L 214.49351 215.889675 
L 214.686928 217.169614 
L 214.880449 219.298316 
L 215.266746 225.579716 
L 215.65362 228.409041 
L 216.040623 229.789374 
L 216.427658 230.264892 
L 216.621179 230.249762 
L 216.814699 230.366566 
L 217.008214 230.66033 
L 217.201735 231.322096 
L 217.588682 233.576707 
L 217.975691 235.326994 
L 218.169053 236.92114 
L 218.362574 240.181233 
L 218.747737 250.079228 
L 219.134176 256.919028 
L 219.710722 273.396911 
L 220.287601 291.997487 
L 220.481122 292.011708 
L 220.674642 292.161131 
L 220.868157 292.458962 
L 221.061678 293.2229 
L 221.255081 294.567992 
L 221.448602 53.789526 
L 221.835576 55.321747 
L 222.029097 55.304219 
L 222.222617 55.559885 
L 222.416118 56.117061 
L 222.609638 57.30945 
L 222.996443 60.405691 
L 223.383475 61.000789 
L 223.770516 61.132325 
L 224.157556 61.311748 
L 224.544597 61.300332 
L 224.931636 61.593959 
L 226.4798 61.791356 
L 227.253882 62.032271 
L 228.221477 62.967242 
L 229.769641 63.079716 
L 230.156681 63.353938 
L 230.930756 64.157079 
L 231.511317 64.540882 
L 231.898356 65.013099 
L 232.285388 65.617715 
L 234.027072 66.042265 
L 234.414113 66.231037 
L 234.607633 66.562701 
L 235.188156 68.212583 
L 235.381676 68.476408 
L 237.897444 68.74198 
L 238.284481 69.112343 
L 239.058549 70.342521 
L 240.026151 70.81287 
L 240.413187 71.312847 
L 240.606707 71.418582 
L 240.800227 71.808038 
L 241.187237 72.919895 
L 241.961318 73.318586 
L 242.348357 73.572496 
L 242.541878 73.542225 
L 242.735398 73.76581 
L 243.122422 74.690682 
L 243.315938 74.97675 
L 243.509458 76.099221 
L 244.089571 81.652907 
L 244.283092 82.423926 
L 244.476611 82.272491 
L 244.670132 82.596115 
L 245.057124 83.990516 
L 245.444164 84.17116 
L 246.218246 84.278731 
L 247.185843 85.120654 
L 247.959925 85.146821 
L 248.153446 85.295594 
L 248.927516 86.39501 
L 249.314557 86.518843 
L 249.895117 86.875534 
L 251.249761 87.171029 
L 251.636802 87.336753 
L 252.023839 87.952855 
L 252.410865 88.682434 
L 252.991427 88.69514 
L 253.184947 88.87255 
L 253.571981 89.422317 
L 253.959022 89.571704 
L 254.346063 89.645478 
L 254.926622 90.086938 
L 255.120142 90.538623 
L 255.507143 91.909405 
L 256.087695 92.721944 
L 256.474735 93.044281 
L 256.861776 93.060359 
L 257.248816 93.18315 
L 258.022898 93.463703 
L 258.79698 93.661253 
L 259.377541 94.059095 
L 259.764577 94.525663 
L 259.958097 94.603867 
L 260.538647 95.45837 
L 260.732168 95.38979 
L 260.925688 95.451329 
L 261.699767 96.128671 
L 261.893286 96.282942 
L 262.280309 97.147604 
L 262.473829 98.280304 
L 262.860632 101.341018 
L 263.247671 101.613698 
L 264.021754 101.696267 
L 264.602315 101.756849 
L 265.956959 101.893425 
L 267.505119 102.667987 
L 267.698639 102.543224 
L 267.892159 102.583413 
L 268.279197 103.159462 
L 268.666223 103.917987 
L 269.246784 104.178847 
L 269.633825 104.243957 
L 270.601428 104.243253 
L 271.181989 104.489611 
L 272.536632 104.830761 
L 274.084796 104.909618 
L 274.471838 104.964092 
L 274.858879 104.926111 
L 275.43944 105.00471 
L 277.374646 104.969194 
L 277.955208 104.930345 
L 278.342249 104.812702 
L 279.116331 104.778164 
L 279.503372 104.703879 
L 280.083934 104.746219 
L 280.277454 104.565771 
L 280.664485 103.943316 
L 281.245047 104.0064 
L 281.825608 104.132902 
L 282.406163 103.456625 
L 282.599684 103.404251 
L 283.373764 103.764198 
L 283.567283 103.606291 
L 283.760804 103.24212 
L 284.147821 102.252039 
L 284.341341 102.151352 
L 284.534861 102.202206 
L 284.728378 102.429426 
L 284.921899 101.797733 
L 285.308773 97.908229 
L 285.695249 92.895873 
L 286.082197 90.082805 
L 286.468963 86.83851 
L 286.66248 86.613839 
L 286.856 86.953115 
L 287.049458 87.937051 
L 287.242979 92.266298 
L 287.625082 105.447502 
L 288.012042 103.799179 
L 288.205563 103.788327 
L 288.5926 103.429833 
L 288.786121 103.768293 
L 289.173112 105.342034 
L 289.947157 107.246278 
L 290.140678 107.327308 
L 290.334198 107.86138 
L 290.721179 109.322318 
L 290.9147 109.391676 
L 291.10822 109.74946 
L 291.495237 110.683966 
L 291.688757 110.731003 
L 291.882278 110.559917 
L 292.075789 110.173731 
L 292.269309 110.473205 
L 292.656295 112.039444 
L 293.043326 112.681577 
L 294.010927 113.058598 
L 294.78501 113.150434 
L 294.97853 112.844711 
L 295.752558 110.636605 
L 296.139599 110.763328 
L 296.72016 110.674961 
L 298.074804 110.328631 
L 298.461844 110.187957 
L 299.429447 110.175487 
L 299.816485 109.83077 
L 300.203526 109.582336 
L 303.299852 108.497654 
L 303.880411 108.004675 
L 304.654493 107.875602 
L 305.428574 107.388879 
L 306.009135 107.165798 
L 306.589696 107.014619 
L 306.976735 106.74486 
L 307.363776 106.679305 
L 307.750816 106.434948 
L 308.718419 106.464736 
L 309.879538 105.854817 
L 310.4601 105.804389 
L 310.847138 105.502279 
L 311.040658 105.555061 
L 311.234179 105.290034 
L 311.621198 104.328054 
L 312.008237 104.062996 
L 312.588799 103.871428 
L 312.782319 103.334707 
L 312.975776 102.348548 
L 313.362326 97.693637 
L 314.329206 85.46261 
L 314.715469 79.293391 
L 316.06915 66.104845 
L 317.230228 63.380013 
L 317.81079 63.124783 
L 318.004304 62.821153 
L 318.584829 61.160156 
L 319.745952 60.874996 
L 320.132993 60.716346 
L 320.520033 60.332777 
L 320.907068 59.859654 
L 321.294109 59.858144 
L 321.487629 59.930701 
L 321.68115 59.835987 
L 322.2617 58.939141 
L 323.035772 57.810597 
L 323.616333 57.366309 
L 324.196893 57.033461 
L 324.970974 56.65545 
L 325.551534 56.29129 
L 326.325617 56.297723 
L 326.519137 56.250724 
L 326.712658 55.996913 
L 326.906164 55.52584 
L 327.099684 294.769699 
L 327.485534 288.509111 
L 327.872573 288.242571 
L 329.033696 288.465414 
L 329.227216 288.422322 
L 329.420737 288.536091 
L 330.001291 289.258343 
L 330.194812 289.284516 
L 330.388331 289.132495 
L 330.581851 289.162263 
L 330.96889 289.414961 
L 331.355931 289.37557 
L 333.484656 290.005585 
L 334.452256 290.650334 
L 334.839297 290.847008 
L 335.226335 291.239724 
L 335.806896 291.374453 
L 336.387457 291.638498 
L 336.580977 291.773713 
L 337.161522 292.726831 
L 337.355041 292.549333 
L 337.548562 292.666885 
L 338.322626 293.965007 
L 339.290229 294.177328 
L 339.483749 294.693935 
L 339.677217 53.598684 
L 339.870738 53.883087 
L 340.064255 53.661385 
L 340.257776 53.795356 
L 340.451283 54.241011 
L 340.644804 54.328544 
L 340.838321 54.104811 
L 341.031842 54.336684 
L 341.418857 55.333173 
L 341.999415 55.870168 
L 342.386455 56.155239 
L 342.579976 55.885384 
L 342.966992 54.945965 
L 343.354033 54.884885 
L 343.547553 54.948785 
L 343.741074 54.359599 
L 343.934503 295.175652 
L 344.128024 294.645565 
L 344.708585 294.771377 
L 345.289147 294.756261 
L 345.482667 294.679926 
L 345.676188 293.287598 
L 346.06283 289.166889 
L 346.25629 288.202979 
L 347.610457 278.271152 
L 348.384396 274.635248 
L 348.577917 274.640359 
L 348.964954 274.284349 
L 349.158475 273.441405 
L 349.545393 270.200443 
L 349.932105 266.894033 
L 350.125625 266.864838 
L 351.480261 265.640273 
L 351.867299 265.340734 
L 352.834902 265.396503 
L 353.22194 265.047188 
L 353.802501 264.631535 
L 354.576582 264.178509 
L 354.963619 263.604402 
L 355.35065 262.943543 
L 355.73769 262.727684 
L 356.705293 262.695461 
L 357.866416 262.500466 
L 358.640498 262.40798 
L 359.027537 262.117971 
L 359.221058 262.200785 
L 359.414573 262.494394 
L 359.608093 262.586042 
L 359.801613 262.503206 
L 359.995134 262.571185 
L 360.188652 262.769037 
L 360.382173 262.71761 
L 360.575689 262.456988 
L 360.76921 262.624228 
L 361.349744 263.971634 
L 361.73677 264.879344 
L 361.930291 267.615776 
L 363.087677 294.531744 
L 363.278774 58.67203 
L 363.665463 65.264862 
L 363.858983 65.039855 
L 364.052215 62.89827 
L 364.62242 96.795188 
L 365.009392 99.886308 
L 365.2029 100.886468 
L 365.589821 112.748878 
L 366.363903 112.451824 
L 367.525027 112.532077 
L 368.105588 113.175914 
L 368.492629 113.298933 
L 371.588958 113.307181 
L 372.16952 113.32084 
L 372.750082 113.786134 
L 373.137123 114.025481 
L 374.104726 114.099648 
L 374.491759 115.715281 
L 374.878425 129.011403 
L 375.265463 130.671833 
L 375.845982 136.909507 
L 376.039492 138.131995 
L 376.426534 136.980322 
L 377.200014 157.477017 
L 377.587054 158.684511 
L 378.167616 158.521107 
L 379.135219 158.531073 
L 379.52226 158.549808 
L 379.909301 158.175511 
L 380.489862 156.729105 
L 380.683383 156.43766 
L 381.263945 156.292895 
L 382.425068 156.22729 
L 384.747316 156.348064 
L 385.521398 156.533037 
L 386.10196 156.3768 
L 386.488999 157.664494 
L 386.87604 157.610189 
L 388.037163 159.013337 
L 388.424204 159.872731 
L 389.198286 160.199033 
L 389.585327 160.675953 
L 389.972367 162.288215 
L 390.359409 162.593554 
L 390.746449 163.842909 
L 391.520532 163.867167 
L 391.907573 164.262212 
L 392.294614 165.595503 
L 395.584464 166.317687 
L 395.777984 166.307279 
L 396.165026 167.2677 
L 397.326149 167.693634 
L 397.71319 167.813582 
L 398.293752 168.294265 
L 398.487273 168.380419 
L 398.487273 168.380419 
" clip-path="url(#p77fa41bb08)" style="fill: none; stroke: #ff7f0e; stroke-width: 1.5; stroke-linecap: square"/>
   </g>
   <g id="line2d_16">
    <path d="M 73.832727 166.466767 
L 74.022931 166.467025 
L 76.305375 167.982139 
L 82.391891 172.682553 
L 86.576368 176.35648 
L 89.049012 178.63852 
L 90.760841 180.434353 
L 92.853075 182.917167 
L 94.755102 185.529928 
L 96.086521 187.61543 
L 97.798337 190.634117 
L 99.51015 194.17322 
L 101.221946 198.412767 
L 103.123928 203.929804 
L 104.45531 208.383281 
L 105.406227 213.210354 
L 106.357221 216.075797 
L 107.878812 219.948062 
L 109.780817 223.89687 
L 111.30243 226.347548 
L 112.443645 227.727856 
L 113.394659 228.676868 
L 114.345676 229.108877 
L 117.008528 229.498386 
L 118.14975 229.532718 
L 122.714639 229.679052 
L 126.328509 229.657735 
L 131.273805 229.396525 
L 146.870508 228.276997 
L 147.821525 227.871569 
L 148.392134 227.461277 
L 149.533349 226.325564 
L 150.674557 224.750748 
L 151.815757 222.73158 
L 153.337339 219.340542 
L 154.858898 215.188152 
L 156.380429 210.259307 
L 157.331381 206.646894 
L 158.852829 199.844897 
L 160.374205 191.810289 
L 161.705274 183.557588 
L 164.3674 165.699211 
L 165.318317 161.254409 
L 166.079068 158.537991 
L 166.839848 156.541112 
L 167.410444 155.528262 
L 167.981053 154.941822 
L 168.36146 154.780207 
L 168.741867 154.789376 
L 169.122274 154.981926 
L 169.692879 155.638822 
L 170.263482 156.704652 
L 170.834064 158.15083 
L 171.594821 160.773676 
L 172.545754 164.962116 
L 173.686769 171.376618 
L 174.637581 176.608935 
L 176.159039 183.354511 
L 177.300174 187.545337 
L 178.441336 191.031917 
L 179.582521 193.815567 
L 180.533524 195.568833 
L 181.29433 196.627074 
L 182.05514 197.364784 
L 182.815953 197.807554 
L 183.576767 197.942317 
L 184.147378 197.856645 
L 184.908191 197.416847 
L 185.669005 196.93043 
L 186.239616 196.817519 
L 186.810226 196.928343 
L 187.380837 197.277537 
L 187.951443 197.89027 
L 188.712246 199.155047 
L 189.473032 201.118407 
L 190.423998 204.595605 
L 191.184731 208.196999 
L 191.945418 212.673951 
L 192.896148 219.378775 
L 194.03691 229.461366 
L 194.987459 240.290108 
L 195.747499 251.534996 
L 196.887535 267.888034 
L 197.647917 275.865882 
L 198.408484 281.937598 
L 199.169159 286.499314 
L 199.739702 288.987719 
L 200.310297 290.647808 
L 200.690697 291.285909 
L 201.071103 291.542517 
L 201.261307 291.560405 
L 201.641712 291.212135 
L 202.022112 290.419296 
L 202.592705 288.439452 
L 203.163236 285.528888 
L 203.923879 280.029725 
L 204.684394 272.653535 
L 205.63494 260.482346 
L 206.395006 247.719955 
L 208.864409 201.905326 
L 209.624903 193.068633 
L 210.385583 187.262217 
L 210.956168 184.811028 
L 211.336567 184.030339 
L 211.526769 183.836943 
L 211.907176 184.043196 
L 212.287576 184.952377 
L 212.858169 187.562599 
L 213.428681 191.570393 
L 214.189277 199.370069 
L 215.900564 219.694103 
L 221.605441 280.1011 
L 222.556372 287.220979 
L 223.697547 294.020968 
L 223.88775 294.936961 
L 224.077945 53.843051 
L 225.028952 57.479071 
L 225.789761 59.541082 
L 226.360369 60.649704 
L 227.121183 61.675911 
L 234.729329 69.530643 
L 238.723604 73.58284 
L 245.380724 80.226968 
L 249.18479 84.199152 
L 255.651696 91.219584 
L 262.308795 99.003206 
L 264.591228 101.648285 
L 265.922651 102.871397 
L 267.254074 103.739987 
L 270.297331 105.125579 
L 271.81896 105.604802 
L 273.9112 106.066683 
L 275.052422 106.09466 
L 276.764255 105.699805 
L 277.715272 105.220638 
L 279.427101 103.96785 
L 280.378115 103.023485 
L 282.089936 101.081733 
L 283.611551 98.989258 
L 285.133164 96.785824 
L 285.893977 96.226031 
L 286.464588 96.125521 
L 286.844996 96.151225 
L 287.035197 96.376534 
L 287.2254 96.825267 
L 287.795936 99.294519 
L 288.176337 100.226336 
L 289.127333 102.363566 
L 291.98032 108.177858 
L 293.311732 110.186472 
L 295.023546 112.489146 
L 296.735366 114.54027 
L 297.68638 115.288942 
L 298.637398 115.735519 
L 299.77862 115.938728 
L 301.110045 115.646426 
L 301.870859 115.248185 
L 302.63167 114.676052 
L 303.96309 113.341303 
L 305.104298 111.683376 
L 306.816092 108.541523 
L 308.337675 105.141595 
L 309.669049 101.504783 
L 311.190587 96.660721 
L 312.712095 91.078079 
L 314.23356 84.598107 
L 315.945162 76.958677 
L 317.656851 70.198947 
L 319.178373 65.076427 
L 320.699923 60.659124 
L 322.601889 55.973644 
L 323.743081 53.646981 
L 323.933277 295.307168 
L 325.264685 293.156441 
L 328.117707 289.371037 
L 329.068724 288.7942 
L 330.209945 288.294388 
L 331.160963 288.085784 
L 332.111982 288.124979 
L 333.253203 288.491417 
L 334.20422 289.033395 
L 335.345438 289.922784 
L 336.296452 290.89242 
L 338.198469 293.451172 
L 339.339674 295.356591 
L 339.529871 53.690565 
L 340.671073 55.697745 
L 341.241682 56.238009 
L 341.622089 56.384189 
L 342.002496 56.345098 
L 342.573106 56.03491 
L 343.143715 55.368453 
L 343.714311 54.279089 
L 343.904514 53.842289 
L 344.094706 295.388314 
L 344.665298 293.608596 
L 345.616211 289.676727 
L 349.039469 273.536535 
L 350.370817 268.743539 
L 351.702171 264.753595 
L 353.033561 261.431792 
L 354.174759 259.165748 
L 355.125764 257.691935 
L 356.26698 256.471859 
L 356.83759 256.107326 
L 357.027793 256.070427 
L 357.4082 256.302926 
L 357.788602 256.909089 
L 358.359201 258.454669 
L 358.929763 260.594773 
L 359.690491 264.323904 
L 360.451153 269.281772 
L 361.401931 277.448054 
L 362.162371 285.874639 
L 362.732415 293.428342 
L 362.922619 54.444648 
L 364.632509 81.304033 
L 365.583181 91.47301 
L 366.533865 99.687785 
L 367.484753 106.042756 
L 368.245488 109.846846 
L 369.006263 112.513227 
L 369.957258 114.803815 
L 371.098452 117.873104 
L 372.429838 122.271891 
L 373.761191 127.499645 
L 375.282721 134.631616 
L 376.61405 142.044149 
L 378.13553 150.97886 
L 378.706109 153.237179 
L 379.466912 155.14669 
L 380.037522 155.752386 
L 380.227725 155.828684 
L 380.798335 156.441582 
L 381.368946 156.675139 
L 384.412204 158.039855 
L 387.455461 159.931538 
L 388.596682 160.767366 
L 390.498719 161.707832 
L 396.014625 164.716032 
L 398.487273 166.217544 
L 398.487273 166.217544 
" clip-path="url(#p77fa41bb08)" style="fill: none; stroke: #2ca02c; stroke-width: 1.5; stroke-linecap: square"/>
   </g>
   <g id="line2d_17">
    <path d="M 73.832727 166.306672 
L 74.022931 166.306954 
L 77.827003 169.013949 
L 81.821278 172.19288 
L 85.435143 175.391054 
L 88.288193 178.064888 
L 91.902055 181.801912 
L 93.804084 184.143382 
L 95.515907 186.600666 
L 97.037524 189.151014 
L 98.368937 191.720569 
L 99.890543 195.143335 
L 101.602334 199.566232 
L 103.314121 204.655142 
L 105.596471 212.406673 
L 107.118034 217.566602 
L 108.449414 221.288226 
L 109.590613 223.883988 
L 110.541621 225.628702 
L 111.682834 227.198973 
L 112.633848 228.068376 
L 113.965272 228.888321 
L 114.916289 229.255997 
L 116.247715 229.481237 
L 118.149751 229.555893 
L 125.37749 229.565528 
L 132.985635 229.35229 
L 139.452559 228.974002 
L 145.919483 228.368281 
L 147.441112 228.040408 
L 148.201925 227.729777 
L 148.962738 227.197326 
L 149.913749 226.210162 
L 150.864758 224.875178 
L 151.815754 223.192556 
L 152.956943 220.72258 
L 154.28832 217.214559 
L 155.809861 212.46367 
L 156.950991 208.278108 
L 158.282251 202.640306 
L 159.613504 196.017421 
L 161.134828 187.184869 
L 162.275724 179.264249 
L 163.606702 170.017263 
L 164.557583 164.838211 
L 165.508473 160.767455 
L 166.269243 158.323562 
L 167.030036 156.588783 
L 167.600642 155.751506 
L 168.17125 155.303449 
L 168.551657 155.2219 
L 168.932064 155.312978 
L 169.502674 155.774195 
L 170.073275 156.610236 
L 170.643875 157.829844 
L 171.404654 160.049065 
L 172.165408 162.935554 
L 173.116269 167.523904 
L 175.398333 179.65014 
L 176.729637 185.304414 
L 177.870776 189.270705 
L 179.011943 192.471925 
L 179.962929 194.574313 
L 180.913935 196.160915 
L 181.674743 197.061149 
L 182.435555 197.625701 
L 183.006165 197.834194 
L 183.766979 197.824287 
L 184.527793 197.497619 
L 185.669013 196.821729 
L 186.239623 196.77704 
L 186.810234 196.948111 
L 187.380844 197.349182 
L 187.95145 197.967392 
L 188.712255 199.140769 
L 189.473047 200.870537 
L 190.233815 203.378987 
L 190.994552 206.6722 
L 191.945452 211.954303 
L 192.896184 218.636853 
L 194.036934 228.833345 
L 194.987472 239.746016 
L 195.747547 251.011954 
L 196.697261 265.50178 
L 197.647844 275.832931 
L 198.408412 281.891365 
L 199.169093 286.33579 
L 199.73964 288.745068 
L 200.310237 290.326071 
L 200.690637 290.958905 
L 201.071042 291.232882 
L 201.261246 291.256983 
L 201.641652 290.963401 
L 202.022053 290.275964 
L 202.592649 288.441539 
L 203.163188 285.681647 
L 203.923842 280.368544 
L 204.684368 273.133227 
L 205.634916 261.019447 
L 206.39501 248.448983 
L 208.864453 203.02328 
L 209.624956 194.307705 
L 210.385616 188.102544 
L 210.956191 185.13077 
L 211.33658 183.958277 
L 211.52678 183.578383 
L 211.907187 183.537666 
L 212.287589 184.305335 
L 212.667976 185.896422 
L 213.238542 189.898015 
L 213.808961 195.528495 
L 215.520267 215.223089 
L 219.133233 253.605105 
L 220.654521 271.164108 
L 221.795606 281.561138 
L 222.936756 289.60437 
L 223.887747 294.776566 
L 224.077941 53.685403 
L 225.028947 57.379067 
L 225.599552 59.031339 
L 226.360365 60.534445 
L 227.691789 62.020907 
L 233.397897 68.112822 
L 241.76685 76.773914 
L 251.08681 86.361242 
L 259.075336 94.994982 
L 266.11284 102.774587 
L 267.634465 104.028513 
L 268.965889 104.881954 
L 270.487516 105.576312 
L 271.818941 105.9375 
L 273.150367 106.068751 
L 274.481792 105.969638 
L 275.813217 105.651651 
L 277.144642 105.113006 
L 278.476065 104.356813 
L 279.997691 103.222749 
L 281.519313 101.807782 
L 283.231134 99.861048 
L 284.752748 97.793746 
L 285.513556 96.792972 
L 285.893963 96.59442 
L 286.27437 96.609981 
L 286.654776 96.851899 
L 287.415585 97.745411 
L 287.795985 98.355069 
L 288.176373 99.363259 
L 289.507746 103.240643 
L 291.029327 106.904843 
L 292.550922 109.913092 
L 293.882327 111.980232 
L 295.02354 113.359923 
L 295.974555 114.239042 
L 297.115774 114.95288 
L 298.066791 115.309393 
L 299.017809 115.447815 
L 299.968827 115.373197 
L 300.919845 115.08166 
L 301.870861 114.574621 
L 302.821877 113.849773 
L 303.963092 112.697078 
L 305.104303 111.223096 
L 306.435705 109.093998 
L 307.767105 106.505983 
L 308.908288 103.774182 
L 310.239637 99.940776 
L 311.570983 95.402499 
L 312.902261 90.094826 
L 314.423696 83.169715 
L 315.945143 76.37265 
L 317.466635 70.462095 
L 318.988163 65.38181 
L 320.509716 60.978495 
L 322.031288 57.190838 
L 323.552878 53.994596 
L 323.743081 53.632038 
L 323.933277 295.28001 
L 325.264683 293.03003 
L 326.59609 291.180941 
L 327.356901 290.422926 
L 329.449134 288.822064 
L 330.400151 288.413213 
L 331.351169 288.243142 
L 332.302187 288.306969 
L 333.253205 288.607337 
L 334.204221 289.138885 
L 335.345438 290.093718 
L 336.486651 291.393452 
L 337.627859 293.02279 
L 338.959265 295.351839 
L 339.14946 53.718502 
L 340.100463 55.421063 
L 340.671069 56.054511 
L 341.241679 56.334973 
L 341.622086 56.33827 
L 342.002493 56.197896 
L 342.573101 55.726297 
L 343.143708 54.913823 
L 343.714303 53.781005 
L 343.904507 295.325296 
L 344.665289 293.116269 
L 345.616219 289.528159 
L 346.567145 284.996784 
L 348.088573 277.529302 
L 349.41986 272.027971 
L 350.941396 266.770198 
L 352.272774 262.998773 
L 353.413964 260.376794 
L 354.364963 258.618761 
L 355.315973 257.265205 
L 356.076783 256.449694 
L 356.647392 256.081756 
L 357.027799 256.034723 
L 357.408206 256.20684 
L 357.78861 256.661883 
L 358.359213 257.995143 
L 358.929778 260.067724 
L 359.690492 264.052729 
L 360.45113 269.393077 
L 361.401875 278.079143 
L 362.352217 289.231615 
L 362.732284 294.66004 
L 362.922488 55.693468 
L 364.062545 72.963156 
L 365.393078 89.0321 
L 366.533918 99.748767 
L 367.674945 107.55161 
L 368.435696 111.242192 
L 369.006294 112.882549 
L 371.2887 118.029035 
L 372.239682 121.018605 
L 373.380851 125.373897 
L 374.712201 131.578042 
L 375.853335 137.641542 
L 376.804216 143.978746 
L 377.94533 150.80583 
L 378.706112 153.990934 
L 379.276715 155.498072 
L 379.657119 156.123606 
L 380.037525 156.474461 
L 380.798339 156.830452 
L 385.363225 158.748973 
L 389.167296 160.610936 
L 394.873404 163.738213 
L 398.487273 166.046135 
L 398.487273 166.046135 
" clip-path="url(#p77fa41bb08)" style="fill: none; stroke: #d62728; stroke-width: 1.5; stroke-linecap: square"/>
   </g>
   <g id="patch_3">
    <path d="M 57.6 307.584 
L 57.6 41.472 
" style="fill: none; stroke: #000000; stroke-width: 0.8; stroke-linejoin: miter; stroke-linecap: square"/>
   </g>
   <g id="patch_4">
    <path d="M 414.72 307.584 
L 414.72 41.472 
" style="fill: none; stroke: #000000; stroke-width: 0.8; stroke-linejoin: miter; stroke-linecap: square"/>
   </g>
   <g id="patch_5">
    <path d="M 57.6 307.584 
L 414.72 307.584 
" style="fill: none; stroke: #000000; stroke-width: 0.8; stroke-linejoin: miter; stroke-linecap: square"/>
   </g>
   <g id="patch_6">
    <path d="M 57.6 41.472 
L 414.72 41.472 
" style="fill: none; stroke: #000000; stroke-width: 0.8; stroke-linejoin: miter; stroke-linecap: square"/>
   </g>
   <g id="text_14">
    <!-- Heading vs Distance mco -->
    <g transform="translate(159.744375 35.472)scale(0.12 -0.12)">
     <defs>
      <path id="DejaVuSans-48" d="M 628 4666 
L 1259 4666 
L 1259 2753 
L 3553 2753 
L 3553 4666 
L 4184 4666 
L 4184 0 
L 3553 0 
L 3553 2222 
L 1259 2222 
L 1259 0 
L 628 0 
L 628 4666 
z
" transform="scale(0.015625)"/>
      <path id="DejaVuSans-65" d="M 3597 1894 
L 3597 1613 
L 953 1613 
Q 991 1019 1311 708 
Q 1631 397 2203 397 
Q 2534 397 2845 478 
Q 3156 559 3463 722 
L 3463 178 
Q 3153 47 2828 -22 
Q 2503 -91 2169 -91 
Q 1331 -91 842 396 
Q 353 884 353 1716 
Q 353 2575 817 3079 
Q 1281 3584 2069 3584 
Q 2775 3584 3186 3129 
Q 3597 2675 3597 1894 
z
M 3022 2063 
Q 3016 2534 2758 2815 
Q 2500 3097 2075 3097 
Q 1594 3097 1305 2825 
Q 1016 2553 972 2059 
L 3022 2063 
z
" transform="scale(0.015625)"/>
      <path id="DejaVuSans-61" d="M 2194 1759 
Q 1497 1759 1228 1600 
Q 959 1441 959 1056 
Q 959 750 1161 570 
Q 1363 391 1709 391 
Q 2188 391 2477 730 
Q 2766 1069 2766 1631 
L 2766 1759 
L 2194 1759 
z
M 3341 1997 
L 3341 0 
L 2766 0 
L 2766 531 
Q 2569 213 2275 61 
Q 1981 -91 1556 -91 
Q 1019 -91 701 211 
Q 384 513 384 1019 
Q 384 1609 779 1909 
Q 1175 2209 1959 2209 
L 2766 2209 
L 2766 2266 
Q 2766 2663 2505 2880 
Q 2244 3097 1772 3097 
Q 1472 3097 1187 3025 
Q 903 2953 641 2809 
L 641 3341 
Q 956 3463 1253 3523 
Q 1550 3584 1831 3584 
Q 2591 3584 2966 3190 
Q 3341 2797 3341 1997 
z
" transform="scale(0.015625)"/>
      <path id="DejaVuSans-64" d="M 2906 2969 
L 2906 4863 
L 3481 4863 
L 3481 0 
L 2906 0 
L 2906 525 
Q 2725 213 2448 61 
Q 2172 -91 1784 -91 
Q 1150 -91 751 415 
Q 353 922 353 1747 
Q 353 2572 751 3078 
Q 1150 3584 1784 3584 
Q 2172 3584 2448 3432 
Q 2725 3281 2906 2969 
z
M 947 1747 
Q 947 1113 1208 752 
Q 1469 391 1925 391 
Q 2381 391 2643 752 
Q 2906 1113 2906 1747 
Q 2906 2381 2643 2742 
Q 2381 3103 1925 3103 
Q 1469 3103 1208 2742 
Q 947 2381 947 1747 
z
" transform="scale(0.015625)"/>
      <path id="DejaVuSans-69" d="M 603 3500 
L 1178 3500 
L 1178 0 
L 603 0 
L 603 3500 
z
M 603 4863 
L 1178 4863 
L 1178 4134 
L 603 4134 
L 603 4863 
z
" transform="scale(0.015625)"/>
      <path id="DejaVuSans-6e" d="M 3513 2113 
L 3513 0 
L 2938 0 
L 2938 2094 
Q 2938 2591 2744 2837 
Q 2550 3084 2163 3084 
Q 1697 3084 1428 2787 
Q 1159 2491 1159 1978 
L 1159 0 
L 581 0 
L 581 3500 
L 1159 3500 
L 1159 2956 
Q 1366 3272 1645 3428 
Q 1925 3584 2291 3584 
Q 2894 3584 3203 3211 
Q 3513 2838 3513 2113 
z
" transform="scale(0.015625)"/>
      <path id="DejaVuSans-67" d="M 2906 1791 
Q 2906 2416 2648 2759 
Q 2391 3103 1925 3103 
Q 1463 3103 1205 2759 
Q 947 2416 947 1791 
Q 947 1169 1205 825 
Q 1463 481 1925 481 
Q 2391 481 2648 825 
Q 2906 1169 2906 1791 
z
M 3481 434 
Q 3481 -459 3084 -895 
Q 2688 -1331 1869 -1331 
Q 1566 -1331 1297 -1286 
Q 1028 -1241 775 -1147 
L 775 -588 
Q 1028 -725 1275 -790 
Q 1522 -856 1778 -856 
Q 2344 -856 2625 -561 
Q 2906 -266 2906 331 
L 2906 616 
Q 2728 306 2450 153 
Q 2172 0 1784 0 
Q 1141 0 747 490 
Q 353 981 353 1791 
Q 353 2603 747 3093 
Q 1141 3584 1784 3584 
Q 2172 3584 2450 3431 
Q 2728 3278 2906 2969 
L 2906 3500 
L 3481 3500 
L 3481 434 
z
" transform="scale(0.015625)"/>
      <path id="DejaVuSans-20" transform="scale(0.015625)"/>
      <path id="DejaVuSans-76" d="M 191 3500 
L 800 3500 
L 1894 563 
L 2988 3500 
L 3597 3500 
L 2284 0 
L 1503 0 
L 191 3500 
z
" transform="scale(0.015625)"/>
      <path id="DejaVuSans-73" d="M 2834 3397 
L 2834 2853 
Q 2591 2978 2328 3040 
Q 2066 3103 1784 3103 
Q 1356 3103 1142 2972 
Q 928 2841 928 2578 
Q 928 2378 1081 2264 
Q 1234 2150 1697 2047 
L 1894 2003 
Q 2506 1872 2764 1633 
Q 3022 1394 3022 966 
Q 3022 478 2636 193 
Q 2250 -91 1575 -91 
Q 1294 -91 989 -36 
Q 684 19 347 128 
L 347 722 
Q 666 556 975 473 
Q 1284 391 1588 391 
Q 1994 391 2212 530 
Q 2431 669 2431 922 
Q 2431 1156 2273 1281 
Q 2116 1406 1581 1522 
L 1381 1569 
Q 847 1681 609 1914 
Q 372 2147 372 2553 
Q 372 3047 722 3315 
Q 1072 3584 1716 3584 
Q 2034 3584 2315 3537 
Q 2597 3491 2834 3397 
z
" transform="scale(0.015625)"/>
      <path id="DejaVuSans-44" d="M 1259 4147 
L 1259 519 
L 2022 519 
Q 2988 519 3436 956 
Q 3884 1394 3884 2338 
Q 3884 3275 3436 3711 
Q 2988 4147 2022 4147 
L 1259 4147 
z
M 628 4666 
L 1925 4666 
Q 3281 4666 3915 4102 
Q 4550 3538 4550 2338 
Q 4550 1131 3912 565 
Q 3275 0 1925 0 
L 628 0 
L 628 4666 
z
" transform="scale(0.015625)"/>
      <path id="DejaVuSans-74" d="M 1172 4494 
L 1172 3500 
L 2356 3500 
L 2356 3053 
L 1172 3053 
L 1172 1153 
Q 1172 725 1289 603 
Q 1406 481 1766 481 
L 2356 481 
L 2356 0 
L 1766 0 
Q 1100 0 847 248 
Q 594 497 594 1153 
L 594 3053 
L 172 3053 
L 172 3500 
L 594 3500 
L 594 4494 
L 1172 4494 
z
" transform="scale(0.015625)"/>
      <path id="DejaVuSans-63" d="M 3122 3366 
L 3122 2828 
Q 2878 2963 2633 3030 
Q 2388 3097 2138 3097 
Q 1578 3097 1268 2742 
Q 959 2388 959 1747 
Q 959 1106 1268 751 
Q 1578 397 2138 397 
Q 2388 397 2633 464 
Q 2878 531 3122 666 
L 3122 134 
Q 2881 22 2623 -34 
Q 2366 -91 2075 -91 
Q 1284 -91 818 406 
Q 353 903 353 1747 
Q 353 2603 823 3093 
Q 1294 3584 2113 3584 
Q 2378 3584 2631 3529 
Q 2884 3475 3122 3366 
z
" transform="scale(0.015625)"/>
      <path id="DejaVuSans-6d" d="M 3328 2828 
Q 3544 3216 3844 3400 
Q 4144 3584 4550 3584 
Q 5097 3584 5394 3201 
Q 5691 2819 5691 2113 
L 5691 0 
L 5113 0 
L 5113 2094 
Q 5113 2597 4934 2840 
Q 4756 3084 4391 3084 
Q 3944 3084 3684 2787 
Q 3425 2491 3425 1978 
L 3425 0 
L 2847 0 
L 2847 2094 
Q 2847 2600 2669 2842 
Q 2491 3084 2119 3084 
Q 1678 3084 1418 2786 
Q 1159 2488 1159 1978 
L 1159 0 
L 581 0 
L 581 3500 
L 1159 3500 
L 1159 2956 
Q 1356 3278 1631 3431 
Q 1906 3584 2284 3584 
Q 2666 3584 2933 3390 
Q 3200 3197 3328 2828 
z
" transform="scale(0.015625)"/>
      <path id="DejaVuSans-6f" d="M 1959 3097 
Q 1497 3097 1228 2736 
Q 959 2375 959 1747 
Q 959 1119 1226 758 
Q 1494 397 1959 397 
Q 2419 397 2687 759 
Q 2956 1122 2956 1747 
Q 2956 2369 2687 2733 
Q 2419 3097 1959 3097 
z
M 1959 3584 
Q 2709 3584 3137 3096 
Q 3566 2609 3566 1747 
Q 3566 888 3137 398 
Q 2709 -91 1959 -91 
Q 1206 -91 779 398 
Q 353 888 353 1747 
Q 353 2609 779 3096 
Q 1206 3584 1959 3584 
z
" transform="scale(0.015625)"/>
     </defs>
     <use xlink:href="#DejaVuSans-48"/>
     <use xlink:href="#DejaVuSans-65" x="75.195312"/>
     <use xlink:href="#DejaVuSans-61" x="136.71875"/>
     <use xlink:href="#DejaVuSans-64" x="197.998047"/>
     <use xlink:href="#DejaVuSans-69" x="261.474609"/>
     <use xlink:href="#DejaVuSans-6e" x="289.257812"/>
     <use xlink:href="#DejaVuSans-67" x="352.636719"/>
     <use xlink:href="#DejaVuSans-20" x="416.113281"/>
     <use xlink:href="#DejaVuSans-76" x="447.900391"/>
     <use xlink:href="#DejaVuSans-73" x="507.080078"/>
     <use xlink:href="#DejaVuSans-20" x="559.179688"/>
     <use xlink:href="#DejaVuSans-44" x="590.966797"/>
     <use xlink:href="#DejaVuSans-69" x="667.96875"/>
     <use xlink:href="#DejaVuSans-73" x="695.751953"/>
     <use xlink:href="#DejaVuSans-74" x="747.851562"/>
     <use xlink:href="#DejaVuSans-61" x="787.060547"/>
     <use xlink:href="#DejaVuSans-6e" x="848.339844"/>
     <use xlink:href="#DejaVuSans-63" x="911.71875"/>
     <use xlink:href="#DejaVuSans-65" x="966.699219"/>
     <use xlink:href="#DejaVuSans-20" x="1028.222656"/>
     <use xlink:href="#DejaVuSans-6d" x="1060.009766"/>
     <use xlink:href="#DejaVuSans-63" x="1157.421875"/>
     <use xlink:href="#DejaVuSans-6f" x="1212.402344"/>
    </g>
   </g>
   <g id="legend_1">
    <g id="patch_7">
     <path d="M 258.462188 108.1845 
L 407.72 108.1845 
Q 409.72 108.1845 409.72 106.1845 
L 409.72 48.472 
Q 409.72 46.472 407.72 46.472 
L 258.462188 46.472 
Q 256.462188 46.472 256.462188 48.472 
L 256.462188 106.1845 
Q 256.462188 108.1845 258.462188 108.1845 
z
" style="fill: #ffffff; opacity: 0.8; stroke: #cccccc; stroke-linejoin: miter"/>
    </g>
    <g id="line2d_18">
     <path d="M 260.462188 54.570438 
L 270.462188 54.570438 
L 280.462188 54.570438 
" style="fill: none; stroke: #1f77b4; stroke-width: 1.5; stroke-linecap: square"/>
    </g>
    <g id="text_15">
     <!-- Centreline -->
     <g transform="translate(288.462188 58.070438)scale(0.1 -0.1)">
      <defs>
       <path id="DejaVuSans-43" d="M 4122 4306 
L 4122 3641 
Q 3803 3938 3442 4084 
Q 3081 4231 2675 4231 
Q 1875 4231 1450 3742 
Q 1025 3253 1025 2328 
Q 1025 1406 1450 917 
Q 1875 428 2675 428 
Q 3081 428 3442 575 
Q 3803 722 4122 1019 
L 4122 359 
Q 3791 134 3420 21 
Q 3050 -91 2638 -91 
Q 1578 -91 968 557 
Q 359 1206 359 2328 
Q 359 3453 968 4101 
Q 1578 4750 2638 4750 
Q 3056 4750 3426 4639 
Q 3797 4528 4122 4306 
z
" transform="scale(0.015625)"/>
       <path id="DejaVuSans-72" d="M 2631 2963 
Q 2534 3019 2420 3045 
Q 2306 3072 2169 3072 
Q 1681 3072 1420 2755 
Q 1159 2438 1159 1844 
L 1159 0 
L 581 0 
L 581 3500 
L 1159 3500 
L 1159 2956 
Q 1341 3275 1631 3429 
Q 1922 3584 2338 3584 
Q 2397 3584 2469 3576 
Q 2541 3569 2628 3553 
L 2631 2963 
z
" transform="scale(0.015625)"/>
       <path id="DejaVuSans-6c" d="M 603 4863 
L 1178 4863 
L 1178 0 
L 603 0 
L 603 4863 
z
" transform="scale(0.015625)"/>
      </defs>
      <use xlink:href="#DejaVuSans-43"/>
      <use xlink:href="#DejaVuSans-65" x="69.824219"/>
      <use xlink:href="#DejaVuSans-6e" x="131.347656"/>
      <use xlink:href="#DejaVuSans-74" x="194.726562"/>
      <use xlink:href="#DejaVuSans-72" x="233.935547"/>
      <use xlink:href="#DejaVuSans-65" x="272.798828"/>
      <use xlink:href="#DejaVuSans-6c" x="334.322266"/>
      <use xlink:href="#DejaVuSans-69" x="362.105469"/>
      <use xlink:href="#DejaVuSans-6e" x="389.888672"/>
      <use xlink:href="#DejaVuSans-65" x="453.267578"/>
     </g>
    </g>
    <g id="line2d_19">
     <path d="M 260.462188 69.248563 
L 270.462188 69.248563 
L 280.462188 69.248563 
" style="fill: none; stroke: #ff7f0e; stroke-width: 1.5; stroke-linecap: square"/>
    </g>
    <g id="text_16">
     <!-- Shortest Path -->
     <g transform="translate(288.462188 72.748563)scale(0.1 -0.1)">
      <defs>
       <path id="DejaVuSans-53" d="M 3425 4513 
L 3425 3897 
Q 3066 4069 2747 4153 
Q 2428 4238 2131 4238 
Q 1616 4238 1336 4038 
Q 1056 3838 1056 3469 
Q 1056 3159 1242 3001 
Q 1428 2844 1947 2747 
L 2328 2669 
Q 3034 2534 3370 2195 
Q 3706 1856 3706 1288 
Q 3706 609 3251 259 
Q 2797 -91 1919 -91 
Q 1588 -91 1214 -16 
Q 841 59 441 206 
L 441 856 
Q 825 641 1194 531 
Q 1563 422 1919 422 
Q 2459 422 2753 634 
Q 3047 847 3047 1241 
Q 3047 1584 2836 1778 
Q 2625 1972 2144 2069 
L 1759 2144 
Q 1053 2284 737 2584 
Q 422 2884 422 3419 
Q 422 4038 858 4394 
Q 1294 4750 2059 4750 
Q 2388 4750 2728 4690 
Q 3069 4631 3425 4513 
z
" transform="scale(0.015625)"/>
       <path id="DejaVuSans-68" d="M 3513 2113 
L 3513 0 
L 2938 0 
L 2938 2094 
Q 2938 2591 2744 2837 
Q 2550 3084 2163 3084 
Q 1697 3084 1428 2787 
Q 1159 2491 1159 1978 
L 1159 0 
L 581 0 
L 581 4863 
L 1159 4863 
L 1159 2956 
Q 1366 3272 1645 3428 
Q 1925 3584 2291 3584 
Q 2894 3584 3203 3211 
Q 3513 2838 3513 2113 
z
" transform="scale(0.015625)"/>
       <path id="DejaVuSans-50" d="M 1259 4147 
L 1259 2394 
L 2053 2394 
Q 2494 2394 2734 2622 
Q 2975 2850 2975 3272 
Q 2975 3691 2734 3919 
Q 2494 4147 2053 4147 
L 1259 4147 
z
M 628 4666 
L 2053 4666 
Q 2838 4666 3239 4311 
Q 3641 3956 3641 3272 
Q 3641 2581 3239 2228 
Q 2838 1875 2053 1875 
L 1259 1875 
L 1259 0 
L 628 0 
L 628 4666 
z
" transform="scale(0.015625)"/>
      </defs>
      <use xlink:href="#DejaVuSans-53"/>
      <use xlink:href="#DejaVuSans-68" x="63.476562"/>
      <use xlink:href="#DejaVuSans-6f" x="126.855469"/>
      <use xlink:href="#DejaVuSans-72" x="188.037109"/>
      <use xlink:href="#DejaVuSans-74" x="229.150391"/>
      <use xlink:href="#DejaVuSans-65" x="268.359375"/>
      <use xlink:href="#DejaVuSans-73" x="329.882812"/>
      <use xlink:href="#DejaVuSans-74" x="381.982422"/>
      <use xlink:href="#DejaVuSans-20" x="421.191406"/>
      <use xlink:href="#DejaVuSans-50" x="452.978516"/>
      <use xlink:href="#DejaVuSans-61" x="508.78125"/>
      <use xlink:href="#DejaVuSans-74" x="570.060547"/>
      <use xlink:href="#DejaVuSans-68" x="609.269531"/>
     </g>
    </g>
    <g id="line2d_20">
     <path d="M 260.462188 83.926688 
L 270.462188 83.926688 
L 280.462188 83.926688 
" style="fill: none; stroke: #2ca02c; stroke-width: 1.5; stroke-linecap: square"/>
    </g>
    <g id="text_17">
     <!-- Minimum Curvature (C) -->
     <g transform="translate(288.462188 87.426688)scale(0.1 -0.1)">
      <defs>
       <path id="DejaVuSans-4d" d="M 628 4666 
L 1569 4666 
L 2759 1491 
L 3956 4666 
L 4897 4666 
L 4897 0 
L 4281 0 
L 4281 4097 
L 3078 897 
L 2444 897 
L 1241 4097 
L 1241 0 
L 628 0 
L 628 4666 
z
" transform="scale(0.015625)"/>
       <path id="DejaVuSans-75" d="M 544 1381 
L 544 3500 
L 1119 3500 
L 1119 1403 
Q 1119 906 1312 657 
Q 1506 409 1894 409 
Q 2359 409 2629 706 
Q 2900 1003 2900 1516 
L 2900 3500 
L 3475 3500 
L 3475 0 
L 2900 0 
L 2900 538 
Q 2691 219 2414 64 
Q 2138 -91 1772 -91 
Q 1169 -91 856 284 
Q 544 659 544 1381 
z
M 1991 3584 
L 1991 3584 
z
" transform="scale(0.015625)"/>
       <path id="DejaVuSans-28" d="M 1984 4856 
Q 1566 4138 1362 3434 
Q 1159 2731 1159 2009 
Q 1159 1288 1364 580 
Q 1569 -128 1984 -844 
L 1484 -844 
Q 1016 -109 783 600 
Q 550 1309 550 2009 
Q 550 2706 781 3412 
Q 1013 4119 1484 4856 
L 1984 4856 
z
" transform="scale(0.015625)"/>
       <path id="DejaVuSans-29" d="M 513 4856 
L 1013 4856 
Q 1481 4119 1714 3412 
Q 1947 2706 1947 2009 
Q 1947 1309 1714 600 
Q 1481 -109 1013 -844 
L 513 -844 
Q 928 -128 1133 580 
Q 1338 1288 1338 2009 
Q 1338 2731 1133 3434 
Q 928 4138 513 4856 
z
" transform="scale(0.015625)"/>
      </defs>
      <use xlink:href="#DejaVuSans-4d"/>
      <use xlink:href="#DejaVuSans-69" x="86.279297"/>
      <use xlink:href="#DejaVuSans-6e" x="114.0625"/>
      <use xlink:href="#DejaVuSans-69" x="177.441406"/>
      <use xlink:href="#DejaVuSans-6d" x="205.224609"/>
      <use xlink:href="#DejaVuSans-75" x="302.636719"/>
      <use xlink:href="#DejaVuSans-6d" x="366.015625"/>
      <use xlink:href="#DejaVuSans-20" x="463.427734"/>
      <use xlink:href="#DejaVuSans-43" x="495.214844"/>
      <use xlink:href="#DejaVuSans-75" x="565.039062"/>
      <use xlink:href="#DejaVuSans-72" x="628.417969"/>
      <use xlink:href="#DejaVuSans-76" x="669.53125"/>
      <use xlink:href="#DejaVuSans-61" x="728.710938"/>
      <use xlink:href="#DejaVuSans-74" x="789.990234"/>
      <use xlink:href="#DejaVuSans-75" x="829.199219"/>
      <use xlink:href="#DejaVuSans-72" x="892.578125"/>
      <use xlink:href="#DejaVuSans-65" x="931.441406"/>
      <use xlink:href="#DejaVuSans-20" x="992.964844"/>
      <use xlink:href="#DejaVuSans-28" x="1024.751953"/>
      <use xlink:href="#DejaVuSans-43" x="1063.765625"/>
      <use xlink:href="#DejaVuSans-29" x="1133.589844"/>
     </g>
    </g>
    <g id="line2d_21">
     <path d="M 260.462188 98.604813 
L 270.462188 98.604813 
L 280.462188 98.604813 
" style="fill: none; stroke: #d62728; stroke-width: 1.5; stroke-linecap: square"/>
    </g>
    <g id="text_18">
     <!-- Minimum Curvature (S) -->
     <g transform="translate(288.462188 102.104813)scale(0.1 -0.1)">
      <use xlink:href="#DejaVuSans-4d"/>
      <use xlink:href="#DejaVuSans-69" x="86.279297"/>
      <use xlink:href="#DejaVuSans-6e" x="114.0625"/>
      <use xlink:href="#DejaVuSans-69" x="177.441406"/>
      <use xlink:href="#DejaVuSans-6d" x="205.224609"/>
      <use xlink:href="#DejaVuSans-75" x="302.636719"/>
      <use xlink:href="#DejaVuSans-6d" x="366.015625"/>
      <use xlink:href="#DejaVuSans-20" x="463.427734"/>
      <use xlink:href="#DejaVuSans-43" x="495.214844"/>
      <use xlink:href="#DejaVuSans-75" x="565.039062"/>
      <use xlink:href="#DejaVuSans-72" x="628.417969"/>
      <use xlink:href="#DejaVuSans-76" x="669.53125"/>
      <use xlink:href="#DejaVuSans-61" x="728.710938"/>
      <use xlink:href="#DejaVuSans-74" x="789.990234"/>
      <use xlink:href="#DejaVuSans-75" x="829.199219"/>
      <use xlink:href="#DejaVuSans-72" x="892.578125"/>
      <use xlink:href="#DejaVuSans-65" x="931.441406"/>
      <use xlink:href="#DejaVuSans-20" x="992.964844"/>
      <use xlink:href="#DejaVuSans-28" x="1024.751953"/>
      <use xlink:href="#DejaVuSans-53" x="1063.765625"/>
      <use xlink:href="#DejaVuSans-29" x="1127.242188"/>
     </g>
    </g>
   </g>
  </g>
 </g>
 <defs>
  <clipPath id="p77fa41bb08">
   <rect x="57.6" y="41.472" width="357.12" height="266.112"/>
  </clipPath>
 </defs>
</svg>
