<?xml version="1.0" encoding="utf-8" standalone="no"?>
<!DOCTYPE svg PUBLIC "-//W3C//DTD SVG 1.1//EN"
  "http://www.w3.org/Graphics/SVG/1.1/DTD/svg11.dtd">
<!-- Created with matplotlib (https://matplotlib.org/) -->
<svg height="345.6pt" version="1.1" viewBox="0 0 460.8 345.6" width="460.8pt" xmlns="http://www.w3.org/2000/svg" xmlns:xlink="http://www.w3.org/1999/xlink">
 <metadata>
  <rdf:RDF xmlns:cc="http://creativecommons.org/ns#" xmlns:dc="http://purl.org/dc/elements/1.1/" xmlns:rdf="http://www.w3.org/1999/02/22-rdf-syntax-ns#">
   <cc:Work>
    <dc:type rdf:resource="http://purl.org/dc/dcmitype/StillImage"/>
    <dc:date>2024-09-26T21:27:54.952803</dc:date>
    <dc:format>image/svg+xml</dc:format>
    <dc:creator>
     <cc:Agent>
      <dc:title>Matplotlib v3.3.1, https://matplotlib.org/</dc:title>
     </cc:Agent>
    </dc:creator>
   </cc:Work>
  </rdf:RDF>
 </metadata>
 <defs>
  <style type="text/css">*{stroke-linecap:butt;stroke-linejoin:round;}</style>
 </defs>
 <g id="figure_1">
  <g id="patch_1">
   <path d="M 0 345.6 
L 460.8 345.6 
L 460.8 0 
L 0 0 
z
" style="fill:#ffffff;"/>
  </g>
  <g id="axes_1">
   <g id="patch_2">
    <path d="M 57.6 307.584 
L 414.72 307.584 
L 414.72 41.472 
L 57.6 41.472 
z
" style="fill:#ffffff;"/>
   </g>
   <g id="matplotlib.axis_1">
    <g id="xtick_1">
     <g id="line2d_1">
      <defs>
       <path d="M 0 0 
L 0 3.5 
" id="m43a7531746" style="stroke:#000000;stroke-width:0.8;"/>
      </defs>
      <g>
       <use style="stroke:#000000;stroke-width:0.8;" x="73.832727" xlink:href="#m43a7531746" y="307.584"/>
      </g>
     </g>
     <g id="text_1">
      <!-- 0.0 -->
      <g transform="translate(65.881165 322.182437)scale(0.1 -0.1)">
       <defs>
        <path d="M 31.78125 66.40625 
Q 24.171875 66.40625 20.328125 58.90625 
Q 16.5 51.421875 16.5 36.375 
Q 16.5 21.390625 20.328125 13.890625 
Q 24.171875 6.390625 31.78125 6.390625 
Q 39.453125 6.390625 43.28125 13.890625 
Q 47.125 21.390625 47.125 36.375 
Q 47.125 51.421875 43.28125 58.90625 
Q 39.453125 66.40625 31.78125 66.40625 
z
M 31.78125 74.21875 
Q 44.046875 74.21875 50.515625 64.515625 
Q 56.984375 54.828125 56.984375 36.375 
Q 56.984375 17.96875 50.515625 8.265625 
Q 44.046875 -1.421875 31.78125 -1.421875 
Q 19.53125 -1.421875 13.0625 8.265625 
Q 6.59375 17.96875 6.59375 36.375 
Q 6.59375 54.828125 13.0625 64.515625 
Q 19.53125 74.21875 31.78125 74.21875 
z
" id="DejaVuSans-48"/>
        <path d="M 10.6875 12.40625 
L 21 12.40625 
L 21 0 
L 10.6875 0 
z
" id="DejaVuSans-46"/>
       </defs>
       <use xlink:href="#DejaVuSans-48"/>
       <use x="63.623047" xlink:href="#DejaVuSans-46"/>
       <use x="95.410156" xlink:href="#DejaVuSans-48"/>
      </g>
     </g>
    </g>
    <g id="xtick_2">
     <g id="line2d_2">
      <g>
       <use style="stroke:#000000;stroke-width:0.8;" x="138.763636" xlink:href="#m43a7531746" y="307.584"/>
      </g>
     </g>
     <g id="text_2">
      <!-- 0.2 -->
      <g transform="translate(130.812074 322.182437)scale(0.1 -0.1)">
       <defs>
        <path d="M 19.1875 8.296875 
L 53.609375 8.296875 
L 53.609375 0 
L 7.328125 0 
L 7.328125 8.296875 
Q 12.9375 14.109375 22.625 23.890625 
Q 32.328125 33.6875 34.8125 36.53125 
Q 39.546875 41.84375 41.421875 45.53125 
Q 43.3125 49.21875 43.3125 52.78125 
Q 43.3125 58.59375 39.234375 62.25 
Q 35.15625 65.921875 28.609375 65.921875 
Q 23.96875 65.921875 18.8125 64.3125 
Q 13.671875 62.703125 7.8125 59.421875 
L 7.8125 69.390625 
Q 13.765625 71.78125 18.9375 73 
Q 24.125 74.21875 28.421875 74.21875 
Q 39.75 74.21875 46.484375 68.546875 
Q 53.21875 62.890625 53.21875 53.421875 
Q 53.21875 48.921875 51.53125 44.890625 
Q 49.859375 40.875 45.40625 35.40625 
Q 44.1875 33.984375 37.640625 27.21875 
Q 31.109375 20.453125 19.1875 8.296875 
z
" id="DejaVuSans-50"/>
       </defs>
       <use xlink:href="#DejaVuSans-48"/>
       <use x="63.623047" xlink:href="#DejaVuSans-46"/>
       <use x="95.410156" xlink:href="#DejaVuSans-50"/>
      </g>
     </g>
    </g>
    <g id="xtick_3">
     <g id="line2d_3">
      <g>
       <use style="stroke:#000000;stroke-width:0.8;" x="203.694545" xlink:href="#m43a7531746" y="307.584"/>
      </g>
     </g>
     <g id="text_3">
      <!-- 0.4 -->
      <g transform="translate(195.742983 322.182437)scale(0.1 -0.1)">
       <defs>
        <path d="M 37.796875 64.3125 
L 12.890625 25.390625 
L 37.796875 25.390625 
z
M 35.203125 72.90625 
L 47.609375 72.90625 
L 47.609375 25.390625 
L 58.015625 25.390625 
L 58.015625 17.1875 
L 47.609375 17.1875 
L 47.609375 0 
L 37.796875 0 
L 37.796875 17.1875 
L 4.890625 17.1875 
L 4.890625 26.703125 
z
" id="DejaVuSans-52"/>
       </defs>
       <use xlink:href="#DejaVuSans-48"/>
       <use x="63.623047" xlink:href="#DejaVuSans-46"/>
       <use x="95.410156" xlink:href="#DejaVuSans-52"/>
      </g>
     </g>
    </g>
    <g id="xtick_4">
     <g id="line2d_4">
      <g>
       <use style="stroke:#000000;stroke-width:0.8;" x="268.625455" xlink:href="#m43a7531746" y="307.584"/>
      </g>
     </g>
     <g id="text_4">
      <!-- 0.6 -->
      <g transform="translate(260.673892 322.182437)scale(0.1 -0.1)">
       <defs>
        <path d="M 33.015625 40.375 
Q 26.375 40.375 22.484375 35.828125 
Q 18.609375 31.296875 18.609375 23.390625 
Q 18.609375 15.53125 22.484375 10.953125 
Q 26.375 6.390625 33.015625 6.390625 
Q 39.65625 6.390625 43.53125 10.953125 
Q 47.40625 15.53125 47.40625 23.390625 
Q 47.40625 31.296875 43.53125 35.828125 
Q 39.65625 40.375 33.015625 40.375 
z
M 52.59375 71.296875 
L 52.59375 62.3125 
Q 48.875 64.0625 45.09375 64.984375 
Q 41.3125 65.921875 37.59375 65.921875 
Q 27.828125 65.921875 22.671875 59.328125 
Q 17.53125 52.734375 16.796875 39.40625 
Q 19.671875 43.65625 24.015625 45.921875 
Q 28.375 48.1875 33.59375 48.1875 
Q 44.578125 48.1875 50.953125 41.515625 
Q 57.328125 34.859375 57.328125 23.390625 
Q 57.328125 12.15625 50.6875 5.359375 
Q 44.046875 -1.421875 33.015625 -1.421875 
Q 20.359375 -1.421875 13.671875 8.265625 
Q 6.984375 17.96875 6.984375 36.375 
Q 6.984375 53.65625 15.1875 63.9375 
Q 23.390625 74.21875 37.203125 74.21875 
Q 40.921875 74.21875 44.703125 73.484375 
Q 48.484375 72.75 52.59375 71.296875 
z
" id="DejaVuSans-54"/>
       </defs>
       <use xlink:href="#DejaVuSans-48"/>
       <use x="63.623047" xlink:href="#DejaVuSans-46"/>
       <use x="95.410156" xlink:href="#DejaVuSans-54"/>
      </g>
     </g>
    </g>
    <g id="xtick_5">
     <g id="line2d_5">
      <g>
       <use style="stroke:#000000;stroke-width:0.8;" x="333.556364" xlink:href="#m43a7531746" y="307.584"/>
      </g>
     </g>
     <g id="text_5">
      <!-- 0.8 -->
      <g transform="translate(325.604801 322.182437)scale(0.1 -0.1)">
       <defs>
        <path d="M 31.78125 34.625 
Q 24.75 34.625 20.71875 30.859375 
Q 16.703125 27.09375 16.703125 20.515625 
Q 16.703125 13.921875 20.71875 10.15625 
Q 24.75 6.390625 31.78125 6.390625 
Q 38.8125 6.390625 42.859375 10.171875 
Q 46.921875 13.96875 46.921875 20.515625 
Q 46.921875 27.09375 42.890625 30.859375 
Q 38.875 34.625 31.78125 34.625 
z
M 21.921875 38.8125 
Q 15.578125 40.375 12.03125 44.71875 
Q 8.5 49.078125 8.5 55.328125 
Q 8.5 64.0625 14.71875 69.140625 
Q 20.953125 74.21875 31.78125 74.21875 
Q 42.671875 74.21875 48.875 69.140625 
Q 55.078125 64.0625 55.078125 55.328125 
Q 55.078125 49.078125 51.53125 44.71875 
Q 48 40.375 41.703125 38.8125 
Q 48.828125 37.15625 52.796875 32.3125 
Q 56.78125 27.484375 56.78125 20.515625 
Q 56.78125 9.90625 50.3125 4.234375 
Q 43.84375 -1.421875 31.78125 -1.421875 
Q 19.734375 -1.421875 13.25 4.234375 
Q 6.78125 9.90625 6.78125 20.515625 
Q 6.78125 27.484375 10.78125 32.3125 
Q 14.796875 37.15625 21.921875 38.8125 
z
M 18.3125 54.390625 
Q 18.3125 48.734375 21.84375 45.5625 
Q 25.390625 42.390625 31.78125 42.390625 
Q 38.140625 42.390625 41.71875 45.5625 
Q 45.3125 48.734375 45.3125 54.390625 
Q 45.3125 60.0625 41.71875 63.234375 
Q 38.140625 66.40625 31.78125 66.40625 
Q 25.390625 66.40625 21.84375 63.234375 
Q 18.3125 60.0625 18.3125 54.390625 
z
" id="DejaVuSans-56"/>
       </defs>
       <use xlink:href="#DejaVuSans-48"/>
       <use x="63.623047" xlink:href="#DejaVuSans-46"/>
       <use x="95.410156" xlink:href="#DejaVuSans-56"/>
      </g>
     </g>
    </g>
    <g id="xtick_6">
     <g id="line2d_6">
      <g>
       <use style="stroke:#000000;stroke-width:0.8;" x="398.487273" xlink:href="#m43a7531746" y="307.584"/>
      </g>
     </g>
     <g id="text_6">
      <!-- 1.0 -->
      <g transform="translate(390.53571 322.182437)scale(0.1 -0.1)">
       <defs>
        <path d="M 12.40625 8.296875 
L 28.515625 8.296875 
L 28.515625 63.921875 
L 10.984375 60.40625 
L 10.984375 69.390625 
L 28.421875 72.90625 
L 38.28125 72.90625 
L 38.28125 8.296875 
L 54.390625 8.296875 
L 54.390625 0 
L 12.40625 0 
z
" id="DejaVuSans-49"/>
       </defs>
       <use xlink:href="#DejaVuSans-49"/>
       <use x="63.623047" xlink:href="#DejaVuSans-46"/>
       <use x="95.410156" xlink:href="#DejaVuSans-48"/>
      </g>
     </g>
    </g>
   </g>
   <g id="matplotlib.axis_2">
    <g id="ytick_1">
     <g id="line2d_7">
      <defs>
       <path d="M 0 0 
L -3.5 0 
" id="me2c3b7cb47" style="stroke:#000000;stroke-width:0.8;"/>
      </defs>
      <g>
       <use style="stroke:#000000;stroke-width:0.8;" x="57.6" xlink:href="#me2c3b7cb47" y="290.044036"/>
      </g>
     </g>
     <g id="text_7">
      <!-- −3 -->
      <g transform="translate(35.857813 293.843255)scale(0.1 -0.1)">
       <defs>
        <path d="M 10.59375 35.5 
L 73.1875 35.5 
L 73.1875 27.203125 
L 10.59375 27.203125 
z
" id="DejaVuSans-8722"/>
        <path d="M 40.578125 39.3125 
Q 47.65625 37.796875 51.625 33 
Q 55.609375 28.21875 55.609375 21.1875 
Q 55.609375 10.40625 48.1875 4.484375 
Q 40.765625 -1.421875 27.09375 -1.421875 
Q 22.515625 -1.421875 17.65625 -0.515625 
Q 12.796875 0.390625 7.625 2.203125 
L 7.625 11.71875 
Q 11.71875 9.328125 16.59375 8.109375 
Q 21.484375 6.890625 26.8125 6.890625 
Q 36.078125 6.890625 40.9375 10.546875 
Q 45.796875 14.203125 45.796875 21.1875 
Q 45.796875 27.640625 41.28125 31.265625 
Q 36.765625 34.90625 28.71875 34.90625 
L 20.21875 34.90625 
L 20.21875 43.015625 
L 29.109375 43.015625 
Q 36.375 43.015625 40.234375 45.921875 
Q 44.09375 48.828125 44.09375 54.296875 
Q 44.09375 59.90625 40.109375 62.90625 
Q 36.140625 65.921875 28.71875 65.921875 
Q 24.65625 65.921875 20.015625 65.03125 
Q 15.375 64.15625 9.8125 62.3125 
L 9.8125 71.09375 
Q 15.4375 72.65625 20.34375 73.4375 
Q 25.25 74.21875 29.59375 74.21875 
Q 40.828125 74.21875 47.359375 69.109375 
Q 53.90625 64.015625 53.90625 55.328125 
Q 53.90625 49.265625 50.4375 45.09375 
Q 46.96875 40.921875 40.578125 39.3125 
z
" id="DejaVuSans-51"/>
       </defs>
       <use xlink:href="#DejaVuSans-8722"/>
       <use x="83.789062" xlink:href="#DejaVuSans-51"/>
      </g>
     </g>
    </g>
    <g id="ytick_2">
     <g id="line2d_8">
      <g>
       <use style="stroke:#000000;stroke-width:0.8;" x="57.6" xlink:href="#me2c3b7cb47" y="251.53893"/>
      </g>
     </g>
     <g id="text_8">
      <!-- −2 -->
      <g transform="translate(35.857813 255.338149)scale(0.1 -0.1)">
       <use xlink:href="#DejaVuSans-8722"/>
       <use x="83.789062" xlink:href="#DejaVuSans-50"/>
      </g>
     </g>
    </g>
    <g id="ytick_3">
     <g id="line2d_9">
      <g>
       <use style="stroke:#000000;stroke-width:0.8;" x="57.6" xlink:href="#me2c3b7cb47" y="213.033824"/>
      </g>
     </g>
     <g id="text_9">
      <!-- −1 -->
      <g transform="translate(35.857813 216.833042)scale(0.1 -0.1)">
       <use xlink:href="#DejaVuSans-8722"/>
       <use x="83.789062" xlink:href="#DejaVuSans-49"/>
      </g>
     </g>
    </g>
    <g id="ytick_4">
     <g id="line2d_10">
      <g>
       <use style="stroke:#000000;stroke-width:0.8;" x="57.6" xlink:href="#me2c3b7cb47" y="174.528718"/>
      </g>
     </g>
     <g id="text_10">
      <!-- 0 -->
      <g transform="translate(44.2375 178.327936)scale(0.1 -0.1)">
       <use xlink:href="#DejaVuSans-48"/>
      </g>
     </g>
    </g>
    <g id="ytick_5">
     <g id="line2d_11">
      <g>
       <use style="stroke:#000000;stroke-width:0.8;" x="57.6" xlink:href="#me2c3b7cb47" y="136.023611"/>
      </g>
     </g>
     <g id="text_11">
      <!-- 1 -->
      <g transform="translate(44.2375 139.82283)scale(0.1 -0.1)">
       <use xlink:href="#DejaVuSans-49"/>
      </g>
     </g>
    </g>
    <g id="ytick_6">
     <g id="line2d_12">
      <g>
       <use style="stroke:#000000;stroke-width:0.8;" x="57.6" xlink:href="#me2c3b7cb47" y="97.518505"/>
      </g>
     </g>
     <g id="text_12">
      <!-- 2 -->
      <g transform="translate(44.2375 101.317724)scale(0.1 -0.1)">
       <use xlink:href="#DejaVuSans-50"/>
      </g>
     </g>
    </g>
    <g id="ytick_7">
     <g id="line2d_13">
      <g>
       <use style="stroke:#000000;stroke-width:0.8;" x="57.6" xlink:href="#me2c3b7cb47" y="59.013399"/>
      </g>
     </g>
     <g id="text_13">
      <!-- 3 -->
      <g transform="translate(44.2375 62.812618)scale(0.1 -0.1)">
       <use xlink:href="#DejaVuSans-51"/>
      </g>
     </g>
    </g>
   </g>
   <g id="line2d_14">
    <path clip-path="url(#p55245f25ea)" d="M 73.832727 234.963783 
L 82.816357 234.948947 
L 82.954566 235.516292 
L 83.092776 234.482892 
L 83.230986 232.350471 
L 83.369195 232.734787 
L 83.645615 235.640254 
L 83.783824 235.086356 
L 84.060244 235.150005 
L 86.962647 235.154307 
L 103.409599 235.255721 
L 103.547809 234.419406 
L 103.686019 234.989091 
L 103.824228 236.318302 
L 103.962438 235.354965 
L 104.100648 235.295695 
L 104.377067 240.78303 
L 104.515277 241.213517 
L 104.791696 240.976441 
L 104.929906 240.304641 
L 105.068116 240.932216 
L 105.206325 242.1202 
L 105.897374 252.653327 
L 106.035583 252.390259 
L 106.312003 248.242792 
L 106.588422 252.07862 
L 106.726632 251.875099 
L 106.864842 252.268802 
L 107.003051 253.915702 
L 107.141261 257.224165 
L 107.41768 271.965869 
L 107.6941 272.386224 
L 107.832309 272.909768 
L 108.108729 271.474979 
L 108.246938 272.153636 
L 108.523358 269.181762 
L 108.661567 272.688639 
L 108.937987 283.592664 
L 109.214406 292.685829 
L 109.352616 292.959364 
L 109.629035 292.919133 
L 109.905455 292.886247 
L 110.043664 293.132861 
L 110.320084 292.078429 
L 110.458293 292.190989 
L 110.734713 290.192263 
L 111.011132 289.025141 
L 111.149342 289.719596 
L 111.425761 292.471879 
L 111.563971 292.369788 
L 111.9786 289.038396 
L 112.116809 289.596145 
L 112.255019 288.938826 
L 112.531439 283.932796 
L 112.669648 281.642374 
L 112.807858 282.247473 
L 113.084277 281.512919 
L 113.222487 280.366155 
L 113.637116 273.429515 
L 113.775326 272.445013 
L 114.189955 272.096217 
L 114.328164 271.76037 
L 114.742793 267.16427 
L 115.157423 258.686596 
L 115.295632 258.550154 
L 115.572052 258.681919 
L 115.710261 259.034435 
L 115.986681 258.743785 
L 116.12489 258.621391 
L 116.2631 257.101055 
L 116.539519 257.430937 
L 116.954148 254.259566 
L 117.230568 249.005447 
L 117.506987 248.911789 
L 117.645197 249.193562 
L 117.921616 250.976482 
L 118.198036 250.468025 
L 118.336245 250.760412 
L 118.474455 250.646817 
L 118.612665 250.358126 
L 118.750874 250.79603 
L 118.889084 250.623435 
L 119.165503 249.875843 
L 119.303713 249.392327 
L 119.441923 250.178907 
L 119.580132 250.026478 
L 119.718342 248.650681 
L 119.856552 248.616461 
L 120.132971 248.781104 
L 120.271181 249.184571 
L 120.68581 248.947578 
L 120.82402 248.469065 
L 121.100439 249.529723 
L 121.238649 249.478358 
L 121.376858 250.674757 
L 121.515068 250.716426 
L 121.653278 250.478982 
L 121.791487 251.479556 
L 122.067907 251.569713 
L 122.344326 253.307837 
L 122.482536 253.636281 
L 122.620745 254.735207 
L 122.758955 254.544173 
L 123.035374 252.006971 
L 123.311794 253.487315 
L 123.450003 252.925879 
L 123.588213 252.97503 
L 124.002842 255.754485 
L 124.141052 255.82902 
L 124.279262 256.080054 
L 124.417471 257.285337 
L 124.8321 266.251456 
L 125.10852 263.520623 
L 125.661358 272.599476 
L 125.937778 269.153301 
L 126.075987 269.04658 
L 126.490617 270.939354 
L 126.628826 272.072124 
L 126.767036 274.453547 
L 127.043455 274.878856 
L 127.458084 275.673315 
L 127.596294 276.732195 
L 127.872713 281.304215 
L 128.010923 282.073739 
L 128.149133 282.195772 
L 128.425552 280.978112 
L 128.563762 281.151458 
L 128.840181 284.251595 
L 129.25481 284.602027 
L 129.53123 285.601651 
L 129.807649 288.725884 
L 130.084068 288.135241 
L 130.360488 290.854048 
L 130.498697 291.32859 
L 130.775117 294.128932 
L 130.913326 295.067759 
L 131.051536 54.033048 
L 131.189746 53.804823 
L 131.327955 53.818263 
L 131.466165 295.442043 
L 131.604375 54.519354 
L 132.157214 58.98588 
L 132.295423 59.922771 
L 132.433633 59.355685 
L 132.571843 58.09618 
L 132.710052 58.347569 
L 132.848262 58.26269 
L 132.986472 58.670018 
L 133.124681 60.044995 
L 133.401101 64.49944 
L 133.67752 65.509383 
L 133.953939 64.187508 
L 134.368568 65.816271 
L 134.921407 70.436583 
L 135.059617 70.84655 
L 135.197827 70.576568 
L 135.336036 69.620992 
L 135.750665 71.227835 
L 136.027085 74.257966 
L 136.718133 80.099582 
L 136.856343 80.373595 
L 136.994552 80.913824 
L 137.270972 84.506342 
L 137.409181 84.514101 
L 137.547391 84.382452 
L 137.96202 84.417427 
L 138.514859 84.370773 
L 138.653069 84.229506 
L 138.929488 85.089334 
L 139.205907 84.39015 
L 139.482327 87.016103 
L 139.758746 88.347212 
L 140.035165 89.115015 
L 140.173375 90.075159 
L 140.449794 93.019969 
L 140.726214 94.665371 
L 140.864424 94.094532 
L 141.002633 94.529448 
L 141.140843 94.040524 
L 141.417262 91.504346 
L 141.555472 92.377637 
L 141.831891 96.062917 
L 142.108311 95.623822 
L 142.24652 94.561287 
L 142.38473 92.443465 
L 142.52294 92.479552 
L 143.213988 99.5458 
L 143.352198 99.695958 
L 143.628617 98.035615 
L 144.181456 99.243137 
L 144.596085 100.987105 
L 144.872504 102.089799 
L 145.010714 101.684349 
L 145.425343 103.242732 
L 145.563553 103.302792 
L 145.701762 103.179202 
L 145.839972 103.34895 
L 145.978182 103.331104 
L 146.116392 103.54277 
L 146.254601 103.481306 
L 146.531021 103.591058 
L 146.80744 104.441211 
L 146.94565 105.619946 
L 147.222069 109.889021 
L 147.636698 111.59914 
L 147.913117 109.979312 
L 148.051327 110.928281 
L 148.327746 113.668985 
L 148.465956 113.469968 
L 148.604166 113.625352 
L 148.742375 113.539736 
L 148.880585 112.719489 
L 149.157005 112.92008 
L 149.295214 111.994355 
L 149.571634 112.857829 
L 149.848053 112.797353 
L 152.059408 112.791762 
L 153.441505 112.741259 
L 153.717924 114.072107 
L 153.856134 113.471495 
L 153.994343 113.462334 
L 154.132553 114.309975 
L 154.408972 114.001212 
L 154.823602 114.032832 
L 162.563344 114.075064 
L 162.701553 113.776829 
L 162.839763 114.156469 
L 162.977973 114.926234 
L 163.116183 114.352641 
L 163.392602 115.947244 
L 163.530812 115.749232 
L 164.08365 115.721538 
L 165.327537 115.783454 
L 165.465747 115.205458 
L 165.603957 116.251859 
L 165.880376 119.912076 
L 166.018586 119.234121 
L 166.156796 120.210501 
L 166.433215 123.635053 
L 166.709634 124.304928 
L 166.847844 125.377384 
L 167.124263 130.704488 
L 167.262473 131.494888 
L 167.677102 136.119291 
L 168.091731 139.959987 
L 168.36815 143.730962 
L 168.50636 143.365952 
L 168.64457 143.711899 
L 168.78278 144.955023 
L 169.335618 155.580729 
L 169.473828 155.707543 
L 169.750247 153.444148 
L 170.026667 160.258709 
L 170.441296 161.528731 
L 170.579505 163.90371 
L 170.855925 170.793207 
L 170.994134 170.875213 
L 171.270554 169.18365 
L 171.408763 170.514957 
L 171.685183 175.475982 
L 171.823393 175.067012 
L 172.376231 180.078333 
L 172.514441 178.721657 
L 172.652651 179.963682 
L 172.79086 182.448218 
L 172.92907 182.659332 
L 173.06728 182.488318 
L 173.205489 183.137292 
L 173.343699 184.920792 
L 173.620118 190.095242 
L 173.758328 190.563591 
L 173.896538 191.456715 
L 174.034747 190.907068 
L 174.172957 191.277896 
L 174.311167 192.508976 
L 174.864006 200.622441 
L 175.002215 201.796707 
L 175.140425 201.685645 
L 175.416844 199.293751 
L 175.693264 200.374726 
L 176.107893 205.83177 
L 176.246102 205.645107 
L 176.522522 206.397611 
L 176.660731 207.278648 
L 176.798941 207.418392 
L 176.937151 207.067267 
L 177.075361 207.032832 
L 177.48999 213.581803 
L 177.628199 213.832015 
L 177.904619 213.929943 
L 178.042828 214.300291 
L 178.319248 219.180038 
L 178.457457 219.003066 
L 178.733877 215.031493 
L 178.872086 215.756801 
L 179.148506 219.401832 
L 179.286715 218.979562 
L 179.563135 216.230099 
L 179.977764 225.808443 
L 180.115974 225.378477 
L 180.254183 224.310534 
L 180.392393 224.914035 
L 180.668812 230.227188 
L 181.083441 232.829689 
L 181.221651 232.664831 
L 181.359861 233.18855 
L 181.63628 230.736053 
L 182.050909 234.35528 
L 182.189119 233.906134 
L 182.465538 233.98425 
L 183.294796 233.922701 
L 183.571216 234.405895 
L 183.847635 231.35304 
L 184.124054 234.645775 
L 184.538683 234.240685 
L 185.367941 234.221859 
L 185.644361 234.184168 
L 185.782571 234.401381 
L 185.92078 233.816153 
L 186.1972 231.97231 
L 186.473619 235.068985 
L 186.750038 234.642099 
L 187.302877 234.668883 
L 194.213361 234.773337 
L 194.489781 233.398165 
L 194.62799 233.360281 
L 194.7662 231.033017 
L 195.042619 224.398616 
L 195.180829 222.699652 
L 195.457248 214.999926 
L 195.733668 214.212055 
L 195.871877 214.357577 
L 196.148297 212.625374 
L 196.424716 207.067393 
L 196.701135 203.602623 
L 196.839345 202.184541 
L 197.253974 186.502458 
L 197.806813 182.685174 
L 197.945023 181.360462 
L 198.221442 173.526432 
L 198.497861 166.930581 
L 198.636071 167.539232 
L 198.774281 167.546839 
L 198.91249 167.145025 
L 199.0507 165.898831 
L 199.465329 154.781612 
L 199.603539 154.156758 
L 199.741749 154.066702 
L 200.432797 142.976112 
L 200.571007 142.737639 
L 200.709216 143.691862 
L 201.123845 140.425042 
L 201.262055 140.597684 
L 201.400265 140.339825 
L 201.676684 139.144382 
L 201.814894 139.120387 
L 201.953103 138.372332 
L 202.091313 136.290277 
L 202.229523 135.995853 
L 202.367732 136.189383 
L 202.505942 136.159698 
L 202.644152 136.290819 
L 202.782362 136.210625 
L 202.920571 136.40975 
L 203.058781 136.8391 
L 203.3352 135.397978 
L 203.47341 135.531317 
L 203.749829 136.317368 
L 203.888039 135.343604 
L 204.026249 135.358147 
L 204.302668 135.974634 
L 204.440878 135.752109 
L 204.579087 134.568069 
L 204.717297 134.556276 
L 204.855507 133.818387 
L 204.993716 133.735138 
L 205.270136 134.450898 
L 205.546555 134.008595 
L 205.684765 134.599251 
L 205.961184 134.207928 
L 206.099394 134.175503 
L 206.237604 134.574231 
L 206.375813 135.801332 
L 206.514023 135.55895 
L 206.790442 134.700229 
L 206.928652 134.651241 
L 207.066862 134.994718 
L 207.205071 135.880195 
L 207.6197 134.796626 
L 207.89612 132.274231 
L 208.172539 131.875211 
L 208.448959 136.003676 
L 208.587168 135.930204 
L 208.863588 135.242648 
L 209.001797 135.542646 
L 209.278217 136.307601 
L 209.692846 132.731699 
L 210.107475 133.954339 
L 210.245684 133.62418 
L 210.383894 132.841638 
L 210.660313 130.235941 
L 210.936733 130.855047 
L 211.213152 134.3582 
L 211.351362 134.790937 
L 211.489572 134.065151 
L 211.765991 131.454854 
L 212.04241 130.885553 
L 212.31883 132.213855 
L 212.457039 132.072089 
L 212.595249 132.267938 
L 212.733459 132.912786 
L 212.871668 132.553861 
L 213.148088 128.183204 
L 213.424507 128.50174 
L 213.700927 127.832903 
L 213.977346 126.76515 
L 214.115556 127.475834 
L 214.391975 131.412244 
L 214.806604 125.150208 
L 214.944814 126.14072 
L 215.359443 123.191444 
L 215.497652 123.114032 
L 215.635862 124.063097 
L 215.912281 121.251236 
L 216.050491 121.319658 
L 216.188701 121.232651 
L 216.46512 118.867262 
L 216.74154 120.246768 
L 217.017959 118.031549 
L 217.156169 118.470601 
L 217.294378 118.251825 
L 217.570798 115.790182 
L 217.709007 116.254256 
L 217.847217 116.236603 
L 217.985427 115.627517 
L 218.123636 116.526767 
L 218.261846 118.190034 
L 218.400056 117.667875 
L 218.676475 115.062806 
L 218.814685 115.649027 
L 218.952894 115.549418 
L 219.091104 115.610168 
L 219.229314 115.469908 
L 219.367524 115.012436 
L 219.643943 117.579554 
L 220.058572 113.815726 
L 220.196782 114.21288 
L 220.473201 114.144299 
L 221.164249 114.173874 
L 221.440669 113.93904 
L 221.578878 114.681888 
L 221.855298 113.03716 
L 222.131717 114.161748 
L 222.269927 114.009699 
L 222.684556 114.038072 
L 224.204862 114.088061 
L 224.343072 113.703608 
L 224.619491 114.377912 
L 224.757701 113.180106 
L 224.895911 113.044603 
L 225.034121 112.72909 
L 225.725169 103.718069 
L 226.001588 96.689243 
L 226.416217 93.53288 
L 226.830846 84.642771 
L 226.969056 84.781095 
L 227.245475 84.799021 
L 227.383685 83.515049 
L 227.936524 70.896956 
L 228.074734 72.289672 
L 228.212943 71.967507 
L 228.489363 67.740184 
L 228.903992 62.99591 
L 229.042201 59.86064 
L 229.180411 60.047294 
L 229.318621 60.824347 
L 229.871459 57.411828 
L 230.147879 58.896464 
L 230.424298 55.536341 
L 230.700718 56.163023 
L 230.838927 55.586845 
L 230.977137 56.121599 
L 231.253556 58.841612 
L 231.391766 57.877661 
L 231.529976 56.037271 
L 232.082814 61.863786 
L 232.359234 60.624221 
L 232.497443 61.489357 
L 232.773863 63.763744 
L 233.050282 64.231364 
L 233.603121 69.787141 
L 233.87954 70.621299 
L 234.01775 71.284859 
L 234.294169 70.834647 
L 235.123427 73.302382 
L 235.261637 74.776552 
L 235.538056 74.833538 
L 235.676266 74.596449 
L 235.952685 72.018039 
L 236.229105 72.603303 
L 236.643734 76.494044 
L 236.781944 76.447487 
L 237.334782 76.818347 
L 237.472992 77.094708 
L 237.611202 76.863666 
L 237.887621 74.550251 
L 238.025831 74.629464 
L 238.16404 74.526938 
L 238.30225 74.097751 
L 238.44046 74.320856 
L 238.716879 75.682928 
L 238.855089 75.647855 
L 238.993299 75.797593 
L 239.131508 75.748309 
L 239.546137 76.143211 
L 239.684347 76.713223 
L 239.822557 75.838616 
L 239.960766 75.827404 
L 240.098976 76.021764 
L 240.237186 75.975216 
L 240.375395 76.05995 
L 240.513605 75.969107 
L 240.651815 76.067009 
L 240.790024 75.966178 
L 240.928234 76.067042 
L 241.066444 75.968403 
L 241.204653 76.057408 
L 241.342863 75.980048 
L 241.757492 76.1602 
L 241.895702 76.202659 
L 242.033912 76.762906 
L 242.172121 78.303909 
L 242.310331 77.808071 
L 242.448541 76.467361 
L 243.001379 76.745534 
L 243.139589 76.646289 
L 243.277799 76.74887 
L 243.416008 76.690083 
L 243.692428 76.983786 
L 243.830637 77.100624 
L 244.245266 76.921428 
L 244.383476 76.509485 
L 244.659896 78.078495 
L 244.798105 78.061605 
L 245.074525 78.67623 
L 245.212734 77.965344 
L 245.350944 76.548534 
L 245.627363 76.687634 
L 245.903783 79.514673 
L 246.180202 79.380919 
L 246.318412 78.454248 
L 246.456621 78.621153 
L 246.87125 79.897214 
L 247.14767 79.161151 
L 247.285879 80.102326 
L 247.562299 83.744644 
L 247.838718 85.232131 
L 247.976928 85.151281 
L 248.667976 85.149547 
L 248.806186 85.005787 
L 249.220815 92.417641 
L 249.497234 98.547372 
L 249.773654 96.77721 
L 249.911863 95.453898 
L 250.050073 95.225546 
L 250.188283 95.766157 
L 250.326493 97.130028 
L 250.464702 96.060252 
L 250.741122 89.911333 
L 250.879331 91.090087 
L 251.43217 103.648718 
L 251.708589 108.426944 
L 251.846799 108.084044 
L 251.985009 108.269956 
L 252.261428 110.05363 
L 252.399638 109.267585 
L 252.537847 110.717312 
L 252.814267 114.599779 
L 252.952476 114.07416 
L 253.228896 114.13314 
L 253.367106 114.167584 
L 253.505315 114.083697 
L 253.643525 113.787452 
L 254.058154 118.503447 
L 254.334573 116.646448 
L 254.749202 122.331029 
L 255.025622 120.330065 
L 255.85488 124.07507 
L 256.131299 125.266933 
L 256.545928 125.316946 
L 256.960557 129.404725 
L 257.098767 129.230252 
L 257.236977 130.448872 
L 257.513396 134.818543 
L 257.651606 134.878943 
L 257.928025 134.078061 
L 258.066235 134.311277 
L 258.204444 134.156497 
L 258.342654 134.345799 
L 258.619073 133.444069 
L 258.895493 133.958397 
L 259.033703 133.711382 
L 259.171912 132.946323 
L 259.448332 134.099575 
L 259.586541 134.467837 
L 259.724751 135.804794 
L 260.13938 135.058309 
L 260.415799 136.088349 
L 260.554009 135.617274 
L 260.692219 135.986532 
L 260.968638 134.578997 
L 261.106848 135.735485 
L 261.521477 135.353842 
L 261.797896 135.996898 
L 261.936106 135.010805 
L 262.212525 136.161225 
L 262.350735 135.755644 
L 262.488945 135.825494 
L 262.627154 136.120867 
L 262.765364 136.894521 
L 263.041783 135.96769 
L 263.179993 136.258555 
L 263.318203 135.090547 
L 263.456412 134.897051 
L 263.871041 135.238683 
L 264.009251 134.007477 
L 264.147461 133.803422 
L 264.28567 133.899419 
L 264.42388 133.742936 
L 264.56209 133.082703 
L 264.7003 133.414415 
L 264.838509 134.126296 
L 264.976719 134.177844 
L 265.253138 133.939305 
L 265.391348 135.30815 
L 265.667767 135.602165 
L 265.805977 136.537387 
L 265.944187 135.983225 
L 266.220606 136.457564 
L 266.358816 135.56839 
L 266.497025 135.412781 
L 266.635235 135.464186 
L 266.773445 135.800216 
L 267.049864 134.340784 
L 267.188074 135.631263 
L 267.602703 135.481634 
L 267.879122 136.690613 
L 268.017332 136.022039 
L 268.155542 136.491889 
L 268.293751 136.537932 
L 268.431961 135.795454 
L 268.570171 136.193856 
L 268.84659 134.784176 
L 269.123009 135.114436 
L 269.261219 135.379634 
L 269.537638 133.594869 
L 269.814058 133.565118 
L 270.090477 132.924118 
L 270.228687 133.938958 
L 270.366897 134.035705 
L 270.643316 135.789884 
L 271.057945 135.02923 
L 271.196155 135.981254 
L 271.472574 135.663289 
L 271.610784 135.926725 
L 271.748993 134.689063 
L 271.887203 134.959962 
L 272.025413 135.893535 
L 272.301832 135.361847 
L 272.440042 135.457954 
L 272.578251 136.081629 
L 272.716461 135.827946 
L 272.854671 135.277232 
L 272.992881 136.10042 
L 273.2693 135.338323 
L 273.40751 135.385809 
L 273.545719 133.938706 
L 273.960348 133.4258 
L 274.098558 134.736707 
L 274.236768 134.981079 
L 274.374977 134.841388 
L 274.651397 135.025195 
L 274.927816 134.056417 
L 275.204235 134.344418 
L 275.342445 135.643115 
L 275.618865 135.680031 
L 275.757074 136.248831 
L 275.895284 135.325731 
L 276.171703 136.176625 
L 276.448123 135.368669 
L 276.586332 135.438174 
L 276.724542 135.883253 
L 277.000961 134.654834 
L 277.139171 135.956636 
L 277.41559 136.003929 
L 277.5538 136.417925 
L 277.69201 135.372998 
L 277.830219 135.386342 
L 277.968429 134.981156 
L 278.106639 133.855524 
L 278.383058 134.154746 
L 278.521268 133.981746 
L 278.659478 133.036232 
L 278.797687 132.961791 
L 279.074107 133.634192 
L 279.350526 135.482985 
L 279.488736 135.488438 
L 279.626945 135.993179 
L 279.765155 134.985741 
L 279.903365 135.126368 
L 280.041574 135.511202 
L 280.179784 134.66151 
L 280.456203 136.072279 
L 280.594413 135.749068 
L 280.732623 136.335369 
L 281.009042 135.17759 
L 281.147252 135.305262 
L 281.423671 133.528902 
L 281.700091 133.648151 
L 281.8383 133.802504 
L 281.97651 133.163556 
L 282.252929 133.485398 
L 282.529349 135.411658 
L 282.667558 135.179244 
L 282.805768 136.022206 
L 282.943978 135.910139 
L 283.082187 135.525448 
L 283.220397 136.143823 
L 283.358607 135.290307 
L 283.496816 135.398004 
L 283.635026 136.892349 
L 283.773236 136.816979 
L 283.911445 137.072726 
L 284.049655 136.729963 
L 284.326075 132.434254 
L 284.602494 132.646535 
L 284.740704 132.494743 
L 284.878913 132.160728 
L 285.155333 134.017829 
L 285.293542 134.219022 
L 285.431752 135.671044 
L 285.569962 135.670737 
L 285.846381 136.034071 
L 286.1228 134.488138 
L 286.26101 134.376263 
L 286.39922 134.487794 
L 286.537429 134.994843 
L 286.675639 135.01101 
L 286.952059 132.570427 
L 287.228478 132.608671 
L 287.366688 132.845864 
L 287.504897 132.74225 
L 287.781317 136.591068 
L 287.919526 136.455132 
L 288.057736 136.67026 
L 288.195946 136.292422 
L 288.334155 135.18326 
L 288.610575 136.75174 
L 288.748784 136.540319 
L 288.886994 136.819328 
L 289.301623 131.33004 
L 289.578042 131.279794 
L 289.716252 131.104687 
L 289.854462 131.329774 
L 290.130881 135.523185 
L 290.407301 134.184729 
L 290.960139 126.252742 
L 291.789397 118.286431 
L 292.480446 102.280804 
L 292.618656 98.223412 
L 292.895075 81.254443 
L 293.309704 73.405214 
L 293.862543 57.933579 
L 294.000752 56.349294 
L 294.138962 56.271976 
L 294.277172 295.377223 
L 294.553591 289.833168 
L 294.83001 288.244723 
L 294.96822 288.826593 
L 295.10643 288.14132 
L 295.382849 284.003751 
L 295.521059 283.393648 
L 295.659269 284.481249 
L 295.797478 284.446254 
L 296.073898 283.027166 
L 296.212107 283.029432 
L 296.488527 282.508851 
L 296.764946 284.468556 
L 297.041365 284.075536 
L 297.179575 284.262346 
L 297.317785 283.724695 
L 297.455994 281.978797 
L 297.594204 282.056243 
L 297.732414 282.461502 
L 298.008833 281.916881 
L 298.285253 284.237148 
L 298.561672 283.965577 
L 298.699882 284.223344 
L 298.838091 283.936985 
L 298.976301 282.111664 
L 299.114511 281.926545 
L 299.25272 282.226989 
L 299.52914 281.35534 
L 299.805559 282.91542 
L 299.943769 282.633577 
L 300.496607 280.763293 
L 300.634817 280.517633 
L 300.773027 281.56766 
L 300.911237 281.103119 
L 301.049446 278.996523 
L 301.325866 271.940309 
L 301.602285 270.950885 
L 301.878704 272.676632 
L 302.155124 263.954584 
L 302.293333 263.531007 
L 302.846172 254.149718 
L 302.984382 253.916174 
L 303.260801 250.504082 
L 303.399011 250.771272 
L 303.67543 253.447672 
L 303.95185 252.001019 
L 304.090059 251.528264 
L 304.228269 250.567364 
L 304.366479 250.411399 
L 304.781108 251.487987 
L 304.919317 251.368419 
L 305.057527 252.012104 
L 305.333946 255.274429 
L 305.610366 258.040859 
L 305.748575 257.365444 
L 305.886785 255.644183 
L 306.024995 255.505391 
L 306.439624 257.49515 
L 306.716043 260.630423 
L 306.854253 261.325434 
L 307.130672 266.782588 
L 307.268882 267.267054 
L 307.407092 266.398664 
L 307.545301 268.445057 
L 307.95993 277.226107 
L 308.23635 282.006302 
L 308.374559 283.19104 
L 308.512769 283.32618 
L 308.789188 284.490512 
L 309.203817 290.631938 
L 309.342027 289.754057 
L 309.480237 290.825717 
L 309.618447 294.155387 
L 309.756656 55.877552 
L 309.894866 56.529391 
L 310.033076 54.665581 
L 310.171285 54.51 
L 310.447705 58.5823 
L 310.585914 59.512153 
L 310.862334 63.473655 
L 311.138753 64.261576 
L 311.276963 64.82326 
L 311.691592 68.997744 
L 311.968011 71.410567 
L 312.38264 79.277135 
L 312.52085 79.716048 
L 312.935479 82.424369 
L 313.073689 82.010664 
L 313.211898 81.992498 
L 313.350108 81.837666 
L 313.902947 88.312123 
L 314.041156 88.411425 
L 314.179366 89.171538 
L 314.455785 94.016444 
L 314.593995 94.843354 
L 314.870414 100.975162 
L 315.146834 102.661945 
L 315.285044 102.292076 
L 315.423253 103.354362 
L 315.699673 107.358171 
L 315.837882 107.482956 
L 315.976092 107.063871 
L 316.114302 109.257719 
L 316.528931 120.519021 
L 316.80535 119.595058 
L 317.219979 122.662539 
L 317.358189 121.376911 
L 317.496398 121.198299 
L 317.772818 124.503745 
L 317.911028 123.35015 
L 318.049237 123.614543 
L 318.187447 124.992271 
L 318.325657 124.289067 
L 318.463866 124.233241 
L 318.740286 125.74496 
L 318.878495 125.839724 
L 319.154915 126.603528 
L 319.293124 126.684593 
L 319.431334 126.579568 
L 319.845963 125.980099 
L 319.984173 125.837999 
L 320.260592 127.977433 
L 320.537011 127.354601 
L 320.813431 127.924567 
L 320.951641 126.526734 
L 321.08985 126.548171 
L 321.36627 127.315746 
L 321.504479 127.441207 
L 321.642689 127.282036 
L 321.780899 127.781084 
L 322.057318 125.048905 
L 322.333737 125.35988 
L 322.471947 125.123981 
L 322.610157 125.347005 
L 322.748366 127.254148 
L 322.886576 127.617003 
L 323.024786 127.612965 
L 323.162995 128.259504 
L 323.439415 127.246252 
L 323.577625 127.311541 
L 323.715834 128.174896 
L 323.854044 128.135501 
L 324.130463 127.396724 
L 324.268673 126.839836 
L 324.683302 128.46961 
L 324.821512 128.220927 
L 324.959721 126.787891 
L 325.097931 126.842165 
L 325.236141 126.480714 
L 325.37435 126.691596 
L 325.65077 127.852005 
L 325.788979 127.860977 
L 325.927189 126.139454 
L 326.065399 125.892044 
L 326.203608 127.536265 
L 326.341818 127.507223 
L 326.480028 127.917605 
L 326.618238 129.381716 
L 326.756447 129.221263 
L 327.032867 130.358986 
L 327.171076 130.10726 
L 327.447496 134.140924 
L 327.723915 136.532039 
L 328.138544 138.291262 
L 328.276754 140.003572 
L 328.829592 153.459001 
L 329.106012 156.719037 
L 329.244222 158.714233 
L 329.520641 165.253083 
L 329.658851 166.478846 
L 330.07348 173.749051 
L 330.349899 173.686173 
L 330.488109 173.729196 
L 330.764528 173.295848 
L 331.040947 177.941508 
L 331.179157 177.796641 
L 331.317367 176.519447 
L 331.455576 176.607205 
L 331.593786 177.068774 
L 331.870206 176.990721 
L 332.008415 177.011907 
L 332.146625 176.816016 
L 332.284835 176.277265 
L 332.423044 176.598114 
L 332.561254 176.561191 
L 332.699464 176.233866 
L 332.975883 176.810083 
L 333.252302 179.002549 
L 333.390512 179.484517 
L 333.528722 180.435928 
L 333.666931 180.144213 
L 333.943351 176.399114 
L 334.21977 178.85094 
L 334.496189 179.030314 
L 334.634399 178.382886 
L 334.910819 180.468554 
L 335.049028 179.755659 
L 335.187238 178.197567 
L 335.325448 178.146161 
L 335.463657 179.044052 
L 335.601867 179.00427 
L 335.740077 178.335318 
L 335.878286 176.449685 
L 336.016496 176.208757 
L 336.154706 177.962526 
L 336.292915 178.104089 
L 336.569335 173.369169 
L 336.983964 174.081789 
L 337.122173 173.064612 
L 337.536803 160.614137 
L 338.227851 133.043833 
L 338.366061 131.463265 
L 338.50427 132.415372 
L 338.64248 135.429647 
L 338.78069 135.654601 
L 339.057109 132.093861 
L 339.609948 135.200795 
L 339.886367 136.437338 
L 340.024577 138.28139 
L 340.439206 146.226433 
L 340.715625 148.237173 
L 341.821303 175.407593 
L 341.959512 175.343714 
L 342.097722 175.135908 
L 342.374141 175.184937 
L 343.06519 175.110606 
L 343.341609 176.306021 
L 343.479819 175.444933 
L 343.618029 175.810044 
L 343.756238 175.745151 
L 343.894448 174.903025 
L 344.585496 175.019898 
L 344.723706 174.572327 
L 344.861916 175.451864 
L 345.138335 178.288832 
L 345.414754 176.434189 
L 345.552964 176.511425 
L 345.691174 175.951876 
L 346.105803 179.851589 
L 346.382222 178.607587 
L 346.520432 179.125986 
L 346.658642 178.279008 
L 346.796851 178.156078 
L 346.935061 178.73308 
L 347.073271 178.579837 
L 347.21148 179.289963 
L 347.626109 186.200525 
L 347.764319 186.417768 
L 348.040738 187.808835 
L 348.178948 188.043256 
L 348.455367 189.423996 
L 348.731787 191.586433 
L 349.008206 189.509806 
L 349.146416 191.739114 
L 349.422835 199.105133 
L 349.561045 200.162493 
L 349.837464 202.732653 
L 350.113884 199.080765 
L 350.390303 198.303296 
L 350.528513 199.504358 
L 350.666722 198.991448 
L 350.804932 197.88395 
L 350.943142 198.178593 
L 351.081351 198.202003 
L 351.219561 198.08221 
L 351.357771 198.701059 
L 351.91061 206.556225 
L 352.048819 207.510879 
L 352.325239 212.944107 
L 352.601658 213.523115 
L 352.739868 213.658427 
L 353.430916 219.993599 
L 353.707335 217.144897 
L 353.983755 218.7392 
L 354.121964 217.896218 
L 354.260174 218.726457 
L 354.536594 224.00351 
L 354.951223 225.551197 
L 355.227642 231.450251 
L 355.365852 231.54723 
L 355.504061 231.937245 
L 355.780481 229.970928 
L 355.91869 230.626983 
L 356.0569 230.462296 
L 356.19511 229.839367 
L 356.333319 231.135387 
L 356.609739 235.445612 
L 356.747948 234.929661 
L 357.300787 234.963695 
L 398.487273 234.963783 
L 398.487273 234.963783 
" style="fill:none;stroke:#1f77b4;stroke-linecap:square;stroke-width:1.5;"/>
   </g>
   <g id="line2d_15">
    <path clip-path="url(#p55245f25ea)" d="M 73.832727 234.784902 
L 83.471446 234.831806 
L 83.90303 235.394038 
L 84.190753 235.485191 
L 86.060952 235.493743 
L 104.619081 235.498764 
L 104.762943 235.64273 
L 105.482163 241.421006 
L 105.769886 241.863784 
L 105.913747 242.06111 
L 106.201453 244.051415 
L 106.489021 249.086288 
L 107.064456 250.76472 
L 107.352177 251.363132 
L 107.639893 252.519758 
L 107.783754 252.470911 
L 107.927615 252.916956 
L 108.645948 267.603489 
L 108.789809 267.768987 
L 109.221393 267.605692 
L 109.365254 268.598973 
L 109.939845 280.326333 
L 110.22756 281.073138 
L 111.090729 281.016848 
L 111.522313 280.794552 
L 111.666174 280.835113 
L 111.953895 281.196999 
L 112.097756 281.125401 
L 112.241617 280.851768 
L 112.52932 279.836688 
L 112.673175 280.218997 
L 112.817037 280.258591 
L 113.392443 277.887799 
L 113.536297 278.278401 
L 113.680159 278.203497 
L 113.967841 276.461469 
L 114.111695 276.060449 
L 114.255557 275.313987 
L 114.687037 272.126839 
L 114.974758 271.392248 
L 115.11862 270.066913 
L 115.405833 264.060298 
L 115.693501 262.189024 
L 115.981222 261.867946 
L 116.125083 261.851698 
L 116.268945 261.537334 
L 116.988161 257.832522 
L 117.419744 257.914465 
L 117.851299 256.202668 
L 118.139021 255.736246 
L 118.282883 255.711478 
L 118.570605 255.943668 
L 119.002189 255.911851 
L 119.721496 255.917619 
L 120.009219 255.848578 
L 120.296942 255.894272 
L 120.728526 255.821901 
L 121.735556 255.948469 
L 122.023279 256.030919 
L 122.311002 255.965026 
L 123.030309 256.207328 
L 123.605754 256.221312 
L 123.893476 256.49022 
L 124.181197 256.887181 
L 124.325058 257.54497 
L 124.612696 259.654401 
L 124.756556 259.477035 
L 124.900418 259.548042 
L 125.04427 260.003003 
L 125.331907 262.18929 
L 126.338741 270.338095 
L 126.626444 271.84243 
L 127.057953 274.488054 
L 127.345674 275.069818 
L 127.633397 275.100014 
L 127.777259 275.50609 
L 128.064931 277.829826 
L 128.352522 280.74728 
L 128.640231 281.586932 
L 128.784093 281.629574 
L 128.927954 281.934644 
L 129.215656 283.053339 
L 129.64724 283.19317 
L 129.934962 283.140476 
L 130.078824 284.094794 
L 130.366297 288.019129 
L 130.510134 288.73616 
L 130.79745 293.339867 
L 130.941311 295.102256 
L 131.085169 295.372695 
L 131.229031 53.579796 
L 131.372892 295.485 
L 132.236061 295.476373 
L 132.379923 54.04246 
L 132.667586 56.701243 
L 132.955115 59.811415 
L 133.386699 59.912909 
L 133.53056 60.477602 
L 133.962037 63.638493 
L 134.249754 64.635668 
L 134.393615 64.831122 
L 134.537477 64.827511 
L 134.681338 65.67283 
L 134.968891 68.896679 
L 135.256592 70.000914 
L 135.400453 70.157017 
L 135.544314 70.699629 
L 135.831988 72.296194 
L 136.263571 72.565417 
L 136.407433 73.49919 
L 137.126282 81.598581 
L 137.413935 83.486302 
L 137.557797 84.200975 
L 137.845519 84.430845 
L 138.99641 84.533282 
L 140.003439 85.011921 
L 140.147301 86.188684 
L 140.578561 91.425671 
L 140.722423 92.050747 
L 141.010145 92.310271 
L 141.154004 92.520155 
L 141.441665 94.336734 
L 141.729377 95.601599 
L 142.017099 96.027847 
L 142.448684 96.066475 
L 142.592545 96.090321 
L 142.736406 96.376793 
L 143.024113 97.336329 
L 143.167973 97.495519 
L 143.743391 99.126903 
L 144.031113 99.183992 
L 144.31883 99.755516 
L 145.613564 102.264648 
L 146.764455 102.420588 
L 147.052177 102.58419 
L 147.196037 102.44105 
L 147.339899 104.071703 
L 147.627138 109.068672 
L 147.914838 110.113278 
L 148.634144 110.519759 
L 148.921867 110.671934 
L 149.20959 110.683398 
L 149.497307 111.221297 
L 149.928833 113.550453 
L 150.360417 113.472278 
L 154.100815 113.513164 
L 154.532399 113.791103 
L 154.820121 114.051884 
L 158.848242 114.045296 
L 163.307947 114.059958 
L 163.595666 114.511627 
L 164.027231 115.941664 
L 164.746539 115.970436 
L 166.185153 115.982011 
L 166.472833 117.512773 
L 167.048028 123.364525 
L 167.47956 125.778674 
L 167.623421 125.817004 
L 167.911128 126.788028 
L 168.486278 133.437283 
L 169.204738 146.141076 
L 169.348475 147.805037 
L 169.779361 156.267441 
L 169.92322 156.036873 
L 170.067082 156.162695 
L 170.210939 156.470147 
L 171.073846 164.316041 
L 171.648818 173.33724 
L 171.936536 174.458636 
L 172.080397 174.522776 
L 172.224258 174.454509 
L 172.511972 175.218526 
L 172.799545 178.490428 
L 173.37463 186.713009 
L 174.093876 190.902526 
L 174.237727 191.412993 
L 174.956863 197.495893 
L 175.100716 197.968761 
L 175.532191 201.507186 
L 175.676051 201.694125 
L 176.251418 205.004784 
L 176.826854 206.399356 
L 176.970715 206.362308 
L 177.114575 206.169031 
L 177.689731 212.591462 
L 177.833593 212.729602 
L 177.977454 212.646833 
L 178.552874 214.714885 
L 178.984353 218.221834 
L 179.415933 218.901621 
L 179.703629 220.356768 
L 180.13506 226.623137 
L 180.422513 230.177714 
L 180.710234 230.533608 
L 181.141818 230.66114 
L 181.573402 230.824863 
L 181.717264 230.806027 
L 182.148846 231.209614 
L 182.868154 231.183924 
L 183.443599 231.219655 
L 184.450629 231.567535 
L 185.601521 231.551251 
L 186.608551 231.666271 
L 187.615581 231.692492 
L 194.520932 231.643425 
L 194.952516 231.519926 
L 195.671624 222.408256 
L 196.677492 200.545715 
L 197.540223 186.232648 
L 197.971314 175.400231 
L 198.115099 173.642279 
L 198.546413 162.917577 
L 198.833672 156.812296 
L 198.977498 155.578691 
L 199.265221 155.334271 
L 199.696301 144.867045 
L 199.840118 143.410345 
L 200.127841 143.177583 
L 200.559426 142.978027 
L 200.703287 142.857481 
L 200.990988 140.897974 
L 201.422496 136.427161 
L 201.566355 136.048468 
L 201.997939 136.018742 
L 202.285662 135.93244 
L 202.861108 135.617269 
L 203.868138 135.52671 
L 204.731307 135.21772 
L 206.02606 135.116294 
L 206.313783 134.975932 
L 206.601506 134.853351 
L 207.320813 134.760393 
L 208.471704 133.924578 
L 208.759427 133.98172 
L 209.334872 133.488963 
L 210.198041 133.343175 
L 210.629625 132.881766 
L 211.205071 132.457544 
L 211.492793 132.264744 
L 211.636655 132.23987 
L 212.212098 130.856487 
L 212.499821 130.824461 
L 213.219127 129.790686 
L 213.506849 129.006935 
L 213.79457 128.413838 
L 213.938431 128.321547 
L 214.801596 126.435069 
L 215.233167 123.621365 
L 215.520889 122.689562 
L 215.808608 121.759494 
L 216.09633 120.885494 
L 216.527906 118.748267 
L 216.815624 116.996205 
L 217.534931 116.631569 
L 217.822654 116.398928 
L 217.966515 116.371308 
L 218.398099 115.981357 
L 218.829684 115.91984 
L 219.405129 115.83714 
L 219.980575 115.325365 
L 221.706913 115.33174 
L 222.138497 115.223694 
L 222.570082 115.240383 
L 222.857804 115.005522 
L 223.577111 113.006161 
L 223.720972 112.586597 
L 225.159587 112.555058 
L 226.166597 94.375854 
L 226.454248 86.193785 
L 226.59811 83.208379 
L 226.885833 83.251324 
L 227.17354 78.464739 
L 227.461155 70.205832 
L 227.748878 70.587817 
L 228.180462 70.222074 
L 228.324324 70.185897 
L 228.612046 69.664237 
L 228.899765 68.373751 
L 229.187487 68.815974 
L 229.475209 68.116748 
L 229.762932 68.241163 
L 230.482239 67.956796 
L 230.913823 68.253681 
L 231.201545 67.820807 
L 231.489259 69.732457 
L 231.920842 68.870778 
L 232.064703 68.805963 
L 232.352422 69.915003 
L 232.640145 69.465254 
L 232.927865 70.421518 
L 233.647173 70.362914 
L 234.510341 70.369399 
L 234.941926 70.324162 
L 235.229648 70.769978 
L 235.805073 74.250402 
L 236.524377 75.456874 
L 237.531407 75.620103 
L 238.538438 75.795392 
L 239.545468 75.849087 
L 239.977052 76.296664 
L 240.552497 76.331211 
L 242.134974 76.441708 
L 242.566558 76.59298 
L 242.998142 76.64429 
L 243.429726 76.829997 
L 244.005172 76.909225 
L 244.149034 77.020639 
L 244.436752 77.916164 
L 246.019228 78.388768 
L 246.306951 78.629867 
L 246.594672 79.0799 
L 246.882389 79.895106 
L 247.026251 80.348101 
L 247.170112 80.399759 
L 247.313974 80.619228 
L 247.88935 85.508801 
L 248.752519 85.541006 
L 249.040242 85.81535 
L 249.184099 86.269669 
L 249.32796 87.262223 
L 249.759137 95.646677 
L 249.902999 96.84385 
L 250.190721 96.998356 
L 250.478444 96.992828 
L 250.622303 97.323988 
L 250.766165 97.936942 
L 251.053738 103.053885 
L 251.485306 104.656325 
L 251.629167 105.09507 
L 251.916834 108.299679 
L 252.20438 112.979737 
L 252.492098 113.878002 
L 253.067543 113.965134 
L 253.642989 113.988833 
L 253.930707 114.757243 
L 254.074568 114.689314 
L 254.218429 115.083644 
L 254.505962 119.980262 
L 254.793675 121.038647 
L 255.081398 121.187421 
L 255.800683 123.806997 
L 256.232267 124.638784 
L 256.663676 129.97275 
L 257.095253 131.757958 
L 257.382973 132.339952 
L 257.670696 132.530735 
L 257.958411 133.47059 
L 262.705839 133.816858 
L 263.137423 133.868707 
L 273.495449 134.185257 
L 281.40783 134.06096 
L 283.997336 133.949923 
L 284.716643 133.875792 
L 285.148227 133.578013 
L 286.874564 133.375774 
L 288.744763 133.130787 
L 289.176347 132.881788 
L 289.751792 132.811381 
L 290.471095 132.068449 
L 290.90268 132.003977 
L 291.046541 131.894027 
L 291.765842 130.844309 
L 292.053562 130.442868 
L 292.197424 129.006716 
L 292.77128 111.082185 
L 293.2005 95.714871 
L 293.917409 70.75536 
L 294.346682 56.092406 
L 294.490544 294.752683 
L 294.777784 289.285723 
L 295.640792 283.656186 
L 296.072375 283.359863 
L 298.661881 282.840971 
L 300.388218 282.500101 
L 300.53208 282.235756 
L 300.819787 281.333042 
L 300.963648 281.305695 
L 301.10751 280.732582 
L 301.826602 274.578077 
L 301.970464 271.841262 
L 302.256984 263.856908 
L 302.688559 262.965064 
L 303.263996 261.717292 
L 303.695569 260.800246 
L 303.983289 261.18315 
L 304.702596 260.981283 
L 305.13418 261.143365 
L 305.56576 261.766311 
L 305.709622 261.748034 
L 305.997342 261.461742 
L 306.428925 261.825827 
L 306.572787 263.266488 
L 306.860115 268.07703 
L 308.154574 277.255208 
L 308.87338 287.323268 
L 309.161085 288.257396 
L 309.304946 288.31303 
L 309.448808 290.015643 
L 309.592144 293.312254 
L 309.736006 53.568 
L 310.023667 56.430476 
L 310.311111 60.442146 
L 310.454942 61.23794 
L 311.317575 70.940426 
L 311.749063 75.569189 
L 312.036725 77.327154 
L 312.180585 77.547213 
L 313.33072 90.587912 
L 313.618434 92.095617 
L 313.906153 92.686967 
L 314.19353 96.934064 
L 314.481175 100.154635 
L 315.344188 106.319197 
L 315.775198 113.815101 
L 315.919058 113.982301 
L 316.206522 117.691822 
L 316.637908 122.832858 
L 316.78177 122.873427 
L 317.357098 126.328897 
L 317.788682 126.575713 
L 318.939574 126.576401 
L 319.946604 126.781121 
L 321.816803 127.196789 
L 322.104525 127.389809 
L 323.111555 127.490653 
L 324.694031 127.742473 
L 325.557199 128.092052 
L 326.132644 128.362329 
L 326.276506 128.361922 
L 326.564227 128.047228 
L 326.850748 136.178829 
L 327.138282 141.555447 
L 327.569833 145.498605 
L 327.857307 148.939952 
L 328.001163 149.293748 
L 328.575831 160.184003 
L 329.006551 170.184976 
L 329.294253 171.131112 
L 329.438114 171.153135 
L 329.725835 170.817715 
L 329.869697 171.129263 
L 330.157405 171.929634 
L 330.588989 171.97809 
L 331.883743 171.942008 
L 332.171465 171.9275 
L 332.746911 172.183721 
L 333.466218 172.153578 
L 333.897802 172.186 
L 334.329386 171.95845 
L 334.617109 172.053178 
L 334.904827 171.526708 
L 335.048689 171.637926 
L 335.192546 171.953806 
L 335.336407 171.595529 
L 335.62411 170.707337 
L 335.767971 170.757306 
L 336.055685 169.979203 
L 336.774745 160.707455 
L 337.204991 148.761604 
L 337.348853 148.006309 
L 337.636571 148.44657 
L 338.068155 148.387289 
L 338.643598 149.035834 
L 339.075113 151.825703 
L 339.218974 151.981051 
L 339.50668 153.151674 
L 339.937738 163.368241 
L 340.224871 169.868881 
L 340.512439 172.52751 
L 340.800161 172.663604 
L 341.231746 172.656501 
L 341.519467 173.026096 
L 342.238731 176.077805 
L 342.670315 176.087266 
L 343.245761 176.097462 
L 343.53348 176.706071 
L 343.965036 178.589746 
L 344.108898 178.598137 
L 345.115926 179.302759 
L 345.259788 179.316327 
L 345.547509 179.651844 
L 345.835224 180.55869 
L 346.410562 185.302612 
L 346.554423 185.537308 
L 346.698285 185.55217 
L 347.273615 190.030141 
L 347.992912 192.338464 
L 348.280616 194.383792 
L 348.568277 198.020346 
L 348.855775 201.269745 
L 348.999635 201.418432 
L 349.574959 206.447844 
L 349.86268 207.039644 
L 350.294195 209.627613 
L 350.438052 209.253231 
L 350.725719 211.451471 
L 351.157246 214.990955 
L 351.444955 216.072206 
L 352.020393 217.304174 
L 352.308116 217.635595 
L 352.451975 217.894119 
L 353.602729 225.845951 
L 354.177951 233.294511 
L 354.321812 233.593095 
L 354.465674 233.579831 
L 354.897248 234.746582 
L 355.328832 234.786117 
L 372.73607 234.784902 
L 398.487273 234.784902 
L 398.487273 234.784902 
" style="fill:none;stroke:#ff7f0e;stroke-linecap:square;stroke-width:1.5;"/>
   </g>
   <g id="line2d_16">
    <path clip-path="url(#p55245f25ea)" d="M 73.832727 234.953955 
L 83.323067 234.807875 
L 83.748008 234.77449 
L 88.847295 234.784861 
L 97.912695 234.984502 
L 98.904223 235.139569 
L 99.612457 235.574081 
L 100.320691 236.26545 
L 101.170572 237.453247 
L 102.020454 239.064217 
L 102.870335 241.13084 
L 103.861863 244.137187 
L 104.995037 248.366239 
L 107.11974 258.44984 
L 107.686327 261.500242 
L 108.111267 265.061863 
L 108.394561 266.376362 
L 110.235969 277.870872 
L 110.944203 280.559456 
L 111.510791 281.806347 
L 111.794084 282.125168 
L 112.077378 282.127932 
L 112.360672 281.80234 
L 112.643965 281.250536 
L 113.068906 279.811154 
L 113.635493 277.230667 
L 114.627021 271.000666 
L 115.760195 264.430497 
L 116.751723 260.016356 
L 117.743251 256.594281 
L 118.593132 254.657686 
L 119.301367 253.599469 
L 119.867954 253.116417 
L 120.292895 252.95557 
L 120.859482 253.026987 
L 121.284423 253.294966 
L 121.85101 253.957219 
L 122.417598 254.969699 
L 123.267479 257.134163 
L 124.11736 260.15165 
L 124.967241 264.062321 
L 126.667002 273.017338 
L 128.933351 284.323474 
L 131.199701 295.24371 
L 131.341347 53.961438 
L 135.874046 74.661106 
L 137.573808 81.174509 
L 139.556864 87.71195 
L 141.398273 93.052527 
L 142.956388 97.010664 
L 145.081091 101.557917 
L 147.205794 105.399307 
L 148.622263 107.488711 
L 150.180378 109.360401 
L 151.596847 110.736843 
L 153.013315 111.818304 
L 154.571431 112.695809 
L 156.129546 113.257954 
L 158.537543 113.920616 
L 160.095659 114.361626 
L 160.94554 114.906055 
L 161.795421 115.696372 
L 162.786949 116.928632 
L 163.353536 118.074401 
L 164.061771 120.033963 
L 164.911652 123.103496 
L 165.903179 127.660946 
L 167.036353 134.267525 
L 168.02788 141.560833 
L 169.019406 150.592484 
L 170.719166 166.810283 
L 172.985513 186.335715 
L 174.260334 195.700862 
L 175.676802 204.490812 
L 177.376563 213.513185 
L 178.651385 219.328842 
L 180.776088 227.512628 
L 182.192556 231.703236 
L 183.184084 233.97618 
L 184.033965 235.550376 
L 184.883846 236.692457 
L 185.592081 237.319324 
L 186.158668 237.687358 
L 186.866902 237.881694 
L 187.575137 237.839537 
L 188.283371 237.568653 
L 188.991605 237.07046 
L 189.841487 236.166455 
L 190.691368 234.902634 
L 191.257955 233.636543 
L 191.824543 231.810397 
L 192.532777 228.776901 
L 193.382658 224.054041 
L 194.232538 218.024686 
L 195.082418 210.303401 
L 196.073945 199.212762 
L 197.065471 185.022931 
L 198.056998 170.969204 
L 199.048526 159.868669 
L 199.898407 152.296973 
L 200.748288 146.374617 
L 201.598169 141.868948 
L 202.448051 138.595903 
L 203.156285 136.687648 
L 203.722872 135.755737 
L 204.28946 135.29725 
L 205.847575 134.424743 
L 208.113925 132.729181 
L 210.096981 130.77962 
L 212.504978 128.070206 
L 213.638153 126.569419 
L 214.20474 125.785969 
L 215.196269 124.336704 
L 217.037678 121.512124 
L 220.720496 115.080454 
L 221.712024 112.920163 
L 222.420259 110.874283 
L 223.27014 107.689543 
L 224.120021 103.65802 
L 225.111549 97.841394 
L 226.244723 89.635081 
L 227.802839 78.023113 
L 228.936014 71.933931 
L 229.927542 68.059174 
L 230.635776 66.034949 
L 231.202363 64.994187 
L 231.627304 64.560952 
L 232.193891 64.397179 
L 232.760479 64.713424 
L 234.601888 66.191874 
L 236.160004 67.683756 
L 239.417882 71.750184 
L 241.259291 74.642432 
L 242.959053 77.727852 
L 244.517169 81.023334 
L 246.358578 85.623898 
L 247.491753 88.92117 
L 249.474809 95.78051 
L 254.857389 117.601062 
L 256.840445 123.568397 
L 258.39856 127.458044 
L 259.956676 130.572118 
L 261.231497 132.559698 
L 262.364672 133.910557 
L 263.3562 134.751898 
L 264.489375 135.32078 
L 267.463959 136.316082 
L 269.447016 136.794956 
L 273.129834 137.346982 
L 275.962771 137.464856 
L 278.087474 137.38678 
L 281.770293 136.880796 
L 284.319936 136.305212 
L 285.169818 136.008702 
L 287.719461 135.12761 
L 288.286049 134.69162 
L 288.852636 133.999891 
L 289.277577 132.839939 
L 289.844164 130.373815 
L 290.694044 125.239372 
L 291.260631 120.901235 
L 291.968864 113.24957 
L 292.677095 102.847561 
L 295.226731 61.28829 
L 295.934966 53.606746 
L 296.076613 294.23931 
L 296.926494 287.670959 
L 297.918022 282.065141 
L 299.476137 275.294721 
L 301.034253 269.189543 
L 303.300602 261.125651 
L 303.86719 260.098606 
L 304.29213 259.872656 
L 304.575424 259.908269 
L 304.858718 260.120834 
L 305.283659 260.799438 
L 305.708599 261.853655 
L 306.416833 264.416293 
L 306.983421 267.128653 
L 307.691655 271.592286 
L 308.399889 277.276172 
L 309.391417 287.316909 
L 310.099651 295.138034 
L 310.241298 54.798592 
L 312.082705 75.025299 
L 313.640819 89.720872 
L 314.773993 98.617209 
L 316.19046 107.643752 
L 317.465282 114.164039 
L 318.598456 118.817368 
L 319.589984 122.001511 
L 320.439865 124.152943 
L 321.431393 125.99322 
L 322.139627 126.804768 
L 322.564568 127.269463 
L 323.131155 128.235439 
L 323.981037 130.253316 
L 324.830918 132.972942 
L 325.680799 136.518572 
L 326.530679 140.953111 
L 327.522207 147.226627 
L 328.513734 154.681108 
L 330.638435 171.306481 
L 331.205022 173.542598 
L 331.771609 174.989104 
L 332.338197 175.891561 
L 332.904784 176.417195 
L 333.188078 176.4866 
L 333.613019 176.210708 
L 333.896312 175.767983 
L 334.321253 174.614262 
L 334.88784 172.210053 
L 335.596074 168.177107 
L 336.587601 161.391928 
L 337.862422 152.601332 
L 338.287362 151.104171 
L 338.570656 150.623157 
L 338.85395 150.538091 
L 339.137243 150.84157 
L 339.420537 151.586208 
L 339.987124 154.152821 
L 342.961706 171.735655 
L 345.086408 182.343353 
L 350.468987 207.315989 
L 351.743808 212.640297 
L 353.01863 217.107445 
L 354.860038 222.876365 
L 356.701447 227.434217 
L 357.976269 229.905174 
L 359.109444 231.671762 
L 360.242619 233.05675 
L 361.375794 234.086483 
L 362.367322 234.710851 
L 363.075556 234.966749 
L 363.925437 235.016184 
L 379.364946 235.075737 
L 398.487273 234.957162 
L 398.487273 234.957162 
" style="fill:none;stroke:#2ca02c;stroke-linecap:square;stroke-width:1.5;"/>
   </g>
   <g id="line2d_17">
    <path clip-path="url(#p55245f25ea)" d="M 73.832727 234.957749 
L 96.354579 234.932453 
L 98.762576 235.117835 
L 99.612457 235.629228 
L 100.320691 236.362706 
L 101.170572 237.614071 
L 102.020454 239.269741 
L 103.011982 241.722288 
L 104.00351 244.758608 
L 105.136684 248.928617 
L 106.269859 253.951719 
L 107.403033 260.018351 
L 108.819501 269.057244 
L 110.094322 277.673362 
L 110.66091 280.158322 
L 111.227497 281.658601 
L 111.652438 282.117568 
L 111.935731 282.114774 
L 112.219025 281.867041 
L 112.643966 280.99756 
L 113.068906 279.58635 
L 113.635493 276.910442 
L 114.485374 271.538882 
L 115.476902 265.769321 
L 116.46843 261.072526 
L 117.318311 257.894235 
L 118.168192 255.494265 
L 118.876426 254.075789 
L 119.443014 253.328735 
L 120.009601 252.926921 
L 120.434542 252.853527 
L 120.859482 252.975608 
L 121.42607 253.440038 
L 121.992657 254.255424 
L 122.700891 255.761545 
L 123.409126 257.811847 
L 124.259007 260.959704 
L 125.250534 265.634638 
L 128.225118 280.876169 
L 131.199701 295.325964 
L 131.341348 54.066508 
L 134.882518 70.39467 
L 136.58228 77.412201 
L 138.565336 84.611874 
L 140.123451 89.45917 
L 141.823214 94.168647 
L 143.522976 98.298894 
L 145.364385 102.170553 
L 146.780854 104.739949 
L 148.055675 106.694967 
L 149.472144 108.592599 
L 150.888613 110.184064 
L 152.163434 111.317577 
L 153.438256 112.167757 
L 154.571431 112.678443 
L 158.112603 113.825566 
L 160.095659 114.490077 
L 161.228834 115.17569 
L 162.220362 115.995466 
L 162.786949 116.753069 
L 163.353537 117.871397 
L 164.061771 119.825717 
L 164.911652 122.943422 
L 165.761533 126.908877 
L 166.75306 132.554346 
L 167.744587 139.5529 
L 168.736113 148.030562 
L 171.427399 173.147713 
L 173.268806 188.562439 
L 174.543627 197.542931 
L 176.101742 206.856257 
L 177.659857 214.804152 
L 179.217972 221.714426 
L 180.776088 227.451524 
L 181.909262 230.864875 
L 183.042437 233.607267 
L 184.033965 235.465234 
L 184.883846 236.660625 
L 185.733728 237.485779 
L 186.441962 237.889124 
L 187.150196 238.035205 
L 187.858431 237.922149 
L 188.566665 237.549802 
L 189.274899 236.918319 
L 190.12478 235.818793 
L 190.833015 234.555273 
L 191.399602 233.112354 
L 192.107836 230.571964 
L 192.957717 226.456733 
L 193.807598 221.112818 
L 194.657478 214.41019 
L 195.507358 206.135715 
L 196.357238 195.783428 
L 197.490411 178.339207 
L 198.340292 167.398693 
L 199.33182 157.243708 
L 200.323348 149.220385 
L 201.173229 143.899362 
L 202.02311 139.859093 
L 202.731344 137.519998 
L 203.297932 136.331499 
L 203.864519 135.626251 
L 204.856047 134.96613 
L 206.839103 133.519064 
L 208.963806 131.672535 
L 210.946862 129.656292 
L 213.071565 127.197922 
L 215.337915 124.254268 
L 217.179324 121.543055 
L 219.162381 118.197147 
L 221.145437 114.473681 
L 221.853671 112.766661 
L 222.703552 109.977796 
L 223.553433 106.408374 
L 224.544961 101.165064 
L 225.536489 94.688111 
L 226.528017 87.011202 
L 227.519545 79.542987 
L 228.369426 74.3064 
L 229.219307 70.274353 
L 230.069188 67.353286 
L 230.777423 65.76306 
L 231.34401 65.046222 
L 231.768951 64.826672 
L 232.193891 64.900515 
L 233.185419 65.431431 
L 234.601888 66.431348 
L 236.443297 68.050175 
L 238.001413 69.823376 
L 239.701175 72.123938 
L 241.259291 74.579383 
L 243.1007 77.912354 
L 244.517169 80.929836 
L 245.933637 84.505823 
L 247.491753 89.075548 
L 248.766574 93.348076 
L 250.74963 100.968857 
L 254.290801 115.834567 
L 256.273857 122.186171 
L 257.973619 126.548479 
L 259.390088 129.578479 
L 260.66491 131.766834 
L 261.798085 133.288854 
L 262.789613 134.292605 
L 263.781141 134.990707 
L 264.914316 135.506663 
L 267.605606 136.347109 
L 270.296897 136.95038 
L 272.988187 137.316424 
L 275.537831 137.4449 
L 278.087474 137.360774 
L 280.637118 137.064124 
L 283.328408 136.520046 
L 286.019699 135.743723 
L 287.861108 135.012052 
L 288.569342 134.390402 
L 288.994283 133.674704 
L 289.419223 132.426758 
L 289.985811 129.876707 
L 290.552398 126.277656 
L 291.260631 120.291699 
L 291.968863 112.462033 
L 292.818741 100.239264 
L 293.668618 83.956016 
L 294.518497 69.904849 
L 295.510025 57.582491 
L 295.793318 54.703373 
L 295.934965 295.270588 
L 296.784846 288.333597 
L 297.493081 284.089863 
L 298.626256 279.141598 
L 302.450721 263.481269 
L 303.300602 260.836318 
L 303.725543 260.065475 
L 304.150483 259.693039 
L 304.433777 259.655076 
L 304.717071 259.800948 
L 305.142011 260.34906 
L 305.566952 261.289652 
L 306.133539 263.15585 
L 306.841774 266.482434 
L 307.550008 270.818472 
L 308.399889 277.674347 
L 309.533064 289.134743 
L 310.099651 295.486722 
L 310.241298 55.209958 
L 311.941058 73.811292 
L 313.357525 87.384611 
L 314.773992 98.7778 
L 315.907167 106.202868 
L 317.040341 112.281431 
L 318.173516 117.291627 
L 319.165043 120.833066 
L 320.156571 123.585913 
L 321.006452 125.328721 
L 321.714687 126.33803 
L 322.564568 127.373158 
L 323.272802 128.556202 
L 323.981037 130.252766 
L 324.830918 133.030128 
L 325.680799 136.618575 
L 326.672326 141.856953 
L 327.8055 149.181392 
L 328.938674 158.403692 
L 329.930201 166.465554 
L 330.780082 171.588379 
L 331.488316 174.56371 
L 332.054903 176.101376 
L 332.479844 176.761303 
L 332.904784 176.991665 
L 333.188078 176.908501 
L 333.471372 176.638337 
L 333.896312 175.879466 
L 334.4629 174.213435 
L 335.029487 171.802039 
L 335.737721 167.73305 
L 336.445954 162.452364 
L 337.579128 153.539245 
L 338.145715 151.067953 
L 338.570656 150.272159 
L 338.85395 150.245924 
L 339.137243 150.618027 
L 339.420537 151.382981 
L 339.845477 153.318356 
L 344.519821 179.566307 
L 347.21111 192.385985 
L 351.460514 211.511095 
L 353.160276 217.76153 
L 354.576745 222.004156 
L 356.418154 226.696018 
L 357.692975 229.326255 
L 358.967797 231.450921 
L 360.100972 232.922038 
L 361.0925 233.888442 
L 362.084028 234.554226 
L 362.933909 234.873186 
L 363.925437 235.013133 
L 383.755999 235.067482 
L 398.487273 234.961089 
L 398.487273 234.961089 
" style="fill:none;stroke:#d62728;stroke-linecap:square;stroke-width:1.5;"/>
   </g>
   <g id="patch_3">
    <path d="M 57.6 307.584 
L 57.6 41.472 
" style="fill:none;stroke:#000000;stroke-linecap:square;stroke-linejoin:miter;stroke-width:0.8;"/>
   </g>
   <g id="patch_4">
    <path d="M 414.72 307.584 
L 414.72 41.472 
" style="fill:none;stroke:#000000;stroke-linecap:square;stroke-linejoin:miter;stroke-width:0.8;"/>
   </g>
   <g id="patch_5">
    <path d="M 57.6 307.584 
L 414.72 307.584 
" style="fill:none;stroke:#000000;stroke-linecap:square;stroke-linejoin:miter;stroke-width:0.8;"/>
   </g>
   <g id="patch_6">
    <path d="M 57.6 41.472 
L 414.72 41.472 
" style="fill:none;stroke:#000000;stroke-linecap:square;stroke-linejoin:miter;stroke-width:0.8;"/>
   </g>
   <g id="text_14">
    <!-- Heading vs Distance esp -->
    <g transform="translate(161.9325 35.472)scale(0.12 -0.12)">
     <defs>
      <path d="M 9.8125 72.90625 
L 19.671875 72.90625 
L 19.671875 43.015625 
L 55.515625 43.015625 
L 55.515625 72.90625 
L 65.375 72.90625 
L 65.375 0 
L 55.515625 0 
L 55.515625 34.71875 
L 19.671875 34.71875 
L 19.671875 0 
L 9.8125 0 
z
" id="DejaVuSans-72"/>
      <path d="M 56.203125 29.59375 
L 56.203125 25.203125 
L 14.890625 25.203125 
Q 15.484375 15.921875 20.484375 11.0625 
Q 25.484375 6.203125 34.421875 6.203125 
Q 39.59375 6.203125 44.453125 7.46875 
Q 49.3125 8.734375 54.109375 11.28125 
L 54.109375 2.78125 
Q 49.265625 0.734375 44.1875 -0.34375 
Q 39.109375 -1.421875 33.890625 -1.421875 
Q 20.796875 -1.421875 13.15625 6.1875 
Q 5.515625 13.8125 5.515625 26.8125 
Q 5.515625 40.234375 12.765625 48.109375 
Q 20.015625 56 32.328125 56 
Q 43.359375 56 49.78125 48.890625 
Q 56.203125 41.796875 56.203125 29.59375 
z
M 47.21875 32.234375 
Q 47.125 39.59375 43.09375 43.984375 
Q 39.0625 48.390625 32.421875 48.390625 
Q 24.90625 48.390625 20.390625 44.140625 
Q 15.875 39.890625 15.1875 32.171875 
z
" id="DejaVuSans-101"/>
      <path d="M 34.28125 27.484375 
Q 23.390625 27.484375 19.1875 25 
Q 14.984375 22.515625 14.984375 16.5 
Q 14.984375 11.71875 18.140625 8.90625 
Q 21.296875 6.109375 26.703125 6.109375 
Q 34.1875 6.109375 38.703125 11.40625 
Q 43.21875 16.703125 43.21875 25.484375 
L 43.21875 27.484375 
z
M 52.203125 31.203125 
L 52.203125 0 
L 43.21875 0 
L 43.21875 8.296875 
Q 40.140625 3.328125 35.546875 0.953125 
Q 30.953125 -1.421875 24.3125 -1.421875 
Q 15.921875 -1.421875 10.953125 3.296875 
Q 6 8.015625 6 15.921875 
Q 6 25.140625 12.171875 29.828125 
Q 18.359375 34.515625 30.609375 34.515625 
L 43.21875 34.515625 
L 43.21875 35.40625 
Q 43.21875 41.609375 39.140625 45 
Q 35.0625 48.390625 27.6875 48.390625 
Q 23 48.390625 18.546875 47.265625 
Q 14.109375 46.140625 10.015625 43.890625 
L 10.015625 52.203125 
Q 14.9375 54.109375 19.578125 55.046875 
Q 24.21875 56 28.609375 56 
Q 40.484375 56 46.34375 49.84375 
Q 52.203125 43.703125 52.203125 31.203125 
z
" id="DejaVuSans-97"/>
      <path d="M 45.40625 46.390625 
L 45.40625 75.984375 
L 54.390625 75.984375 
L 54.390625 0 
L 45.40625 0 
L 45.40625 8.203125 
Q 42.578125 3.328125 38.25 0.953125 
Q 33.9375 -1.421875 27.875 -1.421875 
Q 17.96875 -1.421875 11.734375 6.484375 
Q 5.515625 14.40625 5.515625 27.296875 
Q 5.515625 40.1875 11.734375 48.09375 
Q 17.96875 56 27.875 56 
Q 33.9375 56 38.25 53.625 
Q 42.578125 51.265625 45.40625 46.390625 
z
M 14.796875 27.296875 
Q 14.796875 17.390625 18.875 11.75 
Q 22.953125 6.109375 30.078125 6.109375 
Q 37.203125 6.109375 41.296875 11.75 
Q 45.40625 17.390625 45.40625 27.296875 
Q 45.40625 37.203125 41.296875 42.84375 
Q 37.203125 48.484375 30.078125 48.484375 
Q 22.953125 48.484375 18.875 42.84375 
Q 14.796875 37.203125 14.796875 27.296875 
z
" id="DejaVuSans-100"/>
      <path d="M 9.421875 54.6875 
L 18.40625 54.6875 
L 18.40625 0 
L 9.421875 0 
z
M 9.421875 75.984375 
L 18.40625 75.984375 
L 18.40625 64.59375 
L 9.421875 64.59375 
z
" id="DejaVuSans-105"/>
      <path d="M 54.890625 33.015625 
L 54.890625 0 
L 45.90625 0 
L 45.90625 32.71875 
Q 45.90625 40.484375 42.875 44.328125 
Q 39.84375 48.1875 33.796875 48.1875 
Q 26.515625 48.1875 22.3125 43.546875 
Q 18.109375 38.921875 18.109375 30.90625 
L 18.109375 0 
L 9.078125 0 
L 9.078125 54.6875 
L 18.109375 54.6875 
L 18.109375 46.1875 
Q 21.34375 51.125 25.703125 53.5625 
Q 30.078125 56 35.796875 56 
Q 45.21875 56 50.046875 50.171875 
Q 54.890625 44.34375 54.890625 33.015625 
z
" id="DejaVuSans-110"/>
      <path d="M 45.40625 27.984375 
Q 45.40625 37.75 41.375 43.109375 
Q 37.359375 48.484375 30.078125 48.484375 
Q 22.859375 48.484375 18.828125 43.109375 
Q 14.796875 37.75 14.796875 27.984375 
Q 14.796875 18.265625 18.828125 12.890625 
Q 22.859375 7.515625 30.078125 7.515625 
Q 37.359375 7.515625 41.375 12.890625 
Q 45.40625 18.265625 45.40625 27.984375 
z
M 54.390625 6.78125 
Q 54.390625 -7.171875 48.1875 -13.984375 
Q 42 -20.796875 29.203125 -20.796875 
Q 24.46875 -20.796875 20.265625 -20.09375 
Q 16.0625 -19.390625 12.109375 -17.921875 
L 12.109375 -9.1875 
Q 16.0625 -11.328125 19.921875 -12.34375 
Q 23.78125 -13.375 27.78125 -13.375 
Q 36.625 -13.375 41.015625 -8.765625 
Q 45.40625 -4.15625 45.40625 5.171875 
L 45.40625 9.625 
Q 42.625 4.78125 38.28125 2.390625 
Q 33.9375 0 27.875 0 
Q 17.828125 0 11.671875 7.65625 
Q 5.515625 15.328125 5.515625 27.984375 
Q 5.515625 40.671875 11.671875 48.328125 
Q 17.828125 56 27.875 56 
Q 33.9375 56 38.28125 53.609375 
Q 42.625 51.21875 45.40625 46.390625 
L 45.40625 54.6875 
L 54.390625 54.6875 
z
" id="DejaVuSans-103"/>
      <path id="DejaVuSans-32"/>
      <path d="M 2.984375 54.6875 
L 12.5 54.6875 
L 29.59375 8.796875 
L 46.6875 54.6875 
L 56.203125 54.6875 
L 35.6875 0 
L 23.484375 0 
z
" id="DejaVuSans-118"/>
      <path d="M 44.28125 53.078125 
L 44.28125 44.578125 
Q 40.484375 46.53125 36.375 47.5 
Q 32.28125 48.484375 27.875 48.484375 
Q 21.1875 48.484375 17.84375 46.4375 
Q 14.5 44.390625 14.5 40.28125 
Q 14.5 37.15625 16.890625 35.375 
Q 19.28125 33.59375 26.515625 31.984375 
L 29.59375 31.296875 
Q 39.15625 29.25 43.1875 25.515625 
Q 47.21875 21.78125 47.21875 15.09375 
Q 47.21875 7.46875 41.1875 3.015625 
Q 35.15625 -1.421875 24.609375 -1.421875 
Q 20.21875 -1.421875 15.453125 -0.5625 
Q 10.6875 0.296875 5.421875 2 
L 5.421875 11.28125 
Q 10.40625 8.6875 15.234375 7.390625 
Q 20.0625 6.109375 24.8125 6.109375 
Q 31.15625 6.109375 34.5625 8.28125 
Q 37.984375 10.453125 37.984375 14.40625 
Q 37.984375 18.0625 35.515625 20.015625 
Q 33.0625 21.96875 24.703125 23.78125 
L 21.578125 24.515625 
Q 13.234375 26.265625 9.515625 29.90625 
Q 5.8125 33.546875 5.8125 39.890625 
Q 5.8125 47.609375 11.28125 51.796875 
Q 16.75 56 26.8125 56 
Q 31.78125 56 36.171875 55.265625 
Q 40.578125 54.546875 44.28125 53.078125 
z
" id="DejaVuSans-115"/>
      <path d="M 19.671875 64.796875 
L 19.671875 8.109375 
L 31.59375 8.109375 
Q 46.6875 8.109375 53.6875 14.9375 
Q 60.6875 21.78125 60.6875 36.53125 
Q 60.6875 51.171875 53.6875 57.984375 
Q 46.6875 64.796875 31.59375 64.796875 
z
M 9.8125 72.90625 
L 30.078125 72.90625 
Q 51.265625 72.90625 61.171875 64.09375 
Q 71.09375 55.28125 71.09375 36.53125 
Q 71.09375 17.671875 61.125 8.828125 
Q 51.171875 0 30.078125 0 
L 9.8125 0 
z
" id="DejaVuSans-68"/>
      <path d="M 18.3125 70.21875 
L 18.3125 54.6875 
L 36.8125 54.6875 
L 36.8125 47.703125 
L 18.3125 47.703125 
L 18.3125 18.015625 
Q 18.3125 11.328125 20.140625 9.421875 
Q 21.96875 7.515625 27.59375 7.515625 
L 36.8125 7.515625 
L 36.8125 0 
L 27.59375 0 
Q 17.1875 0 13.234375 3.875 
Q 9.28125 7.765625 9.28125 18.015625 
L 9.28125 47.703125 
L 2.6875 47.703125 
L 2.6875 54.6875 
L 9.28125 54.6875 
L 9.28125 70.21875 
z
" id="DejaVuSans-116"/>
      <path d="M 48.78125 52.59375 
L 48.78125 44.1875 
Q 44.96875 46.296875 41.140625 47.34375 
Q 37.3125 48.390625 33.40625 48.390625 
Q 24.65625 48.390625 19.8125 42.84375 
Q 14.984375 37.3125 14.984375 27.296875 
Q 14.984375 17.28125 19.8125 11.734375 
Q 24.65625 6.203125 33.40625 6.203125 
Q 37.3125 6.203125 41.140625 7.25 
Q 44.96875 8.296875 48.78125 10.40625 
L 48.78125 2.09375 
Q 45.015625 0.34375 40.984375 -0.53125 
Q 36.96875 -1.421875 32.421875 -1.421875 
Q 20.0625 -1.421875 12.78125 6.34375 
Q 5.515625 14.109375 5.515625 27.296875 
Q 5.515625 40.671875 12.859375 48.328125 
Q 20.21875 56 33.015625 56 
Q 37.15625 56 41.109375 55.140625 
Q 45.0625 54.296875 48.78125 52.59375 
z
" id="DejaVuSans-99"/>
      <path d="M 18.109375 8.203125 
L 18.109375 -20.796875 
L 9.078125 -20.796875 
L 9.078125 54.6875 
L 18.109375 54.6875 
L 18.109375 46.390625 
Q 20.953125 51.265625 25.265625 53.625 
Q 29.59375 56 35.59375 56 
Q 45.5625 56 51.78125 48.09375 
Q 58.015625 40.1875 58.015625 27.296875 
Q 58.015625 14.40625 51.78125 6.484375 
Q 45.5625 -1.421875 35.59375 -1.421875 
Q 29.59375 -1.421875 25.265625 0.953125 
Q 20.953125 3.328125 18.109375 8.203125 
z
M 48.6875 27.296875 
Q 48.6875 37.203125 44.609375 42.84375 
Q 40.53125 48.484375 33.40625 48.484375 
Q 26.265625 48.484375 22.1875 42.84375 
Q 18.109375 37.203125 18.109375 27.296875 
Q 18.109375 17.390625 22.1875 11.75 
Q 26.265625 6.109375 33.40625 6.109375 
Q 40.53125 6.109375 44.609375 11.75 
Q 48.6875 17.390625 48.6875 27.296875 
z
" id="DejaVuSans-112"/>
     </defs>
     <use xlink:href="#DejaVuSans-72"/>
     <use x="75.195312" xlink:href="#DejaVuSans-101"/>
     <use x="136.71875" xlink:href="#DejaVuSans-97"/>
     <use x="197.998047" xlink:href="#DejaVuSans-100"/>
     <use x="261.474609" xlink:href="#DejaVuSans-105"/>
     <use x="289.257812" xlink:href="#DejaVuSans-110"/>
     <use x="352.636719" xlink:href="#DejaVuSans-103"/>
     <use x="416.113281" xlink:href="#DejaVuSans-32"/>
     <use x="447.900391" xlink:href="#DejaVuSans-118"/>
     <use x="507.080078" xlink:href="#DejaVuSans-115"/>
     <use x="559.179688" xlink:href="#DejaVuSans-32"/>
     <use x="590.966797" xlink:href="#DejaVuSans-68"/>
     <use x="667.96875" xlink:href="#DejaVuSans-105"/>
     <use x="695.751953" xlink:href="#DejaVuSans-115"/>
     <use x="747.851562" xlink:href="#DejaVuSans-116"/>
     <use x="787.060547" xlink:href="#DejaVuSans-97"/>
     <use x="848.339844" xlink:href="#DejaVuSans-110"/>
     <use x="911.71875" xlink:href="#DejaVuSans-99"/>
     <use x="966.699219" xlink:href="#DejaVuSans-101"/>
     <use x="1028.222656" xlink:href="#DejaVuSans-32"/>
     <use x="1060.009766" xlink:href="#DejaVuSans-101"/>
     <use x="1121.533203" xlink:href="#DejaVuSans-115"/>
     <use x="1173.632812" xlink:href="#DejaVuSans-112"/>
    </g>
   </g>
   <g id="legend_1">
    <g id="patch_7">
     <path d="M 131.841875 108.1845 
L 407.72 108.1845 
Q 409.72 108.1845 409.72 106.1845 
L 409.72 48.472 
Q 409.72 46.472 407.72 46.472 
L 131.841875 46.472 
Q 129.841875 46.472 129.841875 48.472 
L 129.841875 106.1845 
Q 129.841875 108.1845 131.841875 108.1845 
z
" style="fill:#ffffff;opacity:0.8;stroke:#cccccc;stroke-linejoin:miter;"/>
    </g>
    <g id="line2d_18">
     <path d="M 133.841875 54.570438 
L 153.841875 54.570438 
" style="fill:none;stroke:#1f77b4;stroke-linecap:square;stroke-width:1.5;"/>
    </g>
    <g id="line2d_19"/>
    <g id="text_15">
     <!-- Centreline -->
     <g transform="translate(161.841875 58.070438)scale(0.1 -0.1)">
      <defs>
       <path d="M 64.40625 67.28125 
L 64.40625 56.890625 
Q 59.421875 61.53125 53.78125 63.8125 
Q 48.140625 66.109375 41.796875 66.109375 
Q 29.296875 66.109375 22.65625 58.46875 
Q 16.015625 50.828125 16.015625 36.375 
Q 16.015625 21.96875 22.65625 14.328125 
Q 29.296875 6.6875 41.796875 6.6875 
Q 48.140625 6.6875 53.78125 8.984375 
Q 59.421875 11.28125 64.40625 15.921875 
L 64.40625 5.609375 
Q 59.234375 2.09375 53.4375 0.328125 
Q 47.65625 -1.421875 41.21875 -1.421875 
Q 24.65625 -1.421875 15.125 8.703125 
Q 5.609375 18.84375 5.609375 36.375 
Q 5.609375 53.953125 15.125 64.078125 
Q 24.65625 74.21875 41.21875 74.21875 
Q 47.75 74.21875 53.53125 72.484375 
Q 59.328125 70.75 64.40625 67.28125 
z
" id="DejaVuSans-67"/>
       <path d="M 41.109375 46.296875 
Q 39.59375 47.171875 37.8125 47.578125 
Q 36.03125 48 33.890625 48 
Q 26.265625 48 22.1875 43.046875 
Q 18.109375 38.09375 18.109375 28.8125 
L 18.109375 0 
L 9.078125 0 
L 9.078125 54.6875 
L 18.109375 54.6875 
L 18.109375 46.1875 
Q 20.953125 51.171875 25.484375 53.578125 
Q 30.03125 56 36.53125 56 
Q 37.453125 56 38.578125 55.875 
Q 39.703125 55.765625 41.0625 55.515625 
z
" id="DejaVuSans-114"/>
       <path d="M 9.421875 75.984375 
L 18.40625 75.984375 
L 18.40625 0 
L 9.421875 0 
z
" id="DejaVuSans-108"/>
      </defs>
      <use xlink:href="#DejaVuSans-67"/>
      <use x="69.824219" xlink:href="#DejaVuSans-101"/>
      <use x="131.347656" xlink:href="#DejaVuSans-110"/>
      <use x="194.726562" xlink:href="#DejaVuSans-116"/>
      <use x="233.935547" xlink:href="#DejaVuSans-114"/>
      <use x="272.798828" xlink:href="#DejaVuSans-101"/>
      <use x="334.322266" xlink:href="#DejaVuSans-108"/>
      <use x="362.105469" xlink:href="#DejaVuSans-105"/>
      <use x="389.888672" xlink:href="#DejaVuSans-110"/>
      <use x="453.267578" xlink:href="#DejaVuSans-101"/>
     </g>
    </g>
    <g id="line2d_20">
     <path d="M 133.841875 69.248563 
L 153.841875 69.248563 
" style="fill:none;stroke:#ff7f0e;stroke-linecap:square;stroke-width:1.5;"/>
    </g>
    <g id="line2d_21"/>
    <g id="text_16">
     <!-- Shortest Path -->
     <g transform="translate(161.841875 72.748563)scale(0.1 -0.1)">
      <defs>
       <path d="M 53.515625 70.515625 
L 53.515625 60.890625 
Q 47.90625 63.578125 42.921875 64.890625 
Q 37.9375 66.21875 33.296875 66.21875 
Q 25.25 66.21875 20.875 63.09375 
Q 16.5 59.96875 16.5 54.203125 
Q 16.5 49.359375 19.40625 46.890625 
Q 22.3125 44.4375 30.421875 42.921875 
L 36.375 41.703125 
Q 47.40625 39.59375 52.65625 34.296875 
Q 57.90625 29 57.90625 20.125 
Q 57.90625 9.515625 50.796875 4.046875 
Q 43.703125 -1.421875 29.984375 -1.421875 
Q 24.8125 -1.421875 18.96875 -0.25 
Q 13.140625 0.921875 6.890625 3.21875 
L 6.890625 13.375 
Q 12.890625 10.015625 18.65625 8.296875 
Q 24.421875 6.59375 29.984375 6.59375 
Q 38.421875 6.59375 43.015625 9.90625 
Q 47.609375 13.234375 47.609375 19.390625 
Q 47.609375 24.75 44.3125 27.78125 
Q 41.015625 30.8125 33.5 32.328125 
L 27.484375 33.5 
Q 16.453125 35.6875 11.515625 40.375 
Q 6.59375 45.0625 6.59375 53.421875 
Q 6.59375 63.09375 13.40625 68.65625 
Q 20.21875 74.21875 32.171875 74.21875 
Q 37.3125 74.21875 42.625 73.28125 
Q 47.953125 72.359375 53.515625 70.515625 
z
" id="DejaVuSans-83"/>
       <path d="M 54.890625 33.015625 
L 54.890625 0 
L 45.90625 0 
L 45.90625 32.71875 
Q 45.90625 40.484375 42.875 44.328125 
Q 39.84375 48.1875 33.796875 48.1875 
Q 26.515625 48.1875 22.3125 43.546875 
Q 18.109375 38.921875 18.109375 30.90625 
L 18.109375 0 
L 9.078125 0 
L 9.078125 75.984375 
L 18.109375 75.984375 
L 18.109375 46.1875 
Q 21.34375 51.125 25.703125 53.5625 
Q 30.078125 56 35.796875 56 
Q 45.21875 56 50.046875 50.171875 
Q 54.890625 44.34375 54.890625 33.015625 
z
" id="DejaVuSans-104"/>
       <path d="M 30.609375 48.390625 
Q 23.390625 48.390625 19.1875 42.75 
Q 14.984375 37.109375 14.984375 27.296875 
Q 14.984375 17.484375 19.15625 11.84375 
Q 23.34375 6.203125 30.609375 6.203125 
Q 37.796875 6.203125 41.984375 11.859375 
Q 46.1875 17.53125 46.1875 27.296875 
Q 46.1875 37.015625 41.984375 42.703125 
Q 37.796875 48.390625 30.609375 48.390625 
z
M 30.609375 56 
Q 42.328125 56 49.015625 48.375 
Q 55.71875 40.765625 55.71875 27.296875 
Q 55.71875 13.875 49.015625 6.21875 
Q 42.328125 -1.421875 30.609375 -1.421875 
Q 18.84375 -1.421875 12.171875 6.21875 
Q 5.515625 13.875 5.515625 27.296875 
Q 5.515625 40.765625 12.171875 48.375 
Q 18.84375 56 30.609375 56 
z
" id="DejaVuSans-111"/>
       <path d="M 19.671875 64.796875 
L 19.671875 37.40625 
L 32.078125 37.40625 
Q 38.96875 37.40625 42.71875 40.96875 
Q 46.484375 44.53125 46.484375 51.125 
Q 46.484375 57.671875 42.71875 61.234375 
Q 38.96875 64.796875 32.078125 64.796875 
z
M 9.8125 72.90625 
L 32.078125 72.90625 
Q 44.34375 72.90625 50.609375 67.359375 
Q 56.890625 61.8125 56.890625 51.125 
Q 56.890625 40.328125 50.609375 34.8125 
Q 44.34375 29.296875 32.078125 29.296875 
L 19.671875 29.296875 
L 19.671875 0 
L 9.8125 0 
z
" id="DejaVuSans-80"/>
      </defs>
      <use xlink:href="#DejaVuSans-83"/>
      <use x="63.476562" xlink:href="#DejaVuSans-104"/>
      <use x="126.855469" xlink:href="#DejaVuSans-111"/>
      <use x="188.037109" xlink:href="#DejaVuSans-114"/>
      <use x="229.150391" xlink:href="#DejaVuSans-116"/>
      <use x="268.359375" xlink:href="#DejaVuSans-101"/>
      <use x="329.882812" xlink:href="#DejaVuSans-115"/>
      <use x="381.982422" xlink:href="#DejaVuSans-116"/>
      <use x="421.191406" xlink:href="#DejaVuSans-32"/>
      <use x="452.978516" xlink:href="#DejaVuSans-80"/>
      <use x="508.78125" xlink:href="#DejaVuSans-97"/>
      <use x="570.060547" xlink:href="#DejaVuSans-116"/>
      <use x="609.269531" xlink:href="#DejaVuSans-104"/>
     </g>
    </g>
    <g id="line2d_22">
     <path d="M 133.841875 83.926688 
L 153.841875 83.926688 
" style="fill:none;stroke:#2ca02c;stroke-linecap:square;stroke-width:1.5;"/>
    </g>
    <g id="line2d_23"/>
    <g id="text_17">
     <!-- Minimum Curvature Path -->
     <g transform="translate(161.841875 87.426688)scale(0.1 -0.1)">
      <defs>
       <path d="M 9.8125 72.90625 
L 24.515625 72.90625 
L 43.109375 23.296875 
L 61.8125 72.90625 
L 76.515625 72.90625 
L 76.515625 0 
L 66.890625 0 
L 66.890625 64.015625 
L 48.09375 14.015625 
L 38.1875 14.015625 
L 19.390625 64.015625 
L 19.390625 0 
L 9.8125 0 
z
" id="DejaVuSans-77"/>
       <path d="M 52 44.1875 
Q 55.375 50.25 60.0625 53.125 
Q 64.75 56 71.09375 56 
Q 79.640625 56 84.28125 50.015625 
Q 88.921875 44.046875 88.921875 33.015625 
L 88.921875 0 
L 79.890625 0 
L 79.890625 32.71875 
Q 79.890625 40.578125 77.09375 44.375 
Q 74.3125 48.1875 68.609375 48.1875 
Q 61.625 48.1875 57.5625 43.546875 
Q 53.515625 38.921875 53.515625 30.90625 
L 53.515625 0 
L 44.484375 0 
L 44.484375 32.71875 
Q 44.484375 40.625 41.703125 44.40625 
Q 38.921875 48.1875 33.109375 48.1875 
Q 26.21875 48.1875 22.15625 43.53125 
Q 18.109375 38.875 18.109375 30.90625 
L 18.109375 0 
L 9.078125 0 
L 9.078125 54.6875 
L 18.109375 54.6875 
L 18.109375 46.1875 
Q 21.1875 51.21875 25.484375 53.609375 
Q 29.78125 56 35.6875 56 
Q 41.65625 56 45.828125 52.96875 
Q 50 49.953125 52 44.1875 
z
" id="DejaVuSans-109"/>
       <path d="M 8.5 21.578125 
L 8.5 54.6875 
L 17.484375 54.6875 
L 17.484375 21.921875 
Q 17.484375 14.15625 20.5 10.265625 
Q 23.53125 6.390625 29.59375 6.390625 
Q 36.859375 6.390625 41.078125 11.03125 
Q 45.3125 15.671875 45.3125 23.6875 
L 45.3125 54.6875 
L 54.296875 54.6875 
L 54.296875 0 
L 45.3125 0 
L 45.3125 8.40625 
Q 42.046875 3.421875 37.71875 1 
Q 33.40625 -1.421875 27.6875 -1.421875 
Q 18.265625 -1.421875 13.375 4.4375 
Q 8.5 10.296875 8.5 21.578125 
z
M 31.109375 56 
z
" id="DejaVuSans-117"/>
      </defs>
      <use xlink:href="#DejaVuSans-77"/>
      <use x="86.279297" xlink:href="#DejaVuSans-105"/>
      <use x="114.0625" xlink:href="#DejaVuSans-110"/>
      <use x="177.441406" xlink:href="#DejaVuSans-105"/>
      <use x="205.224609" xlink:href="#DejaVuSans-109"/>
      <use x="302.636719" xlink:href="#DejaVuSans-117"/>
      <use x="366.015625" xlink:href="#DejaVuSans-109"/>
      <use x="463.427734" xlink:href="#DejaVuSans-32"/>
      <use x="495.214844" xlink:href="#DejaVuSans-67"/>
      <use x="565.039062" xlink:href="#DejaVuSans-117"/>
      <use x="628.417969" xlink:href="#DejaVuSans-114"/>
      <use x="669.53125" xlink:href="#DejaVuSans-118"/>
      <use x="728.710938" xlink:href="#DejaVuSans-97"/>
      <use x="789.990234" xlink:href="#DejaVuSans-116"/>
      <use x="829.199219" xlink:href="#DejaVuSans-117"/>
      <use x="892.578125" xlink:href="#DejaVuSans-114"/>
      <use x="931.441406" xlink:href="#DejaVuSans-101"/>
      <use x="992.964844" xlink:href="#DejaVuSans-32"/>
      <use x="1024.751953" xlink:href="#DejaVuSans-80"/>
      <use x="1080.554688" xlink:href="#DejaVuSans-97"/>
      <use x="1141.833984" xlink:href="#DejaVuSans-116"/>
      <use x="1181.042969" xlink:href="#DejaVuSans-104"/>
     </g>
    </g>
    <g id="line2d_24">
     <path d="M 133.841875 98.604813 
L 153.841875 98.604813 
" style="fill:none;stroke:#d62728;stroke-linecap:square;stroke-width:1.5;"/>
    </g>
    <g id="line2d_25"/>
    <g id="text_18">
     <!-- Minimum Curvature Path based on Shortest Path -->
     <g transform="translate(161.841875 102.104813)scale(0.1 -0.1)">
      <defs>
       <path d="M 48.6875 27.296875 
Q 48.6875 37.203125 44.609375 42.84375 
Q 40.53125 48.484375 33.40625 48.484375 
Q 26.265625 48.484375 22.1875 42.84375 
Q 18.109375 37.203125 18.109375 27.296875 
Q 18.109375 17.390625 22.1875 11.75 
Q 26.265625 6.109375 33.40625 6.109375 
Q 40.53125 6.109375 44.609375 11.75 
Q 48.6875 17.390625 48.6875 27.296875 
z
M 18.109375 46.390625 
Q 20.953125 51.265625 25.265625 53.625 
Q 29.59375 56 35.59375 56 
Q 45.5625 56 51.78125 48.09375 
Q 58.015625 40.1875 58.015625 27.296875 
Q 58.015625 14.40625 51.78125 6.484375 
Q 45.5625 -1.421875 35.59375 -1.421875 
Q 29.59375 -1.421875 25.265625 0.953125 
Q 20.953125 3.328125 18.109375 8.203125 
L 18.109375 0 
L 9.078125 0 
L 9.078125 75.984375 
L 18.109375 75.984375 
z
" id="DejaVuSans-98"/>
      </defs>
      <use xlink:href="#DejaVuSans-77"/>
      <use x="86.279297" xlink:href="#DejaVuSans-105"/>
      <use x="114.0625" xlink:href="#DejaVuSans-110"/>
      <use x="177.441406" xlink:href="#DejaVuSans-105"/>
      <use x="205.224609" xlink:href="#DejaVuSans-109"/>
      <use x="302.636719" xlink:href="#DejaVuSans-117"/>
      <use x="366.015625" xlink:href="#DejaVuSans-109"/>
      <use x="463.427734" xlink:href="#DejaVuSans-32"/>
      <use x="495.214844" xlink:href="#DejaVuSans-67"/>
      <use x="565.039062" xlink:href="#DejaVuSans-117"/>
      <use x="628.417969" xlink:href="#DejaVuSans-114"/>
      <use x="669.53125" xlink:href="#DejaVuSans-118"/>
      <use x="728.710938" xlink:href="#DejaVuSans-97"/>
      <use x="789.990234" xlink:href="#DejaVuSans-116"/>
      <use x="829.199219" xlink:href="#DejaVuSans-117"/>
      <use x="892.578125" xlink:href="#DejaVuSans-114"/>
      <use x="931.441406" xlink:href="#DejaVuSans-101"/>
      <use x="992.964844" xlink:href="#DejaVuSans-32"/>
      <use x="1024.751953" xlink:href="#DejaVuSans-80"/>
      <use x="1080.554688" xlink:href="#DejaVuSans-97"/>
      <use x="1141.833984" xlink:href="#DejaVuSans-116"/>
      <use x="1181.042969" xlink:href="#DejaVuSans-104"/>
      <use x="1244.421875" xlink:href="#DejaVuSans-32"/>
      <use x="1276.208984" xlink:href="#DejaVuSans-98"/>
      <use x="1339.685547" xlink:href="#DejaVuSans-97"/>
      <use x="1400.964844" xlink:href="#DejaVuSans-115"/>
      <use x="1453.064453" xlink:href="#DejaVuSans-101"/>
      <use x="1514.587891" xlink:href="#DejaVuSans-100"/>
      <use x="1578.064453" xlink:href="#DejaVuSans-32"/>
      <use x="1609.851562" xlink:href="#DejaVuSans-111"/>
      <use x="1671.033203" xlink:href="#DejaVuSans-110"/>
      <use x="1734.412109" xlink:href="#DejaVuSans-32"/>
      <use x="1766.199219" xlink:href="#DejaVuSans-83"/>
      <use x="1829.675781" xlink:href="#DejaVuSans-104"/>
      <use x="1893.054688" xlink:href="#DejaVuSans-111"/>
      <use x="1954.236328" xlink:href="#DejaVuSans-114"/>
      <use x="1995.349609" xlink:href="#DejaVuSans-116"/>
      <use x="2034.558594" xlink:href="#DejaVuSans-101"/>
      <use x="2096.082031" xlink:href="#DejaVuSans-115"/>
      <use x="2148.181641" xlink:href="#DejaVuSans-116"/>
      <use x="2187.390625" xlink:href="#DejaVuSans-32"/>
      <use x="2219.177734" xlink:href="#DejaVuSans-80"/>
      <use x="2274.980469" xlink:href="#DejaVuSans-97"/>
      <use x="2336.259766" xlink:href="#DejaVuSans-116"/>
      <use x="2375.46875" xlink:href="#DejaVuSans-104"/>
     </g>
    </g>
   </g>
  </g>
 </g>
 <defs>
  <clipPath id="p55245f25ea">
   <rect height="266.112" width="357.12" x="57.6" y="41.472"/>
  </clipPath>
 </defs>
</svg>
